<?xml version="1.0" encoding="UTF-8"?>
<svg width="400px" height="72px" viewBox="0 0 400 72" version="1.1" xmlns="http://www.w3.org/2000/svg" xmlns:xlink="http://www.w3.org/1999/xlink">
    <!-- Generator: Sketch 49 (51002) - http://www.bohemiancoding.com/sketch -->
    <title>Page 1</title>
    <desc>Created with Sketch.</desc>
    <defs>
        <polygon id="path-1" points="0 1.23845191 20.5298259 1.23845191 20.5298259 31.0367128 0 31.0367128"></polygon>
        <polygon id="path-3" points="1.56264317 0.999 28.9177093 0.999 28.9177093 49.092481 1.56264317 49.092481"></polygon>
    </defs>
    <g id="Page-1" stroke="none" stroke-width="1" fill="none" fill-rule="evenodd">
        <g id="Tablet" transform="translate(-245.000000, -3481.000000)">
            <g id="Page-1" transform="translate(245.000000, 3480.000000)">
                <path d="M92.6581498,31.5127238 L93.8704846,31.6113905 L93.4123348,37.2565333 C93.3647577,37.8309143 93.3823789,38.3172 93.4687225,38.7153905 C93.553304,39.113581 93.6854626,39.4377714 93.8669604,39.6879619 C94.046696,39.9363905 94.2687225,40.1249143 94.5312775,40.2482476 C94.7973568,40.371581 95.0845815,40.4473429 95.3964758,40.4737714 C95.7171806,40.5002 96.0185022,40.4720095 96.2986784,40.3909619 C96.5788546,40.3116762 96.8325991,40.1636762 97.0546256,39.9469619 C97.2784141,39.7302476 97.4634361,39.4307238 97.6132159,39.0519143 C97.7612335,38.6731048 97.8581498,38.1956286 97.9057269,37.6230095 L98.3638767,31.9761048 L99.5321586,32.0712476 L99.0757709,37.6899619 C99.0123348,38.4563905 98.8713656,39.0959619 98.6528634,39.6086762 C98.4343612,40.1178667 98.1594714,40.5231048 97.8281938,40.8243905 C97.4951542,41.1256762 97.1127753,41.3300571 96.6828194,41.4375333 C96.2546256,41.5432476 95.7947137,41.5784857 95.3101322,41.5379619 C94.8237885,41.4992 94.3762115,41.3899619 93.9621145,41.2155333 C93.5515419,41.0393429 93.2044053,40.778581 92.9242291,40.4279619 C92.645815,40.075581 92.4396476,39.629819 92.307489,39.0906762 C92.1753304,38.5515333 92.138326,37.8978667 92.2017621,37.1296762 L92.6581498,31.5127238 Z" id="Fill-1" fill="#1A3667"></path>
                <path d="M100.810573,41.0759905 C100.83348,40.7940857 100.937445,40.5756095 101.120705,40.4188 C101.305727,40.2619905 101.518943,40.1932762 101.762115,40.2126571 C101.994714,40.2320381 102.190308,40.3342286 102.347137,40.5192286 C102.502203,40.7024667 102.570925,40.9350381 102.548018,41.2169429 C102.526872,41.4794667 102.422907,41.6891333 102.239648,41.8459429 C102.054626,42.0009905 101.844934,42.0697048 101.612335,42.0520857 C101.369163,42.0327048 101.170044,41.9287524 101.013216,41.7455143 C100.856388,41.5605143 100.789427,41.3385143 100.810573,41.0759905" id="Fill-3" fill="#1A3667"></path>
                <path d="M104.948194,40.0470381 C105.258326,40.4346571 105.637181,40.7553238 106.081233,41.0125619 C106.525286,41.2680381 106.997533,41.4178 107.492687,41.4583238 C108.123524,41.509419 108.627489,41.4054667 109.001057,41.1482286 C109.374626,40.8909905 109.580793,40.5245143 109.617797,40.0593714 C109.638943,39.8162286 109.612511,39.6065619 109.543789,39.4286095 C109.476828,39.252419 109.376388,39.0973714 109.244229,38.9652286 C109.113833,38.8313238 108.955242,38.7079905 108.768458,38.5952286 C108.581674,38.4824667 108.380793,38.3626571 108.165815,38.2375619 L106.842467,37.5275143 C106.627489,37.4129905 106.408987,37.2790857 106.185198,37.1222762 C105.963172,36.9672286 105.767577,36.7839905 105.598414,36.5743238 C105.429251,36.3646571 105.297093,36.1215143 105.201938,35.8448952 C105.106784,35.5682762 105.075066,35.2546571 105.10326,34.9040381 C105.131454,34.5446095 105.235419,34.2133714 105.41163,33.9156095 C105.586079,33.6160857 105.818678,33.3641333 106.104141,33.1579905 C106.389604,32.9500857 106.720881,32.7985619 107.096211,32.7016571 C107.471542,32.6047524 107.87859,32.5748 108.315595,32.6100381 C108.890044,32.6576095 109.41163,32.8108952 109.87859,33.0681333 C110.347313,33.3271333 110.738502,33.6442762 111.048634,34.0213238 L110.329692,34.7560381 C110.060088,34.4494667 109.755242,34.2045619 109.413392,34.0142762 C109.06978,33.8239905 108.675066,33.7112286 108.227489,33.6759905 C107.693568,33.6319429 107.25304,33.7200381 106.905903,33.9420381 C106.560529,34.1622762 106.37022,34.4935143 106.334978,34.9304667 C106.315595,35.1648 106.345551,35.3656571 106.424846,35.5312762 C106.504141,35.702181 106.616916,35.8519429 106.763172,35.9858476 C106.907665,36.1197524 107.06978,36.2413238 107.247753,36.3470381 C107.423965,36.4562762 107.607225,36.5584667 107.795771,36.6500857 L109.105022,37.3460381 C109.367577,37.4834667 109.614273,37.6385143 109.84511,37.8076571 C110.077709,37.9785619 110.271542,38.1723714 110.430132,38.3855619 C110.588722,38.6005143 110.708546,38.8436571 110.789604,39.1202762 C110.868899,39.3951333 110.89533,39.7087524 110.867137,40.0576095 C110.835419,40.438181 110.731454,40.7870381 110.555242,41.104181 C110.377269,41.4230857 110.135859,41.696181 109.834537,41.9199429 C109.533216,42.1437048 109.175507,42.3110857 108.764934,42.4220857 C108.354361,42.5295619 107.896211,42.5630381 107.390485,42.5207524 C106.719119,42.4678952 106.107665,42.2899429 105.554361,41.990419 C105.001057,41.6908952 104.532335,41.3050381 104.149956,40.8328476 L104.948194,40.0470381 Z" id="Fill-5" fill="#1A3667"></path>
                <path d="M112.235947,42.0050429 C112.258855,41.7231381 112.362819,41.5046619 112.546079,41.3478524 C112.731101,41.1928048 112.944317,41.1223286 113.187489,41.1434714 C113.420088,41.1610905 113.615683,41.263281 113.772511,41.448281 C113.927577,41.631519 113.9963,41.8640905 113.973392,42.1459952 C113.952247,42.408519 113.848282,42.6181857 113.665022,42.7749952 C113.48,42.9300429 113.270308,42.9987571 113.037709,42.9811381 C112.794537,42.9617571 112.595419,42.8595667 112.43859,42.6763286 C112.281762,42.4895667 112.214802,42.2675667 112.235947,42.0050429" id="Fill-7" fill="#1A3667"></path>
                <path d="M119.32141,41.217119 C119.631542,41.6047381 120.010396,41.9254048 120.454449,42.1826429 C120.900264,42.438119 121.368987,42.586119 121.865903,42.6284048 C122.49674,42.6795 123.000705,42.5755476 123.376035,42.3165476 C123.747841,42.0610714 123.954009,41.6945952 123.992775,41.2294524 C124.013921,40.9863095 123.987489,40.7766429 123.918767,40.5969286 C123.851806,40.4225 123.749604,40.2674524 123.619207,40.1335476 C123.488811,40.0014048 123.33022,39.8763095 123.139912,39.7653095 C122.953128,39.6507857 122.754009,39.5327381 122.539031,39.4076429 L121.215683,38.6975952 C121.000705,38.5830714 120.782203,38.4474048 120.558414,38.2923571 C120.336388,38.1373095 120.139031,37.9523095 119.97163,37.7444048 C119.802467,37.5347381 119.670308,37.2915952 119.575154,37.0149762 C119.48,36.7383571 119.44652,36.4229762 119.476476,36.0723571 C119.50467,35.7146905 119.606872,35.3834524 119.784846,35.0856905 C119.959295,34.7861667 120.190132,34.5342143 120.477357,34.3263095 C120.762819,34.1201667 121.094097,33.9686429 121.469427,33.8717381 C121.844758,33.7748333 122.251806,33.744881 122.690573,33.780119 C123.26326,33.8276905 123.786608,33.9792143 124.253568,34.2364524 C124.720529,34.4972143 125.111718,34.8125952 125.42185,35.1914048 L124.70467,35.926119 C124.435066,35.6195476 124.126696,35.372881 123.786608,35.1843571 C123.442996,34.9940714 123.048282,34.8813095 122.602467,34.8460714 C122.066784,34.8002619 121.626256,34.8883571 121.279119,35.1103571 C120.933744,35.3323571 120.743436,35.6635952 120.708194,36.1005476 C120.687048,36.334881 120.718767,36.5339762 120.798062,36.7013571 C120.877357,36.8705 120.98837,37.0220238 121.136388,37.1559286 C121.280881,37.2898333 121.442996,37.4114048 121.620969,37.517119 C121.798943,37.6263571 121.980441,37.7267857 122.168987,37.8201667 L123.478238,38.5143571 C123.742555,38.6535476 123.989251,38.8085952 124.22185,38.9777381 C124.449163,39.1486429 124.642996,39.3424524 124.80511,39.5556429 C124.9637,39.7688333 125.081762,40.0119762 125.164581,40.2903571 C125.245639,40.5652143 125.268546,40.8788333 125.240352,41.2276905 C125.208634,41.6082619 125.10467,41.957119 124.926696,42.2742619 C124.748722,42.5931667 124.509075,42.8662619 124.207753,43.0882619 C123.90467,43.3137857 123.550485,43.4811667 123.13815,43.5904048 C122.727577,43.697881 122.267665,43.733119 121.7637,43.6908333 C121.092335,43.6362143 120.479119,43.4582619 119.927577,43.1605 C119.374273,42.8609762 118.905551,42.475119 118.523172,42.0029286 L119.32141,41.217119 Z" id="Fill-9" fill="#1A3667"></path>
                <path d="M127.377445,36.8329714 L128.367753,36.914019 L128.387137,37.9447333 L128.431189,37.9482571 C128.771278,37.6328762 129.130749,37.3756381 129.516652,37.1765429 C129.897269,36.9774476 130.302555,36.8946381 130.730749,36.9298762 C131.275242,36.9739238 131.692863,37.1289714 131.978326,37.3914952 C132.265551,37.655781 132.466432,38.0064 132.577445,38.4468762 C132.979207,38.0680667 133.377445,37.7685429 133.773921,37.5518286 C134.168634,37.3351143 134.584493,37.2434952 135.021498,37.2787333 C135.752775,37.3386381 136.276123,37.617019 136.591542,38.1138762 C136.908722,38.6089714 137.03207,39.3119714 136.9563,40.2281619 L136.591542,44.722781 L135.395066,44.6241143 L135.747489,40.2898286 C135.800352,39.6203048 135.733392,39.1269714 135.544846,38.8133524 C135.352775,38.4979714 135.035595,38.3235429 134.588018,38.2865429 C134.052335,38.2424952 133.430308,38.5596381 132.718414,39.2362095 L132.300793,44.3721619 L131.102555,44.2752571 L131.454978,39.9409714 C131.511366,39.2714476 131.444405,38.7781143 131.252335,38.4644952 C131.063789,38.1491143 130.739559,37.9729238 130.28141,37.9359238 C129.747489,37.8936381 129.1237,38.209019 128.413568,38.8873524 L127.995947,44.0215429 L126.799471,43.9246381 L127.377445,36.8329714 Z" id="Fill-11" fill="#1A3667"></path>
                <path d="M139.882467,43.0512619 C139.848987,43.4582619 139.944141,43.7595476 140.16793,43.956881 C140.39348,44.1489286 140.680705,44.2616905 141.029604,44.289881 C141.369692,44.3180714 141.700969,44.2634524 142.021674,44.1260238 C142.340617,43.992119 142.684229,43.7824524 143.047225,43.4987857 L143.209339,41.5307381 C142.608458,41.5589286 142.099207,41.6117857 141.681586,41.6857857 C141.265727,41.7580238 140.927401,41.8584524 140.666608,41.9853095 C140.407577,42.1104048 140.215507,42.2636905 140.093921,42.4434048 C139.972335,42.624881 139.90185,42.8275 139.882467,43.0512619 M138.69304,43.0424524 C138.754714,42.2654524 139.152952,41.6963571 139.882467,41.3386905 C140.61022,40.9827857 141.741498,40.7836905 143.272775,40.7414048 C143.290396,40.5194048 143.288634,40.2974048 143.260441,40.0789286 C143.232247,39.8604524 143.170573,39.6666429 143.073656,39.4904524 C142.97674,39.3177857 142.837533,39.1715476 142.659559,39.0535 C142.486872,38.9372143 142.250749,38.8667381 141.958238,38.8420714 C141.538855,38.8085952 141.147665,38.8544048 140.779383,38.9812619 C140.412863,39.108119 140.078062,39.257881 139.780264,39.4287857 L139.366167,38.5584048 C139.715066,38.3716429 140.136211,38.1989762 140.627841,38.036881 C141.121233,37.8765476 141.653392,37.8184048 142.227841,37.8659762 C143.094802,37.9364524 143.700969,38.2518333 144.046344,38.8156429 C144.391718,39.3759286 144.530925,40.1000714 144.458678,40.9845476 L144.104493,45.3329286 L143.110661,45.251881 L143.077181,44.3973571 L143.048987,44.3955952 C142.684229,44.6493095 142.298326,44.8607381 141.887753,45.0263571 C141.478943,45.1955 141.052511,45.2606905 140.615507,45.2254524 C140.011101,45.176119 139.530044,44.9611667 139.163524,44.5788333 C138.797004,44.1947381 138.640176,43.6837857 138.69304,43.0424524" id="Fill-13" fill="#1A3667"></path>
                <path d="M147.211454,35.1278 L148.40793,35.2264667 L147.671366,44.2720857 C147.653744,44.4676571 147.678414,44.6050857 147.740088,44.6896571 C147.801762,44.7724667 147.875771,44.8182762 147.963877,44.8253238 C148.002643,44.8288476 148.039648,44.8306095 148.073128,44.8341333 C148.10837,44.8376571 148.157709,44.8306095 148.228194,44.8165143 L148.3163,45.7344667 C148.235242,45.766181 148.138326,45.7890857 148.032599,45.7996571 C147.923348,45.8102286 147.784141,45.8084667 147.620264,45.7961333 C147.163877,45.7573714 146.848458,45.5935143 146.675771,45.3063238 C146.504846,45.0173714 146.44141,44.6121333 146.481938,44.0870857 L147.211454,35.1278 Z" id="Fill-15" fill="#1A3667"></path>
                <path d="M150.933568,35.4306714 L152.130044,35.5293381 L151.39348,44.5749571 C151.375859,44.7705286 151.400529,44.9079571 151.462203,44.9925286 C151.522115,45.0753381 151.597885,45.1211476 151.685991,45.1281952 C151.724758,45.131719 151.761762,45.133481 151.795242,45.1370048 C151.830485,45.1405286 151.879824,45.133481 151.950308,45.1193857 L152.038414,46.0373381 C151.955595,46.0690524 151.860441,46.0919571 151.752952,46.1025286 C151.645463,46.1131 151.506256,46.1113381 151.342379,46.0990048 C150.885991,46.0602429 150.570573,45.8963857 150.397885,45.6091952 C150.225198,45.3202429 150.163524,44.9150048 150.204053,44.3899571 L150.933568,35.4306714 Z" id="Fill-17" fill="#1A3667"></path>
                <path d="M159.945551,41.1001286 C160.771982,41.167081 161.376388,41.0737 161.75348,40.8217476 C162.130573,40.5662714 162.340264,40.1733667 162.386079,39.6377476 C162.42837,39.1127 162.26978,38.7197952 161.915595,38.4625571 C161.557885,38.2017952 161.008106,38.0449857 160.257445,37.9815571 L158.784317,37.8617476 L158.530573,40.9856048 L159.945551,41.1001286 Z M159.827489,45.642319 C160.652159,45.7092714 161.305903,45.6088429 161.790485,45.3392714 C162.26978,45.0714619 162.541145,44.6098429 162.592247,43.9597 C162.641586,43.3659381 162.451278,42.9096048 162.026608,42.5995095 C161.600176,42.2858905 160.965815,42.092081 160.121762,42.0233667 L158.456564,41.8877 L158.162291,45.5066524 L159.827489,45.642319 Z M157.651278,36.801081 L160.497093,37.0318905 C160.983436,37.0724143 161.425727,37.1517 161.820441,37.2715095 C162.216916,37.393081 162.551718,37.5569381 162.824846,37.763081 C163.094449,37.9745095 163.300617,38.2335095 163.4363,38.5418429 C163.573744,38.8519381 163.624846,39.2166524 163.589604,39.6324619 C163.550837,40.1099381 163.379912,40.5292714 163.076828,40.8922238 C162.771982,41.2534143 162.331454,41.4842238 161.755242,41.5846524 L161.751718,41.6445571 C162.442467,41.8066524 162.969339,42.0938429 163.327048,42.5061286 C163.68652,42.9166524 163.8363,43.4540333 163.783436,44.1147476 C163.74467,44.5816524 163.624846,44.9816048 163.422203,45.3198905 C163.217797,45.6546524 162.94467,45.9259857 162.606344,46.1321286 C162.264493,46.3417952 161.868018,46.4862714 161.409868,46.5655571 C160.951718,46.6448429 160.458326,46.6642238 159.922643,46.6201762 L156.874185,46.3717476 L157.651278,36.801081 Z" id="Fill-19" fill="#1A3667"></path>
                <path d="M165.810044,39.9610571 L167.020617,40.0597238 L166.668194,44.3940095 C166.613568,45.0635333 166.678767,45.5568667 166.863789,45.8704857 C167.048811,46.1823429 167.374802,46.3602952 167.84,46.3972952 C168.210044,46.4290095 168.544846,46.3585333 168.842643,46.1929143 C169.140441,46.0255333 169.475242,45.7471524 169.850573,45.3577714 L170.259383,40.3222476 L171.457621,40.4209143 L170.88141,47.512581 L169.887577,47.4315333 L169.877004,46.3127238 L169.831189,46.3109619 C169.469956,46.6739143 169.096388,46.955819 168.712247,47.1584381 C168.329868,47.362819 167.889339,47.4438667 167.392423,47.4051048 C166.632952,47.3416762 166.099031,47.0632952 165.792423,46.5682 C165.485815,46.0748667 165.369515,45.3701048 165.443524,44.4556762 L165.810044,39.9610571 Z" id="Fill-21" fill="#1A3667"></path>
                <path d="M173.214802,46.086319 C173.503789,46.3629381 173.80511,46.5955095 174.120529,46.7769857 C174.430661,46.9584619 174.802467,47.0677 175.234185,47.1011762 C175.699383,47.1399381 176.057093,47.0624143 176.309075,46.8668429 C176.557533,46.6712714 176.69674,46.4175571 176.72141,46.1074619 C176.737269,45.9224619 176.702026,45.7568429 176.615683,45.6123667 C176.529339,45.4696524 176.414802,45.3410333 176.27207,45.2265095 C176.129339,45.1119857 175.967225,45.0080333 175.775154,44.9146524 C175.58837,44.8195095 175.399824,44.7278905 175.21304,44.6345095 C174.966344,44.5235095 174.719648,44.4054619 174.48,44.273319 C174.233304,44.1394143 174.016564,43.9843667 173.833304,43.8081762 C173.64652,43.6302238 173.498502,43.4311286 173.391013,43.2056048 C173.28,42.9818429 173.237709,42.719319 173.260617,42.4180333 C173.283524,42.1361286 173.362819,41.8753667 173.494978,41.6375095 C173.625374,41.3978905 173.80511,41.1970333 174.028899,41.0331762 C174.252687,40.871081 174.518767,40.7512714 174.828899,40.6737476 C175.139031,40.5962238 175.482643,40.5715571 175.861498,40.6032714 C176.310837,40.6385095 176.716123,40.7512714 177.075595,40.9380333 C177.436828,41.1230333 177.74696,41.3397476 178.000705,41.5828905 L177.369868,42.2982238 C177.142555,42.092081 176.901145,41.9229381 176.649163,41.7837476 C176.395419,41.6445571 176.11348,41.5635095 175.801586,41.537081 C175.354009,41.500081 175.015683,41.5758429 174.791894,41.7643667 C174.566344,41.9511286 174.442996,42.1819381 174.42185,42.4532714 C174.407753,42.6188905 174.437709,42.7668905 174.517004,42.8937476 C174.594537,43.0241286 174.702026,43.1386524 174.839471,43.2443667 C174.978678,43.348319 175.139031,43.4452238 175.324053,43.533319 C175.507313,43.6231762 175.697621,43.7130333 175.894978,43.8081762 C176.139912,43.9244619 176.390132,44.0477952 176.635066,44.1764143 C176.885286,44.3032714 177.105551,44.4565571 177.295859,44.6345095 C177.489692,44.8107 177.641233,45.0221286 177.754009,45.2652714 C177.866784,45.5101762 177.909075,45.7973667 177.882643,46.1268429 C177.859736,46.419319 177.780441,46.6888905 177.648282,46.9302714 C177.512599,47.1751762 177.331101,47.3848429 177.094978,47.5627952 C176.860617,47.7389857 176.576916,47.8711286 176.242115,47.9557 C175.905551,48.0402714 175.528458,48.0667 175.110837,48.0314619 C174.60511,47.9909381 174.132863,47.8587952 173.692335,47.6385571 C173.24652,47.4165571 172.867665,47.1505095 172.550485,46.8404143 L173.214802,46.086319 Z" id="Fill-23" fill="#1A3667"></path>
                <path d="M180.695154,39.7029381 C180.462555,39.6835571 180.272247,39.5954619 180.122467,39.4368905 C179.974449,39.278319 179.909251,39.0862714 179.926872,38.8625095 C179.946256,38.6299381 180.043172,38.4484619 180.214097,38.3198429 C180.385022,38.1929857 180.587665,38.1366048 180.820264,38.1559857 C181.054626,38.1753667 181.246696,38.2634619 181.394714,38.4167476 C181.544493,38.5700333 181.611454,38.7656048 181.59207,38.9981762 C181.572687,39.2219381 181.475771,39.3998905 181.304846,39.5320333 C181.133921,39.6659381 180.929515,39.722319 180.695154,39.7029381 Z M179.965639,41.1124619 L181.160352,41.2093667 L180.584141,48.3010333 L179.389427,48.2041286 L179.965639,41.1124619 Z" id="Fill-25" fill="#1A3667"></path>
                <path d="M183.555066,41.4045857 L184.545374,41.4856333 L184.56652,42.5163476 L184.608811,42.5198714 C184.978855,42.2062524 185.355947,41.9507762 185.750661,41.751681 C186.145374,41.5543476 186.589427,41.4750619 187.084581,41.5138238 C187.83348,41.5772524 188.362115,41.8556333 188.668722,42.3507286 C188.97533,42.8440619 189.095154,43.5505857 189.019383,44.4632524 L188.654626,48.9578714 L187.45815,48.8592048 L187.810573,44.526681 C187.863436,43.8571571 187.794714,43.3620619 187.606167,43.0502048 C187.415859,42.7348238 187.088106,42.5586333 186.621145,42.5216333 C186.249339,42.489919 185.918062,42.5568714 185.622026,42.7189667 C185.324229,42.8810619 184.982379,43.1277286 184.591189,43.4572048 L184.173568,48.5931571 L182.978855,48.4962524 L183.555066,41.4045857 Z" id="Fill-27" fill="#1A3667"></path>
                <path d="M195.72652,45.436 C195.786432,44.7065714 195.678943,44.1374762 195.402291,43.7269524 C195.125639,43.3181905 194.713304,43.0909048 194.158238,43.0468571 C193.908018,43.0257143 193.659559,43.0574286 193.423436,43.1402381 C193.187313,43.2248095 192.968811,43.3516667 192.76793,43.5278571 C192.568811,43.7040476 192.394361,43.9242857 192.249868,44.1903333 C192.105374,44.4581429 192.00141,44.77 191.932687,45.1259048 L195.72652,45.436 Z M190.720352,45.5716667 C190.76793,44.9884762 190.90185,44.4722381 191.120352,44.0247143 C191.337093,43.5771905 191.606696,43.2054286 191.929163,42.9076667 C192.253392,42.6116667 192.609339,42.3931905 193.002291,42.254 C193.397004,42.1148095 193.797004,42.0619524 194.205815,42.0954286 C194.653392,42.1306667 195.049868,42.2434286 195.391718,42.4284286 C195.733568,42.6099048 196.011982,42.8583333 196.22696,43.1701905 C196.441938,43.4820476 196.59348,43.8467619 196.688634,44.2660952 C196.783789,44.6836667 196.808458,45.1470476 196.76793,45.6527143 C196.746784,45.9152381 196.713304,46.1337143 196.669251,46.306381 L191.881586,45.9152381 C191.871013,46.6887143 192.056035,47.3159524 192.4437,47.7969524 C192.829604,48.2779524 193.363524,48.5492857 194.045463,48.6039048 C194.383789,48.6303333 194.700969,48.6056667 194.997004,48.526381 C195.29304,48.4488571 195.578502,48.3360952 195.853392,48.191619 L196.212863,49.0144286 C195.886872,49.1835714 195.529163,49.3262857 195.136211,49.4408095 C194.745022,49.5570952 194.304493,49.5940952 193.819912,49.5553333 C193.342379,49.5148095 192.903612,49.3932381 192.505374,49.190619 C192.105374,48.9862381 191.765286,48.7131429 191.48511,48.3730952 C191.204934,48.0330476 190.99348,47.6242857 190.856035,47.155619 C190.716828,46.6834286 190.672775,46.1548571 190.720352,45.5716667 Z" id="Fill-29" fill="#1A3667"></path>
                <path d="M198.137269,48.1132143 C198.426256,48.3915952 198.729339,48.6224048 199.042996,48.8056429 C199.353128,48.987119 199.726696,49.0945952 200.156652,49.1298333 C200.62185,49.1685952 200.979559,49.0893095 201.231542,48.8937381 C201.48,48.6981667 201.619207,48.4444524 201.643877,48.136119 C201.659736,47.9493571 201.624493,47.7855 201.53815,47.6410238 C201.453568,47.4965476 201.337269,47.3679286 201.194537,47.2551667 C201.051806,47.138881 200.889692,47.0366905 200.697621,46.9415476 C200.510837,46.8481667 200.322291,46.7547857 200.135507,46.6614048 C199.888811,46.5521667 199.642115,46.4323571 199.402467,46.3002143 C199.155771,46.1680714 198.940793,46.0130238 198.755771,45.8368333 C198.568987,45.658881 198.420969,45.4597857 198.31348,45.2342619 C198.202467,45.0105 198.160176,44.7479762 198.183084,44.4466905 C198.205991,44.1647857 198.285286,43.9022619 198.417445,43.6661667 C198.547841,43.4265476 198.727577,43.2256905 198.951366,43.0618333 C199.176916,42.8997381 199.441233,42.7781667 199.753128,42.7024048 C200.061498,42.623119 200.40511,42.5984524 200.785727,42.6301667 C201.233304,42.6654048 201.63859,42.7799286 201.998062,42.9649286 C202.359295,43.1516905 202.669427,43.3666429 202.923172,43.6115476 L202.292335,44.325119 C202.065022,44.1207381 201.823612,43.9498333 201.57163,43.8106429 C201.317885,43.6714524 201.035947,43.5921667 200.725815,43.5657381 C200.276476,43.5287381 199.93815,43.6027381 199.714361,43.7930238 C199.488811,43.9797857 199.365463,44.2088333 199.344317,44.4801667 C199.33022,44.6457857 199.360176,44.7937857 199.439471,44.9206429 C199.517004,45.0510238 199.624493,45.1673095 199.761938,45.2730238 C199.901145,45.3769762 200.06326,45.472119 200.24652,45.5619762 C200.42978,45.6500714 200.620088,45.7416905 200.817445,45.8350714 C201.064141,45.953119 201.312599,46.0764524 201.559295,46.2033095 C201.807753,46.3319286 202.02978,46.4852143 202.218326,46.6614048 C202.412159,46.8375952 202.5637,47.0490238 202.676476,47.2939286 C202.789251,47.5370714 202.831542,47.8242619 202.80511,48.1555 C202.782203,48.4462143 202.702907,48.7157857 202.570749,48.9589286 C202.435066,49.2038333 202.253568,49.4135 202.017445,49.5896905 C201.784846,49.7676429 201.499383,49.8980238 201.164581,49.9843571 C200.828018,50.0671667 200.450925,50.0935952 200.033304,50.0583571 C199.527577,50.0195952 199.05533,49.8874524 198.614802,49.6654524 C198.170749,49.4452143 197.790132,49.1774048 197.472952,48.8690714 L198.137269,48.1132143 Z" id="Fill-31" fill="#1A3667"></path>
                <path d="M204.251278,48.6121857 C204.540264,48.8888048 204.843348,49.1196143 205.157004,49.3028524 C205.468899,49.4843286 205.840705,49.5918048 206.270661,49.6270429 C206.735859,49.6658048 207.093568,49.586519 207.345551,49.3909476 C207.595771,49.1953762 207.733216,48.9416619 207.757885,48.6333286 C207.773744,48.4465667 207.738502,48.2827095 207.653921,48.1382333 C207.567577,47.995519 207.451278,47.8669 207.308546,47.7523762 C207.167577,47.6360905 207.0037,47.5339 206.81163,47.4387571 C206.626608,47.3453762 206.4363,47.2537571 206.249515,47.1586143 C206.002819,47.0493762 205.756123,46.9295667 205.516476,46.7991857 C205.26978,46.665281 205.054802,46.5102333 204.86978,46.3340429 C204.684758,46.1560905 204.534978,45.9569952 204.427489,45.7314714 C204.316476,45.5077095 204.275947,45.2451857 204.298855,44.9439 C204.321762,44.6619952 204.399295,44.3994714 204.531454,44.1633762 C204.66185,43.9237571 204.843348,43.7229 205.065374,43.5590429 C205.290925,43.3969476 205.555242,43.2753762 205.867137,43.1996143 C206.175507,43.1203286 206.520881,43.0974238 206.899736,43.1273762 C207.347313,43.1643762 207.752599,43.2771381 208.11207,43.4621381 C208.475066,43.6489 208.783436,43.8638524 209.038943,44.1087571 L208.408106,44.8223286 C208.179031,44.6179476 207.939383,44.4470429 207.685639,44.3078524 C207.433656,44.1704238 207.149956,44.0893762 206.839824,44.0629476 C206.392247,44.0259476 206.052159,44.0999476 205.830132,44.2902333 C205.602819,44.4769952 205.479471,44.7060429 205.458326,44.9773762 C205.444229,45.1429952 205.474185,45.2909952 205.55348,45.4196143 C205.631013,45.5499952 205.740264,45.664519 205.875947,45.7702333 C206.015154,45.8741857 206.177269,45.9693286 206.360529,46.0591857 C206.543789,46.147281 206.735859,46.2389 206.931454,46.332281 C207.17815,46.4503286 207.426608,46.5736619 207.673304,46.702281 C207.921762,46.8291381 208.143789,46.9824238 208.332335,47.1586143 C208.526167,47.3348048 208.679471,47.5479952 208.790485,47.7911381 C208.90326,48.034281 208.945551,48.3232333 208.919119,48.6527095 C208.896211,48.9451857 208.816916,49.2129952 208.684758,49.4561381 C208.550837,49.7010429 208.367577,49.9107095 208.131454,50.0886619 C207.898855,50.2648524 207.613392,50.3952333 207.27859,50.4815667 C206.943789,50.5661381 206.564934,50.5908048 206.147313,50.5573286 C205.641586,50.5168048 205.169339,50.3846619 204.728811,50.1626619 C204.284758,49.9424238 203.905903,49.6763762 203.58696,49.366281 L204.251278,48.6121857 Z" id="Fill-33" fill="#1A3667"></path>
                <path d="M94.8875771,55.030981 L94.5545374,53.5351238 C94.4223789,52.9871714 94.300793,52.439219 94.1880176,51.8983143 C94.0752423,51.3538857 93.9642291,50.7988857 93.8532159,50.2315524 L93.7950661,50.2262667 C93.6029956,50.7689333 93.409163,51.3010286 93.2100441,51.8172667 C93.0109251,52.3352667 92.8012335,52.8550286 92.5827313,53.3747905 L92.0135683,54.7966476 L94.8875771,55.030981 Z M95.1148899,56.0335048 L91.6259031,55.7498381 L90.4699559,58.5917905 L89.2294273,58.4913619 L93.2470485,49.184981 L94.6197357,49.295981 L97.0796476,59.1309333 L95.7809692,59.025219 L95.1148899,56.0335048 Z" id="Fill-35" fill="#1A3667"></path>
                <path d="M99.338326,55.745081 C99.2678414,56.6013667 99.384141,57.2814619 99.6872247,57.7853667 C99.9885463,58.2892714 100.45022,58.5694143 101.072247,58.6187476 C101.403524,58.6451762 101.722467,58.5905571 102.025551,58.4531286 C102.330396,58.3174619 102.642291,58.0954619 102.961233,57.7871286 L103.262555,54.0836048 C102.982379,53.7876048 102.709251,53.5708905 102.44141,53.4352238 C102.173568,53.301319 101.895154,53.2202714 101.602643,53.1973667 C101.320705,53.1744619 101.049339,53.2185095 100.790308,53.3312714 C100.53304,53.4405095 100.300441,53.6078905 100.096035,53.8316524 C99.89163,54.0554143 99.722467,54.3267476 99.5885463,54.6491762 C99.4546256,54.9733667 99.3718062,55.338081 99.338326,55.745081 M98.0960352,55.6587476 C98.1436123,55.0861286 98.2704846,54.5751762 98.4784141,54.1258905 C98.6863436,53.6783667 98.9436123,53.3048429 99.2537445,53.005319 C99.5603524,52.709319 99.907489,52.487319 100.29163,52.3428429 C100.675771,52.1966048 101.070485,52.1402238 101.479295,52.1754619 C101.888106,52.2071762 102.237004,52.3093667 102.525991,52.4785095 C102.81674,52.6511762 103.107489,52.8749381 103.398238,53.153319 L103.437004,51.9376048 L103.659031,49.2084143 L104.871366,49.3088429 L104.025551,59.6952714 L103.03348,59.6142238 L102.998238,58.7755571 L102.954185,58.7720333 C102.651101,59.0204619 102.307489,59.2318905 101.926872,59.3992714 C101.544493,59.5701762 101.146256,59.6388905 100.728634,59.6036524 C99.8334802,59.5314143 99.1462555,59.1526048 98.6687225,58.4672238 C98.1911894,57.7818429 98.0008811,56.8462714 98.0960352,55.6587476" id="Fill-37" fill="#1A3667"></path>
                <path d="M106.995242,52.7993524 L107.987313,52.8804 L108.006696,53.9111143 L108.050749,53.9146381 C108.390837,53.5992571 108.75207,53.342019 109.134449,53.1429238 C109.51859,52.9438286 109.923877,52.861019 110.35207,52.8962571 C110.896564,52.9403048 111.312423,53.0953524 111.599648,53.3578762 C111.886872,53.6221619 112.085991,53.972781 112.197004,54.4132571 C112.600529,54.0344476 112.998767,53.7349238 113.39348,53.5182095 C113.788194,53.3014952 114.204053,53.2098762 114.641057,53.2451143 C115.370573,53.305019 115.893921,53.5816381 116.212863,54.0802571 C116.530044,54.5735905 116.65163,55.2783524 116.577621,56.1945429 L116.211101,60.6874 L115.012863,60.5904952 L115.367048,56.2562095 C115.419912,55.5866857 115.352952,55.0933524 115.164405,54.7797333 C114.972335,54.4643524 114.655154,54.2899238 114.207577,54.2529238 C113.671894,54.2088762 113.049868,54.526019 112.337974,55.2025905 L111.920352,60.336781 L110.723877,60.2416381 L111.0763,55.9073524 C111.130925,55.2378286 111.063965,54.7444952 110.873656,54.4308762 C110.683348,54.1154952 110.360881,53.9393048 109.902731,53.9023048 C109.367048,53.860019 108.74326,54.1754 108.03489,54.8519714 L107.617269,59.9879238 L106.419031,59.8892571 L106.995242,52.7993524 Z" id="Fill-39" fill="#1A3667"></path>
                <path d="M119.823789,52.374381 C119.591189,52.355 119.399119,52.2669048 119.251101,52.1083333 C119.103084,51.9497619 119.037885,51.7577143 119.055507,51.5339524 C119.07489,51.301381 119.170044,51.1199048 119.342731,50.9912857 C119.513656,50.8644286 119.7163,50.8080476 119.950661,50.8274286 C120.185022,50.8468095 120.37533,50.9349048 120.523348,51.0881905 C120.673128,51.2414762 120.738326,51.4370476 120.718943,51.669619 C120.701322,51.893381 120.606167,52.0713333 120.43348,52.2034762 C120.260793,52.337381 120.05815,52.3937619 119.823789,52.374381 Z M119.092511,53.7839048 L120.290749,53.8808095 L119.712775,60.9724762 L118.5163,60.8738095 L119.092511,53.7839048 Z" id="Fill-41" fill="#1A3667"></path>
                <path d="M122.681233,54.0760286 L123.671542,54.1570762 L123.692687,55.1877905 L123.738502,55.1913143 C124.105022,54.8776952 124.483877,54.622219 124.880352,54.4231238 C125.273304,54.2257905 125.717357,54.1465048 126.212511,54.1852667 C126.963172,54.2486952 127.490044,54.5270762 127.796652,55.0221714 C128.10326,55.5155048 128.221322,56.2220286 128.147313,57.1346952 L127.782555,61.6293143 L126.584317,61.5306476 L126.93674,57.1963619 C126.991366,56.5286 126.924405,56.0335048 126.732335,55.7216476 C126.543789,55.4062667 126.216035,55.2300762 125.749075,55.1930762 C125.379031,55.1613619 125.045991,55.2283143 124.749956,55.3904095 C124.450396,55.5507429 124.108546,55.7991714 123.719119,56.1286476 L123.301498,61.2646 L122.105022,61.1659333 L122.681233,54.0760286 Z" id="Fill-43" fill="#1A3667"></path>
                <path d="M131.393833,53.3171762 C131.161233,53.2960333 130.970925,53.2079381 130.821145,53.0511286 C130.673128,52.8907952 130.60793,52.6987476 130.625551,52.4749857 C130.644934,52.2424143 130.740088,52.0609381 130.912775,51.934081 C131.0837,51.8072238 131.286344,51.7508429 131.520705,51.7684619 C131.753304,51.7896048 131.943612,51.8759381 132.095154,52.0309857 C132.24141,52.1842714 132.310132,52.378081 132.290749,52.6106524 C132.271366,52.8344143 132.174449,53.0123667 132.005286,53.1445095 C131.830837,53.2784143 131.628194,53.3365571 131.393833,53.3171762 Z M130.662555,54.7267 L131.859031,54.8218429 L131.282819,61.9135095 L130.086344,61.8166048 L130.662555,54.7267 Z" id="Fill-45" fill="#1A3667"></path>
                <path d="M133.617093,60.4886571 C133.906079,60.7652762 134.209163,60.9960857 134.522819,61.1793238 C134.834714,61.3608 135.204758,61.4700381 135.636476,61.5035143 C136.101674,61.5422762 136.459383,61.4629905 136.711366,61.267419 C136.961586,61.0736095 137.100793,60.8198952 137.1237,60.5098 C137.139559,60.3248 137.104317,60.159181 137.019736,60.0147048 C136.933392,59.8719905 136.817093,59.7433714 136.674361,59.6288476 C136.53163,59.5143238 136.369515,59.4103714 136.179207,59.3152286 C135.992423,59.2218476 135.802115,59.1302286 135.61533,59.0350857 C135.368634,58.9258476 135.1237,58.8060381 134.882291,58.6756571 C134.637357,58.5435143 134.420617,58.3867048 134.235595,58.2105143 C134.048811,58.0325619 133.902555,57.8334667 133.793304,57.6079429 C133.682291,57.384181 133.641762,57.1216571 133.66467,56.8203714 C133.687577,56.5384667 133.766872,56.2759429 133.897269,56.0398476 C134.029427,55.8002286 134.207401,55.5993714 134.431189,55.4372762 C134.65674,55.273419 134.922819,55.1536095 135.232952,55.0760857 C135.541322,54.9985619 135.886696,54.9738952 136.265551,55.0056095 C136.71489,55.0408476 137.118414,55.1536095 137.479648,55.3386095 C137.840881,55.5253714 138.149251,55.7420857 138.404758,55.9869905 L137.772159,56.7005619 C137.544846,56.494419 137.305198,56.3235143 137.051454,56.1860857 C136.799471,56.0468952 136.515771,55.9658476 136.205639,55.939419 C135.758062,55.902419 135.419736,55.978181 135.194185,56.1667048 C134.968634,56.3534667 134.845286,56.5825143 134.824141,56.8538476 C134.810044,57.0212286 134.841762,57.1674667 134.919295,57.2960857 C134.996828,57.4264667 135.106079,57.5427524 135.243524,57.6467048 C135.380969,57.7506571 135.543084,57.8475619 135.726344,57.9356571 C135.909604,58.0237524 136.099912,58.1153714 136.297269,58.2105143 C136.543965,58.3268 136.792423,58.4501333 137.039119,58.5787524 C137.289339,58.7056095 137.509604,58.8588952 137.699912,59.0368476 C137.891982,59.2130381 138.043524,59.4244667 138.1563,59.6676095 C138.269075,59.9125143 138.311366,60.1997048 138.284934,60.529181 C138.262026,60.8216571 138.182731,61.0894667 138.052335,61.3326095 C137.916652,61.5775143 137.735154,61.787181 137.499031,61.9651333 C137.26467,62.1413238 136.979207,62.2717048 136.646167,62.3580381 C136.309604,62.4426095 135.932511,62.4672762 135.51489,62.4338 C135.009163,62.3932762 134.535154,62.2611333 134.094626,62.0391333 C133.650573,61.8188952 133.271718,61.5528476 132.952775,61.2427524 L133.617093,60.4886571 Z" id="Fill-47" fill="#1A3667"></path>
                <path d="M140.230132,56.4866667 L139.17815,56.4020952 L139.252159,55.4982381 L140.367577,55.5140952 L140.675947,53.5425238 L141.682115,53.6253333 L141.52,55.6092381 L143.430132,55.7642857 L143.350837,56.7421429 L141.440705,56.5870952 L141.12,60.5267143 C141.084758,60.9636667 141.139383,61.3072381 141.27859,61.5591905 C141.421322,61.809381 141.694449,61.9538571 142.101498,61.9855714 C142.230132,61.9961429 142.367577,61.9890952 142.515595,61.9609048 C142.665374,61.9344762 142.801057,61.901 142.920881,61.8622381 L143.081233,62.7854762 C142.882115,62.8365714 142.665374,62.882381 142.431013,62.9158571 C142.198414,62.9510952 141.969339,62.9599048 141.745551,62.9405238 C141.368458,62.9105714 141.05304,62.826 140.804581,62.6903333 C140.557885,62.549381 140.360529,62.3749524 140.216035,62.1564762 C140.073304,61.938 139.97815,61.6807619 139.932335,61.3847619 C139.891806,61.087 139.882996,60.7645714 139.909427,60.4139524 L140.230132,56.4866667 Z" id="Fill-49" fill="#1A3667"></path>
                <path d="M145.022555,55.893081 L146.012863,55.9741286 L146.012863,57.2656048 L146.055154,57.2691286 C146.33533,56.8427476 146.659559,56.5115095 147.026079,56.2771762 C147.392599,56.0428429 147.778502,55.9406524 148.187313,55.9741286 C148.471013,55.9987952 148.719471,56.0675095 148.936211,56.1820333 L148.617269,57.2145095 C148.504493,57.1669381 148.397004,57.1264143 148.300088,57.0999857 C148.206696,57.0735571 148.08511,57.0524143 147.938855,57.040081 C147.637533,57.0171762 147.315066,57.112319 146.96793,57.3290333 C146.622555,57.5457476 146.305374,57.9457 146.012863,58.5288905 L145.641057,63.0816524 L144.446344,62.9829857 L145.022555,55.893081 Z" id="Fill-51" fill="#1A3667"></path>
                <path d="M150.161057,61.5107381 C150.127577,61.9177381 150.222731,62.2207857 150.44652,62.4163571 C150.670308,62.6101667 150.957533,62.7211667 151.308194,62.7493571 C151.648282,62.7775476 151.977797,62.7229286 152.298502,62.5872619 C152.617445,62.4515952 152.961057,62.2419286 153.325815,61.9582619 L153.486167,59.9902143 C152.887048,60.0184048 152.377797,60.0712619 151.960176,60.1452619 C151.544317,60.2192619 151.204229,60.3179286 150.945198,60.4447857 C150.686167,60.569881 150.494097,60.7231667 150.370749,60.902881 C150.249163,61.086119 150.180441,61.2869762 150.161057,61.5107381 M148.969868,61.5019286 C149.033304,60.7249286 149.431542,60.1558333 150.161057,59.7999286 C150.888811,59.4422619 152.018326,59.2431667 153.549604,59.200881 C153.568987,58.978881 153.565463,58.7586429 153.539031,58.5384048 C153.510837,58.3216905 153.449163,58.126119 153.352247,57.9499286 C153.253568,57.7772619 153.114361,57.6327857 152.93815,57.5129762 C152.7637,57.3966905 152.529339,57.3262143 152.235066,57.3015476 C151.817445,57.2698333 151.424493,57.313881 151.056211,57.4425 C150.689692,57.5693571 150.35489,57.7173571 150.058855,57.8882619 L149.644758,57.017881 C149.991894,56.832881 150.41304,56.6566905 150.906432,56.4963571 C151.398062,56.3360238 151.931982,56.277881 152.506432,56.3254524 C153.37163,56.3959286 153.977797,56.7113095 154.324934,57.275119 C154.670308,57.8354048 154.807753,58.5595476 154.735507,59.4440238 L154.383084,63.7924048 L153.389251,63.7113571 L153.355771,62.8585952 L153.327577,62.8550714 C152.962819,63.1087857 152.575154,63.3202143 152.166344,63.4875952 C151.755771,63.6549762 151.331101,63.7201667 150.894097,63.6849286 C150.289692,63.6355952 149.806872,63.4206429 149.442115,63.0383095 C149.075595,62.6542143 148.918767,62.1432619 148.969868,61.5019286" id="Fill-53" fill="#1A3667"></path>
                <path d="M157.011454,57.8528476 L155.957709,57.7665143 L156.03348,56.8626571 L157.148899,56.8802762 L157.455507,54.9087048 L158.463436,54.9897524 L158.301322,56.9736571 L160.211454,57.1304667 L160.132159,58.1083238 L158.222026,57.9515143 L157.901322,61.8911333 C157.864317,62.3280857 157.918943,62.673419 158.05815,62.9253714 C158.199119,63.1755619 158.474009,63.3200381 158.882819,63.3517524 C159.011454,63.3623238 159.148899,63.3535143 159.296916,63.3253238 C159.444934,63.3006571 159.580617,63.267181 159.702203,63.228419 L159.860793,64.1516571 C159.661674,64.2027524 159.444934,64.2468 159.210573,64.2820381 C158.979736,64.3172762 158.748899,64.3243238 158.52511,64.3067048 C158.148018,64.2767524 157.834361,64.192181 157.585903,64.0547524 C157.339207,63.9155619 157.140088,63.7393714 156.997357,63.5226571 C156.852863,63.304181 156.757709,63.0469429 156.713656,62.749181 C156.671366,62.451419 156.664317,62.1289905 156.690749,61.7783714 L157.011454,57.8528476 Z" id="Fill-55" fill="#1A3667"></path>
                <path d="M162.549075,55.8516762 C162.316476,55.8322952 162.126167,55.7424381 161.974626,55.5856286 C161.82837,55.4252952 161.763172,55.2332476 161.780793,55.0094857 C161.798414,54.7769143 161.89533,54.5972 162.068018,54.468581 C162.238943,54.3417238 162.441586,54.2853429 162.675947,54.3047238 C162.908546,54.3241048 163.098855,54.4104381 163.250396,54.5654857 C163.398414,54.7187714 163.465374,54.912581 163.444229,55.1469143 C163.426608,55.3706762 163.329692,55.5468667 163.158767,55.6807714 C162.986079,55.8146762 162.783436,55.8710571 162.549075,55.8516762 Z M161.819559,57.2612 L163.014273,57.3563429 L162.438062,64.4497714 L161.241586,64.3511048 L161.819559,57.2612 Z" id="Fill-57" fill="#1A3667"></path>
                <path d="M165.832423,61.1701619 C165.797181,61.5789238 165.816564,61.9524476 165.887048,62.2924952 C165.955771,62.630781 166.073833,62.926781 166.234185,63.1804952 C166.392775,63.4324476 166.595419,63.6333048 166.836828,63.7848286 C167.078238,63.9381143 167.351366,64.0262095 167.652687,64.0508762 C167.954009,64.073781 168.237709,64.0332571 168.503789,63.9222571 C168.764581,63.8112571 168.995419,63.6438762 169.194537,63.4201143 C169.393656,63.1963524 169.555771,62.9232571 169.682643,62.6008286 C169.804229,62.2766381 169.885286,61.9119238 169.917004,61.5014 C169.952247,61.0944 169.931101,60.7173524 169.862379,60.3755429 C169.791894,60.0319714 169.677357,59.7324476 169.517004,59.4734476 C169.356652,59.2162095 169.155771,59.0100667 168.914361,58.8585429 C168.671189,58.708781 168.399824,58.6189238 168.09674,58.5942571 C167.797181,58.5695905 167.511718,58.6136381 167.250925,58.7228762 C166.984846,58.8338762 166.754009,59.004781 166.55489,59.2320667 C166.355771,59.4611143 166.191894,59.7394952 166.070308,60.0672095 C165.943436,60.3949238 165.867665,60.7631619 165.832423,61.1701619 M164.590132,61.0679714 C164.637709,60.4759714 164.77163,59.9579714 164.990132,59.5086857 C165.208634,59.0611619 165.48,58.6911619 165.807753,58.3934 C166.135507,58.0974 166.502026,57.8824476 166.909075,57.7503048 C167.317885,57.6146381 167.739031,57.5653048 168.179559,57.6023048 C168.616564,57.6375429 169.025374,57.7555905 169.404229,57.9529238 C169.786608,58.1484952 170.114361,58.4198286 170.389251,58.7669238 C170.664141,59.1122571 170.87207,59.521019 171.014802,59.9984952 C171.155771,60.4759714 171.20511,61.0098286 171.155771,61.6035905 C171.109956,62.186781 170.976035,62.703019 170.761057,63.1505429 C170.540793,63.5980667 170.271189,63.9680667 169.941674,64.2605429 C169.613921,64.5512571 169.249163,64.7626857 168.840352,64.8965905 C168.433304,65.0287333 168.010396,65.0780667 167.573392,65.0428286 C167.132863,65.0075905 166.725815,64.8895429 166.345198,64.6939714 C165.962819,64.4966381 165.636828,64.2270667 165.360176,63.887019 C165.085286,63.5469714 164.875595,63.1364476 164.734626,62.6607333 C164.590132,62.1832571 164.544317,61.6529238 164.590132,61.0679714" id="Fill-59" fill="#1A3667"></path>
                <path d="M173.318062,58.1951857 L174.30837,58.2762333 L174.329515,59.3069476 L174.371806,59.3104714 C174.740088,58.9968524 175.118943,58.7431381 175.513656,58.542281 C175.906608,58.3467095 176.352423,58.2674238 176.847577,58.3061857 C177.596476,58.3696143 178.12511,58.6462333 178.431718,59.1413286 C178.738326,59.6346619 178.856388,60.3411857 178.782379,61.2538524 L178.415859,65.7484714 L177.221145,65.6515667 L177.571806,61.317281 C177.626432,60.6477571 177.557709,60.1544238 177.369163,59.8408048 C177.178855,59.5254238 176.851101,59.3492333 176.384141,59.3122333 C176.012335,59.282281 175.679295,59.3474714 175.385022,59.5095667 C175.087225,59.6716619 174.743612,59.9200905 174.354185,60.2495667 L173.934802,65.3837571 L172.740088,65.2868524 L173.318062,58.1951857 Z" id="Fill-61" fill="#1A3667"></path>
                <polygon id="Fill-63" fill="#CA2026" points="59.0669604 68.4965143 11.1127753 64.5938952 10.661674 64.5568952 10.7004405 64.0635619 11.2748899 57.0053714 7.16035242 56.6723714 6.17885463 68.7255619 58.7251101 73.0017048"></polygon>
                <polygon id="Fill-65" fill="#1A3667" points="10.3138326 18.8233095 14.4266079 19.1580714 15.0028194 12.099881 15.0415859 11.6065476 15.4926872 11.6435476 62.997533 15.5074048 63.4486344 15.5444048 63.4081057 16.0377381 62.8354185 23.0959286 66.9481938 23.4306905 67.9296916 11.3775 11.2953304 6.76835714"></polygon>
                <g id="Group-69" transform="translate(0.000000, 21.906643)">
                    <mask id="mask-2" fill="white">
                        <use xlink:href="#path-1"></use>
                    </mask>
                    <g id="Clip-68"></g>
                    <path d="M5.00669604,21.1299952 C4.91330396,22.7016143 5.36088106,25.7391381 9.87894273,26.1056143 C12.3300441,26.3064714 15.1088987,25.8607095 15.3520705,22.8795667 C15.5300441,20.6824714 13.7150661,19.9442333 11.1511894,19.0227571 L8.55207048,18.101281 C4.63665198,16.7146619 0.8569163,15.3826619 1.36088106,9.18428095 C1.61638767,6.04632857 3.54942731,0.639042857 11.5864317,1.29270952 C19.175859,1.9111381 20.7511894,7.7219 20.5062555,11.1769952 L15.5388546,10.7717571 C15.5000881,9.50670952 15.3309251,6.49209048 10.8111013,6.12385238 C8.8445815,5.96351905 6.4322467,6.59780476 6.2260793,9.14728095 C6.04634361,11.3426143 7.59524229,11.9434238 8.60669604,12.3028524 L14.5062555,14.4805667 C17.8102203,15.696281 20.7881938,17.5163286 20.375859,22.5747571 C19.6868722,31.049519 12.0357709,31.1763762 9.8630837,31.0001857 C0.825198238,30.2654714 -0.246167401,24.2168524 0.0392951542,20.726519 L5.00669604,21.1299952 Z" id="Fill-67" fill="#1A3667" mask="url(#mask-2)"></path>
                </g>
                <path d="M28.5242291,25.3272048 L41.0281938,26.3438238 C47.3348018,26.8565381 48.5947137,31.3035857 48.3585903,34.2054429 C48.0290749,38.2454905 45.8581498,39.2145381 44.7356828,39.714919 C47.784141,41.2653952 48.385022,44.0773952 48.1577093,46.8647286 C47.9762115,49.0988238 46.9436123,51.147919 45.4651982,52.4887286 C43.8687225,53.9370143 42.3920705,54.8038714 37.123348,54.3757286 L26.2317181,53.4894905 L28.5242291,25.3272048 Z M32.7867841,36.7690143 L39.09163,37.2799667 C41.2061674,37.4543952 42.9647577,36.6897286 43.1462555,34.4521095 C43.3348018,32.1369667 41.8863436,31.3088714 39.4493392,31.1097762 L33.2872247,30.6093952 L32.7867841,36.7690143 Z M31.7859031,49.0442048 L38.3797357,49.5815857 C40.9947137,49.7947762 42.6035242,48.6618714 42.8361233,45.7987762 C43.0370044,43.3285857 41.1779736,42.2273952 39.2431718,42.0705857 L32.4008811,41.5120619 L31.7859031,49.0442048 Z" id="Fill-70" fill="#1A3667"></path>
                <polygon id="Fill-72" fill="#1A3667" points="66.5027313 28.4071905 62.421674 28.0759524 51.9564758 55.5898571 57.114185 56.0109524 63.6269604 37.9179524 67.2093392 56.8337619 72.3705727 57.2530952"></polygon>
                <polygon id="Fill-74" fill="#1A3667" points="63.1832599 68.8044952 58.7251101 73.0013524 60.0819383 56.3214 64.1718062 56.6544"></polygon>
                <path d="M374.142203,67.8081381 L374.3237,67.3588524 L376.417093,68.2063286 C376.628546,68.2926619 376.817093,68.3437571 376.979207,68.3578524 C377.141322,68.3737095 377.278767,68.3613762 377.396828,68.3226143 C377.513128,68.2838524 377.611806,68.2221857 377.689339,68.1358524 C377.768634,68.049519 377.830308,67.9508524 377.876123,67.8345667 C377.9237,67.716519 377.950132,67.5967095 377.953656,67.4804238 C377.957181,67.3659 377.930749,67.2513762 377.874361,67.1403762 C377.819736,67.0293762 377.728106,66.9236619 377.601233,66.8214714 C377.474361,66.7210429 377.303436,66.6276619 377.091982,66.5413286 L374.996828,65.6938524 L375.17304,65.2604238 L377.257621,66.1043762 C377.541322,66.2189 377.766872,66.347519 377.936035,66.4919952 C378.105198,66.6347095 378.225022,66.7879952 378.300793,66.9518524 C378.376564,67.1139476 378.408282,67.2848524 378.397709,67.459281 C378.387137,67.6354714 378.344846,67.8134238 378.272599,67.9949 C378.200352,68.1746143 378.105198,68.3314238 377.990661,68.4688524 C377.872599,68.604519 377.73163,68.7049476 377.565991,68.7683762 C377.39859,68.8335667 377.204758,68.8582333 376.982731,68.8441381 C376.760705,68.8318048 376.510485,68.7648524 376.226784,68.6520905 L374.142203,67.8081381 Z" id="Fill-76" fill="#1A3667"></path>
                <path d="M378.754009,65.840619 C378.650044,65.8000952 378.576035,65.7331429 378.540793,65.6450476 C378.502026,65.5551905 378.502026,65.4653333 378.539031,65.3754762 C378.572511,65.2909048 378.635947,65.2274762 378.724053,65.1904762 C378.812159,65.1517143 378.910837,65.1552381 379.01304,65.1975238 C379.109956,65.2362857 379.180441,65.2997143 379.217445,65.3895714 C379.254449,65.4776667 379.254449,65.5657619 379.220969,65.6520952 C379.183965,65.7419524 379.122291,65.805381 379.032423,65.842381 C378.944317,65.8811429 378.850925,65.879381 378.754009,65.840619" id="Fill-78" fill="#1A3667"></path>
                <path d="M378.853744,64.1493667 C379.037004,64.0771286 379.206167,63.9714143 379.355947,63.8322238 C379.505727,63.6947952 379.618502,63.5327 379.692511,63.3494619 C379.785903,63.1151286 379.808811,62.9125095 379.755947,62.738081 C379.699559,62.5654143 379.588546,62.4438429 379.412335,62.3751286 C379.324229,62.3381286 379.243172,62.3222714 379.167401,62.3275571 C379.089868,62.3328429 379.021145,62.3522238 378.952423,62.3857 C378.887225,62.4209381 378.820264,62.4649857 378.755066,62.5231286 C378.689868,62.5795095 378.621145,62.6429381 378.548899,62.7098905 L378.120705,63.1292238 C378.051982,63.1961762 377.974449,63.2648905 377.886344,63.330081 C377.801762,63.3970333 377.710132,63.4498905 377.609692,63.4886524 C377.509251,63.5274143 377.401762,63.5485571 377.2837,63.552081 C377.169163,63.5556048 377.045815,63.5309381 376.915419,63.478081 C376.781498,63.4234619 376.670485,63.3459381 376.57533,63.2419857 C376.481938,63.1415571 376.413216,63.0217476 376.369163,62.8878429 C376.32511,62.7557 376.307489,62.6112238 376.314537,62.4561762 C376.321586,62.3028905 376.35859,62.144319 376.423789,61.9839857 C376.510132,61.7690333 376.629956,61.589319 376.785022,61.443081 C376.940088,61.295081 377.107489,61.184081 377.287225,61.110081 L377.481057,61.4712714 C377.33304,61.5399857 377.202643,61.6245571 377.089868,61.7320333 C376.977093,61.8395095 376.887225,61.9769381 376.820264,62.1425571 C376.739207,62.3398905 376.721586,62.5196048 376.762115,62.6764143 C376.806167,62.8349857 376.90837,62.9459857 377.072247,63.0129381 C377.15859,63.0481762 377.239648,63.0605095 377.311894,63.0499381 C377.384141,63.0393667 377.456388,63.0147 377.523348,62.9741762 C377.593833,62.9371762 377.657269,62.8878429 377.718943,62.8332238 C377.782379,62.7803667 377.842291,62.7222238 377.898678,62.662319 L378.319824,62.2465095 C378.404405,62.1619381 378.492511,62.0879381 378.584141,62.0192238 C378.677533,61.9522714 378.774449,61.9011762 378.873128,61.8659381 C378.973568,61.8307 379.081057,61.8148429 379.193833,61.8166048 C379.310132,61.8183667 379.43348,61.8465571 379.562115,61.8994143 C379.703084,61.9557952 379.822907,62.0368429 379.923348,62.1425571 C380.023789,62.2482714 380.097797,62.3716048 380.147137,62.5125571 C380.2,62.6552714 380.217621,62.812081 380.212335,62.9794619 C380.203524,63.1503667 380.161233,63.328319 380.085463,63.515081 C379.985022,63.7635095 379.844053,63.9749381 379.666079,64.1511286 C379.484581,64.3255571 379.281938,64.4577 379.056388,64.5475571 L378.853744,64.1493667 Z" id="Fill-80" fill="#1A3667"></path>
                <path d="M380.466256,61.6097571 C380.362291,61.5692333 380.288282,61.502281 380.25304,61.4141857 C380.214273,61.3243286 380.214273,61.2362333 380.251278,61.1446143 C380.28652,61.0600429 380.348194,60.9966143 380.4363,60.9596143 C380.524405,60.9208524 380.623084,60.9243762 380.725286,60.9666619 C380.822203,61.0054238 380.892687,61.0688524 380.929692,61.1587095 C380.966696,61.2485667 380.968458,61.3366619 380.933216,61.4229952 C380.896211,61.5110905 380.834537,61.574519 380.74467,61.613281 C380.656564,61.650281 380.563172,61.648519 380.466256,61.6097571" id="Fill-82" fill="#1A3667"></path>
                <path d="M381.010044,58.8215429 C381.195066,58.7493048 381.362467,58.6435905 381.512247,58.5044 C381.662026,58.3687333 381.774802,58.2066381 381.850573,58.0216381 C381.943965,57.7873048 381.966872,57.5829238 381.912247,57.4102571 C381.857621,57.2375905 381.744846,57.117781 381.570396,57.0473048 C381.482291,57.0103048 381.399471,56.9944476 381.3237,56.9979714 C381.24793,57.005019 381.177445,57.0244 381.110485,57.0578762 C381.045286,57.0913524 380.978326,57.1371619 380.913128,57.1953048 C380.846167,57.2534476 380.779207,57.3151143 380.705198,57.3820667 L380.277004,57.8014 C380.208282,57.8683524 380.130749,57.9370667 380.044405,58.0022571 C379.958062,58.0692095 379.866432,58.1203048 379.765991,58.1608286 C379.667313,58.1995905 379.559824,58.2207333 379.44,58.226019 C379.325463,58.227781 379.202115,58.2031143 379.071718,58.1502571 C378.937797,58.0956381 378.826784,58.0181143 378.73163,57.9159238 C378.638238,57.8119714 378.569515,57.6956857 378.527225,57.561781 C378.48141,57.4278762 378.465551,57.2834 378.470837,57.1301143 C378.477885,56.9768286 378.51489,56.8164952 378.580088,56.6544 C378.666432,56.4412095 378.788018,56.2614952 378.941322,56.1134952 C379.09815,55.9672571 379.265551,55.8562571 379.443524,55.7822571 L379.637357,56.1452095 C379.489339,56.2104 379.358943,56.2967333 379.24793,56.4042095 C379.135154,56.5116857 379.043524,56.6491143 378.976564,56.8147333 C378.897269,57.0120667 378.877885,57.191781 378.920176,57.3503524 C378.962467,57.5071619 379.06467,57.6199238 379.228546,57.6851143 C379.31489,57.7203524 379.395947,57.7326857 379.468194,57.7221143 C379.540441,57.7133048 379.612687,57.6868762 379.68141,57.6463524 C379.750132,57.6093524 379.813568,57.561781 379.875242,57.5054 C379.938678,57.4525429 379.99859,57.3944 380.05674,57.3344952 L380.476123,56.9186857 C380.560705,56.8358762 380.648811,56.7601143 380.742203,56.6914 C380.833833,56.6226857 380.930749,56.5733524 381.029427,56.5381143 C381.13163,56.5028762 381.239119,56.487019 381.351894,56.488781 C381.468194,56.4905429 381.58978,56.5187333 381.718414,56.5715905 C381.859383,56.6279714 381.980969,56.709019 382.079648,56.8147333 C382.180088,56.9204476 382.254097,57.043781 382.305198,57.1864952 C382.3563,57.3274476 382.373921,57.4842571 382.368634,57.6516381 C382.361586,57.820781 382.317533,58.0004952 382.241762,58.1872571 C382.143084,58.4356857 382.000352,58.6471143 381.822379,58.8215429 C381.640881,58.9977333 381.438238,59.1298762 381.214449,59.2197333 L381.010044,58.8215429 Z" id="Fill-84" fill="#1A3667"></path>
                <path d="M380.302731,55.2357143 L380.452511,54.8674762 L380.845463,54.982 L380.850749,54.9661429 C380.773216,54.8005238 380.716828,54.6331429 380.688634,54.4622381 C380.658678,54.2930952 380.674537,54.1292381 380.739736,53.9706667 C380.820793,53.7680476 380.928282,53.6270952 381.063965,53.5495714 C381.197885,53.4720476 381.354714,53.4385714 381.534449,53.4491429 C381.439295,53.2518095 381.372335,53.0632857 381.337093,52.8870952 C381.30185,52.7109048 381.315947,52.5417619 381.382907,52.3796667 C381.492159,52.1100952 381.661322,51.9427143 381.886872,51.8828095 C382.110661,51.8211429 382.394361,51.8581429 382.734449,51.9955714 L384.399648,52.668619 L384.221674,53.112619 L382.614626,52.4624762 C382.366167,52.3620476 382.170573,52.3285714 382.027841,52.3655714 C381.88511,52.3990476 381.781145,52.4994762 381.714185,52.6668571 C381.633128,52.8641905 381.680705,53.1390476 381.853392,53.4879048 L383.756476,54.259619 L383.57674,54.703619 L381.969692,54.0552381 C381.722996,53.9530476 381.525639,53.9178095 381.38467,53.9548095 C381.241938,53.9882857 381.137974,54.0904762 381.069251,54.261381 C380.988194,54.4604762 381.034009,54.7353333 381.206696,55.0859524 L383.10978,55.8559048 L382.930044,56.2999048 L380.302731,55.2357143 Z" id="Fill-86" fill="#1A3667"></path>
                <path d="M384.157357,51.2164571 C384.308899,51.2781238 384.434009,51.2781238 384.536211,51.2164571 C384.63489,51.1530286 384.714185,51.0578857 384.767048,50.9275048 C384.81815,50.8006476 384.835771,50.6685048 384.823436,50.5310762 C384.809339,50.3954095 384.772335,50.2386 384.707137,50.0659333 L383.975859,49.7699333 C383.915947,50.0025048 383.873656,50.2016 383.852511,50.368981 C383.831366,50.5363619 383.827841,50.6773143 383.845463,50.7900762 C383.863084,50.9046 383.898326,50.996219 383.952952,51.0649333 C384.005815,51.1318857 384.074537,51.182981 384.157357,51.2164571 M384.014626,51.6675048 C383.725639,51.551219 383.554714,51.3327429 383.507137,51.0120762 C383.459559,50.6931714 383.517709,50.2403619 383.683348,49.6518857 C383.602291,49.6184095 383.515947,49.5937429 383.431366,49.5778857 C383.34326,49.5620286 383.262203,49.5620286 383.18467,49.5778857 C383.105374,49.5955048 383.03489,49.6307429 382.96793,49.6818381 C382.902731,49.7364571 382.849868,49.8175048 382.804053,49.9267429 C382.742379,50.0800286 382.714185,50.2368381 382.717709,50.3918857 C382.721233,50.5469333 382.737093,50.6914095 382.768811,50.8235524 L382.388194,50.8781714 C382.358238,50.7231238 382.342379,50.5434095 382.338855,50.3355048 C382.337093,50.1293619 382.379383,49.9196952 382.465727,49.7065048 C382.594361,49.3840762 382.788194,49.1920286 383.041938,49.1268381 C383.297445,49.0634095 383.589956,49.0968857 383.915947,49.2307905 L385.528282,49.8826952 L385.378502,50.2509333 L385.050749,50.1610762 L385.047225,50.1716476 C385.100088,50.3407905 385.13533,50.5134571 385.147665,50.6896476 C385.161762,50.8640762 385.138855,51.034981 385.073656,51.1970762 C384.982026,51.4208381 384.842819,51.5794095 384.654273,51.6727905 C384.463965,51.7661714 384.252511,51.7644095 384.014626,51.6675048" id="Fill-88" fill="#1A3667"></path>
                <path d="M382.01674,47.4852714 L382.196476,47.0430333 L385.54978,48.3997 C385.622026,48.4296524 385.678414,48.4367 385.717181,48.4226048 C385.755947,48.4085095 385.782379,48.3856048 385.796476,48.3538905 C385.8,48.3380333 385.805286,48.3274619 385.810573,48.3133667 C385.815859,48.3010333 385.821145,48.2798905 385.82467,48.2517 L386.182379,48.3292238 C386.187665,48.3627 386.182379,48.4014619 386.173568,48.4437476 C386.164758,48.4860333 386.148899,48.5388905 386.124229,48.6005571 C386.055507,48.7697 385.955066,48.8701286 385.82467,48.9018429 C385.694273,48.9317952 385.533921,48.9088905 385.340088,48.8313667 L382.01674,47.4852714 Z" id="Fill-90" fill="#1A3667"></path>
                <path d="M382.575859,46.1053476 L382.755595,45.6631095 L386.108899,47.0215381 C386.181145,47.0497286 386.237533,47.0567762 386.2763,47.042681 C386.315066,47.0285857 386.341498,47.0074429 386.353833,46.9739667 C386.359119,46.9581095 386.364405,46.9475381 386.369692,46.9334429 C386.374978,46.9211095 386.378502,46.8999667 386.382026,46.8717762 L386.741498,46.9493 C386.745022,46.9845381 386.739736,47.0233 386.732687,47.0638238 C386.723877,47.1061095 386.708018,47.1607286 386.681586,47.2206333 C386.612863,47.3897762 386.514185,47.4902048 386.383789,47.521919 C386.253392,47.5518714 386.09304,47.5289667 385.899207,47.4514429 L382.575859,46.1053476 Z" id="Fill-92" fill="#1A3667"></path>
                <path d="M387.519824,43.9390857 C387.643172,43.6325143 387.6837,43.3717524 387.637885,43.1568 C387.593833,42.9418476 387.451101,42.7850381 387.20793,42.6863714 C386.987665,42.5965143 386.79207,42.6141333 386.622907,42.7392286 C386.453744,42.8643238 386.305727,43.0828 386.177093,43.396419 L385.928634,44.0130857 L387.269604,44.5557524 L387.519824,43.9390857 Z M385.807048,43.3523714 C385.932159,43.0458 385.965639,42.804419 385.914537,42.6317524 C385.865198,42.4573238 385.738326,42.3304667 385.539207,42.249419 C385.347137,42.1718952 385.177974,42.1842286 385.037004,42.288181 C384.897797,42.3938952 384.769163,42.584181 384.65815,42.8625619 L384.436123,43.4087524 L385.593833,43.877419 L385.807048,43.3523714 Z M383.896916,43.7118 L384.32511,42.658181 C384.397357,42.4784667 384.478414,42.3198952 384.573568,42.1824667 C384.665198,42.0468 384.767401,41.9393238 384.880176,41.8600381 C384.991189,41.7807524 385.114537,41.7349429 385.248458,41.7190857 C385.380617,41.7032286 385.526872,41.7278952 385.681938,41.7913238 C385.859912,41.8618 385.999119,41.9780857 386.097797,42.1366571 C386.2,42.2952286 386.235242,42.4908 386.207048,42.7216095 L386.228194,42.7286571 C386.372687,42.4855143 386.543612,42.3216571 386.742731,42.2335619 C386.94185,42.1454667 387.163877,42.1525143 387.410573,42.251181 C387.581498,42.3216571 387.720705,42.4150381 387.82467,42.5330857 C387.926872,42.6511333 387.997357,42.7868 388.036123,42.9400857 C388.073128,43.0951333 388.081938,43.2625143 388.059031,43.4475143 C388.034361,43.6289905 387.98326,43.8210381 387.902203,44.0183714 L387.445815,45.1495143 L383.896916,43.7118 Z" id="Fill-94" fill="#1A3667"></path>
                <path d="M386.072599,40.9864857 L386.254097,40.5372 L387.859383,41.1873429 C388.107841,41.2877714 388.303436,41.3212476 388.444405,41.2877714 C388.587137,41.2560571 388.691101,41.1538667 388.761586,40.9794381 C388.817974,40.8420095 388.83207,40.7081048 388.803877,40.5742 C388.775683,40.4402952 388.708722,40.2817238 388.604758,40.0914381 L386.740441,39.335581 L386.918414,38.8933429 L389.547489,39.9575333 L389.397709,40.3240095 L388.971278,40.1953905 L388.965991,40.2130095 C389.061145,40.3944857 389.121057,40.5689143 389.154537,40.7380571 C389.188018,40.9107238 389.16511,41.0869143 389.091101,41.2719143 C388.976564,41.5520571 388.807401,41.7212 388.583612,41.7793429 C388.358062,41.8374857 388.076123,41.7969619 387.737797,41.6595333 L386.072599,40.9864857 Z" id="Fill-96" fill="#1A3667"></path>
                <path d="M389.2837,38.8993333 C389.422907,38.8218095 389.546256,38.7337143 389.651982,38.6368095 C389.761233,38.5399048 389.845815,38.4112857 389.909251,38.2527143 C389.981498,38.0800476 389.99207,37.9338095 389.94978,37.8157619 C389.903965,37.6959524 389.82467,37.6149048 389.70837,37.5673333 C389.639648,37.5391429 389.574449,37.5338571 389.507489,37.5479524 C389.444053,37.5638095 389.382379,37.592 389.320705,37.6325238 C389.259031,37.6748095 389.200881,37.7241429 389.142731,37.7840476 C389.084581,37.8457143 389.026432,37.905619 388.968282,37.9672857 C388.896035,38.0465714 388.822026,38.1258571 388.742731,38.201619 C388.663436,38.2791429 388.580617,38.3425714 388.490749,38.3919048 C388.400881,38.443 388.307489,38.4747143 388.208811,38.4905714 C388.110132,38.5046667 388.002643,38.4888095 387.893392,38.443 C387.785903,38.4007143 387.699559,38.3408095 387.623789,38.2615238 C387.548018,38.184 387.493392,38.092381 387.45815,37.9866667 C387.421145,37.8827143 387.408811,37.7664286 387.415859,37.6395714 C387.422907,37.5127143 387.456388,37.3788095 387.512775,37.2378571 C387.579736,37.0722381 387.669604,36.9312857 387.784141,36.815 C387.896916,36.7004762 388.014978,36.6088571 388.140088,36.5419048 L388.337445,36.8678571 C388.229956,36.9295238 388.138326,37 388.055507,37.0792857 C387.972687,37.1603333 387.907489,37.2572381 387.859912,37.3735238 C387.792952,37.5391429 387.782379,37.6765714 387.826432,37.7840476 C387.870485,37.8932857 387.942731,37.9672857 388.044934,38.0078095 C388.106608,38.0324762 388.164758,38.0377619 388.222907,38.0236667 C388.282819,38.0095714 388.339207,37.981381 388.395595,37.942619 C388.451982,37.9020952 388.50837,37.8527619 388.564758,37.7928571 C388.619383,37.7329524 388.675771,37.6712857 388.733921,37.6078571 C388.809692,37.5285714 388.885463,37.4492857 388.964758,37.37 C389.042291,37.2889524 389.126872,37.2237619 389.218502,37.1726667 C389.30837,37.1198095 389.405286,37.0880952 389.512775,37.074 C389.61674,37.0599048 389.73304,37.0792857 389.854626,37.128619 C389.963877,37.1726667 390.055507,37.2343333 390.131278,37.313619 C390.208811,37.3946667 390.268722,37.4880476 390.307489,37.5990476 C390.348018,37.7082857 390.362115,37.833381 390.355066,37.9708095 C390.348018,38.1082381 390.312775,38.2544762 390.249339,38.4095238 C390.173568,38.5962857 390.066079,38.7601429 389.928634,38.9028571 C389.792952,39.0438095 389.646696,39.1565714 389.489868,39.2411429 L389.2837,38.8993333 Z" id="Fill-98" fill="#1A3667"></path>
                <path d="M388.196123,35.7404143 L388.375859,35.2981762 L391.003172,36.3623667 L390.823436,36.8046048 L388.196123,35.7404143 Z M387.745022,35.2928905 C387.711542,35.3792238 387.655154,35.4426524 387.575859,35.4814143 C387.498326,35.5184143 387.419031,35.5201762 387.336211,35.4867 C387.246344,35.4514619 387.191718,35.393319 387.16,35.3122714 C387.133568,35.2312238 387.137093,35.1484143 387.172335,35.062081 C387.207577,34.9739857 387.263965,34.912319 387.339736,34.8735571 C387.417269,34.8365571 387.498326,34.8330333 387.58467,34.8700333 C387.667489,34.9035095 387.723877,34.9616524 387.753833,35.0427 C387.785551,35.1237476 387.780264,35.2065571 387.745022,35.2928905 Z" id="Fill-100" fill="#1A3667"></path>
                <path d="M388.734802,34.4094714 L388.882819,34.0412333 L389.275771,34.157519 L389.282819,34.1416619 C389.208811,33.9637095 389.155947,33.787519 389.129515,33.6148524 C389.099559,33.4421857 389.122467,33.2642333 389.198238,33.0792333 C389.309251,32.8008524 389.478414,32.6334714 389.703965,32.5753286 C389.927753,32.5171857 390.209692,32.5577095 390.548018,32.6951381 L392.214978,33.3699476 L392.03348,33.8121857 L390.429956,33.1620429 C390.177974,33.0616143 389.984141,33.0281381 389.843172,33.0633762 C389.700441,33.0968524 389.592952,33.2025667 389.524229,33.3752333 C389.467841,33.5126619 389.453744,33.6465667 389.478414,33.7787095 C389.504846,33.9108524 389.559471,34.0711857 389.638767,34.2597095 L391.54185,35.0296619 L391.362115,35.4736619 L388.734802,34.4094714 Z" id="Fill-102" fill="#1A3667"></path>
                <path d="M391.716828,30.2601857 C391.447225,30.1509476 391.216388,30.1227571 391.027841,30.1791381 C390.839295,30.235519 390.703612,30.3659 390.620793,30.5720429 C390.582026,30.6636619 390.566167,30.7605667 390.569692,30.8609952 C390.573216,30.9614238 390.596123,31.0618524 390.640176,31.1587571 C390.680705,31.2539 390.742379,31.347281 390.830485,31.4336143 C390.913304,31.5199476 391.019031,31.5974714 391.147665,31.6661857 L391.716828,30.2601857 Z M391.170573,32.1789 C390.955595,32.0925667 390.775859,31.9798048 390.633128,31.8441381 C390.486872,31.7084714 390.375859,31.5604714 390.303612,31.4019 C390.227841,31.2450905 390.189075,31.0829952 390.180264,30.9173762 C390.174978,30.7499952 390.204934,30.5896619 390.264846,30.4399 C390.333568,30.274281 390.419912,30.1368524 390.530925,30.0293762 C390.641938,29.9201381 390.768811,29.8443762 390.913304,29.7985667 C391.057797,29.754519 391.216388,29.7386619 391.387313,29.7527571 C391.556476,29.7686143 391.736211,29.8144238 391.921233,29.8884238 C392.019912,29.9289476 392.099207,29.9677095 392.159119,30.0047095 L391.441938,31.7789476 C391.734449,31.8758524 391.995242,31.8793762 392.224317,31.789519 C392.455154,31.6996619 392.620793,31.5287571 392.721233,31.2768048 C392.774097,31.1499476 392.800529,31.0283762 392.804053,30.9050429 C392.809339,30.7834714 392.800529,30.6619 392.781145,30.5385667 L393.137093,30.4998048 C393.161762,30.644281 393.174097,30.7993286 393.170573,30.9614238 C393.168811,31.123519 393.130044,31.2944238 393.057797,31.4741381 C392.985551,31.6520905 392.886872,31.8036143 392.761762,31.9322333 C392.636652,32.0590905 392.490396,32.1577571 392.330044,32.2229476 C392.166167,32.2881381 391.98467,32.3198524 391.790837,32.3163286 C391.597004,32.3128048 391.387313,32.2669952 391.170573,32.1789 Z" id="Fill-104" fill="#1A3667"></path>
                <path d="M393.02467,29.6606095 C393.163877,29.5848476 393.285463,29.4967524 393.392952,29.3980857 C393.502203,29.301181 393.585022,29.1725619 393.65022,29.0139905 C393.720705,28.8413238 393.73304,28.6968476 393.688987,28.5770381 C393.644934,28.4572286 393.565639,28.376181 393.449339,28.3286095 C393.380617,28.300419 393.313656,28.2951333 393.248458,28.3109905 C393.18326,28.3268476 393.123348,28.3532762 393.059912,28.3955619 C392.998238,28.4360857 392.940088,28.485419 392.8837,28.5470857 C392.823789,28.6069905 392.767401,28.6668952 392.707489,28.7285619 C392.635242,28.8078476 392.561233,28.8871333 392.481938,28.9628952 C392.402643,29.040419 392.319824,29.1038476 392.229956,29.153181 C392.14185,29.2042762 392.048458,29.2359905 391.948018,29.2518476 C391.849339,29.2659429 391.743612,29.2500857 391.634361,29.2060381 C391.526872,29.1619905 391.440529,29.1020857 391.364758,29.0228 C391.287225,28.9452762 391.232599,28.8536571 391.199119,28.7479429 C391.162115,28.6439905 391.148018,28.5294667 391.155066,28.4026095 C391.163877,28.2739905 391.195595,28.1400857 391.251982,27.9991333 C391.320705,27.8335143 391.408811,27.6925619 391.523348,27.5780381 C391.637885,27.4617524 391.755947,27.3701333 391.881057,27.303181 L392.076652,27.6291333 C391.970925,27.6908 391.879295,27.7612762 391.796476,27.8405619 C391.713656,27.9216095 391.648458,28.0185143 391.600881,28.1348 C391.533921,28.300419 391.521586,28.4378476 391.567401,28.5470857 C391.609692,28.6545619 391.681938,28.7285619 391.785903,28.7690857 C391.847577,28.7937524 391.903965,28.7990381 391.962115,28.7849429 C392.023789,28.7726095 392.080176,28.744419 392.134802,28.7038952 C392.191189,28.6633714 392.249339,28.6140381 392.305727,28.5541333 C392.35859,28.4942286 392.414978,28.4325619 392.47489,28.3691333 C392.548899,28.2898476 392.62467,28.2105619 392.705727,28.1312762 C392.781498,28.0502286 392.866079,27.9850381 392.957709,27.9339429 C393.047577,27.8828476 393.146256,27.8493714 393.251982,27.8352762 C393.357709,27.8229429 393.472247,27.8405619 393.593833,27.8916571 C393.703084,27.9339429 393.794714,27.9956095 393.872247,28.0748952 C393.94978,28.1559429 394.00793,28.2493238 394.046696,28.3603238 C394.087225,28.4695619 394.101322,28.5946571 394.094273,28.7320857 C394.088987,28.8695143 394.051982,29.0157524 393.990308,29.1708 C393.914537,29.3593238 393.807048,29.521419 393.669604,29.6641333 C393.532159,29.8068476 393.385903,29.9196095 393.229075,30.002419 L393.02467,29.6606095 Z" id="Fill-106" fill="#1A3667"></path>
                <path d="M393.94185,27.3928619 C394.081057,27.3153381 394.204405,27.2290048 394.310132,27.1303381 C394.419383,27.0334333 394.503965,26.9048143 394.567401,26.7462429 C394.639648,26.5735762 394.65022,26.4273381 394.60793,26.3092905 C394.562115,26.189481 394.482819,26.1084333 394.36652,26.0608619 C394.297797,26.0326714 394.232599,26.0273857 394.167401,26.0432429 C394.102203,26.0591 394.040529,26.0855286 393.978855,26.1278143 C393.917181,26.1665762 393.859031,26.2176714 393.800881,26.2793381 C393.742731,26.3392429 393.684581,26.3991476 393.626432,26.4608143 C393.554185,26.5401 393.480176,26.6193857 393.400881,26.6951476 C393.321586,26.7726714 393.238767,26.8361 393.148899,26.8854333 C393.059031,26.9365286 392.965639,26.9682429 392.86696,26.9841 C392.768282,26.9981952 392.662555,26.9823381 392.553304,26.9382905 C392.445815,26.8942429 392.357709,26.8343381 392.281938,26.7550524 C392.206167,26.6757667 392.151542,26.5859095 392.1163,26.4801952 C392.079295,26.3762429 392.065198,26.261719 392.074009,26.1331 C392.081057,26.0062429 392.114537,25.8723381 392.170925,25.7313857 C392.237885,25.5657667 392.327753,25.4248143 392.442291,25.3085286 C392.555066,25.1940048 392.673128,25.1023857 392.798238,25.0354333 L392.993833,25.3613857 C392.888106,25.4230524 392.796476,25.4935286 392.715419,25.5728143 C392.630837,25.6538619 392.567401,25.7507667 392.518062,25.8670524 C392.451101,26.0326714 392.440529,26.1701 392.484581,26.2793381 C392.528634,26.3868143 392.600881,26.4590524 392.703084,26.5013381 C392.764758,26.5260048 392.822907,26.5312905 392.879295,26.5154333 C392.940969,26.5031 392.997357,26.4749095 393.053744,26.4361476 C393.110132,26.3956238 393.16652,26.3462905 393.222907,26.2863857 C393.275771,26.226481 393.333921,26.1648143 393.39207,26.1013857 C393.467841,26.0221 393.543612,25.9428143 393.622907,25.8635286 C393.700441,25.782481 393.785022,25.7172905 393.876652,25.6661952 C393.96652,25.6151 394.063436,25.5816238 394.170925,25.5675286 C394.27489,25.5551952 394.391189,25.5728143 394.512775,25.6221476 C394.622026,25.6661952 394.713656,25.7278619 394.789427,25.8071476 C394.86696,25.8864333 394.926872,25.9815762 394.965639,26.0908143 C395.006167,26.2018143 395.020264,26.3269095 395.013216,26.4643381 C395.006167,26.6017667 394.970925,26.7480048 394.907489,26.9030524 C394.831718,27.0898143 394.724229,27.2536714 394.586784,27.3963857 C394.449339,27.5391 394.304846,27.6518619 394.148018,27.7346714 L393.94185,27.3928619 Z" id="Fill-108" fill="#1A3667"></path>
                <path d="M385.454802,64.5537238 L384.846872,64.5026286 C384.623084,64.4867714 384.399295,64.4691524 384.179031,64.4462476 C383.960529,64.4251048 383.73674,64.4022 383.509427,64.3757714 L383.500617,64.3969143 C383.683877,64.5343429 383.86185,64.6717714 384.032775,64.8092 C384.207225,64.9466286 384.379912,65.087581 384.550837,65.2320571 L385.024846,65.6179143 L385.454802,64.5537238 Z M385.865374,64.5872 L385.343789,65.8804381 L386.28652,66.6574381 L386.099736,67.1190571 L383.037181,64.4814857 L383.243348,63.9722952 L387.276828,64.2083905 L387.082996,64.6893905 L385.865374,64.5872 Z" id="Fill-110" fill="#1A3667"></path>
                <path d="M386.260264,62.9466905 C386.577445,63.0753095 386.850573,63.1123095 387.077885,63.0559286 C387.303436,63.0013095 387.465551,62.8585952 387.557181,62.6277857 C387.608282,62.5062143 387.624141,62.3775952 387.610044,62.2454524 C387.592423,62.1133095 387.544846,61.9670714 387.467313,61.8102619 L386.092863,61.2552619 C385.94837,61.3257381 385.833833,61.4032619 385.751013,61.4895952 C385.666432,61.5759286 385.604758,61.6728333 385.560705,61.7820714 C385.518414,61.8842619 385.500793,61.9935 385.513128,62.1045 C385.5237,62.2172619 385.560705,62.3247381 385.622379,62.4286905 C385.682291,62.5344048 385.76511,62.6295476 385.870837,62.7194048 C385.980088,62.8092619 386.10696,62.8850238 386.260264,62.9466905 M386.077004,63.4083095 C385.865551,63.3219762 385.685815,63.2109762 385.541322,63.0788333 C385.395066,62.9466905 385.284053,62.8057381 385.20652,62.6524524 C385.128987,62.4991667 385.086696,62.3405952 385.076123,62.1767381 C385.067313,62.0146429 385.095507,61.8578333 385.155419,61.7063095 C385.217093,61.5547857 385.296388,61.4349762 385.396828,61.3433571 C385.493744,61.2535 385.61533,61.1689286 385.7563,61.0931667 L385.296388,60.9310714 L384.286696,60.5223095 L384.468194,60.0730238 L388.320176,61.6323095 L388.170396,62.0005476 L387.84793,61.9142143 L387.840881,61.9300714 C387.900793,62.0763095 387.939559,62.2313571 387.957181,62.3969762 C387.976564,62.5608333 387.955419,62.7211667 387.893744,62.8762143 C387.759824,63.2074524 387.532511,63.4241667 387.21533,63.5245952 C386.89815,63.6250238 386.517533,63.5862619 386.077004,63.4083095" id="Fill-112" fill="#1A3667"></path>
                <path d="M386.051982,59.6817048 L386.2,59.3134667 L386.592952,59.4297524 L386.6,59.4138952 C386.520705,59.2465143 386.464317,59.0791333 386.436123,58.9099905 C386.406167,58.7390857 386.423789,58.5752286 386.487225,58.4166571 C386.570044,58.2140381 386.677533,58.0748476 386.811454,57.9955619 C386.945374,57.9198 387.103965,57.8845619 387.2837,57.8951333 C387.188546,57.6978 387.119824,57.5110381 387.084581,57.3330857 C387.051101,57.1568952 387.065198,56.9895143 387.130396,56.8256571 C387.24141,56.5560857 387.408811,56.3887048 387.634361,56.3288 C387.859912,56.2671333 388.143612,56.3041333 388.4837,56.4415619 L390.148899,57.1163714 L389.969163,57.5586095 L388.363877,56.9084667 C388.113656,56.8080381 387.919824,56.7763238 387.777093,56.8115619 C387.634361,56.8450381 387.530396,56.9454667 387.463436,57.1128476 C387.382379,57.310181 387.428194,57.5850381 387.600881,57.9356571 L389.503965,58.7056095 L389.324229,59.1513714 L387.718943,58.5012286 C387.470485,58.3990381 387.27489,58.3655619 387.132159,58.4008 C386.991189,58.4342762 386.885463,58.5382286 386.81674,58.7073714 C386.737445,58.9064667 386.78326,59.1813238 386.955947,59.5319429 L388.859031,60.3036571 L388.679295,60.7458952 L386.051982,59.6817048 Z" id="Fill-114" fill="#1A3667"></path>
                <path d="M387.865727,55.1978333 L388.047225,54.7555952 L390.674537,55.8180238 L390.494802,56.2620238 L387.865727,55.1978333 Z M387.416388,54.7520714 C387.382907,54.8366429 387.324758,54.9000714 387.245463,54.9388333 C387.169692,54.9758333 387.088634,54.9775952 387.005815,54.944119 C386.917709,54.908881 386.861322,54.8507381 386.833128,54.7696905 C386.804934,54.6886429 386.808458,54.6058333 386.8437,54.5195 C386.877181,54.4331667 386.933568,54.3697381 387.011101,54.3309762 C387.088634,54.2939762 387.16793,54.2922143 387.256035,54.3256905 C387.338855,54.3609286 387.39348,54.4190714 387.425198,54.500119 C387.456916,54.5811667 387.453392,54.6639762 387.416388,54.7520714 Z" id="Fill-116" fill="#1A3667"></path>
                <path d="M388.405991,53.8668905 L388.554009,53.4986524 L388.94696,53.6131762 L388.954009,53.599081 C388.88,53.4193667 388.827137,53.2449381 388.798943,53.0722714 C388.770749,52.8996048 388.793656,52.7216524 388.867665,52.5366524 C388.980441,52.2600333 389.149604,52.0908905 389.375154,52.0327476 C389.598943,51.9746048 389.880881,52.0151286 390.219207,52.1507952 L391.886167,52.8273667 L391.706432,53.2696048 L390.099383,52.6194619 C389.850925,52.5190333 389.65533,52.4855571 389.514361,52.5207952 C389.37163,52.5560333 389.264141,52.6599857 389.193656,52.8326524 C389.139031,52.970081 389.124934,53.1039857 389.149604,53.2378905 C389.176035,53.3682714 389.228899,53.5286048 389.309956,53.7171286 L391.21304,54.4888429 L391.033304,54.931081 L388.405991,53.8668905 Z" id="Fill-118" fill="#1A3667"></path>
                <path d="M389.6037,50.909181 L389.783436,50.465181 L392.410749,51.5311333 L392.229251,51.9733714 L389.6037,50.909181 Z M389.152599,50.463419 C389.119119,50.5479905 389.062731,50.611419 388.981674,50.650181 C388.905903,50.687181 388.824846,50.6889429 388.742026,50.6554667 C388.653921,50.6202286 388.599295,50.5620857 388.567577,50.4810381 C388.539383,50.3999905 388.54467,50.317181 388.579912,50.2308476 C388.615154,50.1427524 388.671542,50.0810857 388.747313,50.0440857 C388.823084,50.0053238 388.905903,50.0018 388.992247,50.0388 C389.075066,50.0705143 389.131454,50.130419 389.16141,50.2114667 C389.191366,50.2925143 389.187841,50.3753238 389.152599,50.463419 Z" id="Fill-120" fill="#1A3667"></path>
                <path d="M392.147137,50.4731095 C392.288106,50.3955857 392.411454,50.3092524 392.517181,50.2105857 C392.62467,50.113681 392.711013,49.9850619 392.774449,49.8264905 C392.844934,49.6538238 392.857269,49.5075857 392.814978,49.3895381 C392.769163,49.2697286 392.689868,49.188681 392.573568,49.1411095 C392.504846,49.112919 392.439648,49.1076333 392.372687,49.1234905 C392.307489,49.1393476 392.245815,49.1657762 392.184141,49.2080619 C392.124229,49.2468238 392.064317,49.297919 392.00793,49.3578238 C391.94978,49.4194905 391.889868,49.4793952 391.83348,49.5410619 C391.761233,49.6203476 391.687225,49.6996333 391.60793,49.7753952 C391.528634,49.852919 391.445815,49.9163476 391.355947,49.965681 C391.264317,50.0167762 391.172687,50.0484905 391.074009,50.0643476 C390.97533,50.0784429 390.867841,50.0625857 390.756828,50.0185381 C390.651101,49.9744905 390.564758,49.9145857 390.488987,49.8353 C390.413216,49.7560143 390.35859,49.6661571 390.323348,49.5604429 C390.286344,49.4564905 390.272247,49.3419667 390.281057,49.2133476 C390.288106,49.0864905 390.321586,48.9525857 390.377974,48.8116333 C390.444934,48.6460143 390.534802,48.5050619 390.647577,48.3887762 C390.762115,48.2742524 390.880176,48.1826333 391.005286,48.115681 L391.200881,48.4398714 C391.095154,48.5033 391.003524,48.5737762 390.920705,48.6530619 C390.837885,48.7341095 390.772687,48.8310143 390.72511,48.9473 C390.65815,49.112919 390.645815,49.2503476 390.69163,49.3578238 C390.735683,49.4670619 390.80793,49.5393 390.90837,49.5815857 C390.971806,49.6062524 391.029956,49.6115381 391.086344,49.595681 C391.148018,49.5833476 391.204405,49.5551571 391.260793,49.5163952 C391.317181,49.4758714 391.373568,49.4265381 391.428194,49.3666333 C391.482819,49.3067286 391.540969,49.2450619 391.599119,49.1816333 C391.673128,49.1023476 391.750661,49.0230619 391.828194,48.9437762 C391.907489,48.8627286 391.99207,48.7975381 392.0837,48.7464429 C392.171806,48.6953476 392.270485,48.6618714 392.377974,48.6477762 C392.481938,48.6354429 392.598238,48.6530619 392.719824,48.7023952 C392.829075,48.7464429 392.920705,48.8081095 392.996476,48.8873952 C393.074009,48.966681 393.133921,49.0618238 393.172687,49.1710619 C393.211454,49.2820619 393.227313,49.4071571 393.220264,49.5428238 C393.211454,49.6820143 393.177974,49.8282524 393.114537,49.9833 C393.038767,50.1700619 392.931278,50.333919 392.793833,50.4766333 C392.656388,50.6193476 392.510132,50.7321095 392.355066,50.814919 L392.147137,50.4731095 Z" id="Fill-122" fill="#1A3667"></path>
                <path d="M391.414097,47.4817476 L391.255507,47.8711286 L390.920705,47.7354619 L391.061674,47.3126048 L390.344493,46.9602238 L390.496035,46.5867 L391.232599,46.8862238 L391.521586,46.1779381 L391.882819,46.3241762 L391.595595,47.0324619 L393.056388,47.6244619 C393.21674,47.6896524 393.355947,47.7107952 393.46696,47.6861286 C393.579736,47.6632238 393.666079,47.5751286 393.727753,47.4236048 C393.747137,47.3760333 393.761233,47.3231762 393.768282,47.2632714 C393.77533,47.2033667 393.778855,47.1487476 393.778855,47.0976524 L394.150661,47.1469857 C394.145374,47.2280333 394.136564,47.3161286 394.122467,47.4095095 C394.106608,47.5028905 394.0837,47.5909857 394.05022,47.6737952 C393.99207,47.8129857 393.923348,47.9222238 393.840529,48.0015095 C393.759471,48.0790333 393.667841,48.1318905 393.567401,48.1618429 C393.468722,48.1900333 393.359471,48.195319 393.24141,48.1777 C393.123348,48.158319 392.998238,48.123081 392.867841,48.0702238 L391.414097,47.4817476 Z" id="Fill-124" fill="#1A3667"></path>
                <path d="M391.758238,45.5873476 L391.906256,45.2191095 L392.396123,45.3741571 L392.403172,45.3583 C392.274537,45.1997286 392.188194,45.0376333 392.142379,44.8702524 C392.094802,44.7028714 392.103612,44.5425381 392.163524,44.3927762 C392.207577,44.2870619 392.262203,44.2007286 392.332687,44.1337762 L392.686872,44.376919 C392.655154,44.413919 392.628722,44.4491571 392.605815,44.4826333 C392.58467,44.5161095 392.561762,44.5601571 392.540617,44.6130143 C392.494802,44.7257762 392.49304,44.859681 392.533568,45.0182524 C392.575859,45.1750619 392.690396,45.3442048 392.878943,45.523919 L394.565286,46.2075381 L394.385551,46.6515381 L391.758238,45.5873476 Z" id="Fill-126" fill="#1A3667"></path>
                <path d="M394.506432,44.3004524 C394.657974,44.362119 394.783084,44.362119 394.885286,44.3004524 C394.983965,44.2370238 395.061498,44.141881 395.116123,44.0115 C395.165463,43.8864048 395.184846,43.7525 395.172511,43.6150714 C395.156652,43.4794048 395.117885,43.3225952 395.054449,43.1499286 L394.323172,42.8556905 C394.26326,43.0865 394.222731,43.2855952 394.201586,43.4547381 C394.178678,43.6203571 394.176916,43.7613095 394.192775,43.8758333 C394.210396,43.9885952 394.247401,44.0802143 394.302026,44.1471667 C394.353128,44.215881 394.423612,44.2669762 394.506432,44.3004524 M394.360176,44.7532619 C394.072952,44.6352143 393.903789,44.4167381 393.854449,44.0978333 C393.806872,43.7771667 393.866784,43.3243571 394.030661,42.735881 C393.947841,42.7024048 393.86326,42.6777381 393.778678,42.661881 C393.692335,42.6460238 393.611278,42.6460238 393.53022,42.661881 C393.452687,42.6795 393.382203,42.7147381 393.315242,42.7675952 C393.250044,42.8204524 393.197181,42.9032619 393.153128,43.0107381 C393.089692,43.1640238 393.06326,43.3208333 393.066784,43.475881 C393.070308,43.6309286 393.086167,43.7736429 393.116123,43.9075476 L392.735507,43.9621667 C392.707313,43.807119 392.689692,43.6274048 392.68793,43.4195 C392.684405,43.2133571 392.726696,43.0036905 392.81304,42.7905 C392.943436,42.4698333 393.137269,42.2777857 393.389251,42.2108333 C393.644758,42.1474048 393.937269,42.1826429 394.26326,42.3147857 L395.875595,42.9666905 L395.727577,43.3349286 L395.399824,43.2450714 L395.3963,43.2556429 C395.449163,43.4247857 395.484405,43.5974524 395.49674,43.7736429 C395.510837,43.9498333 395.48793,44.1172143 395.420969,44.2810714 C395.331101,44.5048333 395.190132,44.6634048 395.001586,44.7567857 C394.81304,44.8501667 394.599824,44.8501667 394.360176,44.7532619" id="Fill-128" fill="#1A3667"></path>
                <path d="M393.93163,41.2601095 L393.774802,41.6494905 L393.44,41.5138238 L393.579207,41.0909667 L392.863789,40.7385857 L393.013568,40.3650619 L393.751894,40.6645857 L394.040881,39.9563 L394.402115,40.1025381 L394.11489,40.8108238 L395.575683,41.4028238 C395.736035,41.4680143 395.875242,41.4891571 395.986256,41.4644905 C396.099031,41.4415857 396.185374,41.3534905 396.245286,41.2019667 C396.266432,41.1543952 396.278767,41.1015381 396.287577,41.0416333 C396.294626,40.9817286 396.29815,40.9271095 396.296388,40.8760143 L396.669956,40.9253476 C396.66467,41.0063952 396.654097,41.0944905 396.641762,41.1878714 C396.624141,41.2812524 396.602996,41.3693476 396.567753,41.4521571 C396.511366,41.5913476 396.440881,41.7005857 396.359824,41.7798714 C396.277004,41.8573952 396.187137,41.9102524 396.086696,41.9402048 C395.988018,41.9683952 395.877004,41.973681 395.758943,41.9560619 C395.640881,41.936681 395.515771,41.9014429 395.385374,41.8485857 L393.93163,41.2601095 Z" id="Fill-130" fill="#1A3667"></path>
                <path d="M394.280881,39.3604238 L394.460617,38.9181857 L397.08793,39.9823762 L396.908194,40.4246143 L394.280881,39.3604238 Z M393.828018,38.9146619 C393.794537,38.9992333 393.739912,39.0626619 393.660617,39.1014238 C393.583084,39.1384238 393.503789,39.1401857 393.420969,39.1067095 C393.331101,39.0714714 393.276476,39.0133286 393.244758,38.932281 C393.218326,38.8512333 393.22185,38.7684238 393.257093,38.6820905 C393.292335,38.5939952 393.348722,38.5323286 393.424493,38.4935667 C393.502026,38.4565667 393.583084,38.4530429 393.669427,38.4900429 C393.752247,38.5217571 393.808634,38.5816619 393.83859,38.6627095 C393.870308,38.7437571 393.865022,38.8265667 393.828018,38.9146619 Z" id="Fill-132" fill="#1A3667"></path>
                <path d="M396.244405,38.2988762 C396.395947,38.3605429 396.540441,38.3993048 396.677885,38.4116381 C396.81533,38.4239714 396.942203,38.4169238 397.05674,38.3852095 C397.17304,38.3552571 397.275242,38.3024 397.359824,38.2266381 C397.44793,38.1544 397.513128,38.061019 397.557181,37.950019 C397.602996,37.8372571 397.620617,37.7262571 397.608282,37.6099714 C397.601233,37.4989714 397.564229,37.3897333 397.500793,37.2875429 C397.440881,37.1853524 397.3563,37.0902095 397.247048,37.0056381 C397.139559,36.9193048 397.009163,36.8453048 396.857621,36.7854 C396.706079,36.7219714 396.561586,36.6849714 396.424141,36.6708762 C396.283172,36.656781 396.154537,36.6638286 396.038238,36.6955429 C395.920176,36.7254952 395.819736,36.7783524 395.73163,36.8523524 C395.647048,36.9263524 395.580088,37.0179714 395.536035,37.1307333 C395.49022,37.2417333 395.474361,37.3544952 395.48141,37.4672571 C395.493744,37.581781 395.530749,37.6892571 395.594185,37.7932095 C395.655859,37.8954 395.743965,37.9905429 395.853216,38.0786381 C395.962467,38.1649714 396.092863,38.2372095 396.244405,38.2988762 M396.059383,38.7587333 C395.839119,38.6688762 395.657621,38.5561143 395.513128,38.4204476 C395.368634,38.284781 395.259383,38.136781 395.183612,37.9764476 C395.111366,37.8178762 395.074361,37.6522571 395.070837,37.4813524 C395.069075,37.3104476 395.102555,37.1430667 395.167753,36.9809714 C395.232952,36.8188762 395.326344,36.6779238 395.446167,36.5563524 C395.565991,36.434781 395.708722,36.3431619 395.872599,36.2797333 C396.038238,36.2145429 396.217974,36.1845905 396.417093,36.1881143 C396.616211,36.1898762 396.824141,36.2356857 397.044405,36.323781 C397.261145,36.4118762 397.440881,36.5228762 397.587137,36.6603048 C397.729868,36.7959714 397.837357,36.9439714 397.909604,37.1025429 C397.98185,37.2628762 398.018855,37.4284952 398.020617,37.5994 C398.024141,37.7685429 397.990661,37.9359238 397.925463,38.098019 C397.860264,38.2618762 397.766872,38.4028286 397.645286,38.5244 C397.527225,38.6442095 397.384493,38.7375905 397.222379,38.802781 C397.060264,38.8662095 396.878767,38.8961619 396.683172,38.8944 C396.482291,38.8908762 396.276123,38.8468286 396.059383,38.7587333" id="Fill-134" fill="#1A3667"></path>
                <path d="M396.00511,35.0985524 L396.15489,34.7303143 L396.547841,34.8448381 L396.55489,34.8307429 C396.480881,34.6510286 396.428018,34.4766 396.399824,34.3039333 C396.37163,34.1312667 396.394537,33.9515524 396.468546,33.7683143 C396.579559,33.4899333 396.748722,33.3207905 396.974273,33.2644095 C397.199824,33.2062667 397.481762,33.2467905 397.818326,33.3824571 L399.485286,34.0572667 L399.305551,34.5012667 L397.700264,33.8511238 C397.450044,33.7506952 397.254449,33.717219 397.111718,33.7506952 C396.972511,33.7859333 396.865022,33.8898857 396.794537,34.0643143 C396.739912,34.199981 396.722291,34.3356476 396.750485,34.4677905 C396.775154,34.5999333 396.82978,34.7602667 396.909075,34.9487905 L398.813921,35.7187429 L398.634185,36.1627429 L396.00511,35.0985524 Z" id="Fill-136" fill="#1A3667"></path>
                <polygon id="Fill-138" fill="#CA2026" points="380.282115 23.2212 365.101498 60.7162952 364.958767 61.0686762 364.572863 60.9118667 359.053921 58.6777714 357.751718 61.8932476 367.179031 65.7095333 383.81163 24.6289619"></polygon>
                <g id="Group-142" transform="translate(317.180617, 0.763786)">
                    <mask id="mask-4" fill="white">
                        <use xlink:href="#path-3"></use>
                    </mask>
                    <g id="Clip-141"></g>
                    <polygon id="Fill-140" fill="#1A3667" mask="url(#mask-4)" points="10.9899559 49.092481 12.2921586 45.8752429 6.77145374 43.6411476 6.38731278 43.4861 6.53004405 43.133719 21.5679295 5.99100476 21.7088987 5.64038571 22.0965639 5.79543333 27.6155066 8.02952857 28.9177093 4.81229048 19.4903965 0.997766667 1.56264317 45.2761952"></polygon>
                </g>
                <path d="M346.268546,60.1970619 C347.505551,60.6674905 350.05533,61.0709667 351.48793,57.5383476 C352.261498,55.6231571 352.60511,53.2798238 350.270308,52.3372048 C348.555771,51.6412524 347.503789,52.9133476 346.122291,54.738681 L344.728458,56.5922048 C342.633304,59.3865857 340.613921,62.0840619 335.764581,60.1213 C333.31348,59.1293476 329.457974,56.218681 332.002467,49.9339667 C334.405991,44.0016333 339.466784,44.1972048 342.176916,45.2631571 L340.603348,49.1463952 C339.577797,48.8574429 337.117885,48.2372524 335.685286,51.7698714 C335.06326,53.3080143 334.964581,55.4011571 336.961057,56.2081095 C338.675595,56.9040619 339.547841,55.8134429 340.088811,55.0910619 L343.318767,50.9047762 C345.128458,48.559681 347.334626,46.6286333 351.290573,48.2284429 C357.916123,50.9118238 356.097621,57.0820143 355.408634,58.7804905 C352.548722,65.8457286 347.424493,65.1867762 344.694978,64.0820619 L346.268546,60.1970619 Z" id="Fill-143" fill="#1A3667"></path>
                <path d="M337.965463,36.8819524 L341.923172,27.1051429 C343.919648,22.1753333 347.80511,22.2792857 350.072952,23.199 C353.234185,24.4781429 353.466784,26.4620476 353.584846,27.4892381 C355.595419,25.4330952 358.002467,25.6568571 360.180441,26.5395714 C361.93022,27.2460952 363.31348,28.5886667 364.018326,30.1144762 C364.779559,31.7583333 365.102026,33.1625714 363.436828,37.2801429 L359.990132,45.7954286 L337.965463,36.8819524 Z M348.217445,36.3357619 L350.213921,31.4059524 C350.883524,29.7532857 350.710837,28.1499524 348.962819,27.4434286 C347.151366,26.7104762 346.124053,27.6636667 345.350485,29.5682857 L343.401586,34.3870952 L348.217445,36.3357619 Z M357.819207,40.2225238 L359.905551,35.0671905 C360.733744,33.021619 360.228018,31.4482381 357.98837,30.5408571 C356.057093,29.7603333 354.707313,30.9760476 354.094097,32.4877619 L351.928458,37.8386667 L357.819207,40.2225238 Z" id="Fill-145" fill="#1A3667"></path>
                <polygon id="Fill-147" fill="#1A3667" points="349.980264 7.18592857 348.688634 10.3767381 368.140617 25.6859286 369.772335 21.6511667 356.887753 11.8796429 372.967048 13.7578333 374.600529 9.72483333"></polygon>
                <polygon id="Fill-149" fill="#1A3667" points="381.564053 19.997619 383.808987 24.6296667 370.767577 19.3492381 372.060969 16.151381"></polygon>
            </g>
        </g>
    </g>
</svg>