<?xml version="1.0" encoding="UTF-8"?>
<svg width="400px" height="53px" viewBox="0 0 400 53" version="1.1" xmlns="http://www.w3.org/2000/svg" xmlns:xlink="http://www.w3.org/1999/xlink">
    <!-- Generator: Sketch 49 (51002) - http://www.bohemiancoding.com/sketch -->
    <title>Page 1</title>
    <desc>Created with Sketch.</desc>
    <defs>
        <polygon id="path-1" points="0 52.3346941 399.868726 52.3346941 399.868726 0.000311764706 0 0.000311764706"></polygon>
    </defs>
    <g id="Page-1" stroke="none" stroke-width="1" fill="none" fill-rule="evenodd">
        <g id="Tablet" transform="translate(-250.000000, -3279.000000)">
            <g id="Page-1" transform="translate(250.000000, 3279.000000)">
                <path d="M70.2172973,15.7361676 L71.2690347,15.7361676 L71.2690347,20.6854324 C71.2690347,21.1889324 71.3184556,21.6113735 71.4203861,21.9511971 C71.5223166,22.2925794 71.6597683,22.5653735 71.8327413,22.7711382 C72.0057143,22.9753441 72.2111197,23.1218735 72.4474131,23.2107265 C72.6837066,23.3011382 72.9369884,23.3463441 73.2072587,23.3463441 C73.4867954,23.3463441 73.743166,23.3011382 73.9810039,23.2107265 C74.2157529,23.1218735 74.4242471,22.9753441 74.6003089,22.7711382 C74.7779151,22.5653735 74.9169112,22.2925794 75.0188417,21.9511971 C75.1207722,21.6113735 75.1717375,21.1889324 75.1717375,20.6854324 L75.1717375,15.7361676 L76.1848649,15.7361676 L76.1848649,20.6589324 C76.1848649,21.3339029 76.1076448,21.8997559 75.9562934,22.3611676 C75.8049421,22.8210206 75.5949035,23.1935794 75.3292664,23.4804029 C75.0636293,23.7641088 74.7485714,23.9698735 74.3856371,24.0930206 C74.0227027,24.2161676 73.6288803,24.2785206 73.2072587,24.2785206 C72.7856371,24.2785206 72.3902703,24.2161676 72.0227027,24.0930206 C71.6551351,23.9698735 71.3385328,23.7641088 71.0728958,23.4804029 C70.8057143,23.1935794 70.5972201,22.8210206 70.4443243,22.3611676 C70.292973,21.8997559 70.2172973,21.3339029 70.2172973,20.6589324 L70.2172973,15.7361676 Z" id="Fill-1" fill="#1A3667"></path>
                <path d="M77.9204633,23.4861706 C77.9204633,23.2398765 77.9945946,23.0403471 78.1428571,22.8907 C78.2895753,22.7410529 78.4687259,22.6677882 78.6803089,22.6677882 C78.8841699,22.6677882 79.0586873,22.7410529 79.2069498,22.8907 C79.353668,23.0403471 79.4277992,23.2398765 79.4277992,23.4861706 C79.4277992,23.7153176 79.353668,23.9070529 79.2069498,24.0551412 C79.0586873,24.2047882 78.8841699,24.2796118 78.6803089,24.2796118 C78.4687259,24.2796118 78.2895753,24.2047882 78.1428571,24.0551412 C77.9945946,23.9070529 77.9204633,23.7153176 77.9204633,23.4861706" id="Fill-3" fill="#1A3667"></path>
                <path d="M81.4171429,22.2972559 C81.7121236,22.6121382 82.0611583,22.8662265 82.4627027,23.0579618 C82.8642471,23.2496971 83.2796911,23.3463441 83.7105792,23.3463441 C84.2588417,23.3463441 84.6866409,23.2200794 84.9893436,22.9691088 C85.2935907,22.7181382 85.4464865,22.3861088 85.4464865,21.9776971 C85.4464865,21.7641382 85.4094208,21.5833147 85.3383784,21.4336676 C85.2673359,21.2855794 85.1700386,21.1577559 85.0464865,21.0501971 C84.9244788,20.9441971 84.779305,20.84755 84.6094208,20.7633735 C84.4410811,20.6776382 84.2588417,20.5872265 84.0642471,20.4936971 L82.8735135,19.9699324 C82.6789189,19.8841971 82.4812355,19.7828735 82.2789189,19.6628441 C82.0750579,19.5428147 81.8943629,19.3994029 81.7337452,19.2263735 C81.5731274,19.0580206 81.4418533,18.8553735 81.3414672,18.6199912 C81.2395367,18.3846088 81.1885714,18.1149324 81.1885714,17.8078441 C81.1885714,17.4929618 81.2549807,17.1983441 81.3847104,16.92555 C81.5159846,16.6527559 81.6982239,16.4173735 81.9298842,16.2162853 C82.1615444,16.0167559 82.4364479,15.8593147 82.7530502,15.7486382 C83.0696525,15.6395206 83.4186873,15.5818441 83.79861,15.5818441 C84.2974517,15.5818441 84.7576834,15.6784912 85.1808494,15.8702265 C85.602471,16.0619618 85.9607722,16.3113735 86.2572973,16.6184618 L85.6874131,17.3090206 C85.4341313,17.0627265 85.1515058,16.8694324 84.8441699,16.7275794 C84.536834,16.5872853 84.1877992,16.5171382 83.79861,16.5171382 C83.3337452,16.5171382 82.9615444,16.6246971 82.6773745,16.8429324 C82.394749,17.0611676 82.2542085,17.3604618 82.2542085,17.7439324 C82.2542085,17.9481382 82.2928185,18.1211676 82.3731274,18.2614618 C82.4534363,18.4033147 82.5615444,18.5264618 82.6974517,18.6324618 C82.8318147,18.7400206 82.9800772,18.83355 83.140695,18.9146088 C83.2997683,18.9956676 83.4650193,19.0704912 83.6349035,19.1390794 L84.8132819,19.6503735 C85.0495753,19.7516971 85.2735135,19.8686088 85.4835521,20.0011088 C85.6951351,20.1336088 85.8773745,20.2863735 86.0287259,20.4609618 C86.1800772,20.6371088 86.3020849,20.8397559 86.3901158,21.0751382 C86.4781467,21.3105206 86.5229344,21.5801971 86.5229344,21.8872853 C86.5229344,22.2193147 86.4580695,22.5310794 86.3267954,22.8210206 C86.1955212,23.1109618 86.0071042,23.36505 85.7630888,23.5817265 C85.517529,23.7999618 85.2225483,23.9698735 84.8766023,24.0930206 C84.529112,24.2161676 84.136834,24.2785206 83.6982239,24.2785206 C83.1144402,24.2785206 82.5738996,24.1678441 82.0750579,23.9464912 C81.5777606,23.7251382 81.1468726,23.4227265 80.7839382,23.0392559 L81.4171429,22.2972559 Z" id="Fill-5" fill="#1A3667"></path>
                <path d="M87.8406178,23.4861706 C87.8406178,23.2398765 87.914749,23.0403471 88.0630116,22.8907 C88.2097297,22.7410529 88.3888803,22.6677882 88.6004633,22.6677882 C88.8043243,22.6677882 88.9788417,22.7410529 89.1271042,22.8907 C89.2738224,23.0403471 89.3479537,23.2398765 89.3479537,23.4861706 C89.3479537,23.7153176 89.2738224,23.9070529 89.1271042,24.0551412 C88.9788417,24.2047882 88.8043243,24.2796118 88.6004633,24.2796118 C88.3888803,24.2796118 88.2097297,24.2047882 88.0630116,24.0551412 C87.914749,23.9070529 87.8406178,23.7153176 87.8406178,23.4861706" id="Fill-7" fill="#1A3667"></path>
                <path d="M93.8976062,22.2972559 C94.1925869,22.6121382 94.5416216,22.8662265 94.943166,23.0579618 C95.3447104,23.2496971 95.7601544,23.3463441 96.1910425,23.3463441 C96.739305,23.3463441 97.1671042,23.2200794 97.4698069,22.9691088 C97.7740541,22.7181382 97.9269498,22.3861088 97.9269498,21.9776971 C97.9269498,21.7641382 97.8898842,21.5833147 97.8188417,21.4336676 C97.7477992,21.2855794 97.6505019,21.1577559 97.5269498,21.0501971 C97.4049421,20.9441971 97.2597683,20.84755 97.0898842,20.7633735 C96.9215444,20.6776382 96.739305,20.5872265 96.5447104,20.4936971 L95.3539768,19.9699324 C95.1593822,19.8841971 94.9616988,19.7828735 94.7593822,19.6628441 C94.5555212,19.5428147 94.3748263,19.3994029 94.2142085,19.2263735 C94.0535907,19.0580206 93.9223166,18.8553735 93.8219305,18.6199912 C93.72,18.3846088 93.6690347,18.1149324 93.6690347,17.8078441 C93.6690347,17.4929618 93.735444,17.1983441 93.8651737,16.92555 C93.9964479,16.6527559 94.1786873,16.4173735 94.4103475,16.2162853 C94.6420077,16.0167559 94.9169112,15.8593147 95.2335135,15.7486382 C95.5501158,15.6395206 95.8991506,15.5818441 96.2790734,15.5818441 C96.7779151,15.5818441 97.2381467,15.6784912 97.6613127,15.8702265 C98.0829344,16.0619618 98.4412355,16.3113735 98.7377606,16.6184618 L98.1678764,17.3090206 C97.9145946,17.0627265 97.6319691,16.8694324 97.3246332,16.7275794 C97.0172973,16.5872853 96.6682625,16.5171382 96.2790734,16.5171382 C95.8142085,16.5171382 95.4420077,16.6246971 95.1578378,16.8429324 C94.8752124,17.0611676 94.7346718,17.3604618 94.7346718,17.7439324 C94.7346718,17.9481382 94.7732819,18.1211676 94.8535907,18.2614618 C94.9338996,18.4033147 95.0420077,18.5264618 95.1779151,18.6324618 C95.312278,18.7400206 95.4605405,18.83355 95.6211583,18.9146088 C95.7802317,18.9956676 95.9454826,19.0704912 96.1153668,19.1390794 L97.2937452,19.6503735 C97.5300386,19.7516971 97.7539768,19.8686088 97.9640154,20.0011088 C98.1755985,20.1336088 98.3578378,20.2863735 98.5091892,20.4609618 C98.6605405,20.6371088 98.7825483,20.8397559 98.8705792,21.0751382 C98.95861,21.3105206 99.0033977,21.5801971 99.0033977,21.8872853 C99.0033977,22.2193147 98.9385328,22.5310794 98.8072587,22.8210206 C98.6759846,23.1109618 98.4875676,23.36505 98.2435521,23.5817265 C97.9979923,23.7999618 97.7030116,23.9698735 97.3570656,24.0930206 C97.0095753,24.2161676 96.6172973,24.2785206 96.1786873,24.2785206 C95.5949035,24.2785206 95.0543629,24.1678441 94.5555212,23.9464912 C94.0582239,23.7251382 93.6273359,23.4227265 93.2644015,23.0392559 L93.8976062,22.2972559 Z" id="Fill-9" fill="#1A3667"></path>
                <path d="M100.53668,17.9099471 L101.398456,17.9099471 L101.486486,18.8047118 L101.525097,18.8047118 C101.795367,18.5069765 102.088803,18.2575647 102.405405,18.0580353 C102.722008,17.8569471 103.064865,17.7556235 103.437066,17.7556235 C103.909653,17.7556235 104.280309,17.8616235 104.545946,18.0705059 C104.811583,18.2793882 105.007722,18.5708882 105.134363,18.9465647 C105.457143,18.5880353 105.779923,18.2996529 106.105792,18.0829765 C106.43166,17.8663 106.780695,17.7556235 107.162162,17.7556235 C107.798456,17.7556235 108.267954,17.9613882 108.576834,18.3713588 C108.88417,18.7797706 109.037066,19.3845941 109.037066,20.1873882 L109.037066,24.1249765 L108.000772,24.1249765 L108.000772,20.3276824 C108.000772,19.7400059 107.906564,19.3144471 107.719691,19.0541235 C107.535907,18.7938 107.24556,18.6644176 106.859459,18.6644176 C106.394595,18.6644176 105.878764,18.9839765 105.311969,19.6246529 L105.311969,24.1249765 L104.274131,24.1249765 L104.274131,20.3276824 C104.274131,19.7400059 104.181467,19.3144471 103.996139,19.0541235 C103.810811,18.7938 103.517375,18.6644176 103.120463,18.6644176 C102.657143,18.6644176 102.141313,18.9839765 101.574517,19.6246529 L101.574517,24.1249765 L100.53668,24.1249765 L100.53668,17.9099471 Z" id="Fill-11" fill="#1A3667"></path>
                <path d="M111.763089,22.4372382 C111.763089,22.7942088 111.865019,23.0514147 112.073514,23.2041794 C112.280463,23.3585029 112.53529,23.4348853 112.839537,23.4348853 C113.136062,23.4348853 113.415598,23.3647382 113.681236,23.2244441 C113.948417,23.0825912 114.229498,22.8768265 114.524479,22.6024735 L114.524479,20.8768559 C114.008649,20.9454441 113.574672,21.0265029 113.219459,21.1200324 C112.865792,21.2151206 112.580077,21.3242382 112.365405,21.4520618 C112.149189,21.5798853 111.994749,21.7279735 111.902085,21.8932088 C111.807876,22.0600029 111.763089,22.2408265 111.763089,22.4372382 M110.736062,22.5151794 C110.736062,21.8324147 111.03722,21.3102088 111.642625,20.9470029 C112.244942,20.5853559 113.207104,20.3312676 114.524479,20.1878559 C114.524479,19.9914441 114.504402,19.7997088 114.467336,19.61265 C114.43027,19.4224735 114.362317,19.2572382 114.265019,19.1122676 C114.167722,18.9672971 114.039537,18.8503853 113.878919,18.7615324 C113.718301,18.6711206 113.511351,18.6274735 113.258069,18.6274735 C112.893591,18.6274735 112.56,18.6960618 112.249575,18.8316794 C111.942239,18.9672971 111.665792,19.1216206 111.420232,19.2899735 L111.003243,18.5635618 C111.288958,18.3765029 111.639537,18.1925618 112.053436,18.0195324 C112.467336,17.8449441 112.924479,17.7560912 113.421776,17.7560912 C114.175444,17.7560912 114.719073,17.9883559 115.057297,18.4528853 C115.395521,18.9189735 115.563861,19.5393853 115.563861,20.3156794 L115.563861,24.1254441 L114.702085,24.1254441 L114.614054,23.3834441 L114.587799,23.3834441 C114.292819,23.6312971 113.974672,23.8417382 113.631815,24.0178853 C113.288958,24.1909147 112.929112,24.2797676 112.549189,24.2797676 C112.024093,24.2797676 111.59166,24.1254441 111.248803,23.8183559 C110.90749,23.5112676 110.736062,23.0763559 110.736062,22.5151794" id="Fill-13" fill="#1A3667"></path>
                <path d="M117.527413,15.0206676 L118.566795,15.0206676 L118.566795,22.9488441 C118.566795,23.1187559 118.594595,23.2387853 118.654826,23.3058147 C118.715058,23.3744029 118.781467,23.4102559 118.857143,23.4102559 L118.952896,23.4102559 C118.982239,23.4102559 119.027027,23.4009029 119.085714,23.3837559 L119.226255,24.1771971 C119.158301,24.2114912 119.077992,24.2364324 118.983784,24.2535794 C118.89112,24.2707265 118.773745,24.2785206 118.630116,24.2785206 C118.23166,24.2785206 117.949035,24.1584912 117.780695,23.92155 C117.612355,23.68305 117.527413,23.3323147 117.527413,22.8724618 L117.527413,15.0206676 Z" id="Fill-15" fill="#1A3667"></path>
                <path d="M120.757992,15.0206676 L121.797375,15.0206676 L121.797375,22.9488441 C121.797375,23.1187559 121.825174,23.2387853 121.885405,23.3058147 C121.945637,23.3744029 122.012046,23.4102559 122.087722,23.4102559 L122.183475,23.4102559 C122.212819,23.4102559 122.257606,23.4009029 122.316293,23.3837559 L122.456834,24.1771971 C122.38888,24.2114912 122.308571,24.2364324 122.214363,24.2535794 C122.121699,24.2707265 122.004324,24.2785206 121.860695,24.2785206 C121.462239,24.2785206 121.179614,24.1584912 121.011274,23.92155 C120.842934,23.68305 120.757992,23.3323147 120.757992,22.8724618 L120.757992,15.0206676 Z" id="Fill-17" fill="#1A3667"></path>
                <path d="M129.145019,23.2821206 C129.863166,23.2821206 130.420695,23.1465029 130.817606,22.8783853 C131.214517,22.6102676 131.413745,22.1909441 131.413745,21.6188559 C131.413745,21.0997676 131.219151,20.7162971 130.829961,20.4746794 C130.442317,20.2315029 129.880154,20.1099147 129.145019,20.1099147 L127.699459,20.1099147 L127.699459,23.2821206 L129.145019,23.2821206 Z M128.928803,19.3164735 C129.64695,19.3164735 130.159691,19.1933265 130.468571,18.9470324 C130.777452,18.6991794 130.931892,18.34065 130.931892,17.8714441 C130.931892,17.4115912 130.76973,17.0811206 130.443861,16.8815912 C130.117992,16.6805029 129.629961,16.5807382 128.981313,16.5807382 L127.699459,16.5807382 L127.699459,19.3164735 L128.928803,19.3164735 Z M126.649266,15.7358559 L129.118764,15.7358559 C129.541931,15.7358559 129.928031,15.7748265 130.27861,15.8512088 C130.629189,15.9275912 130.928803,16.0476206 131.177452,16.2097382 C131.427645,16.3702971 131.622239,16.5822971 131.761236,16.8426206 C131.900232,17.1029441 131.96973,17.4147088 131.96973,17.7825912 C131.96973,18.2003559 131.852355,18.5760324 131.616062,18.9142971 C131.378224,19.2510029 131.01529,19.4832676 130.527259,19.61265 L130.527259,19.6625324 C131.134208,19.7560618 131.60834,19.9696206 131.945019,20.30165 C132.283243,20.6352382 132.453127,21.0904147 132.453127,21.6702971 C132.453127,22.0802676 132.375907,22.4372382 132.223012,22.7443265 C132.073205,23.0514147 131.856988,23.3070618 131.577452,23.5112676 C131.299459,23.7154735 130.965869,23.8697971 130.57668,23.9711206 C130.189035,24.0740029 129.761236,24.1254441 129.297915,24.1254441 L126.649266,24.1254441 L126.649266,15.7358559 Z" id="Fill-19" fill="#1A3667"></path>
                <path d="M133.907954,17.9099471 L134.959691,17.9099471 L134.959691,21.7088 C134.959691,22.2964765 135.049266,22.7204765 135.231506,22.9808 C135.413745,23.2411235 135.707181,23.3705059 136.113359,23.3705059 C136.434595,23.3705059 136.715676,23.2878882 136.96278,23.1226529 C137.206795,22.9543 137.477066,22.6877412 137.772046,22.3214176 L137.772046,17.9099471 L138.811429,17.9099471 L138.811429,24.1249765 L137.949653,24.1249765 L137.861622,23.1538294 L137.823012,23.1538294 C137.535753,23.4952118 137.23305,23.7680059 136.916448,23.9722118 C136.599846,24.1779765 136.2261,24.2793 135.796757,24.2793 C135.137297,24.2793 134.656988,24.0735353 134.357375,23.6651235 C134.057761,23.2567118 133.907954,22.6503294 133.907954,21.8490941 L133.907954,17.9099471 Z" id="Fill-21" fill="#1A3667"></path>
                <path d="M140.725097,22.7189176 C140.995367,22.9418294 141.271815,23.1195353 141.55444,23.2567118 C141.837066,23.3923294 142.164479,23.4609176 142.53668,23.4609176 C142.942857,23.4609176 143.24556,23.3673882 143.449421,23.1787706 C143.651737,22.9917118 143.752124,22.7610059 143.752124,22.4897706 C143.752124,22.3260941 143.710425,22.1858 143.625483,22.0657706 C143.540541,21.9473 143.433977,21.8428588 143.302703,21.7540059 C143.171429,21.6635941 143.021622,21.5840941 142.853282,21.5170647 C142.684942,21.4484765 142.515058,21.3814471 142.346718,21.3128588 C142.125869,21.2349176 141.908108,21.1476235 141.687259,21.0509765 C141.466409,20.9512118 141.271815,20.8327412 141.097297,20.6908882 C140.925869,20.5505941 140.783784,20.3869176 140.674131,20.1998588 C140.564479,20.0128 140.50888,19.7852118 140.50888,19.5217706 C140.50888,19.2739176 140.558301,19.0432118 140.654054,18.8249765 C140.752896,18.6067412 140.890347,18.4196824 141.074131,18.2622412 C141.254826,18.1048 141.475676,17.9800941 141.738224,17.8912412 C141.999228,17.8023882 142.295753,17.7556235 142.62471,17.7556235 C143.012355,17.7556235 143.370656,17.8242118 143.696525,17.9613882 C144.020849,18.0970059 144.300386,18.2653588 144.538224,18.4602118 L144.044015,19.1242706 C143.833977,18.9637118 143.613127,18.8312118 143.3861,18.7283294 C143.157529,18.6270059 142.907336,18.5755647 142.637066,18.5755647 C142.249421,18.5755647 141.963707,18.6644176 141.783012,18.8436824 C141.600772,19.0229471 141.511197,19.2318294 141.511197,19.4703294 C141.511197,19.6153 141.548263,19.7415647 141.623938,19.8475647 C141.701158,19.9551235 141.801544,20.0486529 141.928185,20.1297118 C142.054826,20.2107706 142.2,20.2840353 142.365251,20.3479471 C142.530502,20.4118588 142.700386,20.4773294 142.879537,20.5443588 C143.097297,20.6300941 143.319691,20.7205059 143.543629,20.8124765 C143.767568,20.9075647 143.96834,21.0244765 144.145946,21.1647706 C144.322008,21.3066235 144.468726,21.4780941 144.583012,21.6823 C144.695753,21.8880647 144.752896,22.1343588 144.752896,22.4258588 C144.752896,22.6815059 144.705019,22.9200059 144.607722,23.1413588 C144.510425,23.3627118 144.366795,23.5591235 144.176834,23.7290353 C143.986873,23.9005059 143.750579,24.0345647 143.466409,24.1312118 C143.185328,24.2309765 142.862548,24.2793 142.498069,24.2793 C142.057915,24.2793 141.640927,24.1982412 141.244015,24.0361235 C140.847104,23.8740059 140.499614,23.6682412 140.204633,23.4219471 L140.725097,22.7189176 Z" id="Fill-23" fill="#1A3667"></path>
                <mask id="mask-2" fill="white">
                    <use xlink:href="#path-1"></use>
                </mask>
                <g id="Clip-26"></g>
                <path d="M146.197683,24.1246647 L147.237066,24.1246647 L147.237066,17.9096353 L146.197683,17.9096353 L146.197683,24.1246647 Z M146.730502,16.6314 C146.526641,16.6314 146.356757,16.5674882 146.216216,16.4396647 C146.07722,16.3118412 146.007722,16.1497235 146.007722,15.9533118 C146.007722,15.7491059 146.07722,15.5854294 146.216216,15.4607235 C146.356757,15.3375765 146.526641,15.2767824 146.730502,15.2767824 C146.932819,15.2767824 147.104247,15.3375765 147.243243,15.4607235 C147.382239,15.5854294 147.453282,15.7491059 147.453282,15.9533118 C147.453282,16.1497235 147.382239,16.3118412 147.243243,16.4396647 C147.104247,16.5674882 146.932819,16.6314 146.730502,16.6314 Z" id="Fill-25" fill="#1A3667" mask="url(#mask-2)"></path>
                <path d="M149.31583,17.9099471 L150.177606,17.9099471 L150.265637,18.8047118 L150.304247,18.8047118 C150.599228,18.5069765 150.909653,18.2575647 151.235521,18.0580353 C151.559846,17.8569471 151.938224,17.7556235 152.369112,17.7556235 C153.019305,17.7556235 153.494981,17.9613882 153.794595,18.3713588 C154.094208,18.7797706 154.244015,19.3845941 154.244015,20.1873882 L154.244015,24.1249765 L153.206178,24.1249765 L153.206178,20.3276824 C153.206178,19.7400059 153.111969,19.3144471 152.926641,19.0541235 C152.741313,18.7938 152.444788,18.6644176 152.040154,18.6644176 C151.718919,18.6644176 151.436293,18.7454765 151.190734,18.9075941 C150.946718,19.0697118 150.667181,19.3082118 150.355212,19.6246529 L150.355212,24.1249765 L149.31583,24.1249765 L149.31583,17.9099471 Z" id="Fill-27" fill="#1A3667" mask="url(#mask-2)"></path>
                <path d="M160.097915,20.5572971 C160.097915,19.9181794 159.963552,19.4302676 159.697915,19.0935618 C159.432278,18.7568559 159.058533,18.5869441 158.578224,18.5869441 C158.357375,18.5869441 158.147336,18.6337088 157.949653,18.7225618 C157.750425,18.8114147 157.571274,18.9392382 157.412201,19.1060324 C157.250039,19.2728265 157.11722,19.4770324 157.012201,19.7202088 C156.907181,19.9633853 156.837683,20.2424147 156.802162,20.5572971 L160.097915,20.5572971 Z M155.789035,21.0311794 C155.789035,20.5198853 155.867799,20.0615912 156.023784,19.6562971 C156.179768,19.2510029 156.388263,18.9065029 156.644633,18.6274735 C156.902548,18.3453265 157.195985,18.12865 157.524942,17.9805618 C157.855444,17.8309147 158.198301,17.7560912 158.551969,17.7560912 C158.939614,17.7560912 159.288649,17.8246794 159.597529,17.9618559 C159.904865,18.0974735 160.16278,18.2938853 160.36973,18.5495324 C160.57668,18.8051794 160.735753,19.1122676 160.843861,19.4707971 C160.955058,19.8277676 161.010656,20.2299441 161.010656,20.67265 C161.010656,20.9033559 160.996757,21.0950912 160.970502,21.2478559 L156.816062,21.2478559 C156.857761,21.9212676 157.063166,22.4543853 157.429189,22.8472088 C157.798301,23.2400324 158.277066,23.4348853 158.868571,23.4348853 C159.165097,23.4348853 159.435367,23.3896794 159.68556,23.3008265 C159.935753,23.2104147 160.173591,23.0935029 160.400618,22.9485324 L160.76973,23.64065 C160.499459,23.8105618 160.198301,23.9602088 159.869344,24.0880324 C159.540386,24.2158559 159.165097,24.2797676 158.741931,24.2797676 C158.328031,24.2797676 157.941931,24.2049441 157.582085,24.0552971 C157.223784,23.90565 156.911815,23.69365 156.644633,23.4161794 C156.378996,23.1387088 156.168958,22.7988853 156.017606,22.3998265 C155.866255,21.9992088 155.789035,21.5424735 155.789035,21.0311794 Z" id="Fill-28" fill="#1A3667" mask="url(#mask-2)"></path>
                <path d="M162.366332,22.7189176 C162.636602,22.9418294 162.91305,23.1195353 163.195676,23.2567118 C163.478301,23.3923294 163.805714,23.4609176 164.177915,23.4609176 C164.584093,23.4609176 164.886795,23.3673882 165.090656,23.1787706 C165.292973,22.9917118 165.393359,22.7610059 165.393359,22.4897706 C165.393359,22.3260941 165.35166,22.1858 165.266718,22.0657706 C165.181776,21.9473 165.075212,21.8428588 164.943938,21.7540059 C164.812664,21.6635941 164.662857,21.5840941 164.494517,21.5170647 C164.326178,21.4484765 164.156293,21.3814471 163.987954,21.3128588 C163.767104,21.2349176 163.549344,21.1476235 163.328494,21.0509765 C163.107645,20.9512118 162.91305,20.8327412 162.738533,20.6908882 C162.567104,20.5505941 162.425019,20.3869176 162.315367,20.1998588 C162.205714,20.0128 162.150116,19.7852118 162.150116,19.5217706 C162.150116,19.2739176 162.199537,19.0432118 162.29529,18.8249765 C162.394131,18.6067412 162.531583,18.4196824 162.715367,18.2622412 C162.896062,18.1048 163.116911,17.9800941 163.379459,17.8912412 C163.640463,17.8023882 163.936988,17.7556235 164.265946,17.7556235 C164.653591,17.7556235 165.011892,17.8242118 165.337761,17.9613882 C165.662085,18.0970059 165.941622,18.2653588 166.179459,18.4602118 L165.685251,19.1242706 C165.475212,18.9637118 165.254363,18.8312118 165.027336,18.7283294 C164.798764,18.6270059 164.548571,18.5755647 164.278301,18.5755647 C163.890656,18.5755647 163.604942,18.6644176 163.424247,18.8436824 C163.242008,19.0229471 163.152432,19.2318294 163.152432,19.4703294 C163.152432,19.6153 163.189498,19.7415647 163.265174,19.8475647 C163.342394,19.9551235 163.44278,20.0486529 163.569421,20.1297118 C163.696062,20.2107706 163.841236,20.2840353 164.006486,20.3479471 C164.171737,20.4118588 164.341622,20.4773294 164.520772,20.5443588 C164.738533,20.6300941 164.960927,20.7205059 165.184865,20.8124765 C165.408803,20.9075647 165.609575,21.0244765 165.787181,21.1647706 C165.963243,21.3066235 166.109961,21.4780941 166.224247,21.6823 C166.336988,21.8880647 166.394131,22.1343588 166.394131,22.4258588 C166.394131,22.6815059 166.346255,22.9200059 166.248958,23.1413588 C166.15166,23.3627118 166.008031,23.5591235 165.818069,23.7290353 C165.628108,23.9005059 165.391815,24.0345647 165.107645,24.1312118 C164.826564,24.2309765 164.503784,24.2793 164.139305,24.2793 C163.699151,24.2793 163.282162,24.1982412 162.885251,24.0361235 C162.48834,23.8740059 162.140849,23.6682412 161.845869,23.4219471 L162.366332,22.7189176 Z" id="Fill-29" fill="#1A3667" mask="url(#mask-2)"></path>
                <path d="M167.673668,22.7189176 C167.943938,22.9418294 168.220386,23.1195353 168.503012,23.2567118 C168.785637,23.3923294 169.11305,23.4609176 169.485251,23.4609176 C169.891429,23.4609176 170.194131,23.3673882 170.397992,23.1787706 C170.600309,22.9917118 170.700695,22.7610059 170.700695,22.4897706 C170.700695,22.3260941 170.658996,22.1858 170.574054,22.0657706 C170.489112,21.9473 170.382548,21.8428588 170.251274,21.7540059 C170.12,21.6635941 169.970193,21.5840941 169.801853,21.5170647 C169.633514,21.4484765 169.463629,21.3814471 169.29529,21.3128588 C169.07444,21.2349176 168.85668,21.1476235 168.63583,21.0509765 C168.414981,20.9512118 168.220386,20.8327412 168.045869,20.6908882 C167.87444,20.5505941 167.732355,20.3869176 167.622703,20.1998588 C167.51305,20.0128 167.457452,19.7852118 167.457452,19.5217706 C167.457452,19.2739176 167.506873,19.0432118 167.602625,18.8249765 C167.701467,18.6067412 167.838919,18.4196824 168.022703,18.2622412 C168.203398,18.1048 168.424247,17.9800941 168.686795,17.8912412 C168.947799,17.8023882 169.244324,17.7556235 169.573282,17.7556235 C169.960927,17.7556235 170.319228,17.8242118 170.645097,17.9613882 C170.969421,18.0970059 171.248958,18.2653588 171.486795,18.4602118 L170.992587,19.1242706 C170.782548,18.9637118 170.561699,18.8312118 170.334672,18.7283294 C170.1061,18.6270059 169.855907,18.5755647 169.585637,18.5755647 C169.197992,18.5755647 168.912278,18.6644176 168.731583,18.8436824 C168.549344,19.0229471 168.459768,19.2318294 168.459768,19.4703294 C168.459768,19.6153 168.496834,19.7415647 168.57251,19.8475647 C168.64973,19.9551235 168.750116,20.0486529 168.876757,20.1297118 C169.003398,20.2107706 169.148571,20.2840353 169.313822,20.3479471 C169.479073,20.4118588 169.648958,20.4773294 169.828108,20.5443588 C170.045869,20.6300941 170.268263,20.7205059 170.492201,20.8124765 C170.716139,20.9075647 170.916911,21.0244765 171.094517,21.1647706 C171.270579,21.3066235 171.417297,21.4780941 171.531583,21.6823 C171.644324,21.8880647 171.701467,22.1343588 171.701467,22.4258588 C171.701467,22.6815059 171.653591,22.9200059 171.556293,23.1413588 C171.458996,23.3627118 171.315367,23.5591235 171.125405,23.7290353 C170.935444,23.9005059 170.699151,24.0345647 170.414981,24.1312118 C170.1339,24.2309765 169.81112,24.2793 169.446641,24.2793 C169.006486,24.2793 168.589498,24.1982412 168.192587,24.0361235 C167.795676,23.8740059 167.448185,23.6682412 167.153205,23.4219471 L167.673668,22.7189176 Z" id="Fill-30" fill="#1A3667" mask="url(#mask-2)"></path>
                <path d="M73.7902703,36.0571471 L73.3979923,34.7789118 C73.2450965,34.3097059 73.1014672,33.8420588 72.9671042,33.3775294 C72.8311969,32.913 72.696834,32.4391176 72.5609266,31.9512059 L72.5099614,31.9512059 C72.3833205,32.4391176 72.2520463,32.913 72.1176834,33.3775294 C71.9833205,33.8420588 71.8381467,34.3097059 71.6867954,34.7789118 L71.2945174,36.0571471 L73.7902703,36.0571471 Z M74.0559073,36.9145 L71.0273359,36.9145 L70.2304247,39.4709706 L69.1524324,39.4709706 L71.9647876,31.0829412 L73.1570656,31.0829412 L75.9694208,39.4709706 L74.8420077,39.4709706 L74.0559073,36.9145 Z" id="Fill-31" fill="#1A3667" mask="url(#mask-2)"></path>
                <path d="M77.6798456,36.3647029 C77.6798456,37.1129382 77.8281081,37.6974971 78.1230888,38.1168206 C78.4196139,38.5345853 78.8366023,38.7419088 79.3771429,38.7419088 C79.6644015,38.7419088 79.9346718,38.6717618 80.1894981,38.5330265 C80.4427799,38.3911735 80.6960618,38.1760559 80.9493436,37.8861147 L80.9493436,34.6375265 C80.6867954,34.3990265 80.4350579,34.2306735 80.1941313,34.1324676 C79.954749,34.0342618 79.7061004,33.9859382 79.4528185,33.9859382 C79.2088031,33.9859382 78.9786873,34.0436147 78.762471,34.1574088 C78.5477992,34.2727618 78.3593822,34.4364382 78.1987645,34.6437618 C78.0381467,34.8526441 77.9115058,35.1020559 77.8188417,35.3919971 C77.7261776,35.6834971 77.6798456,36.0061735 77.6798456,36.3647029 M76.6033977,36.3771735 C76.6033977,35.8752324 76.677529,35.4200559 76.8242471,35.0147618 C76.9725097,34.6094676 77.1686486,34.2665265 77.4142085,33.9859382 C77.6582239,33.7037912 77.9408494,33.4855559 78.2620849,33.33435 C78.5833205,33.1800265 78.9215444,33.1020853 79.2767568,33.1020853 C79.6304247,33.1020853 79.939305,33.1659971 80.2003089,33.2938206 C80.4628571,33.4216441 80.7284942,33.5977912 80.9987645,33.8191441 L80.9493436,32.7591441 L80.9493436,30.36635 L81.9995367,30.36635 L81.9995367,39.4714382 L81.139305,39.4714382 L81.0497297,38.7419088 L81.0126641,38.7419088 C80.7671042,38.9819676 80.4860232,39.1892912 80.1694208,39.3638794 C79.8528185,39.5369088 79.5130502,39.6257618 79.1501158,39.6257618 C78.3717375,39.6257618 77.7539768,39.3436147 77.2937452,38.7808794 C76.8335135,38.2181441 76.6033977,37.4169088 76.6033977,36.3771735" id="Fill-32" fill="#1A3667" mask="url(#mask-2)"></path>
                <path d="M84.0784556,33.2562529 L84.9402317,33.2562529 L85.0282625,34.1510176 L85.0668726,34.1510176 C85.3371429,33.8532824 85.6305792,33.6038706 85.9471815,33.4043412 C86.2637838,33.2032529 86.6081853,33.1019294 86.9788417,33.1019294 C87.452973,33.1019294 87.8220849,33.2079294 88.087722,33.4168118 C88.3549035,33.6256941 88.5510425,33.9171941 88.6776834,34.2928706 C88.9989189,33.9343412 89.3216988,33.6459588 89.6460232,33.4292824 C89.9718919,33.2126059 90.3240154,33.1019294 90.7054826,33.1019294 C91.3386873,33.1019294 91.8081853,33.3076941 92.1170656,33.7176647 C92.4259459,34.1260765 92.5803861,34.7309 92.5803861,35.5336941 L92.5803861,39.4712824 L91.5410039,39.4712824 L91.5410039,35.6739882 C91.5410039,35.0863118 91.4467954,34.6607529 91.2614672,34.4004294 C91.076139,34.1401059 90.7888803,34.0107235 90.4012355,34.0107235 C89.9363707,34.0107235 89.4205405,34.3302824 88.8552896,34.9709588 L88.8552896,39.4712824 L87.8159073,39.4712824 L87.8159073,35.6739882 C87.8159073,35.0863118 87.7232432,34.6607529 87.5379151,34.4004294 C87.3510425,34.1401059 87.060695,34.0107235 86.6622394,34.0107235 C86.1989189,34.0107235 85.6830888,34.3302824 85.1162934,34.9709588 L85.1162934,39.4712824 L84.0784556,39.4712824 L84.0784556,33.2562529 Z" id="Fill-33" fill="#1A3667" mask="url(#mask-2)"></path>
                <path d="M94.5822394,39.4712824 L95.6200772,39.4712824 L95.6200772,33.2562529 L94.5822394,33.2562529 L94.5822394,39.4712824 Z M95.1135135,31.9780176 C94.9111969,31.9780176 94.7397683,31.9141059 94.6007722,31.7862824 C94.4602317,31.6584588 94.392278,31.4963412 94.392278,31.2999294 C94.392278,31.0941647 94.4602317,30.9320471 94.6007722,30.8073412 C94.7397683,30.6841941 94.9111969,30.6234 95.1135135,30.6234 C95.3158301,30.6234 95.4872587,30.6841941 95.6262548,30.8073412 C95.7667954,30.9320471 95.8362934,31.0941647 95.8362934,31.2999294 C95.8362934,31.4963412 95.7667954,31.6584588 95.6262548,31.7862824 C95.4872587,31.9141059 95.3158301,31.9780176 95.1135135,31.9780176 Z" id="Fill-34" fill="#1A3667" mask="url(#mask-2)"></path>
                <path d="M97.6982239,33.2562529 L98.56,33.2562529 L98.6480309,34.1510176 L98.6866409,34.1510176 C98.9816216,33.8532824 99.2920463,33.6038706 99.6179151,33.4043412 C99.9422394,33.2032529 100.320618,33.1019294 100.751506,33.1019294 C101.401699,33.1019294 101.877375,33.3076941 102.176988,33.7176647 C102.476602,34.1260765 102.626409,34.7309 102.626409,35.5336941 L102.626409,39.4712824 L101.588571,39.4712824 L101.588571,35.6739882 C101.588571,35.0863118 101.494363,34.6607529 101.309035,34.4004294 C101.123707,34.1401059 100.827181,34.0107235 100.422548,34.0107235 C100.101313,34.0107235 99.8186873,34.0917824 99.5731274,34.2539 C99.3275676,34.4160176 99.0495753,34.6545176 98.7360618,34.9709588 L98.7360618,39.4712824 L97.6982239,39.4712824 L97.6982239,33.2562529 Z" id="Fill-35" fill="#1A3667" mask="url(#mask-2)"></path>
                <path d="M104.628571,39.4712824 L105.667954,39.4712824 L105.667954,33.2562529 L104.628571,33.2562529 L104.628571,39.4712824 Z M105.16139,31.9780176 C104.957529,31.9780176 104.787645,31.9141059 104.647104,31.7862824 C104.508108,31.6584588 104.43861,31.4963412 104.43861,31.2999294 C104.43861,31.0941647 104.508108,30.9320471 104.647104,30.8073412 C104.787645,30.6841941 104.957529,30.6234 105.16139,30.6234 C105.363707,30.6234 105.535135,30.6841941 105.674131,30.8073412 C105.813127,30.9320471 105.88417,31.0941647 105.88417,31.2999294 C105.88417,31.4963412 105.813127,31.6584588 105.674131,31.7862824 C105.535135,31.9141059 105.363707,31.9780176 105.16139,31.9780176 Z" id="Fill-36" fill="#1A3667" mask="url(#mask-2)"></path>
                <path d="M107.580849,38.0650676 C107.85112,38.2879794 108.127568,38.4656853 108.410193,38.6028618 C108.692819,38.7384794 109.020232,38.8070676 109.392432,38.8070676 C109.79861,38.8070676 110.101313,38.7135382 110.305174,38.5249206 C110.50749,38.3378618 110.607876,38.1071559 110.607876,37.8359206 C110.607876,37.6722441 110.566178,37.53195 110.481236,37.4119206 C110.396293,37.29345 110.28973,37.1890088 110.158456,37.1001559 C110.027181,37.0097441 109.877375,36.9302441 109.709035,36.8632147 C109.540695,36.7946265 109.370811,36.7275971 109.202471,36.6590088 C108.981622,36.5810676 108.763861,36.4937735 108.543012,36.3971265 C108.322162,36.2973618 108.127568,36.1788912 107.95305,36.0370382 C107.781622,35.8967441 107.639537,35.7330676 107.529884,35.5460088 C107.420232,35.35895 107.364633,35.1313618 107.364633,34.8679206 C107.364633,34.6200676 107.414054,34.3893618 107.509807,34.1711265 C107.608649,33.9528912 107.7461,33.7658324 107.929884,33.6083912 C108.110579,33.45095 108.331429,33.3262441 108.593977,33.2373912 C108.854981,33.1485382 109.151506,33.1017735 109.480463,33.1017735 C109.868108,33.1017735 110.226409,33.1703618 110.552278,33.3075382 C110.876602,33.4431559 111.156139,33.6115088 111.393977,33.8063618 L110.899768,34.4704206 C110.68973,34.3098618 110.46888,34.1773618 110.241853,34.0744794 C110.013282,33.9731559 109.763089,33.9217147 109.492819,33.9217147 C109.105174,33.9217147 108.819459,34.0105676 108.638764,34.1898324 C108.456525,34.3690971 108.36695,34.5779794 108.36695,34.8164794 C108.36695,34.96145 108.404015,35.0877147 108.479691,35.1937147 C108.556911,35.3012735 108.657297,35.3948029 108.783938,35.4758618 C108.910579,35.5569206 109.055753,35.6301853 109.221004,35.6940971 C109.386255,35.7580088 109.556139,35.8234794 109.73529,35.8905088 C109.95305,35.9762441 110.175444,36.0666559 110.399382,36.1586265 C110.62332,36.2537147 110.824093,36.3706265 111.001699,36.5109206 C111.177761,36.6527735 111.324479,36.8242441 111.438764,37.02845 C111.551506,37.2342147 111.608649,37.4805088 111.608649,37.7720088 C111.608649,38.0276559 111.560772,38.2661559 111.463475,38.4875088 C111.366178,38.7088618 111.222548,38.9052735 111.032587,39.0751853 C110.842625,39.2466559 110.606332,39.3807147 110.322162,39.4773618 C110.041081,39.5771265 109.718301,39.62545 109.353822,39.62545 C108.913668,39.62545 108.49668,39.5443912 108.099768,39.3822735 C107.702857,39.2201559 107.355367,39.0143912 107.060386,38.7680971 L107.580849,38.0650676 Z" id="Fill-37" fill="#1A3667" mask="url(#mask-2)"></path>
                <path d="M113.00278,34.1132941 L112.091583,34.1132941 L112.091583,33.3198529 L113.053745,33.2559412 L113.180386,31.5178529 L114.056062,31.5178529 L114.056062,33.2559412 L115.714749,33.2559412 L115.714749,34.1132941 L114.056062,34.1132941 L114.056062,37.5660882 C114.056062,37.9495588 114.12556,38.2457353 114.263012,38.4546176 C114.403552,38.6635 114.650656,38.7679412 115.005869,38.7679412 C115.115521,38.7679412 115.232896,38.7523529 115.359537,38.7165 C115.486178,38.6837647 115.602008,38.6447941 115.702394,38.6027059 L115.90471,39.3961471 C115.736371,39.4553824 115.551042,39.5083824 115.353359,39.5551471 C115.155676,39.6019118 114.959537,39.6252941 114.764942,39.6252941 C114.435985,39.6252941 114.157992,39.5738529 113.935598,39.4725294 C113.710116,39.3696471 113.529421,39.2277941 113.390425,39.0500882 C113.249884,38.8708235 113.151042,38.6525882 113.092355,38.3969412 C113.033668,38.1412941 113.00278,37.8607059 113.00278,37.5536176 L113.00278,34.1132941 Z" id="Fill-38" fill="#1A3667" mask="url(#mask-2)"></path>
                <path d="M117.096062,33.2562529 L117.957838,33.2562529 L118.045869,34.3817235 L118.084479,34.3817235 C118.294517,33.9904588 118.550888,33.6786941 118.850502,33.4479882 C119.150116,33.2188412 119.477529,33.1019294 119.831197,33.1019294 C120.078301,33.1019294 120.296062,33.1455765 120.490656,33.2297529 L120.28834,34.1510176 C120.187954,34.1182824 120.093745,34.0917824 120.010347,34.0746353 C119.925405,34.0590471 119.820386,34.0496941 119.693745,34.0496941 C119.431197,34.0496941 119.159382,34.1556941 118.875212,34.3692529 C118.592587,34.5828118 118.347027,34.9538118 118.135444,35.4822529 L118.135444,39.4712824 L117.096062,39.4712824 L117.096062,33.2562529 Z" id="Fill-39" fill="#1A3667" mask="url(#mask-2)"></path>
                <path d="M121.923861,37.7835441 C121.923861,38.1405147 122.025792,38.3977206 122.234286,38.5504853 C122.441236,38.7048088 122.696062,38.7811912 123.000309,38.7811912 C123.296834,38.7811912 123.576371,38.7110441 123.842008,38.57075 C124.109189,38.4288971 124.39027,38.2231324 124.685251,37.9487794 L124.685251,36.2231618 C124.169421,36.29175 123.735444,36.3728088 123.380232,36.4663382 C123.026564,36.5614265 122.740849,36.6705441 122.526178,36.7983676 C122.309961,36.9261912 122.155521,37.0742794 122.062857,37.2395147 C121.968649,37.4063088 121.923861,37.5871324 121.923861,37.7835441 M120.896834,37.8614853 C120.896834,37.1787206 121.197992,36.6565147 121.803398,36.2933088 C122.405714,35.9316618 123.367876,35.6775735 124.685251,35.5341618 C124.685251,35.33775 124.665174,35.1460147 124.628108,34.9589559 C124.591042,34.7687794 124.523089,34.6035441 124.425792,34.4585735 C124.328494,34.3136029 124.200309,34.1966912 124.039691,34.1078382 C123.879073,34.0174265 123.672124,33.9737794 123.418842,33.9737794 C123.054363,33.9737794 122.720772,34.0423676 122.410347,34.1779853 C122.103012,34.3136029 121.826564,34.4679265 121.581004,34.6362794 L121.164015,33.9098676 C121.44973,33.7228088 121.800309,33.5388676 122.214208,33.3658382 C122.628108,33.19125 123.085251,33.1023971 123.582548,33.1023971 C124.336216,33.1023971 124.879846,33.3346618 125.218069,33.7991912 C125.556293,34.2652794 125.724633,34.8856912 125.724633,35.6619853 L125.724633,39.47175 L124.862857,39.47175 L124.774826,38.72975 L124.748571,38.72975 C124.453591,38.9776029 124.135444,39.1880441 123.792587,39.3641912 C123.44973,39.5372206 123.089884,39.6260735 122.709961,39.6260735 C122.184865,39.6260735 121.752432,39.47175 121.409575,39.1646618 C121.068263,38.8575735 120.896834,38.4226618 120.896834,37.8614853" id="Fill-40" fill="#1A3667" mask="url(#mask-2)"></path>
                <path d="M127.573591,34.1132941 L126.662394,34.1132941 L126.662394,33.3198529 L127.624556,33.2559412 L127.751197,31.5178529 L128.626873,31.5178529 L128.626873,33.2559412 L130.28556,33.2559412 L130.28556,34.1132941 L128.626873,34.1132941 L128.626873,37.5660882 C128.626873,37.9495588 128.696371,38.2457353 128.833822,38.4546176 C128.974363,38.6635 129.221467,38.7679412 129.57668,38.7679412 C129.686332,38.7679412 129.803707,38.7523529 129.930347,38.7165 C130.056988,38.6837647 130.172819,38.6447941 130.273205,38.6027059 L130.475521,39.3961471 C130.307181,39.4553824 130.121853,39.5083824 129.92417,39.5551471 C129.726486,39.6019118 129.530347,39.6252941 129.335753,39.6252941 C129.006795,39.6252941 128.728803,39.5738529 128.506409,39.4725294 C128.280927,39.3696471 128.100232,39.2277941 127.961236,39.0500882 C127.820695,38.8708235 127.721853,38.6525882 127.663166,38.3969412 C127.604479,38.1412941 127.573591,37.8607059 127.573591,37.5536176 L127.573591,34.1132941 Z" id="Fill-41" fill="#1A3667" mask="url(#mask-2)"></path>
                <path d="M131.678764,39.4712824 L132.718147,39.4712824 L132.718147,33.2562529 L131.678764,33.2562529 L131.678764,39.4712824 Z M132.211583,31.9780176 C132.007722,31.9780176 131.837838,31.9141059 131.697297,31.7862824 C131.558301,31.6584588 131.488803,31.4963412 131.488803,31.2999294 C131.488803,31.0941647 131.558301,30.9320471 131.697297,30.8073412 C131.837838,30.6841941 132.007722,30.6234 132.211583,30.6234 C132.4139,30.6234 132.585328,30.6841941 132.724324,30.8073412 C132.86332,30.9320471 132.934363,31.0941647 132.934363,31.2999294 C132.934363,31.4963412 132.86332,31.6584588 132.724324,31.7862824 C132.585328,31.9141059 132.4139,31.9780176 132.211583,31.9780176 Z" id="Fill-42" fill="#1A3667" mask="url(#mask-2)"></path>
                <path d="M135.417761,36.3768618 C135.417761,36.7338324 135.457915,37.0580676 135.544402,37.3480088 C135.627799,37.6395088 135.748263,37.8889206 135.904247,38.0978029 C136.061776,38.3051265 136.248649,38.4688029 136.469498,38.5825971 C136.687259,38.69795 136.92973,38.7556265 137.190734,38.7556265 C137.451737,38.7556265 137.694208,38.69795 137.911969,38.5825971 C138.132819,38.4688029 138.321236,38.3051265 138.475676,38.0978029 C138.633205,37.8889206 138.753668,37.6395088 138.83861,37.3480088 C138.923552,37.0580676 138.965251,36.7338324 138.965251,36.3768618 C138.965251,36.0198912 138.923552,35.6940971 138.83861,35.3979206 C138.753668,35.1048618 138.633205,34.8507735 138.475676,34.6372147 C138.321236,34.4252147 138.132819,34.2615382 137.911969,34.1446265 C137.694208,34.0292735 137.451737,33.9731559 137.190734,33.9731559 C136.92973,33.9731559 136.687259,34.0292735 136.469498,34.1446265 C136.248649,34.2615382 136.061776,34.4252147 135.904247,34.6372147 C135.748263,34.8507735 135.627799,35.1048618 135.544402,35.3979206 C135.457915,35.6940971 135.417761,36.0198912 135.417761,36.3768618 M134.339768,36.3768618 C134.339768,35.8562147 134.418533,35.3948029 134.574517,34.9895088 C134.730502,34.5857735 134.938996,34.2412735 135.201544,33.9591265 C135.462548,33.6785382 135.766795,33.4665382 136.106564,33.3200088 C136.449421,33.1750382 136.810811,33.1017735 137.190734,33.1017735 C137.572201,33.1017735 137.932046,33.1750382 138.274903,33.3200088 C138.616216,33.4665382 138.918919,33.6785382 139.181467,33.9591265 C139.440927,34.2412735 139.650965,34.5857735 139.80695,34.9895088 C139.962934,35.3948029 140.041699,35.8562147 140.041699,36.3768618 C140.041699,36.8881559 139.962934,37.34645 139.80695,37.7517441 C139.650965,38.1570382 139.440927,38.4968618 139.181467,38.7743324 C138.918919,39.0518029 138.616216,39.2638029 138.274903,39.4072147 C137.932046,39.5521853 137.572201,39.62545 137.190734,39.62545 C136.810811,39.62545 136.449421,39.5521853 136.106564,39.4072147 C135.766795,39.2638029 135.462548,39.0518029 135.201544,38.7743324 C134.938996,38.4968618 134.730502,38.1570382 134.574517,37.7517441 C134.418533,37.34645 134.339768,36.8881559 134.339768,36.3768618" id="Fill-43" fill="#1A3667" mask="url(#mask-2)"></path>
                <path d="M141.663166,33.2562529 L142.524942,33.2562529 L142.612973,34.1510176 L142.651583,34.1510176 C142.946564,33.8532824 143.256988,33.6038706 143.582857,33.4043412 C143.907181,33.2032529 144.28556,33.1019294 144.716448,33.1019294 C145.366641,33.1019294 145.842317,33.3076941 146.141931,33.7176647 C146.441544,34.1260765 146.591351,34.7309 146.591351,35.5336941 L146.591351,39.4712824 L145.553514,39.4712824 L145.553514,35.6739882 C145.553514,35.0863118 145.459305,34.6607529 145.273977,34.4004294 C145.088649,34.1401059 144.792124,34.0107235 144.38749,34.0107235 C144.066255,34.0107235 143.783629,34.0917824 143.538069,34.2539 C143.294054,34.4160176 143.014517,34.6545176 142.702548,34.9709588 L142.702548,39.4712824 L141.663166,39.4712824 L141.663166,33.2562529 Z" id="Fill-44" fill="#1A3667" mask="url(#mask-2)"></path>
                <polygon id="Fill-45" fill="#CA2026" mask="url(#mask-2)" points="43.9067181 52.3350059 43.8959073 50.3630941 2.2572973 50.3630941 1.86501931 50.3630941 1.86501931 49.9313 1.86501931 43.7458882 0.000926640927 43.7458882 0.000926640927 52.3350059"></polygon>
                <polygon id="Fill-46" fill="#1A3667" mask="url(#mask-2)" points="1.92725869 10.5649265 1.92725869 4.37795588 1.92725869 3.94772059 2.31953668 3.94772059 43.5674131 3.94772059 43.9581467 3.94772059 43.9581467 4.37795588 43.9581467 10.5649265 47.5303475 10.5649265 47.5303475 0.000779411765 0.00138996139 0.000779411765 0.00138996139 10.5649265"></polygon>
                <path d="M0.63027027,29.7563824 C2.90671815,30.3752353 4.52370656,30.8912059 4.52370656,32.8147941 C4.52370656,35.4289412 2.1576834,36.0135 0.031042471,36.0135 L0.0016988417,36.0119412 L0.0016988417,40.2597353 C0.123706564,40.2628529 0.234903475,40.2753235 0.36,40.2753235 C2.24725869,40.2753235 8.83722008,39.6237353 8.83722008,32.1943824 C8.83722008,27.7610882 6.14069498,26.3877647 3.20633205,25.5631471 L0.0016988417,24.6574706 L0.0016988417,29.5864706 L0.63027027,29.7563824 Z" id="Fill-47" fill="#1A3667" mask="url(#mask-2)"></path>
                <path d="M3.83444015,22.2606235 L8.14795367,22.2606235 C8.11706564,19.2739176 6.38579151,14.4197412 -0.000308880309,14.2981529 L-0.000308880309,18.5724471 C3.38501931,18.8156235 3.72015444,21.2177706 3.83444015,22.2606235" id="Fill-48" fill="#1A3667" mask="url(#mask-2)"></path>
                <path d="M32.2520463,21.2651588 C32.2520463,18.7211588 30.8528185,14.9394529 25.3763707,14.9394529 L14.5192278,14.9394529 L14.5192278,39.6234235 L23.9771429,39.6234235 C28.5501158,39.6234235 29.7640154,38.7629529 31.0396911,37.3896294 C32.2211583,36.1160706 32.9686486,34.2595118 32.9686486,32.3000706 C32.9686486,29.8589529 32.2520463,27.4521294 29.5138224,26.3173059 C30.4481853,25.8044529 32.2520463,24.8052471 32.2520463,21.2651588 Z M18.9979923,19.2012765 L24.3493436,19.2012765 C26.4651737,19.2012765 27.7732819,19.8185706 27.7732819,21.8481588 C27.7732819,23.8076 26.3107336,24.5979235 24.4744402,24.5979235 L18.9979923,24.5979235 L18.9979923,19.2012765 Z M24.7230888,35.3600412 L18.9979923,35.3600412 L18.9979923,28.7584235 L24.9408494,28.7584235 C26.6211583,28.7584235 28.3014672,29.5846 28.3014672,31.7482471 C28.3014672,34.2595118 26.9949035,35.3600412 24.7230888,35.3600412 Z" id="Fill-49" fill="#1A3667" mask="url(#mask-2)"></path>
                <polygon id="Fill-50" fill="#1A3667" mask="url(#mask-2)" points="43.9518147 14.9308794 36.856834 39.6304382 41.3355985 39.6304382 45.6830888 23.4139971 50.1016216 39.6304382 54.5803861 39.6304382 47.4946718 14.9308794"></polygon>
                <polygon id="Fill-51" fill="#1A3667" mask="url(#mask-2)" points="47.4682625 50.3408029 47.4682625 39.6909206 43.9176834 39.6909206 43.9176834 52.3345382 45.6844788 52.3345382"></polygon>
                <path d="M359.410193,41.5892559 L359.828726,41.5892559 L359.828726,43.5627265 C359.828726,43.7638147 359.850347,43.9306088 359.892046,44.0677853 C359.930656,44.2034029 359.986255,44.3109618 360.054208,44.3935794 C360.123707,44.4761971 360.20556,44.5338735 360.299768,44.5697265 C360.393977,44.6055794 360.494363,44.6227265 360.602471,44.6227265 C360.713668,44.6227265 360.817143,44.6055794 360.911351,44.5697265 C361.00556,44.5338735 361.087413,44.4761971 361.158456,44.3935794 C361.229498,44.3109618 361.285097,44.2034029 361.325251,44.0677853 C361.365405,43.9306088 361.385483,43.7638147 361.385483,43.5627265 L361.385483,41.5892559 L361.790116,41.5892559 L361.790116,43.5518147 C361.790116,43.8214912 361.759228,44.0459618 361.698996,44.2299029 C361.63722,44.4138441 361.555367,44.5619324 361.448803,44.6757265 C361.342239,44.7910794 361.217143,44.8705794 361.071969,44.9220206 C360.926795,44.9703441 360.770811,44.9952853 360.602471,44.9952853 C360.434131,44.9952853 360.278147,44.9703441 360.131429,44.9220206 C359.983166,44.8705794 359.858069,44.7910794 359.751506,44.6757265 C359.644942,44.5619324 359.563089,44.4138441 359.502857,44.2299029 C359.441081,44.0459618 359.410193,43.8214912 359.410193,43.5518147 L359.410193,41.5892559 Z" id="Fill-52" fill="#1A3667" mask="url(#mask-2)"></path>
                <path d="M362.482471,44.6794676 C362.482471,44.5812618 362.511815,44.5017618 362.570502,44.4425265 C362.629189,44.3832912 362.701776,44.3521147 362.785174,44.3521147 C362.865483,44.3521147 362.936525,44.3832912 362.995212,44.4425265 C363.0539,44.5017618 363.083243,44.5812618 363.083243,44.6794676 C363.083243,44.7714382 363.0539,44.8462618 362.995212,44.9070559 C362.936525,44.9662912 362.865483,44.99435 362.785174,44.99435 C362.701776,44.99435 362.629189,44.9662912 362.570502,44.9070559 C362.511815,44.8462618 362.482471,44.7714382 362.482471,44.6794676" id="Fill-53" fill="#1A3667" mask="url(#mask-2)"></path>
                <path d="M363.875985,44.2044941 C363.993359,44.3307588 364.132355,44.4320824 364.292973,44.5069059 C364.452046,44.5848471 364.617297,44.6238176 364.79027,44.6238176 C365.008031,44.6238176 365.179459,44.5723765 365.301467,44.4726118 C365.421931,44.3712882 365.482162,44.2403471 365.482162,44.0766706 C365.482162,43.9924941 365.468263,43.9192294 365.440463,43.8599941 C365.41112,43.8007588 365.37251,43.7493176 365.323089,43.7087882 C365.273668,43.6651412 365.216525,43.6277294 365.148571,43.5918765 C365.080618,43.5591412 365.008031,43.5232882 364.932355,43.4858765 L364.45668,43.2769941 C364.379459,43.2427 364.299151,43.2006118 364.220386,43.1538471 C364.138533,43.1070824 364.065946,43.0494059 364.002625,42.9808176 C363.937761,42.9137882 363.886795,42.8327294 363.845097,42.7392 C363.804942,42.6456706 363.784865,42.5381118 363.784865,42.4165235 C363.784865,42.2887 363.81112,42.1717882 363.863629,42.0626706 C363.914595,41.9551118 363.987181,41.8600235 364.08139,41.7805235 C364.17251,41.7010235 364.283707,41.6386706 364.408803,41.5934647 C364.535444,41.5498176 364.67444,41.5279941 364.825792,41.5279941 C365.023475,41.5279941 365.207259,41.5669647 365.377143,41.6417882 C365.543938,41.7181706 365.687568,41.8194941 365.804942,41.9410824 L365.579459,42.2169941 C365.477529,42.1172294 365.366332,42.0392882 365.24278,41.9847294 C365.120772,41.9286118 364.980232,41.8989941 364.825792,41.8989941 C364.640463,41.8989941 364.490656,41.9442 364.377915,42.0299353 C364.266718,42.1172294 364.209575,42.2357 364.209575,42.3900235 C364.209575,42.4710824 364.226564,42.5412294 364.257452,42.5957882 C364.289884,42.6519059 364.333127,42.7017882 364.385637,42.7438765 C364.439691,42.7875235 364.498378,42.8233765 364.563243,42.8561118 C364.626564,42.8872882 364.692973,42.9184647 364.759382,42.9449647 L365.230425,43.1491706 C365.323089,43.1912588 365.412664,43.2364647 365.497606,43.2894647 C365.581004,43.3424647 365.653591,43.4032588 365.713822,43.4718471 C365.774054,43.5419941 365.823475,43.6246118 365.858996,43.7181412 C365.894517,43.8116706 365.911506,43.9192294 365.911506,44.0423765 C365.911506,44.1733176 365.885251,44.2995824 365.834286,44.4133765 C365.780232,44.5287294 365.707645,44.6300529 365.608803,44.7173471 C365.511506,44.8046412 365.392587,44.8716706 365.255135,44.9215529 C365.117683,44.9698765 364.960154,44.9948176 364.785637,44.9948176 C364.552432,44.9948176 364.337761,44.9511706 364.138533,44.8623176 C363.940849,44.7734647 363.769421,44.6534353 363.624247,44.4991118 L363.875985,44.2044941 Z" id="Fill-54" fill="#1A3667" mask="url(#mask-2)"></path>
                <path d="M366.436911,44.6794676 C366.436911,44.5812618 366.466255,44.5017618 366.524942,44.4425265 C366.583629,44.3832912 366.656216,44.3521147 366.739614,44.3521147 C366.819923,44.3521147 366.890965,44.3832912 366.949653,44.4425265 C367.00834,44.5017618 367.037683,44.5812618 367.037683,44.6794676 C367.037683,44.7714382 367.00834,44.8462618 366.949653,44.9070559 C366.890965,44.9662912 366.819923,44.99435 366.739614,44.99435 C366.656216,44.99435 366.583629,44.9662912 366.524942,44.9070559 C366.466255,44.8462618 366.436911,44.7714382 366.436911,44.6794676" id="Fill-55" fill="#1A3667" mask="url(#mask-2)"></path>
                <path d="M368.851583,44.2044941 C368.968958,44.3307588 369.107954,44.4320824 369.268571,44.5069059 C369.427645,44.5848471 369.592896,44.6238176 369.765869,44.6238176 C369.983629,44.6238176 370.155058,44.5723765 370.277066,44.4726118 C370.397529,44.3712882 370.457761,44.2403471 370.457761,44.0766706 C370.457761,43.9924941 370.443861,43.9192294 370.416062,43.8599941 C370.386718,43.8007588 370.348108,43.7493176 370.298687,43.7087882 C370.249266,43.6651412 370.192124,43.6277294 370.12417,43.5918765 C370.056216,43.5591412 369.983629,43.5232882 369.907954,43.4858765 L369.432278,43.2769941 C369.355058,43.2427 369.274749,43.2006118 369.195985,43.1538471 C369.114131,43.1070824 369.041544,43.0494059 368.978224,42.9808176 C368.913359,42.9137882 368.862394,42.8327294 368.820695,42.7392 C368.780541,42.6456706 368.760463,42.5381118 368.760463,42.4165235 C368.760463,42.2887 368.786718,42.1717882 368.839228,42.0626706 C368.890193,41.9551118 368.96278,41.8600235 369.056988,41.7805235 C369.148108,41.7010235 369.259305,41.6386706 369.384402,41.5934647 C369.511042,41.5498176 369.650039,41.5279941 369.80139,41.5279941 C369.999073,41.5279941 370.182857,41.5669647 370.352741,41.6417882 C370.519537,41.7181706 370.663166,41.8194941 370.780541,41.9410824 L370.555058,42.2169941 C370.453127,42.1172294 370.341931,42.0392882 370.218378,41.9847294 C370.096371,41.9286118 369.95583,41.8989941 369.80139,41.8989941 C369.616062,41.8989941 369.466255,41.9442 369.353514,42.0299353 C369.242317,42.1172294 369.185174,42.2357 369.185174,42.3900235 C369.185174,42.4710824 369.202162,42.5412294 369.23305,42.5957882 C369.265483,42.6519059 369.308726,42.7017882 369.361236,42.7438765 C369.41529,42.7875235 369.473977,42.8233765 369.538842,42.8561118 C369.602162,42.8872882 369.668571,42.9184647 369.734981,42.9449647 L370.206023,43.1491706 C370.298687,43.1912588 370.388263,43.2364647 370.473205,43.2894647 C370.556602,43.3424647 370.629189,43.4032588 370.689421,43.4718471 C370.749653,43.5419941 370.799073,43.6246118 370.834595,43.7181412 C370.870116,43.8116706 370.887104,43.9192294 370.887104,44.0423765 C370.887104,44.1733176 370.860849,44.2995824 370.809884,44.4133765 C370.75583,44.5287294 370.683243,44.6300529 370.584402,44.7173471 C370.487104,44.8046412 370.368185,44.8716706 370.230734,44.9215529 C370.093282,44.9698765 369.935753,44.9948176 369.761236,44.9948176 C369.528031,44.9948176 369.313359,44.9511706 369.114131,44.8623176 C368.916448,44.7734647 368.745019,44.6534353 368.599846,44.4991118 L368.851583,44.2044941 Z" id="Fill-56" fill="#1A3667" mask="url(#mask-2)"></path>
                <path d="M371.498533,42.4553382 L371.84139,42.4553382 L371.876911,42.8123088 L371.892355,42.8123088 C371.998919,42.6938382 372.116293,42.5940735 372.242934,42.5145735 C372.368031,42.4335147 372.505483,42.3945441 372.65529,42.3945441 C372.843707,42.3945441 372.990425,42.4366324 373.096988,42.51925 C373.203552,42.6034265 373.280772,42.7187794 373.331737,42.8699853 C373.459923,42.7265735 373.589653,42.6112206 373.717838,42.5254853 C373.847568,42.4381912 373.988108,42.3945441 374.139459,42.3945441 C374.392741,42.3945441 374.579614,42.4771618 374.703166,42.6392794 C374.825174,42.8029559 374.88695,43.0445735 374.88695,43.3625735 L374.88695,44.9338676 L374.47305,44.9338676 L374.47305,43.4186912 C374.47305,43.1848676 374.435985,43.0149559 374.361853,42.9120735 C374.287722,42.8091912 374.171892,42.7561912 374.018996,42.7561912 C373.833668,42.7561912 373.628263,42.8840147 373.401236,43.1381029 L373.401236,44.9338676 L372.98888,44.9338676 L372.98888,43.4186912 C372.98888,43.1848676 372.95027,43.0149559 372.877683,42.9120735 C372.803552,42.8091912 372.687722,42.7561912 372.528649,42.7561912 C372.34332,42.7561912 372.137915,42.8840147 371.912432,43.1381029 L371.912432,44.9338676 L371.498533,44.9338676 L371.498533,42.4553382 Z" id="Fill-57" fill="#1A3667" mask="url(#mask-2)"></path>
                <path d="M375.973282,44.2607676 C375.973282,44.4041794 376.013436,44.5055029 376.096834,44.5662971 C376.178687,44.6270912 376.280618,44.6582676 376.401081,44.6582676 C376.52,44.6582676 376.632741,44.6302088 376.737761,44.5740912 C376.84278,44.5179735 376.955521,44.4353559 377.07444,44.3262382 L377.07444,43.6387971 C376.86749,43.6652971 376.694517,43.6980324 376.553977,43.7354441 C376.411892,43.7744147 376.299151,43.8180618 376.212664,43.8679441 C376.127722,43.9193853 376.065946,43.9770618 376.027336,44.0440912 C375.991815,44.1095618 375.973282,44.1828265 375.973282,44.2607676 M375.562471,44.2919441 C375.562471,44.01915 375.684479,43.8118265 375.925405,43.6668559 C376.164788,43.5218853 376.547799,43.4205618 377.07444,43.3628853 C377.07444,43.2849441 377.066718,43.2085618 377.051274,43.1337382 C377.03583,43.0589147 377.009575,42.9934441 376.970965,42.9342088 C376.930811,42.8765324 376.879846,42.8297676 376.816525,42.7954735 C376.75166,42.7596206 376.669807,42.7409147 376.569421,42.7409147 C376.424247,42.7409147 376.289884,42.7689735 376.166332,42.8219735 C376.044324,42.8765324 375.934672,42.9373265 375.83583,43.0059147 L375.670579,42.7159735 C375.78332,42.64115 375.923861,42.5694441 376.089112,42.4992971 C376.254363,42.42915 376.435058,42.3948559 376.634286,42.3948559 C376.9339,42.3948559 377.15166,42.4868265 377.286023,42.6723265 C377.420386,42.8578265 377.486795,43.1056794 377.486795,43.4143265 L377.486795,44.9341794 L377.145483,44.9341794 L377.108417,44.6380029 L377.099151,44.6380029 C376.980232,44.7377676 376.853591,44.8203853 376.717683,44.8905324 C376.581776,44.9591206 376.438147,44.9949735 376.285251,44.9949735 C376.076757,44.9949735 375.903784,44.9341794 375.767876,44.8125912 C375.630425,44.6878853 375.562471,44.5148559 375.562471,44.2919441" id="Fill-58" fill="#1A3667" mask="url(#mask-2)"></path>
                <path d="M378.271815,41.3030559 L378.685714,41.3030559 L378.685714,44.46435 C378.685714,44.5329382 378.696525,44.5812618 378.721236,44.6077618 C378.744402,44.6358206 378.770656,44.6482912 378.801544,44.6482912 L378.83861,44.6482912 C378.850965,44.6482912 378.869498,44.6451735 378.892664,44.6389382 L378.946718,44.9538206 C378.922008,44.96785 378.888031,44.9772029 378.85251,44.9834382 C378.815444,44.9912324 378.767568,44.99435 378.710425,44.99435 C378.552896,44.99435 378.43861,44.9475853 378.372201,44.8509382 C378.304247,44.7574088 378.271815,44.6171147 378.271815,44.4347324 L378.271815,41.3030559 Z" id="Fill-59" fill="#1A3667" mask="url(#mask-2)"></path>
                <path d="M379.559846,41.3030559 L379.973745,41.3030559 L379.973745,44.46435 C379.973745,44.5329382 379.984556,44.5812618 380.009266,44.6077618 C380.032432,44.6358206 380.058687,44.6482912 380.089575,44.6482912 L380.126641,44.6482912 C380.138996,44.6482912 380.157529,44.6451735 380.180695,44.6389382 L380.234749,44.9538206 C380.210039,44.96785 380.176062,44.9772029 380.140541,44.9834382 C380.103475,44.9912324 380.055598,44.99435 379.998456,44.99435 C379.840927,44.99435 379.726641,44.9475853 379.660232,44.8509382 C379.592278,44.7574088 379.559846,44.6171147 379.559846,44.4347324 L379.559846,41.3030559 Z" id="Fill-60" fill="#1A3667" mask="url(#mask-2)"></path>
                <path d="M382.903475,44.5971618 C383.190734,44.5971618 383.411583,44.5441618 383.570656,44.4350441 C383.728185,44.3290441 383.808494,44.16225 383.808494,43.9346618 C383.808494,43.7257794 383.72973,43.5745735 383.576834,43.4779265 C383.420849,43.3812794 383.195367,43.3313971 382.903475,43.3313971 L382.327413,43.3313971 L382.327413,44.5971618 L382.903475,44.5971618 Z M382.816988,43.0165147 C383.104247,43.0165147 383.309653,42.9666324 383.43166,42.8699853 C383.555212,42.7702206 383.615444,42.6268088 383.615444,42.43975 C383.615444,42.2573676 383.550579,42.1248676 383.420849,42.0453676 C383.29112,41.9658676 383.098069,41.9253382 382.83861,41.9253382 L382.327413,41.9253382 L382.327413,43.0165147 L382.816988,43.0165147 Z M381.907336,41.5886324 L382.892664,41.5886324 C383.062548,41.5886324 383.215444,41.6042206 383.355985,41.6353971 C383.496525,41.6650147 383.615444,41.7133382 383.714286,41.77725 C383.814672,41.8411618 383.891892,41.9268971 383.94749,42.0313382 C384.003089,42.1342206 384.029344,42.2589265 384.029344,42.4054559 C384.029344,42.5706912 383.983012,42.7218971 383.888803,42.8559559 C383.794595,42.9900147 383.649421,43.0819853 383.453282,43.1349853 L383.453282,43.1536912 C383.697297,43.1926618 383.885714,43.2768382 384.020077,43.4093382 C384.155985,43.5418382 384.222394,43.7226618 384.222394,43.9549265 C384.222394,44.1170441 384.191506,44.2604559 384.131274,44.3820441 C384.071042,44.5051912 383.984556,44.6080735 383.873359,44.6891324 C383.763707,44.7701912 383.629344,44.8309853 383.474903,44.8730735 C383.320463,44.9136029 383.149035,44.9338676 382.963707,44.9338676 L381.907336,44.9338676 L381.907336,41.5886324 Z" id="Fill-61" fill="#1A3667" mask="url(#mask-2)"></path>
                <path d="M384.802317,42.4553382 L385.220849,42.4553382 L385.220849,43.9705147 C385.220849,44.2043382 385.257915,44.3726912 385.330502,44.4771324 C385.403089,44.5800147 385.520463,44.6314559 385.681081,44.6314559 C385.809266,44.6314559 385.923552,44.6002794 386.019305,44.53325 C386.118147,44.4677794 386.22471,44.3617794 386.343629,44.21525 L386.343629,42.4553382 L386.757529,42.4553382 L386.757529,44.9338676 L386.414672,44.9338676 L386.379151,44.5457206 L386.363707,44.5457206 C386.249421,44.6828971 386.127413,44.7904559 386.002317,44.8730735 C385.875676,44.9541324 385.727413,44.9946618 385.55444,44.9946618 C385.291892,44.9946618 385.100386,44.9136029 384.981467,44.7499265 C384.862548,44.58625 384.802317,44.3461912 384.802317,44.0266324 L384.802317,42.4553382 Z" id="Fill-62" fill="#1A3667" mask="url(#mask-2)"></path>
                <path d="M387.520154,44.3734706 C387.628263,44.4623235 387.739459,44.5340294 387.850656,44.5870294 C387.963398,44.6415882 388.094672,44.6680882 388.242934,44.6680882 C388.403552,44.6680882 388.52556,44.6306765 388.605869,44.5558529 C388.687722,44.4810294 388.727876,44.3906176 388.727876,44.2799412 C388.727876,44.2160294 388.710888,44.1599118 388.676911,44.1131471 C388.644479,44.0663824 388.599691,44.0227353 388.548726,43.9884412 C388.496216,43.9510294 388.435985,43.9214118 388.369575,43.8933529 C388.301622,43.8668529 388.233668,43.8387941 388.167259,43.8122941 C388.079228,43.7811176 387.992741,43.7468235 387.90471,43.7078529 C387.81668,43.6688824 387.739459,43.6221176 387.669961,43.5644412 C387.600463,43.5083235 387.544865,43.4428529 387.500077,43.3680294 C387.456834,43.2947647 387.433668,43.2043529 387.433668,43.0983529 C387.433668,43.0001471 387.453745,42.9081765 387.492355,42.8208824 C387.530965,42.7335882 387.586564,42.6587647 387.659151,42.5948529 C387.731737,42.5325 387.819768,42.4841765 387.924788,42.4483235 C388.028263,42.4124706 388.145637,42.3937647 388.276911,42.3937647 C388.432896,42.3937647 388.574981,42.4218235 388.70471,42.4763824 C388.83444,42.5293824 388.947181,42.5964118 389.039846,42.6743529 L388.843707,42.9409118 C388.760309,42.8754412 388.672278,42.8224412 388.581158,42.7819118 C388.490039,42.7413824 388.389653,42.7195588 388.283089,42.7195588 C388.128649,42.7195588 388.014363,42.7569706 387.941776,42.8286765 C387.870734,42.9003824 387.833668,42.9814412 387.833668,43.0780882 C387.833668,43.1357647 387.849112,43.1856471 387.878456,43.2292941 C387.909344,43.2713824 387.949498,43.3072353 388.000463,43.3399706 C388.051429,43.3727059 388.108571,43.4023235 388.174981,43.4272647 C388.239846,43.4522059 388.309344,43.4787059 388.378842,43.5052059 C388.465328,43.5410588 388.554903,43.5753529 388.644479,43.6143235 C388.73251,43.6501765 388.812819,43.6969412 388.883861,43.7546176 C388.954903,43.8107353 389.013591,43.8793235 389.058378,43.9588235 C389.103166,44.0414412 389.126332,44.1412059 389.126332,44.2565588 C389.126332,44.3578824 389.106255,44.4529706 389.069189,44.5402647 C389.030579,44.6291176 388.971892,44.7086176 388.897761,44.7756471 C388.820541,44.8442353 388.726332,44.8972353 388.613591,44.9362059 C388.500849,44.9751765 388.372664,44.9938824 388.22749,44.9938824 C388.052973,44.9938824 387.884633,44.9627059 387.727104,44.8987941 C387.568031,44.8333235 387.430579,44.7522647 387.313205,44.6540588 L387.520154,44.3734706 Z" id="Fill-63" fill="#1A3667" mask="url(#mask-2)"></path>
                <path d="M389.701931,44.9334 L390.11583,44.9334 L390.11583,42.4548706 L389.701931,42.4548706 L389.701931,44.9334 Z M389.913514,41.9451353 C389.833205,41.9451353 389.763707,41.9217529 389.709653,41.8687529 C389.654054,41.8188706 389.626255,41.7534 389.626255,41.6754588 C389.626255,41.5944 389.654054,41.5289294 389.709653,41.4790471 C389.763707,41.4307235 389.833205,41.4042235 389.913514,41.4042235 C389.995367,41.4042235 390.06332,41.4307235 390.118919,41.4790471 C390.174517,41.5289294 390.202317,41.5944 390.202317,41.6754588 C390.202317,41.7534 390.174517,41.8188706 390.118919,41.8687529 C390.06332,41.9217529 389.995367,41.9451353 389.913514,41.9451353 Z" id="Fill-64" fill="#1A3667" mask="url(#mask-2)"></path>
                <path d="M390.945328,42.4553382 L391.288185,42.4553382 L391.323707,42.8123088 L391.339151,42.8123088 C391.456525,42.6938382 391.580077,42.5940735 391.709807,42.5145735 C391.839537,42.4335147 391.990888,42.3945441 392.162317,42.3945441 C392.421776,42.3945441 392.610193,42.4771618 392.730656,42.6392794 C392.849575,42.8029559 392.908263,43.0445735 392.908263,43.3625735 L392.908263,44.9338676 L392.495907,44.9338676 L392.495907,43.4186912 C392.495907,43.1848676 392.457297,43.0149559 392.38471,42.9120735 C392.310579,42.8091912 392.193205,42.7561912 392.031042,42.7561912 C391.902857,42.7561912 391.790116,42.7889265 391.691274,42.8543971 C391.595521,42.9183088 391.484324,43.0133971 391.359228,43.1381029 L391.359228,44.9338676 L390.945328,44.9338676 L390.945328,42.4553382 Z" id="Fill-65" fill="#1A3667" mask="url(#mask-2)"></path>
                <path d="M395.243707,43.5119088 C395.243707,43.2562618 395.191197,43.0614088 395.083089,42.92735 C394.978069,42.7932912 394.828263,42.7262618 394.636757,42.7262618 C394.55027,42.7262618 394.466873,42.7449676 394.386564,42.7792618 C394.309344,42.8151147 394.236757,42.8665559 394.173436,42.9320265 C394.108571,42.9990559 394.054517,43.0816735 394.012819,43.1767618 C393.97112,43.2749676 393.94332,43.3856441 393.929421,43.5119088 L395.243707,43.5119088 Z M393.526332,43.7005265 C393.526332,43.4963206 393.55722,43.3139382 393.618996,43.1518206 C393.680772,42.9897029 393.76417,42.8540853 393.8661,42.74185 C393.969575,42.6296147 394.08695,42.5438794 394.218224,42.4846441 C394.349498,42.4254088 394.485405,42.3942324 394.62749,42.3942324 C394.781931,42.3942324 394.920927,42.4222912 395.042934,42.47685 C395.166486,42.52985 395.269961,42.60935 395.351815,42.7106735 C395.433668,42.8135559 395.496988,42.9351441 395.540232,43.0785559 C395.585019,43.2204088 395.606641,43.3809676 395.606641,43.5571147 C395.606641,43.6490853 395.602008,43.7254676 395.592741,43.7862618 L393.934054,43.7862618 C393.951042,44.0559382 394.03444,44.2663794 394.181158,44.4238206 C394.326332,44.5812618 394.517838,44.6576441 394.754131,44.6576441 C394.871506,44.6576441 394.979614,44.6404971 395.08,44.6046441 C395.178842,44.57035 395.274595,44.5220265 395.36417,44.46435 L395.510888,44.7402618 C395.404324,44.8072912 395.283861,44.8665265 395.151042,44.9179676 C395.019768,44.9694088 394.871506,44.99435 394.701622,44.99435 C394.537915,44.99435 394.383475,44.9662912 394.24139,44.9070559 C394.097761,44.8462618 393.972664,44.7620853 393.8661,44.64985 C393.761081,44.5407324 393.677683,44.4051147 393.615907,44.2461147 C393.555676,44.0855559 393.526332,43.9031735 393.526332,43.7005265 Z" id="Fill-66" fill="#1A3667" mask="url(#mask-2)"></path>
                <path d="M396.147027,44.3734706 C396.255135,44.4623235 396.366332,44.5340294 396.477529,44.5870294 C396.59027,44.6415882 396.721544,44.6680882 396.869807,44.6680882 C397.030425,44.6680882 397.152432,44.6306765 397.232741,44.5558529 C397.314595,44.4810294 397.354749,44.3906176 397.354749,44.2799412 C397.354749,44.2160294 397.337761,44.1599118 397.303784,44.1131471 C397.271351,44.0663824 397.226564,44.0227353 397.175598,43.9884412 C397.123089,43.9510294 397.062857,43.9214118 396.996448,43.8933529 C396.928494,43.8668529 396.860541,43.8387941 396.794131,43.8122941 C396.7061,43.7811176 396.619614,43.7468235 396.531583,43.7078529 C396.443552,43.6688824 396.366332,43.6221176 396.296834,43.5644412 C396.227336,43.5083235 396.171737,43.4428529 396.12695,43.3680294 C396.083707,43.2947647 396.060541,43.2043529 396.060541,43.0983529 C396.060541,43.0001471 396.080618,42.9081765 396.119228,42.8208824 C396.157838,42.7335882 396.213436,42.6587647 396.286023,42.5948529 C396.35861,42.5325 396.446641,42.4841765 396.55166,42.4483235 C396.655135,42.4124706 396.77251,42.3937647 396.903784,42.3937647 C397.059768,42.3937647 397.201853,42.4218235 397.331583,42.4763824 C397.461313,42.5293824 397.574054,42.5964118 397.666718,42.6743529 L397.470579,42.9409118 C397.387181,42.8754412 397.299151,42.8224412 397.208031,42.7819118 C397.116911,42.7413824 397.016525,42.7195588 396.909961,42.7195588 C396.755521,42.7195588 396.641236,42.7569706 396.568649,42.8286765 C396.497606,42.9003824 396.460541,42.9814412 396.460541,43.0780882 C396.460541,43.1357647 396.475985,43.1856471 396.505328,43.2292941 C396.536216,43.2713824 396.576371,43.3072353 396.627336,43.3399706 C396.678301,43.3727059 396.735444,43.4023235 396.801853,43.4272647 C396.866718,43.4522059 396.936216,43.4787059 397.005714,43.5052059 C397.092201,43.5410588 397.181776,43.5753529 397.271351,43.6143235 C397.359382,43.6501765 397.439691,43.6969412 397.510734,43.7546176 C397.581776,43.8107353 397.640463,43.8793235 397.685251,43.9588235 C397.730039,44.0414412 397.753205,44.1412059 397.753205,44.2565588 C397.753205,44.3578824 397.733127,44.4529706 397.696062,44.5402647 C397.657452,44.6291176 397.598764,44.7086176 397.524633,44.7756471 C397.447413,44.8442353 397.353205,44.8972353 397.240463,44.9362059 C397.127722,44.9751765 396.999537,44.9938824 396.854363,44.9938824 C396.679846,44.9938824 396.511506,44.9627059 396.353977,44.8987941 C396.194903,44.8333235 396.057452,44.7522647 395.940077,44.6540588 L396.147027,44.3734706 Z" id="Fill-67" fill="#1A3667" mask="url(#mask-2)"></path>
                <path d="M398.263166,44.3734706 C398.371274,44.4623235 398.482471,44.5340294 398.593668,44.5870294 C398.706409,44.6415882 398.837683,44.6680882 398.985946,44.6680882 C399.146564,44.6680882 399.268571,44.6306765 399.34888,44.5558529 C399.430734,44.4810294 399.470888,44.3906176 399.470888,44.2799412 C399.470888,44.2160294 399.4539,44.1599118 399.419923,44.1131471 C399.38749,44.0663824 399.342703,44.0227353 399.291737,43.9884412 C399.239228,43.9510294 399.178996,43.9214118 399.112587,43.8933529 C399.044633,43.8668529 398.97668,43.8387941 398.91027,43.8122941 C398.822239,43.7811176 398.735753,43.7468235 398.647722,43.7078529 C398.559691,43.6688824 398.482471,43.6221176 398.412973,43.5644412 C398.343475,43.5083235 398.287876,43.4428529 398.243089,43.3680294 C398.199846,43.2947647 398.17668,43.2043529 398.17668,43.0983529 C398.17668,43.0001471 398.196757,42.9081765 398.235367,42.8208824 C398.273977,42.7335882 398.329575,42.6587647 398.402162,42.5948529 C398.474749,42.5325 398.56278,42.4841765 398.667799,42.4483235 C398.771274,42.4124706 398.888649,42.3937647 399.019923,42.3937647 C399.175907,42.3937647 399.317992,42.4218235 399.447722,42.4763824 C399.577452,42.5293824 399.690193,42.5964118 399.782857,42.6743529 L399.586718,42.9409118 C399.50332,42.8754412 399.41529,42.8224412 399.32417,42.7819118 C399.23305,42.7413824 399.132664,42.7195588 399.0261,42.7195588 C398.87166,42.7195588 398.757375,42.7569706 398.684788,42.8286765 C398.613745,42.9003824 398.57668,42.9814412 398.57668,43.0780882 C398.57668,43.1357647 398.592124,43.1856471 398.621467,43.2292941 C398.652355,43.2713824 398.69251,43.3072353 398.743475,43.3399706 C398.79444,43.3727059 398.851583,43.4023235 398.917992,43.4272647 C398.982857,43.4522059 399.052355,43.4787059 399.121853,43.5052059 C399.20834,43.5410588 399.297915,43.5753529 399.38749,43.6143235 C399.475521,43.6501765 399.55583,43.6969412 399.626873,43.7546176 C399.697915,43.8107353 399.756602,43.8793235 399.80139,43.9588235 C399.846178,44.0414412 399.869344,44.1412059 399.869344,44.2565588 C399.869344,44.3578824 399.849266,44.4529706 399.812201,44.5402647 C399.773591,44.6291176 399.714903,44.7086176 399.640772,44.7756471 C399.563552,44.8442353 399.469344,44.8972353 399.356602,44.9362059 C399.243861,44.9751765 399.115676,44.9938824 398.970502,44.9938824 C398.795985,44.9938824 398.627645,44.9627059 398.470116,44.8987941 C398.311042,44.8333235 398.173591,44.7522647 398.056216,44.6540588 L398.263166,44.3734706 Z" id="Fill-68" fill="#1A3667" mask="url(#mask-2)"></path>
                <path d="M365.701004,49.6907735 L365.543475,49.1810382 C365.483243,48.9939794 365.4261,48.8084794 365.372046,48.6214206 C365.317992,48.4359206 365.265483,48.2473029 365.211429,48.0540088 L365.191351,48.0540088 C365.140386,48.2473029 365.087876,48.4359206 365.033822,48.6214206 C364.979768,48.8084794 364.922625,48.9939794 364.862394,49.1810382 L364.704865,49.6907735 L365.701004,49.6907735 Z M365.806023,50.0321559 L364.599846,50.0321559 L364.281699,51.0516265 L363.852355,51.0516265 L364.973591,47.70795 L365.447722,47.70795 L366.568958,51.0516265 L366.119537,51.0516265 L365.806023,50.0321559 Z" id="Fill-69" fill="#1A3667" mask="url(#mask-2)"></path>
                <path d="M367.251429,49.8125176 C367.251429,50.1118118 367.310116,50.3456353 367.42749,50.5108706 C367.544865,50.6776647 367.713205,50.7602824 367.927876,50.7602824 C368.043707,50.7602824 368.15027,50.7337824 368.250656,50.6776647 C368.352587,50.6215471 368.452973,50.5358118 368.554903,50.4204588 L368.554903,49.1250765 C368.449884,49.0299882 368.351042,48.9614 368.253745,48.9239882 C368.157992,48.8834588 368.059151,48.8647529 367.958764,48.8647529 C367.861467,48.8647529 367.768803,48.8865765 367.682317,48.9333412 C367.597375,48.9801059 367.523243,49.0440176 367.458378,49.1281941 C367.395058,49.2092529 367.344093,49.3105765 367.307027,49.4259294 C367.269961,49.5412824 367.251429,49.6691059 367.251429,49.8125176 M366.822085,49.8187529 C366.822085,49.6176647 366.851429,49.4368412 366.910116,49.2747235 C366.968803,49.1141647 367.047568,48.9769882 367.146409,48.8647529 C367.242162,48.7525176 367.354903,48.6667824 367.483089,48.6044294 C367.611274,48.5436353 367.745637,48.5124588 367.887722,48.5124588 C368.029807,48.5124588 368.151815,48.5389588 368.256834,48.5888412 C368.361853,48.6402824 368.466873,48.7104294 368.574981,48.7992824 L368.554903,48.3752824 L368.554903,47.4212824 L368.973436,47.4212824 L368.973436,51.0517824 L368.630579,51.0517824 L368.595058,50.7602824 L368.579614,50.7602824 C368.482317,50.8569294 368.37112,50.9395471 368.244479,51.0096941 C368.117838,51.0782824 367.983475,51.1125765 367.838301,51.1125765 C367.527876,51.1125765 367.282317,51.0019 367.096988,50.7758706 C366.913205,50.5529588 366.822085,50.2334 366.822085,49.8187529" id="Fill-70" fill="#1A3667" mask="url(#mask-2)"></path>
                <path d="M369.803243,48.5734088 L370.1461,48.5734088 L370.181622,48.9303794 L370.197066,48.9303794 C370.303629,48.8119088 370.421004,48.7121441 370.547645,48.6326441 C370.672741,48.5515853 370.810193,48.5126147 370.96,48.5126147 C371.148417,48.5126147 371.295135,48.5547029 371.401699,48.6373206 C371.508263,48.7214971 371.585483,48.83685 371.636448,48.9880559 C371.764633,48.8446441 371.894363,48.7292912 372.022548,48.6435559 C372.152278,48.5562618 372.292819,48.5126147 372.44417,48.5126147 C372.697452,48.5126147 372.884324,48.5952324 373.007876,48.75735 C373.129884,48.9210265 373.19166,49.1626441 373.19166,49.4806441 L373.19166,51.0519382 L372.777761,51.0519382 L372.777761,49.5367618 C372.777761,49.3029382 372.740695,49.1330265 372.666564,49.0301441 C372.592432,48.9272618 372.476602,48.8742618 372.323707,48.8742618 C372.138378,48.8742618 371.932973,49.0020853 371.705946,49.2561735 L371.705946,51.0519382 L371.293591,51.0519382 L371.293591,49.5367618 C371.293591,49.3029382 371.254981,49.1330265 371.182394,49.0301441 C371.108263,48.9272618 370.992432,48.8742618 370.833359,48.8742618 C370.648031,48.8742618 370.442625,49.0020853 370.217143,49.2561735 L370.217143,51.0519382 L369.803243,51.0519382 L369.803243,48.5734088 Z" id="Fill-71" fill="#1A3667" mask="url(#mask-2)"></path>
                <path d="M373.990734,51.0517824 L374.404633,51.0517824 L374.404633,48.5732529 L373.990734,48.5732529 L373.990734,51.0517824 Z M374.200772,48.0635176 C374.122008,48.0635176 374.05251,48.0385765 373.996911,47.9871353 C373.941313,47.9372529 373.913514,47.8717824 373.913514,47.7938412 C373.913514,47.7112235 373.941313,47.6457529 373.996911,47.5974294 C374.05251,47.5491059 374.122008,47.5226059 374.200772,47.5226059 C374.282625,47.5226059 374.350579,47.5491059 374.406178,47.5974294 C374.461776,47.6457529 374.489575,47.7112235 374.489575,47.7938412 C374.489575,47.8717824 374.461776,47.9372529 374.406178,47.9871353 C374.350579,48.0385765 374.282625,48.0635176 374.200772,48.0635176 Z" id="Fill-72" fill="#1A3667" mask="url(#mask-2)"></path>
                <path d="M375.232741,48.5734088 L375.575598,48.5734088 L375.61112,48.9303794 L375.626564,48.9303794 C375.743938,48.8119088 375.86749,48.7121441 375.99722,48.6326441 C376.12695,48.5515853 376.278301,48.5126147 376.44973,48.5126147 C376.709189,48.5126147 376.897606,48.5952324 377.018069,48.75735 C377.136988,48.9210265 377.195676,49.1626441 377.195676,49.4806441 L377.195676,51.0519382 L376.78332,51.0519382 L376.78332,49.5367618 C376.78332,49.3029382 376.74471,49.1330265 376.672124,49.0301441 C376.597992,48.9272618 376.480618,48.8742618 376.318456,48.8742618 C376.19027,48.8742618 376.077529,48.9069971 375.978687,48.9724676 C375.882934,49.0363794 375.771737,49.1314676 375.646641,49.2561735 L375.646641,51.0519382 L375.232741,51.0519382 L375.232741,48.5734088 Z" id="Fill-73" fill="#1A3667" mask="url(#mask-2)"></path>
                <path d="M377.995367,51.0517824 L378.409266,51.0517824 L378.409266,48.5732529 L377.995367,48.5732529 L377.995367,51.0517824 Z M378.20695,48.0635176 C378.126641,48.0635176 378.057143,48.0385765 378.003089,47.9871353 C377.94749,47.9372529 377.918147,47.8717824 377.918147,47.7938412 C377.918147,47.7112235 377.94749,47.6457529 378.003089,47.5974294 C378.057143,47.5491059 378.126641,47.5226059 378.20695,47.5226059 C378.288803,47.5226059 378.356757,47.5491059 378.412355,47.5974294 C378.467954,47.6457529 378.495753,47.7112235 378.495753,47.7938412 C378.495753,47.8717824 378.467954,47.9372529 378.412355,47.9871353 C378.356757,48.0385765 378.288803,48.0635176 378.20695,48.0635176 Z" id="Fill-74" fill="#1A3667" mask="url(#mask-2)"></path>
                <path d="M379.170656,50.4915412 C379.278764,50.5803941 379.389961,50.6521 379.501158,50.7051 C379.6139,50.7596588 379.745174,50.7861588 379.893436,50.7861588 C380.054054,50.7861588 380.176062,50.7487471 380.256371,50.6739235 C380.338224,50.5991 380.378378,50.5086882 380.378378,50.3980118 C380.378378,50.3341 380.36139,50.2779824 380.327413,50.2312176 C380.294981,50.1844529 380.250193,50.1408059 380.199228,50.1065118 C380.146718,50.0691 380.086486,50.0394824 380.020077,50.0114235 C379.952124,49.9849235 379.88417,49.9568647 379.817761,49.9303647 C379.72973,49.8991882 379.643243,49.8648941 379.555212,49.8259235 C379.467181,49.7869529 379.389961,49.7401882 379.320463,49.6825118 C379.250965,49.6263941 379.195367,49.5609235 379.150579,49.4861 C379.107336,49.4128353 379.08417,49.3224235 379.08417,49.2164235 C379.08417,49.1182176 379.104247,49.0262471 379.142857,48.9389529 C379.181467,48.8516588 379.237066,48.7768353 379.309653,48.7129235 C379.382239,48.6505706 379.47027,48.6022471 379.57529,48.5663941 C379.678764,48.5305412 379.796139,48.5118353 379.927413,48.5118353 C380.083398,48.5118353 380.225483,48.5398941 380.355212,48.5944529 C380.484942,48.6474529 380.597683,48.7144824 380.690347,48.7924235 L380.494208,49.0589824 C380.410811,48.9935118 380.32278,48.9405118 380.23166,48.8999824 C380.140541,48.8594529 380.040154,48.8376294 379.933591,48.8376294 C379.779151,48.8376294 379.664865,48.8750412 379.592278,48.9467471 C379.521236,49.0184529 379.48417,49.0995118 379.48417,49.1961588 C379.48417,49.2538353 379.499614,49.3037176 379.528958,49.3473647 C379.559846,49.3894529 379.6,49.4253059 379.650965,49.4580412 C379.701931,49.4907765 379.759073,49.5203941 379.825483,49.5453353 C379.890347,49.5702765 379.959846,49.5967765 380.029344,49.6232765 C380.11583,49.6591294 380.205405,49.6934235 380.294981,49.7323941 C380.383012,49.7682471 380.46332,49.8150118 380.534363,49.8726882 C380.605405,49.9288059 380.664093,49.9973941 380.70888,50.0768941 C380.753668,50.1595118 380.776834,50.2592765 380.776834,50.3746294 C380.776834,50.4759529 380.756757,50.5710412 380.719691,50.6583353 C380.681081,50.7471882 380.622394,50.8266882 380.548263,50.8937176 C380.471042,50.9623059 380.376834,51.0153059 380.264093,51.0542765 C380.151351,51.0932471 380.023166,51.1119529 379.877992,51.1119529 C379.703475,51.1119529 379.535135,51.0807765 379.377606,51.0168647 C379.218533,50.9513941 379.081081,50.8703353 378.963707,50.7721294 L379.170656,50.4915412 Z" id="Fill-75" fill="#1A3667" mask="url(#mask-2)"></path>
                <path d="M381.333436,48.9160382 L380.968958,48.9160382 L380.968958,48.5995971 L381.353514,48.5730971 L381.402934,47.8809794 L381.751969,47.8809794 L381.751969,48.5730971 L382.412973,48.5730971 L382.412973,48.9160382 L381.751969,48.9160382 L381.751969,50.2924794 C381.751969,50.4436853 381.779768,50.5637147 381.835367,50.6463324 C381.890965,50.72895 381.989807,50.7710382 382.131892,50.7710382 C382.175135,50.7710382 382.221467,50.7648029 382.270888,50.7507735 C382.323398,50.7383029 382.368185,50.7211559 382.40834,50.7040088 L382.488649,51.0220088 C382.422239,51.0453912 382.348108,51.0656559 382.269344,51.0859206 C382.190579,51.1030676 382.111815,51.1124206 382.034595,51.1124206 C381.90332,51.1124206 381.793668,51.0921559 381.704093,51.0516265 C381.614517,51.0110971 381.543475,50.9549794 381.487876,50.8832735 C381.430734,50.8131265 381.392124,50.7258324 381.367413,50.6245088 C381.344247,50.5216265 381.333436,50.4093912 381.333436,50.2878029 L381.333436,48.9160382 Z" id="Fill-76" fill="#1A3667" mask="url(#mask-2)"></path>
                <path d="M382.965405,48.5734088 L383.308263,48.5734088 L383.343784,49.02235 L383.359228,49.02235 C383.44417,48.8649088 383.544556,48.7417618 383.663475,48.65135 C383.783938,48.5578206 383.913668,48.5126147 384.055753,48.5126147 C384.154595,48.5126147 384.241081,48.5297618 384.318301,48.5640559 L384.237992,48.9303794 C384.197838,48.9179088 384.159228,48.9069971 384.126795,48.9007618 C384.092819,48.8929676 384.05112,48.88985 384.000154,48.88985 C383.89668,48.88985 383.787027,48.9319382 383.674286,49.0176735 C383.561544,49.1034088 383.462703,49.2514971 383.379305,49.4603794 L383.379305,51.0519382 L382.965405,51.0519382 L382.965405,48.5734088 Z" id="Fill-77" fill="#1A3667" mask="url(#mask-2)"></path>
                <path d="M384.889884,50.3788382 C384.889884,50.52225 384.930039,50.6235735 385.013436,50.6843676 C385.09529,50.7451618 385.19722,50.7763382 385.317683,50.7763382 C385.436602,50.7763382 385.549344,50.7482794 385.654363,50.6921618 C385.759382,50.6360441 385.872124,50.5534265 385.991042,50.4443088 L385.991042,49.7568676 C385.784093,49.7833676 385.61112,49.8161029 385.470579,49.8535147 C385.328494,49.8924853 385.215753,49.9361324 385.129266,49.9860147 C385.044324,50.0374559 384.982548,50.0951324 384.943938,50.1621618 C384.908417,50.2276324 384.889884,50.3008971 384.889884,50.3788382 M384.479073,50.4100147 C384.479073,50.1372206 384.601081,49.9298971 384.842008,49.7849265 C385.08139,49.6399559 385.464402,49.5386324 385.991042,49.4809559 C385.991042,49.4030147 385.98332,49.3266324 385.967876,49.2518088 C385.952432,49.1769853 385.926178,49.1115147 385.887568,49.0522794 C385.847413,48.9946029 385.796448,48.9478382 385.733127,48.9135441 C385.668263,48.8776912 385.586409,48.8589853 385.486023,48.8589853 C385.340849,48.8589853 385.206486,48.8870441 385.082934,48.9400441 C384.960927,48.9946029 384.851274,49.0553971 384.752432,49.1239853 L384.587181,48.8340441 C384.699923,48.7592206 384.840463,48.6875147 385.005714,48.6173676 C385.170965,48.5472206 385.35166,48.5129265 385.550888,48.5129265 C385.850502,48.5129265 386.068263,48.6048971 386.202625,48.7903971 C386.336988,48.9758971 386.403398,49.22375 386.403398,49.5323971 L386.403398,51.05225 L386.062085,51.05225 L386.025019,50.7560735 L386.015753,50.7560735 C385.896834,50.8558382 385.770193,50.9384559 385.634286,51.0086029 C385.498378,51.0771912 385.354749,51.1130441 385.201853,51.1130441 C384.993359,51.1130441 384.820386,51.05225 384.684479,50.9306618 C384.547027,50.8059559 384.479073,50.6329265 384.479073,50.4100147" id="Fill-78" fill="#1A3667" mask="url(#mask-2)"></path>
                <path d="M387.143166,48.9160382 L386.778687,48.9160382 L386.778687,48.5995971 L387.163243,48.5730971 L387.212664,47.8809794 L387.561699,47.8809794 L387.561699,48.5730971 L388.222703,48.5730971 L388.222703,48.9160382 L387.561699,48.9160382 L387.561699,50.2924794 C387.561699,50.4436853 387.589498,50.5637147 387.645097,50.6463324 C387.700695,50.72895 387.799537,50.7710382 387.941622,50.7710382 C387.984865,50.7710382 388.031197,50.7648029 388.080618,50.7507735 C388.133127,50.7383029 388.177915,50.7211559 388.218069,50.7040088 L388.298378,51.0220088 C388.231969,51.0453912 388.157838,51.0656559 388.079073,51.0859206 C388.000309,51.1030676 387.921544,51.1124206 387.844324,51.1124206 C387.71305,51.1124206 387.603398,51.0921559 387.513822,51.0516265 C387.424247,51.0110971 387.353205,50.9549794 387.297606,50.8832735 C387.240463,50.8131265 387.201853,50.7258324 387.177143,50.6245088 C387.153977,50.5216265 387.143166,50.4093912 387.143166,50.2878029 L387.143166,48.9160382 Z" id="Fill-79" fill="#1A3667" mask="url(#mask-2)"></path>
                <path d="M388.779923,51.0517824 L389.193822,51.0517824 L389.193822,48.5732529 L388.779923,48.5732529 L388.779923,51.0517824 Z M388.989961,48.0635176 C388.911197,48.0635176 388.841699,48.0385765 388.787645,47.9871353 C388.730502,47.9372529 388.702703,47.8717824 388.702703,47.7938412 C388.702703,47.7112235 388.730502,47.6457529 388.787645,47.5974294 C388.841699,47.5491059 388.911197,47.5226059 388.989961,47.5226059 C389.071815,47.5226059 389.139768,47.5491059 389.195367,47.5974294 C389.250965,47.6457529 389.278764,47.7112235 389.278764,47.7938412 C389.278764,47.8717824 389.250965,47.9372529 389.195367,47.9871353 C389.139768,48.0385765 389.071815,48.0635176 388.989961,48.0635176 Z" id="Fill-80" fill="#1A3667" mask="url(#mask-2)"></path>
                <path d="M390.269653,49.8187529 C390.269653,49.9606059 390.286641,50.0899882 390.319073,50.2053412 C390.354595,50.3206941 390.400927,50.4204588 390.464247,50.5030765 C390.526023,50.5872529 390.601699,50.6511647 390.688185,50.6963706 C390.776216,50.7431353 390.871969,50.7649588 390.976988,50.7649588 C391.080463,50.7649588 391.176216,50.7431353 391.265792,50.6963706 C391.352278,50.6511647 391.426409,50.5872529 391.48973,50.5030765 C391.551506,50.4204588 391.599382,50.3206941 391.633359,50.2053412 C391.665792,50.0899882 391.68278,49.9606059 391.68278,49.8187529 C391.68278,49.6753412 391.665792,49.5444 391.633359,49.4274882 C391.599382,49.3105765 391.551506,49.2092529 391.48973,49.1250765 C391.426409,49.0393412 391.352278,48.9738706 391.265792,48.9286647 C391.176216,48.8819 391.080463,48.8600765 390.976988,48.8600765 C390.871969,48.8600765 390.776216,48.8819 390.688185,48.9286647 C390.601699,48.9738706 390.526023,49.0393412 390.464247,49.1250765 C390.400927,49.2092529 390.354595,49.3105765 390.319073,49.4274882 C390.286641,49.5444 390.269653,49.6753412 390.269653,49.8187529 M389.840309,49.8187529 C389.840309,49.6098706 389.871197,49.4259294 389.932973,49.2653706 C389.994749,49.1032529 390.079691,48.9660765 390.183166,48.8554 C390.288185,48.7431647 390.408649,48.6574294 390.544556,48.5997529 C390.682008,48.5420765 390.824093,48.5124588 390.976988,48.5124588 C391.12834,48.5124588 391.271969,48.5420765 391.407876,48.5997529 C391.543784,48.6574294 391.664247,48.7431647 391.769266,48.8554 C391.874286,48.9660765 391.957683,49.1032529 392.019459,49.2653706 C392.081236,49.4259294 392.112124,49.6098706 392.112124,49.8187529 C392.112124,50.0214 392.081236,50.2053412 392.019459,50.3674588 C391.957683,50.5280176 391.874286,50.6636353 391.769266,50.7727529 C391.664247,50.8849882 391.543784,50.9676059 391.407876,51.0252824 C391.271969,51.0845176 391.12834,51.1125765 390.976988,51.1125765 C390.824093,51.1125765 390.682008,51.0845176 390.544556,51.0252824 C390.408649,50.9676059 390.288185,50.8849882 390.183166,50.7727529 C390.079691,50.6636353 389.994749,50.5280176 389.932973,50.3674588 C389.871197,50.2053412 389.840309,50.0214 389.840309,49.8187529" id="Fill-81" fill="#1A3667" mask="url(#mask-2)"></path>
                <path d="M392.759691,48.5734088 L393.102548,48.5734088 L393.138069,48.9303794 L393.153514,48.9303794 C393.270888,48.8119088 393.39444,48.7121441 393.52417,48.6326441 C393.6539,48.5515853 393.805251,48.5126147 393.97668,48.5126147 C394.236139,48.5126147 394.424556,48.5952324 394.545019,48.75735 C394.663938,48.9210265 394.722625,49.1626441 394.722625,49.4806441 L394.722625,51.0519382 L394.31027,51.0519382 L394.31027,49.5367618 C394.31027,49.3029382 394.27166,49.1330265 394.199073,49.0301441 C394.124942,48.9272618 394.007568,48.8742618 393.845405,48.8742618 C393.71722,48.8742618 393.604479,48.9069971 393.505637,48.9724676 C393.409884,49.0363794 393.298687,49.1314676 393.173591,49.2561735 L393.173591,51.0519382 L392.759691,51.0519382 L392.759691,48.5734088 Z" id="Fill-82" fill="#1A3667" mask="url(#mask-2)"></path>
                <polygon id="Fill-83" fill="#CA2026" mask="url(#mask-2)" points="362.087259 31.9728735 361.758301 31.9728735 361.758301 31.6081088 361.758301 26.4078735 358.755985 26.4078735 358.755985 35.2916088 397.117375 35.2916088 397.097297 31.9728735"></polygon>
                <path d="M363.414517,8.34235588 L367.040772,8.34235588 L367.026873,8.03994412 L363.375907,8.03994412 C363.391351,8.14906176 363.405251,8.25350294 363.414517,8.34235588" id="Fill-84" fill="#1A3667" mask="url(#mask-2)"></path>
                <path d="M358.781313,14.1240324 L360.721081,14.6462382 C362.634595,15.1653265 363.993668,15.5986794 363.993668,17.2167382 C363.993668,19.4146794 362.004479,19.9057088 360.216062,19.9057088 C356.91722,19.9057088 356.413745,17.7093265 356.389035,16.5542382 L352.761236,16.5542382 C352.761236,19.1262971 353.896371,23.4910029 360.49251,23.4910029 C362.07861,23.4910029 367.621467,22.9407382 367.621467,16.6960912 C367.621467,12.9689441 365.354286,11.8122971 362.884788,11.1201794 L358.47861,9.87467941 C357.780541,9.68917941 356.750425,9.36494412 356.595985,8.03994412 L353.037683,8.03994412 C353.04695,12.5932676 355.860849,13.3446206 358.781313,14.1240324" id="Fill-85" fill="#1A3667" mask="url(#mask-2)"></path>
                <path d="M380.769421,10.3092794 L376.16556,10.3092794 L376.16556,8.03963235 L372.398764,8.03963235 L372.398764,22.9419853 L380.350888,22.9419853 C384.194903,22.9419853 385.215753,22.2171324 386.287568,21.0636029 C387.282162,19.99425 387.910734,18.4323088 387.910734,16.7846324 C387.910734,14.7316618 387.306873,12.7083088 385.007259,11.7543088 C385.739305,11.3505735 387.096834,10.5664853 387.272896,8.03963235 L383.538533,8.03963235 C383.513822,9.65457353 382.296834,10.3092794 380.769421,10.3092794 M380.977915,19.3566912 L376.16556,19.3566912 L376.16556,13.8057206 L381.160154,13.8057206 C382.573282,13.8057206 383.986409,14.5025147 383.986409,16.3201029 C383.986409,18.4323088 382.88834,19.3566912 380.977915,19.3566912" id="Fill-86" fill="#1A3667" mask="url(#mask-2)"></path>
                <polygon id="Fill-87" fill="#1A3667" mask="url(#mask-2)" points="395.460849 8.03947647 391.179768 22.9480647 394.945019 22.9480647 398.600618 9.31303529 398.631506 9.42215294 398.631506 8.03947647"></polygon>
                <polygon id="Fill-88" fill="#1A3667" mask="url(#mask-2)" points="397.116911 22.9990382 397.116911 35.2919206 398.630425 33.5974794 398.630425 22.9990382"></polygon>
            </g>
        </g>
    </g>
</svg>