<?xml version="1.0" encoding="UTF-8"?>
<svg width="399px" height="71px" viewBox="0 0 399 71" version="1.1" xmlns="http://www.w3.org/2000/svg" xmlns:xlink="http://www.w3.org/1999/xlink">
    <!-- Generator: Sketch 49 (51002) - http://www.bohemiancoding.com/sketch -->
    <title>Page 1</title>
    <desc>Created with Sketch.</desc>
    <defs>
        <polygon id="path-1" points="0 70.2203891 398.908108 70.2203891 398.908108 -0.000154347826 0 -0.000154347826"></polygon>
    </defs>
    <g id="Page-1" stroke="none" stroke-width="1" fill="none" fill-rule="evenodd">
        <g id="Tablet" transform="translate(-249.000000, -3155.000000)">
            <g id="Page-1" transform="translate(249.000000, 3155.000000)">
                <path d="M67.4614672,31.559037 L68.5132046,31.559037 L68.5132046,36.4595804 C68.5132046,36.9581239 68.5626255,37.3764065 68.664556,37.7128848 C68.7664865,38.0509065 68.9039382,38.3210152 69.0769112,38.5247543 C69.2498842,38.72695 69.4552896,38.872037 69.691583,38.9600152 C69.9278764,39.049537 70.1811583,39.0942978 70.4514286,39.0942978 C70.7309653,39.0942978 70.9873359,39.049537 71.2251737,38.9600152 C71.4599228,38.872037 71.668417,38.72695 71.8444788,38.5247543 C72.0220849,38.3210152 72.1610811,38.0509065 72.2630116,37.7128848 C72.3649421,37.3764065 72.4159073,36.9581239 72.4159073,36.4595804 L72.4159073,31.559037 L73.4290347,31.559037 L73.4290347,36.4333413 C73.4290347,37.1016674 73.3518147,37.66195 73.2004633,38.1188196 C73.049112,38.5741457 72.8390734,38.943037 72.5734363,39.227037 C72.3077992,39.50795 71.9927413,39.7116891 71.6298069,39.8336239 C71.2668726,39.9555587 70.8730502,40.0172978 70.4514286,40.0172978 C70.0298069,40.0172978 69.6344402,39.9555587 69.2668726,39.8336239 C68.899305,39.7116891 68.5827027,39.50795 68.3170656,39.227037 C68.0498842,38.943037 67.84139,38.5741457 67.6884942,38.1188196 C67.5371429,37.66195 67.4614672,37.1016674 67.4614672,36.4333413 L67.4614672,31.559037 Z" id="Fill-1" fill="#1A3667"></path>
                <path d="M75.1646332,39.2327478 C75.1646332,38.9888783 75.2387645,38.791313 75.387027,38.6431391 C75.5337452,38.4949652 75.7128958,38.4224217 75.9244788,38.4224217 C76.1283398,38.4224217 76.3028571,38.4949652 76.4511197,38.6431391 C76.5978378,38.791313 76.6719691,38.9888783 76.6719691,39.2327478 C76.6719691,39.4596391 76.5978378,39.649487 76.4511197,39.7961174 C76.3028571,39.9442913 76.1283398,40.0183783 75.9244788,40.0183783 C75.7128958,40.0183783 75.5337452,39.9442913 75.387027,39.7961174 C75.2387645,39.649487 75.1646332,39.4596391 75.1646332,39.2327478" id="Fill-3" fill="#1A3667"></path>
                <path d="M78.6613127,38.055537 C78.9562934,38.3673196 79.3053282,38.6189065 79.7068726,38.8087543 C80.108417,38.9986022 80.523861,39.0942978 80.954749,39.0942978 C81.5030116,39.0942978 81.9308108,38.9692761 82.2335135,38.7207761 C82.5377606,38.4722761 82.6906564,38.1435152 82.6906564,37.7391239 C82.6906564,37.5276674 82.6535907,37.3486239 82.5825483,37.20045 C82.5115058,37.0538196 82.4142085,36.9272543 82.2906564,36.8207543 C82.1686486,36.7157978 82.0234749,36.6201022 81.8535907,36.5367543 C81.685251,36.451863 81.5030116,36.3623413 81.308417,36.2697326 L80.1176834,35.7511239 C79.9230888,35.6662326 79.7254054,35.5659065 79.5230888,35.4470587 C79.3192278,35.3282109 79.1385328,35.1862109 78.9779151,35.0148848 C78.8172973,34.8481891 78.6860232,34.647537 78.5856371,34.4144717 C78.4837066,34.1814065 78.4327413,33.9143848 78.4327413,33.6103196 C78.4327413,33.298537 78.4991506,33.0068196 78.6288803,32.7367109 C78.7601544,32.4666022 78.9423938,32.233537 79.1740541,32.0344283 C79.4057143,31.836863 79.6806178,31.6809717 79.9972201,31.5713848 C80.3138224,31.4633413 80.6628571,31.4062326 81.0427799,31.4062326 C81.5416216,31.4062326 82.0018533,31.5019283 82.4250193,31.6917761 C82.8466409,31.8816239 83.2049421,32.1285804 83.5014672,32.4326457 L82.931583,33.1164065 C82.6783012,32.872537 82.3956757,32.6811457 82.0883398,32.5406891 C81.7810039,32.4017761 81.4319691,32.3323196 81.0427799,32.3323196 C80.5779151,32.3323196 80.2057143,32.4388196 79.9215444,32.6549065 C79.6389189,32.8709935 79.4983784,33.1673413 79.4983784,33.547037 C79.4983784,33.7492326 79.5369884,33.9205587 79.6172973,34.0594717 C79.6976062,34.1999283 79.8057143,34.321863 79.9416216,34.4268196 C80.0759846,34.5333196 80.2242471,34.6259283 80.3848649,34.7061891 C80.5439382,34.78645 80.7091892,34.860537 80.8790734,34.92845 L82.0574517,35.4347109 C82.2937452,35.535037 82.5176834,35.6507978 82.727722,35.7819935 C82.939305,35.9131891 83.1215444,36.06445 83.2728958,36.2373196 C83.4242471,36.4117326 83.5462548,36.6123848 83.6342857,36.84545 C83.7223166,37.0785152 83.7671042,37.345537 83.7671042,37.6496022 C83.7671042,37.978363 83.7022394,38.2870587 83.5709653,38.5741457 C83.4396911,38.8612326 83.2512741,39.1128196 83.0072587,39.327363 C82.7616988,39.54345 82.4667181,39.7116891 82.1207722,39.8336239 C81.7732819,39.9555587 81.3810039,40.0172978 80.9423938,40.0172978 C80.35861,40.0172978 79.8180695,39.9077109 79.3192278,39.688537 C78.8219305,39.469363 78.3910425,39.1699283 78.0281081,38.7902326 L78.6613127,38.055537 Z" id="Fill-5" fill="#1A3667"></path>
                <path d="M85.0847876,39.2327478 C85.0847876,38.9888783 85.1589189,38.791313 85.3071815,38.6431391 C85.4538996,38.4949652 85.6330502,38.4224217 85.8446332,38.4224217 C86.0484942,38.4224217 86.2230116,38.4949652 86.3712741,38.6431391 C86.5179923,38.791313 86.5921236,38.9888783 86.5921236,39.2327478 C86.5921236,39.4596391 86.5179923,39.649487 86.3712741,39.7961174 C86.2230116,39.9442913 86.0484942,40.0183783 85.8446332,40.0183783 C85.6330502,40.0183783 85.4538996,39.9442913 85.3071815,39.7961174 C85.1589189,39.649487 85.0847876,39.4596391 85.0847876,39.2327478" id="Fill-7" fill="#1A3667"></path>
                <path d="M91.1417761,38.055537 C91.4367568,38.3673196 91.7857915,38.6189065 92.1873359,38.8087543 C92.5888803,38.9986022 93.0043243,39.0942978 93.4352124,39.0942978 C93.9834749,39.0942978 94.4112741,38.9692761 94.7139768,38.7207761 C95.0182239,38.4722761 95.1711197,38.1435152 95.1711197,37.7391239 C95.1711197,37.5276674 95.1340541,37.3486239 95.0630116,37.20045 C94.9919691,37.0538196 94.8946718,36.9272543 94.7711197,36.8207543 C94.649112,36.7157978 94.5039382,36.6201022 94.3340541,36.5367543 C94.1657143,36.451863 93.9834749,36.3623413 93.7888803,36.2697326 L92.5981467,35.7511239 C92.4035521,35.6662326 92.2058687,35.5659065 92.0035521,35.4470587 C91.7996911,35.3282109 91.6189961,35.1862109 91.4583784,35.0148848 C91.2977606,34.8481891 91.1664865,34.647537 91.0661004,34.4144717 C90.9641699,34.1814065 90.9132046,33.9143848 90.9132046,33.6103196 C90.9132046,33.298537 90.9796139,33.0068196 91.1093436,32.7367109 C91.2406178,32.4666022 91.4228571,32.233537 91.6545174,32.0344283 C91.8861776,31.836863 92.1610811,31.6809717 92.4776834,31.5713848 C92.7942857,31.4633413 93.1433205,31.4062326 93.5232432,31.4062326 C94.0220849,31.4062326 94.4823166,31.5019283 94.9054826,31.6917761 C95.3271042,31.8816239 95.6854054,32.1285804 95.9819305,32.4326457 L95.4120463,33.1164065 C95.1587645,32.872537 94.876139,32.6811457 94.5688031,32.5406891 C94.2614672,32.4017761 93.9124324,32.3323196 93.5232432,32.3323196 C93.0583784,32.3323196 92.6861776,32.4388196 92.4020077,32.6549065 C92.1193822,32.8709935 91.9788417,33.1673413 91.9788417,33.547037 C91.9788417,33.7492326 92.0174517,33.9205587 92.0977606,34.0594717 C92.1780695,34.1999283 92.2861776,34.321863 92.4220849,34.4268196 C92.5564479,34.5333196 92.7047104,34.6259283 92.8653282,34.7061891 C93.0244015,34.78645 93.1896525,34.860537 93.3595367,34.92845 L94.5379151,35.4347109 C94.7742085,35.535037 94.9981467,35.6507978 95.2081853,35.7819935 C95.4197683,35.9131891 95.6020077,36.06445 95.7533591,36.2373196 C95.9047104,36.4117326 96.0267181,36.6123848 96.114749,36.84545 C96.2027799,37.0785152 96.2475676,37.345537 96.2475676,37.6496022 C96.2475676,37.978363 96.1827027,38.2870587 96.0514286,38.5741457 C95.9201544,38.8612326 95.7317375,39.1128196 95.487722,39.327363 C95.2421622,39.54345 94.9471815,39.7116891 94.6012355,39.8336239 C94.2537452,39.9555587 93.8614672,40.0172978 93.4228571,40.0172978 C92.8390734,40.0172978 92.2985328,39.9077109 91.7996911,39.688537 C91.3023938,39.469363 90.8715058,39.1699283 90.5085714,38.7902326 L91.1417761,38.055537 Z" id="Fill-9" fill="#1A3667"></path>
                <path d="M97.7808494,33.7114174 L98.6426255,33.7114174 L98.7306564,34.5973739 L98.7692664,34.5973739 C99.0395367,34.3025696 99.332973,34.055613 99.6495753,33.8580478 C99.9661776,33.6589391 100.309035,33.558613 100.681236,33.558613 C101.153822,33.558613 101.524479,33.6635696 101.790116,33.8703957 C102.055753,34.0772217 102.251892,34.3658522 102.378533,34.7378304 C102.701313,34.3828304 103.024093,34.097287 103.349961,33.8827435 C103.67583,33.6682 104.024865,33.558613 104.406332,33.558613 C105.042625,33.558613 105.512124,33.7623522 105.821004,34.168287 C106.12834,34.5726783 106.281236,35.1715478 106.281236,35.9664391 L106.281236,39.8652652 L105.244942,39.8652652 L105.244942,36.1053522 C105.244942,35.5234609 105.150734,35.1020913 104.963861,34.8443304 C104.780077,34.5865696 104.48973,34.4584609 104.103629,34.4584609 C103.638764,34.4584609 103.122934,34.7748739 102.556139,35.4092435 L102.556139,39.8652652 L101.518301,39.8652652 L101.518301,36.1053522 C101.518301,35.5234609 101.425637,35.1020913 101.240309,34.8443304 C101.054981,34.5865696 100.761544,34.4584609 100.364633,34.4584609 C99.9013127,34.4584609 99.3854826,34.7748739 98.8186873,35.4092435 L98.8186873,39.8652652 L97.7808494,39.8652652 L97.7808494,33.7114174 Z" id="Fill-11" fill="#1A3667"></path>
                <path d="M109.007259,38.1941413 C109.007259,38.5475978 109.109189,38.8022717 109.317683,38.9535326 C109.524633,39.106337 109.779459,39.1819674 110.083707,39.1819674 C110.380232,39.1819674 110.659768,39.1125109 110.925405,38.9735978 C111.192587,38.8331413 111.473668,38.6294022 111.768649,38.35775 L111.768649,36.6491196 C111.252819,36.7170326 110.818842,36.7972935 110.463629,36.8899022 C110.109961,36.9840543 109.824247,37.0920978 109.609575,37.218663 C109.393359,37.3452283 109.238919,37.4918587 109.146255,37.6554674 C109.052046,37.8206196 109.007259,37.999663 109.007259,38.1941413 M107.980232,38.2713152 C107.980232,37.5952717 108.28139,37.0782065 108.886795,36.7185761 C109.489112,36.3604891 110.451274,36.1089022 111.768649,35.9669022 C111.768649,35.7724239 111.748571,35.5825761 111.711506,35.3973587 C111.67444,35.2090543 111.606486,35.0454457 111.509189,34.9019022 C111.411892,34.7583587 111.283707,34.6425978 111.123089,34.5546196 C110.962471,34.4650978 110.755521,34.4218804 110.502239,34.4218804 C110.137761,34.4218804 109.80417,34.4897935 109.493745,34.6240761 C109.186409,34.7583587 108.909961,34.911163 108.664402,35.0778587 L108.247413,34.3585978 C108.533127,34.1733804 108.883707,33.99125 109.297606,33.8199239 C109.711506,33.6470543 110.168649,33.5590761 110.665946,33.5590761 C111.419614,33.5590761 111.963243,33.7890543 112.301467,34.2490109 C112.639691,34.7105109 112.808031,35.3248152 112.808031,36.0934674 L112.808031,39.8657283 L111.946255,39.8657283 L111.858224,39.1310326 L111.831969,39.1310326 C111.536988,39.3764457 111.218842,39.5848152 110.875985,39.7592283 C110.533127,39.9305543 110.173282,40.0185326 109.793359,40.0185326 C109.268263,40.0185326 108.83583,39.8657283 108.492973,39.561663 C108.15166,39.2575978 107.980232,38.8269674 107.980232,38.2713152" id="Fill-13" fill="#1A3667"></path>
                <path d="M114.771583,30.8505804 L115.810965,30.8505804 L115.810965,38.7007109 C115.810965,38.86895 115.838764,38.9877978 115.898996,39.0541674 C115.959228,39.1220804 116.025637,39.1575804 116.101313,39.1575804 L116.197066,39.1575804 C116.226409,39.1575804 116.271197,39.1483196 116.329884,39.1313413 L116.470425,39.9169717 C116.402471,39.9509283 116.322162,39.9756239 116.227954,39.9926022 C116.13529,40.0095804 116.017915,40.0172978 115.874286,40.0172978 C115.47583,40.0172978 115.193205,39.89845 115.024865,39.6638413 C114.856525,39.4276891 114.771583,39.0804065 114.771583,38.6250804 L114.771583,30.8505804 Z" id="Fill-15" fill="#1A3667"></path>
                <path d="M118.002162,30.8505804 L119.041544,30.8505804 L119.041544,38.7007109 C119.041544,38.86895 119.069344,38.9877978 119.129575,39.0541674 C119.189807,39.1220804 119.256216,39.1575804 119.331892,39.1575804 L119.427645,39.1575804 C119.456988,39.1575804 119.501776,39.1483196 119.560463,39.1313413 L119.701004,39.9169717 C119.63305,39.9509283 119.552741,39.9756239 119.458533,39.9926022 C119.365869,40.0095804 119.248494,40.0172978 119.104865,40.0172978 C118.706409,40.0172978 118.423784,39.89845 118.255444,39.6638413 C118.087104,39.4276891 118.002162,39.0804065 118.002162,38.6250804 L118.002162,30.8505804 Z" id="Fill-17" fill="#1A3667"></path>
                <path d="M126.389189,39.0307065 C127.107336,39.0307065 127.664865,38.8964239 128.061776,38.6309457 C128.458687,38.3654674 128.657915,37.9502717 128.657915,37.3838152 C128.657915,36.869837 128.46332,36.4901413 128.074131,36.2509022 C127.686486,36.0101196 127.124324,35.8897283 126.389189,35.8897283 L124.943629,35.8897283 L124.943629,39.0307065 L126.389189,39.0307065 Z M126.172973,35.1040978 C126.89112,35.1040978 127.403861,34.982163 127.712741,34.7382935 C128.021622,34.4928804 128.176062,34.1378804 128.176062,33.6732935 C128.176062,33.2179674 128.0139,32.89075 127.688031,32.6931848 C127.362162,32.4940761 126.874131,32.3952935 126.225483,32.3952935 L124.943629,32.3952935 L124.943629,35.1040978 L126.172973,35.1040978 Z M123.893436,31.5587283 L126.362934,31.5587283 C126.7861,31.5587283 127.172201,31.5973152 127.52278,31.6729457 C127.873359,31.7485761 128.172973,31.8674239 128.421622,32.0279457 C128.671815,32.1869239 128.866409,32.396837 129.005405,32.6545978 C129.144402,32.9123587 129.2139,33.2210543 129.2139,33.5853152 C129.2139,33.9989674 129.096525,34.3709457 128.860232,34.7058804 C128.622394,35.0392717 128.259459,35.26925 127.771429,35.3973587 L127.771429,35.44675 C128.378378,35.5393587 128.85251,35.7508152 129.189189,36.0795761 C129.527413,36.4098804 129.697297,36.8605761 129.697297,37.43475 C129.697297,37.8406848 129.620077,38.1941413 129.467181,38.4982065 C129.317375,38.8022717 129.101158,39.0554022 128.821622,39.2575978 C128.543629,39.4597935 128.210039,39.6125978 127.820849,39.7129239 C127.433205,39.8147935 127.005405,39.8657283 126.542085,39.8657283 L123.893436,39.8657283 L123.893436,31.5587283 Z" id="Fill-19" fill="#1A3667"></path>
                <path d="M131.152124,33.7114174 L132.203861,33.7114174 L132.203861,37.4728739 C132.203861,38.0547652 132.293436,38.4745913 132.475676,38.7323522 C132.657915,38.990113 132.951351,39.1182217 133.357529,39.1182217 C133.678764,39.1182217 133.959846,39.0364174 134.20695,38.8728087 C134.450965,38.706113 134.721236,38.4421783 135.016216,38.0794609 L135.016216,33.7114174 L136.055598,33.7114174 L136.055598,39.8652652 L135.193822,39.8652652 L135.105792,38.9036783 L135.067181,38.9036783 C134.779923,39.2417 134.47722,39.5118087 134.160618,39.7140043 C133.844015,39.9177435 133.47027,40.0180696 133.040927,40.0180696 C132.381467,40.0180696 131.901158,39.8143304 131.601544,39.4099391 C131.301931,39.0055478 131.152124,38.4051348 131.152124,37.611787 L131.152124,33.7114174 Z" id="Fill-21" fill="#1A3667"></path>
                <path d="M137.969266,38.4730478 C138.239537,38.6937652 138.515985,38.8697217 138.79861,39.0055478 C139.081236,39.1398304 139.408649,39.2077435 139.780849,39.2077435 C140.187027,39.2077435 140.48973,39.1151348 140.693591,38.9283739 C140.895907,38.7431565 140.996293,38.5147217 140.996293,38.2461565 C140.996293,38.0840913 140.954595,37.9451783 140.869653,37.8263304 C140.78471,37.7090261 140.678147,37.605613 140.546873,37.5176348 C140.415598,37.428113 140.265792,37.3493957 140.097452,37.2830261 C139.929112,37.215113 139.759228,37.1487435 139.590888,37.0808304 C139.370039,37.0036565 139.152278,36.9172217 138.931429,36.8215261 C138.710579,36.7227435 138.515985,36.6054391 138.341467,36.4649826 C138.170039,36.3260696 138.027954,36.1640043 137.918301,35.978787 C137.808649,35.7935696 137.75305,35.5682217 137.75305,35.3073739 C137.75305,35.0619609 137.802471,34.8335261 137.898224,34.6174391 C137.997066,34.4013522 138.134517,34.2161348 138.318301,34.0602435 C138.498996,33.9043522 138.719846,33.7808739 138.982394,33.6928957 C139.243398,33.6049174 139.539923,33.558613 139.86888,33.558613 C140.256525,33.558613 140.614826,33.6265261 140.940695,33.7623522 C141.265019,33.8966348 141.544556,34.0633304 141.782394,34.2562652 L141.288185,34.913787 C141.078147,34.7548087 140.857297,34.623613 140.63027,34.5217435 C140.401699,34.4214174 140.151506,34.3704826 139.881236,34.3704826 C139.493591,34.3704826 139.207876,34.4584609 139.027181,34.6359609 C138.844942,34.8134609 138.755367,35.020287 138.755367,35.2564391 C138.755367,35.3999826 138.792432,35.5250043 138.868108,35.6299609 C138.945328,35.7364609 139.045714,35.8290696 139.172355,35.9093304 C139.298996,35.9895913 139.44417,36.0621348 139.609421,36.1254174 C139.774672,36.1887 139.944556,36.2535261 140.123707,36.3198957 C140.341467,36.404787 140.563861,36.4943087 140.787799,36.5853739 C141.011737,36.6795261 141.21251,36.795287 141.390116,36.9342 C141.566178,37.0746565 141.712896,37.2444391 141.827181,37.4466348 C141.939923,37.6503739 141.997066,37.8942435 141.997066,38.1828739 C141.997066,38.4360043 141.949189,38.6721565 141.851892,38.8913304 C141.754595,39.1105043 141.610965,39.3049826 141.421004,39.4732217 C141.231042,39.6430043 140.994749,39.7757435 140.710579,39.8714391 C140.429498,39.9702217 140.106718,40.0180696 139.742239,40.0180696 C139.302085,40.0180696 138.885097,39.9378087 138.488185,39.777287 C138.091274,39.6167652 137.743784,39.4130261 137.448803,39.1691565 L137.969266,38.4730478 Z" id="Fill-23" fill="#1A3667"></path>
                <mask id="mask-2" fill="white">
                    <use xlink:href="#path-1"></use>
                </mask>
                <g id="Clip-26"></g>
                <path d="M143.442471,39.8648022 L144.481853,39.8648022 L144.481853,33.7109543 L143.442471,33.7109543 L143.442471,39.8648022 Z M143.97529,32.4453022 C143.771429,32.4453022 143.601544,32.3820196 143.461004,32.2554543 C143.322008,32.1288891 143.25251,31.9683674 143.25251,31.7738891 C143.25251,31.5716935 143.322008,31.4096283 143.461004,31.28615 C143.601544,31.1642152 143.771429,31.1040196 143.97529,31.1040196 C144.177606,31.1040196 144.349035,31.1642152 144.488031,31.28615 C144.627027,31.4096283 144.698069,31.5716935 144.698069,31.7738891 C144.698069,31.9683674 144.627027,32.1288891 144.488031,32.2554543 C144.349035,32.3820196 144.177606,32.4453022 143.97529,32.4453022 Z" id="Fill-25" fill="#1A3667" mask="url(#mask-2)"></path>
                <path d="M146.56,33.7114174 L147.421776,33.7114174 L147.509807,34.5973739 L147.548417,34.5973739 C147.843398,34.3025696 148.153822,34.055613 148.479691,33.8580478 C148.804015,33.6589391 149.182394,33.558613 149.613282,33.558613 C150.263475,33.558613 150.739151,33.7623522 151.038764,34.168287 C151.338378,34.5726783 151.488185,35.1715478 151.488185,35.9664391 L151.488185,39.8652652 L150.450347,39.8652652 L150.450347,36.1053522 C150.450347,35.5234609 150.356139,35.1020913 150.170811,34.8443304 C149.985483,34.5865696 149.688958,34.4584609 149.284324,34.4584609 C148.963089,34.4584609 148.680463,34.5387217 148.434903,34.6992435 C148.190888,34.8597652 147.911351,35.0959174 147.599382,35.4092435 L147.599382,39.8652652 L146.56,39.8652652 L146.56,33.7114174 Z" id="Fill-27" fill="#1A3667" mask="url(#mask-2)"></path>
                <path d="M157.342085,36.3327065 C157.342085,35.6998804 157.207722,35.2167717 156.942085,34.8833804 C156.676448,34.5499891 156.302703,34.38175 155.822394,34.38175 C155.601544,34.38175 155.391506,34.4280543 155.193822,34.5160326 C154.994595,34.6040109 154.815444,34.7305761 154.656371,34.8957283 C154.494208,35.0608804 154.36139,35.2630761 154.256371,35.5038587 C154.151351,35.7446413 154.081853,36.0209239 154.046332,36.3327065 L157.342085,36.3327065 Z M153.033205,36.8019239 C153.033205,36.295663 153.111969,35.8418804 153.267954,35.4405761 C153.423938,35.0392717 153.632432,34.698163 153.888803,34.4218804 C154.146718,34.1425109 154.440154,33.9279674 154.769112,33.781337 C155.099614,33.633163 155.442471,33.5590761 155.796139,33.5590761 C156.183784,33.5590761 156.532819,33.6269891 156.841699,33.7628152 C157.149035,33.8970978 157.40695,34.0915761 157.6139,34.3447065 C157.820849,34.597837 157.979923,34.9019022 158.088031,35.2569022 C158.199228,35.6103587 158.254826,36.0085761 158.254826,36.4469239 C158.254826,36.6753587 158.240927,36.8652065 158.214672,37.0164674 L154.060232,37.0164674 C154.101931,37.68325 154.307336,38.2111196 154.673359,38.6000761 C155.042471,38.9890326 155.521236,39.1819674 156.112741,39.1819674 C156.409266,39.1819674 156.679537,39.1372065 156.92973,39.0492283 C157.179923,38.9597065 157.417761,38.8439457 157.644788,38.7004022 L158.0139,39.3857065 C157.743629,39.5539457 157.442471,39.7021196 157.113514,39.8286848 C156.784556,39.95525 156.409266,40.0185326 155.9861,40.0185326 C155.572201,40.0185326 155.1861,39.9444457 154.826255,39.7962717 C154.467954,39.6480978 154.155985,39.4381848 153.888803,39.1634457 C153.623166,38.8887065 153.413127,38.5522283 153.261776,38.1570978 C153.110425,37.7604239 153.033205,37.3081848 153.033205,36.8019239 Z" id="Fill-28" fill="#1A3667" mask="url(#mask-2)"></path>
                <path d="M159.610502,38.4730478 C159.880772,38.6937652 160.15722,38.8697217 160.439846,39.0055478 C160.722471,39.1398304 161.049884,39.2077435 161.422085,39.2077435 C161.828263,39.2077435 162.130965,39.1151348 162.334826,38.9283739 C162.537143,38.7431565 162.637529,38.5147217 162.637529,38.2461565 C162.637529,38.0840913 162.59583,37.9451783 162.510888,37.8263304 C162.425946,37.7090261 162.319382,37.605613 162.188108,37.5176348 C162.056834,37.428113 161.907027,37.3493957 161.738687,37.2830261 C161.570347,37.215113 161.400463,37.1487435 161.232124,37.0808304 C161.011274,37.0036565 160.793514,36.9172217 160.572664,36.8215261 C160.351815,36.7227435 160.15722,36.6054391 159.982703,36.4649826 C159.811274,36.3260696 159.669189,36.1640043 159.559537,35.978787 C159.449884,35.7935696 159.394286,35.5682217 159.394286,35.3073739 C159.394286,35.0619609 159.443707,34.8335261 159.539459,34.6174391 C159.638301,34.4013522 159.775753,34.2161348 159.959537,34.0602435 C160.140232,33.9043522 160.361081,33.7808739 160.623629,33.6928957 C160.884633,33.6049174 161.181158,33.558613 161.510116,33.558613 C161.897761,33.558613 162.256062,33.6265261 162.581931,33.7623522 C162.906255,33.8966348 163.185792,34.0633304 163.423629,34.2562652 L162.929421,34.913787 C162.719382,34.7548087 162.498533,34.623613 162.271506,34.5217435 C162.042934,34.4214174 161.792741,34.3704826 161.522471,34.3704826 C161.134826,34.3704826 160.849112,34.4584609 160.668417,34.6359609 C160.486178,34.8134609 160.396602,35.020287 160.396602,35.2564391 C160.396602,35.3999826 160.433668,35.5250043 160.509344,35.6299609 C160.586564,35.7364609 160.68695,35.8290696 160.813591,35.9093304 C160.940232,35.9895913 161.085405,36.0621348 161.250656,36.1254174 C161.415907,36.1887 161.585792,36.2535261 161.764942,36.3198957 C161.982703,36.404787 162.205097,36.4943087 162.429035,36.5853739 C162.652973,36.6795261 162.853745,36.795287 163.031351,36.9342 C163.207413,37.0746565 163.354131,37.2444391 163.468417,37.4466348 C163.581158,37.6503739 163.638301,37.8942435 163.638301,38.1828739 C163.638301,38.4360043 163.590425,38.6721565 163.493127,38.8913304 C163.39583,39.1105043 163.252201,39.3049826 163.062239,39.4732217 C162.872278,39.6430043 162.635985,39.7757435 162.351815,39.8714391 C162.070734,39.9702217 161.747954,40.0180696 161.383475,40.0180696 C160.94332,40.0180696 160.526332,39.9378087 160.129421,39.777287 C159.73251,39.6167652 159.385019,39.4130261 159.090039,39.1691565 L159.610502,38.4730478 Z" id="Fill-29" fill="#1A3667" mask="url(#mask-2)"></path>
                <path d="M164.917838,38.4730478 C165.188108,38.6937652 165.464556,38.8697217 165.747181,39.0055478 C166.029807,39.1398304 166.35722,39.2077435 166.729421,39.2077435 C167.135598,39.2077435 167.438301,39.1151348 167.642162,38.9283739 C167.844479,38.7431565 167.944865,38.5147217 167.944865,38.2461565 C167.944865,38.0840913 167.903166,37.9451783 167.818224,37.8263304 C167.733282,37.7090261 167.626718,37.605613 167.495444,37.5176348 C167.36417,37.428113 167.214363,37.3493957 167.046023,37.2830261 C166.877683,37.215113 166.707799,37.1487435 166.539459,37.0808304 C166.31861,37.0036565 166.100849,36.9172217 165.88,36.8215261 C165.659151,36.7227435 165.464556,36.6054391 165.290039,36.4649826 C165.11861,36.3260696 164.976525,36.1640043 164.866873,35.978787 C164.75722,35.7935696 164.701622,35.5682217 164.701622,35.3073739 C164.701622,35.0619609 164.751042,34.8335261 164.846795,34.6174391 C164.945637,34.4013522 165.083089,34.2161348 165.266873,34.0602435 C165.447568,33.9043522 165.668417,33.7808739 165.930965,33.6928957 C166.191969,33.6049174 166.488494,33.558613 166.817452,33.558613 C167.205097,33.558613 167.563398,33.6265261 167.889266,33.7623522 C168.213591,33.8966348 168.493127,34.0633304 168.730965,34.2562652 L168.236757,34.913787 C168.026718,34.7548087 167.805869,34.623613 167.578842,34.5217435 C167.35027,34.4214174 167.100077,34.3704826 166.829807,34.3704826 C166.442162,34.3704826 166.156448,34.4584609 165.975753,34.6359609 C165.793514,34.8134609 165.703938,35.020287 165.703938,35.2564391 C165.703938,35.3999826 165.741004,35.5250043 165.81668,35.6299609 C165.8939,35.7364609 165.994286,35.8290696 166.120927,35.9093304 C166.247568,35.9895913 166.392741,36.0621348 166.557992,36.1254174 C166.723243,36.1887 166.893127,36.2535261 167.072278,36.3198957 C167.290039,36.404787 167.512432,36.4943087 167.736371,36.5853739 C167.960309,36.6795261 168.161081,36.795287 168.338687,36.9342 C168.514749,37.0746565 168.661467,37.2444391 168.775753,37.4466348 C168.888494,37.6503739 168.945637,37.8942435 168.945637,38.1828739 C168.945637,38.4360043 168.897761,38.6721565 168.800463,38.8913304 C168.703166,39.1105043 168.559537,39.3049826 168.369575,39.4732217 C168.179614,39.6430043 167.94332,39.7757435 167.659151,39.8714391 C167.378069,39.9702217 167.05529,40.0180696 166.690811,40.0180696 C166.250656,40.0180696 165.833668,39.9378087 165.436757,39.777287 C165.039846,39.6167652 164.692355,39.4130261 164.397375,39.1691565 L164.917838,38.4730478 Z" id="Fill-30" fill="#1A3667" mask="url(#mask-2)"></path>
                <path d="M71.0344402,51.6799739 L70.6421622,50.4143217 C70.4892664,49.9497348 70.3456371,49.4866913 70.2112741,49.0267348 C70.0753668,48.5667783 69.9410039,48.0975609 69.8050965,47.6144522 L69.7541313,47.6144522 C69.6274903,48.0975609 69.4962162,48.5667783 69.3618533,49.0267348 C69.2274903,49.4866913 69.0823166,49.9497348 68.9309653,50.4143217 L68.5386873,51.6799739 L71.0344402,51.6799739 Z M71.3000772,52.528887 L68.2715058,52.528887 L67.4745946,55.0601913 L66.3966023,55.0601913 L69.2089575,46.7547348 L70.4012355,46.7547348 L73.2135907,55.0601913 L72.0861776,55.0601913 L71.3000772,52.528887 Z" id="Fill-31" fill="#1A3667" mask="url(#mask-2)"></path>
                <path d="M74.9240154,51.9845022 C74.9240154,52.7253717 75.072278,53.3041761 75.3672587,53.7193717 C75.6637838,54.1330239 76.0807722,54.3383065 76.6213127,54.3383065 C76.9085714,54.3383065 77.1788417,54.26885 77.433668,54.1314804 C77.6869498,53.9910239 77.9402317,53.7780239 78.1935135,53.490937 L78.1935135,50.2743283 C77.9309653,50.0381761 77.6792278,49.8714804 77.4383012,49.7742413 C77.1989189,49.6770022 76.9502703,49.6291543 76.6969884,49.6291543 C76.452973,49.6291543 76.2228571,49.686263 76.0066409,49.798937 C75.7919691,49.9131543 75.6035521,50.0752196 75.4429344,50.2805022 C75.2823166,50.4873283 75.1556757,50.7342848 75.0630116,51.0213717 C74.9703475,51.3100022 74.9240154,51.6295022 74.9240154,51.9845022 M73.8475676,51.99685 C73.8475676,51.49985 73.9216988,51.0491543 74.068417,50.64785 C74.2166795,50.2465457 74.4128185,49.9069804 74.6583784,49.6291543 C74.9023938,49.3497848 75.1850193,49.1336978 75.5062548,48.9839804 C75.8274903,48.8311761 76.1657143,48.7540022 76.5209266,48.7540022 C76.8745946,48.7540022 77.1834749,48.8172848 77.4444788,48.94385 C77.707027,49.0704152 77.9726641,49.2448283 78.2429344,49.4640022 L78.1935135,48.414437 L78.1935135,46.0451978 L79.2437066,46.0451978 L79.2437066,55.0606543 L78.3834749,55.0606543 L78.2938996,54.3383065 L78.256834,54.3383065 C78.0112741,54.5760022 77.7301931,54.7812848 77.4135907,54.9541543 C77.0969884,55.1254804 76.7572201,55.2134587 76.3942857,55.2134587 C75.6159073,55.2134587 74.9981467,54.9340891 74.5379151,54.3768935 C74.0776834,53.8196978 73.8475676,53.02635 73.8475676,51.99685" id="Fill-32" fill="#1A3667" mask="url(#mask-2)"></path>
                <path d="M81.3226255,48.9064978 L82.1844015,48.9064978 L82.2724324,49.7924543 L82.3110425,49.7924543 C82.5813127,49.49765 82.874749,49.2506935 83.1913514,49.0531283 C83.5079537,48.8540196 83.8523552,48.7536935 84.2230116,48.7536935 C84.6971429,48.7536935 85.0662548,48.85865 85.3318919,49.0654761 C85.5990734,49.2723022 85.7952124,49.5609326 85.9218533,49.9329109 C86.2430888,49.5779109 86.5658687,49.2923674 86.8901931,49.0778239 C87.2160618,48.8632804 87.5681853,48.7536935 87.9496525,48.7536935 C88.5828571,48.7536935 89.0523552,48.9574326 89.3612355,49.3633674 C89.6701158,49.7677587 89.824556,50.3666283 89.824556,51.1615196 L89.824556,55.0603457 L88.7851737,55.0603457 L88.7851737,51.3004326 C88.7851737,50.7185413 88.6909653,50.2971717 88.5056371,50.0394109 C88.3203089,49.78165 88.0330502,49.6535413 87.6454054,49.6535413 C87.1805405,49.6535413 86.6647104,49.9699543 86.0994595,50.6043239 L86.0994595,55.0603457 L85.0600772,55.0603457 L85.0600772,51.3004326 C85.0600772,50.7185413 84.9674131,50.2971717 84.7820849,50.0394109 C84.5952124,49.78165 84.3048649,49.6535413 83.9064093,49.6535413 C83.4430888,49.6535413 82.9272587,49.9699543 82.3604633,50.6043239 L82.3604633,55.0603457 L81.3226255,55.0603457 L81.3226255,48.9064978 Z" id="Fill-33" fill="#1A3667" mask="url(#mask-2)"></path>
                <path d="M91.8254826,55.0603457 L92.8633205,55.0603457 L92.8633205,48.9064978 L91.8254826,48.9064978 L91.8254826,55.0603457 Z M92.3567568,47.6408457 C92.1559846,47.6408457 91.984556,47.577563 91.8440154,47.4509978 C91.7050193,47.3244326 91.6355212,47.1639109 91.6355212,46.9694326 C91.6355212,46.7656935 91.7050193,46.6051717 91.8440154,46.4816935 C91.984556,46.3597587 92.1559846,46.299563 92.3567568,46.299563 C92.5606178,46.299563 92.7320463,46.3597587 92.8710425,46.4816935 C93.0100386,46.6051717 93.0795367,46.7656935 93.0795367,46.9694326 C93.0795367,47.1639109 93.0100386,47.3244326 92.8710425,47.4509978 C92.7320463,47.577563 92.5606178,47.6408457 92.3567568,47.6408457 Z" id="Fill-34" fill="#1A3667" mask="url(#mask-2)"></path>
                <path d="M94.9423938,48.9064978 L95.8041699,48.9064978 L95.8922008,49.7924543 L95.9308108,49.7924543 C96.2257915,49.49765 96.5362162,49.2506935 96.8620849,49.0531283 C97.1864093,48.8540196 97.5647876,48.7536935 97.9956757,48.7536935 C98.6458687,48.7536935 99.1215444,48.9574326 99.4211583,49.3633674 C99.7207722,49.7677587 99.8705792,50.3666283 99.8705792,51.1615196 L99.8705792,55.0603457 L98.8327413,55.0603457 L98.8327413,51.3004326 C98.8327413,50.7185413 98.7385328,50.2971717 98.5532046,50.0394109 C98.3678764,49.78165 98.0713514,49.6535413 97.6667181,49.6535413 C97.3454826,49.6535413 97.0628571,49.7338022 96.8172973,49.8943239 C96.5717375,50.0548457 96.2937452,50.2909978 95.9802317,50.6043239 L95.9802317,55.0603457 L94.9423938,55.0603457 L94.9423938,48.9064978 Z" id="Fill-35" fill="#1A3667" mask="url(#mask-2)"></path>
                <path d="M101.873359,55.0603457 L102.912741,55.0603457 L102.912741,48.9064978 L101.873359,48.9064978 L101.873359,55.0603457 Z M102.406178,47.6408457 C102.202317,47.6408457 102.032432,47.577563 101.891892,47.4509978 C101.752896,47.3244326 101.683398,47.1639109 101.683398,46.9694326 C101.683398,46.7656935 101.752896,46.6051717 101.891892,46.4816935 C102.032432,46.3597587 102.202317,46.299563 102.406178,46.299563 C102.608494,46.299563 102.779923,46.3597587 102.918919,46.4816935 C103.057915,46.6051717 103.128958,46.7656935 103.128958,46.9694326 C103.128958,47.1639109 103.057915,47.3244326 102.918919,47.4509978 C102.779923,47.577563 102.608494,47.6408457 102.406178,47.6408457 Z" id="Fill-36" fill="#1A3667" mask="url(#mask-2)"></path>
                <path d="M104.824865,53.6681283 C105.095135,53.8888457 105.371583,54.0648022 105.654208,54.2006283 C105.936834,54.3349109 106.264247,54.4028239 106.636448,54.4028239 C107.042625,54.4028239 107.345328,54.3102152 107.549189,54.1234543 C107.751506,53.938237 107.851892,53.7098022 107.851892,53.441237 C107.851892,53.2791717 107.810193,53.1402587 107.725251,53.0214109 C107.640309,52.9041065 107.533745,52.8006935 107.402471,52.7127152 C107.271197,52.6231935 107.12139,52.5444761 106.95305,52.4781065 C106.78471,52.4101935 106.614826,52.3438239 106.446486,52.2759109 C106.225637,52.198737 106.007876,52.1123022 105.787027,52.0166065 C105.566178,51.9178239 105.371583,51.8005196 105.197066,51.660063 C105.025637,51.52115 104.883552,51.3590848 104.7739,51.1738674 C104.664247,50.98865 104.608649,50.7633022 104.608649,50.5024543 C104.608649,50.2570413 104.658069,50.0286065 104.753822,49.8125196 C104.852664,49.5964326 104.990116,49.4112152 105.1739,49.2553239 C105.354595,49.0994326 105.575444,48.9759543 105.837992,48.8879761 C106.098996,48.7999978 106.395521,48.7536935 106.724479,48.7536935 C107.112124,48.7536935 107.470425,48.8216065 107.796293,48.9574326 C108.120618,49.0917152 108.400154,49.2584109 108.637992,49.4513457 L108.143784,50.1088674 C107.933745,49.9498891 107.712896,49.8186935 107.485869,49.7168239 C107.257297,49.6164978 107.007104,49.565563 106.736834,49.565563 C106.349189,49.565563 106.063475,49.6535413 105.88278,49.8310413 C105.700541,50.0085413 105.610965,50.2153674 105.610965,50.4515196 C105.610965,50.595063 105.648031,50.7200848 105.723707,50.8250413 C105.800927,50.9315413 105.901313,51.02415 106.027954,51.1044109 C106.154595,51.1846717 106.299768,51.2572152 106.465019,51.3204978 C106.63027,51.3837804 106.800154,51.4486065 106.979305,51.5149761 C107.197066,51.5998674 107.419459,51.6893891 107.643398,51.7804543 C107.867336,51.8746065 108.068108,51.9903674 108.245714,52.1292804 C108.421776,52.269737 108.568494,52.4395196 108.68278,52.6417152 C108.795521,52.8454543 108.852664,53.0893239 108.852664,53.3779543 C108.852664,53.6310848 108.804788,53.867237 108.70749,54.0864109 C108.610193,54.3055848 108.466564,54.500063 108.276602,54.6683022 C108.086641,54.8380848 107.850347,54.9708239 107.566178,55.0665196 C107.285097,55.1653022 106.962317,55.21315 106.597838,55.21315 C106.157683,55.21315 105.740695,55.1328891 105.343784,54.9723674 C104.946873,54.8118457 104.599382,54.6081065 104.304402,54.364237 L104.824865,53.6681283 Z" id="Fill-37" fill="#1A3667" mask="url(#mask-2)"></path>
                <path d="M110.24695,49.7551022 L109.335753,49.7551022 L109.335753,48.9694717 L110.297915,48.9061891 L110.424556,47.1852109 L111.300232,47.1852109 L111.300232,48.9061891 L112.958919,48.9061891 L112.958919,49.7551022 L111.300232,49.7551022 L111.300232,53.1739065 C111.300232,53.5536022 111.36973,53.846863 111.507181,54.0536891 C111.647722,54.2605152 111.894826,54.3639283 112.250039,54.3639283 C112.359691,54.3639283 112.477066,54.3484935 112.603707,54.3129935 C112.730347,54.2805804 112.846178,54.2419935 112.946564,54.2003196 L113.14888,54.98595 C112.980541,55.0446022 112.795212,55.0970804 112.597529,55.1433848 C112.399846,55.1896891 112.203707,55.2128413 112.009112,55.2128413 C111.680154,55.2128413 111.402162,55.1619065 111.179768,55.0615804 C110.954286,54.9597109 110.773591,54.8192543 110.634595,54.6432978 C110.494054,54.4657978 110.395212,54.2497109 110.336525,53.9965804 C110.277838,53.74345 110.24695,53.4656239 110.24695,53.1615587 L110.24695,49.7551022 Z" id="Fill-38" fill="#1A3667" mask="url(#mask-2)"></path>
                <path d="M114.340232,48.9064978 L115.202008,48.9064978 L115.290039,50.0208891 L115.328649,50.0208891 C115.538687,49.6334761 115.795058,49.3247804 116.094672,49.0963457 C116.394286,48.8694543 116.721699,48.7536935 117.075367,48.7536935 C117.322471,48.7536935 117.540232,48.7969109 117.734826,48.8802587 L117.53251,49.7924543 C117.432124,49.7600413 117.337915,49.7338022 117.254517,49.7168239 C117.169575,49.7013891 117.064556,49.6921283 116.937915,49.6921283 C116.675367,49.6921283 116.403552,49.7970848 116.119382,50.0085413 C115.836757,50.2199978 115.591197,50.5873457 115.379614,51.1105848 L115.379614,55.0603457 L114.340232,55.0603457 L114.340232,48.9064978 Z" id="Fill-39" fill="#1A3667" mask="url(#mask-2)"></path>
                <path d="M119.168031,53.3892217 C119.168031,53.7426783 119.269961,53.9973522 119.478456,54.148613 C119.685405,54.3014174 119.940232,54.3770478 120.244479,54.3770478 C120.541004,54.3770478 120.820541,54.3075913 121.086178,54.1686783 C121.353359,54.0282217 121.63444,53.8244826 121.929421,53.5528304 L121.929421,51.8442 C121.413591,51.912113 120.979614,51.9923739 120.624402,52.0849826 C120.270734,52.1791348 119.985019,52.2871783 119.770347,52.4137435 C119.554131,52.5403087 119.399691,52.6869391 119.307027,52.8505478 C119.212819,53.0157 119.168031,53.1947435 119.168031,53.3892217 M118.141004,53.4663957 C118.141004,52.7903522 118.442162,52.273287 119.047568,51.9136565 C119.649884,51.5555696 120.612046,51.3039826 121.929421,51.1619826 C121.929421,50.9675043 121.909344,50.7776565 121.872278,50.5924391 C121.835212,50.4041348 121.767259,50.2405261 121.669961,50.0969826 C121.572664,49.9534391 121.444479,49.8376783 121.283861,49.7497 C121.123243,49.6601783 120.916293,49.6169609 120.663012,49.6169609 C120.298533,49.6169609 119.964942,49.6848739 119.654517,49.8191565 C119.347181,49.9534391 119.070734,50.1062435 118.825174,50.2729391 L118.408185,49.5536783 C118.6939,49.3684609 119.044479,49.1863304 119.458378,49.0150043 C119.872278,48.8421348 120.329421,48.7541565 120.826718,48.7541565 C121.580386,48.7541565 122.124015,48.9841348 122.462239,49.4440913 C122.800463,49.9055913 122.968803,50.5198957 122.968803,51.2885478 L122.968803,55.0608087 L122.107027,55.0608087 L122.018996,54.326113 L121.992741,54.326113 C121.697761,54.5715261 121.379614,54.7798957 121.036757,54.9543087 C120.6939,55.1256348 120.334054,55.213613 119.954131,55.213613 C119.429035,55.213613 118.996602,55.0608087 118.653745,54.7567435 C118.312432,54.4526783 118.141004,54.0220478 118.141004,53.4663957" id="Fill-40" fill="#1A3667" mask="url(#mask-2)"></path>
                <path d="M124.817761,49.7551022 L123.906564,49.7551022 L123.906564,48.9694717 L124.868726,48.9061891 L124.995367,47.1852109 L125.871042,47.1852109 L125.871042,48.9061891 L127.52973,48.9061891 L127.52973,49.7551022 L125.871042,49.7551022 L125.871042,53.1739065 C125.871042,53.5536022 125.940541,53.846863 126.077992,54.0536891 C126.218533,54.2605152 126.465637,54.3639283 126.820849,54.3639283 C126.930502,54.3639283 127.047876,54.3484935 127.174517,54.3129935 C127.301158,54.2805804 127.416988,54.2419935 127.517375,54.2003196 L127.719691,54.98595 C127.551351,55.0446022 127.366023,55.0970804 127.16834,55.1433848 C126.970656,55.1896891 126.774517,55.2128413 126.579923,55.2128413 C126.250965,55.2128413 125.972973,55.1619065 125.750579,55.0615804 C125.525097,54.9597109 125.344402,54.8192543 125.205405,54.6432978 C125.064865,54.4657978 124.966023,54.2497109 124.907336,53.9965804 C124.848649,53.74345 124.817761,53.4656239 124.817761,53.1615587 L124.817761,49.7551022 Z" id="Fill-41" fill="#1A3667" mask="url(#mask-2)"></path>
                <path d="M128.923552,55.0603457 L129.962934,55.0603457 L129.962934,48.9064978 L128.923552,48.9064978 L128.923552,55.0603457 Z M129.454826,47.6408457 C129.25251,47.6408457 129.081081,47.577563 128.940541,47.4509978 C128.803089,47.3244326 128.733591,47.1639109 128.733591,46.9694326 C128.733591,46.7656935 128.803089,46.6051717 128.940541,46.4816935 C129.081081,46.3597587 129.25251,46.299563 129.454826,46.299563 C129.657143,46.299563 129.830116,46.3597587 129.967568,46.4816935 C130.106564,46.6051717 130.177606,46.7656935 130.177606,46.9694326 C130.177606,47.1639109 130.106564,47.3244326 129.967568,47.4509978 C129.830116,47.577563 129.657143,47.6408457 129.454826,47.6408457 Z" id="Fill-42" fill="#1A3667" mask="url(#mask-2)"></path>
                <path d="M132.661931,51.9965413 C132.661931,52.3499978 132.702085,52.6710413 132.788571,52.9581283 C132.871969,53.2467587 132.992432,53.4937152 133.148417,53.7005413 C133.305946,53.9058239 133.492819,54.0678891 133.713668,54.180563 C133.931429,54.2947804 134.1739,54.3518891 134.434903,54.3518891 C134.695907,54.3518891 134.938378,54.2947804 135.156139,54.180563 C135.376988,54.0678891 135.565405,53.9058239 135.719846,53.7005413 C135.877375,53.4937152 135.997838,53.2467587 136.08278,52.9581283 C136.167722,52.6710413 136.209421,52.3499978 136.209421,51.9965413 C136.209421,51.6430848 136.167722,51.3204978 136.08278,51.027237 C135.997838,50.737063 135.877375,50.4854761 135.719846,50.2740196 C135.565405,50.0641065 135.376988,49.9020413 135.156139,49.7862804 C134.938378,49.672063 134.695907,49.6164978 134.434903,49.6164978 C134.1739,49.6164978 133.931429,49.672063 133.713668,49.7862804 C133.492819,49.9020413 133.305946,50.0641065 133.148417,50.2740196 C132.992432,50.4854761 132.871969,50.737063 132.788571,51.027237 C132.702085,51.3204978 132.661931,51.6430848 132.661931,51.9965413 M131.583938,51.9965413 C131.583938,51.4810196 131.662703,51.02415 131.818687,50.6228457 C131.974672,50.2230848 132.183166,49.8819761 132.445714,49.6026065 C132.706718,49.3247804 133.010965,49.1148674 133.350734,48.9697804 C133.693591,48.826237 134.054981,48.7536935 134.434903,48.7536935 C134.816371,48.7536935 135.176216,48.826237 135.519073,48.9697804 C135.860386,49.1148674 136.163089,49.3247804 136.425637,49.6026065 C136.685097,49.8819761 136.895135,50.2230848 137.05112,50.6228457 C137.207104,51.02415 137.285869,51.4810196 137.285869,51.9965413 C137.285869,52.5028022 137.207104,52.9565848 137.05112,53.3578891 C136.895135,53.7591935 136.685097,54.0956717 136.425637,54.3704109 C136.163089,54.64515 135.860386,54.855063 135.519073,54.997063 C135.176216,55.1406065 134.816371,55.21315 134.434903,55.21315 C134.054981,55.21315 133.693591,55.1406065 133.350734,54.997063 C133.010965,54.855063 132.706718,54.64515 132.445714,54.3704109 C132.183166,54.0956717 131.974672,53.7591935 131.818687,53.3578891 C131.662703,52.9565848 131.583938,52.5028022 131.583938,51.9965413" id="Fill-43" fill="#1A3667" mask="url(#mask-2)"></path>
                <path d="M138.907336,48.9064978 L139.769112,48.9064978 L139.857143,49.7924543 L139.895753,49.7924543 C140.190734,49.49765 140.501158,49.2506935 140.827027,49.0531283 C141.151351,48.8540196 141.52973,48.7536935 141.960618,48.7536935 C142.610811,48.7536935 143.086486,48.9574326 143.3861,49.3633674 C143.685714,49.7677587 143.835521,50.3666283 143.835521,51.1615196 L143.835521,55.0603457 L142.797683,55.0603457 L142.797683,51.3004326 C142.797683,50.7185413 142.703475,50.2971717 142.518147,50.0394109 C142.332819,49.78165 142.036293,49.6535413 141.63166,49.6535413 C141.310425,49.6535413 141.027799,49.7338022 140.782239,49.8943239 C140.538224,50.0548457 140.258687,50.2909978 139.946718,50.6043239 L139.946718,55.0603457 L138.907336,55.0603457 L138.907336,48.9064978 Z" id="Fill-44" fill="#1A3667" mask="url(#mask-2)"></path>
                <path d="M41.2412355,65.4658587 C29.1717375,66.7670109 18.8057143,63.3127065 7.28756757,66.7670109 C7.28756757,64.4641413 8.43969112,62.1612717 8.43969112,59.8584022 C0.376370656,59.8584022 8.43969112,67.9184457 3.83274131,70.2197717 C16.5030116,69.068337 28.0211583,69.068337 41.2412355,69.4048152 L41.2412355,65.4658587 Z" id="Fill-45" fill="#CA2026" mask="url(#mask-2)"></path>
                <path d="M3.23830116,28.2459609 C3.83289575,28.7784609 4.9834749,27.6270261 6.13559846,27.6270261 C4.9834749,25.3257 4.9834749,24.1742652 3.83289575,21.8713957 C14.1989189,20.7215043 24.5649421,20.7215043 34.4506564,19.968287 C38.2328958,19.8880261 40.8105019,19.8849391 40.8105019,19.8849391 L41.2027799,19.8849391 L41.2027799,20.3155696 L41.2058687,26.4354609 L44.7749807,26.4400913 L44.7749807,15.9783957 C44.7749807,15.9783957 39.310888,15.9783957 32.1155212,16.092613 C22.260695,16.1157652 10.7425483,18.4186348 -0.000308880309,17.483287 L3.23830116,28.2459609 Z" id="Fill-46" fill="#1A3667" mask="url(#mask-2)"></path>
                <path d="M4.82872587,49.3754065 C3.83258687,51.8002109 4.98471042,52.9516457 7.28895753,52.9516457 C9.59166023,52.9516457 10.7437838,50.6503196 10.7437838,49.4988848 C6.13683398,44.8962326 -3.07861004,42.5918196 1.52988417,34.534863 C6.13683398,28.7776891 14.19861,34.534863 11.8959073,39.1375152 C10.7437838,42.5918196 8.43953668,34.534863 6.13683398,35.6862978 C-0.774362934,40.28895 10.7437838,42.5918196 11.8959073,43.7447978 C14.19861,48.3489935 14.19861,52.9516457 10.7437838,56.4074935 C6.13683398,58.7088196 0.377760618,55.2560587 1.81559846,49.5714283 L4.82872587,49.3754065 Z" id="Fill-47" fill="#1A3667" mask="url(#mask-2)"></path>
                <path d="M15.9427027,31.8243609 C21.1102703,29.930513 28.0214672,29.930513 30.3241699,34.5347087 C31.4762934,40.2903391 29.1735907,42.5932087 30.3241699,48.3488391 C32.628417,54.1044696 22.2623938,57.5572304 18.8060232,54.1044696 C16.5033205,52.9530348 17.6538996,47.1974043 17.1164479,43.8141 C16.7705019,37.8717087 15.9427027,31.8243609 15.9427027,31.8243609 Z M20.2376834,41.0204043 C22.2623938,41.4417739 30.3241699,39.1389043 25.7172201,35.6861435 C24.5650965,34.5347087 22.2623938,35.6861435 19.7635521,35.7741217 L20.2376834,41.0204043 Z M20.5264865,51.343187 C22.2623938,50.6501652 24.5650965,50.6501652 26.8693436,50.6501652 C28.0214672,49.4987304 29.1735907,46.0459696 26.8693436,44.8945348 C24.5650965,43.7431 22.2623938,44.8945348 20.4600772,45.0303609 L20.5264865,51.343187 Z" id="Fill-48" fill="#1A3667" mask="url(#mask-2)"></path>
                <path d="M44.7396139,30.7601326 C37.2353668,31.0811761 38.3874903,46.0451978 34.9311197,54.1036978 C33.7805405,57.5564587 37.2353668,55.2551326 38.3874903,55.2551326 C41.8423166,50.650937 39.5396139,43.7438717 42.9944402,39.1396761 C47.60139,43.7438717 41.8423166,56.4050239 52.2083398,55.2551326 C49.9056371,51.8008283 49.9056371,47.1966326 48.2855598,42.976763 C46.5141313,36.8630457 44.7396139,30.7601326 44.7396139,30.7601326" id="Fill-49" fill="#1A3667" mask="url(#mask-2)"></path>
                <path d="M44.7584556,65.6240652 C44.1468726,66.7662391 41.8426255,67.9176739 40.6905019,69.0691087 C44.1468726,64.4633696 36.0835521,58.7077391 44.7630888,55.0697609 L44.7584556,65.6240652 Z" id="Fill-50" fill="#1A3667" mask="url(#mask-2)"></path>
                <path d="M356.397992,54.8482717 C355.139305,54.1043152 355.139305,52.951337 355.139305,51.7999022 C355.139305,54.1043152 355.139305,55.25575 357.443552,54.1043152 C358.594131,52.951337 357.443552,51.7999022 356.291429,51.7999022 C358.594131,52.951337 357.443552,54.1043152 356.816525,54.7541196 C356.68834,54.8112283 356.550888,54.8420978 356.397992,54.8482717" id="Fill-51" fill="#1A3667" mask="url(#mask-2)"></path>
                <path d="M358.370656,54.7639978 C358.596139,55.2532804 358.596139,54.1033891 358.552896,54.6652152 L358.370656,54.7639978 Z" id="Fill-52" fill="#1A3667" mask="url(#mask-2)"></path>
                <path d="M360.185019,54.6825022 C362.050656,55.2551326 357.442162,51.8008283 360.898533,51.8008283 C355.137915,52.952263 364.353359,52.952263 360.603552,54.58835 C360.481544,54.6439152 360.344093,54.6763283 360.185019,54.6825022" id="Fill-53" fill="#1A3667" mask="url(#mask-2)"></path>
                <path d="M364.703629,54.4835478 C364.35305,54.1038522 365.505174,54.1038522 365.505174,54.1038522 C366.657297,52.9524174 360.898224,52.9524174 364.35305,50.6510913 C364.35305,51.8009826 364.35305,52.9524174 365.125251,54.3909391 C365.003243,54.4449609 364.862703,54.4773739 364.703629,54.4835478" id="Fill-54" fill="#1A3667" mask="url(#mask-2)"></path>
                <path d="M366.288803,54.3538957 C366.657915,52.9524174 365.505792,52.9524174 365.505792,51.8025261 C366.657915,51.8025261 370.112741,50.6510913 368.959073,54.1038522 C367.80695,49.498113 367.80695,50.6510913 366.668726,54.3384609 L366.288803,54.3538957 Z" id="Fill-55" fill="#1A3667" mask="url(#mask-2)"></path>
                <path d="M370.766641,53.8987239 C371.263938,47.1969413 370.111815,47.1969413 370.470116,53.8138326 C370.555058,53.8740283 370.652355,53.9018109 370.766641,53.8987239" id="Fill-56" fill="#1A3667" mask="url(#mask-2)"></path>
                <path d="M372.961081,54.1685239 C372.414363,52.952263 372.414363,51.8008283 372.414363,50.650937 C372.414363,51.8008283 370.11166,54.1036978 373.092355,54.1530891 L372.961081,54.1685239 Z" id="Fill-57" fill="#1A3667" mask="url(#mask-2)"></path>
                <path d="M374.178224,54.1324065 C371.263938,54.1030804 373.566641,51.8002109 373.566641,50.6503196 C373.566641,51.8002109 371.263938,54.1030804 374.311042,54.1154283 L374.178224,54.1324065 Z" id="Fill-58" fill="#1A3667" mask="url(#mask-2)"></path>
                <path d="M375.978996,54.0178804 C375.872432,52.9544239 373.566641,49.4985761 377.024556,50.6500109 C378.175135,50.6500109 378.175135,52.9544239 378.175135,54.1043152 C378.175135,54.1043152 377.024556,54.1043152 376.990579,53.9916413 L375.978996,54.0178804 Z M376.145792,52.0391413 C382.782085,51.8014457 382.782085,50.6500109 376.017606,50.9293804 L376.145792,52.0391413 Z M376.337297,53.6644239 C378.175135,52.9544239 377.024556,52.9544239 376.185946,52.3740761 L376.337297,53.6644239 Z" id="Fill-59" fill="#1A3667" mask="url(#mask-2)"></path>
                <path d="M379.509653,54.0012109 C378.17529,54.1030804 377.023166,52.9516457 378.17529,51.8002109 C379.327413,50.6503196 379.327413,54.1030804 379.928185,53.8669283 C379.815444,53.9549065 379.676448,53.9981239 379.509653,54.0012109" id="Fill-60" fill="#1A3667" mask="url(#mask-2)"></path>
                <path d="M382.135444,53.9590739 C381.630425,54.1041609 382.782548,47.1970957 382.510734,53.8942478 C382.40417,53.9343783 382.277529,53.9575304 382.135444,53.9590739" id="Fill-61" fill="#1A3667" mask="url(#mask-2)"></path>
                <path d="M387.682625,52.3779348 C394.298842,52.9521087 394.298842,51.8022174 387.725869,52.0414565 C387.694981,52.1402391 387.681081,52.2513696 387.682625,52.3779348" id="Fill-62" fill="#1A3667" mask="url(#mask-2)"></path>
                <path d="M390.883089,53.9228022 C388.541776,54.1033891 390.846023,52.9519543 389.692355,51.8005196 C391.996602,51.8005196 391.996602,52.9519543 391.996602,54.1033891 C391.996602,54.1033891 390.846023,54.1033891 391.276911,53.86415 C391.165714,53.9042804 391.03444,53.9228022 390.883089,53.9228022" id="Fill-63" fill="#1A3667" mask="url(#mask-2)"></path>
                <path d="M359.866873,60.8550261 C359.746409,59.8594826 360.898533,58.7080478 360.898533,57.556613 C360.898533,58.7080478 362.049112,59.8594826 362.049112,61.0124609 C360.898533,56.4051783 360.898533,62.1623522 360.263784,60.8411348 L359.866873,60.8550261 Z" id="Fill-64" fill="#1A3667" mask="url(#mask-2)"></path>
                <path d="M363.558919,60.7810935 C359.745792,58.7082022 365.506409,58.7082022 364.354286,57.5567674 C364.354286,58.7082022 364.354286,59.859637 363.924942,60.6607022 C363.81529,60.7363326 363.693282,60.776463 363.558919,60.7810935" id="Fill-65" fill="#1A3667" mask="url(#mask-2)"></path>
                <path d="M365.377915,60.6514413 C364.353977,58.7082022 365.5061,57.5567674 367.807259,57.5567674 C367.807259,58.7082022 368.959382,59.859637 368.959382,61.0095283 C367.807259,62.1625065 366.65668,54.1040065 365.762471,60.63755 L365.377915,60.6514413 Z" id="Fill-66" fill="#1A3667" mask="url(#mask-2)"></path>
                <path d="M369.287104,60.517313 C368.959691,59.8597913 368.959691,58.7083565 368.959691,57.5584652 C368.959691,58.7083565 370.111815,59.8597913 369.676293,60.5034217 L369.287104,60.517313 Z" id="Fill-67" fill="#1A3667" mask="url(#mask-2)"></path>
                <path d="M370.455907,60.4796522 C368.959382,58.7092826 370.111506,56.4048696 372.415753,57.5563043 C373.567876,58.7092826 370.111506,58.7092826 370.846641,60.4657609 L370.455907,60.4796522 Z" id="Fill-68" fill="#1A3667" mask="url(#mask-2)"></path>
                <path d="M372.905328,57.3278696 C372.417297,50.6507826 373.569421,50.6507826 373.089112,57.2429783 L372.905328,57.3278696 Z" id="Fill-69" fill="#1A3667" mask="url(#mask-2)"></path>
                <path d="M380.057143,59.9565674 C380.47722,52.9538065 379.325097,52.9538065 379.743629,59.8670457 C379.83166,59.9287848 379.938224,59.9596543 380.057143,59.9565674" id="Fill-70" fill="#1A3667" mask="url(#mask-2)"></path>
                <path d="M382.624093,60.2671152 C379.326795,59.859637 382.783166,57.5567674 381.629498,56.4053326 C381.629498,57.5567674 382.783166,58.7082022 382.85112,60.2362457 L382.624093,60.2671152 Z" id="Fill-71" fill="#1A3667" mask="url(#mask-2)"></path>
                <path d="M383.355676,57.1077696 C382.782703,50.6498565 383.934826,50.6498565 383.548726,57.0275087 L383.355676,57.1077696 Z" id="Fill-72" fill="#1A3667" mask="url(#mask-2)"></path>
                <path d="M385.702394,59.8812457 C386.238301,47.1969413 385.086178,47.1969413 385.404324,59.8117891 C385.496988,59.85655 385.597375,59.8827891 385.702394,59.8812457" id="Fill-73" fill="#1A3667" mask="url(#mask-2)"></path>
                <path d="M389.851429,40.6601565 C378.174208,40.2897217 367.80973,43.7440261 356.291583,40.2897217 L356.291583,35.6855261 C350.53251,37.9883957 356.291583,42.5925913 353.985792,44.8954609 C365.503938,46.0453522 378.174208,43.7440261 390.14332,44.0110478 L389.851429,40.6601565 Z" id="Fill-74" fill="#CA2026" mask="url(#mask-2)"></path>
                <path d="M355.248803,0.595936957 L354.646486,9.22089348 C362.050347,-2.30117174 379.327568,5.75578478 391.997838,3.4544587 C391.997838,4.60589348 390.845714,6.90721957 390.845714,8.05865435 C395.452664,11.5114152 395.452664,3.4544587 395.452664,0.000154347826" id="Fill-75" fill="#1A3667" mask="url(#mask-2)"></path>
                <path d="M351.686332,26.8154652 C352.835367,29.9302043 356.290193,31.0816391 358.59444,27.6273348 C352.835367,25.3244652 343.619923,18.4189435 352.835367,12.6617696 C357.443861,10.361987 364.353514,13.8132043 360.897143,18.4189435 C358.59444,19.5703783 351.683243,12.6617696 352.835367,18.4189435 C352.835367,21.8732478 362.049266,19.5703783 362.049266,26.4759 C362.049266,29.9302043 359.745019,32.2330739 356.290193,33.3845087 C351.683243,34.5344 347.076293,31.0816391 348.497143,26.9651826 L351.686332,26.8154652 Z" id="Fill-76" fill="#1A3667" mask="url(#mask-2)"></path>
                <path d="M366.696062,12.2655587 C371.264402,13.8136674 378.175598,9.21101522 380.479846,14.9651022 C381.630425,18.417863 378.175598,20.7222761 379.327722,25.3249283 C381.630425,32.233537 370.112278,34.5333196 365.505328,31.0805587 C364.35166,29.9291239 365.505328,25.3249283 365.993359,22.2071022 C366.257452,17.2124065 366.696062,12.2655587 366.696062,12.2655587 Z M369.475985,19.8625587 C372.416525,20.7222761 375.869807,19.5692978 375.869807,17.2664283 C377.023475,14.9651022 372.416525,14.9651022 369.834286,15.5331022 L369.475985,19.8625587 Z M369.083707,28.5924717 C371.264402,28.7776891 374.717683,29.9291239 375.869807,27.6277978 C377.023475,25.3249283 375.869807,21.8737109 369.26749,23.2196239 L369.083707,28.5924717 Z" id="Fill-77" fill="#1A3667" mask="url(#mask-2)"></path>
                <path d="M393.943166,11.7861543 C383.935444,14.9657196 388.542394,26.4769804 382.781776,32.2326109 C390.845097,34.533937 387.39027,21.8712413 391.995676,18.4184804 C395.453591,23.0226761 389.694517,28.7783065 398.908417,32.2326109 C398.908417,28.7783065 396.605714,25.3255457 396.324633,21.7276978 C395.014981,16.7175674 393.943166,11.7861543 393.943166,11.7861543" id="Fill-78" fill="#1A3667" mask="url(#mask-2)"></path>
                <polygon id="Fill-79" fill="#1A3667" mask="url(#mask-2)" points="393.039846 40.6737391 390.145637 44.0107391 389.490811 31.7277391 392.68 31.7663261"></polygon>
            </g>
        </g>
    </g>
</svg>