<?xml version="1.0" encoding="UTF-8"?>
<svg width="400px" height="73px" viewBox="0 0 400 73" version="1.1" xmlns="http://www.w3.org/2000/svg" xmlns:xlink="http://www.w3.org/1999/xlink">
    <!-- Generator: Sketch 49 (51002) - http://www.bohemiancoding.com/sketch -->
    <title>Page 1</title>
    <desc>Created with Sketch.</desc>
    <defs>
        <polygon id="path-1" points="1.56144144 0.337512195 49.7992793 0.337512195 49.7992793 10.6231512 1.56144144 10.6231512"></polygon>
    </defs>
    <g id="Page-1" stroke="none" stroke-width="1" fill="none" fill-rule="evenodd">
        <g id="Tablet" transform="translate(-247.000000, -3590.000000)">
            <g id="Page-1" transform="translate(247.000000, 3589.000000)">
                <path d="M91.1376577,29.044639 L95.2241441,29.044639 L95.2241441,29.7485415 L94.4385586,29.7972732 L94.2908108,29.9741512 L94.2908108,34.0603951 C94.2908108,34.8148341 94.4313514,35.3526878 94.716036,35.6721512 C95.0007207,35.9952244 95.4673874,36.1540537 96.1214414,36.1540537 C96.7430631,36.1540537 97.1809009,35.9862 97.4385586,35.6504927 C97.6944144,35.3129805 97.8223423,34.7065415 97.8223423,33.8311756 L97.8223423,29.9741512 L97.68,29.7972732 L96.8169369,29.7485415 L96.8169369,29.044639 L99.8655856,29.044639 L99.8655856,29.7485415 L99.0908108,29.7972732 L98.9376577,29.9741512 L98.9376577,33.9845902 C98.9376577,35.1758098 98.670991,36.0331268 98.1358559,36.5583463 C97.5989189,37.081761 96.7268468,37.3452732 95.5142342,37.3452732 C94.8079279,37.3452732 94.2115315,37.2405902 93.7214414,37.0312244 C93.2313514,36.8218585 92.843964,36.5060049 92.5610811,36.0836634 C92.4115315,35.8544439 92.3034234,35.5927366 92.2385586,35.2967366 C92.1736937,35.0025415 92.1412613,34.5242488 92.1412613,33.8654683 L92.1412613,29.9741512 L91.9935135,29.7972732 L91.1376577,29.7485415 L91.1376577,29.044639 Z" id="Fill-1" fill="#1A3667"></path>
                <path d="M102.032973,34.942078 C102.351892,34.942078 102.623964,35.0557854 102.850991,35.2813951 C103.076216,35.5088098 103.191532,35.7849561 103.191532,36.1080293 C103.191532,36.4184683 103.076216,36.6873951 102.847387,36.9093951 C102.618559,37.1313951 102.348288,37.2432976 102.032973,37.2432976 C101.717658,37.2432976 101.449189,37.1332 101.227568,36.9130049 C101.004144,36.6910049 100.892432,36.4238829 100.892432,36.1080293 C100.892432,35.7795415 101.004144,35.5052 101.223964,35.2795902 C101.443784,35.0539805 101.714054,34.942078 102.032973,34.942078" id="Fill-3" fill="#1A3667"></path>
                <path d="M104.702162,36.8826829 L104.702162,34.6410244 L105.824685,34.6410244 L106.102162,36.1318537 L106.273333,36.3159512 C106.426486,36.3394146 106.57964,36.3556585 106.730991,36.3682927 C106.882342,36.3809268 107.037297,36.3863415 107.194054,36.3863415 C107.658919,36.3863415 108.03009,36.2834634 108.303964,36.0813171 C108.57964,35.8773659 108.718378,35.6066341 108.718378,35.2673171 C108.718378,35.1572195 108.70036,35.0525366 108.660721,34.9514634 C108.624685,34.8503902 108.568829,34.7583415 108.498559,34.6753171 C108.311171,34.4677561 107.911171,34.2439512 107.30036,34.0075122 C107.001261,33.8974146 106.770631,33.803561 106.61027,33.729561 C105.983243,33.4498049 105.525586,33.1249268 105.233694,32.7567317 C104.943604,32.3885366 104.797658,31.9463415 104.797658,31.4283415 C104.797658,30.6630732 105.082342,30.0476098 105.651712,29.5837561 C106.224685,29.1180976 106.988649,28.8852683 107.945405,28.8852683 C108.345405,28.8852683 108.765225,28.9267805 109.201261,29.0098049 C109.639099,29.0928293 110.082342,29.2119512 110.530991,29.3689756 L110.530991,31.4175122 L109.408468,31.4175122 L109.167027,30.0746829 L109.019279,29.9266829 C108.909369,29.8905854 108.794054,29.8635122 108.673333,29.8472683 C108.554414,29.8292195 108.426486,29.8201951 108.293153,29.8201951 C107.835495,29.8201951 107.476937,29.9158537 107.217477,30.1107805 C106.958018,30.3020976 106.828288,30.5656098 106.828288,30.8959024 C106.828288,31.3507317 107.325586,31.7857073 108.321982,32.204439 C108.435495,32.2513659 108.523784,32.2892683 108.581441,32.3163415 C109.471532,32.6899512 110.062523,33.0473171 110.350811,33.388439 C110.640901,33.7313659 110.785045,34.1717561 110.785045,34.7114146 C110.785045,35.5037561 110.473333,36.1372683 109.851712,36.6101463 C109.23009,37.0830244 108.392252,37.3212683 107.336396,37.3212683 C106.983243,37.3212683 106.594054,37.2851707 106.168829,37.2147805 C105.747207,37.1425854 105.258919,37.0324878 104.702162,36.8826829" id="Fill-5" fill="#1A3667"></path>
                <path d="M113.376937,34.942078 C113.695856,34.942078 113.967928,35.0557854 114.194955,35.2813951 C114.42018,35.5088098 114.535495,35.7849561 114.535495,36.1080293 C114.535495,36.4184683 114.42018,36.6873951 114.191351,36.9093951 C113.962523,37.1313951 113.692252,37.2432976 113.376937,37.2432976 C113.061622,37.2432976 112.793153,37.1332 112.571532,36.9130049 C112.348108,36.6910049 112.236396,36.4238829 112.236396,36.1080293 C112.236396,35.7795415 112.348108,35.5052 112.567928,35.2795902 C112.787748,35.0539805 113.058018,34.942078 113.376937,34.942078" id="Fill-7" fill="#1A3667"></path>
                <path d="M119.938378,36.8826829 L119.938378,34.6410244 L121.060901,34.6410244 L121.338378,36.1318537 L121.50955,36.3159512 C121.662703,36.3394146 121.815856,36.3556585 121.967207,36.3682927 C122.118559,36.3809268 122.273514,36.3863415 122.43027,36.3863415 C122.895135,36.3863415 123.266306,36.2834634 123.54018,36.0813171 C123.815856,35.8773659 123.954595,35.6066341 123.954595,35.2673171 C123.954595,35.1572195 123.936577,35.0525366 123.896937,34.9514634 C123.860901,34.8503902 123.805045,34.7583415 123.734775,34.6753171 C123.547387,34.4677561 123.147387,34.2439512 122.536577,34.0075122 C122.237477,33.8974146 122.006847,33.803561 121.846486,33.729561 C121.219459,33.4498049 120.761802,33.1249268 120.46991,32.7567317 C120.17982,32.3885366 120.033874,31.9463415 120.033874,31.4283415 C120.033874,30.6630732 120.318559,30.0476098 120.887928,29.5837561 C121.460901,29.1180976 122.224865,28.8852683 123.181622,28.8852683 C123.581622,28.8852683 124.001441,28.9267805 124.437477,29.0098049 C124.875315,29.0928293 125.318559,29.2119512 125.767207,29.3689756 L125.767207,31.4175122 L124.644685,31.4175122 L124.403243,30.0746829 L124.255495,29.9266829 C124.145586,29.8905854 124.03027,29.8635122 123.90955,29.8472683 C123.790631,29.8292195 123.662703,29.8201951 123.529369,29.8201951 C123.071712,29.8201951 122.713153,29.9158537 122.453694,30.1107805 C122.194234,30.3020976 122.064505,30.5656098 122.064505,30.8959024 C122.064505,31.3507317 122.561802,31.7857073 123.558198,32.204439 C123.671712,32.2513659 123.76,32.2892683 123.817658,32.3163415 C124.707748,32.6899512 125.298739,33.0473171 125.587027,33.388439 C125.877117,33.7313659 126.021261,34.1717561 126.021261,34.7114146 C126.021261,35.5037561 125.70955,36.1372683 125.087928,36.6101463 C124.466306,37.0830244 123.628468,37.3212683 122.572613,37.3212683 C122.219459,37.3212683 121.83027,37.2851707 121.405045,37.2147805 C120.983423,37.1425854 120.495135,37.0324878 119.938378,36.8826829" id="Fill-9" fill="#1A3667"></path>
                <path d="M133.555676,31.8902098 C134.063784,31.6014293 134.516036,31.3866488 134.914234,31.2458683 C135.312432,31.1032829 135.658378,31.0328927 135.953874,31.0328927 C136.555676,31.0328927 136.998919,31.2097707 137.281802,31.561722 C137.566486,31.915478 137.707027,32.4713805 137.707027,33.233039 L137.707027,36.3157707 L137.824144,36.4691854 L138.492613,36.5269415 L138.492613,37.1730878 L135.092613,37.1730878 L135.092613,36.5269415 L135.562883,36.4691854 L135.710631,36.3157707 L135.710631,33.7293805 C135.710631,33.2023561 135.618739,32.8377707 135.42955,32.6392341 C135.243964,32.4388927 134.914234,32.3396244 134.44036,32.3396244 C134.270991,32.3396244 134.13045,32.3468439 134.018739,32.3612829 C133.907027,32.3739171 133.806126,32.3955756 133.716036,32.4226488 L133.716036,36.3157707 L133.861982,36.4800146 L134.393514,36.5449902 L134.393514,37.1730878 L131.164685,37.1730878 L131.164685,36.5052829 L131.600721,36.4800146 L131.743063,36.2742585 L131.743063,33.5759659 C131.743063,33.1427951 131.645766,32.8287463 131.456577,32.6320146 C131.265586,32.4370878 130.957477,32.3396244 130.532252,32.3396244 L130.312432,32.3396244 C130.191712,32.3396244 130.096216,32.3414293 130.02955,32.3486488 C129.962883,32.3540634 129.903423,32.3630878 129.845766,32.375722 L129.845766,36.3157707 L130.000721,36.4691854 L130.449369,36.5269415 L130.449369,37.1730878 L127.065586,37.1730878 L127.065586,36.5269415 L127.690811,36.4691854 L127.825946,36.3157707 L127.825946,32.3287951 L127.065586,32.3287951 L127.065586,31.7313805 L129.144865,31.0328927 L129.845766,31.0328927 L129.845766,31.8180146 C130.29982,31.5508927 130.703423,31.3523561 131.056577,31.2242098 C131.413333,31.0960634 131.732252,31.0328927 132.018739,31.0328927 C132.343063,31.0328927 132.624144,31.101478 132.867387,31.2368439 C133.110631,31.3722098 133.339459,31.5906 133.555676,31.8902098" id="Fill-11" fill="#1A3667"></path>
                <path d="M143.104865,35.9010098 L143.104865,34.0853024 C142.456216,34.1683268 141.991351,34.3018878 141.713874,34.4877902 C141.436396,34.6718878 141.297658,34.9390098 141.297658,35.2855463 C141.297658,35.5382293 141.382342,35.7421805 141.551712,35.8974 C141.719279,36.0526195 141.942703,36.1320341 142.218378,36.1320341 C142.344505,36.1320341 142.47964,36.1121805 142.625586,36.0724732 C142.771532,36.0327659 142.93009,35.9768146 143.104865,35.9010098 Z M143.104865,36.4930098 C142.672432,36.7727659 142.272432,36.9821317 141.908468,37.1229122 C141.544505,37.2618878 141.209369,37.332278 140.901261,37.332278 C140.382342,37.332278 139.958919,37.1770585 139.629189,36.8648146 C139.301261,36.5543756 139.135495,36.1518878 139.135495,35.6591561 C139.135495,35.2873512 139.238198,34.9552537 139.447207,34.6592537 C139.652613,34.3632537 139.926486,34.1520829 140.270631,34.0257415 C140.544505,33.9228634 140.926486,33.8091561 141.412973,33.6828146 C141.899459,33.5564732 142.470631,33.4247171 143.128288,33.2857415 L143.128288,32.9301805 C143.128288,32.5403268 143.012973,32.2461317 142.785946,32.0439854 C142.557117,31.841839 142.223784,31.7425707 141.782342,31.7425707 L141.593153,31.7425707 L141.593153,33.0023756 L140.151712,33.0023756 C139.885045,33.0023756 139.695856,32.9644732 139.587748,32.8904732 C139.47964,32.8146683 139.425586,32.6883268 139.425586,32.5114488 C139.425586,32.1125707 139.724685,31.7642293 140.322883,31.4664244 C140.921081,31.1686195 141.661622,31.0206195 142.542703,31.0206195 C143.077838,31.0206195 143.535495,31.0892049 143.913874,31.2281805 C144.29045,31.3653512 144.584144,31.5711073 144.793153,31.841839 C144.919279,32.004278 145.011171,32.1919854 145.065225,32.4067659 C145.119279,32.6233512 145.148108,32.9698878 145.148108,33.4517902 L145.148108,33.5871561 L145.148108,36.3395951 L145.277838,36.4803756 L145.944505,36.5579854 L145.944505,37.1734488 L143.270631,37.1734488 L143.104865,36.4930098 Z" id="Fill-13" fill="#1A3667"></path>
                <polygon id="Fill-15" fill="#1A3667" points="146.345946 37.1727268 146.345946 36.5572634 147.048649 36.4579951 147.203604 36.3154098 147.203604 29.4821415 146.369369 29.4821415 146.369369 28.8847268 148.607207 28.1699951 149.221622 28.1699951 149.221622 36.2738976 149.392793 36.4688244 150.131532 36.5572634 150.131532 37.1727268"></polygon>
                <polygon id="Fill-17" fill="#1A3667" points="150.581261 37.1727268 150.581261 36.5572634 151.283964 36.4579951 151.438919 36.3154098 151.438919 29.4821415 150.604685 29.4821415 150.604685 28.8847268 152.842523 28.1699951 153.456937 28.1699951 153.456937 36.2738976 153.628108 36.4688244 154.366847 36.5572634 154.366847 37.1727268"></polygon>
                <path d="M161.842523,36.3858 C161.892973,36.3894098 161.948829,36.3930195 162.004685,36.3948244 C162.062342,36.3966293 162.147027,36.3984341 162.260541,36.3984341 C162.883964,36.3984341 163.338018,36.2757024 163.622703,36.0320439 C163.907387,35.7865805 164.051532,35.4003366 164.051532,34.8715073 C164.051532,34.3787756 163.896577,34.0069707 163.584865,33.7560927 C163.273153,33.5070195 162.817297,33.380678 162.213694,33.380678 C162.114595,33.380678 162.038919,33.3824829 161.986667,33.3842878 C161.934414,33.3860927 161.882162,33.3915073 161.837117,33.3987268 L161.842523,36.3858 Z M161.837117,32.5702878 L162.055135,32.5702878 C162.606486,32.5702878 163.006486,32.4547756 163.258739,32.2237512 C163.512793,31.9927268 163.637117,31.6281415 163.637117,31.1263854 C163.637117,30.6859951 163.514595,30.3575073 163.26955,30.1427268 C163.022703,29.9279463 162.647928,29.8196537 162.143423,29.8196537 C162.060541,29.8196537 161.999279,29.8214585 161.956036,29.8232634 C161.916396,29.8250683 161.878559,29.828678 161.842523,29.8322878 L161.837117,32.5702878 Z M158.777658,29.045361 L163.118198,29.045361 C164.002883,29.045361 164.678559,29.2023854 165.143423,29.5146293 C165.608288,29.828678 165.840721,30.2853122 165.840721,30.8845317 C165.840721,31.3664341 165.687568,31.7725317 165.379459,32.1028244 C165.073153,32.434922 164.622703,32.6785805 164.028108,32.8374098 C164.750631,32.8608732 165.310991,33.0431659 165.701982,33.3842878 C166.092973,33.7254098 166.289369,34.1982878 166.289369,34.8011171 C166.289369,35.5663854 166.024505,36.1529707 165.496577,36.5608732 C164.97045,36.9687756 164.21009,37.1727268 163.219099,37.1727268 L158.777658,37.1727268 L158.777658,36.4688244 L159.53982,36.4218976 L159.734414,36.1908732 L159.734414,29.9730683 L159.53982,29.7961902 L158.777658,29.7492634 L158.777658,29.045361 Z" id="Fill-19" fill="#1A3667"></path>
                <path d="M169.129009,31.0327122 L169.855135,31.0327122 L169.855135,34.5468098 C169.855135,35.1225659 169.941622,35.5052 170.116396,35.6965171 C170.289369,35.8878341 170.617297,35.9834927 171.101982,35.9834927 C171.202883,35.9834927 171.314595,35.9798829 171.431712,35.9744683 C171.550631,35.9690537 171.667748,35.9600293 171.788468,35.9492 L171.793874,32.3286146 L171.031712,32.3286146 L171.031712,31.7312 L173.134414,31.0327122 L173.813694,31.0327122 L173.813694,36.3029561 L173.930811,36.4690049 L174.646126,36.5159317 L174.646126,37.1729073 L171.788468,37.1729073 L171.788468,36.5051024 C171.310991,36.7884683 170.896577,36.9888098 170.545225,37.104322 C170.193874,37.221639 169.838919,37.2793951 169.48036,37.2793951 C169.174054,37.2793951 168.90018,37.2144195 168.658739,37.0844683 C168.415495,36.9545171 168.222703,36.7686146 168.078559,36.526761 C167.983063,36.3697366 167.914595,36.1928585 167.874955,35.9979317 C167.833514,35.8030049 167.813694,35.5088098 167.813694,35.1135415 L167.813694,34.9655415 L167.813694,32.3286146 L167.064144,32.3286146 L167.064144,31.7312 L169.129009,31.0327122 Z" id="Fill-21" fill="#1A3667"></path>
                <path d="M180.472973,31.3341268 L180.472973,33.1859317 L179.606306,33.1859317 L179.445946,32.2275415 L179.285586,32.0614927 C179.125225,31.9874927 178.97027,31.9315415 178.826126,31.8972488 C178.68018,31.8611512 178.53964,31.8431024 178.406306,31.8431024 C178.121622,31.8431024 177.898198,31.9008585 177.732432,32.0163707 C177.568468,32.1336878 177.485586,32.2889073 177.485586,32.4820293 C177.485586,32.8249561 177.847748,33.1299805 178.57027,33.3989073 C178.806306,33.4855415 178.991892,33.5559317 179.11982,33.6118829 C179.755856,33.8717854 180.186486,34.128078 180.417117,34.380761 C180.647748,34.6334439 180.761261,34.9547122 180.761261,35.3445659 C180.761261,35.904078 180.498198,36.3751512 179.968468,36.7577854 C179.438739,37.1404195 178.772072,37.3317366 177.968468,37.3317366 C177.586486,37.3317366 177.181081,37.3028585 176.75045,37.2432976 C176.318018,37.1837366 175.865766,37.0952976 175.395495,36.9761756 L175.395495,34.9547122 L176.262162,34.9547122 L176.40991,36.0611024 L176.545045,36.2145171 C176.757658,36.3173951 176.97027,36.3932 177.181081,36.4419317 C177.391892,36.4906634 177.602703,36.5159317 177.815315,36.5159317 C178.090991,36.5159317 178.310811,36.452761 178.474775,36.3264195 C178.636937,36.200078 178.718018,36.0322244 178.718018,35.8174439 C178.718018,35.5106146 178.435135,35.2362732 177.869369,34.9962244 C177.741441,34.9402732 177.64955,34.898761 177.584685,34.8716878 C176.707207,34.4854439 176.134234,34.1569561 175.865766,33.8862244 C175.599099,33.6172976 175.465766,33.2906146 175.465766,32.9079805 C175.465766,32.3448585 175.710811,31.8864195 176.206306,31.5344683 C176.7,31.184322 177.354054,31.0092488 178.164865,31.0092488 C178.471171,31.0092488 178.813514,31.0345171 179.193694,31.0886634 C179.573874,31.1428098 179.999099,31.2240293 180.472973,31.3341268" id="Fill-23" fill="#1A3667"></path>
                <path d="M182.274775,29.3345024 C182.274775,28.9987951 182.379279,28.7280634 182.584685,28.5186976 C182.791892,28.3093317 183.06036,28.2046488 183.39009,28.2046488 C183.705405,28.2046488 183.968468,28.3093317 184.182883,28.5150878 C184.395495,28.7226488 184.5,28.9753317 184.5,29.2749415 C184.5,29.6142585 184.393694,29.8922098 184.179279,30.1106 C183.963063,30.3271854 183.694595,30.435478 183.366667,30.435478 C183.06036,30.435478 182.800901,30.3289902 182.591892,30.1196244 C182.381081,29.9066488 182.274775,29.6467463 182.274775,29.3345024 Z M183.68018,31.0328927 L184.382883,31.0328927 L184.382883,36.3157707 L184.537838,36.4691854 L185.274775,36.5269415 L185.274775,37.1730878 L181.512613,37.1730878 L181.512613,36.5269415 L182.227928,36.4691854 L182.363063,36.3157707 L182.363063,32.3287951 L181.582883,32.3287951 L181.582883,31.7313805 L183.68018,31.0328927 Z" id="Fill-25" fill="#1A3667"></path>
                <path d="M185.883604,37.1727268 L185.883604,36.5283854 L186.508829,36.4688244 L186.643964,36.3154098 L186.643964,32.3284341 L185.793514,32.3284341 L185.793514,31.7310195 L187.961081,31.0325317 L188.663784,31.0325317 L188.663784,31.8194585 C189.22955,31.5234585 189.685405,31.3177024 190.02955,31.2039951 C190.37009,31.0902878 190.672793,31.0325317 190.937658,31.0325317 C191.541261,31.0325317 191.982703,31.2094098 192.267387,31.561361 C192.55027,31.9151171 192.690811,32.4728244 192.690811,33.232678 L192.690811,36.3154098 L192.822342,36.4688244 L193.478198,36.5283854 L193.478198,37.1727268 L190.087207,37.1727268 L190.087207,36.5283854 L190.561081,36.4688244 L190.707027,36.3154098 L190.707027,33.7290195 C190.707027,33.2056049 190.611532,32.8428244 190.422342,32.640678 C190.22955,32.4403366 189.89982,32.3392634 189.425946,32.3392634 C189.213333,32.3392634 189.054775,32.3428732 188.95027,32.3482878 C188.847568,32.3555073 188.75027,32.3627268 188.663784,32.375361 L188.663784,36.3154098 L188.818739,36.4688244 L189.325045,36.5283854 L189.325045,37.1727268 L185.883604,37.1727268 Z" id="Fill-27" fill="#1A3667"></path>
                <path d="M198.278018,33.4165951 C198.278018,32.855278 198.204144,32.4437659 198.054595,32.1802537 C197.905045,31.9149366 197.674414,31.7831805 197.362703,31.7831805 C197.013153,31.7831805 196.748288,31.9167415 196.571712,32.1820585 C196.395135,32.4491805 196.305045,32.8444488 196.305045,33.3696683 L196.305045,33.4165951 L198.278018,33.4165951 Z M200.398739,35.4633268 L200.398739,36.5805463 C199.937477,36.8133756 199.465405,36.9866439 198.982523,37.0985463 C198.497838,37.2122537 197.986126,37.2664 197.445586,37.2664 C196.438378,37.2664 195.638378,36.9866439 195.045586,36.4253268 C194.452793,35.8622049 194.157297,35.105961 194.157297,34.1565951 C194.157297,33.2054244 194.461802,32.4401561 195.072613,31.8644 C195.683423,31.2850341 196.488829,30.9962537 197.492432,30.9962537 C198.425766,30.9962537 199.148288,31.2615707 199.663604,31.7904 C200.177117,32.3192293 200.432973,33.062839 200.432973,34.024839 L200.432973,34.1800585 L196.265405,34.1800585 C196.278018,34.779278 196.44018,35.2521561 196.757297,35.5986927 C197.074414,35.9452293 197.496036,36.1203024 198.023964,36.1203024 C198.434775,36.1203024 198.834775,36.0661561 199.222162,35.9578634 C199.613153,35.8495707 200.004144,35.683522 200.398739,35.4633268 Z" id="Fill-29" fill="#1A3667"></path>
                <path d="M206.416036,31.3341268 L206.416036,33.1859317 L205.549369,33.1859317 L205.389009,32.2275415 L205.228649,32.0614927 C205.068288,31.9874927 204.913333,31.9315415 204.769189,31.8972488 C204.623243,31.8611512 204.482703,31.8431024 204.349369,31.8431024 C204.064685,31.8431024 203.841261,31.9008585 203.675495,32.0163707 C203.511532,32.1336878 203.428649,32.2889073 203.428649,32.4820293 C203.428649,32.8249561 203.790811,33.1299805 204.513333,33.3989073 C204.749369,33.4855415 204.934955,33.5559317 205.062883,33.6118829 C205.698919,33.8717854 206.12955,34.128078 206.36018,34.380761 C206.590811,34.6334439 206.704324,34.9547122 206.704324,35.3445659 C206.704324,35.904078 206.441261,36.3751512 205.911532,36.7577854 C205.381802,37.1404195 204.715135,37.3317366 203.911532,37.3317366 C203.52955,37.3317366 203.124144,37.3028585 202.693514,37.2432976 C202.261081,37.1837366 201.808829,37.0952976 201.338559,36.9761756 L201.338559,34.9547122 L202.205225,34.9547122 L202.352973,36.0611024 L202.488108,36.2145171 C202.700721,36.3173951 202.913333,36.3932 203.124144,36.4419317 C203.334955,36.4906634 203.545766,36.5159317 203.758378,36.5159317 C204.034054,36.5159317 204.253874,36.452761 204.417838,36.3264195 C204.58,36.200078 204.661081,36.0322244 204.661081,35.8174439 C204.661081,35.5106146 204.378198,35.2362732 203.812432,34.9962244 C203.684505,34.9402732 203.592613,34.898761 203.527748,34.8716878 C202.65027,34.4854439 202.077297,34.1569561 201.808829,33.8862244 C201.542162,33.6172976 201.408829,33.2906146 201.408829,32.9079805 C201.408829,32.3448585 201.653874,31.8864195 202.149369,31.5344683 C202.643063,31.184322 203.297117,31.0092488 204.107928,31.0092488 C204.414234,31.0092488 204.756577,31.0345171 205.136757,31.0886634 C205.516937,31.1428098 205.942162,31.2240293 206.416036,31.3341268" id="Fill-31" fill="#1A3667"></path>
                <path d="M212.74,31.3341268 L212.74,33.1859317 L211.873333,33.1859317 L211.712973,32.2275415 L211.552613,32.0614927 C211.392252,31.9874927 211.237297,31.9315415 211.093153,31.8972488 C210.947207,31.8611512 210.806667,31.8431024 210.673333,31.8431024 C210.388649,31.8431024 210.165225,31.9008585 209.999459,32.0163707 C209.835495,32.1336878 209.752613,32.2889073 209.752613,32.4820293 C209.752613,32.8249561 210.114775,33.1299805 210.837297,33.3989073 C211.073333,33.4855415 211.258919,33.5559317 211.386847,33.6118829 C212.022883,33.8717854 212.453514,34.128078 212.684144,34.380761 C212.914775,34.6334439 213.028288,34.9547122 213.028288,35.3445659 C213.028288,35.904078 212.765225,36.3751512 212.235495,36.7577854 C211.705766,37.1404195 211.039099,37.3317366 210.235495,37.3317366 C209.853514,37.3317366 209.448108,37.3028585 209.017477,37.2432976 C208.585045,37.1837366 208.132793,37.0952976 207.662523,36.9761756 L207.662523,34.9547122 L208.529189,34.9547122 L208.676937,36.0611024 L208.812072,36.2145171 C209.024685,36.3173951 209.237297,36.3932 209.448108,36.4419317 C209.658919,36.4906634 209.86973,36.5159317 210.082342,36.5159317 C210.358018,36.5159317 210.577838,36.452761 210.741802,36.3264195 C210.903964,36.200078 210.985045,36.0322244 210.985045,35.8174439 C210.985045,35.5106146 210.702162,35.2362732 210.136396,34.9962244 C210.008468,34.9402732 209.916577,34.898761 209.851712,34.8716878 C208.974234,34.4854439 208.401261,34.1569561 208.132793,33.8862244 C207.866126,33.6172976 207.732793,33.2906146 207.732793,32.9079805 C207.732793,32.3448585 207.977838,31.8864195 208.473333,31.5344683 C208.967027,31.184322 209.621081,31.0092488 210.431892,31.0092488 C210.738198,31.0092488 211.080541,31.0345171 211.460721,31.0886634 C211.840901,31.1428098 212.266126,31.2240293 212.74,31.3341268" id="Fill-33" fill="#1A3667"></path>
                <path d="M94.6216216,45.4930341 L93.6648649,48.173278 L95.5963964,48.173278 L94.6216216,45.4930341 Z M94.3027027,43.5239122 L96.045045,43.5239122 L98.8504505,50.911278 L99.5873874,51.0069366 L99.5873874,51.710839 L95.6720721,51.710839 L95.6720721,51.0069366 L96.4936937,50.9473756 L96.5873874,50.7885463 L95.9495495,48.9836683 L93.3765766,48.9836683 L92.7675676,50.7759122 L92.8918919,50.9239122 L93.6648649,51.0069366 L93.6648649,51.710839 L90.7477477,51.710839 L90.7477477,51.0069366 L91.5333333,50.9600098 L94.3027027,43.5239122 Z" id="Fill-35" fill="#1A3667"></path>
                <path d="M104.406667,50.4864098 L104.406667,46.5517756 C104.251712,46.4886049 104.109369,46.4434829 103.977838,46.4128 C103.844505,46.383922 103.721982,46.3694829 103.61027,46.3694829 C103.136396,46.3694829 102.770631,46.5608 102.509369,46.9434341 C102.251712,47.3260683 102.12018,47.8657268 102.12018,48.5642146 C102.12018,49.2302146 102.255315,49.7265561 102.521982,50.0550439 C102.79045,50.3817268 103.195856,50.5459707 103.738198,50.5459707 C103.826486,50.5459707 103.925586,50.5405561 104.040901,50.5297268 C104.152613,50.5207024 104.276937,50.5062634 104.406667,50.4864098 Z M104.406667,44.0195317 L103.532793,44.0195317 L103.532793,43.4221171 L105.721982,42.7073854 L106.39045,42.7073854 L106.39045,50.8401659 L106.545405,51.0423122 L107.233694,51.0946537 L107.233694,51.7101171 L104.406667,51.7101171 L104.406667,50.971922 C103.918378,51.2895805 103.521982,51.5097756 103.215676,51.6270927 C102.911171,51.7462146 102.615676,51.8039707 102.327387,51.8039707 C101.603063,51.8039707 101.013874,51.5260195 100.561622,50.9647024 C100.107568,50.4051902 99.8823423,49.6760195 99.8823423,48.7771902 C99.8823423,47.8224098 100.17964,47.0445073 100.776036,46.4452878 C101.372432,45.8460683 102.143604,45.5464585 103.08955,45.5464585 C103.253514,45.5464585 103.444505,45.5572878 103.658919,45.5789463 C103.873333,45.6006049 104.121982,45.6330927 104.406667,45.6764098 L104.406667,44.0195317 Z" id="Fill-37" fill="#1A3667"></path>
                <path d="M114.334054,46.427961 C114.842162,46.1391805 115.294414,45.9244 115.692613,45.7836195 C116.090811,45.6410341 116.436757,45.5706439 116.732252,45.5706439 C117.334054,45.5706439 117.777297,45.747522 118.06018,46.0994732 C118.344865,46.4532293 118.485405,47.0091317 118.485405,47.7707902 L118.485405,50.853522 L118.602523,51.0069366 L119.270991,51.0646927 L119.270991,51.710839 L115.870991,51.710839 L115.870991,51.0646927 L116.341261,51.0069366 L116.489009,50.853522 L116.489009,48.2671317 C116.489009,47.7401073 116.397117,47.375522 116.207928,47.1769854 C116.022342,46.9766439 115.692613,46.8773756 115.218739,46.8773756 C115.049369,46.8773756 114.908829,46.8845951 114.797117,46.8990341 C114.685405,46.9116683 114.584505,46.9333268 114.494414,46.9604 L114.494414,50.853522 L114.64036,51.0177659 L115.171892,51.0827415 L115.171892,51.710839 L111.943063,51.710839 L111.943063,51.0430341 L112.379099,51.0177659 L112.521441,50.8120098 L112.521441,48.1137171 C112.521441,47.6805463 112.424144,47.3664976 112.234955,47.1697659 C112.043964,46.974839 111.735856,46.8773756 111.310631,46.8773756 L111.090811,46.8773756 C110.97009,46.8773756 110.874595,46.8791805 110.807928,46.8864 C110.741261,46.8918146 110.681802,46.900839 110.624144,46.9134732 L110.624144,50.853522 L110.779099,51.0069366 L111.227748,51.0646927 L111.227748,51.710839 L107.843964,51.710839 L107.843964,51.0646927 L108.469189,51.0069366 L108.604324,50.853522 L108.604324,46.8665463 L107.843964,46.8665463 L107.843964,46.2691317 L109.923243,45.5706439 L110.624144,45.5706439 L110.624144,46.3557659 C111.078198,46.0886439 111.481802,45.8901073 111.834955,45.761961 C112.191712,45.6338146 112.510631,45.5706439 112.797117,45.5706439 C113.121441,45.5706439 113.402523,45.6392293 113.645766,45.7745951 C113.889009,45.909961 114.117838,46.1283512 114.334054,46.427961" id="Fill-39" fill="#1A3667"></path>
                <path d="M120.504865,43.8722537 C120.504865,43.5365463 120.609369,43.2658146 120.814775,43.0564488 C121.021982,42.8470829 121.29045,42.7424 121.62018,42.7424 C121.935495,42.7424 122.198559,42.8470829 122.412973,43.052839 C122.625586,43.2604 122.73009,43.5130829 122.73009,43.8126927 C122.73009,44.1520098 122.623784,44.429961 122.409369,44.6483512 C122.193153,44.8649366 121.924685,44.9732293 121.596757,44.9732293 C121.29045,44.9732293 121.030991,44.8667415 120.821982,44.6573756 C120.611171,44.4444 120.504865,44.1844976 120.504865,43.8722537 Z M121.91027,45.5706439 L122.612973,45.5706439 L122.612973,50.853522 L122.767928,51.0069366 L123.504865,51.0646927 L123.504865,51.710839 L119.742703,51.710839 L119.742703,51.0646927 L120.458018,51.0069366 L120.593153,50.853522 L120.593153,46.8665463 L119.812973,46.8665463 L119.812973,46.2691317 L121.91027,45.5706439 Z" id="Fill-41" fill="#1A3667"></path>
                <path d="M124.113874,51.710478 L124.113874,51.0661366 L124.739099,51.0065756 L124.874234,50.853161 L124.874234,46.8661854 L124.023784,46.8661854 L124.023784,46.2687707 L126.191351,45.5702829 L126.894054,45.5702829 L126.894054,46.3572098 C127.45982,46.0612098 127.915676,45.8554537 128.25982,45.7417463 C128.60036,45.628039 128.903063,45.5702829 129.167928,45.5702829 C129.771532,45.5702829 130.212973,45.747161 130.497658,46.0991122 C130.780541,46.4528683 130.921081,47.0105756 130.921081,47.7704293 L130.921081,50.853161 L131.052613,51.0065756 L131.708468,51.0661366 L131.708468,51.710478 L128.317477,51.710478 L128.317477,51.0661366 L128.791351,51.0065756 L128.937297,50.853161 L128.937297,48.2667707 C128.937297,47.7433561 128.841802,47.3805756 128.652613,47.1784293 C128.45982,46.9780878 128.13009,46.8770146 127.656216,46.8770146 C127.443604,46.8770146 127.285045,46.8806244 127.180541,46.886039 C127.077838,46.8932585 126.980541,46.900478 126.894054,46.9131122 L126.894054,50.853161 L127.049009,51.0065756 L127.555315,51.0661366 L127.555315,51.710478 L124.113874,51.710478 Z" id="Fill-43" fill="#1A3667"></path>
                <path d="M132.989189,43.8722537 C132.989189,43.5365463 133.093694,43.2658146 133.299099,43.0564488 C133.506306,42.8470829 133.774775,42.7424 134.104505,42.7424 C134.41982,42.7424 134.682883,42.8470829 134.897297,43.052839 C135.10991,43.2604 135.214414,43.5130829 135.214414,43.8126927 C135.214414,44.1520098 135.108108,44.429961 134.893694,44.6483512 C134.677477,44.8649366 134.409009,44.9732293 134.081081,44.9732293 C133.774775,44.9732293 133.515315,44.8667415 133.306306,44.6573756 C133.095495,44.4444 132.989189,44.1844976 132.989189,43.8722537 Z M134.394595,45.5706439 L135.097297,45.5706439 L135.097297,50.853522 L135.252252,51.0069366 L135.989189,51.0646927 L135.989189,51.710839 L132.227027,51.710839 L132.227027,51.0646927 L132.942342,51.0069366 L133.077477,50.853522 L133.077477,46.8665463 L132.297297,46.8665463 L132.297297,46.2691317 L134.394595,45.5706439 Z" id="Fill-45" fill="#1A3667"></path>
                <path d="M141.794054,45.871878 L141.794054,47.7236829 L140.927387,47.7236829 L140.767027,46.7652927 L140.606667,46.5992439 C140.446306,46.5252439 140.291351,46.4692927 140.147207,46.435 C140.001261,46.3989024 139.860721,46.3808537 139.727387,46.3808537 C139.442703,46.3808537 139.219279,46.4386098 139.053514,46.554122 C138.88955,46.671439 138.806667,46.8266585 138.806667,47.0197805 C138.806667,47.3627073 139.168829,47.6677317 139.891351,47.9366585 C140.127387,48.0232927 140.312973,48.0936829 140.440901,48.1496341 C141.076937,48.4095366 141.507568,48.6658293 141.738198,48.9185122 C141.968829,49.1711951 142.082342,49.4924634 142.082342,49.8823171 C142.082342,50.4418293 141.819279,50.9129024 141.28955,51.2955366 C140.75982,51.6781707 140.093153,51.8694878 139.28955,51.8694878 C138.907568,51.8694878 138.502162,51.8406098 138.071532,51.7810488 C137.639099,51.7214878 137.186847,51.6330488 136.716577,51.5139268 L136.716577,49.4924634 L137.583243,49.4924634 L137.730991,50.5988537 L137.866126,50.7522683 C138.078739,50.8551463 138.291351,50.9309512 138.502162,50.9796829 C138.712973,51.0284146 138.923784,51.0536829 139.136396,51.0536829 C139.412072,51.0536829 139.631892,50.9905122 139.795856,50.8641707 C139.958018,50.7378293 140.039099,50.5699756 140.039099,50.3551951 C140.039099,50.0483659 139.756216,49.7740244 139.19045,49.5339756 C139.062523,49.4780244 138.970631,49.4365122 138.905766,49.409439 C138.028288,49.0231951 137.455315,48.6947073 137.186847,48.4239756 C136.92018,48.1550488 136.786847,47.8283659 136.786847,47.4457317 C136.786847,46.8826098 137.031892,46.4241707 137.527387,46.0722195 C138.021081,45.7220732 138.675135,45.547 139.485946,45.547 C139.792252,45.547 140.134595,45.5722683 140.514775,45.6264146 C140.894955,45.680561 141.32018,45.7617805 141.794054,45.871878" id="Fill-47" fill="#1A3667"></path>
                <path d="M143.571171,46.7770244 L142.702703,46.7770244 L142.702703,46.221122 L143.742342,45.5713659 L144.504505,44.1617561 L145.578378,44.1617561 L145.578378,45.8836098 L147.416216,45.8836098 L147.416216,46.7770244 L145.578378,46.7770244 L145.578378,49.6034634 C145.578378,50.0185854 145.657658,50.2983415 145.818018,50.4409268 C145.976577,50.5853171 146.284685,50.6575122 146.742342,50.6575122 C146.836036,50.6575122 146.938739,50.6502927 147.048649,50.6394634 C147.158559,50.6286341 147.281081,50.6105854 147.416216,50.587122 L147.416216,51.2856098 C146.987387,51.4462439 146.583784,51.5689756 146.207207,51.6538049 C145.832432,51.7386341 145.497297,51.7819512 145.205405,51.7819512 C144.886486,51.7819512 144.603604,51.7332195 144.356757,51.6339512 C144.108108,51.5346829 143.913514,51.3957073 143.776577,51.2134146 C143.702703,51.1141463 143.648649,50.9733659 143.618018,50.7910732 C143.587387,50.6069756 143.571171,50.3163902 143.571171,49.9175122 L143.571171,46.7770244 Z" id="Fill-49" fill="#1A3667"></path>
                <path d="M147.804685,51.710478 L147.804685,51.0661366 L148.471351,51.0065756 L148.606486,50.853161 L148.606486,46.8661854 L147.698378,46.8661854 L147.698378,46.2687707 L149.925405,45.5702829 L150.626306,45.5702829 L150.514595,46.9492098 C150.77045,46.6694537 151.035315,46.4167707 151.305586,46.1947707 C151.579459,45.9709659 151.855135,45.7796488 152.138018,45.6172098 C152.179459,45.6172098 152.237117,45.6136 152.316396,45.6063805 C152.395676,45.5973561 152.451532,45.5937463 152.487568,45.5937463 C152.651532,45.5937463 152.799279,45.6136 152.927207,45.6496976 C153.055135,45.6876 153.172252,45.7453561 153.273153,45.8247707 L152.938018,48.1620878 L152.074955,48.1620878 C151.968649,47.8805268 151.820901,47.6765756 151.631712,47.5466244 C151.442523,47.4166732 151.201081,47.3498927 150.905586,47.3498927 C150.82991,47.3498927 150.772252,47.3516976 150.734414,47.3535024 C150.694775,47.3553073 150.658739,47.3589171 150.626306,47.3625268 L150.626306,50.853161 L150.781261,51.0065756 L151.689369,51.0661366 L151.689369,51.710478 L147.804685,51.710478 Z" id="Fill-51" fill="#1A3667"></path>
                <path d="M157.797297,50.438761 L157.797297,48.6230537 C157.148649,48.706078 156.683784,48.839639 156.406306,49.0255415 C156.128829,49.209639 155.99009,49.476761 155.99009,49.8232976 C155.99009,50.0759805 156.074775,50.2799317 156.244144,50.4351512 C156.411712,50.5903707 156.635135,50.6697854 156.910811,50.6697854 C157.036937,50.6697854 157.172072,50.6499317 157.318018,50.6102244 C157.463964,50.5705171 157.622523,50.5145659 157.797297,50.438761 Z M157.797297,51.030761 C157.364865,51.3105171 156.964865,51.5198829 156.600901,51.6606634 C156.236937,51.799639 155.901802,51.8700293 155.593694,51.8700293 C155.074775,51.8700293 154.651351,51.7148098 154.321622,51.4025659 C153.993694,51.0921268 153.827928,50.689639 153.827928,50.1969073 C153.827928,49.8251024 153.930631,49.4930049 154.13964,49.1970049 C154.345045,48.9010049 154.618919,48.6898341 154.963063,48.5634927 C155.236937,48.4606146 155.618919,48.3469073 156.105405,48.2205659 C156.591892,48.0942244 157.163063,47.9624683 157.820721,47.8234927 L157.820721,47.4679317 C157.820721,47.078078 157.705405,46.7838829 157.478378,46.5817366 C157.24955,46.3795902 156.916216,46.280322 156.474775,46.280322 L156.285586,46.280322 L156.285586,47.5401268 L154.844144,47.5401268 C154.577477,47.5401268 154.388288,47.5022244 154.28018,47.4282244 C154.172072,47.3524195 154.118018,47.226078 154.118018,47.0492 C154.118018,46.650322 154.417117,46.3019805 155.015315,46.0041756 C155.613514,45.7063707 156.354054,45.5583707 157.235135,45.5583707 C157.77027,45.5583707 158.227928,45.6269561 158.606306,45.7659317 C158.982883,45.9031024 159.276577,46.1088585 159.485586,46.3795902 C159.611712,46.5420293 159.703604,46.7297366 159.757658,46.9445171 C159.811712,47.1611024 159.840541,47.507639 159.840541,47.9895415 L159.840541,48.1249073 L159.840541,50.8773463 L159.97027,51.0181268 L160.636937,51.0957366 L160.636937,51.7112 L157.963063,51.7112 L157.797297,51.030761 Z" id="Fill-53" fill="#1A3667"></path>
                <path d="M161.84955,46.7770244 L160.981081,46.7770244 L160.981081,46.221122 L162.020721,45.5713659 L162.782883,44.1617561 L163.856757,44.1617561 L163.856757,45.8836098 L165.694595,45.8836098 L165.694595,46.7770244 L163.856757,46.7770244 L163.856757,49.6034634 C163.856757,50.0185854 163.936036,50.2983415 164.096396,50.4409268 C164.254955,50.5853171 164.563063,50.6575122 165.020721,50.6575122 C165.114414,50.6575122 165.217117,50.6502927 165.327027,50.6394634 C165.436937,50.6286341 165.559459,50.6105854 165.694595,50.587122 L165.694595,51.2856098 C165.265766,51.4462439 164.862162,51.5689756 164.485586,51.6538049 C164.110811,51.7386341 163.775676,51.7819512 163.483784,51.7819512 C163.164865,51.7819512 162.881982,51.7332195 162.635135,51.6339512 C162.386486,51.5346829 162.191892,51.3957073 162.054955,51.2134146 C161.981081,51.1141463 161.927027,50.9733659 161.896396,50.7910732 C161.865766,50.6069756 161.84955,50.3163902 161.84955,49.9175122 L161.84955,46.7770244 Z" id="Fill-55" fill="#1A3667"></path>
                <path d="M166.797477,43.8722537 C166.797477,43.5365463 166.901982,43.2658146 167.107387,43.0564488 C167.314595,42.8470829 167.583063,42.7424 167.912793,42.7424 C168.228108,42.7424 168.491171,42.8470829 168.705586,43.052839 C168.918198,43.2604 169.022703,43.5130829 169.022703,43.8126927 C169.022703,44.1520098 168.916396,44.429961 168.701982,44.6483512 C168.485766,44.8649366 168.217297,44.9732293 167.889369,44.9732293 C167.583063,44.9732293 167.323604,44.8667415 167.114595,44.6573756 C166.903784,44.4444 166.797477,44.1844976 166.797477,43.8722537 Z M168.202883,45.5706439 L168.905586,45.5706439 L168.905586,50.853522 L169.060541,51.0069366 L169.797477,51.0646927 L169.797477,51.710839 L166.035315,51.710839 L166.035315,51.0646927 L166.750631,51.0069366 L166.885766,50.853522 L166.885766,46.8665463 L166.105586,46.8665463 L166.105586,46.2691317 L168.202883,45.5706439 Z" id="Fill-57" fill="#1A3667"></path>
                <path d="M173.973153,46.3212927 C173.555135,46.3212927 173.245225,46.5144146 173.041622,46.9006585 C172.83982,47.2887073 172.737117,47.8807073 172.737117,48.6820732 C172.737117,49.4906585 172.838018,50.0844634 173.038018,50.4670976 C173.23982,50.8515366 173.551532,51.0428537 173.973153,51.0428537 C174.385766,51.0428537 174.688468,50.8569512 174.884865,50.4887561 C175.079459,50.120561 175.176757,49.5411951 175.176757,48.7524634 C175.176757,47.9131951 175.079459,47.2977317 174.888468,46.907878 C174.693874,46.5162195 174.389369,46.3212927 173.973153,46.3212927 M174.043423,45.5704634 C175.102883,45.5704634 175.933514,45.8466098 176.535315,46.4007073 C177.138919,46.9548049 177.43982,47.7146585 177.43982,48.6820732 C177.43982,49.6675366 177.135315,50.4328049 176.526306,50.977878 C175.917297,51.5211463 175.05964,51.7936829 173.947928,51.7936829 C172.841622,51.7936829 171.985766,51.5211463 171.383964,50.9796829 C170.778559,50.4382195 170.477658,49.6711463 170.477658,48.6820732 C170.477658,47.7002195 170.789369,46.9349512 171.414595,46.389878 C172.041622,45.843 172.917297,45.5704634 174.043423,45.5704634" id="Fill-59" fill="#1A3667"></path>
                <path d="M178.266486,51.710478 L178.266486,51.0661366 L178.891712,51.0065756 L179.026847,50.853161 L179.026847,46.8661854 L178.176396,46.8661854 L178.176396,46.2687707 L180.343964,45.5702829 L181.046667,45.5702829 L181.046667,46.3572098 C181.612432,46.0612098 182.068288,45.8554537 182.412432,45.7417463 C182.752973,45.628039 183.055676,45.5702829 183.320541,45.5702829 C183.924144,45.5702829 184.365586,45.747161 184.65027,46.0991122 C184.933153,46.4528683 185.073694,47.0105756 185.073694,47.7704293 L185.073694,50.853161 L185.205225,51.0065756 L185.861081,51.0661366 L185.861081,51.710478 L182.47009,51.710478 L182.47009,51.0661366 L182.943964,51.0065756 L183.08991,50.853161 L183.08991,48.2667707 C183.08991,47.7433561 182.994414,47.3805756 182.805225,47.1784293 C182.612432,46.9780878 182.282703,46.8770146 181.808829,46.8770146 C181.596216,46.8770146 181.437658,46.8806244 181.333153,46.886039 C181.23045,46.8932585 181.133153,46.900478 181.046667,46.9131122 L181.046667,50.853161 L181.201622,51.0065756 L181.707928,51.0661366 L181.707928,51.710478 L178.266486,51.710478 Z" id="Fill-61" fill="#1A3667"></path>
                <polygon id="Fill-63" fill="#CA2026" points="61.5223423 69.0928976 12.9421622 69.0928976 12.4845045 69.0928976 12.4845045 68.5929463 12.4845045 61.4293854 8.31693694 61.4293854 8.31693694 73.6628488 61.5457658 73.6628488"></polygon>
                <polygon id="Fill-65" fill="#1A3667" points="8.39027027 23.0121951 12.5578378 23.0121951 12.5578378 15.8486341 12.5578378 15.3486829 13.0136937 15.3486829 61.1362162 15.3486829 61.5938739 15.3486829 61.5938739 15.8486341 61.5938739 23.0121951 65.7614414 23.0121951 65.7614414 10.7787317 8.39027027 10.7787317"></polygon>
                <path d="M5.03297297,47.8592293 C5.06900901,49.4511317 5.76630631,52.4779122 10.3428829,52.4779122 C12.8257658,52.4779122 15.5861261,51.8010829 15.5861261,48.7743024 C15.5861261,46.545278 13.6996396,45.9478634 11.0437838,45.2313268 L8.35369369,44.5147902 C4.29963964,43.4390829 0.386126126,42.4066927 0.386126126,36.1148878 C0.386126126,32.9310829 1.88882883,27.3197171 10.0275676,27.3197171 C17.7176577,27.3197171 19.7807207,33.0502049 19.8167568,36.5534732 L14.7825225,36.5534732 C14.6437838,35.2810341 14.223964,32.2542537 9.64558559,32.2542537 C7.65279279,32.2542537 5.27801802,33.0917171 5.27801802,35.6781073 C5.27801802,37.9071317 6.88342342,38.3854244 7.93207207,38.6633756 L14.0491892,40.3762049 C17.4726126,41.3309854 20.6167568,42.9210829 20.6167568,48.055961 C20.6167568,56.6562049 12.9302703,57.4124488 10.7302703,57.4124488 C1.57531532,57.4124488 0.000540540541,51.4022049 0.000540540541,47.8592293 L5.03297297,47.8592293 Z" id="Fill-67" fill="#1A3667"></path>
                <path d="M27.2475676,28.075961 L39.9142342,28.075961 C46.3034234,28.075961 47.9358559,32.4545951 47.9358559,35.4001561 C47.9358559,39.4990341 45.8313514,40.655961 44.7412613,41.2515707 C47.9358559,42.565522 48.7700901,45.3504488 48.7700901,48.1786927 C48.7700901,50.4474244 47.8998198,52.5952293 46.5214414,54.0698146 C45.0331532,55.6599122 43.6169369,56.6562049 38.2818018,56.6562049 L27.2475676,56.6562049 L27.2475676,28.075961 Z M32.4745946,39.2607902 L38.861982,39.2607902 C41.0043243,39.2607902 42.7106306,38.3457171 42.7106306,36.0769854 C42.7106306,33.7270341 41.1863063,33.0104976 38.7178378,33.0104976 L32.4745946,33.0104976 L32.4745946,39.2607902 Z M32.4745946,51.7198634 L39.1520721,51.7198634 C41.8025225,51.7198634 43.3268468,50.4474244 43.3268468,47.5397659 C43.3268468,45.0345951 41.3664865,44.0762049 39.4061261,44.0762049 L32.4745946,44.0762049 L32.4745946,51.7198634 Z" id="Fill-69" fill="#1A3667"></path>
                <polygon id="Fill-71" fill="#1A3667" points="65.7207207 28.0663951 61.5873874 28.0663951 53.3063063 56.6646878 58.5351351 56.6646878 63.6054054 37.8885415 68.7603604 56.6646878 73.9873874 56.6646878"></polygon>
                <polygon id="Fill-73" fill="#1A3667" points="65.6872072 69.0656439 61.5448649 73.6626683 61.5448649 56.736522 65.6872072 56.736522"></polygon>
                <path d="M344.890811,65.9132439 C344.696216,65.9132439 344.510631,65.8843659 344.339459,65.8284146 C344.168288,65.7706585 344.020541,65.6768049 343.898018,65.5432439 C343.773694,65.4114878 343.676396,65.2400244 343.606126,65.0270488 C343.535856,64.815878 343.49982,64.5541707 343.49982,64.2419268 L343.49982,61.9695854 L343.98991,61.9695854 L343.98991,64.254561 C343.98991,64.4873902 344.013333,64.6823171 344.06018,64.8393415 C344.107027,64.9963659 344.171892,65.1227073 344.252973,65.216561 C344.332252,65.3104146 344.427748,65.3771951 344.537658,65.4205122 C344.647568,65.4602195 344.764685,65.481878 344.890811,65.481878 C345.020541,65.481878 345.139459,65.4602195 345.251171,65.4205122 C345.359279,65.3771951 345.456577,65.3104146 345.539459,65.216561 C345.622342,65.1227073 345.685405,64.9963659 345.734054,64.8393415 C345.780901,64.6823171 345.804324,64.4873902 345.804324,64.254561 L345.804324,61.9695854 L346.276396,61.9695854 L346.276396,64.2419268 C346.276396,64.5541707 346.24036,64.815878 346.17009,65.0270488 C346.098018,65.2400244 346.000721,65.4114878 345.878198,65.5432439 C345.753874,65.6768049 345.607928,65.7706585 345.438559,65.8284146 C345.269189,65.8843659 345.087207,65.9132439 344.890811,65.9132439 Z M347.431351,65.9132439 C347.332252,65.9132439 347.251171,65.8789512 347.180901,65.808561 C347.110631,65.7417805 347.076396,65.6533415 347.076396,65.5468537 C347.076396,65.4331463 347.110631,65.3410976 347.180901,65.2725122 C347.251171,65.2039268 347.332252,65.1696341 347.431351,65.1696341 C347.525045,65.1696341 347.606126,65.2039268 347.674595,65.2725122 C347.743063,65.3410976 347.779099,65.4331463 347.779099,65.5468537 C347.779099,65.6533415 347.743063,65.7417805 347.674595,65.808561 C347.606126,65.8789512 347.525045,65.9132439 347.431351,65.9132439 Z M349.764685,65.9132439 C349.492613,65.9132439 349.24036,65.8627073 349.00973,65.7598293 C348.777297,65.6569512 348.577297,65.5179756 348.407928,65.3392927 L348.703423,64.9981707 C348.84036,65.1443659 349.002523,65.2616829 349.18991,65.350122 C349.375495,65.4367561 349.568288,65.481878 349.77009,65.481878 C350.027748,65.481878 350.222342,65.424122 350.364685,65.3086098 C350.505225,65.1912927 350.577297,65.0396829 350.577297,64.8501707 C350.577297,64.7527073 350.561081,64.667878 350.526847,64.5992927 C350.494414,64.5307073 350.447568,64.4729512 350.391712,64.4224146 C350.334054,64.3736829 350.267387,64.328561 350.188108,64.2888537 C350.108829,64.2509512 350.027748,64.209439 349.934054,64.166122 L349.380901,63.9242683 C349.290811,63.884561 349.200721,63.8376341 349.103423,63.7816829 C349.00973,63.7275366 348.925045,63.6607561 348.851171,63.5813415 C348.775495,63.5019268 348.714234,63.4080732 348.667387,63.3015854 C348.620541,63.1932927 348.597117,63.0669512 348.597117,62.9261707 C348.597117,62.7799756 348.627748,62.6446098 348.689009,62.5182683 C348.75027,62.3919268 348.833153,62.2836341 348.941261,62.1915854 C349.049369,62.0977317 349.177297,62.0273415 349.325045,61.9768049 C349.472793,61.9244634 349.634955,61.8991951 349.811532,61.8991951 C350.042162,61.8991951 350.256577,61.9425122 350.452973,62.0309512 C350.649369,62.1211951 350.816937,62.2349024 350.953874,62.3774878 L350.689009,62.6969512 C350.571892,62.581439 350.44036,62.493 350.298018,62.4262195 C350.153874,62.3630488 349.991712,62.330561 349.811532,62.330561 C349.595315,62.330561 349.420541,62.3792927 349.289009,62.4803659 C349.157477,62.581439 349.092613,62.7204146 349.092613,62.8954878 C349.092613,62.9911463 349.110631,63.070561 349.148468,63.1355366 C349.184505,63.2005122 349.234955,63.2582683 349.298018,63.307 C349.361081,63.3557317 349.42955,63.3990488 349.507027,63.4369512 C349.580901,63.4748537 349.658378,63.5091463 349.734054,63.5398293 L350.281802,63.7762683 C350.391712,63.8231951 350.496216,63.8773415 350.595315,63.9387073 C350.692613,63.9982683 350.777297,64.0704634 350.847568,64.149878 C350.91964,64.2310976 350.973694,64.3267561 351.015135,64.4350488 C351.056577,64.5415366 351.08,64.6660732 351.08,64.8086585 C351.08,64.9620732 351.047568,65.1064634 350.986306,65.2400244 C350.925045,65.3735854 350.838559,65.4909024 350.725045,65.5919756 C350.60973,65.6912439 350.472793,65.7706585 350.312432,65.8284146 C350.15027,65.8843659 349.968288,65.9132439 349.764685,65.9132439 Z M352.043964,65.9132439 C351.946667,65.9132439 351.863784,65.8789512 351.793514,65.808561 C351.725045,65.7417805 351.690811,65.6533415 351.690811,65.5468537 C351.690811,65.4331463 351.725045,65.3410976 351.793514,65.2725122 C351.863784,65.2039268 351.946667,65.1696341 352.043964,65.1696341 C352.139459,65.1696341 352.220541,65.2039268 352.289009,65.2725122 C352.357477,65.3410976 352.391712,65.4331463 352.391712,65.5468537 C352.391712,65.6533415 352.357477,65.7417805 352.289009,65.808561 C352.220541,65.8789512 352.139459,65.9132439 352.043964,65.9132439 Z M355.555676,65.9132439 C355.285405,65.9132439 355.033153,65.8627073 354.802523,65.7598293 C354.57009,65.6569512 354.37009,65.5179756 354.200721,65.3392927 L354.496216,64.9981707 C354.633153,65.1443659 354.795315,65.2616829 354.982703,65.350122 C355.168288,65.4367561 355.362883,65.481878 355.562883,65.481878 C355.816937,65.481878 356.015135,65.424122 356.157477,65.3086098 C356.298018,65.1912927 356.37009,65.0396829 356.37009,64.8501707 C356.37009,64.7527073 356.353874,64.667878 356.31964,64.5992927 C356.285405,64.5307073 356.24036,64.4729512 356.186306,64.4224146 C356.126847,64.3736829 356.058378,64.328561 355.980901,64.2888537 C355.901622,64.2509512 355.816937,64.209439 355.726847,64.166122 L355.173694,63.9242683 C355.081802,63.884561 354.991712,63.8376341 354.896216,63.7816829 C354.802523,63.7275366 354.717838,63.6607561 354.642162,63.5813415 C354.568288,63.5019268 354.507027,63.4080732 354.461982,63.3015854 C354.413333,63.1932927 354.38991,63.0669512 354.38991,62.9261707 C354.38991,62.7799756 354.420541,62.6446098 354.481802,62.5182683 C354.541261,62.3919268 354.625946,62.2836341 354.734054,62.1915854 C354.842162,62.0977317 354.97009,62.0273415 355.117838,61.9768049 C355.263784,61.9244634 355.425946,61.8991951 355.604324,61.8991951 C355.834955,61.8991951 356.049369,61.9425122 356.245766,62.0309512 C356.442162,62.1211951 356.60973,62.2349024 356.746667,62.3774878 L356.481802,62.6969512 C356.362883,62.581439 356.233153,62.493 356.089009,62.4262195 C355.946667,62.3630488 355.784505,62.330561 355.604324,62.330561 C355.386306,62.330561 355.213333,62.3792927 355.081802,62.4803659 C354.95027,62.581439 354.885405,62.7204146 354.885405,62.8954878 C354.885405,62.9911463 354.903423,63.070561 354.941261,63.1355366 C354.977297,63.2005122 355.027748,63.2582683 355.090811,63.307 C355.153874,63.3557317 355.222342,63.3990488 355.298018,63.4369512 C355.371892,63.4748537 355.447568,63.5091463 355.526847,63.5398293 L356.074595,63.7762683 C356.186306,63.8231951 356.289009,63.8773415 356.386306,63.9387073 C356.485405,63.9982683 356.57009,64.0704634 356.64036,64.149878 C356.710631,64.2310976 356.766486,64.3267561 356.807928,64.4350488 C356.849369,64.5415366 356.870991,64.6660732 356.870991,64.8086585 C356.870991,64.9620732 356.84036,65.1064634 356.779099,65.2400244 C356.717838,65.3735854 356.633153,65.4909024 356.517838,65.5919756 C356.402523,65.6912439 356.265586,65.7706585 356.105225,65.8284146 C355.943063,65.8843659 355.761081,65.9132439 355.555676,65.9132439 Z M357.631351,65.8428537 L357.631351,62.7835854 L358.179099,62.7835854 L358.780901,64.343 L358.997117,64.9512439 L359.022342,64.9512439 L359.245766,64.343 L359.834955,62.7835854 L360.382703,62.7835854 L360.382703,65.8428537 L359.941261,65.8428537 L359.941261,64.3303659 C359.941261,64.2599756 359.943063,64.1841707 359.946667,64.1011463 C359.95027,64.018122 359.953874,63.9350976 359.959279,63.8484634 C359.962883,63.765439 359.966486,63.6806098 359.973694,63.5957805 C359.979099,63.5109512 359.986306,63.4333415 359.993514,63.3629512 L359.97009,63.3629512 L359.705225,64.0524146 L359.121441,65.5468537 L358.885405,65.5468537 L358.301622,64.0524146 L358.036757,63.3629512 L358.013333,63.3629512 C358.016937,63.4333415 358.024144,63.5109512 358.031351,63.5921707 C358.038559,63.6751951 358.045766,63.7600244 358.051171,63.8466585 C358.058378,63.9332927 358.065586,64.018122 358.067387,64.1011463 C358.070991,64.1841707 358.072793,64.2599756 358.072793,64.3303659 L358.072793,65.8428537 L357.631351,65.8428537 Z M360.93045,65.8428537 L362.020541,62.7835854 L362.575495,62.7835854 L363.670991,65.8428537 L363.152072,65.8428537 L362.869189,64.980122 L361.708829,64.980122 L361.425946,65.8428537 L360.93045,65.8428537 Z M361.973694,64.1787561 L361.833153,64.6137317 L362.752072,64.6137317 L362.611532,64.1787561 C362.555676,64.0090976 362.505225,63.8412439 362.456577,63.6788049 C362.40973,63.5163659 362.359279,63.3503171 362.305225,63.1806585 L362.28,63.1806585 C362.225946,63.3539268 362.173694,63.5199756 362.126847,63.6806098 C362.08,63.8430488 362.02955,64.0090976 361.973694,64.1787561 Z M364.213333,65.8428537 L364.213333,62.7835854 L364.701622,62.7835854 L364.701622,65.4349512 L366.09982,65.4349512 L366.09982,65.8428537 L364.213333,65.8428537 Z M366.788108,65.8428537 L366.788108,62.7835854 L367.278198,62.7835854 L367.278198,65.4349512 L368.674595,65.4349512 L368.674595,65.8428537 L366.788108,65.8428537 Z M370.543063,65.8428537 L370.543063,61.9695854 L371.692613,61.9695854 C371.889009,61.9695854 372.067387,61.9876341 372.231351,62.0237317 C372.393514,62.0598293 372.532252,62.1139756 372.649369,62.1879756 C372.764685,62.2619756 372.856577,62.359439 372.91964,62.4803659 C372.984505,62.6012927 373.016937,62.7456829 373.016937,62.9153415 C373.016937,63.1066585 372.97009,63.2817317 372.872793,63.4369512 C372.779099,63.5921707 372.636757,63.6986585 372.451171,63.7582195 L372.451171,63.7816829 C372.687207,63.825 372.878198,63.9242683 373.024144,64.075878 C373.168288,64.2310976 373.242162,64.4404634 373.242162,64.7093902 C373.242162,64.8989024 373.206126,65.0631463 373.135856,65.2039268 C373.063784,65.3465122 372.964685,65.4656341 372.834955,65.5576829 C372.705225,65.6533415 372.55027,65.7237317 372.368288,65.7706585 C372.188108,65.8193902 371.98991,65.8428537 371.773694,65.8428537 L370.543063,65.8428537 Z M371.031351,63.617439 L371.602523,63.617439 C371.934054,63.617439 372.17009,63.5596829 372.316036,63.4459756 C372.461982,63.3304634 372.534054,63.1770488 372.534054,62.9785122 C372.534054,62.7547073 372.458378,62.595878 372.307027,62.5002195 C372.155676,62.4063659 371.928649,62.359439 371.627748,62.359439 L371.031351,62.359439 L371.031351,63.617439 Z M371.031351,65.453 L371.703423,65.453 C372.036757,65.453 372.296216,65.3898293 372.481802,65.2670976 C372.665586,65.142561 372.757477,64.9512439 372.757477,64.6913415 C372.757477,64.4512927 372.667387,64.2744146 372.487207,64.1625122 C372.307027,64.0506098 372.045766,63.9946585 371.703423,63.9946585 L371.031351,63.9946585 L371.031351,65.453 Z M375.292613,65.9132439 C375.11964,65.9132439 374.959279,65.8915854 374.813333,65.8446585 C374.665586,65.7995366 374.537658,65.7237317 374.42955,65.6172439 C374.321441,65.512561 374.236757,65.3735854 374.175495,65.202122 C374.114234,65.0306585 374.083604,64.8194878 374.083604,64.5668049 L374.083604,62.7835854 L374.573694,62.7835854 L374.573694,64.5740244 C374.573694,64.7490976 374.591712,64.8989024 374.627748,65.0144146 C374.661982,65.1335366 374.712432,65.2273902 374.777297,65.2995854 C374.842162,65.3699756 374.917838,65.4223171 375.006126,65.453 C375.096216,65.4836829 375.191712,65.4999268 375.298018,65.4999268 C375.404324,65.4999268 375.501622,65.4836829 375.58991,65.453 C375.678198,65.4223171 375.755676,65.3699756 375.820541,65.2995854 C375.885405,65.2273902 375.935856,65.1335366 375.973694,65.0144146 C376.00973,64.8989024 376.02955,64.7490976 376.02955,64.5740244 L376.02955,62.7835854 L376.494414,62.7835854 L376.494414,64.5668049 C376.494414,64.8194878 376.465586,65.0306585 376.406126,65.202122 C376.346667,65.3735854 376.263784,65.512561 376.159279,65.6172439 C376.052973,65.7237317 375.925045,65.7995366 375.780901,65.8446585 C375.633153,65.8915854 375.469189,65.9132439 375.292613,65.9132439 Z M378.344865,65.9132439 C378.098018,65.9132439 377.874595,65.8717317 377.676396,65.7905122 C377.478198,65.7074878 377.305225,65.601 377.161081,65.4710488 L377.418739,65.1335366 C377.548468,65.2526585 377.694414,65.3465122 377.852973,65.4169024 C378.011532,65.4890976 378.184505,65.5233902 378.362883,65.5233902 C378.562883,65.5233902 378.717838,65.4800732 378.824144,65.393439 C378.934054,65.3068049 378.986306,65.1949024 378.986306,65.0577317 C378.986306,64.9819268 378.973694,64.9187561 378.948468,64.8682195 C378.923243,64.8176829 378.887207,64.7743659 378.842162,64.7346585 C378.797117,64.698561 378.744865,64.6642683 378.683604,64.6353902 C378.622342,64.6047073 378.557477,64.5758293 378.487207,64.5433415 L378.103423,64.3899268 C377.997117,64.3502195 377.898018,64.3050976 377.807928,64.254561 C377.714234,64.2022195 377.633153,64.1444634 377.562883,64.0812927 C377.496216,64.0145122 377.44036,63.9405122 377.398919,63.853878 C377.357477,63.7672439 377.337658,63.6679756 377.337658,63.557878 C377.337658,63.4315366 377.362883,63.3178293 377.416937,63.2113415 C377.469189,63.1084634 377.543063,63.0200244 377.638559,62.9460244 C377.734054,62.8738293 377.843964,62.817878 377.973694,62.774561 C378.103423,62.7348537 378.243964,62.7131951 378.397117,62.7131951 C378.620541,62.7131951 378.818739,62.7510976 378.986306,62.8250976 C379.155676,62.9009024 379.298018,62.9875366 379.411532,63.085 L379.159279,63.4044634 C379.056577,63.3142195 378.939459,63.2402195 378.80973,63.1860732 C378.68,63.130122 378.541261,63.1030488 378.391712,63.1030488 C378.215135,63.1030488 378.076396,63.1409512 377.977297,63.2149512 C377.876396,63.2907561 377.825946,63.395439 377.825946,63.5344146 C377.825946,63.6553415 377.870991,63.751 377.959279,63.8177805 C378.047568,63.884561 378.17009,63.9495366 378.326847,64.0127073 L378.716036,64.166122 C378.825946,64.209439 378.93045,64.2527561 379.022342,64.2996829 C379.116036,64.343 379.198919,64.3989512 379.267387,64.4639268 C379.335856,64.5289024 379.388108,64.6047073 379.425946,64.6949512 C379.463784,64.7833902 379.481802,64.8916829 379.481802,65.0216341 C379.481802,65.1479756 379.454775,65.2652927 379.402523,65.3753902 C379.35027,65.4854878 379.274595,65.5811463 379.175495,65.6587561 C379.078198,65.7381707 378.959279,65.7995366 378.818739,65.8446585 C378.68,65.8915854 378.521441,65.9132439 378.344865,65.9132439 Z M380.236757,65.8410488 L380.725045,65.8410488 L380.725045,62.7835854 L380.236757,62.7835854 L380.236757,65.8410488 Z M381.788108,65.8428537 L381.788108,62.7835854 L382.281802,62.7835854 L383.406126,64.5902683 L383.761081,65.245439 L383.784505,65.245439 C383.771892,65.0920244 383.759279,64.9241707 383.743063,64.741878 C383.726847,64.5577805 383.71964,64.3845122 383.71964,64.2184634 L383.71964,62.7835854 L384.173694,62.7835854 L384.173694,65.8428537 L383.683604,65.8428537 L382.552072,64.0361707 L382.198919,63.3791951 L382.175495,63.3791951 C382.186306,63.5416341 382.200721,63.7094878 382.216937,63.884561 C382.231351,64.061439 382.24036,64.2310976 382.24036,64.3953415 L382.24036,65.8428537 L381.788108,65.8428537 Z M385.233153,65.8428537 L385.233153,62.7835854 L387.153874,62.7835854 L387.153874,63.173439 L385.723243,63.173439 L385.723243,64.0596341 L386.937658,64.0596341 L386.937658,64.431439 L385.723243,64.431439 L385.723243,65.453 L387.213333,65.453 L387.213333,65.8428537 L385.233153,65.8428537 Z M388.934054,65.9132439 C388.687207,65.9132439 388.463784,65.8717317 388.265586,65.7905122 C388.067387,65.7074878 387.896216,65.601 387.75027,65.4710488 L388.00973,65.1335366 C388.139459,65.2526585 388.283604,65.3465122 388.442162,65.4169024 C388.600721,65.4890976 388.771892,65.5233902 388.952072,65.5233902 C389.152072,65.5233902 389.307027,65.4800732 389.415135,65.393439 C389.523243,65.3068049 389.577297,65.1949024 389.577297,65.0577317 C389.577297,64.9819268 389.564685,64.9187561 389.537658,64.8682195 C389.512432,64.8176829 389.478198,64.7743659 389.431351,64.7346585 C389.386306,64.698561 389.334054,64.6642683 389.272793,64.6353902 C389.213333,64.6047073 389.146667,64.5758293 389.076396,64.5433415 L388.692613,64.3899268 C388.586306,64.3502195 388.487207,64.3050976 388.397117,64.254561 C388.303423,64.2022195 388.222342,64.1444634 388.153874,64.0812927 C388.085405,64.0145122 388.02955,63.9405122 387.988108,63.853878 C387.946667,63.7672439 387.926847,63.6679756 387.926847,63.557878 C387.926847,63.4315366 387.953874,63.3178293 388.006126,63.2113415 C388.06018,63.1084634 388.132252,63.0200244 388.227748,62.9460244 C388.321441,62.8738293 388.433153,62.817878 388.562883,62.774561 C388.692613,62.7348537 388.834955,62.7131951 388.988108,62.7131951 C389.211532,62.7131951 389.407928,62.7510976 389.577297,62.8250976 C389.748468,62.9009024 389.887207,62.9875366 390.000721,63.085 L389.748468,63.4044634 C389.645766,63.3142195 389.528649,63.2402195 389.400721,63.1860732 C389.269189,63.130122 389.13045,63.1030488 388.980901,63.1030488 C388.804324,63.1030488 388.667387,63.1409512 388.566486,63.2149512 C388.467387,63.2907561 388.415135,63.395439 388.415135,63.5344146 C388.415135,63.6553415 388.46018,63.751 388.548468,63.8177805 C388.636757,63.884561 388.759279,63.9495366 388.917838,64.0127073 L389.305225,64.166122 C389.415135,64.209439 389.51964,64.2527561 389.611532,64.2996829 C389.707027,64.343 389.788108,64.3989512 389.856577,64.4639268 C389.925045,64.5289024 389.977297,64.6047073 390.015135,64.6949512 C390.052973,64.7833902 390.072793,64.8916829 390.072793,65.0216341 C390.072793,65.1479756 390.047568,65.2652927 389.991712,65.3753902 C389.939459,65.4854878 389.863784,65.5811463 389.764685,65.6587561 C389.667387,65.7381707 389.548468,65.7995366 389.407928,65.8446585 C389.269189,65.8915854 389.110631,65.9132439 388.934054,65.9132439 Z M391.669189,65.9132439 C391.422342,65.9132439 391.198919,65.8717317 391.000721,65.7905122 C390.802523,65.7074878 390.62955,65.601 390.485405,65.4710488 L390.743063,65.1335366 C390.874595,65.2526585 391.018739,65.3465122 391.177297,65.4169024 C391.335856,65.4890976 391.507027,65.5233902 391.687207,65.5233902 C391.887207,65.5233902 392.042162,65.4800732 392.148468,65.393439 C392.258378,65.3068049 392.310631,65.1949024 392.310631,65.0577317 C392.310631,64.9819268 392.29982,64.9187561 392.272793,64.8682195 C392.247568,64.8176829 392.211532,64.7743659 392.166486,64.7346585 C392.121441,64.698561 392.070991,64.6642683 392.007928,64.6353902 C391.946667,64.6047073 391.881802,64.5758293 391.811532,64.5433415 L391.427748,64.3899268 C391.321441,64.3502195 391.222342,64.3050976 391.13045,64.254561 C391.038559,64.2022195 390.957477,64.1444634 390.889009,64.0812927 C390.820541,64.0145122 390.764685,63.9405122 390.723243,63.853878 C390.681802,63.7672439 390.661982,63.6679756 390.661982,63.557878 C390.661982,63.4315366 390.687207,63.3178293 390.741261,63.2113415 C390.793514,63.1084634 390.867387,63.0200244 390.962883,62.9460244 C391.056577,62.8738293 391.17009,62.817878 391.298018,62.774561 C391.427748,62.7348537 391.568288,62.7131951 391.721441,62.7131951 C391.946667,62.7131951 392.144865,62.7510976 392.310631,62.8250976 C392.48,62.9009024 392.622342,62.9875366 392.735856,63.085 L392.481802,63.4044634 C392.380901,63.3142195 392.263784,63.2402195 392.134054,63.1860732 C392.004324,63.130122 391.865586,63.1030488 391.716036,63.1030488 C391.539459,63.1030488 391.400721,63.1409512 391.301622,63.2149512 C391.200721,63.2907561 391.15027,63.395439 391.15027,63.5344146 C391.15027,63.6553415 391.195315,63.751 391.283604,63.8177805 C391.371892,63.884561 391.494414,63.9495366 391.651171,64.0127073 L392.04036,64.166122 C392.15027,64.209439 392.252973,64.2527561 392.346667,64.2996829 C392.443964,64.343 392.525045,64.3989512 392.591712,64.4639268 C392.66018,64.5289024 392.712432,64.6047073 392.75027,64.6949512 C392.788108,64.7833902 392.806126,64.8916829 392.806126,65.0216341 C392.806126,65.1479756 392.779099,65.2652927 392.726847,65.3753902 C392.676396,65.4854878 392.598919,65.5811463 392.49982,65.6587561 C392.402523,65.7381707 392.283604,65.7995366 392.144865,65.8446585 C392.004324,65.8915854 391.845766,65.9132439 391.669189,65.9132439 Z" id="Fill-75" fill="#1A3667"></path>
                <path d="M348.436396,72.926639 L349.744505,69.0533707 L350.297658,69.0533707 L351.607568,72.926639 L351.081441,72.926639 L350.717477,71.7462488 L349.306667,71.7462488 L348.935495,72.926639 L348.436396,72.926639 Z M349.612973,70.7607854 L349.432793,71.3509805 L350.591351,71.3509805 L350.411171,70.7607854 C350.340901,70.5423951 350.272432,70.3276146 350.207568,70.1128341 C350.144505,69.8998585 350.083243,69.6796634 350.02018,69.4558585 L349.996757,69.4558585 C349.939099,69.6796634 349.877838,69.8998585 349.814775,70.1128341 C349.751712,70.3276146 349.683243,70.5423951 349.612973,70.7607854 Z M352.153514,72.926639 L352.153514,69.8691756 L352.996757,69.8691756 C353.504865,69.8691756 353.894054,69.9955171 354.173333,70.2500049 C354.450811,70.5044927 354.585946,70.8817122 354.585946,71.3852732 C354.585946,71.8924439 354.450811,72.2768829 354.176937,72.5367854 C353.899459,72.7966878 353.513874,72.926639 353.018378,72.926639 L352.153514,72.926639 Z M352.641802,72.5422 L353.007568,72.5422 C353.373333,72.5422 353.645405,72.4447366 353.818378,72.2516146 C353.993153,72.0566878 354.081441,71.7679073 354.081441,71.3852732 C354.081441,71.0279073 353.993153,70.751761 353.818378,70.5532244 C353.645405,70.3564927 353.373333,70.2572244 353.007568,70.2572244 L352.641802,70.2572244 L352.641802,72.5422 Z M355.425586,72.926639 L355.425586,69.8691756 L355.973333,69.8691756 L356.575135,71.4267854 L356.793153,72.0350293 L356.814775,72.0350293 L357.038198,71.4267854 L357.629189,69.8691756 L358.175135,69.8691756 L358.175135,72.926639 L357.733694,72.926639 L357.733694,71.4141512 C357.733694,71.3455659 357.735495,71.2679561 357.739099,71.1849317 C357.742703,71.1019073 357.748108,71.0188829 357.751712,70.9340537 C357.757117,70.8492244 357.762523,70.7662 357.767928,70.6795659 C357.773333,70.5965415 357.780541,70.5189317 357.785946,70.4467366 L357.764324,70.4467366 L357.497658,71.1380049 L356.913874,72.630639 L356.677838,72.630639 L356.097658,71.1380049 L355.830991,70.4467366 L355.807568,70.4467366 C355.812973,70.5189317 355.818378,70.5947366 355.825586,70.677761 C355.832793,70.7607854 355.838198,70.8438098 355.845405,70.9304439 C355.850811,71.017078 355.856216,71.1019073 355.85982,71.1849317 C355.863423,71.2679561 355.865225,71.3455659 355.865225,71.4141512 L355.865225,72.926639 L355.425586,72.926639 Z M359.236396,72.926639 L359.726486,72.926639 L359.726486,69.8691756 L359.236396,69.8691756 L359.236396,72.926639 Z M360.785946,72.926639 L360.785946,69.8691756 L361.281441,69.8691756 L362.407568,71.6758585 L362.760721,72.3292244 L362.785946,72.3292244 C362.771532,72.1776146 362.758919,72.009761 362.742703,71.8256634 C362.728288,71.6415659 362.721081,71.4682976 362.721081,71.3022488 L362.721081,69.8691756 L363.175135,69.8691756 L363.175135,72.926639 L362.683243,72.926639 L361.551712,71.1199561 L361.20036,70.4647854 L361.175135,70.4647854 C361.187748,70.6254195 361.20036,70.795078 361.218378,70.9701512 C361.234595,71.1452244 361.24,71.3148829 361.24,71.4809317 L361.24,72.926639 L360.785946,72.926639 Z M364.234595,72.926639 L364.722883,72.926639 L364.722883,69.8691756 L364.234595,69.8691756 L364.234595,72.926639 Z M366.686847,72.9970293 C366.438198,72.9970293 366.214775,72.9555171 366.018378,72.8742976 C365.818378,72.7912732 365.647207,72.6847854 365.503063,72.5548341 L365.758919,72.217322 C365.892252,72.3364439 366.036396,72.4302976 366.193153,72.5024927 C366.351712,72.5728829 366.522883,72.6089805 366.704865,72.6089805 C366.904865,72.6089805 367.05982,72.5656634 367.166126,72.4790293 C367.274234,72.3905902 367.326486,72.2804927 367.326486,72.1415171 C367.326486,72.0675171 367.315676,72.0043463 367.29045,71.9520049 C367.263423,71.9014683 367.229189,71.8581512 367.182342,71.8202488 C367.137297,71.7823463 367.086847,71.7480537 367.023784,71.7191756 C366.962523,71.6902976 366.897658,71.6596146 366.827387,71.6271268 L366.443604,71.4737122 C366.339099,71.4340049 366.24,71.3906878 366.146306,71.3383463 C366.054414,71.2878098 365.973333,71.2300537 365.904865,71.165078 C365.836396,71.1001024 365.782342,71.0242976 365.740901,70.9376634 C365.697658,70.8510293 365.677838,70.751761 365.677838,70.6416634 C365.677838,70.515322 365.704865,70.4016146 365.757117,70.2969317 C365.811171,70.1922488 365.885045,70.1038098 365.978739,70.0298098 C366.072432,69.9576146 366.185946,69.9016634 366.315676,69.8601512 C366.443604,69.818639 366.584144,69.7969805 366.737297,69.7969805 C366.960721,69.7969805 367.160721,69.8366878 367.326486,69.9088829 C367.495856,69.9846878 367.638198,70.071322 367.753514,70.1705902 L367.497658,70.4882488 C367.396757,70.3980049 367.281441,70.3258098 367.151712,70.2698585 C367.02018,70.2139073 366.881441,70.1868341 366.731892,70.1868341 C366.557117,70.1868341 366.416577,70.2247366 366.319279,70.3005415 C366.216577,70.3745415 366.167928,70.4810293 366.167928,70.6182 C366.167928,70.7409317 366.211171,70.8347854 366.299459,70.9015659 C366.38955,70.9701512 366.51027,71.033322 366.667027,71.0964927 L367.056216,71.2499073 C367.167928,71.2932244 367.268829,71.3365415 367.362523,71.3834683 C367.458018,71.4285902 367.540901,71.4827366 367.609369,71.5477122 C367.677838,71.6126878 367.728288,71.6902976 367.767928,71.7787366 C367.805766,71.8671756 367.823784,71.9754683 367.823784,72.1054195 C367.823784,72.231761 367.794955,72.349078 367.744505,72.4591756 C367.692252,72.571078 367.616577,72.6649317 367.517477,72.7443463 C367.418378,72.8219561 367.301261,72.8851268 367.160721,72.9284439 C367.02018,72.9753707 366.863423,72.9970293 366.686847,72.9970293 Z M369.05982,72.926639 L369.05982,70.277078 L368.094054,70.277078 L368.094054,69.8691756 L370.515676,69.8691756 L370.515676,70.277078 L369.551712,70.277078 L369.551712,72.926639 L369.05982,72.926639 Z M371.212973,72.926639 L371.212973,69.8691756 L372.267027,69.8691756 C372.434595,69.8691756 372.591351,69.8836146 372.733694,69.9142976 C372.877838,69.9431756 373.003964,69.9919073 373.106667,70.0641024 C373.211171,70.1344927 373.292252,70.2265415 373.34991,70.3402488 C373.409369,70.455761 373.44,70.5947366 373.44,70.7607854 C373.44,70.9936146 373.376937,71.181322 373.249009,71.329322 C373.119279,71.477322 372.94991,71.5802 372.737297,71.639761 L373.54991,72.926639 L373.025586,72.926639 L372.267027,71.699322 L371.699459,71.699322 L371.699459,72.926639 L371.212973,72.926639 Z M371.699459,71.3455659 L372.212973,71.3455659 C372.721081,71.3455659 372.973333,71.1596634 372.973333,70.7896634 C372.973333,70.5929317 372.906667,70.455761 372.776937,70.3763463 C372.645405,70.2969317 372.454414,70.2572244 372.207568,70.2572244 L371.699459,70.2572244 L371.699459,71.3455659 Z M373.803964,72.926639 L374.895856,69.8691756 L375.447207,69.8691756 L376.544505,72.926639 L376.027387,72.926639 L375.742703,72.0639073 L374.582342,72.0639073 L374.299459,72.926639 L373.803964,72.926639 Z M374.847207,71.2625415 L374.704865,71.699322 L375.625586,71.699322 L375.485045,71.2625415 C375.427387,71.0928829 375.376937,70.9250293 375.331892,70.7625902 C375.283243,70.6001512 375.230991,70.4341024 375.178739,70.2644439 L375.153514,70.2644439 C375.099459,70.4377122 375.049009,70.6055659 375.00036,70.7662 C374.953514,70.9268341 374.901261,71.0928829 374.847207,71.2625415 Z M377.512072,72.926639 L377.512072,70.277078 L376.544505,70.277078 L376.544505,69.8691756 L378.966126,69.8691756 L378.966126,70.277078 L377.998559,70.277078 L377.998559,72.926639 L377.512072,72.926639 Z M379.661622,72.926639 L380.151712,72.926639 L380.151712,69.8691756 L379.661622,69.8691756 L379.661622,72.926639 Z M382.418378,72.9970293 C382.207568,72.9970293 382.014775,72.9591268 381.838198,72.8851268 C381.663423,72.8111268 381.513874,72.704639 381.387748,72.5656634 C381.263423,72.4284927 381.162523,72.260639 381.094054,72.0584927 C381.023784,71.8581512 380.987748,71.6343463 380.987748,71.3852732 C380.987748,71.1380049 381.023784,70.9160049 381.094054,70.7192732 C381.162523,70.5225415 381.263423,70.3546878 381.387748,70.219322 C381.513874,70.0839561 381.663423,69.981078 381.838198,69.907078 C382.014775,69.8348829 382.207568,69.7969805 382.418378,69.7969805 C382.629189,69.7969805 382.818378,69.8348829 382.994955,69.907078 C383.167928,69.981078 383.319279,70.0839561 383.449009,70.219322 C383.575135,70.3546878 383.676036,70.5225415 383.746306,70.7192732 C383.816577,70.9160049 383.850811,71.1380049 383.850811,71.3852732 C383.850811,71.6343463 383.816577,71.8581512 383.746306,72.0584927 C383.676036,72.260639 383.575135,72.4284927 383.449009,72.5656634 C383.319279,72.704639 383.167928,72.8111268 382.994955,72.8851268 C382.818378,72.9591268 382.629189,72.9970293 382.418378,72.9970293 Z M382.418378,72.5855171 C382.703063,72.5855171 382.928288,72.4772244 383.094054,72.2624439 C383.25982,72.0476634 383.346306,71.7552732 383.346306,71.3852732 C383.346306,71.017078 383.25982,70.7264927 383.094054,70.5207366 C382.928288,70.3149805 382.703063,70.2102976 382.418378,70.2102976 C382.135495,70.2102976 381.91027,70.3149805 381.744505,70.5207366 C381.578739,70.7264927 381.495856,71.017078 381.495856,71.3852732 C381.495856,71.7552732 381.578739,72.0476634 381.744505,72.2624439 C381.91027,72.4772244 382.135495,72.5855171 382.418378,72.5855171 Z M384.681441,72.926639 L384.681441,69.8691756 L385.178739,69.8691756 L386.304865,71.6758585 L386.658018,72.3292244 L386.681441,72.3292244 C386.668829,72.1776146 386.654414,72.009761 386.638198,71.8256634 C386.621982,71.6415659 386.614775,71.4682976 386.614775,71.3022488 L386.614775,69.8691756 L387.068829,69.8691756 L387.068829,72.926639 L386.580541,72.926639 L385.447207,71.1199561 L385.095856,70.4647854 L385.070631,70.4647854 C385.085045,70.6254195 385.097658,70.795078 385.112072,70.9701512 C385.128288,71.1452244 385.135495,71.3148829 385.135495,71.4809317 L385.135495,72.926639 L384.681441,72.926639 Z" id="Fill-77" fill="#1A3667"></path>
                <polygon id="Fill-79" fill="#CA2026" points="388.577477 50.8352927 347.732432 50.8352927 347.345045 50.8352927 347.345045 50.4129512 347.345045 44.391878 343.844144 44.391878 343.844144 54.6760732 388.599099 54.6760732"></polygon>
                <g id="Group-83" transform="translate(342.342342, 1.468088)">
                    <mask id="mask-2" fill="white">
                        <use xlink:href="#path-1"></use>
                    </mask>
                    <g id="Clip-82"></g>
                    <polygon id="Fill-81" fill="#1A3667" mask="url(#mask-2)" points="1.56144144 10.6231512 5.06594595 10.6231512 5.06594595 4.60027317 5.06594595 4.17973659 5.44972973 4.17973659 45.9127928 4.17973659 46.2947748 4.17973659 46.2947748 4.60027317 46.2947748 10.6231512 49.7992793 10.6231512 49.7992793 0.33715122 1.56144144 0.33715122"></polygon>
                </g>
                <path d="M341.081441,32.9830634 C341.112072,34.320478 341.697658,36.8653561 345.548108,36.8653561 C347.634595,36.8653561 349.953514,36.2950146 349.953514,33.7501366 C349.953514,31.8766732 348.367928,31.3749171 346.137297,30.7738927 L343.872432,30.1692585 C340.463423,29.2650146 337.173333,28.3968683 337.173333,23.1067707 C337.173333,20.4301366 338.436396,15.7121854 345.281441,15.7121854 C351.746306,15.7121854 353.47964,20.5312098 353.51027,23.4767707 L349.277838,23.4767707 C349.160721,22.4046732 348.807568,19.8616 344.958919,19.8616 C343.285045,19.8616 341.286847,20.5655024 341.286847,22.7403805 C341.286847,24.6156488 342.638198,25.0163317 343.521081,25.249161 L348.661622,26.6912585 C351.542703,27.4926244 354.184144,28.8318439 354.184144,33.1473073 C354.184144,40.3794537 347.722883,41.0129659 345.870631,41.0129659 C338.171532,41.0129659 336.849009,35.9611122 336.849009,32.9830634 L341.081441,32.9830634 Z" id="Fill-84" fill="#1A3667"></path>
                <path d="M359.761081,16.3478634 L370.40973,16.3478634 C375.782703,16.3478634 377.153874,20.0298146 377.153874,22.5061073 C377.153874,25.9534244 375.382703,26.9244488 374.469189,27.4262049 C377.153874,28.5307902 377.856577,30.8717171 377.856577,33.2505463 C377.856577,35.1583024 377.125045,36.9649854 375.964685,38.2031317 C374.714234,39.5423512 373.525045,40.3780098 369.036757,40.3780098 L359.761081,40.3780098 L359.761081,16.3478634 Z M364.153874,25.7530829 L369.526847,25.7530829 C371.325045,25.7530829 372.761081,24.9824 372.761081,23.0764488 C372.761081,21.1001073 371.48,20.497278 369.404324,20.497278 L364.153874,20.497278 L364.153874,25.7530829 Z M364.153874,36.2285951 L369.771892,36.2285951 C371.997117,36.2285951 373.281802,35.1583024 373.281802,32.7144976 C373.281802,30.6064 371.631351,29.8014244 369.984505,29.8014244 L364.153874,29.8014244 L364.153874,36.2285951 Z" id="Fill-86" fill="#1A3667"></path>
                <polygon id="Fill-88" fill="#1A3667" points="392.107207 16.3390195 388.631532 16.3390195 381.671171 40.3854098 386.063964 40.3854098 390.330631 24.5981415 394.663964 40.3854098 399.056757 40.3854098"></polygon>
                <polygon id="Fill-90" fill="#1A3667" points="392.080901 50.8114683 388.596216 54.6757122 388.596216 40.4442488 392.080901 40.4442488"></polygon>
            </g>
        </g>
    </g>
</svg>