<?xml version="1.0" encoding="UTF-8"?>
<svg width="400px" height="71px" viewBox="0 0 400 71" version="1.1" xmlns="http://www.w3.org/2000/svg" xmlns:xlink="http://www.w3.org/1999/xlink">
    <!-- Generator: Sketch 49 (51002) - http://www.bohemiancoding.com/sketch -->
    <title>Page 1</title>
    <desc>Created with Sketch.</desc>
    <defs>
        <polygon id="path-1" points="0 70.99866 399.057658 70.99866 399.057658 -0.00054 0 -0.00054"></polygon>
    </defs>
    <g id="Page-1" stroke="none" stroke-width="1" fill="none" fill-rule="evenodd">
        <g id="Tablet" transform="translate(-250.000000, -3698.000000)">
            <g id="Page-1" transform="translate(250.000000, 3698.000000)">
                <path d="M92.2286486,25.4169 L93.4556757,25.4169 L93.4556757,31.1319 C93.4556757,31.7133 93.5151351,32.2011 93.6322523,32.5935 C93.7511712,32.9877 93.9115315,33.3027 94.1133333,33.5385 C94.3151351,33.7761 94.5547748,33.9453 94.8286486,34.0479 C95.1061261,34.1523 95.4016216,34.2027 95.7169369,34.2027 C96.0412613,34.2027 96.3421622,34.1523 96.6196396,34.0479 C96.8953153,33.9453 97.1367568,33.7761 97.343964,33.5385 C97.5493694,33.3027 97.7133333,32.9877 97.8304505,32.5935 C97.9493694,32.2011 98.0088288,31.7133 98.0088288,31.1319 L98.0088288,25.4169 L99.1908108,25.4169 L99.1908108,31.1031 C99.1908108,31.8807 99.1007207,32.5359 98.9241441,33.0669 C98.7475676,33.5979 98.5025225,34.0281 98.1944144,34.3593 C97.8827027,34.6887 97.5151351,34.9245 97.0917117,35.0667 C96.6682883,35.2089 96.2088288,35.2809 95.7169369,35.2809 C95.2232432,35.2809 94.7637838,35.2089 94.334955,35.0667 C93.9061261,34.9245 93.5367568,34.6887 93.2268468,34.3593 C92.9169369,34.0281 92.6718919,33.5979 92.4935135,33.0669 C92.3169369,32.5359 92.2286486,31.8807 92.2286486,31.1031 L92.2286486,25.4169 Z" id="Fill-1" fill="#225FA9"></path>
                <path d="M101.214775,34.36578 C101.214775,34.07958 101.301261,33.85098 101.474234,33.67998 C101.645405,33.50718 101.854414,33.42078 102.101261,33.42078 C102.339099,33.42078 102.542703,33.50718 102.715676,33.67998 C102.888649,33.85098 102.975135,34.07958 102.975135,34.36578 C102.975135,34.63038 102.888649,34.85178 102.715676,35.02278 C102.542703,35.19378 102.339099,35.28198 102.101261,35.28198 C101.854414,35.28198 101.645405,35.19378 101.474234,35.02278 C101.301261,34.85178 101.214775,34.63038 101.214775,34.36578" id="Fill-3" fill="#225FA9"></path>
                <path d="M105.295135,32.9922 C105.639279,33.3576 106.046486,33.6492 106.514955,33.8706 C106.983423,34.092 107.468108,34.2036 107.969009,34.2036 C108.61045,34.2036 109.107748,34.0578 109.462703,33.768 C109.819459,33.4782 109.994234,33.0966 109.994234,32.6232 C109.994234,32.3766 109.952793,32.1678 109.86991,31.995 C109.785225,31.824 109.673514,31.6764 109.531171,31.5522 C109.387027,31.4298 109.217658,31.3182 109.019459,31.221 C108.823063,31.122 108.61045,31.0194 108.385225,30.9096 L106.994234,30.3048 C106.767207,30.2076 106.536577,30.0888 106.300541,29.9502 C106.064505,29.8134 105.851892,29.646 105.664505,29.448 C105.477117,29.2518 105.325766,29.0178 105.205045,28.7478 C105.087928,28.476 105.03027,28.1628 105.03027,27.81 C105.03027,27.4446 105.105946,27.1044 105.257297,26.7912 C105.41045,26.4744 105.623063,26.2026 105.893333,25.9704 C106.163604,25.74 106.484324,25.56 106.853694,25.4322 C107.223063,25.3044 107.63027,25.2396 108.073514,25.2396 C108.655495,25.2396 109.192432,25.3512 109.686126,25.5726 C110.178018,25.794 110.596036,26.082 110.941982,26.4348 L110.277117,27.234 C109.981622,26.9478 109.653694,26.7246 109.293333,26.5608 C108.934775,26.3988 108.527568,26.3178 108.073514,26.3178 C107.531171,26.3178 107.095135,26.4438 106.765405,26.694 C106.435676,26.946 106.26991,27.2916 106.26991,27.7362 C106.26991,27.972 106.316757,28.1718 106.41045,28.3338 C106.504144,28.4958 106.63027,28.6398 106.787027,28.7622 C106.945586,28.8846 107.118559,28.9926 107.304144,29.0862 C107.493333,29.1798 107.684324,29.2662 107.882523,29.3454 L109.255495,29.9358 C109.532973,30.0546 109.792432,30.1896 110.041081,30.3408 C110.286126,30.4938 110.498739,30.672 110.675315,30.8736 C110.853694,31.0752 110.992432,31.311 111.096937,31.5828 C111.19964,31.8528 111.251892,32.166 111.251892,32.5206 C111.251892,32.904 111.176216,33.264 111.023063,33.597 C110.86991,33.9318 110.651892,34.2252 110.363604,34.4772 C110.078919,34.7274 109.734775,34.9254 109.329369,35.0676 C108.927568,35.2098 108.468108,35.2818 107.956396,35.2818 C107.277117,35.2818 106.644685,35.154 106.064505,34.8984 C105.482523,34.6428 104.97982,34.2918 104.556396,33.849 L105.295135,32.9922 Z" id="Fill-5" fill="#225FA9"></path>
                <path d="M112.789189,34.36578 C112.789189,34.07958 112.875676,33.85098 113.048649,33.67998 C113.21982,33.50718 113.428829,33.42078 113.675676,33.42078 C113.913514,33.42078 114.117117,33.50718 114.29009,33.67998 C114.463063,33.85098 114.54955,34.07958 114.54955,34.36578 C114.54955,34.63038 114.463063,34.85178 114.29009,35.02278 C114.117117,35.19378 113.913514,35.28198 113.675676,35.28198 C113.428829,35.28198 113.21982,35.19378 113.048649,35.02278 C112.875676,34.85178 112.789189,34.63038 112.789189,34.36578" id="Fill-7" fill="#225FA9"></path>
                <path d="M119.853874,32.9922 C120.198018,33.3576 120.605225,33.6492 121.073694,33.8706 C121.542162,34.092 122.026847,34.2036 122.527748,34.2036 C123.169189,34.2036 123.666486,34.0578 124.021441,33.768 C124.378198,33.4782 124.552973,33.0966 124.552973,32.6232 C124.552973,32.3766 124.511532,32.1678 124.428649,31.995 C124.343964,31.824 124.232252,31.6764 124.08991,31.5522 C123.945766,31.4298 123.776396,31.3182 123.578198,31.221 C123.381802,31.122 123.169189,31.0194 122.943964,30.9096 L121.552973,30.3048 C121.325946,30.2076 121.095315,30.0888 120.859279,29.9502 C120.623243,29.8134 120.410631,29.646 120.223243,29.448 C120.035856,29.2518 119.884505,29.0178 119.763784,28.7478 C119.646667,28.476 119.589009,28.1628 119.589009,27.81 C119.589009,27.4446 119.664685,27.1044 119.816036,26.7912 C119.969189,26.4744 120.181802,26.2026 120.452072,25.9704 C120.722342,25.74 121.043063,25.56 121.412432,25.4322 C121.781802,25.3044 122.189009,25.2396 122.632252,25.2396 C123.214234,25.2396 123.751171,25.3512 124.244865,25.5726 C124.736757,25.794 125.154775,26.082 125.500721,26.4348 L124.835856,27.234 C124.54036,26.9478 124.212432,26.7246 123.852072,26.5608 C123.493514,26.3988 123.086306,26.3178 122.632252,26.3178 C122.08991,26.3178 121.653874,26.4438 121.324144,26.694 C120.994414,26.946 120.828649,27.2916 120.828649,27.7362 C120.828649,27.972 120.875495,28.1718 120.969189,28.3338 C121.062883,28.4958 121.189009,28.6398 121.345766,28.7622 C121.504324,28.8846 121.677297,28.9926 121.862883,29.0862 C122.052072,29.1798 122.243063,29.2662 122.441261,29.3454 L123.814234,29.9358 C124.091712,30.0546 124.351171,30.1896 124.59982,30.3408 C124.844865,30.4938 125.057477,30.672 125.234054,30.8736 C125.412432,31.0752 125.551171,31.311 125.655676,31.5828 C125.758378,31.8528 125.810631,32.166 125.810631,32.5206 C125.810631,32.904 125.734955,33.264 125.581802,33.597 C125.428649,33.9318 125.210631,34.2252 124.922342,34.4772 C124.637658,34.7274 124.293514,34.9254 123.888108,35.0676 C123.486306,35.2098 123.026847,35.2818 122.515135,35.2818 C121.835856,35.2818 121.203423,35.154 120.623243,34.8984 C120.041261,34.6428 119.538559,34.2918 119.115135,33.849 L119.853874,32.9922 Z" id="Fill-9" fill="#225FA9"></path>
                <path d="M127.599459,27.927 L128.604865,27.927 L128.707568,28.962 L128.752613,28.962 C129.066126,28.6164 129.41027,28.3284 129.77964,28.098 C130.149009,27.8658 130.550811,27.7506 130.985045,27.7506 C131.536396,27.7506 131.967027,27.8712 132.278739,28.1124 C132.588649,28.3536 132.817477,28.6902 132.965225,29.124 C133.34,28.71 133.716577,28.377 134.094955,28.1268 C134.475135,27.8766 134.885946,27.7506 135.329189,27.7506 C136.06973,27.7506 136.619279,27.9864 136.977838,28.458 C137.338198,28.9314 137.518378,29.6298 137.518378,30.555 L137.518378,35.1036 L136.305766,35.1036 L136.305766,30.7188 C136.305766,30.0384 136.195856,29.5488 135.97964,29.2482 C135.763423,28.9494 135.428288,28.7982 134.976036,28.7982 C134.433694,28.7982 133.831892,29.1672 133.172432,29.907 L133.172432,35.1036 L131.95982,35.1036 L131.95982,30.7188 C131.95982,30.0384 131.84991,29.5488 131.633694,29.2482 C131.417477,28.9494 131.078739,28.7982 130.615676,28.7982 C130.073333,28.7982 129.471532,29.1672 128.812072,29.907 L128.812072,35.1036 L127.599459,35.1036 L127.599459,27.927 Z" id="Fill-11" fill="#225FA9"></path>
                <path d="M140.697838,33.15474 C140.697838,33.56874 140.816757,33.86394 141.06,34.04034 C141.301441,34.21854 141.598739,34.30674 141.953694,34.30674 C142.29964,34.30674 142.625766,34.22574 142.935676,34.06194 C143.247387,33.90174 143.575315,33.66234 143.919459,33.34734 L143.919459,31.35294 C143.317658,31.43214 142.811351,31.52574 142.396937,31.63374 C141.984324,31.74174 141.650991,31.86954 141.400541,32.01714 C141.148288,32.16474 140.968108,32.33574 140.86,32.52654 C140.75009,32.71914 140.697838,32.92974 140.697838,33.15474 M139.49964,33.24294 C139.49964,32.45634 139.850991,31.85334 140.557297,31.43394 C141.26,31.01634 142.382523,30.72294 143.919459,30.55554 C143.919459,30.33054 143.896036,30.10914 143.852793,29.89134 C143.80955,29.67534 143.73027,29.48274 143.616757,29.31534 C143.503243,29.14794 143.353694,29.01294 143.166306,28.91034 C142.978919,28.80594 142.737477,28.75374 142.441982,28.75374 C142.016757,28.75374 141.627568,28.83294 141.265405,28.99134 C140.906847,29.14794 140.584324,29.32614 140.297838,29.52234 L139.811351,28.67994 C140.144685,28.46394 140.553694,28.25514 141.036577,28.05354 C141.519459,27.85194 142.052793,27.75114 142.632973,27.75114 C143.512252,27.75114 144.146486,28.01754 144.541081,28.55394 C144.935676,29.09214 145.132072,29.80854 145.132072,30.70314 L145.132072,35.10414 L144.126667,35.10414 L144.023964,34.24734 L143.993333,34.24734 C143.649189,34.53354 143.278018,34.77654 142.878018,34.97814 C142.478018,35.17974 142.058198,35.28234 141.614955,35.28234 C141.002342,35.28234 140.497838,35.10414 140.097838,34.74954 C139.69964,34.39494 139.49964,33.89274 139.49964,33.24294" id="Fill-13" fill="#225FA9"></path>
                <path d="M147.422883,24.5898 L148.635495,24.5898 L148.635495,33.7446 C148.635495,33.9426 148.667928,34.0794 148.738198,34.1586 C148.808468,34.2378 148.885946,34.2774 148.974234,34.2774 L149.085946,34.2774 C149.12018,34.2774 149.172432,34.2666 149.240901,34.2486 L149.404865,35.163 C149.325586,35.2026 149.231892,35.2314 149.121982,35.2512 C149.013874,35.271 148.876937,35.2818 148.709369,35.2818 C148.244505,35.2818 147.914775,35.1432 147.718378,34.8678 C147.521982,34.5924 147.422883,34.1892 147.422883,33.6564 L147.422883,24.5898 Z" id="Fill-15" fill="#225FA9"></path>
                <path d="M151.191892,24.5898 L152.404505,24.5898 L152.404505,33.7446 C152.404505,33.9426 152.436937,34.0794 152.507207,34.1586 C152.577477,34.2378 152.654955,34.2774 152.743243,34.2774 L152.854955,34.2774 C152.889189,34.2774 152.941441,34.2666 153.00991,34.2486 L153.173874,35.163 C153.094595,35.2026 153.000901,35.2314 152.890991,35.2512 C152.782883,35.271 152.645946,35.2818 152.478378,35.2818 C152.013514,35.2818 151.683784,35.1432 151.487387,34.8678 C151.290991,34.5924 151.191892,34.1892 151.191892,33.6564 L151.191892,24.5898 Z" id="Fill-17" fill="#225FA9"></path>
                <path d="M160.976937,34.12944 C161.814775,34.12944 162.465225,33.97464 162.928288,33.66504 C163.391351,33.35364 163.623784,32.86944 163.623784,32.21064 C163.623784,31.60944 163.396757,31.16844 162.942703,30.88764 C162.49045,30.60684 161.834595,30.46644 160.976937,30.46644 L159.29045,30.46644 L159.29045,34.12944 L160.976937,34.12944 Z M160.724685,29.55204 C161.562523,29.55204 162.160721,29.40804 162.521081,29.12364 C162.881441,28.83924 163.061622,28.42524 163.061622,27.88344 C163.061622,27.35064 162.872432,26.96904 162.492252,26.73864 C162.112072,26.50824 161.542703,26.39124 160.785946,26.39124 L159.29045,26.39124 L159.29045,29.55204 L160.724685,29.55204 Z M158.065225,25.41744 L160.946306,25.41744 C161.44,25.41744 161.89045,25.46244 162.299459,25.54884 C162.708468,25.63884 163.058018,25.77564 163.348108,25.96284 C163.64,26.15004 163.867027,26.39484 164.029189,26.69364 C164.191351,26.99424 164.272432,27.35604 164.272432,27.77904 C164.272432,28.26144 164.135495,28.69704 163.85982,29.08584 C163.582342,29.47644 163.158919,29.74284 162.58955,29.89224 L162.58955,29.94984 C163.297658,30.05964 163.850811,30.30444 164.243604,30.68784 C164.638198,31.07304 164.836396,31.60044 164.836396,32.26824 C164.836396,32.74164 164.746306,33.15384 164.567928,33.50844 C164.393153,33.86484 164.140901,34.16004 163.814775,34.39584 C163.49045,34.63164 163.101261,34.80804 162.647207,34.92684 C162.194955,35.04564 161.695856,35.10504 161.155315,35.10504 L158.065225,35.10504 L158.065225,25.41744 Z" id="Fill-19" fill="#225FA9"></path>
                <path d="M166.533514,27.927 L167.760541,27.927 L167.760541,32.3136 C167.760541,32.9922 167.865045,33.4818 168.077658,33.7824 C168.29027,34.083 168.632613,34.2324 169.106486,34.2324 C169.481261,34.2324 169.809189,34.137 170.097477,33.9444 C170.382162,33.7536 170.697477,33.4458 171.041622,33.0228 L171.041622,27.927 L172.254234,27.927 L172.254234,35.1036 L171.248829,35.1036 L171.146126,33.9822 L171.101081,33.9822 C170.765946,34.3764 170.412793,34.6914 170.043423,34.9272 C169.674054,35.163 169.238018,35.2818 168.737117,35.2818 C167.967748,35.2818 167.407387,35.046 167.057838,34.5726 C166.708288,34.0992 166.533514,33.4008 166.533514,32.4756 L166.533514,27.927 Z" id="Fill-21" fill="#225FA9"></path>
                <path d="M174.486847,33.47982 C174.802162,33.73542 175.124685,33.94242 175.454414,34.09902 C175.784144,34.25742 176.166126,34.33662 176.60036,34.33662 C177.074234,34.33662 177.427387,34.22862 177.665225,34.01082 C177.901261,33.79482 178.018378,33.52842 178.018378,33.21342 C178.018378,33.02802 177.96973,32.86422 177.870631,32.72742 C177.771532,32.58882 177.647207,32.46822 177.494054,32.36382 C177.340901,32.26122 177.166126,32.16942 176.96973,32.09202 C176.773333,32.01282 176.575135,31.93362 176.378739,31.85622 C176.121081,31.76622 175.867027,31.66542 175.609369,31.55202 C175.351712,31.44042 175.124685,31.30182 174.921081,31.13982 C174.721081,30.97602 174.555315,30.78702 174.427387,30.57102 C174.299459,30.35502 174.234595,30.09402 174.234595,29.78802 C174.234595,29.50362 174.292252,29.23362 174.403964,28.98342 C174.519279,28.73142 174.67964,28.51542 174.894054,28.33362 C175.104865,28.15182 175.362523,28.00782 175.668829,27.90522 C175.973333,27.80262 176.319279,27.75042 176.703063,27.75042 C177.155315,27.75042 177.573333,27.82962 177.953514,27.98622 C178.331892,28.14462 178.658018,28.33542 178.935495,28.56222 L178.358919,29.33082 C178.113874,29.14362 177.856216,28.99062 177.591351,28.87182 C177.324685,28.75482 177.032793,28.69542 176.717477,28.69542 C176.265225,28.69542 175.931892,28.79802 175.721081,29.00502 C175.508468,29.21202 175.403964,29.45322 175.403964,29.72862 C175.403964,29.89602 175.447207,30.04182 175.535495,30.16422 C175.625586,30.28842 175.742703,30.39642 175.89045,30.49002 C176.038198,30.58362 176.207568,30.66642 176.40036,30.74022 C176.593153,30.81402 176.791351,30.89142 177.00036,30.96882 C177.254414,31.06782 177.513874,31.17042 177.775135,31.27842 C178.036396,31.38822 178.270631,31.52322 178.477838,31.68522 C178.683243,31.84722 178.854414,32.04702 178.987748,32.28282 C179.119279,32.52042 179.185946,32.80482 179.185946,33.13962 C179.185946,33.43482 179.13009,33.71022 179.016577,33.96762 C178.903063,34.22322 178.735495,34.45002 178.513874,34.64622 C178.292252,34.84242 178.016577,34.99902 177.685045,35.11062 C177.357117,35.22402 176.980541,35.28162 176.555315,35.28162 C176.041802,35.28162 175.555315,35.18802 175.092252,35.00082 C174.629189,34.81362 174.223784,34.57782 173.87964,34.29162 L174.486847,33.47982 Z" id="Fill-23" fill="#225FA9"></path>
                <mask id="mask-2" fill="white">
                    <use xlink:href="#path-1"></use>
                </mask>
                <g id="Clip-26"></g>
                <path d="M180.872072,35.10306 L182.084685,35.10306 L182.084685,27.92646 L180.872072,27.92646 L180.872072,35.10306 Z M181.493694,26.45046 C181.255856,26.45046 181.057658,26.37666 180.893694,26.22906 C180.731532,26.08146 180.65045,25.89426 180.65045,25.66746 C180.65045,25.43166 180.731532,25.24266 180.893694,25.09866 C181.057658,24.95646 181.255856,24.88446 181.493694,24.88446 C181.72973,24.88446 181.92973,24.95646 182.091892,25.09866 C182.254054,25.24266 182.336937,25.43166 182.336937,25.66746 C182.336937,25.89426 182.254054,26.08146 182.091892,26.22906 C181.92973,26.37666 181.72973,26.45046 181.493694,26.45046 Z" id="Fill-25" fill="#225FA9" mask="url(#mask-2)"></path>
                <path d="M184.509369,27.927 L185.514775,27.927 L185.617477,28.962 L185.662523,28.962 C186.006667,28.6164 186.368829,28.3284 186.749009,28.098 C187.127387,27.8658 187.568829,27.7506 188.071532,27.7506 C188.83009,27.7506 189.385045,27.9864 189.734595,28.458 C190.084144,28.9314 190.258919,29.6298 190.258919,30.555 L190.258919,35.1036 L189.048108,35.1036 L189.048108,30.7188 C189.048108,30.0384 188.938198,29.5488 188.721982,29.2482 C188.505766,28.9494 188.15982,28.7982 187.687748,28.7982 C187.312973,28.7982 186.983243,28.8918 186.696757,29.079 C186.412072,29.2662 186.085946,29.5416 185.721982,29.907 L185.721982,35.1036 L184.509369,35.1036 L184.509369,27.927 Z" id="Fill-27" fill="#225FA9" mask="url(#mask-2)"></path>
                <path d="M197.088649,30.98376 C197.088649,30.24576 196.931892,29.68236 196.621982,29.29356 C196.312072,28.90476 195.876036,28.71036 195.315676,28.71036 C195.058018,28.71036 194.812973,28.76256 194.582342,28.86516 C194.34991,28.96776 194.140901,29.11536 193.955315,29.30796 C193.766126,29.50056 193.611171,29.73636 193.488649,30.01716 C193.366126,30.29796 193.285045,30.62016 193.243604,30.98376 L197.088649,30.98376 Z M192.061622,31.53096 C192.061622,30.94056 192.153514,30.41136 192.335495,29.94336 C192.517477,29.47536 192.760721,29.07936 193.05982,28.75356 C193.360721,28.42956 193.703063,28.18116 194.086847,28.00836 C194.472432,27.83556 194.872432,27.75096 195.285045,27.75096 C195.737297,27.75096 196.144505,27.83016 196.504865,27.98676 C196.863423,28.14336 197.164324,28.37016 197.405766,28.66536 C197.647207,28.96056 197.832793,29.31516 197.958919,29.72916 C198.088649,30.14316 198.153514,30.60576 198.153514,31.11696 C198.153514,31.38336 198.137297,31.60476 198.106667,31.78116 L193.25982,31.78116 C193.308468,32.55876 193.548108,33.17436 193.975135,33.62796 C194.405766,34.07976 194.964324,34.30656 195.654414,34.30656 C196.00036,34.30656 196.315676,34.25436 196.607568,34.15176 C196.899459,34.04916 197.176937,33.91236 197.441802,33.74496 L197.872432,34.54416 C197.557117,34.74036 197.205766,34.91316 196.821982,35.06076 C196.438198,35.20836 196.00036,35.28216 195.506667,35.28216 C195.023784,35.28216 194.573333,35.19396 194.153514,35.02296 C193.735495,34.85016 193.371532,34.60536 193.05982,34.28496 C192.74991,33.96456 192.504865,33.57216 192.328288,33.11136 C192.151712,32.64696 192.061622,32.12136 192.061622,31.53096 Z" id="Fill-28" fill="#225FA9" mask="url(#mask-2)"></path>
                <path d="M199.734955,33.47982 C200.05027,33.73542 200.372793,33.94242 200.702523,34.09902 C201.032252,34.25742 201.414234,34.33662 201.848468,34.33662 C202.322342,34.33662 202.675495,34.22862 202.913333,34.01082 C203.149369,33.79482 203.266486,33.52842 203.266486,33.21342 C203.266486,33.02802 203.217838,32.86422 203.118739,32.72742 C203.01964,32.58882 202.895315,32.46822 202.742162,32.36382 C202.589009,32.26122 202.414234,32.16942 202.217838,32.09202 C202.021441,32.01282 201.823243,31.93362 201.626847,31.85622 C201.369189,31.76622 201.115135,31.66542 200.857477,31.55202 C200.59982,31.44042 200.372793,31.30182 200.169189,31.13982 C199.969189,30.97602 199.803423,30.78702 199.675495,30.57102 C199.547568,30.35502 199.482703,30.09402 199.482703,29.78802 C199.482703,29.50362 199.54036,29.23362 199.652072,28.98342 C199.767387,28.73142 199.927748,28.51542 200.142162,28.33362 C200.352973,28.15182 200.610631,28.00782 200.916937,27.90522 C201.221441,27.80262 201.567387,27.75042 201.951171,27.75042 C202.403423,27.75042 202.821441,27.82962 203.201622,27.98622 C203.58,28.14462 203.906126,28.33542 204.183604,28.56222 L203.607027,29.33082 C203.361982,29.14362 203.104324,28.99062 202.839459,28.87182 C202.572793,28.75482 202.280901,28.69542 201.965586,28.69542 C201.513333,28.69542 201.18,28.79802 200.969189,29.00502 C200.756577,29.21202 200.652072,29.45322 200.652072,29.72862 C200.652072,29.89602 200.695315,30.04182 200.783604,30.16422 C200.873694,30.28842 200.990811,30.39642 201.138559,30.49002 C201.286306,30.58362 201.455676,30.66642 201.648468,30.74022 C201.841261,30.81402 202.039459,30.89142 202.248468,30.96882 C202.502523,31.06782 202.761982,31.17042 203.023243,31.27842 C203.284505,31.38822 203.518739,31.52322 203.725946,31.68522 C203.931351,31.84722 204.102523,32.04702 204.235856,32.28282 C204.367387,32.52042 204.434054,32.80482 204.434054,33.13962 C204.434054,33.43482 204.378198,33.71022 204.264685,33.96762 C204.151171,34.22322 203.983604,34.45002 203.761982,34.64622 C203.54036,34.84242 203.264685,34.99902 202.933153,35.11062 C202.605225,35.22402 202.228649,35.28162 201.803423,35.28162 C201.28991,35.28162 200.803423,35.18802 200.34036,35.00082 C199.877297,34.81362 199.471892,34.57782 199.127748,34.29162 L199.734955,33.47982 Z" id="Fill-29" fill="#225FA9" mask="url(#mask-2)"></path>
                <path d="M205.926847,33.47982 C206.242162,33.73542 206.564685,33.94242 206.894414,34.09902 C207.224144,34.25742 207.606126,34.33662 208.04036,34.33662 C208.514234,34.33662 208.867387,34.22862 209.105225,34.01082 C209.341261,33.79482 209.458378,33.52842 209.458378,33.21342 C209.458378,33.02802 209.40973,32.86422 209.310631,32.72742 C209.211532,32.58882 209.087207,32.46822 208.934054,32.36382 C208.780901,32.26122 208.606126,32.16942 208.40973,32.09202 C208.213333,32.01282 208.015135,31.93362 207.818739,31.85622 C207.561081,31.76622 207.307027,31.66542 207.049369,31.55202 C206.791712,31.44042 206.564685,31.30182 206.361081,31.13982 C206.161081,30.97602 205.995315,30.78702 205.867387,30.57102 C205.739459,30.35502 205.674595,30.09402 205.674595,29.78802 C205.674595,29.50362 205.732252,29.23362 205.843964,28.98342 C205.959279,28.73142 206.11964,28.51542 206.334054,28.33362 C206.544865,28.15182 206.802523,28.00782 207.108829,27.90522 C207.413333,27.80262 207.759279,27.75042 208.143063,27.75042 C208.595315,27.75042 209.013333,27.82962 209.393514,27.98622 C209.771892,28.14462 210.098018,28.33542 210.375495,28.56222 L209.798919,29.33082 C209.553874,29.14362 209.296216,28.99062 209.031351,28.87182 C208.764685,28.75482 208.472793,28.69542 208.157477,28.69542 C207.705225,28.69542 207.371892,28.79802 207.161081,29.00502 C206.948468,29.21202 206.843964,29.45322 206.843964,29.72862 C206.843964,29.89602 206.887207,30.04182 206.975495,30.16422 C207.065586,30.28842 207.182703,30.39642 207.33045,30.49002 C207.478198,30.58362 207.647568,30.66642 207.84036,30.74022 C208.033153,30.81402 208.231351,30.89142 208.44036,30.96882 C208.694414,31.06782 208.953874,31.17042 209.215135,31.27842 C209.476396,31.38822 209.710631,31.52322 209.917838,31.68522 C210.123243,31.84722 210.294414,32.04702 210.427748,32.28282 C210.559279,32.52042 210.625946,32.80482 210.625946,33.13962 C210.625946,33.43482 210.57009,33.71022 210.456577,33.96762 C210.343063,34.22322 210.175495,34.45002 209.953874,34.64622 C209.732252,34.84242 209.456577,34.99902 209.125045,35.11062 C208.797117,35.22402 208.420541,35.28162 207.995315,35.28162 C207.481802,35.28162 206.995315,35.18802 206.532252,35.00082 C206.069189,34.81362 205.663784,34.57782 205.31964,34.29162 L205.926847,33.47982 Z" id="Fill-30" fill="#225FA9" mask="url(#mask-2)"></path>
                <path d="M96.3971171,48.88188 L95.9376577,47.40588 C95.7610811,46.86408 95.5935135,46.32588 95.4367568,45.78768 C95.2781982,45.25128 95.1214414,44.70228 94.9628829,44.14248 L94.9034234,44.14248 C94.7556757,44.70228 94.6043243,45.25128 94.4457658,45.78768 C94.2872072,46.32588 94.1196396,46.86408 93.9430631,47.40588 L93.4854054,48.88188 L96.3971171,48.88188 Z M96.707027,49.87188 L93.1754955,49.87188 L92.2421622,52.82388 L90.9863063,52.82388 L94.2673874,43.13808 L95.6583784,43.13808 L98.9394595,52.82388 L97.6241441,52.82388 L96.707027,49.87188 Z" id="Fill-31" fill="#225FA9" mask="url(#mask-2)"></path>
                <path d="M100.934955,49.23612 C100.934955,50.10192 101.107928,50.77692 101.452072,51.25932 C101.798018,51.74172 102.284505,51.98292 102.916937,51.98292 C103.25027,51.98292 103.565586,51.90192 103.861081,51.73992 C104.156577,51.57612 104.452072,51.32952 104.747568,50.99472 L104.747568,47.24352 C104.443063,46.96812 104.149369,46.77192 103.868288,46.65852 C103.589009,46.54692 103.298919,46.48932 103.003423,46.48932 C102.718739,46.48932 102.45027,46.55592 102.198018,46.68912 C101.947568,46.82232 101.727748,47.00952 101.54036,47.24892 C101.352973,47.49192 101.205225,47.77992 101.097117,48.11292 C100.989009,48.44952 100.934955,48.82392 100.934955,49.23612 M99.6790991,49.25052 C99.6790991,48.67092 99.7655856,48.14712 99.9367568,47.67912 C100.10973,47.21112 100.338559,46.81512 100.623243,46.48932 C100.90973,46.16352 101.239459,45.91332 101.614234,45.73692 C101.989009,45.56052 102.383604,45.47052 102.796216,45.47052 C103.212432,45.47052 103.570991,45.54432 103.877297,45.69192 C104.181802,45.83952 104.493514,46.04292 104.807027,46.29852 L104.747568,45.07272 L104.747568,42.30972 L105.976396,42.30972 L105.976396,52.82532 L104.969189,52.82532 L104.868288,51.98292 L104.821441,51.98292 C104.536757,52.25832 104.208829,52.49772 103.839459,52.69932 C103.47009,52.90092 103.073694,53.00172 102.648468,53.00172 C101.742162,53.00172 101.021441,52.67772 100.484505,52.02792 C99.9457658,51.37632 99.6790991,50.45292 99.6790991,49.25052" id="Fill-32" fill="#225FA9" mask="url(#mask-2)"></path>
                <path d="M108.399099,45.64746 L109.404505,45.64746 L109.507207,46.68246 L109.552252,46.68246 C109.865766,46.33686 110.20991,46.04886 110.579279,45.81846 C110.948649,45.58626 111.35045,45.47106 111.784685,45.47106 C112.336036,45.47106 112.766667,45.59166 113.078378,45.83286 C113.388288,46.07406 113.617117,46.41066 113.764865,46.84446 C114.13964,46.43046 114.516216,46.09746 114.894595,45.84726 C115.274775,45.59706 115.685586,45.47106 116.128829,45.47106 C116.869369,45.47106 117.418919,45.70686 117.777477,46.17846 C118.137838,46.65186 118.318018,47.35026 118.318018,48.27546 L118.318018,52.82406 L117.105405,52.82406 L117.105405,48.43926 C117.105405,47.75886 116.995495,47.26926 116.779279,46.96866 C116.563063,46.66986 116.227928,46.51866 115.775676,46.51866 C115.233333,46.51866 114.631532,46.88766 113.972072,47.62746 L113.972072,52.82406 L112.759459,52.82406 L112.759459,48.43926 C112.759459,47.75886 112.64955,47.26926 112.433333,46.96866 C112.217117,46.66986 111.878378,46.51866 111.415315,46.51866 C110.872973,46.51866 110.271171,46.88766 109.611712,47.62746 L109.611712,52.82406 L108.399099,52.82406 L108.399099,45.64746 Z" id="Fill-33" fill="#225FA9" mask="url(#mask-2)"></path>
                <path d="M120.654054,52.82406 L121.866667,52.82406 L121.866667,45.64746 L120.654054,45.64746 L120.654054,52.82406 Z M121.275676,44.17146 C121.037838,44.17146 120.83964,44.09766 120.675676,43.95006 C120.513514,43.80246 120.432432,43.61526 120.432432,43.38846 C120.432432,43.15266 120.513514,42.96186 120.675676,42.81966 C120.83964,42.67746 121.037838,42.60546 121.275676,42.60546 C121.511712,42.60546 121.711712,42.67746 121.873874,42.81966 C122.036036,42.96186 122.118919,43.15266 122.118919,43.38846 C122.118919,43.61526 122.036036,43.80246 121.873874,43.95006 C121.711712,44.09766 121.511712,44.17146 121.275676,44.17146 Z" id="Fill-34" fill="#225FA9" mask="url(#mask-2)"></path>
                <path d="M124.28973,45.64746 L125.295135,45.64746 L125.397838,46.68246 L125.442883,46.68246 C125.787027,46.33686 126.149189,46.04886 126.529369,45.81846 C126.907748,45.58626 127.349189,45.47106 127.851892,45.47106 C128.61045,45.47106 129.165405,45.70686 129.514955,46.17846 C129.864505,46.65186 130.039279,47.35026 130.039279,48.27546 L130.039279,52.82406 L128.828468,52.82406 L128.828468,48.43926 C128.828468,47.75886 128.718559,47.26926 128.502342,46.96866 C128.286126,46.66986 127.94018,46.51866 127.468108,46.51866 C127.093333,46.51866 126.763604,46.61226 126.477117,46.79946 C126.192432,46.98666 125.866306,47.26206 125.502342,47.62746 L125.502342,52.82406 L124.28973,52.82406 L124.28973,45.64746 Z" id="Fill-35" fill="#225FA9" mask="url(#mask-2)"></path>
                <path d="M132.374775,52.82406 L133.587387,52.82406 L133.587387,45.64746 L132.374775,45.64746 L132.374775,52.82406 Z M132.996396,44.17146 C132.758559,44.17146 132.56036,44.09766 132.396396,43.95006 C132.234234,43.80246 132.153153,43.61526 132.153153,43.38846 C132.153153,43.15266 132.234234,42.96186 132.396396,42.81966 C132.56036,42.67746 132.758559,42.60546 132.996396,42.60546 C133.232432,42.60546 133.432432,42.67746 133.594595,42.81966 C133.756757,42.96186 133.83964,43.15266 133.83964,43.38846 C133.83964,43.61526 133.756757,43.80246 133.594595,43.95006 C133.432432,44.09766 133.232432,44.17146 132.996396,44.17146 Z" id="Fill-36" fill="#225FA9" mask="url(#mask-2)"></path>
                <path d="M135.82018,51.20046 C136.135495,51.45606 136.458018,51.66306 136.787748,51.81966 C137.117477,51.97806 137.499459,52.05726 137.933694,52.05726 C138.407568,52.05726 138.760721,51.94926 138.998559,51.73146 C139.234595,51.51546 139.351712,51.24906 139.351712,50.93406 C139.351712,50.74866 139.303063,50.58486 139.203964,50.44806 C139.104865,50.30946 138.980541,50.18886 138.827387,50.08446 C138.674234,49.98186 138.499459,49.89006 138.303063,49.81266 C138.106667,49.73346 137.908468,49.65426 137.712072,49.57686 C137.454414,49.48686 137.20036,49.38606 136.942703,49.27266 C136.685045,49.16106 136.458018,49.02246 136.254414,48.86046 C136.054414,48.69666 135.888649,48.50766 135.760721,48.29166 C135.632793,48.07566 135.567928,47.81466 135.567928,47.50866 C135.567928,47.22426 135.625586,46.95426 135.737297,46.70406 C135.852613,46.45206 136.012973,46.23606 136.227387,46.05426 C136.438198,45.87246 136.695856,45.72846 137.002162,45.62586 C137.306667,45.52326 137.652613,45.47106 138.036396,45.47106 C138.488649,45.47106 138.906667,45.55026 139.286847,45.70686 C139.665225,45.86526 139.991351,46.05606 140.268829,46.28286 L139.692252,47.05146 C139.447207,46.86426 139.18955,46.71126 138.924685,46.59246 C138.658018,46.47546 138.366126,46.41606 138.050811,46.41606 C137.598559,46.41606 137.265225,46.51866 137.054414,46.72566 C136.841802,46.93266 136.737297,47.17386 136.737297,47.44926 C136.737297,47.61666 136.780541,47.76246 136.868829,47.88486 C136.958919,48.00906 137.076036,48.11706 137.223784,48.21066 C137.371532,48.30426 137.540901,48.38706 137.733694,48.46086 C137.926486,48.53466 138.124685,48.61206 138.333694,48.68946 C138.587748,48.78846 138.847207,48.89106 139.108468,48.99906 C139.36973,49.10886 139.603964,49.24386 139.811171,49.40586 C140.016577,49.56786 140.187748,49.76766 140.321081,50.00346 C140.452613,50.24106 140.519279,50.52546 140.519279,50.86026 C140.519279,51.15546 140.463423,51.43086 140.34991,51.68826 C140.236396,51.94386 140.068829,52.17066 139.847207,52.36686 C139.625586,52.56306 139.34991,52.71966 139.018378,52.83126 C138.69045,52.94466 138.313874,53.00226 137.888649,53.00226 C137.375135,53.00226 136.888649,52.90866 136.425586,52.72146 C135.962523,52.53426 135.557117,52.29846 135.212973,52.01226 L135.82018,51.20046 Z" id="Fill-37" fill="#225FA9" mask="url(#mask-2)"></path>
                <path d="M142.145946,46.6371 L141.082883,46.6371 L141.082883,45.7209 L142.205405,45.6471 L142.353153,43.6383 L143.374775,43.6383 L143.374775,45.6471 L145.30991,45.6471 L145.30991,46.6371 L143.374775,46.6371 L143.374775,50.6241 C143.374775,51.0669 143.455856,51.4089 143.616216,51.6501 C143.78018,51.8913 144.068468,52.0119 144.482883,52.0119 C144.610811,52.0119 144.747748,51.9939 144.895495,51.9543 C145.043243,51.9147 145.178378,51.8697 145.295495,51.8193 L145.531532,52.7355 C145.335135,52.8057 145.118919,52.8669 144.888288,52.9209 C144.657658,52.9749 144.428829,53.0019 144.201802,53.0019 C143.818018,53.0019 143.493694,52.9425 143.234234,52.8255 C142.971171,52.7067 142.76036,52.5447 142.598198,52.3377 C142.434234,52.1307 142.318919,51.8805 142.25045,51.5853 C142.181982,51.2883 142.145946,50.9643 142.145946,50.6097 L142.145946,46.6371 Z" id="Fill-38" fill="#225FA9" mask="url(#mask-2)"></path>
                <path d="M146.921441,45.64746 L147.926847,45.64746 L148.02955,46.94706 L148.074595,46.94706 C148.31964,46.49526 148.618739,46.13526 148.968288,45.86886 C149.317838,45.60426 149.69982,45.47106 150.112432,45.47106 C150.400721,45.47106 150.654775,45.51966 150.881802,45.61866 L150.645766,46.68246 C150.528649,46.64286 150.418739,46.61226 150.321441,46.59246 C150.222342,46.57266 150.09982,46.56366 149.952072,46.56366 C149.645766,46.56366 149.328649,46.68606 148.997117,46.93266 C148.667387,47.17926 148.380901,47.60766 148.134054,48.21786 L148.134054,52.82406 L146.921441,52.82406 L146.921441,45.64746 Z" id="Fill-39" fill="#225FA9" mask="url(#mask-2)"></path>
                <path d="M152.553874,50.8752 C152.553874,51.2892 152.672793,51.5844 152.916036,51.7608 C153.157477,51.939 153.454775,52.0272 153.80973,52.0272 C154.155676,52.0272 154.481802,51.9462 154.791712,51.7824 C155.103423,51.6222 155.431351,51.3828 155.775495,51.0678 L155.775495,49.0734 C155.173694,49.1526 154.667387,49.2462 154.252973,49.3542 C153.84036,49.4622 153.507027,49.59 153.256577,49.7376 C153.004324,49.8852 152.824144,50.0562 152.716036,50.247 C152.606126,50.4396 152.553874,50.6502 152.553874,50.8752 M151.355676,50.9634 C151.355676,50.1768 151.707027,49.5738 152.413333,49.1544 C153.116036,48.7368 154.238559,48.4434 155.775495,48.276 C155.775495,48.051 155.752072,47.8296 155.708829,47.6118 C155.665586,47.3958 155.586306,47.2032 155.472793,47.0358 C155.359279,46.8684 155.20973,46.7334 155.022342,46.6308 C154.834955,46.5264 154.593514,46.4742 154.298018,46.4742 C153.872793,46.4742 153.483604,46.5534 153.121441,46.7118 C152.762883,46.8684 152.44036,47.0466 152.153874,47.2428 L151.667387,46.4004 C152.000721,46.1844 152.40973,45.9756 152.892613,45.774 C153.375495,45.5724 153.908829,45.4716 154.489009,45.4716 C155.368288,45.4716 156.002523,45.738 156.397117,46.2744 C156.791712,46.8126 156.988108,47.529 156.988108,48.4236 L156.988108,52.8246 L155.982703,52.8246 L155.88,51.9678 L155.849369,51.9678 C155.505225,52.254 155.134054,52.497 154.734054,52.6986 C154.334054,52.9002 153.914234,53.0028 153.470991,53.0028 C152.858378,53.0028 152.353874,52.8246 151.953874,52.47 C151.555676,52.1154 151.355676,51.6132 151.355676,50.9634" id="Fill-40" fill="#225FA9" mask="url(#mask-2)"></path>
                <path d="M159.145225,46.6371 L158.082162,46.6371 L158.082162,45.7209 L159.204685,45.6471 L159.352432,43.6383 L160.374054,43.6383 L160.374054,45.6471 L162.309189,45.6471 L162.309189,46.6371 L160.374054,46.6371 L160.374054,50.6241 C160.374054,51.0669 160.455135,51.4089 160.615495,51.6501 C160.779459,51.8913 161.067748,52.0119 161.482162,52.0119 C161.61009,52.0119 161.747027,51.9939 161.894775,51.9543 C162.042523,51.9147 162.177658,51.8697 162.294775,51.8193 L162.530811,52.7355 C162.334414,52.8057 162.118198,52.8669 161.887568,52.9209 C161.656937,52.9749 161.428108,53.0019 161.201081,53.0019 C160.817297,53.0019 160.492973,52.9425 160.233514,52.8255 C159.97045,52.7067 159.75964,52.5447 159.597477,52.3377 C159.433514,52.1307 159.318198,51.8805 159.24973,51.5853 C159.181261,51.2883 159.145225,50.9643 159.145225,50.6097 L159.145225,46.6371 Z" id="Fill-41" fill="#225FA9" mask="url(#mask-2)"></path>
                <path d="M163.935135,52.82406 L165.147748,52.82406 L165.147748,45.64746 L163.935135,45.64746 L163.935135,52.82406 Z M164.554955,44.17146 C164.318919,44.17146 164.118919,44.09766 163.954955,43.95006 C163.794595,43.80246 163.713514,43.61526 163.713514,43.38846 C163.713514,43.15266 163.794595,42.96186 163.954955,42.81966 C164.118919,42.67746 164.318919,42.60546 164.554955,42.60546 C164.790991,42.60546 164.992793,42.67746 165.154955,42.81966 C165.315315,42.96186 165.398198,43.15266 165.398198,43.38846 C165.398198,43.61526 165.315315,43.80246 165.154955,43.95006 C164.992793,44.09766 164.790991,44.17146 164.554955,44.17146 Z" id="Fill-42" fill="#225FA9" mask="url(#mask-2)"></path>
                <path d="M168.296757,49.25106 C168.296757,49.66326 168.343604,50.03766 168.444505,50.37426 C168.541802,50.70906 168.682342,50.99526 168.864324,51.23826 C169.048108,51.47766 169.266126,51.66486 169.523784,51.79806 C169.777838,51.93126 170.060721,51.99786 170.365225,51.99786 C170.66973,51.99786 170.952613,51.93126 171.206667,51.79806 C171.464324,51.66486 171.684144,51.47766 171.864324,51.23826 C172.048108,50.99526 172.188649,50.70906 172.287748,50.37426 C172.386847,50.03766 172.435495,49.66326 172.435495,49.25106 C172.435495,48.83886 172.386847,48.46086 172.287748,48.12246 C172.188649,47.78226 172.048108,47.48886 171.864324,47.24226 C171.684144,46.99746 171.464324,46.80666 171.206667,46.67346 C170.952613,46.54206 170.66973,46.47546 170.365225,46.47546 C170.060721,46.47546 169.777838,46.54206 169.523784,46.67346 C169.266126,46.80666 169.048108,46.99746 168.864324,47.24226 C168.682342,47.48886 168.541802,47.78226 168.444505,48.12246 C168.343604,48.46086 168.296757,48.83886 168.296757,49.25106 M167.039099,49.25106 C167.039099,48.65166 167.130991,48.11706 167.312973,47.64906 C167.494955,47.18106 167.738198,46.78506 168.044505,46.46106 C168.349009,46.13526 168.703964,45.88866 169.10036,45.72126 C169.50036,45.55386 169.921982,45.47106 170.365225,45.47106 C170.81027,45.47106 171.23009,45.55386 171.63009,45.72126 C172.028288,45.88866 172.381441,46.13526 172.687748,46.46106 C172.99045,46.78506 173.235495,47.18106 173.417477,47.64906 C173.599459,48.11706 173.691351,48.65166 173.691351,49.25106 C173.691351,49.84146 173.599459,50.37066 173.417477,50.83866 C173.235495,51.30666 172.99045,51.69906 172.687748,52.01946 C172.381441,52.33986 172.028288,52.58466 171.63009,52.75026 C171.23009,52.91766 170.81027,53.00226 170.365225,53.00226 C169.921982,53.00226 169.50036,52.91766 169.10036,52.75026 C168.703964,52.58466 168.349009,52.33986 168.044505,52.01946 C167.738198,51.69906 167.494955,51.30666 167.312973,50.83866 C167.130991,50.37066 167.039099,49.84146 167.039099,49.25106" id="Fill-43" fill="#225FA9" mask="url(#mask-2)"></path>
                <path d="M175.583063,45.64746 L176.588468,45.64746 L176.691171,46.68246 L176.736216,46.68246 C177.08036,46.33686 177.442523,46.04886 177.822703,45.81846 C178.201081,45.58626 178.642523,45.47106 179.145225,45.47106 C179.903784,45.47106 180.458739,45.70686 180.808288,46.17846 C181.157838,46.65186 181.332613,47.35026 181.332613,48.27546 L181.332613,52.82406 L180.121802,52.82406 L180.121802,48.43926 C180.121802,47.75886 180.011892,47.26926 179.795676,46.96866 C179.579459,46.66986 179.233514,46.51866 178.761441,46.51866 C178.386667,46.51866 178.056937,46.61226 177.77045,46.79946 C177.485766,46.98666 177.15964,47.26206 176.795676,47.62746 L176.795676,52.82406 L175.583063,52.82406 L175.583063,45.64746 Z" id="Fill-44" fill="#225FA9" mask="url(#mask-2)"></path>
                <polygon id="Fill-45" fill="#E45A65" mask="url(#mask-2)" points="61.5223423 65.40084 12.9421622 65.40084 12.4845045 65.40084 12.4845045 64.90224 12.4845045 57.75804 8.31693694 57.75804 8.31693694 69.95844 61.5457658 69.95844"></polygon>
                <polygon id="Fill-46" fill="#225FA9" mask="url(#mask-2)" points="8.39027027 19.44558 12.5578378 19.44558 12.5578378 12.30138 12.5578378 11.80278 13.0136937 11.80278 61.1362162 11.80278 61.5938739 11.80278 61.5938739 12.30138 61.5938739 19.44558 65.7614414 19.44558 65.7614414 7.24338 8.39027027 7.24338"></polygon>
                <path d="M5.03297297,44.22636 C5.06900901,45.81396 5.76630631,48.83076 10.3428829,48.83076 C12.8257658,48.83076 15.5861261,48.15576 15.5861261,45.13716 C15.5861261,42.91416 13.6996396,42.32016 11.0437838,41.60556 L8.35369369,40.88916 C4.29963964,39.81816 0.386126126,38.78676 0.386126126,32.51196 C0.386126126,29.33676 1.88882883,23.74236 10.0275676,23.74236 C17.7176577,23.74236 19.7807207,29.45736 19.8167568,32.95116 L14.7825225,32.95116 C14.6437838,31.68036 14.223964,28.66356 9.64558559,28.66356 C7.65279279,28.66356 5.27801802,29.49696 5.27801802,32.07816 C5.27801802,34.30116 6.88342342,34.77816 7.93207207,35.05536 L14.0491892,36.76356 C17.4726126,37.71576 20.6167568,39.30156 20.6167568,44.42256 C20.6167568,52.99776 12.9302703,53.75196 10.7302703,53.75196 C1.57531532,53.75196 0.000540540541,47.75796 0.000540540541,44.22636 L5.03297297,44.22636 Z" id="Fill-47" fill="#225FA9" mask="url(#mask-2)"></path>
                <path d="M27.2475676,24.49404 L39.9142342,24.49404 C46.3034234,24.49404 47.9358559,28.86264 47.9358559,31.79844 C47.9358559,35.88804 45.8313514,37.04004 44.7412613,37.63404 C47.9358559,38.94444 48.7700901,41.72364 48.7700901,44.54244 C48.7700901,46.80684 47.8998198,48.94884 46.5214414,50.41764 C45.0331532,52.00524 43.6169369,52.99704 38.2818018,52.99704 L27.2475676,52.99704 L27.2475676,24.49404 Z M32.4745946,35.64864 L38.861982,35.64864 C41.0043243,35.64864 42.7106306,34.73604 42.7106306,32.47344 C42.7106306,30.12984 41.1863063,29.41524 38.7178378,29.41524 L32.4745946,29.41524 L32.4745946,35.64864 Z M32.4745946,48.07584 L39.1520721,48.07584 C41.8025225,48.07584 43.3268468,46.80684 43.3268468,43.90524 C43.3268468,41.40684 41.3664865,40.45104 39.4061261,40.45104 L32.4745946,40.45104 L32.4745946,48.07584 Z" id="Fill-48" fill="#225FA9" mask="url(#mask-2)"></path>
                <polygon id="Fill-49" fill="#225FA9" mask="url(#mask-2)" points="65.7207207 24.48522 61.5873874 24.48522 53.3063063 53.00622 58.5351351 53.00622 63.6054054 34.28262 68.7603604 53.00622 73.9873874 53.00622"></polygon>
                <polygon id="Fill-50" fill="#225FA9" mask="url(#mask-2)" points="65.6872072 65.37456 61.5448649 69.95916 61.5448649 53.07696 65.6872072 53.07696"></polygon>
                <path d="M344.607568,60.00264 L345.095856,60.00264 L345.095856,62.28144 C345.095856,62.51364 345.121081,62.70624 345.16973,62.86284 C345.214775,63.02124 345.27964,63.14724 345.358919,63.24084 C345.44,63.33444 345.535495,63.40284 345.645405,63.44424 C345.755315,63.48564 345.872432,63.50544 345.998559,63.50544 C346.128288,63.50544 346.249009,63.48564 346.358919,63.44424 C346.468829,63.40284 346.564324,63.33444 346.647207,63.24084 C346.73009,63.14724 346.794955,63.02124 346.841802,62.86284 C346.888649,62.70624 346.912072,62.51364 346.912072,62.28144 L346.912072,60.00264 L347.384144,60.00264 L347.384144,62.26884 C347.384144,62.58024 347.348108,62.84124 347.277838,63.05184 C347.205766,63.26424 347.11027,63.43524 346.985946,63.56664 C346.861622,63.69804 346.715676,63.79344 346.546306,63.84924 C346.376937,63.90684 346.194955,63.93564 345.998559,63.93564 C345.802162,63.93564 345.62018,63.90684 345.449009,63.84924 C345.276036,63.79344 345.13009,63.69804 345.005766,63.56664 C344.881441,63.43524 344.785946,63.26424 344.715676,63.05184 C344.643604,62.84124 344.607568,62.58024 344.607568,62.26884 L344.607568,60.00264 Z" id="Fill-51" fill="#1A3667" mask="url(#mask-2)"></path>
                <path d="M348.191892,63.57006 C348.191892,63.45666 348.226126,63.36486 348.294595,63.29646 C348.363063,63.22806 348.447748,63.19386 348.545045,63.19386 C348.638739,63.19386 348.721622,63.22806 348.79009,63.29646 C348.858559,63.36486 348.892793,63.45666 348.892793,63.57006 C348.892793,63.67626 348.858559,63.76266 348.79009,63.83286 C348.721622,63.90126 348.638739,63.93546 348.545045,63.93546 C348.447748,63.93546 348.363063,63.90126 348.294595,63.83286 C348.226126,63.76266 348.191892,63.67626 348.191892,63.57006" id="Fill-52" fill="#1A3667" mask="url(#mask-2)"></path>
                <path d="M349.817658,63.0225 C349.954595,63.1683 350.116757,63.2853 350.304144,63.3735 C350.48973,63.4617 350.682523,63.5049 350.884324,63.5049 C351.138378,63.5049 351.338378,63.4473 351.480721,63.3321 C351.621261,63.2151 351.691532,63.0639 351.691532,62.8749 C351.691532,62.7777 351.675315,62.6931 351.642883,62.6247 C351.608649,62.5563 351.563604,62.4969 351.505946,62.4483 C351.448288,62.3997 351.381622,62.3547 351.302342,62.3151 C351.223063,62.2773 351.138378,62.2359 351.05009,62.1927 L350.495135,61.9515 C350.405045,61.9119 350.311351,61.8651 350.219459,61.8093 C350.123964,61.7553 350.039279,61.6887 349.965405,61.6095 C349.88973,61.5303 349.83027,61.4385 349.781622,61.3305 C349.734775,61.2225 349.711351,61.0983 349.711351,60.9561 C349.711351,60.8103 349.741982,60.6753 349.803243,60.5493 C349.862703,60.4251 349.947387,60.3153 350.057297,60.2235 C350.163604,60.1317 350.293333,60.0597 350.439279,60.0093 C350.587027,59.9571 350.749189,59.9319 350.925766,59.9319 C351.156396,59.9319 351.370811,59.9769 351.569009,60.0633 C351.763604,60.1533 351.931171,60.2667 352.068108,60.4089 L351.805045,60.7275 C351.686126,60.6123 351.556396,60.5241 351.412252,60.4593 C351.26991,60.3945 351.105946,60.3621 350.925766,60.3621 C350.70955,60.3621 350.534775,60.4125 350.403243,60.5115 C350.273514,60.6123 350.206847,60.7509 350.206847,60.9273 C350.206847,61.0209 350.226667,61.1001 350.262703,61.1649 C350.300541,61.2297 350.350991,61.2873 350.412252,61.3359 C350.475315,61.3845 350.543784,61.4277 350.619459,61.4655 C350.693333,61.5033 350.770811,61.5375 350.848288,61.5681 L351.397838,61.8039 C351.505946,61.8507 351.61045,61.9047 351.70955,61.9659 C351.806847,62.0271 351.891532,62.0973 351.961802,62.1783 C352.032072,62.2593 352.08973,62.3529 352.131171,62.4609 C352.172613,62.5689 352.192432,62.6931 352.192432,62.8353 C352.192432,62.9865 352.161802,63.1305 352.102342,63.2637 C352.039279,63.3969 351.954595,63.5139 351.839279,63.6147 C351.725766,63.7137 351.587027,63.7929 351.426667,63.8487 C351.266306,63.9063 351.082523,63.9351 350.878919,63.9351 C350.606847,63.9351 350.356396,63.8847 350.123964,63.7821 C349.893333,63.6795 349.693333,63.5409 349.523964,63.3645 L349.817658,63.0225 Z" id="Fill-53" fill="#1A3667" mask="url(#mask-2)"></path>
                <path d="M352.805405,63.57006 C352.805405,63.45666 352.83964,63.36486 352.908108,63.29646 C352.976577,63.22806 353.061261,63.19386 353.158559,63.19386 C353.252252,63.19386 353.335135,63.22806 353.403604,63.29646 C353.472072,63.36486 353.506306,63.45666 353.506306,63.57006 C353.506306,63.67626 353.472072,63.76266 353.403604,63.83286 C353.335135,63.90126 353.252252,63.93546 353.158559,63.93546 C353.061261,63.93546 352.976577,63.90126 352.908108,63.83286 C352.83964,63.76266 352.805405,63.67626 352.805405,63.57006" id="Fill-54" fill="#1A3667" mask="url(#mask-2)"></path>
                <path d="M355.622523,63.0225 C355.759459,63.1683 355.921622,63.2853 356.109009,63.3735 C356.294595,63.4617 356.487387,63.5049 356.689189,63.5049 C356.943243,63.5049 357.143243,63.4473 357.285586,63.3321 C357.426126,63.2151 357.496396,63.0639 357.496396,62.8749 C357.496396,62.7777 357.48018,62.6931 357.447748,62.6247 C357.413514,62.5563 357.368468,62.4969 357.310811,62.4483 C357.253153,62.3997 357.186486,62.3547 357.107207,62.3151 C357.027928,62.2773 356.943243,62.2359 356.854955,62.1927 L356.3,61.9515 C356.20991,61.9119 356.116216,61.8651 356.024324,61.8093 C355.928829,61.7553 355.844144,61.6887 355.77027,61.6095 C355.694595,61.5303 355.635135,61.4385 355.586486,61.3305 C355.53964,61.2225 355.516216,61.0983 355.516216,60.9561 C355.516216,60.8103 355.546847,60.6753 355.608108,60.5493 C355.667568,60.4251 355.752252,60.3153 355.862162,60.2235 C355.968468,60.1317 356.098198,60.0597 356.244144,60.0093 C356.391892,59.9571 356.554054,59.9319 356.730631,59.9319 C356.961261,59.9319 357.175676,59.9769 357.373874,60.0633 C357.568468,60.1533 357.736036,60.2667 357.872973,60.4089 L357.60991,60.7275 C357.490991,60.6123 357.361261,60.5241 357.217117,60.4593 C357.074775,60.3945 356.910811,60.3621 356.730631,60.3621 C356.514414,60.3621 356.33964,60.4125 356.208108,60.5115 C356.078378,60.6123 356.011712,60.7509 356.011712,60.9273 C356.011712,61.0209 356.031532,61.1001 356.067568,61.1649 C356.105405,61.2297 356.155856,61.2873 356.217117,61.3359 C356.28018,61.3845 356.348649,61.4277 356.424324,61.4655 C356.498198,61.5033 356.575676,61.5375 356.653153,61.5681 L357.202703,61.8039 C357.310811,61.8507 357.415315,61.9047 357.514414,61.9659 C357.611712,62.0271 357.696396,62.0973 357.766667,62.1783 C357.836937,62.2593 357.894595,62.3529 357.936036,62.4609 C357.977477,62.5689 357.997297,62.6931 357.997297,62.8353 C357.997297,62.9865 357.966667,63.1305 357.907207,63.2637 C357.844144,63.3969 357.759459,63.5139 357.644144,63.6147 C357.530631,63.7137 357.391892,63.7929 357.231532,63.8487 C357.071171,63.9063 356.887387,63.9351 356.683784,63.9351 C356.411712,63.9351 356.161261,63.8847 355.928829,63.7821 C355.698198,63.6795 355.498198,63.5409 355.328829,63.3645 L355.622523,63.0225 Z" id="Fill-55" fill="#1A3667" mask="url(#mask-2)"></path>
                <path d="M358.710631,61.0038 L359.110631,61.0038 L359.152072,61.416 L359.17009,61.416 C359.294414,61.2774 359.431351,61.164 359.579099,61.0722 C359.725045,60.9786 359.885405,60.9318 360.06018,60.9318 C360.28,60.9318 360.451171,60.9804 360.575495,61.0776 C360.69982,61.173 360.78991,61.308 360.849369,61.4808 C360.998919,61.3152 361.15027,61.1838 361.29982,61.083 C361.451171,60.9822 361.615135,60.9318 361.791712,60.9318 C362.087207,60.9318 362.305225,61.0272 362.449369,61.2162 C362.591712,61.4034 362.663784,61.6824 362.663784,62.0514 L362.663784,63.864 L362.180901,63.864 L362.180901,62.1162 C362.180901,61.8462 362.137658,61.65 362.051171,61.5294 C361.964685,61.4106 361.82955,61.3512 361.651171,61.3512 C361.434955,61.3512 361.195315,61.497 360.93045,61.7922 L360.93045,63.864 L360.449369,63.864 L360.449369,62.1162 C360.449369,61.8462 360.404324,61.65 360.31964,61.5294 C360.233153,61.4106 360.098018,61.3512 359.912432,61.3512 C359.696216,61.3512 359.456577,61.497 359.193514,61.7922 L359.193514,63.864 L358.710631,63.864 L358.710631,61.0038 Z" id="Fill-56" fill="#1A3667" mask="url(#mask-2)"></path>
                <path d="M363.931171,63.08766 C363.931171,63.25146 363.978018,63.37026 364.075315,63.44046 C364.170811,63.51066 364.28973,63.54666 364.43027,63.54666 C364.569009,63.54666 364.700541,63.51426 364.823063,63.44946 C364.945586,63.38466 365.077117,63.28926 365.215856,63.16326 L365.215856,62.36946 C364.974414,62.40006 364.772613,62.43786 364.608649,62.48106 C364.442883,62.52426 364.311351,62.57466 364.21045,62.63406 C364.111351,62.69346 364.039279,62.76006 363.994234,62.83746 C363.952793,62.91306 363.931171,62.99766 363.931171,63.08766 M363.451892,63.12366 C363.451892,62.80866 363.594234,62.56746 363.875315,62.40186 C364.154595,62.23446 364.601441,62.11746 365.215856,62.05086 C365.215856,61.96086 365.206847,61.87266 365.188829,61.78626 C365.170811,61.69986 365.14018,61.62426 365.095135,61.55586 C365.048288,61.48926 364.988829,61.43706 364.914955,61.39566 C364.839279,61.35426 364.743784,61.33266 364.626667,61.33266 C364.457297,61.33266 364.300541,61.36506 364.156396,61.42806 C364.014054,61.48926 363.886126,61.56126 363.770811,61.63866 L363.578018,61.30386 C363.70955,61.21746 363.873514,61.13466 364.066306,61.05366 C364.259099,60.97266 364.46991,60.93306 364.702342,60.93306 C365.051892,60.93306 365.305946,61.03926 365.462703,61.25346 C365.619459,61.46766 365.696937,61.75386 365.696937,62.11026 L365.696937,63.86526 L365.298739,63.86526 L365.255495,63.52326 L365.244685,63.52326 C365.105946,63.63666 364.958198,63.73386 364.79964,63.81486 C364.641081,63.89586 364.473514,63.93546 364.295135,63.93546 C364.051892,63.93546 363.85009,63.86526 363.691532,63.72306 C363.531171,63.58086 363.451892,63.38286 363.451892,63.12366" id="Fill-57" fill="#1A3667" mask="url(#mask-2)"></path>
                <path d="M366.612793,59.67306 L367.095676,59.67306 L367.095676,63.32346 C367.095676,63.40086 367.108288,63.45666 367.137117,63.48726 C367.164144,63.51966 367.194775,63.53586 367.230811,63.53586 L367.274054,63.53586 C367.288468,63.53586 367.31009,63.53226 367.337117,63.52326 L367.40018,63.88866 C367.371351,63.90486 367.331712,63.91566 367.29027,63.92286 C367.247027,63.93186 367.191171,63.93546 367.124505,63.93546 C366.940721,63.93546 366.807387,63.87966 366.72991,63.76986 C366.650631,63.66006 366.612793,63.49986 366.612793,63.28746 L366.612793,59.67306 Z" id="Fill-58" fill="#1A3667" mask="url(#mask-2)"></path>
                <path d="M368.115495,59.67306 L368.598378,59.67306 L368.598378,63.32346 C368.598378,63.40086 368.610991,63.45666 368.63982,63.48726 C368.666847,63.51966 368.697477,63.53586 368.733514,63.53586 L368.776757,63.53586 C368.791171,63.53586 368.812793,63.53226 368.83982,63.52326 L368.902883,63.88866 C368.874054,63.90486 368.834414,63.91566 368.792973,63.92286 C368.74973,63.93186 368.693874,63.93546 368.627207,63.93546 C368.443423,63.93546 368.31009,63.87966 368.232613,63.76986 C368.153333,63.66006 368.115495,63.49986 368.115495,63.28746 L368.115495,59.67306 Z" id="Fill-59" fill="#1A3667" mask="url(#mask-2)"></path>
                <path d="M372.016396,63.4761 C372.351532,63.4761 372.609189,63.4149 372.794775,63.2907 C372.978559,63.1665 373.072252,62.9739 373.072252,62.7111 C373.072252,62.4717 372.98036,62.2953 372.801982,62.1837 C372.62,62.0721 372.356937,62.0163 372.016396,62.0163 L371.344324,62.0163 L371.344324,63.4761 L372.016396,63.4761 Z M371.915495,61.6509 C372.250631,61.6509 372.49027,61.5951 372.632613,61.4799 C372.776757,61.3665 372.847027,61.2009 372.847027,60.9867 C372.847027,60.7743 372.771351,60.6213 372.62,60.5295 C372.468649,60.4377 372.243423,60.3909 371.940721,60.3909 L371.344324,60.3909 L371.344324,61.6509 L371.915495,61.6509 Z M370.854234,60.0021 L372.003784,60.0021 C372.201982,60.0021 372.38036,60.0201 372.544324,60.0561 C372.708288,60.0903 372.847027,60.1461 372.962342,60.2199 C373.079459,60.2955 373.16955,60.3927 373.234414,60.5115 C373.299279,60.6321 373.32991,60.7761 373.32991,60.9453 C373.32991,61.1379 373.275856,61.3107 373.165946,61.4655 C373.056036,61.6203 372.886667,61.7283 372.657838,61.7877 L372.657838,61.8093 C372.942523,61.8543 373.162342,61.9515 373.319099,62.1045 C373.477658,62.2575 373.555135,62.4663 373.555135,62.7345 C373.555135,62.9217 373.519099,63.0873 373.448829,63.2295 C373.378559,63.3699 373.277658,63.4869 373.147928,63.5823 C373.02,63.6759 372.863243,63.7461 372.683063,63.7947 C372.502883,63.8415 372.302883,63.8649 372.086667,63.8649 L370.854234,63.8649 L370.854234,60.0021 Z" id="Fill-60" fill="#1A3667" mask="url(#mask-2)"></path>
                <path d="M374.231712,61.0038 L374.72,61.0038 L374.72,62.7516 C374.72,63.0234 374.763243,63.2178 374.847928,63.3384 C374.932613,63.4572 375.06955,63.5166 375.256937,63.5166 C375.406486,63.5166 375.53982,63.4788 375.651532,63.4032 C375.766847,63.3258 375.891171,63.2034 376.02991,63.0342 L376.02991,61.0038 L376.512793,61.0038 L376.512793,63.864 L376.112793,63.864 L376.071351,63.4176 L376.053333,63.4176 C375.92,63.5742 375.777658,63.7002 375.631712,63.7938 C375.483964,63.8892 375.310991,63.9342 375.109189,63.9342 C374.802883,63.9342 374.579459,63.8406 374.440721,63.6534 C374.301982,63.4644 374.231712,63.1854 374.231712,62.8164 L374.231712,61.0038 Z" id="Fill-61" fill="#1A3667" mask="url(#mask-2)"></path>
                <path d="M377.402523,63.2169 C377.528649,63.3195 377.658378,63.4023 377.788108,63.4653 C377.91964,63.5265 378.072793,63.5589 378.245766,63.5589 C378.433153,63.5589 378.575495,63.5157 378.669189,63.4293 C378.764685,63.3429 378.811532,63.2367 378.811532,63.1107 C378.811532,63.0369 378.791712,62.9721 378.752072,62.9163 C378.714234,62.8623 378.661982,62.8137 378.602523,62.7723 C378.541261,62.7309 378.470991,62.6949 378.393514,62.6643 C378.314234,62.6319 378.234955,62.6013 378.157477,62.5689 C378.054775,62.5347 377.953874,62.4933 377.851171,62.4483 C377.748468,62.4033 377.658378,62.3493 377.577297,62.2845 C377.496216,62.2197 377.431351,62.1441 377.379099,62.0577 C377.328649,61.9713 377.301622,61.8669 377.301622,61.7463 C377.301622,61.6311 377.325045,61.5249 377.37009,61.4241 C377.415135,61.3251 377.48,61.2387 377.564685,61.1649 C377.649369,61.0929 377.752072,61.0371 377.874595,60.9957 C377.995315,60.9543 378.132252,60.9327 378.285405,60.9327 C378.467387,60.9327 378.633153,60.9651 378.784505,61.0263 C378.935856,61.0893 379.067387,61.1667 379.175495,61.2567 L378.946667,61.5627 C378.849369,61.4889 378.746667,61.4277 378.64036,61.3791 C378.534054,61.3341 378.416937,61.3089 378.292613,61.3089 C378.112432,61.3089 377.979099,61.3503 377.894414,61.4331 C377.811532,61.5159 377.768288,61.6113 377.768288,61.7211 C377.768288,61.7895 377.786306,61.8471 377.820541,61.8957 C377.856577,61.9443 377.903423,61.9875 377.962883,62.0253 C378.022342,62.0613 378.089009,62.0955 378.166486,62.1261 C378.242162,62.1549 378.323243,62.1855 378.404324,62.2161 C378.505225,62.2557 378.60973,62.2971 378.714234,62.3403 C378.816937,62.3835 378.910631,62.4375 378.993514,62.5023 C379.076396,62.5671 379.144865,62.6463 379.197117,62.7399 C379.249369,62.8353 379.276396,62.9487 379.276396,63.0819 C379.276396,63.1989 379.252973,63.3087 379.20973,63.4113 C379.164685,63.5139 379.096216,63.6039 379.00973,63.6813 C378.91964,63.7605 378.80973,63.8217 378.678198,63.8667 C378.546667,63.9135 378.397117,63.9351 378.227748,63.9351 C378.024144,63.9351 377.827748,63.8973 377.643964,63.8235 C377.458378,63.7479 377.298018,63.6543 377.161081,63.5409 L377.402523,63.2169 Z" id="Fill-62" fill="#1A3667" mask="url(#mask-2)"></path>
                <path d="M379.947748,63.86346 L380.430631,63.86346 L380.430631,61.00326 L379.947748,61.00326 L379.947748,63.86346 Z M380.194595,60.41466 C380.100901,60.41466 380.01982,60.38586 379.956757,60.32646 C379.891892,60.26706 379.859459,60.19326 379.859459,60.10326 C379.859459,60.00966 379.891892,59.93406 379.956757,59.87646 C380.01982,59.81886 380.100901,59.79006 380.194595,59.79006 C380.29009,59.79006 380.369369,59.81886 380.434234,59.87646 C380.499099,59.93406 380.531532,60.00966 380.531532,60.10326 C380.531532,60.19326 380.499099,60.26706 380.434234,60.32646 C380.369369,60.38586 380.29009,60.41466 380.194595,60.41466 Z" id="Fill-63" fill="#1A3667" mask="url(#mask-2)"></path>
                <path d="M381.398378,61.0038 L381.798378,61.0038 L381.83982,61.416 L381.857838,61.416 C381.994775,61.2774 382.138919,61.164 382.29027,61.0722 C382.441622,60.9786 382.618198,60.9318 382.818198,60.9318 C383.120901,60.9318 383.340721,61.0272 383.481261,61.2162 C383.62,61.4034 383.688468,61.6824 383.688468,62.0514 L383.688468,63.864 L383.207387,63.864 L383.207387,62.1162 C383.207387,61.8462 383.162342,61.65 383.077658,61.5294 C382.991171,61.4106 382.854234,61.3512 382.665045,61.3512 C382.515495,61.3512 382.383964,61.3872 382.268649,61.4628 C382.156937,61.5366 382.027207,61.6464 381.881261,61.7922 L381.881261,63.864 L381.398378,63.864 L381.398378,61.0038 Z" id="Fill-64" fill="#1A3667" mask="url(#mask-2)"></path>
                <path d="M386.413333,62.22186 C386.413333,61.92666 386.352072,61.70346 386.225946,61.54686 C386.103423,61.39386 385.928649,61.31646 385.705225,61.31646 C385.604324,61.31646 385.507027,61.33626 385.413333,61.37766 C385.323243,61.41906 385.238559,61.47666 385.164685,61.55406 C385.089009,61.62966 385.025946,61.72506 384.977297,61.83666 C384.928649,61.94826 384.896216,62.07606 384.88,62.22186 L386.413333,62.22186 Z M384.40973,62.43966 C384.40973,62.20386 384.445766,61.99326 384.517838,61.80786 C384.58991,61.62066 384.687207,61.46226 384.806126,61.33266 C384.926847,61.20306 385.063784,61.10406 385.216937,61.03566 C385.37009,60.96726 385.528649,60.93306 385.694414,60.93306 C385.874595,60.93306 386.036757,60.96366 386.179099,61.02666 C386.323243,61.08966 386.443964,61.17966 386.539459,61.29846 C386.634955,61.41546 386.708829,61.55586 386.759279,61.72146 C386.811532,61.88526 386.836757,62.07066 386.836757,62.27406 C386.836757,62.38026 386.831351,62.47026 386.820541,62.54046 L384.885405,62.54046 C384.905225,62.85006 385.002523,63.09486 385.173694,63.27486 C385.343063,63.45666 385.566486,63.54666 385.842162,63.54666 C385.979099,63.54666 386.105225,63.52686 386.222342,63.48546 C386.337658,63.44406 386.449369,63.39006 386.553874,63.32346 L386.725045,63.64026 C386.600721,63.71946 386.46018,63.78786 386.305225,63.84726 C386.152072,63.90666 385.979099,63.93546 385.780901,63.93546 C385.58991,63.93546 385.40973,63.90126 385.243964,63.83286 C385.076396,63.76266 384.93045,63.66546 384.806126,63.53766 C384.683604,63.40986 384.586306,63.25506 384.514234,63.06966 C384.443964,62.88606 384.40973,62.67546 384.40973,62.43966 Z" id="Fill-65" fill="#1A3667" mask="url(#mask-2)"></path>
                <path d="M387.467207,63.2169 C387.593333,63.3195 387.723063,63.4023 387.852793,63.4653 C387.984324,63.5265 388.137477,63.5589 388.31045,63.5589 C388.497838,63.5589 388.64018,63.5157 388.733874,63.4293 C388.829369,63.3429 388.876216,63.2367 388.876216,63.1107 C388.876216,63.0369 388.856396,62.9721 388.816757,62.9163 C388.778919,62.8623 388.726667,62.8137 388.667207,62.7723 C388.605946,62.7309 388.535676,62.6949 388.458198,62.6643 C388.378919,62.6319 388.29964,62.6013 388.222162,62.5689 C388.119459,62.5347 388.018559,62.4933 387.915856,62.4483 C387.813153,62.4033 387.723063,62.3493 387.641982,62.2845 C387.560901,62.2197 387.496036,62.1441 387.443784,62.0577 C387.393333,61.9713 387.366306,61.8669 387.366306,61.7463 C387.366306,61.6311 387.38973,61.5249 387.434775,61.4241 C387.47982,61.3251 387.544685,61.2387 387.629369,61.1649 C387.714054,61.0929 387.816757,61.0371 387.939279,60.9957 C388.06,60.9543 388.196937,60.9327 388.35009,60.9327 C388.532072,60.9327 388.697838,60.9651 388.849189,61.0263 C389.000541,61.0893 389.132072,61.1667 389.24018,61.2567 L389.011351,61.5627 C388.914054,61.4889 388.811351,61.4277 388.705045,61.3791 C388.598739,61.3341 388.481622,61.3089 388.357297,61.3089 C388.177117,61.3089 388.043784,61.3503 387.959099,61.4331 C387.876216,61.5159 387.832973,61.6113 387.832973,61.7211 C387.832973,61.7895 387.850991,61.8471 387.885225,61.8957 C387.921261,61.9443 387.968108,61.9875 388.027568,62.0253 C388.087027,62.0613 388.153694,62.0955 388.231171,62.1261 C388.306847,62.1549 388.387928,62.1855 388.469009,62.2161 C388.56991,62.2557 388.674414,62.2971 388.778919,62.3403 C388.881622,62.3835 388.975315,62.4375 389.058198,62.5023 C389.141081,62.5671 389.20955,62.6463 389.261802,62.7399 C389.314054,62.8353 389.341081,62.9487 389.341081,63.0819 C389.341081,63.1989 389.317658,63.3087 389.274414,63.4113 C389.229369,63.5139 389.160901,63.6039 389.074414,63.6813 C388.984324,63.7605 388.874414,63.8217 388.742883,63.8667 C388.611351,63.9135 388.461802,63.9351 388.292432,63.9351 C388.088829,63.9351 387.892432,63.8973 387.708649,63.8235 C387.523063,63.7479 387.362703,63.6543 387.225766,63.5409 L387.467207,63.2169 Z" id="Fill-66" fill="#1A3667" mask="url(#mask-2)"></path>
                <path d="M389.935856,63.2169 C390.061982,63.3195 390.191712,63.4023 390.321441,63.4653 C390.452973,63.5265 390.606126,63.5589 390.779099,63.5589 C390.966486,63.5589 391.108829,63.5157 391.202523,63.4293 C391.298018,63.3429 391.344865,63.2367 391.344865,63.1107 C391.344865,63.0369 391.325045,62.9721 391.285405,62.9163 C391.247568,62.8623 391.195315,62.8137 391.135856,62.7723 C391.074595,62.7309 391.004324,62.6949 390.926847,62.6643 C390.847568,62.6319 390.768288,62.6013 390.690811,62.5689 C390.588108,62.5347 390.487207,62.4933 390.384505,62.4483 C390.281802,62.4033 390.191712,62.3493 390.110631,62.2845 C390.02955,62.2197 389.964685,62.1441 389.912432,62.0577 C389.861982,61.9713 389.834955,61.8669 389.834955,61.7463 C389.834955,61.6311 389.858378,61.5249 389.903423,61.4241 C389.948468,61.3251 390.013333,61.2387 390.098018,61.1649 C390.182703,61.0929 390.285405,61.0371 390.407928,60.9957 C390.528649,60.9543 390.665586,60.9327 390.818739,60.9327 C391.000721,60.9327 391.166486,60.9651 391.317838,61.0263 C391.469189,61.0893 391.600721,61.1667 391.708829,61.2567 L391.48,61.5627 C391.382703,61.4889 391.28,61.4277 391.173694,61.3791 C391.067387,61.3341 390.95027,61.3089 390.825946,61.3089 C390.645766,61.3089 390.512432,61.3503 390.427748,61.4331 C390.344865,61.5159 390.301622,61.6113 390.301622,61.7211 C390.301622,61.7895 390.31964,61.8471 390.353874,61.8957 C390.38991,61.9443 390.436757,61.9875 390.496216,62.0253 C390.555676,62.0613 390.622342,62.0955 390.69982,62.1261 C390.775495,62.1549 390.856577,62.1855 390.937658,62.2161 C391.038559,62.2557 391.143063,62.2971 391.247568,62.3403 C391.35027,62.3835 391.443964,62.4375 391.526847,62.5023 C391.60973,62.5671 391.678198,62.6463 391.73045,62.7399 C391.782703,62.8353 391.80973,62.9487 391.80973,63.0819 C391.80973,63.1989 391.786306,63.3087 391.743063,63.4113 C391.698018,63.5139 391.62955,63.6039 391.543063,63.6813 C391.452973,63.7605 391.343063,63.8217 391.211532,63.8667 C391.08,63.9135 390.93045,63.9351 390.761081,63.9351 C390.557477,63.9351 390.361081,63.8973 390.177297,63.8235 C389.991712,63.7479 389.831351,63.6543 389.694414,63.5409 L389.935856,63.2169 Z" id="Fill-67" fill="#1A3667" mask="url(#mask-2)"></path>
                <path d="M351.945045,69.35688 L351.761261,68.76828 C351.690991,68.55228 351.624324,68.33808 351.561261,68.12208 C351.498198,67.90968 351.436937,67.69008 351.373874,67.46688 L351.35045,67.46688 C351.290991,67.69008 351.22973,67.90968 351.166667,68.12208 C351.103604,68.33808 351.036937,68.55228 350.966667,68.76828 L350.782883,69.35688 L351.945045,69.35688 Z M352.067568,69.75108 L350.66036,69.75108 L350.289189,70.92828 L349.788288,70.92828 L351.096396,67.06728 L351.64955,67.06728 L352.957658,70.92828 L352.433333,70.92828 L352.067568,69.75108 Z" id="Fill-68" fill="#1A3667" mask="url(#mask-2)"></path>
                <path d="M353.753874,69.49746 C353.753874,69.84306 353.822342,70.11126 353.959279,70.30386 C354.096216,70.49646 354.292613,70.59186 354.543063,70.59186 C354.678198,70.59186 354.802523,70.55946 354.91964,70.49646 C355.038559,70.43166 355.155676,70.33086 355.274595,70.19766 L355.274595,68.70366 C355.152072,68.59386 355.036757,68.51646 354.923243,68.47146 C354.811532,68.42466 354.696216,68.40306 354.579099,68.40306 C354.465586,68.40306 354.357477,68.43006 354.256577,68.48226 C354.157477,68.53446 354.070991,68.61006 353.995315,68.70546 C353.921441,68.80266 353.861982,68.91786 353.818739,69.04926 C353.775495,69.18426 353.753874,69.33366 353.753874,69.49746 M353.252973,69.50286 C353.252973,69.27246 353.287207,69.06366 353.355676,68.87646 C353.424144,68.69106 353.516036,68.53266 353.631351,68.40306 C353.743063,68.27346 353.874595,68.17266 354.024144,68.10246 C354.173694,68.03226 354.33045,67.99626 354.496216,67.99626 C354.661982,67.99626 354.804324,68.02686 354.926847,68.08446 C355.049369,68.14386 355.171892,68.22306 355.298018,68.32566 L355.274595,67.83786 L355.274595,66.73626 L355.762883,66.73626 L355.762883,70.92846 L355.362883,70.92846 L355.321441,70.59186 L355.303423,70.59186 C355.18991,70.70166 355.06018,70.79886 354.912432,70.87806 C354.764685,70.95906 354.607928,70.99866 354.438559,70.99866 C354.076396,70.99866 353.78991,70.86906 353.573694,70.60986 C353.359279,70.35246 353.252973,69.98346 353.252973,69.50286" id="Fill-69" fill="#1A3667" mask="url(#mask-2)"></path>
                <path d="M356.730991,68.06754 L357.130991,68.06754 L357.172432,68.47974 L357.19045,68.47974 C357.314775,68.34114 357.451712,68.22774 357.599459,68.13594 C357.745405,68.04234 357.905766,67.99554 358.080541,67.99554 C358.30036,67.99554 358.471532,68.04414 358.595856,68.14134 C358.72018,68.23674 358.81027,68.37174 358.86973,68.54454 C359.019279,68.37894 359.170631,68.24754 359.32018,68.14674 C359.471532,68.04594 359.635495,67.99554 359.812072,67.99554 C360.107568,67.99554 360.325586,68.09094 360.46973,68.27994 C360.612072,68.46714 360.684144,68.74614 360.684144,69.11514 L360.684144,70.92774 L360.201261,70.92774 L360.201261,69.17994 C360.201261,68.90994 360.158018,68.71374 360.071532,68.59314 C359.985045,68.47434 359.84991,68.41494 359.671532,68.41494 C359.455315,68.41494 359.215676,68.56074 358.950811,68.85594 L358.950811,70.92774 L358.46973,70.92774 L358.46973,69.17994 C358.46973,68.90994 358.424685,68.71374 358.34,68.59314 C358.253514,68.47434 358.118378,68.41494 357.932793,68.41494 C357.716577,68.41494 357.476937,68.56074 357.213874,68.85594 L357.213874,70.92774 L356.730991,70.92774 L356.730991,68.06754 Z" id="Fill-70" fill="#1A3667" mask="url(#mask-2)"></path>
                <path d="M361.616216,70.92846 L362.099099,70.92846 L362.099099,68.06826 L361.616216,68.06826 L361.616216,70.92846 Z M361.861261,67.47786 C361.769369,67.47786 361.688288,67.44906 361.625225,67.38966 C361.558559,67.33026 361.526126,67.25646 361.526126,67.16646 C361.526126,67.07286 361.558559,66.99726 361.625225,66.93966 C361.688288,66.88206 361.769369,66.85506 361.861261,66.85506 C361.956757,66.85506 362.036036,66.88206 362.100901,66.93966 C362.165766,66.99726 362.198198,67.07286 362.198198,67.16646 C362.198198,67.25646 362.165766,67.33026 362.100901,67.38966 C362.036036,67.44906 361.956757,67.47786 361.861261,67.47786 Z" id="Fill-71" fill="#1A3667" mask="url(#mask-2)"></path>
                <path d="M363.065405,68.06754 L363.465405,68.06754 L363.506847,68.47974 L363.524865,68.47974 C363.661802,68.34114 363.805946,68.22774 363.957297,68.13594 C364.108649,68.04234 364.285225,67.99554 364.485225,67.99554 C364.787928,67.99554 365.007748,68.09094 365.148288,68.27994 C365.287027,68.46714 365.355495,68.74614 365.355495,69.11514 L365.355495,70.92774 L364.874414,70.92774 L364.874414,69.17994 C364.874414,68.90994 364.829369,68.71374 364.744685,68.59314 C364.658198,68.47434 364.521261,68.41494 364.332072,68.41494 C364.182523,68.41494 364.050991,68.45094 363.935676,68.52654 C363.823964,68.60034 363.694234,68.71014 363.548288,68.85594 L363.548288,70.92774 L363.065405,70.92774 L363.065405,68.06754 Z" id="Fill-72" fill="#1A3667" mask="url(#mask-2)"></path>
                <path d="M366.288288,70.92846 L366.771171,70.92846 L366.771171,68.06826 L366.288288,68.06826 L366.288288,70.92846 Z M366.535135,67.47786 C366.441441,67.47786 366.36036,67.44906 366.297297,67.38966 C366.232432,67.33026 366.2,67.25646 366.2,67.16646 C366.2,67.07286 366.232432,66.99726 366.297297,66.93966 C366.36036,66.88206 366.441441,66.85506 366.535135,66.85506 C366.630631,66.85506 366.70991,66.88206 366.774775,66.93966 C366.83964,66.99726 366.872072,67.07286 366.872072,67.16646 C366.872072,67.25646 366.83964,67.33026 366.774775,67.38966 C366.70991,67.44906 366.630631,67.47786 366.535135,67.47786 Z" id="Fill-73" fill="#1A3667" mask="url(#mask-2)"></path>
                <path d="M367.661441,70.28064 C367.787568,70.38324 367.917297,70.46604 368.047027,70.52904 C368.178559,70.59024 368.331712,70.62264 368.504685,70.62264 C368.692072,70.62264 368.834414,70.57944 368.928108,70.49304 C369.023604,70.40664 369.07045,70.30044 369.07045,70.17444 C369.07045,70.10064 369.050631,70.03584 369.010991,69.98004 C368.973153,69.92604 368.920901,69.87744 368.861441,69.83604 C368.80018,69.79464 368.72991,69.75864 368.652432,69.72804 C368.573153,69.69564 368.493874,69.66504 368.416396,69.63264 C368.313694,69.59844 368.212793,69.55704 368.11009,69.51204 C368.007387,69.46704 367.917297,69.41304 367.836216,69.34824 C367.755135,69.28344 367.69027,69.20784 367.638018,69.12144 C367.587568,69.03504 367.560541,68.93064 367.560541,68.81004 C367.560541,68.69484 367.583964,68.58864 367.629009,68.48784 C367.674054,68.38884 367.738919,68.30244 367.823604,68.22864 C367.908288,68.15664 368.010991,68.10084 368.133514,68.05944 C368.254234,68.01804 368.391171,67.99644 368.544324,67.99644 C368.726306,67.99644 368.892072,68.02884 369.043423,68.09004 C369.194775,68.15304 369.326306,68.23044 369.434414,68.32044 L369.205586,68.62644 C369.108288,68.55264 369.005586,68.49144 368.899279,68.44284 C368.792973,68.39784 368.675856,68.37264 368.551532,68.37264 C368.371351,68.37264 368.238018,68.41404 368.153333,68.49684 C368.07045,68.57964 368.027207,68.67504 368.027207,68.78484 C368.027207,68.85324 368.045225,68.91084 368.079459,68.95944 C368.115495,69.00804 368.162342,69.05124 368.221802,69.08904 C368.281261,69.12504 368.347928,69.15924 368.425405,69.18984 C368.501081,69.21864 368.582162,69.24924 368.663243,69.27984 C368.764144,69.31944 368.868649,69.36084 368.973153,69.40404 C369.075856,69.44724 369.16955,69.50124 369.252432,69.56604 C369.335315,69.63084 369.403784,69.71004 369.456036,69.80364 C369.508288,69.89904 369.535315,70.01244 369.535315,70.14564 C369.535315,70.26264 369.511892,70.37244 369.468649,70.47504 C369.423604,70.57764 369.355135,70.66764 369.268649,70.74504 C369.178559,70.82424 369.068649,70.88544 368.937117,70.93044 C368.805586,70.97724 368.656036,70.99884 368.486667,70.99884 C368.283063,70.99884 368.086667,70.96104 367.902883,70.88724 C367.717297,70.81164 367.556937,70.71804 367.42,70.60464 L367.661441,70.28064 Z" id="Fill-74" fill="#1A3667" mask="url(#mask-2)"></path>
                <path d="M370.177658,68.4612 L369.752432,68.4612 L369.752432,68.0958 L370.201081,68.067 L370.258739,67.266 L370.665946,67.266 L370.665946,68.067 L371.437117,68.067 L371.437117,68.4612 L370.665946,68.4612 L370.665946,70.0506 C370.665946,70.227 370.698378,70.3638 370.763243,70.4592 C370.828108,70.5564 370.943423,70.605 371.109189,70.605 C371.15964,70.605 371.213694,70.5978 371.271351,70.5816 C371.332613,70.5654 371.384865,70.5474 371.431712,70.5276 L371.525405,70.893 C371.447928,70.92 371.361441,70.9452 371.26955,70.9668 C371.177658,70.9884 371.085766,70.9992 370.995676,70.9992 C370.842523,70.9992 370.714595,70.9758 370.61009,70.929 C370.505586,70.8804 370.422703,70.8174 370.357838,70.7346 C370.291171,70.6518 370.246126,70.551 370.217297,70.434 C370.19027,70.3152 370.177658,70.1856 370.177658,70.0452 L370.177658,68.4612 Z" id="Fill-75" fill="#1A3667" mask="url(#mask-2)"></path>
                <path d="M372.086847,68.06754 L372.486847,68.06754 L372.528288,68.58594 L372.546306,68.58594 C372.645405,68.40414 372.762523,68.26194 372.901261,68.15574 C373.041802,68.04954 373.193153,67.99554 373.358919,67.99554 C373.474234,67.99554 373.575135,68.01714 373.665225,68.05494 L373.571532,68.47974 C373.524685,68.46354 373.47964,68.45094 373.441802,68.44374 C373.402162,68.43654 373.353514,68.43294 373.294054,68.43294 C373.173333,68.43294 373.045405,68.48154 372.913874,68.57874 C372.782342,68.67774 372.667027,68.84874 372.56973,69.09174 L372.56973,70.92774 L372.086847,70.92774 L372.086847,68.06754 Z" id="Fill-76" fill="#1A3667" mask="url(#mask-2)"></path>
                <path d="M374.326667,70.1514 C374.326667,70.3152 374.373514,70.434 374.470811,70.5042 C374.566306,70.5744 374.685225,70.6104 374.825766,70.6104 C374.964505,70.6104 375.096036,70.578 375.218559,70.5132 C375.341081,70.4484 375.472613,70.353 375.611351,70.227 L375.611351,69.4332 C375.36991,69.4638 375.168108,69.5016 375.004144,69.5448 C374.838378,69.588 374.706847,69.6384 374.605946,69.6978 C374.506847,69.7572 374.434775,69.8238 374.38973,69.9012 C374.348288,69.9768 374.326667,70.0614 374.326667,70.1514 M373.847387,70.1874 C373.847387,69.8724 373.98973,69.6312 374.270811,69.4656 C374.55009,69.2982 374.996937,69.1812 375.611351,69.1146 C375.611351,69.0246 375.602342,68.9364 375.584324,68.85 C375.566306,68.7636 375.535676,68.688 375.490631,68.6196 C375.443784,68.553 375.384324,68.5008 375.31045,68.4594 C375.234775,68.418 375.139279,68.3964 375.022162,68.3964 C374.852793,68.3964 374.696036,68.4288 374.551892,68.4918 C374.40955,68.553 374.281622,68.625 374.166306,68.7024 L373.973514,68.3676 C374.105045,68.2812 374.269009,68.1984 374.461802,68.1174 C374.654595,68.0364 374.865405,67.9968 375.097838,67.9968 C375.447387,67.9968 375.701441,68.103 375.858198,68.3172 C376.014955,68.5314 376.092432,68.8176 376.092432,69.174 L376.092432,70.929 L375.694234,70.929 L375.650991,70.587 L375.64018,70.587 C375.501441,70.7004 375.353694,70.7976 375.195135,70.8786 C375.036577,70.9596 374.869009,70.9992 374.690631,70.9992 C374.447387,70.9992 374.245586,70.929 374.087027,70.7868 C373.926667,70.6446 373.847387,70.4466 373.847387,70.1874" id="Fill-77" fill="#1A3667" mask="url(#mask-2)"></path>
                <path d="M376.960901,68.4612 L376.535676,68.4612 L376.535676,68.0958 L376.984324,68.067 L377.041982,67.266 L377.449189,67.266 L377.449189,68.067 L378.22036,68.067 L378.22036,68.4612 L377.449189,68.4612 L377.449189,70.0506 C377.449189,70.227 377.481622,70.3638 377.546486,70.4592 C377.611351,70.5564 377.726667,70.605 377.892432,70.605 C377.942883,70.605 377.996937,70.5978 378.054595,70.5816 C378.115856,70.5654 378.168108,70.5474 378.214955,70.5276 L378.308649,70.893 C378.231171,70.92 378.144685,70.9452 378.052793,70.9668 C377.960901,70.9884 377.869009,70.9992 377.778919,70.9992 C377.625766,70.9992 377.497838,70.9758 377.393333,70.929 C377.288829,70.8804 377.205946,70.8174 377.141081,70.7346 C377.074414,70.6518 377.029369,70.551 377.000541,70.434 C376.973514,70.3152 376.960901,70.1856 376.960901,70.0452 L376.960901,68.4612 Z" id="Fill-78" fill="#1A3667" mask="url(#mask-2)"></path>
                <path d="M378.87027,70.92846 L379.353153,70.92846 L379.353153,68.06826 L378.87027,68.06826 L378.87027,70.92846 Z M379.117117,67.47786 C379.023423,67.47786 378.942342,67.44906 378.879279,67.38966 C378.814414,67.33026 378.78018,67.25646 378.78018,67.16646 C378.78018,67.07286 378.814414,66.99726 378.879279,66.93966 C378.942342,66.88206 379.023423,66.85506 379.117117,66.85506 C379.210811,66.85506 379.29009,66.88206 379.354955,66.93966 C379.41982,66.99726 379.452252,67.07286 379.452252,67.16646 C379.452252,67.25646 379.41982,67.33026 379.354955,67.38966 C379.29009,67.44906 379.210811,67.47786 379.117117,67.47786 Z" id="Fill-79" fill="#1A3667" mask="url(#mask-2)"></path>
                <path d="M380.608468,69.50358 C380.608468,69.66918 380.628288,69.81678 380.666126,69.95178 C380.707568,70.08498 380.761622,70.20018 380.835495,70.29558 C380.907568,70.39098 380.995856,70.46658 381.096757,70.51878 C381.199459,70.57278 381.311171,70.59798 381.433694,70.59798 C381.554414,70.59798 381.666126,70.57278 381.770631,70.51878 C381.871532,70.46658 381.958018,70.39098 382.031892,70.29558 C382.103964,70.20018 382.15982,70.08498 382.199459,69.95178 C382.237297,69.81678 382.257117,69.66918 382.257117,69.50358 C382.257117,69.33798 382.237297,69.18858 382.199459,69.05358 C382.15982,68.91858 382.103964,68.80158 382.031892,68.70258 C381.958018,68.60538 381.871532,68.52798 381.770631,68.47578 C381.666126,68.42358 381.554414,68.39658 381.433694,68.39658 C381.311171,68.39658 381.199459,68.42358 381.096757,68.47578 C380.995856,68.52798 380.907568,68.60538 380.835495,68.70258 C380.761622,68.80158 380.707568,68.91858 380.666126,69.05358 C380.628288,69.18858 380.608468,69.33798 380.608468,69.50358 M380.107568,69.50358 C380.107568,69.26418 380.143604,69.05178 380.215676,68.86458 C380.287748,68.67918 380.386847,68.52078 380.507568,68.39118 C380.63009,68.26158 380.770631,68.16258 380.929189,68.09598 C381.08955,68.02938 381.255315,67.99698 381.433694,67.99698 C381.61027,67.99698 381.777838,68.02938 381.936396,68.09598 C382.094955,68.16258 382.235495,68.26158 382.358018,68.39118 C382.480541,68.52078 382.577838,68.67918 382.64991,68.86458 C382.721982,69.05178 382.758018,69.26418 382.758018,69.50358 C382.758018,69.73938 382.721982,69.94998 382.64991,70.13718 C382.577838,70.32258 382.480541,70.47918 382.358018,70.60698 C382.235495,70.73478 382.094955,70.83198 381.936396,70.89858 C381.777838,70.96518 381.61027,70.99938 381.433694,70.99938 C381.255315,70.99938 381.08955,70.96518 380.929189,70.89858 C380.770631,70.83198 380.63009,70.73478 380.507568,70.60698 C380.386847,70.47918 380.287748,70.32258 380.215676,70.13718 C380.143604,69.94998 380.107568,69.73938 380.107568,69.50358" id="Fill-80" fill="#1A3667" mask="url(#mask-2)"></path>
                <path d="M383.513514,68.06754 L383.913514,68.06754 L383.954955,68.47974 L383.972973,68.47974 C384.10991,68.34114 384.254054,68.22774 384.405405,68.13594 C384.556757,68.04234 384.733333,67.99554 384.933333,67.99554 C385.236036,67.99554 385.455856,68.09094 385.596396,68.27994 C385.735135,68.46714 385.803604,68.74614 385.803604,69.11514 L385.803604,70.92774 L385.322523,70.92774 L385.322523,69.17994 C385.322523,68.90994 385.277477,68.71374 385.192793,68.59314 C385.106306,68.47434 384.969369,68.41494 384.78018,68.41494 C384.630631,68.41494 384.499099,68.45094 384.383784,68.52654 C384.272072,68.60034 384.142342,68.71014 383.996396,68.85594 L383.996396,70.92774 L383.513514,70.92774 L383.513514,68.06754 Z" id="Fill-81" fill="#1A3667" mask="url(#mask-2)"></path>
                <polygon id="Fill-82" fill="#DF533C" mask="url(#mask-2)" points="388.577477 48.89862 347.732432 48.89862 347.345045 48.89862 347.345045 48.47742 347.345045 42.47262 343.844144 42.47262 343.844144 52.73082 388.599099 52.73082"></polygon>
                <polygon id="Fill-83" fill="#4F84C4" mask="url(#mask-2)" points="343.903784 10.25838 347.408288 10.25838 347.408288 4.25358 347.408288 3.83238 347.792072 3.83238 388.255135 3.83238 388.637117 3.83238 388.637117 4.25358 388.637117 10.25838 392.141622 10.25838 392.141622 0.00018 343.903784 0.00018"></polygon>
                <path d="M341.081441,31.09374 C341.112072,32.42754 341.697658,34.96554 345.548108,34.96554 C347.634595,34.96554 349.953514,34.39674 349.953514,31.85874 C349.953514,29.99034 348.367928,29.48994 346.137297,28.89054 L343.872432,28.28754 C340.463423,27.38574 337.173333,26.52174 337.173333,21.24594 C337.173333,18.57474 338.436396,13.86954 345.281441,13.86954 C351.746306,13.86954 353.47964,18.67554 353.51027,21.61314 L349.277838,21.61314 C349.160721,20.54574 348.807568,18.00954 344.958919,18.00954 C343.285045,18.00954 341.286847,18.70974 341.286847,20.87874 C341.286847,22.74714 342.638198,23.14854 343.521081,23.38254 L348.661622,24.81714 C351.542703,25.61814 354.184144,26.95374 354.184144,31.25754 C354.184144,38.47014 347.722883,39.10194 345.870631,39.10194 C338.171532,39.10194 336.849009,34.06374 336.849009,31.09374 L341.081441,31.09374 Z" id="Fill-84" fill="#4F84C4" mask="url(#mask-2)"></path>
                <path d="M359.761081,14.5035 L370.40973,14.5035 C375.782703,14.5035 377.153874,18.1755 377.153874,20.6451 C377.153874,24.0831 375.382703,25.0533 374.469189,25.5519 C377.153874,26.6535 377.856577,28.9899 377.856577,31.3623 C377.856577,33.2631 377.125045,35.0649 375.964685,36.3015 C374.714234,37.6353 373.525045,38.4705 369.036757,38.4705 L359.761081,38.4705 L359.761081,14.5035 Z M364.153874,23.8833 L369.526847,23.8833 C371.325045,23.8833 372.761081,23.1165 372.761081,21.2139 C372.761081,19.2429 371.48,18.6417 369.404324,18.6417 L364.153874,18.6417 L364.153874,23.8833 Z M364.153874,34.3305 L369.771892,34.3305 C371.997117,34.3305 373.281802,33.2631 373.281802,30.8259 C373.281802,28.7253 371.631351,27.9207 369.984505,27.9207 L364.153874,27.9207 L364.153874,34.3305 Z" id="Fill-85" fill="#4F84C4" mask="url(#mask-2)"></path>
                <polygon id="Fill-86" fill="#4F84C4" mask="url(#mask-2)" points="392.107207 14.49738 388.631532 14.49738 381.671171 38.47878 386.063964 38.47878 390.330631 22.73238 394.663964 38.47878 399.056757 38.47878"></polygon>
                <polygon id="Fill-87" fill="#4F84C4" mask="url(#mask-2)" points="392.080901 48.87666 388.596216 52.73046 388.596216 38.53746 392.080901 38.53746"></polygon>
            </g>
        </g>
    </g>
</svg>