<?xml version="1.0" encoding="UTF-8"?>
<svg width="400px" height="67px" viewBox="0 0 400 67" version="1.1" xmlns="http://www.w3.org/2000/svg" xmlns:xlink="http://www.w3.org/1999/xlink">
    <!-- Generator: Sketch 49 (51002) - http://www.bohemiancoding.com/sketch -->
    <title>Page 1</title>
    <desc>Created with Sketch.</desc>
    <defs>
        <polygon id="path-1" points="0 66.5429514 399.057658 66.5429514 399.057658 -0.000724324324 0 -0.000724324324"></polygon>
    </defs>
    <g id="Page-1" stroke="none" stroke-width="1" fill="none" fill-rule="evenodd">
        <g id="Tablet" transform="translate(-250.000000, -3813.000000)">
            <g id="Page-1" transform="translate(250.000000, 3813.000000)">
                <path d="M139.091351,21.7306351 L140.318378,21.7306351 L140.318378,27.4799595 C140.318378,28.0648514 140.377838,28.5555811 140.494955,28.9503378 C140.613874,29.3469054 140.774234,29.6637973 140.976036,29.9010135 C141.177838,30.1400405 141.417477,30.3102568 141.691351,30.413473 C141.968829,30.5185 142.264324,30.5692027 142.57964,30.5692027 C142.903964,30.5692027 143.204865,30.5185 143.482342,30.413473 C143.758018,30.3102568 143.999459,30.1400405 144.206667,29.9010135 C144.412072,29.6637973 144.576036,29.3469054 144.693153,28.9503378 C144.812072,28.5555811 144.871532,28.0648514 144.871532,27.4799595 L144.871532,21.7306351 L146.053514,21.7306351 L146.053514,27.4509865 C146.053514,28.2332568 145.963423,28.8923919 145.786847,29.4265811 C145.61027,29.9607703 145.365225,30.3935541 145.057117,30.7267432 C144.745405,31.0581216 144.377838,31.2953378 143.954414,31.4383919 C143.530991,31.5814459 143.071532,31.6538784 142.57964,31.6538784 C142.085946,31.6538784 141.626486,31.5814459 141.197658,31.4383919 C140.768829,31.2953378 140.399459,31.0581216 140.08955,30.7267432 C139.77964,30.3935541 139.534595,29.9607703 139.356216,29.4265811 C139.17964,28.8923919 139.091351,28.2332568 139.091351,27.4509865 L139.091351,21.7306351 Z" id="Fill-1" fill="#1A3667"></path>
                <path d="M148.077477,30.7334432 C148.077477,30.4455243 148.163964,30.2155514 148.336937,30.0435243 C148.508108,29.8696865 148.717117,29.7827676 148.963964,29.7827676 C149.201802,29.7827676 149.405405,29.8696865 149.578378,30.0435243 C149.751351,30.2155514 149.837838,30.4455243 149.837838,30.7334432 C149.837838,30.9996324 149.751351,31.2223622 149.578378,31.3943892 C149.405405,31.5664162 149.201802,31.6551459 148.963964,31.6551459 C148.717117,31.6551459 148.508108,31.5664162 148.336937,31.3943892 C148.163964,31.2223622 148.077477,30.9996324 148.077477,30.7334432" id="Fill-3" fill="#1A3667"></path>
                <path d="M152.157838,29.3514324 C152.501982,29.719027 152.909189,30.0123784 153.377658,30.2351081 C153.846126,30.4578378 154.330811,30.5701081 154.831712,30.5701081 C155.473153,30.5701081 155.97045,30.4234324 156.325405,30.1318919 C156.682162,29.8403514 156.856937,29.4564595 156.856937,28.9802162 C156.856937,28.7321351 156.815495,28.5220811 156.732613,28.3482432 C156.647928,28.1762162 156.536216,28.0277297 156.393874,27.9027838 C156.24973,27.7796486 156.08036,27.6673784 155.882162,27.5695946 C155.685766,27.47 155.473153,27.3667838 155.247928,27.2563243 L153.856937,26.6478919 C153.62991,26.5501081 153.399279,26.4305946 153.163243,26.2911622 C152.927207,26.1535405 152.714595,25.9851351 152.527207,25.7859459 C152.33982,25.5885676 152.188468,25.3531622 152.067748,25.0815405 C151.950631,24.8081081 151.892973,24.493027 151.892973,24.1381081 C151.892973,23.7705135 151.968649,23.4282703 152.12,23.1131892 C152.273153,22.7944865 152.485766,22.5210541 152.756036,22.2874595 C153.026306,22.0556757 153.347027,21.8745946 153.716396,21.746027 C154.085766,21.6174595 154.492973,21.5522703 154.936216,21.5522703 C155.518198,21.5522703 156.055135,21.6645405 156.548829,21.8872703 C157.040721,22.11 157.458739,22.3997297 157.804685,22.7546486 L157.13982,23.5586486 C156.844324,23.2707297 156.516396,23.0461892 156.156036,22.8814054 C155.797477,22.7184324 155.39027,22.6369459 154.936216,22.6369459 C154.393874,22.6369459 153.957838,22.7637027 153.628108,23.0154054 C153.298378,23.2689189 153.132613,23.6165946 153.132613,24.0638649 C153.132613,24.3010811 153.179459,24.5020811 153.273153,24.6650541 C153.366847,24.828027 153.492973,24.9728919 153.64973,25.096027 C153.808288,25.2191622 153.981261,25.3278108 154.166847,25.421973 C154.356036,25.5161351 154.547027,25.6030541 154.745225,25.6827297 L156.118198,26.2766757 C156.395676,26.3961892 156.655135,26.532 156.903784,26.6841081 C157.148829,26.838027 157.361441,27.0172973 157.538018,27.2201081 C157.716396,27.4229189 157.855135,27.6601351 157.95964,27.9335676 C158.062342,28.2051892 158.114595,28.5202703 158.114595,28.877 C158.114595,29.2627027 158.038919,29.6248649 157.885766,29.9598649 C157.732613,30.2966757 157.514595,30.5918378 157.226306,30.8453514 C156.941622,31.0970541 156.597477,31.2962432 156.192072,31.4392973 C155.79027,31.5823514 155.330811,31.6547838 154.819099,31.6547838 C154.13982,31.6547838 153.507387,31.5262162 152.927207,31.2690811 C152.345225,31.0119459 151.842523,30.6588378 151.419099,30.2133784 L152.157838,29.3514324 Z" id="Fill-5" fill="#1A3667"></path>
                <path d="M159.651892,30.7334432 C159.651892,30.4455243 159.738378,30.2155514 159.911351,30.0435243 C160.082523,29.8696865 160.291532,29.7827676 160.538378,29.7827676 C160.776216,29.7827676 160.97982,29.8696865 161.152793,30.0435243 C161.325766,30.2155514 161.412252,30.4455243 161.412252,30.7334432 C161.412252,30.9996324 161.325766,31.2223622 161.152793,31.3943892 C160.97982,31.5664162 160.776216,31.6551459 160.538378,31.6551459 C160.291532,31.6551459 160.082523,31.5664162 159.911351,31.3943892 C159.738378,31.2223622 159.651892,30.9996324 159.651892,30.7334432" id="Fill-7" fill="#1A3667"></path>
                <path d="M166.716577,29.3514324 C167.060721,29.719027 167.467928,30.0123784 167.936396,30.2351081 C168.404865,30.4578378 168.88955,30.5701081 169.39045,30.5701081 C170.031892,30.5701081 170.529189,30.4234324 170.884144,30.1318919 C171.240901,29.8403514 171.415676,29.4564595 171.415676,28.9802162 C171.415676,28.7321351 171.374234,28.5220811 171.291351,28.3482432 C171.206667,28.1762162 171.094955,28.0277297 170.952613,27.9027838 C170.808468,27.7796486 170.639099,27.6673784 170.440901,27.5695946 C170.244505,27.47 170.031892,27.3667838 169.806667,27.2563243 L168.415676,26.6478919 C168.188649,26.5501081 167.958018,26.4305946 167.721982,26.2911622 C167.485946,26.1535405 167.273333,25.9851351 167.085946,25.7859459 C166.898559,25.5885676 166.747207,25.3531622 166.626486,25.0815405 C166.509369,24.8081081 166.451712,24.493027 166.451712,24.1381081 C166.451712,23.7705135 166.527387,23.4282703 166.678739,23.1131892 C166.831892,22.7944865 167.044505,22.5210541 167.314775,22.2874595 C167.585045,22.0556757 167.905766,21.8745946 168.275135,21.746027 C168.644505,21.6174595 169.051712,21.5522703 169.494955,21.5522703 C170.076937,21.5522703 170.613874,21.6645405 171.107568,21.8872703 C171.599459,22.11 172.017477,22.3997297 172.363423,22.7546486 L171.698559,23.5586486 C171.403063,23.2707297 171.075135,23.0461892 170.714775,22.8814054 C170.356216,22.7184324 169.949009,22.6369459 169.494955,22.6369459 C168.952613,22.6369459 168.516577,22.7637027 168.186847,23.0154054 C167.857117,23.2689189 167.691351,23.6165946 167.691351,24.0638649 C167.691351,24.3010811 167.738198,24.5020811 167.831892,24.6650541 C167.925586,24.828027 168.051712,24.9728919 168.208468,25.096027 C168.367027,25.2191622 168.54,25.3278108 168.725586,25.421973 C168.914775,25.5161351 169.105766,25.6030541 169.303964,25.6827297 L170.676937,26.2766757 C170.954414,26.3961892 171.213874,26.532 171.462523,26.6841081 C171.707568,26.838027 171.92018,27.0172973 172.096757,27.2201081 C172.275135,27.4229189 172.413874,27.6601351 172.518378,27.9335676 C172.621081,28.2051892 172.673333,28.5202703 172.673333,28.877 C172.673333,29.2627027 172.597658,29.6248649 172.444505,29.9598649 C172.291351,30.2966757 172.073333,30.5918378 171.785045,30.8453514 C171.50036,31.0970541 171.156216,31.2962432 170.750811,31.4392973 C170.349009,31.5823514 169.88955,31.6547838 169.377838,31.6547838 C168.698559,31.6547838 168.066126,31.5262162 167.485946,31.2690811 C166.903964,31.0119459 166.401261,30.6588378 165.977838,30.2133784 L166.716577,29.3514324 Z" id="Fill-9" fill="#1A3667"></path>
                <path d="M174.462162,24.2559919 L175.467568,24.2559919 L175.57027,25.2972081 L175.615315,25.2972081 C175.928829,24.9495324 176.272973,24.6598027 176.642342,24.4280189 C177.011712,24.1944243 177.413514,24.0785324 177.847748,24.0785324 C178.399099,24.0785324 178.82973,24.1998568 179.141441,24.4425054 C179.451351,24.6851541 179.68018,25.0237757 179.827928,25.4601811 C180.202703,25.0436946 180.579279,24.7086946 180.957658,24.4569919 C181.337838,24.2052892 181.748649,24.0785324 182.191892,24.0785324 C182.932432,24.0785324 183.481982,24.3157486 183.840541,24.7901811 C184.200901,25.2664243 184.381081,25.9690189 184.381081,26.8997757 L184.381081,31.4756946 L183.168468,31.4756946 L183.168468,27.0645595 C183.168468,26.380073 183.058559,25.8875324 182.842342,25.585127 C182.626126,25.2845324 182.290991,25.1324243 181.838739,25.1324243 C181.296396,25.1324243 180.694595,25.5036405 180.035135,26.2478838 L180.035135,31.4756946 L178.822523,31.4756946 L178.822523,27.0645595 C178.822523,26.380073 178.712613,25.8875324 178.496396,25.585127 C178.28018,25.2845324 177.941441,25.1324243 177.478378,25.1324243 C176.936036,25.1324243 176.334234,25.5036405 175.674775,26.2478838 L175.674775,31.4756946 L174.462162,31.4756946 L174.462162,24.2559919 Z" id="Fill-11" fill="#1A3667"></path>
                <path d="M187.560541,29.5151297 C187.560541,29.9316162 187.679459,30.2285892 187.922703,30.4060486 C188.164144,30.5853189 188.461441,30.6740486 188.816396,30.6740486 C189.162342,30.6740486 189.488468,30.5925622 189.798378,30.4277784 C190.11009,30.2666162 190.438018,30.0257784 190.782162,29.7088865 L190.782162,27.7025081 C190.18036,27.7821838 189.674054,27.8763459 189.25964,27.9849946 C188.847027,28.0936432 188.513694,28.2222108 188.263243,28.3706973 C188.010991,28.5191838 187.830811,28.6912108 187.722703,28.8831568 C187.612793,29.0769135 187.560541,29.2887784 187.560541,29.5151297 M186.362342,29.6038595 C186.362342,28.8125351 186.713694,28.2059135 187.42,27.7839946 C188.122703,27.3638865 189.245225,27.0687243 190.782162,26.9003189 C190.782162,26.6739676 190.758739,26.4512378 190.715495,26.2321297 C190.672252,26.0148324 190.592973,25.8210757 190.479459,25.6526703 C190.365946,25.4842649 190.216396,25.3484541 190.029009,25.2452378 C189.841622,25.1402108 189.60018,25.0876973 189.304685,25.0876973 C188.879459,25.0876973 188.49027,25.167373 188.128108,25.3267243 C187.76955,25.4842649 187.447027,25.6635351 187.160541,25.8609135 L186.674054,25.0134541 C187.007387,24.7961568 187.416396,24.5861027 187.899279,24.3832919 C188.382162,24.1804811 188.915495,24.0790757 189.495676,24.0790757 C190.374955,24.0790757 191.009189,24.3470757 191.403784,24.8866973 C191.798378,25.4281297 191.994775,26.1488324 191.994775,27.0488054 L191.994775,31.4762378 L190.989369,31.4762378 L190.886667,30.6142919 L190.856036,30.6142919 C190.511892,30.9022108 190.140721,31.1466703 189.740721,31.3494811 C189.340721,31.5522919 188.920901,31.6555081 188.477658,31.6555081 C187.865045,31.6555081 187.360541,31.4762378 186.960541,31.1195081 C186.562342,30.7627784 186.362342,30.2575622 186.362342,29.6038595" id="Fill-13" fill="#1A3667"></path>
                <path d="M194.285586,20.8987486 L195.498198,20.8987486 L195.498198,30.1085324 C195.498198,30.3077216 195.530631,30.4453432 195.600901,30.5250189 C195.671171,30.6046946 195.748649,30.6445324 195.836937,30.6445324 L195.948649,30.6445324 C195.982883,30.6445324 196.035135,30.6336676 196.103604,30.6155595 L196.267568,31.5354514 C196.188288,31.5752892 196.094595,31.6042622 195.984685,31.6241811 C195.876577,31.6441 195.73964,31.6549649 195.572072,31.6549649 C195.107207,31.6549649 194.777477,31.5155324 194.581081,31.2384784 C194.384685,30.9614243 194.285586,30.5558027 194.285586,30.0198027 L194.285586,20.8987486 Z" id="Fill-15" fill="#1A3667"></path>
                <path d="M198.054595,20.8987486 L199.267207,20.8987486 L199.267207,30.1085324 C199.267207,30.3077216 199.29964,30.4453432 199.36991,30.5250189 C199.44018,30.6046946 199.517658,30.6445324 199.605946,30.6445324 L199.717658,30.6445324 C199.751892,30.6445324 199.804144,30.6336676 199.872613,30.6155595 L200.036577,31.5354514 C199.957297,31.5752892 199.863604,31.6042622 199.753694,31.6241811 C199.645586,31.6441 199.508649,31.6549649 199.341081,31.6549649 C198.876216,31.6549649 198.546486,31.5155324 198.35009,31.2384784 C198.153694,30.9614243 198.054595,30.5558027 198.054595,30.0198027 L198.054595,20.8987486 Z" id="Fill-17" fill="#1A3667"></path>
                <path d="M207.83964,30.4956838 C208.677477,30.4956838 209.327928,30.3399541 209.790991,30.0284946 C210.254054,29.7152243 210.486486,29.2281162 210.486486,28.5653595 C210.486486,27.9605486 210.259459,27.5169 209.805405,27.2344135 C209.353153,26.951927 208.697297,26.8106838 207.83964,26.8106838 L206.153153,26.8106838 L206.153153,30.4956838 L207.83964,30.4956838 Z M207.587387,25.8907919 C208.425225,25.8907919 209.023423,25.745927 209.383784,25.4598189 C209.744144,25.1737108 209.924324,24.7572243 209.924324,24.2121703 C209.924324,23.6761703 209.735135,23.2922784 209.354955,23.0604946 C208.974775,22.8287108 208.405405,22.7110081 207.648649,22.7110081 L206.153153,22.7110081 L206.153153,25.8907919 L207.587387,25.8907919 Z M204.927928,21.7313595 L207.809009,21.7313595 C208.302703,21.7313595 208.753153,21.7766297 209.162162,21.8635486 C209.571171,21.9540892 209.920721,22.0917108 210.210811,22.2800351 C210.502703,22.4683595 210.72973,22.7146297 210.891892,23.0152243 C211.054054,23.3176297 211.135135,23.6816027 211.135135,24.1071432 C211.135135,24.5924405 210.998198,25.0306568 210.722523,25.4217919 C210.445045,25.8147378 210.021622,26.0827378 209.452252,26.2330351 L209.452252,26.2909811 C210.16036,26.4014405 210.713514,26.6477108 211.106306,27.0334135 C211.500901,27.420927 211.699099,27.9514946 211.699099,28.6233054 C211.699099,29.0995486 211.609009,29.5142243 211.430631,29.8709541 C211.255856,30.2294946 211.003604,30.5264676 210.677477,30.7636838 C210.353153,31.0009 209.963964,31.1783595 209.50991,31.297873 C209.057658,31.4173865 208.558559,31.4771432 208.018018,31.4771432 L204.927928,31.4771432 L204.927928,21.7313595 Z" id="Fill-19" fill="#1A3667"></path>
                <path d="M213.396216,24.2559919 L214.623243,24.2559919 L214.623243,28.6689378 C214.623243,29.3516135 214.727748,29.8441541 214.94036,30.1465595 C215.152973,30.4489649 215.495315,30.5992622 215.969189,30.5992622 C216.343964,30.5992622 216.671892,30.5032892 216.96018,30.3095324 C217.244865,30.1175865 217.56018,29.8079378 217.904324,29.3823973 L217.904324,24.2559919 L219.116937,24.2559919 L219.116937,31.4756946 L218.111532,31.4756946 L218.008829,30.3475595 L217.963784,30.3475595 C217.628649,30.744127 217.275495,31.0610189 216.906126,31.2982351 C216.536757,31.5354514 216.100721,31.6549649 215.59982,31.6549649 C214.83045,31.6549649 214.27009,31.4177486 213.920541,30.9415054 C213.570991,30.4652622 213.396216,29.7626676 213.396216,28.8319108 L213.396216,24.2559919 Z" id="Fill-21" fill="#1A3667"></path>
                <path d="M221.34955,29.8421622 C221.664865,30.0992973 221.987387,30.3075405 222.317117,30.4650811 C222.646847,30.6244324 223.028829,30.7041081 223.463063,30.7041081 C223.936937,30.7041081 224.29009,30.5954595 224.527928,30.3763514 C224.763964,30.1590541 224.881081,29.8910541 224.881081,29.5741622 C224.881081,29.3876486 224.832432,29.2228649 224.733333,29.0852432 C224.634234,28.9458108 224.50991,28.8244865 224.356757,28.7194595 C224.203604,28.6162432 224.028829,28.5238919 223.832432,28.446027 C223.636036,28.3663514 223.437838,28.2866757 223.241441,28.2088108 C222.983784,28.1182703 222.72973,28.0168649 222.472072,27.9027838 C222.214414,27.7905135 221.987387,27.6510811 221.783784,27.4881081 C221.583784,27.3233243 221.418018,27.1331892 221.29009,26.9158919 C221.162162,26.6985946 221.097297,26.436027 221.097297,26.1281892 C221.097297,25.8420811 221.154955,25.5704595 221.266667,25.3187568 C221.381982,25.0652432 221.542342,24.8479459 221.756757,24.6650541 C221.967568,24.4821622 222.225225,24.3372973 222.531532,24.2340811 C222.836036,24.1308649 223.181982,24.0783514 223.565766,24.0783514 C224.018018,24.0783514 224.436036,24.158027 224.816216,24.3155676 C225.194595,24.4749189 225.520721,24.6668649 225.798198,24.895027 L225.221622,25.6682432 C224.976577,25.4799189 224.718919,25.326 224.454054,25.2064865 C224.187387,25.0887838 223.895495,25.029027 223.58018,25.029027 C223.127928,25.029027 222.794595,25.1322432 222.583784,25.3404865 C222.371171,25.5487297 222.266667,25.7913784 222.266667,26.0684324 C222.266667,26.2368378 222.30991,26.3835135 222.398198,26.5066486 C222.488288,26.6315946 222.605405,26.7402432 222.753153,26.8344054 C222.900901,26.9285676 223.07027,27.0118649 223.263063,27.0861081 C223.455856,27.1603514 223.654054,27.2382162 223.863063,27.3160811 C224.117117,27.4156757 224.376577,27.5188919 224.637838,27.6275405 C224.899099,27.738 225.133333,27.8738108 225.340541,28.0367838 C225.545946,28.1997568 225.717117,28.4007568 225.85045,28.637973 C225.981982,28.877 226.048649,29.1631081 226.048649,29.4999189 C226.048649,29.7968919 225.992793,30.0739459 225.879279,30.3328919 C225.765766,30.590027 225.598198,30.8181892 225.376577,31.0155676 C225.154955,31.2129459 224.879279,31.3704865 224.547748,31.4827568 C224.21982,31.5968378 223.843243,31.6547838 223.418018,31.6547838 C222.904505,31.6547838 222.418018,31.5606216 221.954955,31.3722973 C221.491892,31.183973 221.086486,30.9467568 220.742342,30.6588378 L221.34955,29.8421622 Z" id="Fill-23" fill="#1A3667"></path>
                <mask id="mask-2" fill="white">
                    <use xlink:href="#path-1"></use>
                </mask>
                <g id="Clip-26"></g>
                <path d="M227.735135,31.4747892 L228.947748,31.4747892 L228.947748,24.2550865 L227.735135,24.2550865 L227.735135,31.4747892 Z M228.356757,22.7702216 C228.118919,22.7702216 227.918919,22.6959784 227.756757,22.5474919 C227.594595,22.3990054 227.513514,22.2124919 227.513514,21.9843297 C227.513514,21.7453027 227.594595,21.5551676 227.756757,21.4121135 C227.918919,21.2690595 228.118919,21.196627 228.356757,21.196627 C228.592793,21.196627 228.792793,21.2690595 228.954955,21.4121135 C229.117117,21.5551676 229.198198,21.7453027 229.198198,21.9843297 C229.198198,22.2124919 229.117117,22.3990054 228.954955,22.5474919 C228.792793,22.6959784 228.592793,22.7702216 228.356757,22.7702216 Z" id="Fill-25" fill="#1A3667" mask="url(#mask-2)"></path>
                <path d="M231.372072,24.2559919 L232.377477,24.2559919 L232.48018,25.2972081 L232.525225,25.2972081 C232.869369,24.9495324 233.231532,24.6598027 233.611712,24.4280189 C233.99009,24.1944243 234.431532,24.0785324 234.934234,24.0785324 C235.692793,24.0785324 236.247748,24.3157486 236.597297,24.7901811 C236.946847,25.2664243 237.121622,25.9690189 237.121622,26.8997757 L237.121622,31.4756946 L235.910811,31.4756946 L235.910811,27.0645595 C235.910811,26.380073 235.800901,25.8875324 235.584685,25.585127 C235.368468,25.2845324 235.022523,25.1324243 234.55045,25.1324243 C234.175676,25.1324243 233.845946,25.2265865 233.559459,25.4149108 C233.274775,25.6032351 232.948649,25.8802892 232.584685,26.2478838 L232.584685,31.4756946 L231.372072,31.4756946 L231.372072,24.2559919 Z" id="Fill-27" fill="#1A3667" mask="url(#mask-2)"></path>
                <path d="M243.951171,27.3311108 C243.951171,26.5886784 243.794414,26.0218946 243.484505,25.6307595 C243.174595,25.2396243 242.738559,25.0440568 242.178198,25.0440568 C241.920541,25.0440568 241.675495,25.0965703 241.444865,25.1997865 C241.212432,25.3030027 241.003423,25.4514892 240.817838,25.6452459 C240.628649,25.8390027 240.473694,26.0762189 240.351171,26.3587054 C240.228649,26.6411919 240.147568,26.965327 240.106126,27.3311108 L243.951171,27.3311108 Z M238.924144,27.8815973 C238.924144,27.2876514 239.016036,26.755273 239.198018,26.2844622 C239.38,25.8136514 239.623243,25.415273 239.922342,25.0875162 C240.223243,24.7615703 240.565586,24.5116784 240.949369,24.3378405 C241.334955,24.1640027 241.734955,24.0788946 242.147568,24.0788946 C242.59982,24.0788946 243.007027,24.1585703 243.367387,24.3161108 C243.725946,24.4736514 244.026847,24.7018135 244.268288,24.9987865 C244.50973,25.2957595 244.695315,25.6524892 244.821441,26.0689757 C244.951171,26.4854622 245.016036,26.9508405 245.016036,27.4651108 C245.016036,27.7331108 244.99982,27.9558405 244.969189,28.1333 L240.122342,28.1333 C240.170991,28.9155703 240.410631,29.5348676 240.837658,29.9911919 C241.268288,30.4457054 241.826847,30.6738676 242.516937,30.6738676 C242.862883,30.6738676 243.178198,30.6213541 243.47009,30.5181378 C243.761982,30.4149216 244.039459,30.2773 244.304324,30.1088946 L244.734955,30.9128946 C244.41964,31.110273 244.068288,31.2841108 243.684505,31.4325973 C243.300721,31.5810838 242.862883,31.655327 242.369189,31.655327 C241.886306,31.655327 241.435856,31.5665973 241.016036,31.3945703 C240.598018,31.2207324 240.234054,30.9744622 239.922342,30.6521378 C239.612432,30.3298135 239.367387,29.9350568 239.190811,29.4714892 C239.014234,29.0043 238.924144,28.4755432 238.924144,27.8815973 Z" id="Fill-28" fill="#1A3667" mask="url(#mask-2)"></path>
                <path d="M246.597658,29.8421622 C246.912973,30.0992973 247.235495,30.3075405 247.565225,30.4650811 C247.894955,30.6244324 248.276937,30.7041081 248.711171,30.7041081 C249.185045,30.7041081 249.538198,30.5954595 249.776036,30.3763514 C250.012072,30.1590541 250.129189,29.8910541 250.129189,29.5741622 C250.129189,29.3876486 250.080541,29.2228649 249.981441,29.0852432 C249.882342,28.9458108 249.758018,28.8244865 249.604865,28.7194595 C249.451712,28.6162432 249.276937,28.5238919 249.080541,28.446027 C248.884144,28.3663514 248.685946,28.2866757 248.48955,28.2088108 C248.231892,28.1182703 247.977838,28.0168649 247.72018,27.9027838 C247.462523,27.7905135 247.235495,27.6510811 247.031892,27.4881081 C246.831892,27.3233243 246.666126,27.1331892 246.538198,26.9158919 C246.41027,26.6985946 246.345405,26.436027 246.345405,26.1281892 C246.345405,25.8420811 246.403063,25.5704595 246.514775,25.3187568 C246.63009,25.0652432 246.79045,24.8479459 247.004865,24.6650541 C247.215676,24.4821622 247.473333,24.3372973 247.77964,24.2340811 C248.084144,24.1308649 248.43009,24.0783514 248.813874,24.0783514 C249.266126,24.0783514 249.684144,24.158027 250.064324,24.3155676 C250.442703,24.4749189 250.768829,24.6668649 251.046306,24.895027 L250.46973,25.6682432 C250.224685,25.4799189 249.967027,25.326 249.702162,25.2064865 C249.435495,25.0887838 249.143604,25.029027 248.828288,25.029027 C248.376036,25.029027 248.042703,25.1322432 247.831892,25.3404865 C247.619279,25.5487297 247.514775,25.7913784 247.514775,26.0684324 C247.514775,26.2368378 247.558018,26.3835135 247.646306,26.5066486 C247.736396,26.6315946 247.853514,26.7402432 248.001261,26.8344054 C248.149009,26.9285676 248.318378,27.0118649 248.511171,27.0861081 C248.703964,27.1603514 248.902162,27.2382162 249.111171,27.3160811 C249.365225,27.4156757 249.624685,27.5188919 249.885946,27.6275405 C250.147207,27.738 250.381441,27.8738108 250.588649,28.0367838 C250.794054,28.1997568 250.965225,28.4007568 251.098559,28.637973 C251.23009,28.877 251.296757,29.1631081 251.296757,29.4999189 C251.296757,29.7968919 251.240901,30.0739459 251.127387,30.3328919 C251.013874,30.590027 250.846306,30.8181892 250.624685,31.0155676 C250.403063,31.2129459 250.127387,31.3704865 249.795856,31.4827568 C249.467928,31.5968378 249.091351,31.6547838 248.666126,31.6547838 C248.152613,31.6547838 247.666126,31.5606216 247.203063,31.3722973 C246.74,31.183973 246.334595,30.9467568 245.99045,30.6588378 L246.597658,29.8421622 Z" id="Fill-29" fill="#1A3667" mask="url(#mask-2)"></path>
                <path d="M252.78955,29.8421622 C253.104865,30.0992973 253.427387,30.3075405 253.757117,30.4650811 C254.086847,30.6244324 254.468829,30.7041081 254.903063,30.7041081 C255.376937,30.7041081 255.73009,30.5954595 255.967928,30.3763514 C256.203964,30.1590541 256.321081,29.8910541 256.321081,29.5741622 C256.321081,29.3876486 256.272432,29.2228649 256.173333,29.0852432 C256.074234,28.9458108 255.94991,28.8244865 255.796757,28.7194595 C255.643604,28.6162432 255.468829,28.5238919 255.272432,28.446027 C255.076036,28.3663514 254.877838,28.2866757 254.681441,28.2088108 C254.423784,28.1182703 254.16973,28.0168649 253.912072,27.9027838 C253.654414,27.7905135 253.427387,27.6510811 253.223784,27.4881081 C253.023784,27.3233243 252.858018,27.1331892 252.73009,26.9158919 C252.602162,26.6985946 252.537297,26.436027 252.537297,26.1281892 C252.537297,25.8420811 252.594955,25.5704595 252.706667,25.3187568 C252.821982,25.0652432 252.982342,24.8479459 253.196757,24.6650541 C253.407568,24.4821622 253.665225,24.3372973 253.971532,24.2340811 C254.276036,24.1308649 254.621982,24.0783514 255.005766,24.0783514 C255.458018,24.0783514 255.876036,24.158027 256.256216,24.3155676 C256.634595,24.4749189 256.960721,24.6668649 257.238198,24.895027 L256.661622,25.6682432 C256.416577,25.4799189 256.158919,25.326 255.894054,25.2064865 C255.627387,25.0887838 255.335495,25.029027 255.02018,25.029027 C254.567928,25.029027 254.234595,25.1322432 254.023784,25.3404865 C253.811171,25.5487297 253.706667,25.7913784 253.706667,26.0684324 C253.706667,26.2368378 253.74991,26.3835135 253.838198,26.5066486 C253.928288,26.6315946 254.045405,26.7402432 254.193153,26.8344054 C254.340901,26.9285676 254.51027,27.0118649 254.703063,27.0861081 C254.895856,27.1603514 255.094054,27.2382162 255.303063,27.3160811 C255.557117,27.4156757 255.816577,27.5188919 256.077838,27.6275405 C256.339099,27.738 256.573333,27.8738108 256.780541,28.0367838 C256.985946,28.1997568 257.157117,28.4007568 257.29045,28.637973 C257.421982,28.877 257.488649,29.1631081 257.488649,29.4999189 C257.488649,29.7968919 257.432793,30.0739459 257.319279,30.3328919 C257.205766,30.590027 257.038198,30.8181892 256.816577,31.0155676 C256.594955,31.2129459 256.319279,31.3704865 255.987748,31.4827568 C255.65982,31.5968378 255.283243,31.6547838 254.858018,31.6547838 C254.344505,31.6547838 253.858018,31.5606216 253.394955,31.3722973 C252.931892,31.183973 252.526486,30.9467568 252.182342,30.6588378 L252.78955,29.8421622 Z" id="Fill-30" fill="#1A3667" mask="url(#mask-2)"></path>
                <path d="M143.25982,41.0139595 L142.80036,39.5290946 C142.623784,38.9840405 142.456216,38.4426081 142.299459,37.9011757 C142.140901,37.3615541 141.984144,36.8092568 141.825586,36.2460946 L141.766126,36.2460946 C141.618378,36.8092568 141.467027,37.3615541 141.308468,37.9011757 C141.14991,38.4426081 140.982342,38.9840405 140.805766,39.5290946 L140.348108,41.0139595 L143.25982,41.0139595 Z M143.56973,42.0099054 L140.038198,42.0099054 L139.104865,44.9796351 L137.849009,44.9796351 L141.13009,35.2356622 L142.521081,35.2356622 L145.802162,44.9796351 L144.486847,44.9796351 L143.56973,42.0099054 Z" id="Fill-31" fill="#1A3667" mask="url(#mask-2)"></path>
                <path d="M147.797658,41.3701459 C147.797658,42.2411459 147.970631,42.9202 148.314775,43.4054973 C148.660721,43.8907946 149.147207,44.1334432 149.77964,44.1334432 C150.112973,44.1334432 150.428288,44.0519568 150.723784,43.8889838 C151.019279,43.7242 151.314775,43.4761189 151.61027,43.1393081 L151.61027,39.3655784 C151.305766,39.0885243 151.012072,38.8911459 150.730991,38.7770649 C150.451712,38.6647946 150.161622,38.6068486 149.866126,38.6068486 C149.581441,38.6068486 149.312973,38.6738486 149.060721,38.8078486 C148.81027,38.9418486 148.59045,39.130173 148.403063,39.3710108 C148.215676,39.6154703 148.067928,39.9052 147.95982,40.2402 C147.851712,40.5788216 147.797658,40.9554703 147.797658,41.3701459 M146.541802,41.3846324 C146.541802,40.8015514 146.628288,40.2746054 146.799459,39.8037946 C146.972432,39.3329838 147.201261,38.9346054 147.485946,38.6068486 C147.772432,38.2790919 148.102162,38.0273892 148.476937,37.8499297 C148.851712,37.6724703 149.246306,37.5819297 149.658919,37.5819297 C150.075135,37.5819297 150.433694,37.656173 150.74,37.8046595 C151.044505,37.9531459 151.356216,38.1577676 151.66973,38.4149027 L151.61027,37.1817405 L151.61027,34.4021459 L152.839099,34.4021459 L152.839099,44.9809027 L151.831892,44.9809027 L151.730991,44.1334432 L151.684144,44.1334432 C151.399459,44.4104973 151.071532,44.6513351 150.702162,44.8541459 C150.332793,45.0569568 149.936396,45.1583622 149.511171,45.1583622 C148.604865,45.1583622 147.884144,44.8324162 147.347207,44.1787135 C146.808468,43.5232 146.541802,42.5942541 146.541802,41.3846324" id="Fill-32" fill="#1A3667" mask="url(#mask-2)"></path>
                <path d="M155.261802,37.7601135 L156.267207,37.7601135 L156.36991,38.8013297 L156.414955,38.8013297 C156.728468,38.4536541 157.072613,38.1639243 157.441982,37.9321405 C157.811351,37.6985459 158.213153,37.5826541 158.647387,37.5826541 C159.198739,37.5826541 159.629369,37.7039784 159.941081,37.946627 C160.250991,38.1892757 160.47982,38.5278973 160.627568,38.9643027 C161.002342,38.5478162 161.378919,38.2128162 161.757297,37.9611135 C162.137477,37.7094108 162.548288,37.5826541 162.991532,37.5826541 C163.732072,37.5826541 164.281622,37.8198703 164.64018,38.2943027 C165.000541,38.7705459 165.180721,39.4731405 165.180721,40.4038973 L165.180721,44.9798162 L163.968108,44.9798162 L163.968108,40.5686811 C163.968108,39.8841946 163.858198,39.3916541 163.641982,39.0892486 C163.425766,38.7886541 163.090631,38.6365459 162.638378,38.6365459 C162.096036,38.6365459 161.494234,39.0077622 160.834775,39.7520054 L160.834775,44.9798162 L159.622162,44.9798162 L159.622162,40.5686811 C159.622162,39.8841946 159.512252,39.3916541 159.296036,39.0892486 C159.07982,38.7886541 158.741081,38.6365459 158.278018,38.6365459 C157.735676,38.6365459 157.133874,39.0077622 156.474414,39.7520054 L156.474414,44.9798162 L155.261802,44.9798162 L155.261802,37.7601135 Z" id="Fill-33" fill="#1A3667" mask="url(#mask-2)"></path>
                <path d="M167.517117,44.9798162 L168.72973,44.9798162 L168.72973,37.7601135 L167.517117,37.7601135 L167.517117,44.9798162 Z M168.138739,36.2752486 C167.900901,36.2752486 167.702703,36.2010054 167.538739,36.0525189 C167.376577,35.9040324 167.295495,35.7157081 167.295495,35.4875459 C167.295495,35.2503297 167.376577,35.0583838 167.538739,34.9153297 C167.702703,34.7722757 167.900901,34.6998432 168.138739,34.6998432 C168.374775,34.6998432 168.574775,34.7722757 168.736937,34.9153297 C168.899099,35.0583838 168.981982,35.2503297 168.981982,35.4875459 C168.981982,35.7157081 168.899099,35.9040324 168.736937,36.0525189 C168.574775,36.2010054 168.374775,36.2752486 168.138739,36.2752486 Z" id="Fill-34" fill="#1A3667" mask="url(#mask-2)"></path>
                <path d="M171.152432,37.7601135 L172.157838,37.7601135 L172.260541,38.8013297 L172.305586,38.8013297 C172.64973,38.4536541 173.011892,38.1639243 173.392072,37.9321405 C173.77045,37.6985459 174.211892,37.5826541 174.714595,37.5826541 C175.473153,37.5826541 176.028108,37.8198703 176.377658,38.2943027 C176.727207,38.7705459 176.901982,39.4731405 176.901982,40.4038973 L176.901982,44.9798162 L175.691171,44.9798162 L175.691171,40.5686811 C175.691171,39.8841946 175.581261,39.3916541 175.365045,39.0892486 C175.148829,38.7886541 174.802883,38.6365459 174.330811,38.6365459 C173.956036,38.6365459 173.626306,38.7307081 173.33982,38.9190324 C173.055135,39.1073568 172.729009,39.3844108 172.365045,39.7520054 L172.365045,44.9798162 L171.152432,44.9798162 L171.152432,37.7601135 Z" id="Fill-35" fill="#1A3667" mask="url(#mask-2)"></path>
                <path d="M179.237838,44.9798162 L180.45045,44.9798162 L180.45045,37.7601135 L179.237838,37.7601135 L179.237838,44.9798162 Z M179.859459,36.2752486 C179.621622,36.2752486 179.421622,36.2010054 179.259459,36.0525189 C179.097297,35.9040324 179.016216,35.7157081 179.016216,35.4875459 C179.016216,35.2503297 179.097297,35.0583838 179.259459,34.9153297 C179.421622,34.7722757 179.621622,34.6998432 179.859459,34.6998432 C180.095495,34.6998432 180.295495,34.7722757 180.457658,34.9153297 C180.61982,35.0583838 180.700901,35.2503297 180.700901,35.4875459 C180.700901,35.7157081 180.61982,35.9040324 180.457658,36.0525189 C180.295495,36.2010054 180.095495,36.2752486 179.859459,36.2752486 Z" id="Fill-36" fill="#1A3667" mask="url(#mask-2)"></path>
                <path d="M182.682883,43.3462838 C182.998198,43.6034189 183.320721,43.8116622 183.65045,43.9692027 C183.98018,44.1285541 184.362162,44.2082297 184.796396,44.2082297 C185.27027,44.2082297 185.623423,44.0995811 185.861261,43.880473 C186.097297,43.6631757 186.214414,43.3951757 186.214414,43.0782838 C186.214414,42.8917703 186.165766,42.7269865 186.066667,42.5893649 C185.967568,42.4499324 185.843243,42.3286081 185.69009,42.2235811 C185.536937,42.1203649 185.362162,42.0280135 185.165766,41.9501486 C184.969369,41.870473 184.771171,41.7907973 184.574775,41.7129324 C184.317117,41.6223919 184.063063,41.5209865 183.805405,41.4069054 C183.547748,41.2946351 183.320721,41.1552027 183.117117,40.9922297 C182.917117,40.8274459 182.751351,40.6373108 182.623423,40.4200135 C182.495495,40.2027162 182.430631,39.9401486 182.430631,39.6323108 C182.430631,39.3462027 182.488288,39.0745811 182.6,38.8228784 C182.715315,38.5693649 182.875676,38.3520676 183.09009,38.1691757 C183.300901,37.9862838 183.558559,37.8414189 183.864865,37.7382027 C184.169369,37.6349865 184.515315,37.582473 184.899099,37.582473 C185.351351,37.582473 185.769369,37.6621486 186.14955,37.8196892 C186.527928,37.9790405 186.854054,38.1709865 187.131532,38.3991486 L186.554955,39.1723649 C186.30991,38.9840405 186.052252,38.8301216 185.787387,38.7106081 C185.520721,38.5929054 185.228829,38.5331486 184.913514,38.5331486 C184.461261,38.5331486 184.127928,38.6363649 183.917117,38.8446081 C183.704505,39.0528514 183.6,39.2955 183.6,39.5725541 C183.6,39.7409595 183.643243,39.8876351 183.731532,40.0107703 C183.821622,40.1357162 183.938739,40.2443649 184.086486,40.338527 C184.234234,40.4326892 184.403604,40.5159865 184.596396,40.5902297 C184.789189,40.664473 184.987387,40.7423378 185.196396,40.8202027 C185.45045,40.9197973 185.70991,41.0230135 185.971171,41.1316622 C186.232432,41.2421216 186.466667,41.3779324 186.673874,41.5409054 C186.879279,41.7038784 187.05045,41.9048784 187.183784,42.1420946 C187.315315,42.3811216 187.381982,42.6672297 187.381982,43.0040405 C187.381982,43.3010135 187.326126,43.5780676 187.212613,43.8370135 C187.099099,44.0941486 186.931532,44.3223108 186.70991,44.5196892 C186.488288,44.7170676 186.212613,44.8746081 185.881081,44.9868784 C185.553153,45.1009595 185.176577,45.1589054 184.751351,45.1589054 C184.237838,45.1589054 183.751351,45.0647432 183.288288,44.8764189 C182.825225,44.6880946 182.41982,44.4508784 182.075676,44.1629595 L182.682883,43.3462838 Z" id="Fill-37" fill="#1A3667" mask="url(#mask-2)"></path>
                <path d="M189.008649,38.7556973 L187.945586,38.7556973 L187.945586,37.8339946 L189.068108,37.7597514 L189.215856,35.7388865 L190.237477,35.7388865 L190.237477,37.7597514 L192.172613,37.7597514 L192.172613,38.7556973 L190.237477,38.7556973 L190.237477,42.7666432 C190.237477,43.2121027 190.318559,43.5561568 190.478919,43.7988054 C190.642883,44.0414541 190.931171,44.1627784 191.345586,44.1627784 C191.473514,44.1627784 191.61045,44.1446703 191.758198,44.1048324 C191.905946,44.0649946 192.041081,44.0197243 192.158198,43.9690216 L192.394234,44.8907243 C192.197838,44.9613459 191.981622,45.0229135 191.750991,45.0772378 C191.52036,45.1315622 191.291532,45.1587243 191.064505,45.1587243 C190.680721,45.1587243 190.356396,45.0989676 190.096937,44.9812649 C189.833874,44.8617514 189.623063,44.6987784 189.460901,44.4905351 C189.296937,44.2822919 189.181622,44.0305892 189.113153,43.7336162 C189.044685,43.4348324 189.008649,43.1088865 189.008649,42.7521568 L189.008649,38.7556973 Z" id="Fill-38" fill="#1A3667" mask="url(#mask-2)"></path>
                <path d="M193.782342,37.7601135 L194.787748,37.7601135 L194.89045,39.0675189 L194.935495,39.0675189 C195.180541,38.6130054 195.47964,38.2508432 195.829189,37.9828432 C196.178739,37.7166541 196.560721,37.5826541 196.973333,37.5826541 C197.261622,37.5826541 197.515676,37.6315459 197.742703,37.7311405 L197.506667,38.8013297 C197.38955,38.7614919 197.27964,38.7307081 197.182342,38.7107892 C197.083243,38.6908703 196.960721,38.6818162 196.812973,38.6818162 C196.506667,38.6818162 196.18955,38.8049514 195.858018,39.0530324 C195.528288,39.3011135 195.241802,39.7320865 194.994955,40.3459514 L194.994955,44.9798162 L193.782342,44.9798162 L193.782342,37.7601135 Z" id="Fill-39" fill="#1A3667" mask="url(#mask-2)"></path>
                <path d="M199.414775,43.0192514 C199.414775,43.4357378 199.533694,43.7327108 199.776937,43.9101703 C200.018378,44.0894405 200.315676,44.1781703 200.670631,44.1781703 C201.016577,44.1781703 201.342703,44.0966838 201.652613,43.9319 C201.964324,43.7707378 202.292252,43.5299 202.636396,43.2130081 L202.636396,41.2066297 C202.034595,41.2863054 201.528288,41.3804676 201.113874,41.4891162 C200.701261,41.5977649 200.367928,41.7263324 200.117477,41.8748189 C199.865225,42.0233054 199.685045,42.1953324 199.576937,42.3872784 C199.467027,42.5810351 199.414775,42.7929 199.414775,43.0192514 M198.216577,43.1079811 C198.216577,42.3166568 198.567928,41.7100351 199.274234,41.2881162 C199.976937,40.8680081 201.099459,40.5728459 202.636396,40.4044405 C202.636396,40.1780892 202.612973,39.9553595 202.56973,39.7362514 C202.526486,39.5189541 202.447207,39.3251973 202.333694,39.1567919 C202.22018,38.9883865 202.070631,38.8525757 201.883243,38.7493595 C201.695856,38.6443324 201.454414,38.5918189 201.158919,38.5918189 C200.733694,38.5918189 200.344505,38.6714946 199.982342,38.8308459 C199.623784,38.9883865 199.301261,39.1676568 199.014775,39.3650351 L198.528288,38.5175757 C198.861622,38.3002784 199.270631,38.0902243 199.753514,37.8874135 C200.236396,37.6846027 200.76973,37.5831973 201.34991,37.5831973 C202.229189,37.5831973 202.863423,37.8511973 203.258018,38.3908189 C203.652613,38.9322514 203.849009,39.6529541 203.849009,40.552927 L203.849009,44.9803595 L202.843604,44.9803595 L202.740901,44.1184135 L202.71027,44.1184135 C202.366126,44.4063324 201.994955,44.6507919 201.594955,44.8536027 C201.194955,45.0564135 200.775135,45.1596297 200.331892,45.1596297 C199.719279,45.1596297 199.214775,44.9803595 198.814775,44.6236297 C198.416577,44.2669 198.216577,43.7616838 198.216577,43.1079811" id="Fill-40" fill="#1A3667" mask="url(#mask-2)"></path>
                <path d="M206.006126,38.7556973 L204.943063,38.7556973 L204.943063,37.8339946 L206.065586,37.7597514 L206.213333,35.7388865 L207.234955,35.7388865 L207.234955,37.7597514 L209.17009,37.7597514 L209.17009,38.7556973 L207.234955,38.7556973 L207.234955,42.7666432 C207.234955,43.2121027 207.316036,43.5561568 207.476396,43.7988054 C207.64036,44.0414541 207.928649,44.1627784 208.343063,44.1627784 C208.470991,44.1627784 208.607928,44.1446703 208.755676,44.1048324 C208.903423,44.0649946 209.038559,44.0197243 209.155676,43.9690216 L209.391712,44.8907243 C209.195315,44.9613459 208.979099,45.0229135 208.748468,45.0772378 C208.517838,45.1315622 208.289009,45.1587243 208.061982,45.1587243 C207.678198,45.1587243 207.353874,45.0989676 207.094414,44.9812649 C206.831351,44.8617514 206.620541,44.6987784 206.458378,44.4905351 C206.294414,44.2822919 206.179099,44.0305892 206.110631,43.7336162 C206.042162,43.4348324 206.006126,43.1088865 206.006126,42.7521568 L206.006126,38.7556973 Z" id="Fill-41" fill="#1A3667" mask="url(#mask-2)"></path>
                <path d="M210.796396,44.9798162 L212.009009,44.9798162 L212.009009,37.7601135 L210.796396,37.7601135 L210.796396,44.9798162 Z M211.416216,36.2752486 C211.178378,36.2752486 210.98018,36.2010054 210.816216,36.0525189 C210.654054,35.9040324 210.574775,35.7157081 210.574775,35.4875459 C210.574775,35.2503297 210.654054,35.0583838 210.816216,34.9153297 C210.98018,34.7722757 211.178378,34.6998432 211.416216,34.6998432 C211.652252,34.6998432 211.852252,34.7722757 212.014414,34.9153297 C212.176577,35.0583838 212.259459,35.2503297 212.259459,35.4875459 C212.259459,35.7157081 212.176577,35.9040324 212.014414,36.0525189 C211.852252,36.2010054 211.652252,36.2752486 211.416216,36.2752486 Z" id="Fill-42" fill="#1A3667" mask="url(#mask-2)"></path>
                <path d="M215.157658,41.3851757 C215.157658,41.7998514 215.204505,42.1765 215.305405,42.5151216 C215.402703,42.8519324 215.543243,43.1398514 215.725225,43.3843108 C215.909009,43.6251486 216.127027,43.813473 216.384685,43.947473 C216.638739,44.081473 216.921622,44.148473 217.226126,44.148473 C217.530631,44.148473 217.813514,44.081473 218.067568,43.947473 C218.325225,43.813473 218.545045,43.6251486 218.725225,43.3843108 C218.909009,43.1398514 219.04955,42.8519324 219.148649,42.5151216 C219.247748,42.1765 219.296396,41.7998514 219.296396,41.3851757 C219.296396,40.9705 219.247748,40.5902297 219.148649,40.2497973 C219.04955,39.9075541 218.909009,39.6123919 218.725225,39.3643108 C218.545045,39.1180405 218.325225,38.9260946 218.067568,38.7920946 C217.813514,38.6599054 217.530631,38.5929054 217.226126,38.5929054 C216.921622,38.5929054 216.638739,38.6599054 216.384685,38.7920946 C216.127027,38.9260946 215.909009,39.1180405 215.725225,39.3643108 C215.543243,39.6123919 215.402703,39.9075541 215.305405,40.2497973 C215.204505,40.5902297 215.157658,40.9705 215.157658,41.3851757 M213.9,41.3851757 C213.9,40.7821757 213.991892,40.2443649 214.173874,39.7735541 C214.355856,39.3027432 214.599099,38.9043649 214.905405,38.5784189 C215.20991,38.2506622 215.564865,38.0025811 215.961261,37.8341757 C216.361261,37.6657703 216.782883,37.582473 217.226126,37.582473 C217.671171,37.582473 218.090991,37.6657703 218.490991,37.8341757 C218.889189,38.0025811 219.242342,38.2506622 219.548649,38.5784189 C219.851351,38.9043649 220.096396,39.3027432 220.278378,39.7735541 C220.46036,40.2443649 220.552252,40.7821757 220.552252,41.3851757 C220.552252,41.9791216 220.46036,42.5115 220.278378,42.9823108 C220.096396,43.4531216 219.851351,43.8478784 219.548649,44.1702027 C219.242342,44.492527 218.889189,44.7387973 218.490991,44.9053919 C218.090991,45.0737973 217.671171,45.1589054 217.226126,45.1589054 C216.782883,45.1589054 216.361261,45.0737973 215.961261,44.9053919 C215.564865,44.7387973 215.20991,44.492527 214.905405,44.1702027 C214.599099,43.8478784 214.355856,43.4531216 214.173874,42.9823108 C213.991892,42.5115 213.9,41.9791216 213.9,41.3851757" id="Fill-43" fill="#1A3667" mask="url(#mask-2)"></path>
                <path d="M222.445766,37.7601135 L223.451171,37.7601135 L223.553874,38.8013297 L223.598919,38.8013297 C223.943063,38.4536541 224.305225,38.1639243 224.685405,37.9321405 C225.063784,37.6985459 225.505225,37.5826541 226.007928,37.5826541 C226.766486,37.5826541 227.321441,37.8198703 227.670991,38.2943027 C228.020541,38.7705459 228.195315,39.4731405 228.195315,40.4038973 L228.195315,44.9798162 L226.984505,44.9798162 L226.984505,40.5686811 C226.984505,39.8841946 226.874595,39.3916541 226.658378,39.0892486 C226.442162,38.7886541 226.096216,38.6365459 225.624144,38.6365459 C225.249369,38.6365459 224.91964,38.7307081 224.633153,38.9190324 C224.348468,39.1073568 224.022342,39.3844108 223.658378,39.7520054 L223.658378,44.9798162 L222.445766,44.9798162 L222.445766,37.7601135 Z" id="Fill-44" fill="#1A3667" mask="url(#mask-2)"></path>
                <polygon id="Fill-45" fill="#CA2026" mask="url(#mask-2)" points="61.5223423 61.9576162 12.9421622 61.9576162 12.4845045 61.9576162 12.4845045 61.4560216 12.4845045 54.2689135 8.31693694 54.2689135 8.31693694 66.5425892 61.5457658 66.5425892"></polygon>
                <polygon id="Fill-46" fill="#1A3667" mask="url(#mask-2)" points="8.39027027 15.7252622 12.5578378 15.7252622 12.5578378 8.53996486 12.5578378 8.03655946 13.0136937 8.03655946 61.1362162 8.03655946 61.5938739 8.03655946 61.5938739 8.53996486 61.5938739 15.7252622 65.7614414 15.7252622 65.7614414 3.45158649 8.39027027 3.45158649"></polygon>
                <path d="M5.03297297,40.6557811 C5.06900901,42.2529162 5.76630631,45.2878351 10.3428829,45.2878351 C12.8257658,45.2878351 15.5861261,44.6087811 15.5861261,41.5720514 C15.5861261,39.3357 13.6996396,38.7381324 11.0437838,38.0192405 L8.35369369,37.2985378 C4.29963964,36.2211054 0.386126126,35.1835108 0.386126126,28.8710243 C0.386126126,25.6767541 1.88882883,20.0487541 10.0275676,20.0487541 C17.7176577,20.0487541 19.7807207,25.7980784 19.8167568,29.3128622 L14.7825225,29.3128622 C14.6437838,28.0344297 14.223964,24.9977 9.64558559,24.9977 C7.65279279,24.9977 5.27801802,25.8379162 5.27801802,28.4346189 C5.27801802,30.6691595 6.88342342,31.1508351 7.93207207,31.4297 L14.0491892,33.1481595 C17.4726126,34.1060784 20.6167568,35.7014027 20.6167568,40.8531595 C20.6167568,49.4798622 12.9302703,50.2385919 10.7302703,50.2385919 C1.57531532,50.2385919 0.000540540541,44.2085919 0.000540540541,40.6557811 L5.03297297,40.6557811 Z" id="Fill-47" fill="#1A3667" mask="url(#mask-2)"></path>
                <path d="M27.2475676,20.8058541 L39.9142342,20.8058541 C46.3034234,20.8058541 47.9358559,25.2006919 47.9358559,28.1541243 C47.9358559,32.2664757 45.8313514,33.4272054 44.7412613,34.024773 C47.9358559,35.3430432 48.7700901,38.1389351 48.7700901,40.9746649 C48.7700901,43.2508541 47.8998198,45.4075297 46.5214414,46.8851514 C45.0331532,48.4822865 43.6169369,49.4800432 38.2818018,49.4800432 L27.2475676,49.4800432 L27.2475676,20.8058541 Z M32.4745946,32.0274486 L38.861982,32.0274486 C41.0043243,32.0274486 42.7106306,31.1093676 42.7106306,28.8331784 C42.7106306,26.4755027 41.1863063,25.7566108 38.7178378,25.7566108 L32.4745946,25.7566108 L32.4745946,32.0274486 Z M32.4745946,44.5274757 L39.1520721,44.5274757 C41.8025225,44.5274757 43.3268468,43.2508541 43.3268468,40.3336378 C43.3268468,37.8202324 41.3664865,36.8586919 39.4061261,36.8586919 L32.4745946,36.8586919 L32.4745946,44.5274757 Z" id="Fill-48" fill="#1A3667" mask="url(#mask-2)"></path>
                <polygon id="Fill-49" fill="#1A3667" mask="url(#mask-2)" points="65.7207207 20.7960757 61.5873874 20.7960757 53.3063063 49.488373 58.5351351 49.488373 63.6054054 30.6523189 68.7603604 49.488373 73.9873874 49.488373"></polygon>
                <polygon id="Fill-50" fill="#1A3667" mask="url(#mask-2)" points="65.6872072 61.9319027 61.5448649 66.542227 61.5448649 49.5604432 65.6872072 49.5604432"></polygon>
                <path d="M344.607568,54.9610054 L345.095856,54.9610054 L345.095856,57.2534919 C345.095856,57.4870865 345.121081,57.6808432 345.16973,57.8383838 C345.214775,57.9977351 345.27964,58.1244919 345.358919,58.2186541 C345.44,58.3128162 345.535495,58.381627 345.645405,58.4232757 C345.755315,58.4649243 345.872432,58.4848432 345.998559,58.4848432 C346.128288,58.4848432 346.249009,58.4649243 346.358919,58.4232757 C346.468829,58.381627 346.564324,58.3128162 346.647207,58.2186541 C346.73009,58.1244919 346.794955,57.9977351 346.841802,57.8383838 C346.888649,57.6808432 346.912072,57.4870865 346.912072,57.2534919 L346.912072,54.9610054 L347.384144,54.9610054 L347.384144,57.2408162 C347.384144,57.5540865 347.348108,57.8166541 347.277838,58.0285189 C347.205766,58.2421946 347.11027,58.4142216 346.985946,58.5464108 C346.861622,58.6786 346.715676,58.774573 346.546306,58.8307081 C346.376937,58.8886541 346.194955,58.917627 345.998559,58.917627 C345.802162,58.917627 345.62018,58.8886541 345.449009,58.8307081 C345.276036,58.774573 345.13009,58.6786 345.005766,58.5464108 C344.881441,58.4142216 344.785946,58.2421946 344.715676,58.0285189 C344.643604,57.8166541 344.607568,57.5540865 344.607568,57.2408162 L344.607568,54.9610054 Z" id="Fill-51" fill="#1A3667" mask="url(#mask-2)"></path>
                <path d="M348.191892,58.5498514 C348.191892,58.4357703 348.226126,58.3434189 348.294595,58.2746081 C348.363063,58.2057973 348.447748,58.1713919 348.545045,58.1713919 C348.638739,58.1713919 348.721622,58.2057973 348.79009,58.2746081 C348.858559,58.3434189 348.892793,58.4357703 348.892793,58.5498514 C348.892793,58.6566892 348.858559,58.7436081 348.79009,58.8142297 C348.721622,58.8830405 348.638739,58.9174459 348.545045,58.9174459 C348.447748,58.9174459 348.363063,58.8830405 348.294595,58.8142297 C348.226126,58.7436081 348.191892,58.6566892 348.191892,58.5498514" id="Fill-52" fill="#1A3667" mask="url(#mask-2)"></path>
                <path d="M349.817658,57.9990027 C349.954595,58.1456784 350.116757,58.2633811 350.304144,58.3521108 C350.48973,58.4408405 350.682523,58.4843 350.884324,58.4843 C351.138378,58.4843 351.338378,58.4263541 351.480721,58.3104622 C351.621261,58.1927595 351.691532,58.0406514 351.691532,57.8505162 C351.691532,57.7527324 351.675315,57.6676243 351.642883,57.5988135 C351.608649,57.5300027 351.563604,57.4702459 351.505946,57.4213541 C351.448288,57.3724622 351.381622,57.3271919 351.302342,57.2873541 C351.223063,57.249327 351.138378,57.2076784 351.05009,57.1642189 L350.495135,56.9215703 C350.405045,56.8817324 350.311351,56.8346514 350.219459,56.7785162 C350.123964,56.7241919 350.039279,56.6571919 349.965405,56.5775162 C349.88973,56.4978405 349.83027,56.4054892 349.781622,56.2968405 C349.734775,56.1881919 349.711351,56.0632459 349.711351,55.9201919 C349.711351,55.7735162 349.741982,55.6377054 349.803243,55.5109486 C349.862703,55.3860027 349.947387,55.2755432 350.057297,55.1831919 C350.163604,55.0908405 350.293333,55.0184081 350.439279,54.9677054 C350.587027,54.9151919 350.749189,54.8898405 350.925766,54.8898405 C351.156396,54.8898405 351.370811,54.9351108 351.569009,55.0220297 C351.763604,55.1125703 351.931171,55.2266514 352.068108,55.3697054 L351.805045,55.6902189 C351.686126,55.574327 351.556396,55.4855973 351.412252,55.4204081 C351.26991,55.3552189 351.105946,55.3226243 350.925766,55.3226243 C350.70955,55.3226243 350.534775,55.373327 350.403243,55.4729216 C350.273514,55.574327 350.206847,55.7137595 350.206847,55.8912189 C350.206847,55.9853811 350.226667,56.0650568 350.262703,56.1302459 C350.300541,56.1954351 350.350991,56.2533811 350.412252,56.302273 C350.475315,56.3511649 350.543784,56.3946243 350.619459,56.4326514 C350.693333,56.4706784 350.770811,56.5050838 350.848288,56.5358676 L351.397838,56.7730838 C351.505946,56.8201649 351.61045,56.8744892 351.70955,56.9360568 C351.806847,56.9976243 351.891532,57.0682459 351.961802,57.1497324 C352.032072,57.2312189 352.08973,57.3253811 352.131171,57.4340297 C352.172613,57.5426784 352.192432,57.6676243 352.192432,57.8106784 C352.192432,57.9627865 352.161802,58.1076514 352.102342,58.2416514 C352.039279,58.3756514 351.954595,58.4933541 351.839279,58.5947595 C351.725766,58.6943541 351.587027,58.7740297 351.426667,58.8301649 C351.266306,58.8881108 351.082523,58.9170838 350.878919,58.9170838 C350.606847,58.9170838 350.356396,58.8663811 350.123964,58.7631649 C349.893333,58.6599486 349.693333,58.5205162 349.523964,58.3430568 L349.817658,57.9990027 Z" id="Fill-53" fill="#1A3667" mask="url(#mask-2)"></path>
                <path d="M352.805405,58.5498514 C352.805405,58.4357703 352.83964,58.3434189 352.908108,58.2746081 C352.976577,58.2057973 353.061261,58.1713919 353.158559,58.1713919 C353.252252,58.1713919 353.335135,58.2057973 353.403604,58.2746081 C353.472072,58.3434189 353.506306,58.4357703 353.506306,58.5498514 C353.506306,58.6566892 353.472072,58.7436081 353.403604,58.8142297 C353.335135,58.8830405 353.252252,58.9174459 353.158559,58.9174459 C353.061261,58.9174459 352.976577,58.8830405 352.908108,58.8142297 C352.83964,58.7436081 352.805405,58.6566892 352.805405,58.5498514" id="Fill-54" fill="#1A3667" mask="url(#mask-2)"></path>
                <path d="M355.622523,57.9990027 C355.759459,58.1456784 355.921622,58.2633811 356.109009,58.3521108 C356.294595,58.4408405 356.487387,58.4843 356.689189,58.4843 C356.943243,58.4843 357.143243,58.4263541 357.285586,58.3104622 C357.426126,58.1927595 357.496396,58.0406514 357.496396,57.8505162 C357.496396,57.7527324 357.48018,57.6676243 357.447748,57.5988135 C357.413514,57.5300027 357.368468,57.4702459 357.310811,57.4213541 C357.253153,57.3724622 357.186486,57.3271919 357.107207,57.2873541 C357.027928,57.249327 356.943243,57.2076784 356.854955,57.1642189 L356.3,56.9215703 C356.20991,56.8817324 356.116216,56.8346514 356.024324,56.7785162 C355.928829,56.7241919 355.844144,56.6571919 355.77027,56.5775162 C355.694595,56.4978405 355.635135,56.4054892 355.586486,56.2968405 C355.53964,56.1881919 355.516216,56.0632459 355.516216,55.9201919 C355.516216,55.7735162 355.546847,55.6377054 355.608108,55.5109486 C355.667568,55.3860027 355.752252,55.2755432 355.862162,55.1831919 C355.968468,55.0908405 356.098198,55.0184081 356.244144,54.9677054 C356.391892,54.9151919 356.554054,54.8898405 356.730631,54.8898405 C356.961261,54.8898405 357.175676,54.9351108 357.373874,55.0220297 C357.568468,55.1125703 357.736036,55.2266514 357.872973,55.3697054 L357.60991,55.6902189 C357.490991,55.574327 357.361261,55.4855973 357.217117,55.4204081 C357.074775,55.3552189 356.910811,55.3226243 356.730631,55.3226243 C356.514414,55.3226243 356.33964,55.373327 356.208108,55.4729216 C356.078378,55.574327 356.011712,55.7137595 356.011712,55.8912189 C356.011712,55.9853811 356.031532,56.0650568 356.067568,56.1302459 C356.105405,56.1954351 356.155856,56.2533811 356.217117,56.302273 C356.28018,56.3511649 356.348649,56.3946243 356.424324,56.4326514 C356.498198,56.4706784 356.575676,56.5050838 356.653153,56.5358676 L357.202703,56.7730838 C357.310811,56.8201649 357.415315,56.8744892 357.514414,56.9360568 C357.611712,56.9976243 357.696396,57.0682459 357.766667,57.1497324 C357.836937,57.2312189 357.894595,57.3253811 357.936036,57.4340297 C357.977477,57.5426784 357.997297,57.6676243 357.997297,57.8106784 C357.997297,57.9627865 357.966667,58.1076514 357.907207,58.2416514 C357.844144,58.3756514 357.759459,58.4933541 357.644144,58.5947595 C357.530631,58.6943541 357.391892,58.7740297 357.231532,58.8301649 C357.071171,58.8881108 356.887387,58.9170838 356.683784,58.9170838 C356.411712,58.9170838 356.161261,58.8663811 355.928829,58.7631649 C355.698198,58.6599486 355.498198,58.5205162 355.328829,58.3430568 L355.622523,57.9990027 Z" id="Fill-55" fill="#1A3667" mask="url(#mask-2)"></path>
                <path d="M358.710631,55.9681784 L359.110631,55.9681784 L359.152072,56.3828541 L359.17009,56.3828541 C359.294414,56.2434216 359.431351,56.1293405 359.579099,56.0369892 C359.725045,55.942827 359.885405,55.8957459 360.06018,55.8957459 C360.28,55.8957459 360.451171,55.9446378 360.575495,56.0424216 C360.69982,56.1383946 360.78991,56.2742054 360.849369,56.4480432 C360.998919,56.2814486 361.15027,56.1492595 361.29982,56.0478541 C361.451171,55.9464486 361.615135,55.8957459 361.791712,55.8957459 C362.087207,55.8957459 362.305225,55.9917189 362.449369,56.1818541 C362.591712,56.3701784 362.663784,56.6508541 362.663784,57.0220703 L362.663784,58.8455568 L362.180901,58.8455568 L362.180901,57.0872595 C362.180901,56.8156378 362.137658,56.6182595 362.051171,56.4969351 C361.964685,56.3774216 361.82955,56.3176649 361.651171,56.3176649 C361.434955,56.3176649 361.195315,56.4643405 360.93045,56.7613135 L360.93045,58.8455568 L360.449369,58.8455568 L360.449369,57.0872595 C360.449369,56.8156378 360.404324,56.6182595 360.31964,56.4969351 C360.233153,56.3774216 360.098018,56.3176649 359.912432,56.3176649 C359.696216,56.3176649 359.456577,56.4643405 359.193514,56.7613135 L359.193514,58.8455568 L358.710631,58.8455568 L358.710631,55.9681784 Z" id="Fill-56" fill="#1A3667" mask="url(#mask-2)"></path>
                <path d="M363.931171,58.0645541 C363.931171,58.2293378 363.978018,58.3488514 364.075315,58.419473 C364.170811,58.4900946 364.28973,58.5263108 364.43027,58.5263108 C364.569009,58.5263108 364.700541,58.4937162 364.823063,58.428527 C364.945586,58.3633378 365.077117,58.2673649 365.215856,58.1406081 L365.215856,57.3420405 C364.974414,57.3728243 364.772613,57.4108514 364.608649,57.4543108 C364.442883,57.4977703 364.311351,57.548473 364.21045,57.6082297 C364.111351,57.6679865 364.039279,57.7349865 363.994234,57.8128514 C363.952793,57.8889054 363.931171,57.9740135 363.931171,58.0645541 M363.451892,58.1007703 C363.451892,57.7838784 363.594234,57.5412297 363.875315,57.3746351 C364.154595,57.2062297 364.601441,57.088527 365.215856,57.021527 C365.215856,56.9309865 365.206847,56.8422568 365.188829,56.7553378 C365.170811,56.6684189 365.14018,56.5923649 365.095135,56.5235541 C365.048288,56.4565541 364.988829,56.4040405 364.914955,56.3623919 C364.839279,56.3207432 364.743784,56.2990135 364.626667,56.2990135 C364.457297,56.2990135 364.300541,56.3316081 364.156396,56.3949865 C364.014054,56.4565541 363.886126,56.5289865 363.770811,56.6068514 L363.578018,56.2700405 C363.70955,56.1831216 363.873514,56.0998243 364.066306,56.0183378 C364.259099,55.9368514 364.46991,55.8970135 364.702342,55.8970135 C365.051892,55.8970135 365.305946,56.0038514 365.462703,56.2193378 C365.619459,56.4348243 365.696937,56.7227432 365.696937,57.0812838 L365.696937,58.8468243 L365.298739,58.8468243 L365.255495,58.5027703 L365.244685,58.5027703 C365.105946,58.6168514 364.958198,58.7146351 364.79964,58.7961216 C364.641081,58.8776081 364.473514,58.9174459 364.295135,58.9174459 C364.051892,58.9174459 363.85009,58.8468243 363.691532,58.7037703 C363.531171,58.5607162 363.451892,58.361527 363.451892,58.1007703" id="Fill-57" fill="#1A3667" mask="url(#mask-2)"></path>
                <path d="M366.612793,54.6294459 L367.095676,54.6294459 L367.095676,58.3017703 C367.095676,58.3796351 367.108288,58.4357703 367.137117,58.4665541 C367.164144,58.4991486 367.194775,58.5154459 367.230811,58.5154459 L367.274054,58.5154459 C367.288468,58.5154459 367.31009,58.5118243 367.337117,58.5027703 L367.40018,58.8703649 C367.371351,58.8866622 367.331712,58.897527 367.29027,58.9047703 C367.247027,58.9138243 367.191171,58.9174459 367.124505,58.9174459 C366.940721,58.9174459 366.807387,58.8613108 366.72991,58.7508514 C366.650631,58.6403919 366.612793,58.4792297 366.612793,58.2655541 L366.612793,54.6294459 Z" id="Fill-58" fill="#1A3667" mask="url(#mask-2)"></path>
                <path d="M368.115495,54.6294459 L368.598378,54.6294459 L368.598378,58.3017703 C368.598378,58.3796351 368.610991,58.4357703 368.63982,58.4665541 C368.666847,58.4991486 368.697477,58.5154459 368.733514,58.5154459 L368.776757,58.5154459 C368.791171,58.5154459 368.812793,58.5118243 368.83982,58.5027703 L368.902883,58.8703649 C368.874054,58.8866622 368.834414,58.897527 368.792973,58.9047703 C368.74973,58.9138243 368.693874,58.9174459 368.627207,58.9174459 C368.443423,58.9174459 368.31009,58.8613108 368.232613,58.7508514 C368.153333,58.6403919 368.115495,58.4792297 368.115495,58.2655541 L368.115495,54.6294459 Z" id="Fill-59" fill="#1A3667" mask="url(#mask-2)"></path>
                <path d="M372.016396,58.455327 C372.351532,58.455327 372.609189,58.3937595 372.794775,58.2688135 C372.978559,58.1438676 373.072252,57.9501108 373.072252,57.6857324 C373.072252,57.4448946 372.98036,57.2674351 372.801982,57.1551649 C372.62,57.0428946 372.356937,56.9867595 372.016396,56.9867595 L371.344324,56.9867595 L371.344324,58.455327 L372.016396,58.455327 Z M371.915495,56.6191649 C372.250631,56.6191649 372.49027,56.5630297 372.632613,56.4471378 C372.776757,56.3330568 372.847027,56.1664622 372.847027,55.9509757 C372.847027,55.7373 372.771351,55.5833811 372.62,55.4910297 C372.468649,55.3986784 372.243423,55.3515973 371.940721,55.3515973 L371.344324,55.3515973 L371.344324,56.6191649 L371.915495,56.6191649 Z M370.854234,54.9604622 L372.003784,54.9604622 C372.201982,54.9604622 372.38036,54.9785703 372.544324,55.0147865 C372.708288,55.0491919 372.847027,55.105327 372.962342,55.1795703 C373.079459,55.2556243 373.16955,55.3534081 373.234414,55.4729216 C373.299279,55.5942459 373.32991,55.7391108 373.32991,55.909327 C373.32991,56.1030838 373.275856,56.2769216 373.165946,56.4326514 C373.056036,56.5883811 372.886667,56.6970297 372.657838,56.7567865 L372.657838,56.7785162 C372.942523,56.8237865 373.162342,56.9215703 373.319099,57.0754892 C373.477658,57.2294081 373.555135,57.4394622 373.555135,57.709273 C373.555135,57.8975973 373.519099,58.0641919 373.448829,58.2072459 C373.378559,58.3484892 373.277658,58.4661919 373.147928,58.5621649 C373.02,58.656327 372.863243,58.7269486 372.683063,58.7758405 C372.502883,58.8229216 372.302883,58.8464622 372.086667,58.8464622 L370.854234,58.8464622 L370.854234,54.9604622 Z" id="Fill-60" fill="#1A3667" mask="url(#mask-2)"></path>
                <path d="M374.231712,55.9681784 L374.72,55.9681784 L374.72,57.7264757 C374.72,57.9999081 374.763243,58.1954757 374.847928,58.3168 C374.932613,58.4363135 375.06955,58.4960703 375.256937,58.4960703 C375.406486,58.4960703 375.53982,58.4580432 375.651532,58.3819892 C375.766847,58.3041243 375.891171,58.1809892 376.02991,58.010773 L376.02991,55.9681784 L376.512793,55.9681784 L376.512793,58.8455568 L376.112793,58.8455568 L376.071351,58.3964757 L376.053333,58.3964757 C375.92,58.5540162 375.777658,58.680773 375.631712,58.7749351 C375.483964,58.8709081 375.310991,58.9161784 375.109189,58.9161784 C374.802883,58.9161784 374.579459,58.8220162 374.440721,58.6336919 C374.301982,58.4435568 374.231712,58.1628811 374.231712,57.7916649 L374.231712,55.9681784 Z" id="Fill-61" fill="#1A3667" mask="url(#mask-2)"></path>
                <path d="M377.402523,58.1943892 C377.528649,58.2976054 377.658378,58.3809027 377.788108,58.4442811 C377.91964,58.5058486 378.072793,58.5384432 378.245766,58.5384432 C378.433153,58.5384432 378.575495,58.4949838 378.669189,58.4080649 C378.764685,58.3211459 378.811532,58.2143081 378.811532,58.0875514 C378.811532,58.0133081 378.791712,57.9481189 378.752072,57.8919838 C378.714234,57.8376595 378.661982,57.7887676 378.602523,57.7471189 C378.541261,57.7054703 378.470991,57.6692541 378.393514,57.6384703 C378.314234,57.6058757 378.234955,57.5750919 378.157477,57.5424973 C378.054775,57.5080919 377.953874,57.4664432 377.851171,57.421173 C377.748468,57.3759027 377.658378,57.3215784 377.577297,57.2563892 C377.496216,57.1912 377.431351,57.1151459 377.379099,57.028227 C377.328649,56.9413081 377.301622,56.8362811 377.301622,56.7149568 C377.301622,56.5990649 377.325045,56.492227 377.37009,56.3908216 C377.415135,56.291227 377.48,56.2043081 377.564685,56.1300649 C377.649369,56.0576324 377.752072,56.0014973 377.874595,55.9598486 C377.995315,55.9182 378.132252,55.8964703 378.285405,55.8964703 C378.467387,55.8964703 378.633153,55.9290649 378.784505,55.9906324 C378.935856,56.0540108 379.067387,56.1318757 379.175495,56.2224162 L378.946667,56.5302541 C378.849369,56.4560108 378.746667,56.3944432 378.64036,56.3455514 C378.534054,56.3002811 378.416937,56.2749297 378.292613,56.2749297 C378.112432,56.2749297 377.979099,56.3165784 377.894414,56.3998757 C377.811532,56.483173 377.768288,56.5791459 377.768288,56.6896054 C377.768288,56.7584162 377.786306,56.8163622 377.820541,56.8652541 C377.856577,56.9141459 377.903423,56.9576054 377.962883,56.9956324 C378.022342,57.0318486 378.089009,57.0662541 378.166486,57.0970378 C378.242162,57.1260108 378.323243,57.1567946 378.404324,57.1875784 C378.505225,57.2274162 378.60973,57.2690649 378.714234,57.3125243 C378.816937,57.3559838 378.910631,57.4103081 378.993514,57.4754973 C379.076396,57.5406865 379.144865,57.6203622 379.197117,57.7145243 C379.249369,57.8104973 379.276396,57.9245784 379.276396,58.0585784 C379.276396,58.1762811 379.252973,58.2867405 379.20973,58.3899568 C379.164685,58.493173 379.096216,58.5837135 379.00973,58.6615784 C378.91964,58.7412541 378.80973,58.8028216 378.678198,58.8480919 C378.546667,58.895173 378.397117,58.9169027 378.227748,58.9169027 C378.024144,58.9169027 377.827748,58.8788757 377.643964,58.8046324 C377.458378,58.7285784 377.298018,58.6344162 377.161081,58.5203351 L377.402523,58.1943892 Z" id="Fill-62" fill="#1A3667" mask="url(#mask-2)"></path>
                <path d="M379.947748,58.8451946 L380.430631,58.8451946 L380.430631,55.9678162 L379.947748,55.9678162 L379.947748,58.8451946 Z M380.194595,55.3756811 C380.100901,55.3756811 380.01982,55.3448973 379.956757,55.2869514 C379.891892,55.2271946 379.859459,55.1529514 379.859459,55.0624108 C379.859459,54.9664378 379.891892,54.8903838 379.956757,54.8342486 C380.01982,54.7763027 380.100901,54.7473297 380.194595,54.7473297 C380.29009,54.7473297 380.369369,54.7763027 380.434234,54.8342486 C380.499099,54.8903838 380.531532,54.9664378 380.531532,55.0624108 C380.531532,55.1529514 380.499099,55.2271946 380.434234,55.2869514 C380.369369,55.3448973 380.29009,55.3756811 380.194595,55.3756811 Z" id="Fill-63" fill="#1A3667" mask="url(#mask-2)"></path>
                <path d="M381.398378,55.9681784 L381.798378,55.9681784 L381.83982,56.3828541 L381.857838,56.3828541 C381.994775,56.2434216 382.138919,56.1293405 382.29027,56.0369892 C382.441622,55.942827 382.618198,55.8957459 382.818198,55.8957459 C383.120901,55.8957459 383.340721,55.9917189 383.481261,56.1818541 C383.62,56.3701784 383.688468,56.6508541 383.688468,57.0220703 L383.688468,58.8455568 L383.207387,58.8455568 L383.207387,57.0872595 C383.207387,56.8156378 383.162342,56.6182595 383.077658,56.4969351 C382.991171,56.3774216 382.854234,56.3176649 382.665045,56.3176649 C382.515495,56.3176649 382.383964,56.3538811 382.268649,56.4299351 C382.156937,56.5041784 382.027207,56.6146378 381.881261,56.7613135 L381.881261,58.8455568 L381.398378,58.8455568 L381.398378,55.9681784 Z" id="Fill-64" fill="#1A3667" mask="url(#mask-2)"></path>
                <path d="M386.413333,57.1935541 C386.413333,56.8965811 386.352072,56.6720405 386.225946,56.5145 C386.103423,56.3605811 385.928649,56.2827162 385.705225,56.2827162 C385.604324,56.2827162 385.507027,56.3026351 385.413333,56.3442838 C385.323243,56.3859324 385.238559,56.4438784 385.164685,56.5217432 C385.089009,56.5977973 385.025946,56.6937703 384.977297,56.8060405 C384.928649,56.9183108 384.896216,57.0468784 384.88,57.1935541 L386.413333,57.1935541 Z M384.40973,57.4126622 C384.40973,57.1754459 384.445766,56.9635811 384.517838,56.7770676 C384.58991,56.5887432 384.687207,56.4293919 384.806126,56.2990135 C384.926847,56.1686351 385.063784,56.0690405 385.216937,56.0002297 C385.37009,55.9314189 385.528649,55.8970135 385.694414,55.8970135 C385.874595,55.8970135 386.036757,55.9277973 386.179099,55.9911757 C386.323243,56.0545541 386.443964,56.1450946 386.539459,56.2646081 C386.634955,56.3823108 386.708829,56.5235541 386.759279,56.6901486 C386.811532,56.8549324 386.836757,57.0414459 386.836757,57.2460676 C386.836757,57.3529054 386.831351,57.4434459 386.820541,57.5140676 L384.885405,57.5140676 C384.905225,57.825527 385.002523,58.0717973 385.173694,58.2528784 C385.343063,58.4357703 385.566486,58.5263108 385.842162,58.5263108 C385.979099,58.5263108 386.105225,58.5063919 386.222342,58.4647432 C386.337658,58.4230946 386.449369,58.3687703 386.553874,58.3017703 L386.725045,58.620473 C386.600721,58.7001486 386.46018,58.7689595 386.305225,58.8287162 C386.152072,58.888473 385.979099,58.9174459 385.780901,58.9174459 C385.58991,58.9174459 385.40973,58.8830405 385.243964,58.8142297 C385.076396,58.7436081 384.93045,58.6458243 384.806126,58.5172568 C384.683604,58.3886892 384.586306,58.2329595 384.514234,58.0464459 C384.443964,57.8617432 384.40973,57.6498784 384.40973,57.4126622 Z" id="Fill-65" fill="#1A3667" mask="url(#mask-2)"></path>
                <path d="M387.467207,58.1943892 C387.593333,58.2976054 387.723063,58.3809027 387.852793,58.4442811 C387.984324,58.5058486 388.137477,58.5384432 388.31045,58.5384432 C388.497838,58.5384432 388.64018,58.4949838 388.733874,58.4080649 C388.829369,58.3211459 388.876216,58.2143081 388.876216,58.0875514 C388.876216,58.0133081 388.856396,57.9481189 388.816757,57.8919838 C388.778919,57.8376595 388.726667,57.7887676 388.667207,57.7471189 C388.605946,57.7054703 388.535676,57.6692541 388.458198,57.6384703 C388.378919,57.6058757 388.29964,57.5750919 388.222162,57.5424973 C388.119459,57.5080919 388.018559,57.4664432 387.915856,57.421173 C387.813153,57.3759027 387.723063,57.3215784 387.641982,57.2563892 C387.560901,57.1912 387.496036,57.1151459 387.443784,57.028227 C387.393333,56.9413081 387.366306,56.8362811 387.366306,56.7149568 C387.366306,56.5990649 387.38973,56.492227 387.434775,56.3908216 C387.47982,56.291227 387.544685,56.2043081 387.629369,56.1300649 C387.714054,56.0576324 387.816757,56.0014973 387.939279,55.9598486 C388.06,55.9182 388.196937,55.8964703 388.35009,55.8964703 C388.532072,55.8964703 388.697838,55.9290649 388.849189,55.9906324 C389.000541,56.0540108 389.132072,56.1318757 389.24018,56.2224162 L389.011351,56.5302541 C388.914054,56.4560108 388.811351,56.3944432 388.705045,56.3455514 C388.598739,56.3002811 388.481622,56.2749297 388.357297,56.2749297 C388.177117,56.2749297 388.043784,56.3165784 387.959099,56.3998757 C387.876216,56.483173 387.832973,56.5791459 387.832973,56.6896054 C387.832973,56.7584162 387.850991,56.8163622 387.885225,56.8652541 C387.921261,56.9141459 387.968108,56.9576054 388.027568,56.9956324 C388.087027,57.0318486 388.153694,57.0662541 388.231171,57.0970378 C388.306847,57.1260108 388.387928,57.1567946 388.469009,57.1875784 C388.56991,57.2274162 388.674414,57.2690649 388.778919,57.3125243 C388.881622,57.3559838 388.975315,57.4103081 389.058198,57.4754973 C389.141081,57.5406865 389.20955,57.6203622 389.261802,57.7145243 C389.314054,57.8104973 389.341081,57.9245784 389.341081,58.0585784 C389.341081,58.1762811 389.317658,58.2867405 389.274414,58.3899568 C389.229369,58.493173 389.160901,58.5837135 389.074414,58.6615784 C388.984324,58.7412541 388.874414,58.8028216 388.742883,58.8480919 C388.611351,58.895173 388.461802,58.9169027 388.292432,58.9169027 C388.088829,58.9169027 387.892432,58.8788757 387.708649,58.8046324 C387.523063,58.7285784 387.362703,58.6344162 387.225766,58.5203351 L387.467207,58.1943892 Z" id="Fill-66" fill="#1A3667" mask="url(#mask-2)"></path>
                <path d="M389.935856,58.1943892 C390.061982,58.2976054 390.191712,58.3809027 390.321441,58.4442811 C390.452973,58.5058486 390.606126,58.5384432 390.779099,58.5384432 C390.966486,58.5384432 391.108829,58.4949838 391.202523,58.4080649 C391.298018,58.3211459 391.344865,58.2143081 391.344865,58.0875514 C391.344865,58.0133081 391.325045,57.9481189 391.285405,57.8919838 C391.247568,57.8376595 391.195315,57.7887676 391.135856,57.7471189 C391.074595,57.7054703 391.004324,57.6692541 390.926847,57.6384703 C390.847568,57.6058757 390.768288,57.5750919 390.690811,57.5424973 C390.588108,57.5080919 390.487207,57.4664432 390.384505,57.421173 C390.281802,57.3759027 390.191712,57.3215784 390.110631,57.2563892 C390.02955,57.1912 389.964685,57.1151459 389.912432,57.028227 C389.861982,56.9413081 389.834955,56.8362811 389.834955,56.7149568 C389.834955,56.5990649 389.858378,56.492227 389.903423,56.3908216 C389.948468,56.291227 390.013333,56.2043081 390.098018,56.1300649 C390.182703,56.0576324 390.285405,56.0014973 390.407928,55.9598486 C390.528649,55.9182 390.665586,55.8964703 390.818739,55.8964703 C391.000721,55.8964703 391.166486,55.9290649 391.317838,55.9906324 C391.469189,56.0540108 391.600721,56.1318757 391.708829,56.2224162 L391.48,56.5302541 C391.382703,56.4560108 391.28,56.3944432 391.173694,56.3455514 C391.067387,56.3002811 390.95027,56.2749297 390.825946,56.2749297 C390.645766,56.2749297 390.512432,56.3165784 390.427748,56.3998757 C390.344865,56.483173 390.301622,56.5791459 390.301622,56.6896054 C390.301622,56.7584162 390.31964,56.8163622 390.353874,56.8652541 C390.38991,56.9141459 390.436757,56.9576054 390.496216,56.9956324 C390.555676,57.0318486 390.622342,57.0662541 390.69982,57.0970378 C390.775495,57.1260108 390.856577,57.1567946 390.937658,57.1875784 C391.038559,57.2274162 391.143063,57.2690649 391.247568,57.3125243 C391.35027,57.3559838 391.443964,57.4103081 391.526847,57.4754973 C391.60973,57.5406865 391.678198,57.6203622 391.73045,57.7145243 C391.782703,57.8104973 391.80973,57.9245784 391.80973,58.0585784 C391.80973,58.1762811 391.786306,58.2867405 391.743063,58.3899568 C391.698018,58.493173 391.62955,58.5837135 391.543063,58.6615784 C391.452973,58.7412541 391.343063,58.8028216 391.211532,58.8480919 C391.08,58.895173 390.93045,58.9169027 390.761081,58.9169027 C390.557477,58.9169027 390.361081,58.8788757 390.177297,58.8046324 C389.991712,58.7285784 389.831351,58.6344162 389.694414,58.5203351 L389.935856,58.1943892 Z" id="Fill-67" fill="#1A3667" mask="url(#mask-2)"></path>
                <path d="M351.945045,64.371427 L351.761261,63.7792919 C351.690991,63.5619946 351.624324,63.3465081 351.561261,63.1292108 C351.498198,62.9155351 351.436937,62.6946162 351.373874,62.4700757 L351.35045,62.4700757 C351.290991,62.6946162 351.22973,62.9155351 351.166667,63.1292108 C351.103604,63.3465081 351.036937,63.5619946 350.966667,63.7792919 L350.782883,64.371427 L351.945045,64.371427 Z M352.067568,64.7679946 L350.66036,64.7679946 L350.289189,65.9522649 L349.788288,65.9522649 L351.096396,62.0680757 L351.64955,62.0680757 L352.957658,65.9522649 L352.433333,65.9522649 L352.067568,64.7679946 Z" id="Fill-68" fill="#1A3667" mask="url(#mask-2)"></path>
                <path d="M353.753874,64.5128514 C353.753874,64.860527 353.822342,65.1303378 353.959279,65.3240946 C354.096216,65.5178514 354.292613,65.6138243 354.543063,65.6138243 C354.678198,65.6138243 354.802523,65.5812297 354.91964,65.5178514 C355.038559,65.4526622 355.155676,65.3512568 355.274595,65.2172568 L355.274595,63.7142838 C355.152072,63.6038243 355.036757,63.5259595 354.923243,63.4806892 C354.811532,63.4336081 354.696216,63.4118784 354.579099,63.4118784 C354.465586,63.4118784 354.357477,63.4390405 354.256577,63.4915541 C354.157477,63.5440676 354.070991,63.6201216 353.995315,63.7160946 C353.921441,63.8138784 353.861982,63.9297703 353.818739,64.0619595 C353.775495,64.1977703 353.753874,64.3480676 353.753874,64.5128514 M353.252973,64.5182838 C353.252973,64.2865 353.287207,64.0764459 353.355676,63.8881216 C353.424144,63.7016081 353.516036,63.5422568 353.631351,63.4118784 C353.743063,63.2815 353.874595,63.1800946 354.024144,63.109473 C354.173694,63.0388514 354.33045,63.0026351 354.496216,63.0026351 C354.661982,63.0026351 354.804324,63.0334189 354.926847,63.0913649 C355.049369,63.1511216 355.171892,63.2307973 355.298018,63.3340135 L355.274595,62.8432838 L355.274595,61.7350676 L355.762883,61.7350676 L355.762883,65.9524459 L355.362883,65.9524459 L355.321441,65.6138243 L355.303423,65.6138243 C355.18991,65.7242838 355.06018,65.8220676 354.912432,65.9017432 C354.764685,65.9832297 354.607928,66.0230676 354.438559,66.0230676 C354.076396,66.0230676 353.78991,65.8926892 353.573694,65.6319324 C353.359279,65.3729865 353.252973,65.0017703 353.252973,64.5182838" id="Fill-69" fill="#1A3667" mask="url(#mask-2)"></path>
                <path d="M356.730991,63.0743432 L357.130991,63.0743432 L357.172432,63.4890189 L357.19045,63.4890189 C357.314775,63.3495865 357.451712,63.2355054 357.599459,63.1431541 C357.745405,63.0489919 357.905766,63.0019108 358.080541,63.0019108 C358.30036,63.0019108 358.471532,63.0508027 358.595856,63.1485865 C358.72018,63.2445595 358.81027,63.3803703 358.86973,63.5542081 C359.019279,63.3876135 359.170631,63.2554243 359.32018,63.1540189 C359.471532,63.0526135 359.635495,63.0019108 359.812072,63.0019108 C360.107568,63.0019108 360.325586,63.0978838 360.46973,63.2880189 C360.612072,63.4763432 360.684144,63.7570189 360.684144,64.1282351 L360.684144,65.9517216 L360.201261,65.9517216 L360.201261,64.1934243 C360.201261,63.9218027 360.158018,63.7244243 360.071532,63.6031 C359.985045,63.4835865 359.84991,63.4238297 359.671532,63.4238297 C359.455315,63.4238297 359.215676,63.5705054 358.950811,63.8674784 L358.950811,65.9517216 L358.46973,65.9517216 L358.46973,64.1934243 C358.46973,63.9218027 358.424685,63.7244243 358.34,63.6031 C358.253514,63.4835865 358.118378,63.4238297 357.932793,63.4238297 C357.716577,63.4238297 357.476937,63.5705054 357.213874,63.8674784 L357.213874,65.9517216 L356.730991,65.9517216 L356.730991,63.0743432 Z" id="Fill-70" fill="#1A3667" mask="url(#mask-2)"></path>
                <path d="M361.616216,65.9508162 L362.099099,65.9508162 L362.099099,63.0734378 L361.616216,63.0734378 L361.616216,65.9508162 Z M361.861261,62.4813027 C361.769369,62.4813027 361.688288,62.4523297 361.625225,62.392573 C361.558559,62.3328162 361.526126,62.258573 361.526126,62.1680324 C361.526126,62.0738703 361.558559,61.9978162 361.625225,61.9398703 C361.688288,61.8819243 361.769369,61.8547622 361.861261,61.8547622 C361.956757,61.8547622 362.036036,61.8819243 362.100901,61.9398703 C362.165766,61.9978162 362.198198,62.0738703 362.198198,62.1680324 C362.198198,62.258573 362.165766,62.3328162 362.100901,62.392573 C362.036036,62.4523297 361.956757,62.4813027 361.861261,62.4813027 Z" id="Fill-71" fill="#1A3667" mask="url(#mask-2)"></path>
                <path d="M363.065405,63.0743432 L363.465405,63.0743432 L363.506847,63.4890189 L363.524865,63.4890189 C363.661802,63.3495865 363.805946,63.2355054 363.957297,63.1431541 C364.108649,63.0489919 364.285225,63.0019108 364.485225,63.0019108 C364.787928,63.0019108 365.007748,63.0978838 365.148288,63.2880189 C365.287027,63.4763432 365.355495,63.7570189 365.355495,64.1282351 L365.355495,65.9517216 L364.874414,65.9517216 L364.874414,64.1934243 C364.874414,63.9218027 364.829369,63.7244243 364.744685,63.6031 C364.658198,63.4835865 364.521261,63.4238297 364.332072,63.4238297 C364.182523,63.4238297 364.050991,63.4600459 363.935676,63.5361 C363.823964,63.6103432 363.694234,63.7208027 363.548288,63.8674784 L363.548288,65.9517216 L363.065405,65.9517216 L363.065405,63.0743432 Z" id="Fill-72" fill="#1A3667" mask="url(#mask-2)"></path>
                <path d="M366.288288,65.9508162 L366.771171,65.9508162 L366.771171,63.0734378 L366.288288,63.0734378 L366.288288,65.9508162 Z M366.535135,62.4813027 C366.441441,62.4813027 366.36036,62.4523297 366.297297,62.392573 C366.232432,62.3328162 366.2,62.258573 366.2,62.1680324 C366.2,62.0738703 366.232432,61.9978162 366.297297,61.9398703 C366.36036,61.8819243 366.441441,61.8547622 366.535135,61.8547622 C366.630631,61.8547622 366.70991,61.8819243 366.774775,61.9398703 C366.83964,61.9978162 366.872072,62.0738703 366.872072,62.1680324 C366.872072,62.258573 366.83964,62.3328162 366.774775,62.392573 C366.70991,62.4523297 366.630631,62.4813027 366.535135,62.4813027 Z" id="Fill-73" fill="#1A3667" mask="url(#mask-2)"></path>
                <path d="M367.661441,65.3007351 C367.787568,65.4039514 367.917297,65.4872486 368.047027,65.550627 C368.178559,65.6121946 368.331712,65.6447892 368.504685,65.6447892 C368.692072,65.6447892 368.834414,65.6013297 368.928108,65.5144108 C369.023604,65.4274919 369.07045,65.3206541 369.07045,65.1938973 C369.07045,65.1196541 369.050631,65.0544649 369.010991,64.9983297 C368.973153,64.9440054 368.920901,64.8951135 368.861441,64.8534649 C368.80018,64.8118162 368.72991,64.7756 368.652432,64.7448162 C368.573153,64.7122216 368.493874,64.6814378 368.416396,64.6488432 C368.313694,64.6144378 368.212793,64.5727892 368.11009,64.5275189 C368.007387,64.4822486 367.917297,64.4279243 367.836216,64.3627351 C367.755135,64.2975459 367.69027,64.2214919 367.638018,64.134573 C367.587568,64.0476541 367.560541,63.942627 367.560541,63.8213027 C367.560541,63.7054108 367.583964,63.598573 367.629009,63.4971676 C367.674054,63.397573 367.738919,63.3106541 367.823604,63.2364108 C367.908288,63.1639784 368.010991,63.1078432 368.133514,63.0661946 C368.254234,63.0245459 368.391171,63.0028162 368.544324,63.0028162 C368.726306,63.0028162 368.892072,63.0354108 369.043423,63.0969784 C369.194775,63.1603568 369.326306,63.2382216 369.434414,63.3287622 L369.205586,63.6366 C369.108288,63.5623568 369.005586,63.5007892 368.899279,63.4518973 C368.792973,63.406627 368.675856,63.3812757 368.551532,63.3812757 C368.371351,63.3812757 368.238018,63.4229243 368.153333,63.5062216 C368.07045,63.5895189 368.027207,63.6854919 368.027207,63.7959514 C368.027207,63.8647622 368.045225,63.9227081 368.079459,63.9716 C368.115495,64.0204919 368.162342,64.0639514 368.221802,64.1019784 C368.281261,64.1381946 368.347928,64.1726 368.425405,64.2033838 C368.501081,64.2323568 368.582162,64.2631405 368.663243,64.2939243 C368.764144,64.3337622 368.868649,64.3754108 368.973153,64.4188703 C369.075856,64.4623297 369.16955,64.5166541 369.252432,64.5818432 C369.335315,64.6470324 369.403784,64.7267081 369.456036,64.8208703 C369.508288,64.9168432 369.535315,65.0309243 369.535315,65.1649243 C369.535315,65.282627 369.511892,65.3930865 369.468649,65.4963027 C369.423604,65.5995189 369.355135,65.6900595 369.268649,65.7679243 C369.178559,65.8476 369.068649,65.9091676 368.937117,65.9544378 C368.805586,66.0015189 368.656036,66.0232486 368.486667,66.0232486 C368.283063,66.0232486 368.086667,65.9852216 367.902883,65.9109784 C367.717297,65.8349243 367.556937,65.7407622 367.42,65.6266811 L367.661441,65.3007351 Z" id="Fill-74" fill="#1A3667" mask="url(#mask-2)"></path>
                <path d="M370.177658,63.4703676 L369.752432,63.4703676 L369.752432,63.102773 L370.201081,63.0738 L370.258739,62.2679892 L370.665946,62.2679892 L370.665946,63.0738 L371.437117,63.0738 L371.437117,63.4703676 L370.665946,63.4703676 L370.665946,65.0693135 C370.665946,65.246773 370.698378,65.3843946 370.763243,65.4803676 C370.828108,65.5781514 370.943423,65.6270432 371.109189,65.6270432 C371.15964,65.6270432 371.213694,65.6198 371.271351,65.6035027 C371.332613,65.5872054 371.384865,65.5690973 371.431712,65.5491784 L371.525405,65.916773 C371.447928,65.9439351 371.361441,65.9692865 371.26955,65.9910162 C371.177658,66.0127459 371.085766,66.0236108 370.995676,66.0236108 C370.842523,66.0236108 370.714595,66.0000703 370.61009,65.9529892 C370.505586,65.9040973 370.422703,65.8407189 370.357838,65.7574216 C370.291171,65.6741243 370.246126,65.5727189 370.217297,65.4550162 C370.19027,65.3355027 370.177658,65.2051243 370.177658,65.0638811 L370.177658,63.4703676 Z" id="Fill-75" fill="#1A3667" mask="url(#mask-2)"></path>
                <path d="M372.086847,63.0743432 L372.486847,63.0743432 L372.528288,63.5958568 L372.546306,63.5958568 C372.645405,63.4129649 372.762523,63.2699108 372.901261,63.163073 C373.041802,63.0562351 373.193153,63.0019108 373.358919,63.0019108 C373.474234,63.0019108 373.575135,63.0236405 373.665225,63.0616676 L373.571532,63.4890189 C373.524685,63.4727216 373.47964,63.4600459 373.441802,63.4528027 C373.402162,63.4455595 373.353514,63.4419378 373.294054,63.4419378 C373.173333,63.4419378 373.045405,63.4908297 372.913874,63.5886135 C372.782342,63.6882081 372.667027,63.8602351 372.56973,64.1046946 L372.56973,65.9517216 L372.086847,65.9517216 L372.086847,63.0743432 Z" id="Fill-76" fill="#1A3667" mask="url(#mask-2)"></path>
                <path d="M374.326667,65.1707189 C374.326667,65.3355027 374.373514,65.4550162 374.470811,65.5256378 C374.566306,65.5962595 374.685225,65.6324757 374.825766,65.6324757 C374.964505,65.6324757 375.096036,65.5998811 375.218559,65.5346919 C375.341081,65.4695027 375.472613,65.3735297 375.611351,65.246773 L375.611351,64.4482054 C375.36991,64.4789892 375.168108,64.5170162 375.004144,64.5604757 C374.838378,64.6039351 374.706847,64.6546378 374.605946,64.7143946 C374.506847,64.7741514 374.434775,64.8411514 374.38973,64.9190162 C374.348288,64.9950703 374.326667,65.0801784 374.326667,65.1707189 M373.847387,65.2069351 C373.847387,64.8900432 373.98973,64.6473946 374.270811,64.4808 C374.55009,64.3123946 374.996937,64.1946919 375.611351,64.1276919 C375.611351,64.0371514 375.602342,63.9484216 375.584324,63.8615027 C375.566306,63.7745838 375.535676,63.6985297 375.490631,63.6297189 C375.443784,63.5627189 375.384324,63.5102054 375.31045,63.4685568 C375.234775,63.4269081 375.139279,63.4051784 375.022162,63.4051784 C374.852793,63.4051784 374.696036,63.437773 374.551892,63.5011514 C374.40955,63.5627189 374.281622,63.6351514 374.166306,63.7130162 L373.973514,63.3762054 C374.105045,63.2892865 374.269009,63.2059892 374.461802,63.1245027 C374.654595,63.0430162 374.865405,63.0031784 375.097838,63.0031784 C375.447387,63.0031784 375.701441,63.1100162 375.858198,63.3255027 C376.014955,63.5409892 376.092432,63.8289081 376.092432,64.1874486 L376.092432,65.9529892 L375.694234,65.9529892 L375.650991,65.6089351 L375.64018,65.6089351 C375.501441,65.7230162 375.353694,65.8208 375.195135,65.9022865 C375.036577,65.983773 374.869009,66.0236108 374.690631,66.0236108 C374.447387,66.0236108 374.245586,65.9529892 374.087027,65.8099351 C373.926667,65.6668811 373.847387,65.4676919 373.847387,65.2069351" id="Fill-77" fill="#1A3667" mask="url(#mask-2)"></path>
                <path d="M376.960901,63.4703676 L376.535676,63.4703676 L376.535676,63.102773 L376.984324,63.0738 L377.041982,62.2679892 L377.449189,62.2679892 L377.449189,63.0738 L378.22036,63.0738 L378.22036,63.4703676 L377.449189,63.4703676 L377.449189,65.0693135 C377.449189,65.246773 377.481622,65.3843946 377.546486,65.4803676 C377.611351,65.5781514 377.726667,65.6270432 377.892432,65.6270432 C377.942883,65.6270432 377.996937,65.6198 378.054595,65.6035027 C378.115856,65.5872054 378.168108,65.5690973 378.214955,65.5491784 L378.308649,65.916773 C378.231171,65.9439351 378.144685,65.9692865 378.052793,65.9910162 C377.960901,66.0127459 377.869009,66.0236108 377.778919,66.0236108 C377.625766,66.0236108 377.497838,66.0000703 377.393333,65.9529892 C377.288829,65.9040973 377.205946,65.8407189 377.141081,65.7574216 C377.074414,65.6741243 377.029369,65.5727189 377.000541,65.4550162 C376.973514,65.3355027 376.960901,65.2051243 376.960901,65.0638811 L376.960901,63.4703676 Z" id="Fill-78" fill="#1A3667" mask="url(#mask-2)"></path>
                <path d="M378.87027,65.9508162 L379.353153,65.9508162 L379.353153,63.0734378 L378.87027,63.0734378 L378.87027,65.9508162 Z M379.117117,62.4813027 C379.023423,62.4813027 378.942342,62.4523297 378.879279,62.392573 C378.814414,62.3328162 378.78018,62.258573 378.78018,62.1680324 C378.78018,62.0738703 378.814414,61.9978162 378.879279,61.9398703 C378.942342,61.8819243 379.023423,61.8547622 379.117117,61.8547622 C379.210811,61.8547622 379.29009,61.8819243 379.354955,61.9398703 C379.41982,61.9978162 379.452252,62.0738703 379.452252,62.1680324 C379.452252,62.258573 379.41982,62.3328162 379.354955,62.392573 C379.29009,62.4523297 379.210811,62.4813027 379.117117,62.4813027 Z" id="Fill-79" fill="#1A3667" mask="url(#mask-2)"></path>
                <path d="M380.608468,64.5190081 C380.608468,64.6856027 380.628288,64.8340892 380.666126,64.9699 C380.707568,65.1039 380.761622,65.2197919 380.835495,65.3157649 C380.907568,65.4117378 380.995856,65.4877919 381.096757,65.5403054 C381.199459,65.5946297 381.311171,65.6199811 381.433694,65.6199811 C381.554414,65.6199811 381.666126,65.5946297 381.770631,65.5403054 C381.871532,65.4877919 381.958018,65.4117378 382.031892,65.3157649 C382.103964,65.2197919 382.15982,65.1039 382.199459,64.9699 C382.237297,64.8340892 382.257117,64.6856027 382.257117,64.5190081 C382.257117,64.3524135 382.237297,64.2021162 382.199459,64.0663054 C382.15982,63.9304946 382.103964,63.8127919 382.031892,63.7131973 C381.958018,63.6154135 381.871532,63.5375486 381.770631,63.4850351 C381.666126,63.4325216 381.554414,63.4053595 381.433694,63.4053595 C381.311171,63.4053595 381.199459,63.4325216 381.096757,63.4850351 C380.995856,63.5375486 380.907568,63.6154135 380.835495,63.7131973 C380.761622,63.8127919 380.707568,63.9304946 380.666126,64.0663054 C380.628288,64.2021162 380.608468,64.3524135 380.608468,64.5190081 M380.107568,64.5190081 C380.107568,64.2781703 380.143604,64.0644946 380.215676,63.8761703 C380.287748,63.6896568 380.386847,63.5303054 380.507568,63.399927 C380.63009,63.2695486 380.770631,63.1699541 380.929189,63.1029541 C381.08955,63.0359541 381.255315,63.0033595 381.433694,63.0033595 C381.61027,63.0033595 381.777838,63.0359541 381.936396,63.1029541 C382.094955,63.1699541 382.235495,63.2695486 382.358018,63.399927 C382.480541,63.5303054 382.577838,63.6896568 382.64991,63.8761703 C382.721982,64.0644946 382.758018,64.2781703 382.758018,64.5190081 C382.758018,64.7562243 382.721982,64.9680892 382.64991,65.1564135 C382.577838,65.342927 382.480541,65.5004676 382.358018,65.6290351 C382.235495,65.7576027 382.094955,65.8553865 381.936396,65.9223865 C381.777838,65.9893865 381.61027,66.0237919 381.433694,66.0237919 C381.255315,66.0237919 381.08955,65.9893865 380.929189,65.9223865 C380.770631,65.8553865 380.63009,65.7576027 380.507568,65.6290351 C380.386847,65.5004676 380.287748,65.342927 380.215676,65.1564135 C380.143604,64.9680892 380.107568,64.7562243 380.107568,64.5190081" id="Fill-80" fill="#1A3667" mask="url(#mask-2)"></path>
                <path d="M383.513514,63.0743432 L383.913514,63.0743432 L383.954955,63.4890189 L383.972973,63.4890189 C384.10991,63.3495865 384.254054,63.2355054 384.405405,63.1431541 C384.556757,63.0489919 384.733333,63.0019108 384.933333,63.0019108 C385.236036,63.0019108 385.455856,63.0978838 385.596396,63.2880189 C385.735135,63.4763432 385.803604,63.7570189 385.803604,64.1282351 L385.803604,65.9517216 L385.322523,65.9517216 L385.322523,64.1934243 C385.322523,63.9218027 385.277477,63.7244243 385.192793,63.6031 C385.106306,63.4835865 384.969369,63.4238297 384.78018,63.4238297 C384.630631,63.4238297 384.499099,63.4600459 384.383784,63.5361 C384.272072,63.6103432 384.142342,63.7208027 383.996396,63.8674784 L383.996396,65.9517216 L383.513514,65.9517216 L383.513514,63.0743432 Z" id="Fill-81" fill="#1A3667" mask="url(#mask-2)"></path>
                <polygon id="Fill-82" fill="#CA2026" mask="url(#mask-2)" points="388.577477 49.1899514 347.732432 49.1899514 347.345045 49.1899514 347.345045 48.7680324 347.345045 42.7253568 343.844144 42.7253568 343.844144 53.0451676 388.599099 53.0451676"></polygon>
                <polygon id="Fill-83" fill="#1A3667" mask="url(#mask-2)" points="343.903784 10.3176378 347.408288 10.3176378 347.408288 4.27677297 347.408288 3.85304324 347.792072 3.85304324 388.255135 3.85304324 388.637117 3.85304324 388.637117 4.27677297 388.637117 10.3176378 392.141622 10.3176378 392.141622 -0.000362162162 343.903784 -0.000362162162"></polygon>
                <path d="M341.081441,31.2790405 C341.112072,32.6208514 341.697658,35.1740946 345.548108,35.1740946 C347.634595,35.1740946 349.953514,34.6036892 349.953514,32.0504459 C349.953514,30.1690135 348.367928,29.6674189 346.137297,29.0626081 L343.872432,28.4577973 C340.463423,27.5505811 337.173333,26.6795811 337.173333,21.3720946 C337.173333,18.6866622 338.436396,13.9532027 345.281441,13.9532027 C351.746306,13.9532027 353.47964,18.7862568 353.51027,21.7415 L349.277838,21.7415 C349.160721,20.6676892 348.807568,18.1162568 344.958919,18.1162568 C343.285045,18.1162568 341.286847,18.8206622 341.286847,21.0045 C341.286847,22.8823108 342.638198,23.2879324 343.521081,23.521527 L348.661622,24.9665541 C351.542703,25.7723649 354.184144,27.1141757 354.184144,31.4456351 C354.184144,38.6997432 347.722883,39.3371486 345.870631,39.3371486 C338.171532,39.3371486 336.849009,34.2668784 336.849009,31.2790405 L341.081441,31.2790405 Z" id="Fill-84" fill="#1A3667" mask="url(#mask-2)"></path>
                <path d="M359.761081,14.5900649 L370.40973,14.5900649 C375.782703,14.5900649 377.153874,18.2841189 377.153874,20.7685514 C377.153874,24.2272 375.382703,25.2014162 374.469189,25.7048216 C377.153874,26.8130378 377.856577,29.1616595 377.856577,31.5483081 C377.856577,33.4623351 377.125045,35.2749568 375.964685,36.517173 C374.714234,37.8607946 373.525045,38.7010108 369.036757,38.7010108 L359.761081,38.7010108 L359.761081,14.5900649 Z M364.153874,24.0243892 L369.526847,24.0243892 C371.325045,24.0243892 372.761081,23.2529838 372.761081,21.3389568 C372.761081,19.3579297 371.48,18.7531189 369.404324,18.7531189 L364.153874,18.7531189 L364.153874,24.0243892 Z M364.153874,34.5361459 L369.771892,34.5361459 C371.997117,34.5361459 373.281802,33.4623351 373.281802,31.0104973 C373.281802,28.8954703 371.631351,28.0878486 369.984505,28.0878486 L364.153874,28.0878486 L364.153874,34.5361459 Z" id="Fill-85" fill="#1A3667" mask="url(#mask-2)"></path>
                <polygon id="Fill-86" fill="#1A3667" mask="url(#mask-2)" points="392.107207 14.5820973 388.631532 14.5820973 381.671171 38.7075297 386.063964 38.7075297 390.330631 22.8683676 394.663964 38.7075297 399.056757 38.7075297"></polygon>
                <polygon id="Fill-87" fill="#1A3667" mask="url(#mask-2)" points="392.080901 49.1678595 388.596216 53.0448054 388.596216 38.7665622 392.080901 38.7665622"></polygon>
            </g>
        </g>
    </g>
</svg>