<?xml version="1.0" encoding="UTF-8"?>
<svg width="400px" height="64px" viewBox="0 0 400 64" version="1.1" xmlns="http://www.w3.org/2000/svg" xmlns:xlink="http://www.w3.org/1999/xlink">
    <!-- Generator: Sketch 49 (51002) - http://www.bohemiancoding.com/sketch -->
    <title>Page 1</title>
    <desc>Created with Sketch.</desc>
    <defs>
        <polygon id="path-1" points="0 63.8907159 399.36 63.8907159 399.36 0.000147727273 0 0.000147727273"></polygon>
    </defs>
    <g id="Page-1" stroke="none" stroke-width="1" fill="none" fill-rule="evenodd">
        <g id="Tablet" transform="translate(-256.000000, -2624.000000)">
            <g id="Page-1" transform="translate(256.000000, 2624.000000)">
                <path d="M75.8322963,27.3345682 L76.8411852,27.3345682 L76.8411852,32.0249091 C76.8411852,32.5020682 76.8885926,32.9024091 76.9863704,33.2244545 C77.0841481,33.5479773 77.216,33.8065 77.3819259,34.0000227 C77.5478519,34.1950227 77.7448889,34.3338864 77.9715556,34.4180909 C78.1982222,34.5037727 78.4411852,34.5451364 78.7004444,34.5451364 C78.9685926,34.5451364 79.2145185,34.5037727 79.4426667,34.4180909 C79.6678519,34.3338864 79.8678519,34.1950227 80.0367407,34.0000227 C80.2071111,33.8065 80.3404444,33.5479773 80.4382222,33.2244545 C80.536,32.9024091 80.5848889,32.5020682 80.5848889,32.0249091 L80.5848889,27.3345682 L81.5567407,27.3345682 L81.5567407,32.0012727 C81.5567407,32.6394545 81.4826667,33.1771818 81.3374815,33.6129773 C81.1922963,34.0487727 80.9908148,34.4018409 80.736,34.6736591 C80.4811852,34.944 80.178963,35.1375227 79.8308148,35.2542273 C79.4826667,35.3709318 79.1048889,35.4300227 78.7004444,35.4300227 C78.296,35.4300227 77.9167407,35.3709318 77.5641481,35.2542273 C77.2115556,35.1375227 76.9078519,34.944 76.653037,34.6736591 C76.3967407,34.4018409 76.1967407,34.0487727 76.0500741,33.6129773 C75.9048889,33.1771818 75.8322963,32.6394545 75.8322963,32.0012727 L75.8322963,27.3345682 Z" id="Fill-1" fill="#1A3667"></path>
                <path d="M83.2216296,34.679125 C83.2216296,34.4442386 83.2927407,34.256625 83.434963,34.1162841 C83.5757037,33.9744659 83.7475556,33.9035568 83.9505185,33.9035568 C84.1460741,33.9035568 84.3134815,33.9744659 84.4557037,34.1162841 C84.5964444,34.256625 84.6675556,34.4442386 84.6675556,34.679125 C84.6675556,34.8962841 84.5964444,35.0779886 84.4557037,35.2183295 C84.3134815,35.3586705 84.1460741,35.4310568 83.9505185,35.4310568 C83.7475556,35.4310568 83.5757037,35.3586705 83.434963,35.2183295 C83.2927407,35.0779886 83.2216296,34.8962841 83.2216296,34.679125" id="Fill-3" fill="#1A3667"></path>
                <path d="M86.5758519,33.5516705 C86.8588148,33.8515568 87.1936296,34.090875 87.5788148,34.2725795 C87.964,34.4542841 88.3625185,34.545875 88.7758519,34.545875 C89.3017778,34.545875 89.7121481,34.4262159 90.0025185,34.188375 C90.2943704,33.9505341 90.441037,33.6373523 90.441037,33.2488295 C90.441037,33.0464432 90.4054815,32.8750795 90.3373333,32.7332614 C90.2691852,32.5929205 90.1758519,32.4717841 90.0573333,32.3698523 C89.9402963,32.2693977 89.801037,32.1778068 89.6380741,32.0980341 C89.4765926,32.0167841 89.3017778,31.9325795 89.1151111,31.8424659 L87.9728889,31.3461023 C87.7862222,31.2663295 87.5965926,31.1688295 87.4025185,31.0550795 C87.206963,30.9428068 87.0336296,30.8054205 86.8795556,30.6429205 C86.7254815,30.4818977 86.5995556,30.2898523 86.5032593,30.0682614 C86.4054815,29.8451932 86.3565926,29.5881477 86.3565926,29.2986023 C86.3565926,28.9987159 86.4202963,28.7195114 86.5447407,28.4624659 C86.6706667,28.2024659 86.8454815,27.9793977 87.0677037,27.7888295 C87.2899259,27.5997386 87.5536296,27.4520114 87.8573333,27.347125 C88.161037,27.2422386 88.4958519,27.1890568 88.8602963,27.1890568 C89.3388148,27.1890568 89.7802963,27.2806477 90.1862222,27.4623523 C90.5906667,27.6440568 90.9343704,27.8804205 91.2188148,28.1699659 L90.6721481,28.825875 C90.4291852,28.5909886 90.1580741,28.4078068 89.8632593,28.273375 C89.5684444,28.1404205 89.2336296,28.0739432 88.8602963,28.0739432 C88.4143704,28.0739432 88.0573333,28.1773523 87.7847407,28.3826932 C87.5136296,28.5895114 87.3788148,28.8731477 87.3788148,29.2380341 C87.3788148,29.4315568 87.4158519,29.5955341 87.4928889,29.7284886 C87.5699259,29.8614432 87.6736296,29.979625 87.804,30.0800795 C87.9328889,30.1805341 88.0751111,30.2691705 88.2291852,30.3459886 C88.3817778,30.4228068 88.5402963,30.4937159 88.7032593,30.5587159 L89.8336296,31.0432614 C90.0602963,31.1407614 90.2751111,31.2515568 90.4765926,31.3756477 C90.6795556,31.5012159 90.8543704,31.6474659 90.9995556,31.8129205 C91.1447407,31.978375 91.2617778,32.1718977 91.3462222,32.3949659 C91.4306667,32.6165568 91.4736296,32.8736023 91.4736296,33.164625 C91.4736296,33.4792841 91.4114074,33.7747386 91.2854815,34.0480341 C91.1595556,34.3228068 90.9788148,34.5636023 90.7447407,34.7704205 C90.5091852,34.9757614 90.2262222,35.1382614 89.8943704,35.2549659 C89.561037,35.3716705 89.1847407,35.4307614 88.764,35.4307614 C88.204,35.4307614 87.6854815,35.325875 87.206963,35.1161023 C86.7299259,34.9063295 86.3165926,34.6182614 85.9684444,34.2548523 L86.5758519,33.5516705 Z" id="Fill-5" fill="#1A3667"></path>
                <path d="M92.7376296,34.679125 C92.7376296,34.4442386 92.8087407,34.256625 92.950963,34.1162841 C93.0917037,33.9744659 93.2635556,33.9035568 93.4665185,33.9035568 C93.6620741,33.9035568 93.8294815,33.9744659 93.9717037,34.1162841 C94.1124444,34.256625 94.1835556,34.4442386 94.1835556,34.679125 C94.1835556,34.8962841 94.1124444,35.0779886 93.9717037,35.2183295 C93.8294815,35.3586705 93.6620741,35.4310568 93.4665185,35.4310568 C93.2635556,35.4310568 93.0917037,35.3586705 92.950963,35.2183295 C92.8087407,35.0779886 92.7376296,34.8962841 92.7376296,34.679125" id="Fill-7" fill="#1A3667"></path>
                <path d="M98.5478519,33.5516705 C98.8308148,33.8515568 99.1656296,34.090875 99.5508148,34.2725795 C99.936,34.4542841 100.334519,34.545875 100.747852,34.545875 C101.273778,34.545875 101.684148,34.4262159 101.974519,34.188375 C102.26637,33.9505341 102.413037,33.6373523 102.413037,33.2488295 C102.413037,33.0464432 102.377481,32.8750795 102.309333,32.7332614 C102.241185,32.5929205 102.147852,32.4717841 102.029333,32.3698523 C101.912296,32.2693977 101.773037,32.1778068 101.610074,32.0980341 C101.448593,32.0167841 101.273778,31.9325795 101.087111,31.8424659 L99.9448889,31.3461023 C99.7582222,31.2663295 99.5685926,31.1688295 99.3745185,31.0550795 C99.178963,30.9428068 99.0056296,30.8054205 98.8515556,30.6429205 C98.6974815,30.4818977 98.5715556,30.2898523 98.4752593,30.0682614 C98.3774815,29.8451932 98.3285926,29.5881477 98.3285926,29.2986023 C98.3285926,28.9987159 98.3922963,28.7195114 98.5167407,28.4624659 C98.6426667,28.2024659 98.8174815,27.9793977 99.0397037,27.7888295 C99.2619259,27.5997386 99.5256296,27.4520114 99.8293333,27.347125 C100.133037,27.2422386 100.467852,27.1890568 100.832296,27.1890568 C101.310815,27.1890568 101.752296,27.2806477 102.158222,27.4623523 C102.562667,27.6440568 102.90637,27.8804205 103.190815,28.1699659 L102.644148,28.825875 C102.401185,28.5909886 102.130074,28.4078068 101.835259,28.273375 C101.540444,28.1404205 101.20563,28.0739432 100.832296,28.0739432 C100.38637,28.0739432 100.029333,28.1773523 99.7567407,28.3826932 C99.4856296,28.5895114 99.3508148,28.8731477 99.3508148,29.2380341 C99.3508148,29.4315568 99.3878519,29.5955341 99.4648889,29.7284886 C99.5419259,29.8614432 99.6456296,29.979625 99.776,30.0800795 C99.9048889,30.1805341 100.047111,30.2691705 100.201185,30.3459886 C100.353778,30.4228068 100.512296,30.4937159 100.675259,30.5587159 L101.80563,31.0432614 C102.032296,31.1407614 102.247111,31.2515568 102.448593,31.3756477 C102.651556,31.5012159 102.82637,31.6474659 102.971556,31.8129205 C103.116741,31.978375 103.233778,32.1718977 103.318222,32.3949659 C103.402667,32.6165568 103.44563,32.8736023 103.44563,33.164625 C103.44563,33.4792841 103.383407,33.7747386 103.257481,34.0480341 C103.131556,34.3228068 102.950815,34.5636023 102.716741,34.7704205 C102.481185,34.9757614 102.198222,35.1382614 101.86637,35.2549659 C101.533037,35.3716705 101.156741,35.4307614 100.736,35.4307614 C100.176,35.4307614 99.6574815,35.325875 99.178963,35.1161023 C98.7019259,34.9063295 98.2885926,34.6182614 97.9404444,34.2548523 L98.5478519,33.5516705 Z" id="Fill-9" fill="#1A3667"></path>
                <path d="M104.916444,29.3947727 L105.743111,29.3947727 L105.827556,30.2442045 L105.864593,30.2442045 C106.123852,29.9605682 106.405333,29.7242045 106.709037,29.5351136 C107.012741,29.3445455 107.343111,29.25 107.698667,29.25 C108.153481,29.25 108.507556,29.3489773 108.76237,29.5469318 C109.018667,29.7448864 109.206815,30.0211364 109.328296,30.3771591 C109.636444,30.0373864 109.946074,29.7640909 110.258667,29.55875 C110.571259,29.3534091 110.906074,29.25 111.272,29.25 C111.88237,29.25 112.332741,29.4435227 112.629037,29.8305682 C112.923852,30.2190909 113.070519,30.7922727 113.070519,31.5515909 L113.070519,35.2846591 L112.076444,35.2846591 L112.076444,31.6860227 C112.076444,31.1276136 111.986074,30.7257955 111.806815,30.4790909 C111.630519,30.2338636 111.352,30.1097727 110.98163,30.1097727 C110.535704,30.1097727 110.040889,30.4126136 109.497185,31.0197727 L109.497185,35.2846591 L108.50163,35.2846591 L108.50163,31.6860227 C108.50163,31.1276136 108.412741,30.7257955 108.234963,30.4790909 C108.055704,30.2338636 107.777185,30.1097727 107.394963,30.1097727 C106.950519,30.1097727 106.455704,30.4126136 105.912,31.0197727 L105.912,35.2846591 L104.916444,35.2846591 L104.916444,29.3947727 Z" id="Fill-11" fill="#1A3667"></path>
                <path d="M115.685333,33.6852159 C115.685333,34.0249886 115.783111,34.2672614 115.983111,34.4120341 C116.18163,34.5582841 116.426074,34.6306705 116.717926,34.6306705 C117.00237,34.6306705 117.270519,34.5641932 117.525333,34.4297614 C117.78163,34.2982841 118.051259,34.1018068 118.334222,33.8432841 L118.334222,32.2064659 C117.839407,32.2714659 117.423111,32.3482841 117.08237,32.4369205 C116.743111,32.5255568 116.469037,32.6304432 116.263111,32.7515795 C116.055704,32.8727159 115.907556,33.0130568 115.818667,33.1696477 C115.728296,33.3277159 115.685333,33.5005568 115.685333,33.6852159 M114.700148,33.7576023 C114.700148,33.1120341 114.989037,32.6171477 115.569778,32.2729432 C116.147556,31.9302159 117.070519,31.6894205 118.334222,31.5520341 C118.334222,31.367375 118.314963,31.1856705 118.279407,31.0069205 C118.243852,30.8296477 118.178667,30.6715795 118.085333,30.5341932 C117.992,30.3968068 117.869037,30.2860114 117.714963,30.2018068 C117.560889,30.116125 117.36237,30.0732841 117.119407,30.0732841 C116.769778,30.0732841 116.449778,30.1382841 116.152,30.2682841 C115.857185,30.3968068 115.592,30.5430568 115.356444,30.7040795 L114.956444,30.0127159 C115.230519,29.8354432 115.566815,29.6640795 115.963852,29.498625 C116.360889,29.3331705 116.799407,29.2504432 117.276444,29.2504432 C117.999407,29.2504432 118.520889,29.4690795 118.845333,29.9093068 C119.169778,30.3510114 119.331259,30.9389659 119.331259,31.6731705 L119.331259,35.2851023 L118.504593,35.2851023 L118.420148,34.5819205 L118.394963,34.5819205 C118.112,34.8168068 117.806815,35.0162386 117.477926,35.1816932 C117.149037,35.3471477 116.803852,35.4313523 116.439407,35.4313523 C115.935704,35.4313523 115.520889,35.2851023 115.192,34.9940795 C114.864593,34.7030568 114.700148,34.2908977 114.700148,33.7576023" id="Fill-13" fill="#1A3667"></path>
                <path d="M121.214963,26.6559091 L122.212,26.6559091 L122.212,34.1693182 C122.212,34.3318182 122.238667,34.4440909 122.296444,34.5090909 C122.354222,34.5740909 122.417926,34.6065909 122.490519,34.6065909 L122.58237,34.6065909 C122.610519,34.6065909 122.653481,34.5977273 122.709778,34.5829545 L122.844593,35.3334091 C122.779407,35.3659091 122.70237,35.3895455 122.612,35.4057955 C122.523111,35.4220455 122.410519,35.4309091 122.272741,35.4309091 C121.890519,35.4309091 121.619407,35.3171591 121.457926,35.0911364 C121.296444,34.8651136 121.214963,34.5342045 121.214963,34.0969318 L121.214963,26.6559091 Z" id="Fill-15" fill="#1A3667"></path>
                <path d="M124.313926,26.6559091 L125.310963,26.6559091 L125.310963,34.1693182 C125.310963,34.3318182 125.33763,34.4440909 125.395407,34.5090909 C125.453185,34.5740909 125.516889,34.6065909 125.589481,34.6065909 L125.681333,34.6065909 C125.709481,34.6065909 125.752444,34.5977273 125.808741,34.5829545 L125.943556,35.3334091 C125.87837,35.3659091 125.801333,35.3895455 125.710963,35.4057955 C125.622074,35.4220455 125.509481,35.4309091 125.371704,35.4309091 C124.989481,35.4309091 124.71837,35.3171591 124.556889,35.0911364 C124.395407,34.8651136 124.313926,34.5342045 124.313926,34.0969318 L124.313926,26.6559091 Z" id="Fill-17" fill="#1A3667"></path>
                <path d="M132.359259,34.4851591 C133.048148,34.4851591 133.582963,34.3581136 133.963704,34.1040227 C134.344444,33.8484545 134.535556,33.4510682 134.535556,32.9103864 C134.535556,32.4169773 134.348889,32.0550455 133.975556,31.8245909 C133.603704,31.5941364 133.064444,31.4789091 132.359259,31.4789091 L130.972593,31.4789091 L130.972593,34.4851591 L132.359259,34.4851591 Z M132.151852,30.7284545 C132.840741,30.7284545 133.332593,30.6102727 133.628889,30.3768636 C133.925185,30.1434545 134.073333,29.8036818 134.073333,29.3590227 C134.073333,28.92175 133.917778,28.6085682 133.605185,28.4194773 C133.292593,28.2303864 132.824444,28.1343636 132.202222,28.1343636 L130.972593,28.1343636 L130.972593,30.7284545 L132.151852,30.7284545 Z M129.965185,27.3351591 L132.334074,27.3351591 C132.74,27.3351591 133.11037,27.3720909 133.446667,27.443 C133.782963,27.5168636 134.07037,27.6291364 134.308889,27.7827727 C134.548889,27.9364091 134.735556,28.1373182 134.868889,28.3825455 C135.002222,28.62925 135.068889,28.9261818 135.068889,29.2733409 C135.068889,29.66925 134.956296,30.02675 134.72963,30.3458409 C134.501481,30.6664091 134.153333,30.8850455 133.685185,31.0076591 L133.685185,31.0549318 C134.267407,31.1450455 134.722222,31.3459545 135.045185,31.6606136 C135.36963,31.97675 135.532593,32.4095909 135.532593,32.9576591 C135.532593,33.3461818 135.458519,33.6844773 135.311852,33.9755 C135.168148,34.268 134.960741,34.5102727 134.692593,34.7037955 C134.425926,34.8973182 134.105926,35.0420909 133.732593,35.1395909 C133.360741,35.2370909 132.95037,35.2858409 132.505926,35.2858409 L129.965185,35.2858409 L129.965185,27.3351591 Z" id="Fill-19" fill="#1A3667"></path>
                <path d="M136.928148,29.3947727 L137.937037,29.3947727 L137.937037,32.9948864 C137.937037,33.5518182 138.022963,33.9536364 138.197778,34.2003409 C138.372593,34.4470455 138.654074,34.5696591 139.043704,34.5696591 C139.351852,34.5696591 139.621481,34.4913636 139.858519,34.3332955 C140.092593,34.1767045 140.351852,33.9240909 140.634815,33.5769318 L140.634815,29.3947727 L141.631852,29.3947727 L141.631852,35.2846591 L140.805185,35.2846591 L140.720741,34.3643182 L140.683704,34.3643182 C140.408148,34.6878409 140.117778,34.9463636 139.814074,35.1398864 C139.51037,35.3334091 139.151852,35.4309091 138.74,35.4309091 C138.107407,35.4309091 137.646667,35.2373864 137.359259,34.8488636 C137.071852,34.4603409 136.928148,33.8871591 136.928148,33.1278409 L136.928148,29.3947727 Z" id="Fill-21" fill="#1A3667"></path>
                <path d="M143.467556,33.9520114 C143.726815,34.1617841 143.992,34.3316705 144.263111,34.4601932 C144.534222,34.5901932 144.848296,34.6551932 145.205333,34.6551932 C145.594963,34.6551932 145.885333,34.5665568 146.080889,34.3878068 C146.274963,34.2105341 146.371259,33.9918977 146.371259,33.733375 C146.371259,33.5812159 146.331259,33.4467841 146.249778,33.3345114 C146.168296,33.2207614 146.066074,33.1217841 145.940148,33.0361023 C145.814222,32.9518977 145.670519,32.8765568 145.509037,32.8130341 C145.347556,32.7480341 145.184593,32.6830341 145.023111,32.6195114 C144.811259,32.5456477 144.60237,32.4629205 144.390519,32.3698523 C144.178667,32.2782614 143.992,32.1645114 143.824593,32.0315568 C143.660148,31.897125 143.523852,31.7420114 143.418667,31.5647386 C143.313481,31.3874659 143.260148,31.1732614 143.260148,30.922125 C143.260148,30.6887159 143.307556,30.467125 143.399407,30.2617841 C143.494222,30.0549659 143.626074,29.8776932 143.80237,29.7284886 C143.975704,29.5792841 144.187556,29.4611023 144.439407,29.3768977 C144.689778,29.2926932 144.974222,29.2498523 145.289778,29.2498523 C145.66163,29.2498523 146.005333,29.3148523 146.317926,29.443375 C146.629037,29.573375 146.897185,29.7299659 147.125333,29.9161023 L146.651259,30.5468977 C146.449778,30.3932614 146.237926,30.2676932 146.020148,30.1701932 C145.800889,30.0741705 145.560889,30.0254205 145.30163,30.0254205 C144.929778,30.0254205 144.655704,30.109625 144.48237,30.2795114 C144.307556,30.4493977 144.22163,30.6473523 144.22163,30.873375 C144.22163,31.0107614 144.257185,31.1304205 144.329778,31.230875 C144.403852,31.3328068 144.500148,31.4214432 144.62163,31.4982614 C144.743111,31.5750795 144.88237,31.6430341 145.040889,31.7036023 C145.199407,31.7641705 145.36237,31.8276932 145.534222,31.8912159 C145.743111,31.9724659 145.956444,32.0566705 146.171259,32.1453068 C146.386074,32.2354205 146.578667,32.3462159 146.749037,32.4791705 C146.917926,32.612125 147.058667,32.7761023 147.168296,32.969625 C147.276444,33.164625 147.331259,33.3980341 147.331259,33.6728068 C147.331259,33.9150795 147.285333,34.1411023 147.192,34.3523523 C147.098667,34.562125 146.960889,34.7482614 146.778667,34.9092841 C146.596444,35.0703068 146.369778,35.1988295 146.097185,35.2904205 C145.827556,35.3834886 145.517926,35.4307614 145.168296,35.4307614 C144.746074,35.4307614 144.346074,35.3539432 143.965333,35.2003068 C143.584593,35.0466705 143.251259,34.8531477 142.968296,34.6182614 L143.467556,33.9520114 Z" id="Fill-23" fill="#1A3667"></path>
                <mask id="mask-2" fill="white">
                    <use xlink:href="#path-1"></use>
                </mask>
                <g id="Clip-26"></g>
                <path d="M148.718519,35.2848068 L149.715556,35.2848068 L149.715556,29.3949205 L148.718519,29.3949205 L148.718519,35.2848068 Z M149.228148,28.1835568 C149.032593,28.1835568 148.86963,28.1229886 148.734815,28.0018523 C148.601481,27.8792386 148.534815,27.7270795 148.534815,27.5409432 C148.534815,27.3474205 148.601481,27.1908295 148.734815,27.074125 C148.86963,26.9574205 149.032593,26.8983295 149.228148,26.8983295 C149.422222,26.8983295 149.586667,26.9574205 149.72,27.074125 C149.853333,27.1908295 149.921481,27.3474205 149.921481,27.5409432 C149.921481,27.7270795 149.853333,27.8792386 149.72,28.0018523 C149.586667,28.1229886 149.422222,28.1835568 149.228148,28.1835568 Z" id="Fill-25" fill="#1A3667" mask="url(#mask-2)"></path>
                <path d="M151.708296,29.3947727 L152.534963,29.3947727 L152.619407,30.2442045 L152.656444,30.2442045 C152.939407,29.9605682 153.237185,29.7242045 153.549778,29.5351136 C153.860889,29.3445455 154.223852,29.25 154.637185,29.25 C155.260889,29.25 155.717185,29.4435227 156.004593,29.8305682 C156.292,30.2190909 156.435704,30.7922727 156.435704,31.5515909 L156.435704,35.2846591 L155.440148,35.2846591 L155.440148,31.6860227 C155.440148,31.1276136 155.349778,30.7257955 155.172,30.4790909 C154.994222,30.2338636 154.709778,30.1097727 154.32163,30.1097727 C154.013481,30.1097727 153.74237,30.1865909 153.506815,30.3402273 C153.272741,30.4938636 153.004593,30.7198864 152.705333,31.0197727 L152.705333,35.2846591 L151.708296,35.2846591 L151.708296,29.3947727 Z" id="Fill-27" fill="#1A3667" mask="url(#mask-2)"></path>
                <path d="M162.051111,31.9034773 C162.051111,31.2977955 161.922222,30.8354091 161.667407,30.5163182 C161.412593,30.1972273 161.054074,30.0376818 160.593333,30.0376818 C160.381481,30.0376818 160.18,30.0805227 159.99037,30.1647273 C159.799259,30.2489318 159.627407,30.3700682 159.474815,30.5281364 C159.319259,30.6862045 159.191852,30.8797273 159.091111,31.1101818 C158.99037,31.3406364 158.923704,31.6050682 158.88963,31.9034773 L162.051111,31.9034773 Z M157.917778,32.3525682 C157.917778,31.8680227 157.993333,31.4337045 158.142963,31.0496136 C158.292593,30.6655227 158.492593,30.3405227 158.738519,30.0731364 C158.985926,29.8072273 159.267407,29.6033636 159.582963,29.4615455 C159.9,29.3197273 160.228889,29.2502955 160.568148,29.2502955 C160.94,29.2502955 161.274815,29.3152955 161.571111,29.4438182 C161.865926,29.5723409 162.113333,29.7584773 162.311852,30.00075 C162.51037,30.2430227 162.662963,30.5340455 162.766667,30.8738182 C162.873333,31.2135909 162.926667,31.59325 162.926667,32.0127955 C162.926667,32.2314318 162.913333,32.4131364 162.888148,32.5579091 L158.902963,32.5579091 C158.942963,33.1960909 159.14,33.7013182 159.491111,34.0735909 C159.845185,34.4443864 160.304444,34.6305227 160.871852,34.6305227 C161.156296,34.6305227 161.415556,34.5876818 161.655556,34.5034773 C161.895556,34.4192727 162.123704,34.307 162.341481,34.1696136 L162.695556,34.8255227 C162.436296,34.9865455 162.147407,35.1283636 161.831852,35.2495 C161.516296,35.3706364 161.156296,35.4312045 160.75037,35.4312045 C160.353333,35.4312045 159.982963,35.3588182 159.637778,35.2184773 C159.294074,35.0766591 158.994815,34.87575 158.738519,34.6127955 C158.483704,34.3498409 158.282222,34.0277955 158.137037,33.6496136 C157.991852,33.2684773 157.917778,32.8371136 157.917778,32.3525682 Z" id="Fill-28" fill="#1A3667" mask="url(#mask-2)"></path>
                <path d="M164.227111,33.9520114 C164.48637,34.1617841 164.751556,34.3316705 165.022667,34.4601932 C165.293778,34.5901932 165.607852,34.6551932 165.964889,34.6551932 C166.354519,34.6551932 166.644889,34.5665568 166.840444,34.3878068 C167.034519,34.2105341 167.130815,33.9918977 167.130815,33.733375 C167.130815,33.5812159 167.090815,33.4467841 167.009333,33.3345114 C166.927852,33.2207614 166.82563,33.1217841 166.699704,33.0361023 C166.573778,32.9518977 166.430074,32.8765568 166.268593,32.8130341 C166.107111,32.7480341 165.944148,32.6830341 165.782667,32.6195114 C165.570815,32.5456477 165.361926,32.4629205 165.150074,32.3698523 C164.938222,32.2782614 164.751556,32.1645114 164.584148,32.0315568 C164.419704,31.897125 164.283407,31.7420114 164.178222,31.5647386 C164.073037,31.3874659 164.019704,31.1732614 164.019704,30.922125 C164.019704,30.6887159 164.067111,30.467125 164.158963,30.2617841 C164.253778,30.0549659 164.38563,29.8776932 164.561926,29.7284886 C164.735259,29.5792841 164.947111,29.4611023 165.198963,29.3768977 C165.449333,29.2926932 165.733778,29.2498523 166.049333,29.2498523 C166.421185,29.2498523 166.764889,29.3148523 167.077481,29.443375 C167.388593,29.573375 167.656741,29.7299659 167.884889,29.9161023 L167.410815,30.5468977 C167.209333,30.3932614 166.997481,30.2676932 166.779704,30.1701932 C166.560444,30.0741705 166.320444,30.0254205 166.061185,30.0254205 C165.689333,30.0254205 165.415259,30.109625 165.241926,30.2795114 C165.067111,30.4493977 164.981185,30.6473523 164.981185,30.873375 C164.981185,31.0107614 165.016741,31.1304205 165.089333,31.230875 C165.163407,31.3328068 165.259704,31.4214432 165.381185,31.4982614 C165.502667,31.5750795 165.641926,31.6430341 165.800444,31.7036023 C165.958963,31.7641705 166.121926,31.8276932 166.293778,31.8912159 C166.502667,31.9724659 166.716,32.0566705 166.930815,32.1453068 C167.14563,32.2354205 167.338222,32.3462159 167.508593,32.4791705 C167.677481,32.612125 167.818222,32.7761023 167.927852,32.969625 C168.036,33.164625 168.090815,33.3980341 168.090815,33.6728068 C168.090815,33.9150795 168.044889,34.1411023 167.951556,34.3523523 C167.858222,34.562125 167.720444,34.7482614 167.538222,34.9092841 C167.356,35.0703068 167.129333,35.1988295 166.856741,35.2904205 C166.587111,35.3834886 166.277481,35.4307614 165.927852,35.4307614 C165.50563,35.4307614 165.10563,35.3539432 164.724889,35.2003068 C164.344148,35.0466705 164.010815,34.8531477 163.727852,34.6182614 L164.227111,33.9520114 Z" id="Fill-29" fill="#1A3667" mask="url(#mask-2)"></path>
                <path d="M169.318222,33.9520114 C169.577481,34.1617841 169.842667,34.3316705 170.113778,34.4601932 C170.384889,34.5901932 170.698963,34.6551932 171.056,34.6551932 C171.44563,34.6551932 171.736,34.5665568 171.931556,34.3878068 C172.12563,34.2105341 172.221926,33.9918977 172.221926,33.733375 C172.221926,33.5812159 172.181926,33.4467841 172.100444,33.3345114 C172.018963,33.2207614 171.916741,33.1217841 171.790815,33.0361023 C171.664889,32.9518977 171.521185,32.8765568 171.359704,32.8130341 C171.198222,32.7480341 171.035259,32.6830341 170.873778,32.6195114 C170.661926,32.5456477 170.453037,32.4629205 170.241185,32.3698523 C170.029333,32.2782614 169.842667,32.1645114 169.675259,32.0315568 C169.510815,31.897125 169.374519,31.7420114 169.269333,31.5647386 C169.164148,31.3874659 169.110815,31.1732614 169.110815,30.922125 C169.110815,30.6887159 169.158222,30.467125 169.250074,30.2617841 C169.344889,30.0549659 169.476741,29.8776932 169.653037,29.7284886 C169.82637,29.5792841 170.038222,29.4611023 170.290074,29.3768977 C170.540444,29.2926932 170.824889,29.2498523 171.140444,29.2498523 C171.512296,29.2498523 171.856,29.3148523 172.168593,29.443375 C172.479704,29.573375 172.747852,29.7299659 172.976,29.9161023 L172.501926,30.5468977 C172.300444,30.3932614 172.088593,30.2676932 171.870815,30.1701932 C171.651556,30.0741705 171.411556,30.0254205 171.152296,30.0254205 C170.780444,30.0254205 170.50637,30.109625 170.333037,30.2795114 C170.158222,30.4493977 170.072296,30.6473523 170.072296,30.873375 C170.072296,31.0107614 170.107852,31.1304205 170.180444,31.230875 C170.254519,31.3328068 170.350815,31.4214432 170.472296,31.4982614 C170.593778,31.5750795 170.733037,31.6430341 170.891556,31.7036023 C171.050074,31.7641705 171.213037,31.8276932 171.384889,31.8912159 C171.593778,31.9724659 171.807111,32.0566705 172.021926,32.1453068 C172.236741,32.2354205 172.429333,32.3462159 172.599704,32.4791705 C172.768593,32.612125 172.909333,32.7761023 173.018963,32.969625 C173.127111,33.164625 173.181926,33.3980341 173.181926,33.6728068 C173.181926,33.9150795 173.136,34.1411023 173.042667,34.3523523 C172.949333,34.562125 172.811556,34.7482614 172.629333,34.9092841 C172.447111,35.0703068 172.220444,35.1988295 171.947852,35.2904205 C171.678222,35.3834886 171.368593,35.4307614 171.018963,35.4307614 C170.596741,35.4307614 170.196741,35.3539432 169.816,35.2003068 C169.435259,35.0466705 169.101926,34.8531477 168.818963,34.6182614 L169.318222,33.9520114 Z" id="Fill-30" fill="#1A3667" mask="url(#mask-2)"></path>
                <path d="M79.2595556,46.5925909 L78.8832593,45.3812273 C78.7365926,44.9365682 78.5988148,44.4948636 78.4699259,44.0531591 C78.3395556,43.6129318 78.2106667,43.1623636 78.0802963,42.7029318 L78.0314074,42.7029318 C77.9099259,43.1623636 77.784,43.6129318 77.6551111,44.0531591 C77.5262222,44.4948636 77.386963,44.9365682 77.2417778,45.3812273 L76.8654815,46.5925909 L79.2595556,46.5925909 Z M79.5143704,47.4050909 L76.6091852,47.4050909 L75.8447407,49.8278182 L74.8106667,49.8278182 L77.5084444,41.8786136 L78.6521481,41.8786136 L81.3499259,49.8278182 L80.2684444,49.8278182 L79.5143704,47.4050909 Z" id="Fill-31" fill="#1A3667" mask="url(#mask-2)"></path>
                <path d="M82.9908148,46.8831705 C82.9908148,47.5937386 83.133037,48.1477159 83.416,48.543625 C83.7004444,48.9395341 84.1004444,49.1374886 84.618963,49.1374886 C84.8945185,49.1374886 85.1537778,49.0710114 85.3982222,48.9380568 C85.6411852,48.803625 85.8841481,48.6012386 86.1271111,48.3264659 L86.1271111,45.2478295 C85.8752593,45.0218068 85.6337778,44.8607841 85.4026667,44.7677159 C85.173037,44.676125 84.9345185,44.6288523 84.6915556,44.6288523 C84.4574815,44.6288523 84.2367407,44.6835114 84.0293333,44.7928295 C83.8234074,44.9021477 83.6426667,45.0557841 83.4885926,45.2522614 C83.3345185,45.4516932 83.213037,45.6880568 83.1241481,45.9613523 C83.0352593,46.2376023 82.9908148,46.544875 82.9908148,46.8831705 M81.9582222,46.8949886 C81.9582222,46.4193068 82.0293333,45.9894205 82.1700741,45.6053295 C82.3122963,45.2212386 82.5004444,44.8962386 82.736,44.6288523 C82.9700741,44.3614659 83.2411852,44.156125 83.5493333,44.0113523 C83.8574815,43.8665795 84.1819259,43.7927159 84.5226667,43.7927159 C84.8619259,43.7927159 85.1582222,43.8532841 85.4085926,43.9744205 C85.6604444,44.0955568 85.9152593,44.2624886 86.1745185,44.4722614 L86.1271111,43.4662386 L86.1271111,41.198625 L87.1345185,41.198625 L87.1345185,49.8288523 L86.3093333,49.8288523 L86.2234074,49.1374886 L86.1878519,49.1374886 C85.9522963,49.3635114 85.6826667,49.5599886 85.378963,49.7254432 C85.0752593,49.8908977 84.7493333,49.973625 84.4011852,49.973625 C83.6545185,49.973625 83.0619259,49.7077159 82.6204444,49.1744205 C82.178963,48.6396477 81.9582222,47.8818068 81.9582222,46.8949886" id="Fill-32" fill="#1A3667" mask="url(#mask-2)"></path>
                <path d="M89.1287407,43.9380795 L89.9554074,43.9380795 L90.0398519,44.7875114 L90.0768889,44.7875114 C90.3361481,44.503875 90.6176296,44.2675114 90.9213333,44.0784205 C91.225037,43.8878523 91.5554074,43.7933068 91.910963,43.7933068 C92.3657778,43.7933068 92.7198519,43.8922841 92.9746667,44.0902386 C93.230963,44.2881932 93.4191111,44.5644432 93.5405926,44.9204659 C93.8487407,44.5806932 94.1583704,44.3073977 94.4694815,44.1020568 C94.7820741,43.8967159 95.1198519,43.7933068 95.4857778,43.7933068 C96.0931852,43.7933068 96.5435556,43.9868295 96.8398519,44.373875 C97.1361481,44.7623977 97.2842963,45.3355795 97.2842963,46.0948977 L97.2842963,49.8279659 L96.2872593,49.8279659 L96.2872593,46.2293295 C96.2872593,45.6709205 96.1968889,45.2691023 96.0191111,45.0223977 C95.8413333,44.7771705 95.5657778,44.6530795 95.1939259,44.6530795 C94.748,44.6530795 94.2531852,44.9559205 93.710963,45.5630795 L93.710963,49.8279659 L92.7139259,49.8279659 L92.7139259,46.2293295 C92.7139259,45.6709205 92.625037,45.2691023 92.4472593,45.0223977 C92.268,44.7771705 91.9894815,44.6530795 91.6072593,44.6530795 C91.1628148,44.6530795 90.668,44.9559205 90.1242963,45.5630795 L90.1242963,49.8279659 L89.1287407,49.8279659 L89.1287407,43.9380795 Z" id="Fill-33" fill="#1A3667" mask="url(#mask-2)"></path>
                <path d="M99.2044444,49.8285568 L100.2,49.8285568 L100.2,43.9386705 L99.2044444,43.9386705 L99.2044444,49.8285568 Z M99.7140741,42.7258295 C99.52,42.7258295 99.3555556,42.6652614 99.2222222,42.544125 C99.0888889,42.4229886 99.0222222,42.2708295 99.0222222,42.0846932 C99.0222222,41.8896932 99.0888889,41.7345795 99.2222222,41.617875 C99.3555556,41.5011705 99.52,41.4420795 99.7140741,41.4420795 C99.9081481,41.4420795 100.072593,41.5011705 100.205926,41.617875 C100.340741,41.7345795 100.407407,41.8896932 100.407407,42.0846932 C100.407407,42.2708295 100.340741,42.4229886 100.205926,42.544125 C100.072593,42.6652614 99.9081481,42.7258295 99.7140741,42.7258295 Z" id="Fill-34" fill="#1A3667" mask="url(#mask-2)"></path>
                <path d="M102.19363,43.9380795 L103.020296,43.9380795 L103.104741,44.7875114 L103.141778,44.7875114 C103.424741,44.503875 103.722519,44.2675114 104.035111,44.0784205 C104.346222,43.8878523 104.709185,43.7933068 105.122519,43.7933068 C105.746222,43.7933068 106.202519,43.9868295 106.489926,44.373875 C106.777333,44.7623977 106.921037,45.3355795 106.921037,46.0948977 L106.921037,49.8279659 L105.925481,49.8279659 L105.925481,46.2293295 C105.925481,45.6709205 105.835111,45.2691023 105.657333,45.0223977 C105.479556,44.7771705 105.195111,44.6530795 104.806963,44.6530795 C104.498815,44.6530795 104.227704,44.7298977 103.992148,44.8835341 C103.756593,45.0371705 103.489926,45.2631932 103.189185,45.5630795 L103.189185,49.8279659 L102.19363,49.8279659 L102.19363,43.9380795 Z" id="Fill-35" fill="#1A3667" mask="url(#mask-2)"></path>
                <path d="M108.841481,49.8285568 L109.837037,49.8285568 L109.837037,43.9386705 L108.841481,43.9386705 L108.841481,49.8285568 Z M109.351111,42.7258295 C109.157037,42.7258295 108.994074,42.6652614 108.859259,42.544125 C108.725926,42.4229886 108.659259,42.2708295 108.659259,42.0846932 C108.659259,41.8896932 108.725926,41.7345795 108.859259,41.617875 C108.994074,41.5011705 109.157037,41.4420795 109.351111,41.4420795 C109.546667,41.4420795 109.70963,41.5011705 109.844444,41.617875 C109.977778,41.7345795 110.044444,41.8896932 110.044444,42.0846932 C110.044444,42.2708295 109.977778,42.4229886 109.844444,42.544125 C109.70963,42.6652614 109.546667,42.7258295 109.351111,42.7258295 Z" id="Fill-36" fill="#1A3667" mask="url(#mask-2)"></path>
                <path d="M111.674963,48.4954659 C111.934222,48.7052386 112.199407,48.875125 112.470519,49.0036477 C112.74163,49.1336477 113.055704,49.1986477 113.412741,49.1986477 C113.80237,49.1986477 114.092741,49.1100114 114.288296,48.9312614 C114.48237,48.7539886 114.578667,48.5353523 114.578667,48.2768295 C114.578667,48.1246705 114.538667,47.9902386 114.457185,47.8779659 C114.375704,47.7642159 114.273481,47.6652386 114.147556,47.5795568 C114.02163,47.4953523 113.877926,47.4200114 113.716444,47.3564886 C113.554963,47.2914886 113.392,47.2264886 113.230519,47.1629659 C113.018667,47.0891023 112.809778,47.006375 112.597926,46.9133068 C112.386074,46.8217159 112.199407,46.7079659 112.032,46.5750114 C111.867556,46.4405795 111.731259,46.2854659 111.626074,46.1081932 C111.520889,45.9309205 111.467556,45.7167159 111.467556,45.4655795 C111.467556,45.2321705 111.514963,45.0105795 111.606815,44.8052386 C111.70163,44.5984205 111.833481,44.4211477 112.009778,44.2719432 C112.183111,44.1227386 112.394963,44.0045568 112.646815,43.9203523 C112.897185,43.8361477 113.18163,43.7933068 113.497185,43.7933068 C113.869037,43.7933068 114.212741,43.8583068 114.525333,43.9868295 C114.836444,44.1168295 115.104593,44.2734205 115.332741,44.4595568 L114.858667,45.0903523 C114.657185,44.9367159 114.445333,44.8111477 114.227556,44.7136477 C114.008296,44.617625 113.768296,44.568875 113.509037,44.568875 C113.137185,44.568875 112.863111,44.6530795 112.689778,44.8229659 C112.514963,44.9928523 112.429037,45.1908068 112.429037,45.4168295 C112.429037,45.5542159 112.464593,45.673875 112.537185,45.7743295 C112.611259,45.8762614 112.707556,45.9648977 112.829037,46.0417159 C112.950519,46.1185341 113.089778,46.1864886 113.248296,46.2470568 C113.406815,46.307625 113.569778,46.3711477 113.74163,46.4346705 C113.950519,46.5159205 114.163852,46.600125 114.378667,46.6887614 C114.593481,46.778875 114.786074,46.8896705 114.956444,47.022625 C115.125333,47.1555795 115.266074,47.3195568 115.375704,47.5130795 C115.483852,47.7080795 115.538667,47.9414886 115.538667,48.2162614 C115.538667,48.4585341 115.492741,48.6845568 115.399407,48.8958068 C115.306074,49.1055795 115.168296,49.2917159 114.986074,49.4527386 C114.803852,49.6137614 114.577185,49.7422841 114.304593,49.833875 C114.034963,49.9269432 113.725333,49.9742159 113.375704,49.9742159 C112.953481,49.9742159 112.553481,49.8973977 112.172741,49.7437614 C111.792,49.590125 111.458667,49.3966023 111.175704,49.1617159 L111.674963,48.4954659 Z" id="Fill-37" fill="#1A3667" mask="url(#mask-2)"></path>
                <path d="M116.876148,44.7502841 L116.002074,44.7502841 L116.002074,43.9983523 L116.925037,43.9377841 L117.046519,42.2891477 L117.886519,42.2891477 L117.886519,43.9377841 L119.47763,43.9377841 L119.47763,44.7502841 L117.886519,44.7502841 L117.886519,48.0224432 C117.886519,48.3858523 117.953185,48.6665341 118.085037,48.8644886 C118.219852,49.0624432 118.456889,49.1614205 118.79763,49.1614205 C118.902815,49.1614205 119.015407,49.1466477 119.136889,49.1141477 C119.25837,49.0816477 119.369481,49.0447159 119.465778,49.0033523 L119.659852,49.7552841 C119.49837,49.8128977 119.320593,49.863125 119.130963,49.9074432 C118.941333,49.9517614 118.753185,49.9739205 118.566519,49.9739205 C118.250963,49.9739205 117.984296,49.9251705 117.770963,49.8291477 C117.554667,49.7316477 117.381333,49.5986932 117.248,49.4288068 C117.113185,49.2589205 117.01837,49.0535795 116.962074,48.8113068 C116.905778,48.5675568 116.876148,48.3016477 116.876148,48.010625 L116.876148,44.7502841 Z" id="Fill-38" fill="#1A3667" mask="url(#mask-2)"></path>
                <path d="M120.801185,43.9380795 L121.627852,43.9380795 L121.712296,45.0046705 L121.749333,45.0046705 C121.950815,44.633875 122.196741,44.3384205 122.484148,44.1197841 C122.771556,43.902625 123.08563,43.7933068 123.424889,43.7933068 C123.661926,43.7933068 123.870815,43.8331932 124.057481,43.9144432 L123.863407,44.7875114 C123.767111,44.7550114 123.676741,44.7298977 123.596741,44.7136477 C123.515259,44.6973977 123.414519,44.6900114 123.293037,44.6900114 C123.041185,44.6900114 122.780444,44.7904659 122.507852,44.9928523 C122.236741,45.1952386 122.001185,45.5468295 121.798222,46.047625 L121.798222,49.8279659 L120.801185,49.8279659 L120.801185,43.9380795 Z" id="Fill-39" fill="#1A3667" mask="url(#mask-2)"></path>
                <path d="M125.432148,48.2285227 C125.432148,48.5682955 125.529926,48.8105682 125.729926,48.9553409 C125.928444,49.1015909 126.172889,49.1739773 126.464741,49.1739773 C126.749185,49.1739773 127.017333,49.1075 127.272148,48.9730682 C127.528444,48.8415909 127.798074,48.6451136 128.081037,48.3865909 L128.081037,46.7497727 C127.586222,46.8147727 127.169926,46.8915909 126.829185,46.9802273 C126.489926,47.0688636 126.215852,47.17375 126.009926,47.2948864 C125.802519,47.4160227 125.65437,47.5563636 125.565481,47.7129545 C125.475111,47.8710227 125.432148,48.0438636 125.432148,48.2285227 M124.446963,48.3009091 C124.446963,47.6553409 124.735852,47.1604545 125.316593,46.81625 C125.89437,46.4735227 126.817333,46.2327273 128.081037,46.0953409 C128.081037,45.9106818 128.061778,45.7289773 128.026222,45.5502273 C127.990667,45.3729545 127.925481,45.2148864 127.832148,45.0775 C127.738815,44.9401136 127.615852,44.8293182 127.461778,44.7451136 C127.307704,44.6594318 127.109185,44.6165909 126.866222,44.6165909 C126.516593,44.6165909 126.196593,44.6815909 125.898815,44.8115909 C125.604,44.9401136 125.338815,45.0863636 125.103259,45.2473864 L124.703259,44.5560227 C124.977333,44.37875 125.31363,44.2073864 125.710667,44.0419318 C126.107704,43.8764773 126.546222,43.79375 127.023259,43.79375 C127.746222,43.79375 128.267704,44.0123864 128.592148,44.4526136 C128.916593,44.8943182 129.078074,45.4822727 129.078074,46.2164773 L129.078074,49.8284091 L128.251407,49.8284091 L128.166963,49.1252273 L128.141778,49.1252273 C127.858815,49.3601136 127.55363,49.5595455 127.224741,49.725 C126.895852,49.8904545 126.550667,49.9746591 126.186222,49.9746591 C125.682519,49.9746591 125.267704,49.8284091 124.938815,49.5373864 C124.611407,49.2463636 124.446963,48.8342045 124.446963,48.3009091" id="Fill-40" fill="#1A3667" mask="url(#mask-2)"></path>
                <path d="M130.851852,44.7502841 L129.977778,44.7502841 L129.977778,43.9983523 L130.900741,43.9377841 L131.022222,42.2891477 L131.862222,42.2891477 L131.862222,43.9377841 L133.453333,43.9377841 L133.453333,44.7502841 L131.862222,44.7502841 L131.862222,48.0224432 C131.862222,48.3858523 131.928889,48.6665341 132.060741,48.8644886 C132.195556,49.0624432 132.432593,49.1614205 132.773333,49.1614205 C132.878519,49.1614205 132.991111,49.1466477 133.112593,49.1141477 C133.234074,49.0816477 133.345185,49.0447159 133.441481,49.0033523 L133.635556,49.7552841 C133.474074,49.8128977 133.296296,49.863125 133.106667,49.9074432 C132.917037,49.9517614 132.728889,49.9739205 132.542222,49.9739205 C132.226667,49.9739205 131.96,49.9251705 131.746667,49.8291477 C131.53037,49.7316477 131.357037,49.5986932 131.223704,49.4288068 C131.088889,49.2589205 130.994074,49.0535795 130.937778,48.8113068 C130.881481,48.5675568 130.851852,48.3016477 130.851852,48.010625 L130.851852,44.7502841 Z" id="Fill-41" fill="#1A3667" mask="url(#mask-2)"></path>
                <path d="M134.78963,49.8285568 L135.786667,49.8285568 L135.786667,43.9386705 L134.78963,43.9386705 L134.78963,49.8285568 Z M135.300741,42.7258295 C135.105185,42.7258295 134.942222,42.6652614 134.807407,42.544125 C134.674074,42.4229886 134.607407,42.2708295 134.607407,42.0846932 C134.607407,41.8896932 134.674074,41.7345795 134.807407,41.617875 C134.942222,41.5011705 135.105185,41.4420795 135.300741,41.4420795 C135.494815,41.4420795 135.659259,41.5011705 135.792593,41.617875 C135.925926,41.7345795 135.994074,41.8896932 135.994074,42.0846932 C135.994074,42.2708295 135.925926,42.4229886 135.792593,42.544125 C135.659259,42.6652614 135.494815,42.7258295 135.300741,42.7258295 Z" id="Fill-42" fill="#1A3667" mask="url(#mask-2)"></path>
                <path d="M138.376444,46.8954318 C138.376444,47.2337273 138.414963,47.541 138.497926,47.81725 C138.577926,48.0920227 138.693481,48.3269091 138.843111,48.5263409 C138.994222,48.7228182 139.173481,48.8764545 139.385333,48.9857727 C139.594222,49.0950909 139.826815,49.14975 140.077185,49.14975 C140.327556,49.14975 140.560148,49.0950909 140.769037,48.9857727 C140.980889,48.8764545 141.16163,48.7228182 141.309778,48.5263409 C141.460889,48.3269091 141.576444,48.0920227 141.657926,47.81725 C141.739407,47.541 141.779407,47.2337273 141.779407,46.8954318 C141.779407,46.5571364 141.739407,46.2469091 141.657926,45.9691818 C141.576444,45.6899773 141.460889,45.4491818 141.309778,45.2467955 C141.16163,45.0458864 140.980889,44.8892955 140.769037,44.7799773 C140.560148,44.6721364 140.327556,44.6174773 140.077185,44.6174773 C139.826815,44.6174773 139.594222,44.6721364 139.385333,44.7799773 C139.173481,44.8892955 138.994222,45.0458864 138.843111,45.2467955 C138.693481,45.4491818 138.577926,45.6899773 138.497926,45.9691818 C138.414963,46.2469091 138.376444,46.5571364 138.376444,46.8954318 M137.34237,46.8954318 C137.34237,46.4035 137.417926,45.96475 137.567556,45.5806591 C137.717185,45.1965682 137.917185,44.8715682 138.169037,44.6056591 C138.419407,44.3382727 138.711259,44.1358864 139.037185,43.9985 C139.366074,43.8611136 139.712741,43.7931591 140.077185,43.7931591 C140.443111,43.7931591 140.788296,43.8611136 141.117185,43.9985 C141.444593,44.1358864 141.734963,44.3382727 141.986815,44.6056591 C142.235704,44.8715682 142.437185,45.1965682 142.586815,45.5806591 C142.736444,45.96475 142.812,46.4035 142.812,46.8954318 C142.812,47.3799773 142.736444,47.8142955 142.586815,48.1983864 C142.437185,48.5824773 142.235704,48.9045227 141.986815,49.1674773 C141.734963,49.4304318 141.444593,49.6313409 141.117185,49.76725 C140.788296,49.9046364 140.443111,49.9740682 140.077185,49.9740682 C139.712741,49.9740682 139.366074,49.9046364 139.037185,49.76725 C138.711259,49.6313409 138.419407,49.4304318 138.169037,49.1674773 C137.917185,48.9045227 137.717185,48.5824773 137.567556,48.1983864 C137.417926,47.8142955 137.34237,47.3799773 137.34237,46.8954318" id="Fill-43" fill="#1A3667" mask="url(#mask-2)"></path>
                <path d="M144.367407,43.9380795 L145.194074,43.9380795 L145.278519,44.7875114 L145.315556,44.7875114 C145.598519,44.503875 145.896296,44.2675114 146.208889,44.0784205 C146.52,43.8878523 146.882963,43.7933068 147.296296,43.7933068 C147.92,43.7933068 148.376296,43.9868295 148.663704,44.373875 C148.951111,44.7623977 149.094815,45.3355795 149.094815,46.0948977 L149.094815,49.8279659 L148.099259,49.8279659 L148.099259,46.2293295 C148.099259,45.6709205 148.008889,45.2691023 147.831111,45.0223977 C147.653333,44.7771705 147.368889,44.6530795 146.980741,44.6530795 C146.672593,44.6530795 146.401481,44.7298977 146.165926,44.8835341 C145.931852,45.0371705 145.663704,45.2631932 145.364444,45.5630795 L145.364444,49.8279659 L144.367407,49.8279659 L144.367407,43.9380795 Z" id="Fill-44" fill="#1A3667" mask="url(#mask-2)"></path>
                <polyline id="Fill-45" fill="#1A3667" mask="url(#mask-2)" points="50.6044444 63.8905682 50.5837037 60.1501136 10.64 60.1501136 10.2651852 60.1501136 10.2651852 59.7409091 10.2651852 53.8776136 6.83851852 53.8776136 6.83851852 63.8905682"></polyline>
                <polygon id="Fill-46" fill="#CA2026" mask="url(#mask-2)" points="6.89851852 22.4332727 10.3251852 22.4332727 10.3251852 16.5699773 10.3251852 16.1607727 10.7 16.1607727 50.2674074 16.1607727 50.6437037 16.1607727 50.6437037 16.5699773 50.6437037 22.4332727 54.0703704 22.4332727 54.0703704 12.4203182 6.89851852 12.4203182"></polygon>
                <path d="M4.13807407,42.7710341 C4.16622222,44.0739886 4.74251852,46.551375 8.50548148,46.551375 C10.5454815,46.551375 12.8165926,45.9959205 12.8165926,43.5200114 C12.8165926,41.6955795 11.264,41.2066023 9.0802963,40.620125 L6.86844444,40.0321705 C3.53362963,39.1531932 0.317333333,38.3081932 0.317333333,33.1584205 C0.317333333,30.5525114 1.55288889,25.9596705 8.24622222,25.9596705 C14.5677037,25.9596705 16.264,30.6500114 16.2921481,33.5173977 L12.1543704,33.5173977 C12.0388148,32.4759205 11.6951111,29.9985341 7.93066667,29.9985341 C6.29214815,29.9985341 4.33955556,30.6839886 4.33955556,32.8009205 C4.33955556,34.6253523 5.66103704,35.0168295 6.52325926,35.2443295 L11.5514074,36.6462614 C14.3677037,37.4277386 16.9528889,38.7292159 16.9528889,42.9320568 C16.9528889,49.9712614 10.6314074,50.5902386 8.82103704,50.5902386 C1.29511111,50.5902386 0.000296296296,45.6709205 0.000296296296,42.7710341 L4.13807407,42.7710341 Z" id="Fill-47" fill="#CA2026" mask="url(#mask-2)"></path>
                <path d="M22.4041481,26.5779091 L32.818963,26.5779091 C38.0722963,26.5779091 39.4145185,30.1617727 39.4145185,32.5726818 C39.4145185,35.9275682 37.6826667,36.8745 36.7878519,37.362 C39.4145185,38.4374545 40.1004444,40.7168864 40.1004444,43.0317727 C40.1004444,44.8887045 39.3848889,46.6466591 38.2515556,47.8535909 C37.0278519,49.1550682 35.8634074,49.9705227 31.4767407,49.9705227 L22.4041481,49.9705227 L22.4041481,26.5779091 Z M26.7019259,35.7325682 L31.9537778,35.7325682 C33.7137778,35.7325682 35.1182222,34.9835909 35.1182222,33.1266591 C35.1182222,31.20325 33.8634074,30.6167727 31.8337778,30.6167727 L26.7019259,30.6167727 L26.7019259,35.7325682 Z M26.7019259,45.9301818 L32.1922963,45.9301818 C34.3715556,45.9301818 35.6248889,44.8887045 35.6248889,42.5088182 C35.6248889,40.4583636 34.013037,39.6739318 32.4011852,39.6739318 L26.7019259,39.6739318 L26.7019259,45.9301818 Z" id="Fill-48" fill="#CA2026" mask="url(#mask-2)"></path>
                <polygon id="Fill-49" fill="#CA2026" mask="url(#mask-2)" points="54.0361481 26.5700795 50.6361481 26.5700795 43.8317037 49.9774659 48.128 49.9774659 52.2983704 34.6093977 56.5368889 49.9774659 60.8331852 49.9774659"></polygon>
                <polygon id="Fill-50" fill="#CA2026" mask="url(#mask-2)" points="50.6044444 63.8905682 50.6044444 50.0367045 54.0103704 50.0367045 54.0103704 60.1279545"></polygon>
                <path d="M354.588741,49.2441477 L354.990222,49.2441477 L354.990222,51.114375 C354.990222,51.3049432 355.010963,51.4630114 355.050963,51.5915341 C355.088,51.7215341 355.141333,51.8249432 355.206519,51.9017614 C355.273185,51.9785795 355.351704,52.0347159 355.442074,52.0686932 C355.532444,52.1026705 355.628741,52.1189205 355.732444,52.1189205 C355.839111,52.1189205 355.93837,52.1026705 356.028741,52.0686932 C356.119111,52.0347159 356.19763,51.9785795 356.265778,51.9017614 C356.333926,51.8249432 356.387259,51.7215341 356.425778,51.5915341 C356.464296,51.4630114 356.483556,51.3049432 356.483556,51.114375 L356.483556,49.2441477 L356.871704,49.2441477 L356.871704,51.1040341 C356.871704,51.3596023 356.842074,51.5738068 356.784296,51.7466477 C356.725037,51.9209659 356.646519,52.0613068 356.544296,52.1691477 C356.442074,52.2769886 356.322074,52.3552841 356.182815,52.4010795 C356.043556,52.4483523 355.893926,52.4719886 355.732444,52.4719886 C355.570963,52.4719886 355.421333,52.4483523 355.280593,52.4010795 C355.13837,52.3552841 355.01837,52.2769886 354.916148,52.1691477 C354.813926,52.0613068 354.735407,51.9209659 354.67763,51.7466477 C354.61837,51.5738068 354.588741,51.3596023 354.588741,51.1040341 L354.588741,49.2441477 Z" id="Fill-51" fill="#CA2026" mask="url(#mask-2)"></path>
                <path d="M357.535852,52.1719545 C357.535852,52.0788864 357.564,52.0035455 357.620296,51.9474091 C357.676593,51.8912727 357.746222,51.8632045 357.826222,51.8632045 C357.903259,51.8632045 357.971407,51.8912727 358.027704,51.9474091 C358.084,52.0035455 358.112148,52.0788864 358.112148,52.1719545 C358.112148,52.2591136 358.084,52.3300227 358.027704,52.3876364 C357.971407,52.4437727 357.903259,52.4718409 357.826222,52.4718409 C357.746222,52.4718409 357.676593,52.4437727 357.620296,52.3876364 C357.564,52.3300227 357.535852,52.2591136 357.535852,52.1719545" id="Fill-52" fill="#CA2026" mask="url(#mask-2)"></path>
                <path d="M358.872593,51.7225682 C358.985185,51.8422273 359.118519,51.93825 359.272593,52.0106364 C359.425185,52.0830227 359.583704,52.1184773 359.74963,52.1184773 C359.958519,52.1184773 360.122963,52.0712045 360.24,51.9766591 C360.355556,51.8806364 360.413333,51.7565455 360.413333,51.6014318 C360.413333,51.5216591 360.4,51.4522273 360.373333,51.3960909 C360.345185,51.3399545 360.308148,51.2912045 360.260741,51.2513182 C360.213333,51.2114318 360.158519,51.1745 360.093333,51.142 C360.028148,51.1109773 359.958519,51.077 359.885926,51.0415455 L359.42963,50.8435909 C359.355556,50.8110909 359.278519,50.7726818 359.202963,50.7268864 C359.124444,50.6825682 359.054815,50.6279091 358.994074,50.5629091 C358.931852,50.4979091 358.882963,50.4225682 358.842963,50.3339318 C358.804444,50.2452955 358.785185,50.1433636 358.785185,50.0266591 C358.785185,49.907 358.81037,49.7962045 358.860741,49.6927955 C358.90963,49.5908636 358.979259,49.50075 359.06963,49.4254091 C359.157037,49.3500682 359.263704,49.2909773 359.383704,49.2496136 C359.505185,49.2067727 359.638519,49.1860909 359.783704,49.1860909 C359.973333,49.1860909 360.14963,49.2230227 360.312593,49.2939318 C360.472593,49.3677955 360.61037,49.4608636 360.722963,49.5775682 L360.506667,49.8390455 C360.408889,49.7445 360.302222,49.6721136 360.183704,49.6189318 C360.066667,49.56575 359.931852,49.5391591 359.783704,49.5391591 C359.605926,49.5391591 359.462222,49.5805227 359.354074,49.6617727 C359.247407,49.7445 359.192593,49.85825 359.192593,50.0030227 C359.192593,50.0798409 359.208889,50.1448409 359.238519,50.1980227 C359.26963,50.2512045 359.311111,50.2984773 359.361481,50.3383636 C359.413333,50.37825 359.46963,50.4137045 359.531852,50.4447273 C359.592593,50.47575 359.656296,50.5038182 359.72,50.5289318 L360.171852,50.7224545 C360.260741,50.7608636 360.346667,50.8051818 360.428148,50.8554091 C360.508148,50.9056364 360.577778,50.96325 360.635556,51.0297273 C360.693333,51.0962045 360.740741,51.1730227 360.774815,51.2616591 C360.808889,51.3502955 360.825185,51.4522273 360.825185,51.5689318 C360.825185,51.6930227 360.8,51.8112045 360.751111,51.9205227 C360.699259,52.0298409 360.62963,52.1258636 360.534815,52.2085909 C360.441481,52.2898409 360.327407,52.3548409 360.195556,52.4006364 C360.063704,52.4479091 359.912593,52.4715455 359.745185,52.4715455 C359.521481,52.4715455 359.315556,52.4301818 359.124444,52.3459773 C358.934815,52.2617727 358.77037,52.1480227 358.631111,52.00325 L358.872593,51.7225682 Z" id="Fill-53" fill="#CA2026" mask="url(#mask-2)"></path>
                <path d="M361.329185,52.1719545 C361.329185,52.0788864 361.357333,52.0035455 361.41363,51.9474091 C361.469926,51.8912727 361.539556,51.8632045 361.619556,51.8632045 C361.696593,51.8632045 361.764741,51.8912727 361.821037,51.9474091 C361.877333,52.0035455 361.905481,52.0788864 361.905481,52.1719545 C361.905481,52.2591136 361.877333,52.3300227 361.821037,52.3876364 C361.764741,52.4437727 361.696593,52.4718409 361.619556,52.4718409 C361.539556,52.4718409 361.469926,52.4437727 361.41363,52.3876364 C361.357333,52.3300227 361.329185,52.2591136 361.329185,52.1719545" id="Fill-54" fill="#CA2026" mask="url(#mask-2)"></path>
                <path d="M363.645481,51.7225682 C363.758074,51.8422273 363.891407,51.93825 364.045481,52.0106364 C364.198074,52.0830227 364.356593,52.1184773 364.522519,52.1184773 C364.731407,52.1184773 364.895852,52.0712045 365.012889,51.9766591 C365.128444,51.8806364 365.186222,51.7565455 365.186222,51.6014318 C365.186222,51.5216591 365.172889,51.4522273 365.146222,51.3960909 C365.118074,51.3399545 365.081037,51.2912045 365.03363,51.2513182 C364.986222,51.2114318 364.931407,51.1745 364.866222,51.142 C364.801037,51.1109773 364.731407,51.077 364.658815,51.0415455 L364.202519,50.8435909 C364.128444,50.8110909 364.051407,50.7726818 363.975852,50.7268864 C363.897333,50.6825682 363.827704,50.6279091 363.766963,50.5629091 C363.704741,50.4979091 363.655852,50.4225682 363.615852,50.3339318 C363.577333,50.2452955 363.558074,50.1433636 363.558074,50.0266591 C363.558074,49.907 363.583259,49.7962045 363.63363,49.6927955 C363.682519,49.5908636 363.752148,49.50075 363.842519,49.4254091 C363.929926,49.3500682 364.036593,49.2909773 364.156593,49.2496136 C364.278074,49.2067727 364.411407,49.1860909 364.556593,49.1860909 C364.746222,49.1860909 364.922519,49.2230227 365.085481,49.2939318 C365.245481,49.3677955 365.383259,49.4608636 365.495852,49.5775682 L365.279556,49.8390455 C365.181778,49.7445 365.075111,49.6721136 364.956593,49.6189318 C364.839556,49.56575 364.704741,49.5391591 364.556593,49.5391591 C364.378815,49.5391591 364.235111,49.5805227 364.126963,49.6617727 C364.020296,49.7445 363.965481,49.85825 363.965481,50.0030227 C363.965481,50.0798409 363.981778,50.1448409 364.011407,50.1980227 C364.042519,50.2512045 364.084,50.2984773 364.13437,50.3383636 C364.186222,50.37825 364.242519,50.4137045 364.304741,50.4447273 C364.365481,50.47575 364.429185,50.5038182 364.492889,50.5289318 L364.944741,50.7224545 C365.03363,50.7608636 365.119556,50.8051818 365.201037,50.8554091 C365.281037,50.9056364 365.350667,50.96325 365.408444,51.0297273 C365.466222,51.0962045 365.51363,51.1730227 365.547704,51.2616591 C365.581778,51.3502955 365.598074,51.4522273 365.598074,51.5689318 C365.598074,51.6930227 365.572889,51.8112045 365.524,51.9205227 C365.472148,52.0298409 365.402519,52.1258636 365.307704,52.2085909 C365.21437,52.2898409 365.100296,52.3548409 364.968444,52.4006364 C364.836593,52.4479091 364.685481,52.4715455 364.518074,52.4715455 C364.29437,52.4715455 364.088444,52.4301818 363.897333,52.3459773 C363.707704,52.2617727 363.543259,52.1480227 363.404,52.00325 L363.645481,51.7225682 Z" id="Fill-55" fill="#CA2026" mask="url(#mask-2)"></path>
                <path d="M366.184593,50.0656591 L366.513481,50.0656591 L366.547556,50.4039545 L366.56237,50.4039545 C366.664593,50.2902045 366.777185,50.1971364 366.898667,50.1217955 C367.018667,50.0449773 367.150519,50.0065682 367.294222,50.0065682 C367.474963,50.0065682 367.615704,50.0464545 367.717926,50.1262273 C367.820148,50.2045227 367.894222,50.3153182 367.943111,50.4571364 C368.066074,50.3212273 368.190519,50.2133864 368.313481,50.1306591 C368.437926,50.0479318 368.572741,50.0065682 368.717926,50.0065682 C368.960889,50.0065682 369.140148,50.0848636 369.258667,50.2399773 C369.375704,50.3936136 369.434963,50.6225909 369.434963,50.9254318 L369.434963,52.4130455 L369.037926,52.4130455 L369.037926,50.9786136 C369.037926,50.7570227 369.00237,50.596 368.931259,50.4970227 C368.860148,50.3995227 368.749037,50.3507727 368.60237,50.3507727 C368.424593,50.3507727 368.227556,50.4704318 368.009778,50.7127045 L368.009778,52.4130455 L367.614222,52.4130455 L367.614222,50.9786136 C367.614222,50.7570227 367.577185,50.596 367.507556,50.4970227 C367.436444,50.3995227 367.325333,50.3507727 367.172741,50.3507727 C366.994963,50.3507727 366.797926,50.4704318 366.58163,50.7127045 L366.58163,52.4130455 L366.184593,52.4130455 L366.184593,50.0656591 Z" id="Fill-56" fill="#CA2026" mask="url(#mask-2)"></path>
                <path d="M370.477037,51.7760455 C370.477037,51.9104773 370.515556,52.0079773 370.595556,52.0655909 C370.674074,52.1232045 370.771852,52.15275 370.887407,52.15275 C371.001481,52.15275 371.10963,52.1261591 371.21037,52.0729773 C371.311111,52.0197955 371.419259,51.9415 371.533333,51.8380909 L371.533333,51.1866136 C371.334815,51.2117273 371.168889,51.24275 371.034074,51.2782045 C370.897778,51.3136591 370.78963,51.3550227 370.706667,51.4037727 C370.625185,51.4525227 370.565926,51.5071818 370.528889,51.5707045 C370.494815,51.63275 370.477037,51.7021818 370.477037,51.7760455 M370.082963,51.8055909 C370.082963,51.5470682 370.2,51.3491136 370.431111,51.2132045 C370.660741,51.0758182 371.028148,50.9797955 371.533333,50.9251364 C371.533333,50.8512727 371.525926,50.7788864 371.511111,50.7079773 C371.496296,50.6370682 371.471111,50.5750227 371.434074,50.5188864 C371.395556,50.4642273 371.346667,50.4213864 371.285926,50.3874091 C371.223704,50.3534318 371.145185,50.3357045 371.048889,50.3357045 C370.90963,50.3357045 370.780741,50.3622955 370.662222,50.414 C370.545185,50.4642273 370.44,50.5233182 370.345185,50.5868409 L370.186667,50.3120682 C370.294815,50.2411591 370.42963,50.1732045 370.588148,50.1067273 C370.746667,50.04025 370.92,50.00775 371.111111,50.00775 C371.398519,50.00775 371.607407,50.0949091 371.736296,50.2707045 C371.865185,50.4465 371.928889,50.6813864 371.928889,50.9738864 L371.928889,52.4142273 L371.601481,52.4142273 L371.565926,52.1335455 L371.557037,52.1335455 C371.442963,52.2266136 371.321481,52.3063864 371.191111,52.3728636 C371.060741,52.4393409 370.922963,52.4718409 370.776296,52.4718409 C370.576296,52.4718409 370.41037,52.4142273 370.28,52.2975227 C370.148148,52.1808182 370.082963,52.0183182 370.082963,51.8055909" id="Fill-57" fill="#CA2026" mask="url(#mask-2)"></path>
                <path d="M372.681926,48.9736591 L373.078963,48.9736591 L373.078963,51.9695682 C373.078963,52.0330909 373.089333,52.0788864 373.113037,52.104 C373.135259,52.1305909 373.160444,52.1438864 373.190074,52.1438864 L373.22563,52.1438864 C373.237481,52.1438864 373.255259,52.1409318 373.277481,52.1335455 L373.329333,52.4334318 C373.30563,52.4467273 373.273037,52.4555909 373.238963,52.4615 C373.203407,52.4688864 373.157481,52.4718409 373.102667,52.4718409 C372.951556,52.4718409 372.841926,52.4260455 372.778222,52.3359318 C372.713037,52.2458182 372.681926,52.1143409 372.681926,51.9400227 L372.681926,48.9736591 Z" id="Fill-58" fill="#CA2026" mask="url(#mask-2)"></path>
                <path d="M373.917481,48.9736591 L374.314519,48.9736591 L374.314519,51.9695682 C374.314519,52.0330909 374.324889,52.0788864 374.348593,52.104 C374.370815,52.1305909 374.396,52.1438864 374.42563,52.1438864 L374.461185,52.1438864 C374.473037,52.1438864 374.490815,52.1409318 374.513037,52.1335455 L374.564889,52.4334318 C374.541185,52.4467273 374.508593,52.4555909 374.474519,52.4615 C374.438963,52.4688864 374.393037,52.4718409 374.338222,52.4718409 C374.187111,52.4718409 374.077481,52.4260455 374.013778,52.3359318 C373.948593,52.2458182 373.917481,52.1143409 373.917481,51.9400227 L373.917481,48.9736591 Z" id="Fill-59" fill="#CA2026" mask="url(#mask-2)"></path>
                <path d="M377.124889,52.0948409 C377.400444,52.0948409 377.612296,52.0446136 377.764889,51.9426818 C377.916,51.84075 377.993037,51.6826818 377.993037,51.467 C377.993037,51.2705227 377.917481,51.12575 377.770815,51.0341591 C377.621185,50.9425682 377.404889,50.8967727 377.124889,50.8967727 L376.572296,50.8967727 L376.572296,52.0948409 L377.124889,52.0948409 Z M377.041926,50.5968864 C377.317481,50.5968864 377.514519,50.5510909 377.631556,50.4565455 C377.750074,50.3634773 377.807852,50.2275682 377.807852,50.0517727 C377.807852,49.8774545 377.74563,49.7518864 377.621185,49.6765455 C377.496741,49.6012045 377.311556,49.5627955 377.062667,49.5627955 L376.572296,49.5627955 L376.572296,50.5968864 L377.041926,50.5968864 Z M376.169333,49.2437045 L377.114519,49.2437045 C377.277481,49.2437045 377.424148,49.2584773 377.558963,49.2880227 C377.693778,49.3160909 377.807852,49.3618864 377.902667,49.4224545 C377.998963,49.4845 378.073037,49.5642727 378.12637,49.6617727 C378.179704,49.76075 378.204889,49.8789318 378.204889,50.0177955 C378.204889,50.1758636 378.160444,50.3176818 378.070074,50.4447273 C377.979704,50.5717727 377.840444,50.6604091 377.652296,50.7091591 L377.652296,50.7268864 C377.88637,50.7638182 378.067111,50.8435909 378.196,50.9691591 C378.32637,51.0947273 378.390074,51.2660909 378.390074,51.4862045 C378.390074,51.6398409 378.360444,51.77575 378.302667,51.8924545 C378.244889,52.0076818 378.161926,52.1037045 378.055259,52.182 C377.950074,52.2588182 377.821185,52.3164318 377.673037,52.3563182 C377.524889,52.3947273 377.360444,52.4139318 377.182667,52.4139318 L376.169333,52.4139318 L376.169333,49.2437045 Z" id="Fill-60" fill="#CA2026" mask="url(#mask-2)"></path>
                <path d="M378.94637,50.0656591 L379.347852,50.0656591 L379.347852,51.5000909 C379.347852,51.7231591 379.383407,51.8827045 379.453037,51.9816818 C379.522667,52.0791818 379.635259,52.1279318 379.789333,52.1279318 C379.912296,52.1279318 380.021926,52.0969091 380.113778,52.0348636 C380.208593,51.9713409 380.310815,51.8708864 380.424889,51.7320227 L380.424889,50.0656591 L380.821926,50.0656591 L380.821926,52.4130455 L380.493037,52.4130455 L380.458963,52.0466818 L380.444148,52.0466818 C380.334519,52.1752045 380.217481,52.2786136 380.097481,52.3554318 C379.976,52.4337273 379.833778,52.4706591 379.667852,52.4706591 C379.416,52.4706591 379.232296,52.3938409 379.118222,52.2402045 C379.004148,52.0850909 378.94637,51.8561136 378.94637,51.5532727 L378.94637,50.0656591 Z" id="Fill-61" fill="#CA2026" mask="url(#mask-2)"></path>
                <path d="M381.553481,51.8819659 C381.657185,51.9661705 381.763852,52.034125 381.870519,52.0858295 C381.978667,52.1360568 382.104593,52.1626477 382.246815,52.1626477 C382.400889,52.1626477 382.517926,52.1271932 382.594963,52.0562841 C382.673481,51.985375 382.712,51.8982159 382.712,51.7948068 C382.712,51.7342386 382.695704,51.6810568 382.663111,51.6352614 C382.632,51.5909432 382.589037,51.5510568 382.540148,51.5170795 C382.489778,51.4831023 382.432,51.4535568 382.368296,51.4284432 C382.303111,51.4018523 382.237926,51.3767386 382.174222,51.3501477 C382.089778,51.3220795 382.006815,51.2881023 381.92237,51.2511705 C381.837926,51.2142386 381.763852,51.1699205 381.697185,51.1167386 C381.630519,51.0635568 381.577185,51.0015114 381.534222,50.9306023 C381.492741,50.8596932 381.470519,50.7740114 381.470519,50.6750341 C381.470519,50.5804886 381.489778,50.4933295 381.526815,50.4106023 C381.563852,50.3293523 381.617185,50.2584432 381.686815,50.197875 C381.756444,50.1387841 381.840889,50.0929886 381.94163,50.0590114 C382.040889,50.0250341 382.153481,50.0073068 382.279407,50.0073068 C382.429037,50.0073068 382.565333,50.0338977 382.689778,50.084125 C382.814222,50.1358295 382.92237,50.1993523 383.011259,50.2732159 L382.823111,50.5243523 C382.743111,50.4637841 382.658667,50.4135568 382.571259,50.3736705 C382.483852,50.3367386 382.387556,50.3160568 382.285333,50.3160568 C382.137185,50.3160568 382.027556,50.3500341 381.957926,50.4179886 C381.889778,50.4859432 381.854222,50.5642386 381.854222,50.6543523 C381.854222,50.7104886 381.869037,50.7577614 381.897185,50.7976477 C381.926815,50.8375341 381.965333,50.8729886 382.014222,50.9040114 C382.063111,50.9335568 382.117926,50.961625 382.18163,50.9867386 C382.243852,51.010375 382.310519,51.0354886 382.377185,51.0606023 C382.460148,51.0931023 382.546074,51.1270795 382.632,51.1625341 C382.716444,51.1979886 382.793481,51.2423068 382.86163,51.2954886 C382.929778,51.3486705 382.986074,51.4136705 383.029037,51.4904886 C383.072,51.5687841 383.094222,51.6618523 383.094222,51.7711705 C383.094222,51.8671932 383.074963,51.9573068 383.039407,52.0415114 C383.00237,52.1257159 382.946074,52.1995795 382.874963,52.2631023 C382.800889,52.3281023 382.710519,52.3783295 382.60237,52.4152614 C382.494222,52.4536705 382.371259,52.4713977 382.232,52.4713977 C382.064593,52.4713977 381.903111,52.440375 381.752,52.3798068 C381.599407,52.3177614 381.467556,52.2409432 381.354963,52.147875 L381.553481,51.8819659 Z" id="Fill-62" fill="#CA2026" mask="url(#mask-2)"></path>
                <path d="M383.647407,52.4137841 L384.044444,52.4137841 L384.044444,50.0663977 L383.647407,50.0663977 L383.647407,52.4137841 Z M383.848889,49.5818523 C383.773333,49.5818523 383.706667,49.5582159 383.654815,49.5094659 C383.6,49.4607159 383.573333,49.4001477 383.573333,49.3262841 C383.573333,49.2494659 383.6,49.1874205 383.654815,49.1401477 C383.706667,49.092875 383.773333,49.0707159 383.848889,49.0707159 C383.927407,49.0707159 383.992593,49.092875 384.045926,49.1401477 C384.099259,49.1874205 384.125926,49.2494659 384.125926,49.3262841 C384.125926,49.4001477 384.099259,49.4607159 384.045926,49.5094659 C383.992593,49.5582159 383.927407,49.5818523 383.848889,49.5818523 Z" id="Fill-63" fill="#CA2026" mask="url(#mask-2)"></path>
                <path d="M384.839111,50.0656591 L385.168,50.0656591 L385.202074,50.4039545 L385.216889,50.4039545 C385.329481,50.2902045 385.448,50.1971364 385.572444,50.1217955 C385.696889,50.0449773 385.842074,50.0065682 386.006519,50.0065682 C386.255407,50.0065682 386.436148,50.0848636 386.551704,50.2399773 C386.665778,50.3936136 386.722074,50.6225909 386.722074,50.9254318 L386.722074,52.4130455 L386.326519,52.4130455 L386.326519,50.9786136 C386.326519,50.7570227 386.289481,50.596 386.219852,50.4970227 C386.148741,50.3995227 386.036148,50.3507727 385.880593,50.3507727 C385.75763,50.3507727 385.649481,50.3803182 385.554667,50.4423636 C385.462815,50.5029318 385.356148,50.5930455 385.236148,50.7127045 L385.236148,52.4130455 L384.839111,52.4130455 L384.839111,50.0656591 Z" id="Fill-64" fill="#CA2026" mask="url(#mask-2)"></path>
                <path d="M388.96237,51.0654773 C388.96237,50.8232045 388.912,50.6400227 388.808296,50.5115 C388.707556,50.3859318 388.563852,50.3224091 388.380148,50.3224091 C388.297185,50.3224091 388.217185,50.3386591 388.140148,50.3726364 C388.066074,50.4066136 387.996444,50.4538864 387.935704,50.5174091 C387.873481,50.5794545 387.82163,50.65775 387.78163,50.7493409 C387.74163,50.8409318 387.714963,50.9458182 387.70163,51.0654773 L388.96237,51.0654773 Z M387.314963,51.2442273 C387.314963,51.0507045 387.344593,50.8778636 387.403852,50.7257045 C387.463111,50.5720682 387.543111,50.4420682 387.640889,50.3357045 C387.740148,50.2293409 387.852741,50.1480909 387.978667,50.0919545 C388.104593,50.0358182 388.234963,50.00775 388.371259,50.00775 C388.519407,50.00775 388.652741,50.0328636 388.769778,50.0845682 C388.888296,50.1362727 388.987556,50.2101364 389.066074,50.3076364 C389.144593,50.4036591 389.205333,50.5188864 389.246815,50.6547955 C389.289778,50.7892273 389.310519,50.9413864 389.310519,51.1083182 C389.310519,51.1954773 389.306074,51.2693409 389.297185,51.3269545 L387.706074,51.3269545 C387.72237,51.5810455 387.80237,51.7819545 387.943111,51.9296818 C388.08237,52.0788864 388.266074,52.15275 388.492741,52.15275 C388.605333,52.15275 388.709037,52.1365 388.805333,52.1025227 C388.900148,52.0685455 388.992,52.0242273 389.077926,51.9695682 L389.218667,52.2295682 C389.116444,52.2945682 389.000889,52.3507045 388.873481,52.3994545 C388.747556,52.4482045 388.605333,52.4718409 388.44237,52.4718409 C388.285333,52.4718409 388.137185,52.4437727 388.000889,52.3876364 C387.863111,52.3300227 387.743111,52.25025 387.640889,52.1453636 C387.540148,52.0404773 387.460148,51.9134318 387.400889,51.7612727 C387.343111,51.6105909 387.314963,51.43775 387.314963,51.2442273 Z" id="Fill-65" fill="#CA2026" mask="url(#mask-2)"></path>
                <path d="M389.828889,51.8819659 C389.932593,51.9661705 390.039259,52.034125 390.145926,52.0858295 C390.254074,52.1360568 390.38,52.1626477 390.522222,52.1626477 C390.676296,52.1626477 390.793333,52.1271932 390.87037,52.0562841 C390.948889,51.985375 390.987407,51.8982159 390.987407,51.7948068 C390.987407,51.7342386 390.971111,51.6810568 390.938519,51.6352614 C390.907407,51.5909432 390.864444,51.5510568 390.815556,51.5170795 C390.765185,51.4831023 390.707407,51.4535568 390.643704,51.4284432 C390.578519,51.4018523 390.513333,51.3767386 390.44963,51.3501477 C390.365185,51.3220795 390.282222,51.2881023 390.197778,51.2511705 C390.113333,51.2142386 390.039259,51.1699205 389.972593,51.1167386 C389.905926,51.0635568 389.852593,51.0015114 389.80963,50.9306023 C389.768148,50.8596932 389.745926,50.7740114 389.745926,50.6750341 C389.745926,50.5804886 389.765185,50.4933295 389.802222,50.4106023 C389.839259,50.3293523 389.892593,50.2584432 389.962222,50.197875 C390.031852,50.1387841 390.116296,50.0929886 390.217037,50.0590114 C390.316296,50.0250341 390.428889,50.0073068 390.554815,50.0073068 C390.704444,50.0073068 390.840741,50.0338977 390.965185,50.084125 C391.08963,50.1358295 391.197778,50.1993523 391.286667,50.2732159 L391.098519,50.5243523 C391.018519,50.4637841 390.934074,50.4135568 390.846667,50.3736705 C390.759259,50.3367386 390.662963,50.3160568 390.560741,50.3160568 C390.412593,50.3160568 390.302963,50.3500341 390.233333,50.4179886 C390.165185,50.4859432 390.12963,50.5642386 390.12963,50.6543523 C390.12963,50.7104886 390.144444,50.7577614 390.172593,50.7976477 C390.202222,50.8375341 390.240741,50.8729886 390.28963,50.9040114 C390.338519,50.9335568 390.393333,50.961625 390.457037,50.9867386 C390.519259,51.010375 390.585926,51.0354886 390.652593,51.0606023 C390.735556,51.0931023 390.821481,51.1270795 390.907407,51.1625341 C390.991852,51.1979886 391.068889,51.2423068 391.137037,51.2954886 C391.205185,51.3486705 391.261481,51.4136705 391.304444,51.4904886 C391.347407,51.5687841 391.36963,51.6618523 391.36963,51.7711705 C391.36963,51.8671932 391.35037,51.9573068 391.314815,52.0415114 C391.277778,52.1257159 391.221481,52.1995795 391.15037,52.2631023 C391.076296,52.3281023 390.985926,52.3783295 390.877778,52.4152614 C390.76963,52.4536705 390.646667,52.4713977 390.507407,52.4713977 C390.34,52.4713977 390.178519,52.440375 390.027407,52.3798068 C389.874815,52.3177614 389.742963,52.2409432 389.63037,52.147875 L389.828889,51.8819659 Z" id="Fill-66" fill="#CA2026" mask="url(#mask-2)"></path>
                <path d="M391.858667,51.8819659 C391.96237,51.9661705 392.069037,52.034125 392.175704,52.0858295 C392.283852,52.1360568 392.409778,52.1626477 392.552,52.1626477 C392.706074,52.1626477 392.823111,52.1271932 392.900148,52.0562841 C392.978667,51.985375 393.017185,51.8982159 393.017185,51.7948068 C393.017185,51.7342386 393.000889,51.6810568 392.968296,51.6352614 C392.937185,51.5909432 392.894222,51.5510568 392.845333,51.5170795 C392.794963,51.4831023 392.737185,51.4535568 392.673481,51.4284432 C392.608296,51.4018523 392.543111,51.3767386 392.479407,51.3501477 C392.394963,51.3220795 392.312,51.2881023 392.227556,51.2511705 C392.143111,51.2142386 392.069037,51.1699205 392.00237,51.1167386 C391.935704,51.0635568 391.88237,51.0015114 391.839407,50.9306023 C391.797926,50.8596932 391.775704,50.7740114 391.775704,50.6750341 C391.775704,50.5804886 391.794963,50.4933295 391.832,50.4106023 C391.869037,50.3293523 391.92237,50.2584432 391.992,50.197875 C392.06163,50.1387841 392.146074,50.0929886 392.246815,50.0590114 C392.346074,50.0250341 392.458667,50.0073068 392.584593,50.0073068 C392.734222,50.0073068 392.870519,50.0338977 392.994963,50.084125 C393.119407,50.1358295 393.227556,50.1993523 393.316444,50.2732159 L393.128296,50.5243523 C393.048296,50.4637841 392.963852,50.4135568 392.876444,50.3736705 C392.789037,50.3367386 392.692741,50.3160568 392.590519,50.3160568 C392.44237,50.3160568 392.332741,50.3500341 392.263111,50.4179886 C392.194963,50.4859432 392.159407,50.5642386 392.159407,50.6543523 C392.159407,50.7104886 392.174222,50.7577614 392.20237,50.7976477 C392.232,50.8375341 392.270519,50.8729886 392.319407,50.9040114 C392.368296,50.9335568 392.423111,50.961625 392.486815,50.9867386 C392.549037,51.010375 392.615704,51.0354886 392.68237,51.0606023 C392.765333,51.0931023 392.851259,51.1270795 392.937185,51.1625341 C393.02163,51.1979886 393.098667,51.2423068 393.166815,51.2954886 C393.234963,51.3486705 393.291259,51.4136705 393.334222,51.4904886 C393.377185,51.5687841 393.399407,51.6618523 393.399407,51.7711705 C393.399407,51.8671932 393.380148,51.9573068 393.344593,52.0415114 C393.307556,52.1257159 393.251259,52.1995795 393.180148,52.2631023 C393.106074,52.3281023 393.015704,52.3783295 392.907556,52.4152614 C392.799407,52.4536705 392.676444,52.4713977 392.537185,52.4713977 C392.369778,52.4713977 392.208296,52.440375 392.057185,52.3798068 C391.904593,52.3177614 391.772741,52.2409432 391.660148,52.147875 L391.858667,51.8819659 Z" id="Fill-67" fill="#CA2026" mask="url(#mask-2)"></path>
                <path d="M360.623259,56.9219773 L360.472148,56.4389091 C360.41437,56.2616364 360.359556,56.0858409 360.307704,55.9085682 C360.255852,55.73425 360.205481,55.5540227 360.15363,55.3708409 L360.13437,55.3708409 C360.085481,55.5540227 360.035111,55.73425 359.983259,55.9085682 C359.931407,56.0858409 359.876593,56.2616364 359.818815,56.4389091 L359.667704,56.9219773 L360.623259,56.9219773 Z M360.724,57.2455 L359.566963,57.2455 L359.261778,58.2116364 L358.849926,58.2116364 L359.925481,55.0428864 L360.380296,55.0428864 L361.455852,58.2116364 L361.024741,58.2116364 L360.724,57.2455 Z" id="Fill-68" fill="#CA2026" mask="url(#mask-2)"></path>
                <path d="M362.110519,57.0373523 C362.110519,57.3209886 362.166815,57.5411023 362.279407,57.6991705 C362.392,57.8572386 362.553481,57.9355341 362.759407,57.9355341 C362.870519,57.9355341 362.972741,57.9089432 363.069037,57.8572386 C363.166815,57.8040568 363.263111,57.7213295 363.360889,57.6120114 L363.360889,56.385875 C363.260148,56.2957614 363.165333,56.2322386 363.072,56.1953068 C362.980148,56.1568977 362.885333,56.1391705 362.789037,56.1391705 C362.695704,56.1391705 362.606815,56.1613295 362.523852,56.2041705 C362.44237,56.2470114 362.371259,56.3090568 362.309037,56.3873523 C362.248296,56.467125 362.199407,56.5616705 362.163852,56.6695114 C362.128296,56.7803068 362.110519,56.9029205 362.110519,57.0373523 M361.698667,57.0417841 C361.698667,56.8526932 361.726815,56.6813295 361.783111,56.5276932 C361.839407,56.3755341 361.914963,56.2455341 362.009778,56.1391705 C362.10163,56.0328068 362.209778,55.9500795 362.332741,55.8924659 C362.455704,55.8348523 362.584593,55.8053068 362.720889,55.8053068 C362.857185,55.8053068 362.974222,55.8304205 363.074963,55.8776932 C363.175704,55.9264432 363.276444,55.9914432 363.380148,56.0756477 L363.360889,55.6753068 L363.360889,54.7712159 L363.76237,54.7712159 L363.76237,58.2117841 L363.433481,58.2117841 L363.399407,57.9355341 L363.384593,57.9355341 C363.291259,58.0256477 363.184593,58.1054205 363.063111,58.1704205 C362.94163,58.2368977 362.812741,58.2693977 362.673481,58.2693977 C362.375704,58.2693977 362.140148,58.1630341 361.96237,57.9503068 C361.786074,57.7390568 361.698667,57.4362159 361.698667,57.0417841" id="Fill-69" fill="#CA2026" mask="url(#mask-2)"></path>
                <path d="M364.55837,55.8636591 L364.887259,55.8636591 L364.921333,56.2019545 L364.936148,56.2019545 C365.03837,56.0882045 365.150963,55.9951364 365.272444,55.9197955 C365.392444,55.8429773 365.524296,55.8045682 365.668,55.8045682 C365.848741,55.8045682 365.989481,55.8444545 366.091704,55.9242273 C366.193926,56.0025227 366.268,56.1133182 366.316889,56.2551364 C366.439852,56.1192273 366.564296,56.0113864 366.687259,55.9286591 C366.811704,55.8459318 366.946519,55.8045682 367.091704,55.8045682 C367.334667,55.8045682 367.513926,55.8828636 367.632444,56.0379773 C367.749481,56.1916136 367.808741,56.4205909 367.808741,56.7234318 L367.808741,58.2110455 L367.411704,58.2110455 L367.411704,56.7766136 C367.411704,56.5550227 367.376148,56.394 367.305037,56.2950227 C367.233926,56.1975227 367.122815,56.1487727 366.976148,56.1487727 C366.79837,56.1487727 366.601333,56.2684318 366.383556,56.5107045 L366.383556,58.2110455 L365.988,58.2110455 L365.988,56.7766136 C365.988,56.5550227 365.950963,56.394 365.881333,56.2950227 C365.810222,56.1975227 365.699111,56.1487727 365.546519,56.1487727 C365.368741,56.1487727 365.171704,56.2684318 364.955407,56.5107045 L364.955407,58.2110455 L364.55837,58.2110455 L364.55837,55.8636591 Z" id="Fill-70" fill="#CA2026" mask="url(#mask-2)"></path>
                <path d="M368.574815,58.2106023 L368.971852,58.2106023 L368.971852,55.8632159 L368.574815,55.8632159 L368.574815,58.2106023 Z M368.777778,55.3801477 C368.700741,55.3801477 368.634074,55.3565114 368.582222,55.3077614 C368.528889,55.2590114 368.500741,55.1984432 368.500741,55.1245795 C368.500741,55.0477614 368.528889,54.9857159 368.582222,54.9384432 C368.634074,54.8911705 368.700741,54.8690114 368.777778,54.8690114 C368.854815,54.8690114 368.92,54.8911705 368.973333,54.9384432 C369.028148,54.9857159 369.053333,55.0477614 369.053333,55.1245795 C369.053333,55.1984432 369.028148,55.2590114 368.973333,55.3077614 C368.92,55.3565114 368.854815,55.3801477 368.777778,55.3801477 Z" id="Fill-71" fill="#CA2026" mask="url(#mask-2)"></path>
                <path d="M369.766667,55.8636591 L370.095556,55.8636591 L370.12963,56.2019545 L370.144444,56.2019545 C370.257037,56.0882045 370.375556,55.9951364 370.5,55.9197955 C370.624444,55.8429773 370.76963,55.8045682 370.934074,55.8045682 C371.182963,55.8045682 371.363704,55.8828636 371.479259,56.0379773 C371.593333,56.1916136 371.64963,56.4205909 371.64963,56.7234318 L371.64963,58.2110455 L371.254074,58.2110455 L371.254074,56.7766136 C371.254074,56.5550227 371.217037,56.394 371.147407,56.2950227 C371.076296,56.1975227 370.963704,56.1487727 370.808148,56.1487727 C370.685185,56.1487727 370.577037,56.1783182 370.482222,56.2403636 C370.39037,56.3009318 370.283704,56.3910455 370.163704,56.5107045 L370.163704,58.2110455 L369.766667,58.2110455 L369.766667,55.8636591 Z" id="Fill-72" fill="#CA2026" mask="url(#mask-2)"></path>
                <path d="M372.417778,58.2106023 L372.814815,58.2106023 L372.814815,55.8632159 L372.417778,55.8632159 L372.417778,58.2106023 Z M372.619259,55.3801477 C372.543704,55.3801477 372.477037,55.3565114 372.423704,55.3077614 C372.37037,55.2590114 372.343704,55.1984432 372.343704,55.1245795 C372.343704,55.0477614 372.37037,54.9857159 372.423704,54.9384432 C372.477037,54.8911705 372.543704,54.8690114 372.619259,54.8690114 C372.697778,54.8690114 372.762963,54.8911705 372.816296,54.9384432 C372.86963,54.9857159 372.896296,55.0477614 372.896296,55.1245795 C372.896296,55.1984432 372.86963,55.2590114 372.816296,55.3077614 C372.762963,55.3565114 372.697778,55.3801477 372.619259,55.3801477 Z" id="Fill-73" fill="#CA2026" mask="url(#mask-2)"></path>
                <path d="M373.544148,57.6799659 C373.647852,57.7641705 373.754519,57.832125 373.861185,57.8838295 C373.969333,57.9340568 374.095259,57.9606477 374.237481,57.9606477 C374.391556,57.9606477 374.508593,57.9251932 374.58563,57.8542841 C374.664148,57.783375 374.702667,57.6962159 374.702667,57.5928068 C374.702667,57.5322386 374.68637,57.4790568 374.653778,57.4332614 C374.622667,57.3889432 374.579704,57.3490568 374.530815,57.3150795 C374.480444,57.2811023 374.422667,57.2515568 374.358963,57.2264432 C374.293778,57.1998523 374.228593,57.1747386 374.164889,57.1481477 C374.080444,57.1200795 373.997481,57.0861023 373.913037,57.0491705 C373.828593,57.0122386 373.754519,56.9679205 373.687852,56.9147386 C373.621185,56.8615568 373.567852,56.7995114 373.524889,56.7286023 C373.483407,56.6576932 373.461185,56.5720114 373.461185,56.4730341 C373.461185,56.3784886 373.480444,56.2913295 373.517481,56.2086023 C373.554519,56.1273523 373.607852,56.0564432 373.677481,55.995875 C373.747111,55.9367841 373.831556,55.8909886 373.932296,55.8570114 C374.031556,55.8230341 374.144148,55.8053068 374.270074,55.8053068 C374.419704,55.8053068 374.556,55.8318977 374.680444,55.882125 C374.804889,55.9338295 374.913037,55.9973523 375.001926,56.0712159 L374.813778,56.3223523 C374.733778,56.2617841 374.649333,56.2115568 374.561926,56.1716705 C374.474519,56.1347386 374.378222,56.1140568 374.276,56.1140568 C374.127852,56.1140568 374.018222,56.1480341 373.948593,56.2159886 C373.880444,56.2839432 373.844889,56.3622386 373.844889,56.4523523 C373.844889,56.5084886 373.859704,56.5557614 373.887852,56.5956477 C373.917481,56.6355341 373.956,56.6709886 374.004889,56.7020114 C374.053778,56.7315568 374.108593,56.759625 374.172296,56.7847386 C374.234519,56.808375 374.301185,56.8334886 374.367852,56.8586023 C374.450815,56.8911023 374.536741,56.9250795 374.622667,56.9605341 C374.707111,56.9959886 374.784148,57.0403068 374.852296,57.0934886 C374.920444,57.1466705 374.976741,57.2116705 375.019704,57.2884886 C375.062667,57.3667841 375.084889,57.4598523 375.084889,57.5691705 C375.084889,57.6651932 375.06563,57.7553068 375.030074,57.8395114 C374.993037,57.9237159 374.936741,57.9975795 374.86563,58.0611023 C374.791556,58.1261023 374.701185,58.1763295 374.593037,58.2132614 C374.484889,58.2516705 374.361926,58.2693977 374.222667,58.2693977 C374.055259,58.2693977 373.893778,58.238375 373.742667,58.1778068 C373.590074,58.1157614 373.458222,58.0389432 373.34563,57.945875 L373.544148,57.6799659 Z" id="Fill-74" fill="#CA2026" mask="url(#mask-2)"></path>
                <path d="M375.618815,56.1868864 L375.269185,56.1868864 L375.269185,55.887 L375.638074,55.8633636 L375.685481,55.2059773 L376.020296,55.2059773 L376.020296,55.8633636 L376.65437,55.8633636 L376.65437,56.1868864 L376.020296,56.1868864 L376.020296,57.4913182 C376.020296,57.6360909 376.046963,57.7483636 376.100296,57.8266591 C376.15363,57.9064318 376.248444,57.9463182 376.384741,57.9463182 C376.426222,57.9463182 376.470667,57.9404091 376.518074,57.9271136 C376.568444,57.9138182 376.611407,57.8990455 376.649926,57.8827955 L376.726963,58.1826818 C376.663259,58.2048409 376.592148,58.2255227 376.516593,58.24325 C376.441037,58.2609773 376.365481,58.2698409 376.291407,58.2698409 C376.165481,58.2698409 376.060296,58.2506364 375.97437,58.2122273 C375.888444,58.1723409 375.820296,58.1206364 375.766963,58.0526818 C375.712148,57.9847273 375.675111,57.902 375.651407,57.8059773 C375.629185,57.7084773 375.618815,57.6021136 375.618815,57.4868864 L375.618815,56.1868864 Z" id="Fill-75" fill="#CA2026" mask="url(#mask-2)"></path>
                <path d="M377.184296,55.8636591 L377.513185,55.8636591 L377.547259,56.2891136 L377.562074,56.2891136 C377.643556,56.1399091 377.739852,56.0232045 377.853926,55.9360455 C377.969481,55.8488864 378.093926,55.8045682 378.230222,55.8045682 C378.325037,55.8045682 378.408,55.8222955 378.482074,55.8533182 L378.405037,56.2019545 C378.366519,56.1886591 378.329481,56.1783182 378.29837,56.1724091 C378.265778,56.1665 378.225778,56.1635455 378.176889,56.1635455 C378.07763,56.1635455 377.972444,56.2034318 377.864296,56.2832045 C377.756148,56.3644545 377.661333,56.5047955 377.581333,56.7042273 L377.581333,58.2110455 L377.184296,58.2110455 L377.184296,55.8636591 Z" id="Fill-76" fill="#CA2026" mask="url(#mask-2)"></path>
                <path d="M379.03037,57.5740455 C379.03037,57.7084773 379.068889,57.8059773 379.148889,57.8635909 C379.227407,57.9212045 379.325185,57.95075 379.440741,57.95075 C379.554815,57.95075 379.662963,57.9241591 379.763704,57.8709773 C379.864444,57.8177955 379.972593,57.7395 380.086667,57.6360909 L380.086667,56.9846136 C379.888148,57.0097273 379.722222,57.04075 379.587407,57.0762045 C379.451111,57.1116591 379.342963,57.1530227 379.26,57.2017727 C379.178519,57.2505227 379.119259,57.3051818 379.082222,57.3687045 C379.048148,57.43075 379.03037,57.5001818 379.03037,57.5740455 M378.636296,57.6035909 C378.636296,57.3450682 378.753333,57.1471136 378.984444,57.0112045 C379.214074,56.8738182 379.581481,56.7777955 380.086667,56.7231364 C380.086667,56.6492727 380.079259,56.5768864 380.064444,56.5059773 C380.04963,56.4350682 380.024444,56.3730227 379.987407,56.3168864 C379.948889,56.2622273 379.9,56.2193864 379.839259,56.1854091 C379.777037,56.1514318 379.698519,56.1337045 379.602222,56.1337045 C379.462963,56.1337045 379.334074,56.1602955 379.215556,56.212 C379.098519,56.2622273 378.993333,56.3213182 378.898519,56.3848409 L378.74,56.1100682 C378.848148,56.0391591 378.982963,55.9712045 379.141481,55.9047273 C379.3,55.83825 379.473333,55.80575 379.664444,55.80575 C379.951852,55.80575 380.160741,55.8929091 380.28963,56.0687045 C380.418519,56.2445 380.482222,56.4793864 380.482222,56.7718864 L380.482222,58.2122273 L380.154815,58.2122273 L380.119259,57.9315455 L380.11037,57.9315455 C379.996296,58.0246136 379.874815,58.1043864 379.744444,58.1708636 C379.614074,58.2373409 379.476296,58.2698409 379.32963,58.2698409 C379.12963,58.2698409 378.963704,58.2122273 378.833333,58.0955227 C378.701481,57.9788182 378.636296,57.8163182 378.636296,57.6035909" id="Fill-77" fill="#CA2026" mask="url(#mask-2)"></path>
                <path d="M381.191704,56.1868864 L380.842074,56.1868864 L380.842074,55.887 L381.210963,55.8633636 L381.25837,55.2059773 L381.593185,55.2059773 L381.593185,55.8633636 L382.227259,55.8633636 L382.227259,56.1868864 L381.593185,56.1868864 L381.593185,57.4913182 C381.593185,57.6360909 381.619852,57.7483636 381.673185,57.8266591 C381.726519,57.9064318 381.821333,57.9463182 381.95763,57.9463182 C381.999111,57.9463182 382.043556,57.9404091 382.090963,57.9271136 C382.141333,57.9138182 382.184296,57.8990455 382.222815,57.8827955 L382.299852,58.1826818 C382.236148,58.2048409 382.165037,58.2255227 382.089481,58.24325 C382.013926,58.2609773 381.93837,58.2698409 381.864296,58.2698409 C381.73837,58.2698409 381.633185,58.2506364 381.547259,58.2122273 C381.461333,58.1723409 381.393185,58.1206364 381.339852,58.0526818 C381.285037,57.9847273 381.248,57.902 381.224296,57.8059773 C381.202074,57.7084773 381.191704,57.6021136 381.191704,57.4868864 L381.191704,56.1868864 Z" id="Fill-78" fill="#CA2026" mask="url(#mask-2)"></path>
                <path d="M382.761481,58.2106023 L383.158519,58.2106023 L383.158519,55.8632159 L382.761481,55.8632159 L382.761481,58.2106023 Z M382.964444,55.3801477 C382.887407,55.3801477 382.820741,55.3565114 382.768889,55.3077614 C382.715556,55.2590114 382.687407,55.1984432 382.687407,55.1245795 C382.687407,55.0477614 382.715556,54.9857159 382.768889,54.9384432 C382.820741,54.8911705 382.887407,54.8690114 382.964444,54.8690114 C383.041481,54.8690114 383.106667,54.8911705 383.161481,54.9384432 C383.214815,54.9857159 383.24,55.0477614 383.24,55.1245795 C383.24,55.1984432 383.214815,55.2590114 383.161481,55.3077614 C383.106667,55.3565114 383.041481,55.3801477 382.964444,55.3801477 Z" id="Fill-79" fill="#CA2026" mask="url(#mask-2)"></path>
                <path d="M384.190963,57.042375 C384.190963,57.1782841 384.207259,57.2994205 384.23837,57.4102159 C384.272444,57.5195341 384.316889,57.6140795 384.37763,57.692375 C384.436889,57.7706705 384.509481,57.8327159 384.592444,57.8755568 C384.676889,57.919875 384.768741,57.9405568 384.869481,57.9405568 C384.968741,57.9405568 385.060593,57.919875 385.146519,57.8755568 C385.229481,57.8327159 385.300593,57.7706705 385.361333,57.692375 C385.420593,57.6140795 385.466519,57.5195341 385.499111,57.4102159 C385.530222,57.2994205 385.546519,57.1782841 385.546519,57.042375 C385.546519,56.9064659 385.530222,56.7838523 385.499111,56.6730568 C385.466519,56.5622614 385.420593,56.4662386 385.361333,56.3849886 C385.300593,56.3052159 385.229481,56.2416932 385.146519,56.1988523 C385.060593,56.1560114 384.968741,56.1338523 384.869481,56.1338523 C384.768741,56.1338523 384.676889,56.1560114 384.592444,56.1988523 C384.509481,56.2416932 384.436889,56.3052159 384.37763,56.3849886 C384.316889,56.4662386 384.272444,56.5622614 384.23837,56.6730568 C384.207259,56.7838523 384.190963,56.9064659 384.190963,57.042375 M383.779111,57.042375 C383.779111,56.8458977 383.808741,56.6715795 383.868,56.5179432 C383.927259,56.3657841 384.008741,56.2357841 384.108,56.1294205 C384.208741,56.0230568 384.324296,55.9418068 384.454667,55.8871477 C384.586519,55.8324886 384.722815,55.8058977 384.869481,55.8058977 C385.014667,55.8058977 385.152444,55.8324886 385.282815,55.8871477 C385.413185,55.9418068 385.528741,56.0230568 385.629481,56.1294205 C385.730222,56.2357841 385.810222,56.3657841 385.869481,56.5179432 C385.928741,56.6715795 385.95837,56.8458977 385.95837,57.042375 C385.95837,57.2358977 385.928741,57.4087386 385.869481,57.562375 C385.810222,57.7145341 385.730222,57.8430568 385.629481,57.9479432 C385.528741,58.0528295 385.413185,58.1326023 385.282815,58.1872614 C385.152444,58.2419205 385.014667,58.2699886 384.869481,58.2699886 C384.722815,58.2699886 384.586519,58.2419205 384.454667,58.1872614 C384.324296,58.1326023 384.208741,58.0528295 384.108,57.9479432 C384.008741,57.8430568 383.927259,57.7145341 383.868,57.562375 C383.808741,57.4087386 383.779111,57.2358977 383.779111,57.042375" id="Fill-80" fill="#CA2026" mask="url(#mask-2)"></path>
                <path d="M386.579556,55.8636591 L386.908444,55.8636591 L386.942519,56.2019545 L386.957333,56.2019545 C387.069926,56.0882045 387.188444,55.9951364 387.312889,55.9197955 C387.437333,55.8429773 387.582519,55.8045682 387.746963,55.8045682 C387.995852,55.8045682 388.176593,55.8828636 388.292148,56.0379773 C388.406222,56.1916136 388.462519,56.4205909 388.462519,56.7234318 L388.462519,58.2110455 L388.066963,58.2110455 L388.066963,56.7766136 C388.066963,56.5550227 388.029926,56.394 387.960296,56.2950227 C387.889185,56.1975227 387.776593,56.1487727 387.621037,56.1487727 C387.498074,56.1487727 387.389926,56.1783182 387.295111,56.2403636 C387.203259,56.3009318 387.096593,56.3910455 386.976593,56.5107045 L386.976593,58.2110455 L386.579556,58.2110455 L386.579556,55.8636591 Z" id="Fill-81" fill="#CA2026" mask="url(#mask-2)"></path>
                <path d="M351.690963,25.5182614 C351.714667,26.6143977 352.19763,28.695875 355.362074,28.695875 C357.07763,28.695875 358.987259,28.2305341 358.987259,26.1475795 C358.987259,24.6126932 357.682074,24.2034886 355.846519,23.7100795 L353.985778,23.2166705 C351.182815,22.4765568 348.47763,21.7659886 348.47763,17.4361023 C348.47763,15.2453068 349.516148,11.3837159 355.144296,11.3837159 C360.459852,11.3837159 361.885037,15.3265568 361.908741,17.7389432 L358.430222,17.7389432 C358.332444,16.8614432 358.043556,14.7799659 354.87763,14.7799659 C353.502815,14.7799659 351.859852,15.354625 351.859852,17.1362159 C351.859852,18.669625 352.970963,18.9990568 353.695407,19.189625 L357.923556,20.3684886 C360.290963,21.025875 362.464296,22.1205341 362.464296,25.6541705 C362.464296,31.572125 357.150222,32.092125 355.628741,32.092125 C349.299852,32.092125 348.210963,27.9557614 348.210963,25.5182614 L351.690963,25.5182614 Z" id="Fill-82" fill="#CA2026" mask="url(#mask-2)"></path>
                <path d="M367.048296,11.9032727 L375.805333,11.9032727 C380.223111,11.9032727 381.350519,14.9169091 381.350519,16.9437273 C381.350519,19.7653182 379.895704,20.5600909 379.14163,20.9707727 C381.350519,21.8748636 381.928296,23.7908864 381.928296,25.7379318 C381.928296,27.2994091 381.326815,28.7781591 380.372741,29.7915682 C379.343111,30.8877045 378.365333,31.5716818 374.676444,31.5716818 L367.048296,31.5716818 L367.048296,11.9032727 Z M370.660148,19.5998636 L375.077926,19.5998636 C376.557926,19.5998636 377.738667,18.9705455 377.738667,17.4090682 C377.738667,15.7929318 376.683852,15.2995227 374.978667,15.2995227 L370.660148,15.2995227 L370.660148,19.5998636 Z M370.660148,28.1754318 L375.279407,28.1754318 C377.110519,28.1754318 378.163852,27.2994091 378.163852,25.2991818 C378.163852,23.5737273 376.808296,22.9148636 375.452741,22.9148636 L370.660148,22.9148636 L370.660148,28.1754318 Z" id="Fill-83" fill="#CA2026" mask="url(#mask-2)"></path>
                <polygon id="Fill-84" fill="#CA2026" mask="url(#mask-2)" points="393.644 11.8967727 390.786222 11.8967727 385.063259 31.5784773 388.676593 31.5784773 392.184741 18.6567727 395.746222 31.5784773 399.359556 31.5784773"></polygon>
                <polygon id="Fill-85" fill="#CA2026" mask="url(#mask-2)" points="393.623704 40.1120909 390.758519 43.2749318 390.758519 31.6266364 393.623704 31.6266364"></polygon>
                <polygon id="Fill-86" fill="#CA2026" mask="url(#mask-2)" points="357.158222 40.1308523 356.842667 40.1308523 356.842667 39.7851705 356.842667 34.8569886 353.961185 34.8569886 353.961185 43.2744886 362.464889 43.2744886 362.464889 40.1308523"></polygon>
                <polygon id="Fill-87" fill="#CA2026" mask="url(#mask-2)" points="390.759259 43.2752273 390.742963 40.1315909 367.048148 40.1315909 367.048148 43.2752273"></polygon>
                <polygon id="Fill-88" fill="#CA2026" mask="url(#mask-2)" points="354.011556 0 354.011556 8.41897727 356.891556 8.41897727 356.891556 3.48931818 356.891556 3.14511364 357.207111 3.14511364 362.464889 3.14511364 362.464889 0"></polygon>
                <polygon id="Fill-89" fill="#CA2026" mask="url(#mask-2)" points="367.048296 0 367.048296 3.14511364 390.476444 3.14511364 390.792 3.14511364 390.792 3.48931818 390.792 8.41897727 393.674963 8.41897727 393.674963 0"></polygon>
            </g>
        </g>
    </g>
</svg>