<?xml version="1.0" encoding="UTF-8"?>
<svg width="399px" height="67px" viewBox="0 0 399 67" version="1.1" xmlns="http://www.w3.org/2000/svg" xmlns:xlink="http://www.w3.org/1999/xlink">
    <!-- Generator: Sketch 49 (51002) - http://www.bohemiancoding.com/sketch -->
    <title>Page 1</title>
    <desc>Created with Sketch.</desc>
    <defs>
        <polygon id="path-1" points="0 1.28490435 44.9952941 1.28490435 44.9952941 11.3045565 0 11.3045565"></polygon>
    </defs>
    <g id="Page-1" stroke="none" stroke-width="1" fill="none" fill-rule="evenodd">
        <g id="Tablet" transform="translate(-249.000000, -3050.000000)">
            <g id="Page-1" transform="translate(249.000000, 3050.000000)">
                <path d="M83.8108824,29.6697304 L84.8123529,29.6697304 L82.8417647,34.3632087 C82.6402941,34.840687 82.5211765,35.2412957 82.4829412,35.5635565 C82.4417647,35.8872957 82.4638235,36.1474696 82.5491176,36.3396435 C82.6314706,36.5347739 82.7697059,36.6722522 82.9564706,36.7579913 C83.1476471,36.8437304 83.3697059,36.8866 83.6270588,36.8866 C83.8932353,36.8866 84.1564706,36.8437304 84.4182353,36.7579913 C84.6785294,36.6722522 84.9344118,36.5347739 85.1858824,36.3396435 C85.4344118,36.1474696 85.6770588,35.8872957 85.9094118,35.5635565 C86.1402941,35.2412957 86.3564706,34.840687 86.5579412,34.3632087 L88.5285294,29.6697304 L89.4932353,29.6697304 L87.5329412,34.3395565 C87.2652941,34.9781652 86.9667647,35.5147739 86.6373529,35.9523391 C86.3108824,36.3884261 85.9623529,36.7417304 85.5961765,37.0137304 C85.2285294,37.2827739 84.8461765,37.4779043 84.4535294,37.594687 C84.0579412,37.7114696 83.6579412,37.7706 83.2564706,37.7706 C82.855,37.7706 82.5035294,37.7114696 82.2020588,37.594687 C81.9005882,37.4779043 81.6814706,37.2827739 81.5417647,37.0137304 C81.4020588,36.7417304 81.3520588,36.3884261 81.3902941,35.9523391 C81.4285294,35.5147739 81.5814706,34.9781652 81.8505882,34.3395565 L83.8108824,29.6697304 Z" id="Fill-1" fill="#1A3667"></path>
                <path d="M88.0602941,37.0192 C88.1588235,36.7856348 88.3073529,36.5978957 88.5088235,36.4545043 C88.7088235,36.3140696 88.9088235,36.2445913 89.1102941,36.2445913 C89.3044118,36.2445913 89.4411765,36.3140696 89.5220588,36.4545043 C89.6029412,36.5978957 89.5955882,36.7856348 89.4970588,37.0192 C89.4058824,37.2365043 89.2588235,37.4183304 89.0588235,37.5587652 C88.8588235,37.7006783 88.6632353,37.7716348 88.4691176,37.7716348 C88.2691176,37.7716348 88.1264706,37.7006783 88.0455882,37.5587652 C87.9647059,37.4183304 87.9691176,37.2365043 88.0602941,37.0192" id="Fill-3" fill="#1A3667"></path>
                <path d="M91.8645588,35.8917304 C92.0204412,36.1903391 92.2513235,36.4312957 92.5572059,36.6131217 C92.8630882,36.7934696 93.2204412,36.8866 93.6292647,36.8866 C94.1527941,36.8866 94.6086765,36.7668609 94.9998529,36.5288609 C95.3895588,36.2908609 95.6645588,35.9774696 95.8277941,35.588687 C95.9130882,35.3861652 95.9498529,35.214687 95.9410294,35.0727739 C95.9336765,34.9323391 95.8910294,34.8111217 95.8175,34.7091217 C95.7425,34.6086 95.6425,34.5169478 95.5160294,34.4371217 C95.3880882,34.3558174 95.2513235,34.2700783 95.1042647,34.1813826 L94.1777941,33.684687 C94.0277941,33.6033826 93.8792647,33.5072957 93.7336765,33.3934696 C93.5880882,33.2796435 93.4733824,33.1421652 93.3880882,32.9810348 C93.3027941,32.8184261 93.2586765,32.6277304 93.2542647,32.4059913 C93.2527941,32.1812957 93.3130882,31.9240783 93.4336765,31.6343391 C93.5601471,31.3357304 93.7380882,31.0563391 93.9733824,30.7976435 C94.2057353,30.5389478 94.4719118,30.3157304 94.7748529,30.1250348 C95.0748529,29.9358174 95.3969118,29.7879913 95.7439706,29.6830348 C96.0895588,29.5780783 96.4425,29.5233826 96.8042647,29.5233826 C97.2807353,29.5233826 97.6807353,29.6150348 98.0057353,29.7968609 C98.3307353,29.978687 98.5733824,30.2152087 98.7336765,30.5064261 L97.9160294,31.1612957 C97.7733824,30.9277304 97.5836765,30.7429478 97.3454412,30.6099043 C97.1072059,30.4768609 96.8027941,30.4103391 96.4322059,30.4103391 C95.9910294,30.4103391 95.5910294,30.5123391 95.2366176,30.7192957 C94.8807353,30.9247739 94.6263235,31.2100783 94.4719118,31.5737304 C94.3910294,31.7688609 94.3616176,31.9314696 94.3822059,32.064513 C94.4013235,32.1990348 94.4557353,32.3158174 94.5410294,32.4163391 C94.6277941,32.5183391 94.7307353,32.6070348 94.8513235,32.6824261 C94.9719118,32.7607739 95.0998529,32.8317304 95.2336765,32.8967739 L96.1513235,33.3816435 C96.3351471,33.4777304 96.5013235,33.5886 96.6513235,33.7127739 C96.7983824,33.8399043 96.9116176,33.9847739 96.9866176,34.1518174 C97.0630882,34.3173826 97.0939706,34.5095565 97.0866176,34.7327739 C97.0763235,34.9559913 97.0116176,35.2117304 96.8895588,35.5029478 C96.7572059,35.8178174 96.5704412,36.1134696 96.3307353,36.3884261 C96.0895588,36.6633826 95.8116176,36.9043391 95.4910294,37.1098174 C95.1719118,37.3152957 94.8219118,37.4779043 94.4425,37.594687 C94.0645588,37.7114696 93.6660294,37.7706 93.2469118,37.7706 C92.6925,37.7706 92.2219118,37.6656435 91.8351471,37.4557304 C91.4483824,37.2458174 91.1601471,36.9590348 90.9660294,36.5953826 L91.8645588,35.8917304 Z" id="Fill-5" fill="#1A3667"></path>
                <path d="M97.5072059,37.0192 C97.6057353,36.7856348 97.7542647,36.5978957 97.9557353,36.4545043 C98.1557353,36.3140696 98.3557353,36.2445913 98.5572059,36.2445913 C98.7513235,36.2445913 98.8880882,36.3140696 98.9689706,36.4545043 C99.0498529,36.5978957 99.0425,36.7856348 98.9439706,37.0192 C98.8527941,37.2365043 98.7057353,37.4183304 98.5057353,37.5587652 C98.3057353,37.7006783 98.1101471,37.7716348 97.9160294,37.7716348 C97.7160294,37.7716348 97.5733824,37.7006783 97.4925,37.5587652 C97.4116176,37.4183304 97.4160294,37.2365043 97.5072059,37.0192" id="Fill-7" fill="#1A3667"></path>
                <path d="M103.747059,35.8917304 C103.902941,36.1903391 104.133824,36.4312957 104.439706,36.6131217 C104.745588,36.7934696 105.102941,36.8866 105.511765,36.8866 C106.035294,36.8866 106.491176,36.7668609 106.882353,36.5288609 C107.272059,36.2908609 107.547059,35.9774696 107.710294,35.588687 C107.795588,35.3861652 107.832353,35.214687 107.823529,35.0727739 C107.816176,34.9323391 107.773529,34.8111217 107.7,34.7091217 C107.625,34.6086 107.525,34.5169478 107.398529,34.4371217 C107.270588,34.3558174 107.133824,34.2700783 106.986765,34.1813826 L106.060294,33.684687 C105.910294,33.6033826 105.761765,33.5072957 105.616176,33.3934696 C105.470588,33.2796435 105.355882,33.1421652 105.270588,32.9810348 C105.185294,32.8184261 105.141176,32.6277304 105.136765,32.4059913 C105.135294,32.1812957 105.195588,31.9240783 105.316176,31.6343391 C105.442647,31.3357304 105.620588,31.0563391 105.855882,30.7976435 C106.088235,30.5389478 106.354412,30.3157304 106.657353,30.1250348 C106.957353,29.9358174 107.279412,29.7879913 107.626471,29.6830348 C107.972059,29.5780783 108.325,29.5233826 108.686765,29.5233826 C109.163235,29.5233826 109.563235,29.6150348 109.888235,29.7968609 C110.213235,29.978687 110.455882,30.2152087 110.616176,30.5064261 L109.798529,31.1612957 C109.655882,30.9277304 109.466176,30.7429478 109.227941,30.6099043 C108.989706,30.4768609 108.685294,30.4103391 108.314706,30.4103391 C107.873529,30.4103391 107.473529,30.5123391 107.119118,30.7192957 C106.763235,30.9247739 106.508824,31.2100783 106.354412,31.5737304 C106.273529,31.7688609 106.244118,31.9314696 106.264706,32.064513 C106.283824,32.1990348 106.338235,32.3158174 106.423529,32.4163391 C106.510294,32.5183391 106.613235,32.6070348 106.733824,32.6824261 C106.854412,32.7607739 106.982353,32.8317304 107.116176,32.8967739 L108.033824,33.3816435 C108.217647,33.4777304 108.383824,33.5886 108.533824,33.7127739 C108.680882,33.8399043 108.794118,33.9847739 108.869118,34.1518174 C108.945588,34.3173826 108.976471,34.5095565 108.969118,34.7327739 C108.958824,34.9559913 108.894118,35.2117304 108.772059,35.5029478 C108.639706,35.8178174 108.452941,36.1134696 108.213235,36.3884261 C107.972059,36.6633826 107.694118,36.9043391 107.373529,37.1098174 C107.054412,37.3152957 106.704412,37.4779043 106.325,37.594687 C105.947059,37.7114696 105.548529,37.7706 105.129412,37.7706 C104.575,37.7706 104.104412,37.6656435 103.717647,37.4557304 C103.330882,37.2458174 103.042647,36.9590348 102.848529,36.5953826 L103.747059,35.8917304 Z" id="Fill-9" fill="#1A3667"></path>
                <path d="M111.815147,31.7326435 L112.635735,31.7326435 L112.363676,32.5811652 L112.398971,32.5811652 C112.773971,32.2973391 113.154853,32.0608174 113.535735,31.8716 C113.918088,31.6823826 114.285735,31.5848174 114.638676,31.5848174 C115.090147,31.5848174 115.400441,31.6853391 115.569559,31.8849043 C115.738676,32.081513 115.810735,32.3594261 115.781324,32.7142087 C116.229853,32.375687 116.651912,32.1022087 117.048971,31.8952522 C117.444559,31.6897739 117.823971,31.5848174 118.185735,31.5848174 C118.788676,31.5848174 119.156324,31.7799478 119.285735,32.1687304 C119.418088,32.557513 119.3225,33.1296 119.004853,33.8909043 L117.435735,37.6249913 L116.446029,37.6249913 L117.959265,34.0239478 C118.193088,33.4651652 118.273971,33.0630783 118.200441,32.817687 C118.126912,32.5693391 117.904853,32.4466435 117.535735,32.4466435 C117.093088,32.4466435 116.473971,32.749687 115.681324,33.3572522 L113.888676,37.6249913 L112.898971,37.6249913 L114.412206,34.0239478 C114.646029,33.4651652 114.725441,33.0630783 114.653382,32.817687 C114.579853,32.5693391 114.354853,32.4466435 113.976912,32.4466435 C113.534265,32.4466435 112.915147,32.749687 112.1225,33.3572522 L110.329853,37.6249913 L109.340147,37.6249913 L111.815147,31.7326435 Z" id="Fill-11" fill="#1A3667"></path>
                <path d="M120.703382,36.0244783 C120.560735,36.3644783 120.556324,36.606913 120.693088,36.7517826 C120.829853,36.8981304 121.040147,36.9720435 121.331324,36.9720435 C121.612206,36.9720435 121.907794,36.9040435 122.216618,36.771 C122.526912,36.6379565 122.876912,36.4413478 123.266618,36.1811739 L123.953382,34.5447391 C123.435735,34.6097826 122.990147,34.6866522 122.615147,34.7753478 C122.240147,34.8640435 121.925441,34.969 121.668088,35.0902174 C121.412206,35.2114348 121.207794,35.3518696 121.051912,35.5085652 C120.8975,35.6667391 120.781324,35.8396957 120.703382,36.0244783 M119.694559,36.0983913 C119.966618,35.450913 120.460735,34.9556957 121.181324,34.6112609 C121.898971,34.2697826 122.916618,34.0273478 124.228382,33.8913478 C124.306324,33.705087 124.363676,33.5232609 124.404853,33.3443913 C124.441618,33.167 124.444559,33.0088261 124.410735,32.8713478 C124.373971,32.7323913 124.2975,32.623 124.181324,32.5387391 C124.063676,32.453 123.884265,32.4116087 123.643088,32.4116087 C123.298971,32.4116087 122.950441,32.4766522 122.603382,32.6052609 C122.256324,32.7323913 121.929853,32.8802174 121.629853,33.0398696 L121.5225,32.351 C121.869559,32.1736087 122.273971,32.0006522 122.740147,31.835087 C123.201912,31.6695217 123.6725,31.5852609 124.146029,31.5852609 C124.863676,31.5852609 125.288676,31.8055217 125.425441,32.2460435 C125.563676,32.6865652 125.475441,33.2763913 125.168088,34.0125652 L123.650441,37.6254348 L122.829853,37.6254348 L123.041618,36.9217826 L123.016618,36.9217826 C122.635735,37.1583043 122.250441,37.3563913 121.853382,37.5219565 C121.459265,37.6875217 121.081324,37.7717826 120.719559,37.7717826 C120.219559,37.7717826 119.868088,37.6254348 119.663676,37.3342174 C119.460735,37.043 119.471029,36.6305652 119.694559,36.0983913" id="Fill-13" fill="#1A3667"></path>
                <path d="M129.144853,28.9912087 L130.134559,28.9912087 L126.977206,36.5096435 C126.909559,36.6722522 126.890441,36.7846 126.919853,36.8481652 C126.949265,36.9132087 127.000735,36.9457304 127.072794,36.9457304 L127.1625,36.9457304 C127.191912,36.9457304 127.236029,36.9383391 127.299265,36.9220783 L127.116912,37.6730348 C127.0375,37.7070348 126.952206,37.730687 126.856618,37.7469478 C126.761029,37.7632087 126.646324,37.7706 126.509559,37.7706 C126.130147,37.7706 125.909559,37.6567739 125.843382,37.4320783 C125.777206,37.2059043 125.836029,36.8747739 126.019853,36.4357304 L129.144853,28.9912087 Z" id="Fill-15" fill="#1A3667"></path>
                <path d="M132.221029,28.9912087 L133.210735,28.9912087 L130.053382,36.5096435 C129.985735,36.6722522 129.966618,36.7846 129.996029,36.8481652 C130.025441,36.9132087 130.076912,36.9457304 130.148971,36.9457304 L130.238676,36.9457304 C130.268088,36.9457304 130.312206,36.9383391 130.375441,36.9220783 L130.193088,37.6730348 C130.113676,37.7070348 130.028382,37.730687 129.932794,37.7469478 C129.837206,37.7632087 129.7225,37.7706 129.585735,37.7706 C129.206324,37.7706 128.985735,37.6567739 128.919559,37.4320783 C128.853382,37.2059043 128.912206,36.8747739 129.096029,36.4357304 L132.221029,28.9912087 Z" id="Fill-17" fill="#1A3667"></path>
                <path d="M138.291618,33.0666261 C138.975441,33.0666261 139.512206,32.9498435 139.906324,32.7148 C140.296029,32.4812348 140.587206,32.1412348 140.773971,31.6948 C140.956324,31.258713 140.934265,30.9438435 140.703382,30.7561043 C140.4725,30.566887 140.048971,30.4693217 139.429853,30.4693217 L138.210735,30.4693217 L137.121029,33.0666261 L138.291618,33.0666261 Z M136.918088,36.8243652 C137.601912,36.8243652 138.188676,36.6972348 138.6725,36.4429739 C139.156324,36.1872348 139.512206,35.7910609 139.740147,35.2500174 C139.9475,34.7562783 139.915147,34.3926261 139.640147,34.1634957 C139.366618,33.9343652 138.879853,33.8175826 138.181324,33.8175826 L136.804853,33.8175826 L135.543088,36.8243652 L136.918088,36.8243652 Z M137.546029,29.6695826 L139.898971,29.6695826 C140.300441,29.6695826 140.651912,29.7080174 140.956324,29.7789739 C141.259265,29.8514087 141.4975,29.9637565 141.669559,30.1189739 C141.843088,30.2712348 141.943088,30.4722783 141.973971,30.7191478 C142.001912,30.9660174 141.943088,31.2631478 141.798971,31.6105391 C141.631324,32.006713 141.369559,32.3629739 141.010735,32.6822783 C140.650441,33.0045391 140.212206,33.2233217 139.696029,33.3430609 L139.673971,33.3933217 C140.216618,33.4820174 140.582794,33.6845391 140.7725,34.000887 C140.960735,34.3157565 140.940147,34.7474087 140.710735,35.2973217 C140.546029,35.6846261 140.331324,36.0246261 140.063676,36.3158435 C139.7975,36.6070609 139.490147,36.8494957 139.143088,37.0431478 C138.7975,37.2368 138.418088,37.3831478 138.007794,37.480713 C137.596029,37.5782783 137.169559,37.6255826 136.728382,37.6255826 L134.206324,37.6255826 L137.546029,29.6695826 Z" id="Fill-19" fill="#1A3667"></path>
                <path d="M143.592206,31.7326435 L144.593676,31.7326435 L143.080441,35.3351652 C142.846618,35.8909913 142.764265,36.2945565 142.833382,36.5399478 C142.903971,36.7868174 143.131912,36.909513 143.517206,36.909513 C143.823088,36.909513 144.124559,36.8311652 144.426029,36.6729913 C144.724559,36.5162957 145.087794,36.263513 145.515735,35.9146435 L147.271618,31.7326435 L148.261324,31.7326435 L145.786324,37.6249913 L144.967206,37.6249913 L145.268676,36.7040348 L145.233382,36.7040348 C144.823088,37.0277739 144.426029,37.2864696 144.045147,37.4816 C143.661324,37.6737739 143.264265,37.7713391 142.855441,37.7713391 C142.2275,37.7713391 141.851029,37.577687 141.728971,37.1889043 C141.605441,36.8016 141.705441,36.2265565 142.024559,35.4667304 L143.592206,31.7326435 Z" id="Fill-21" fill="#1A3667"></path>
                <path d="M148.169265,36.2916 C148.338382,36.5029913 148.529559,36.6729913 148.745735,36.8016 C148.958971,36.9302087 149.242794,36.9952522 149.598676,36.9952522 C149.983971,36.9952522 150.311912,36.9065565 150.579559,36.727687 C150.845735,36.5517739 151.033971,36.331513 151.142794,36.0742957 C151.2075,35.9190783 151.223676,35.7860348 151.191324,35.673687 C151.1575,35.5598609 151.097206,35.4608174 151.0075,35.3765565 C150.917794,35.2908174 150.8075,35.2169043 150.673676,35.1518609 C150.539853,35.0868174 150.406029,35.0232522 150.273676,34.9582087 C150.094265,34.8842957 149.920735,34.801513 149.750147,34.7098609 C149.579559,34.6152522 149.439853,34.5029043 149.331029,34.3698609 C149.223676,34.2353391 149.154559,34.0801217 149.122206,33.9027304 C149.094265,33.7253391 149.131029,33.5109913 149.238382,33.2582087 C149.335441,33.0246435 149.473676,32.8058609 149.651618,32.5989043 C149.8325,32.3919478 150.038382,32.2145565 150.276618,32.0652522 C150.510441,31.9159478 150.772206,31.7991652 151.056029,31.7134261 C151.339853,31.6291652 151.638382,31.5848174 151.954559,31.5848174 C152.322206,31.5848174 152.635441,31.6513391 152.892794,31.7799478 C153.147206,31.9085565 153.347206,32.0682087 153.494265,32.2544696 L152.760441,32.8842087 C152.623676,32.7304696 152.467794,32.6048174 152.291324,32.5072522 C152.116324,32.4111652 151.897206,32.3623826 151.638382,32.3623826 C151.270735,32.3623826 150.961912,32.4466435 150.717794,32.6166435 C150.475147,32.7866435 150.306029,32.9862087 150.211912,33.2109043 C150.154559,33.3483826 150.139853,33.4681217 150.167794,33.5686435 C150.198676,33.6706435 150.2575,33.7593391 150.345735,33.8362087 C150.435441,33.9130783 150.542794,33.9825565 150.676618,34.0431652 C150.8075,34.1037739 150.944265,34.1658609 151.085441,34.2294261 C151.260441,34.3107304 151.435441,34.3964696 151.613382,34.483687 C151.786912,34.5738609 151.9325,34.6847304 152.045735,34.8177739 C152.1575,34.9508174 152.228088,35.1163826 152.254559,35.3085565 C152.2825,35.503687 152.238382,35.7387304 152.122206,36.013687 C152.020735,36.2561217 151.879559,36.4822957 151.697206,36.6922087 C151.517794,36.9021217 151.303088,37.0883826 151.054559,37.2480348 C150.806029,37.4121217 150.526618,37.5392522 150.217794,37.6323826 C149.910441,37.7240348 149.583971,37.7713391 149.238382,37.7713391 C148.817794,37.7713391 148.451618,37.6944696 148.138382,37.5407304 C147.826618,37.3869913 147.578088,37.1933391 147.394265,36.9582957 L148.169265,36.2916 Z" id="Fill-23" fill="#1A3667"></path>
                <path d="M156.312059,30.5185478 C156.116471,30.5185478 155.979706,30.4579391 155.898824,30.3367217 C155.816471,30.2155043 155.815,30.0617652 155.892941,29.8755043 C155.975294,29.6833304 156.104706,29.5266348 156.287059,29.4083739 C156.469412,29.2915913 156.656176,29.2339391 156.851765,29.2339391 C157.044412,29.2339391 157.182647,29.2915913 157.265,29.4083739 C157.348824,29.5266348 157.350294,29.6833304 157.267941,29.8755043 C157.191471,30.0617652 157.059118,30.2155043 156.876765,30.3367217 C156.692941,30.4579391 156.504706,30.5185478 156.312059,30.5185478 Z M155.295882,31.7322 L156.284118,31.7322 L153.810588,37.6260261 L152.820882,37.6260261 L155.295882,31.7322 Z" id="Fill-25" fill="#1A3667"></path>
                <path d="M158.263676,31.7326435 L159.084265,31.7326435 L158.812206,32.5811652 L158.8475,32.5811652 C159.2475,32.2973391 159.643088,32.0608174 160.034265,31.8716 C160.4225,31.6823826 160.821029,31.5848174 161.232794,31.5848174 C161.851912,31.5848174 162.2225,31.7799478 162.344559,32.1687304 C162.466618,32.557513 162.369559,33.1296 162.050441,33.8909043 L160.482794,37.6249913 L159.493088,37.6249913 L161.004853,34.0239478 C161.238676,33.4651652 161.319559,33.0630783 161.246029,32.817687 C161.173971,32.5693391 160.943088,32.4466435 160.557794,32.4466435 C160.251912,32.4466435 159.950441,32.523513 159.651912,32.6787304 C159.354853,32.8309913 158.993088,33.0571652 158.571029,33.3572522 L156.778382,37.6249913 L155.788676,37.6249913 L158.263676,31.7326435 Z" id="Fill-27" fill="#1A3667"></path>
                <path d="M167.476471,34.2416957 C167.732353,33.6356087 167.798529,33.172913 167.679412,32.8536087 C167.560294,32.5343043 167.270588,32.3746522 166.813235,32.3746522 C166.602941,32.3746522 166.385294,32.4175217 166.161765,32.5017826 C165.936765,32.5860435 165.716176,32.7087391 165.497059,32.8654348 C165.276471,33.0236087 165.069118,33.2187391 164.872059,33.4478696 C164.675,33.6784783 164.498529,33.943087 164.338235,34.2416957 L167.476471,34.2416957 Z M163.185294,34.691087 C163.389706,34.2062174 163.647059,33.7716087 163.955882,33.3872609 C164.264706,33.0043913 164.601471,32.6776957 164.957353,32.4116087 C165.313235,32.1440435 165.679412,31.9385652 166.051471,31.7996087 C166.426471,31.6562174 166.780882,31.5852609 167.120588,31.5852609 C167.488235,31.5852609 167.792647,31.6517826 168.033824,31.7803913 C168.272059,31.909 168.439706,32.0952609 168.535294,32.3376957 C168.629412,32.5816087 168.660294,32.8713478 168.619118,33.2113478 C168.582353,33.5498696 168.476471,33.9312609 168.3,34.351087 C168.208824,34.5698696 168.119118,34.7516957 168.033824,34.8965652 L164.076471,34.8965652 C163.848529,35.5366522 163.830882,36.0422174 164.025,36.4132609 C164.219118,36.7857826 164.597059,36.9720435 165.160294,36.9720435 C165.441176,36.9720435 165.719118,36.9276957 165.992647,36.8434348 C166.264706,36.7576957 166.538235,36.6483043 166.813235,36.5093478 L166.888235,37.1656957 C166.563235,37.3268261 166.219118,37.4672609 165.852941,37.5899565 C165.488235,37.7111739 165.107353,37.7717826 164.704412,37.7717826 C164.310294,37.7717826 163.970588,37.7008261 163.688235,37.558913 C163.405882,37.417 163.194118,37.2159565 163.05,36.9528261 C162.908824,36.6882174 162.844118,36.3674348 162.858824,35.989 C162.873529,35.6076087 162.980882,35.1759565 163.185294,34.691087 Z" id="Fill-29" fill="#1A3667"></path>
                <path d="M168.776029,36.2916 C168.943676,36.5029913 169.136324,36.6729913 169.3525,36.8016 C169.567206,36.9302087 169.849559,36.9952522 170.205441,36.9952522 C170.590735,36.9952522 170.917206,36.9065565 171.187794,36.727687 C171.4525,36.5517739 171.640735,36.331513 171.749559,36.0742957 C171.814265,35.9190783 171.830441,35.7860348 171.798088,35.673687 C171.764265,35.5598609 171.703971,35.4608174 171.615735,35.3765565 C171.526029,35.2908174 171.414265,35.2169043 171.280441,35.1518609 C171.146618,35.0868174 171.012794,35.0232522 170.880441,34.9582087 C170.701029,34.8842957 170.526029,34.801513 170.356912,34.7098609 C170.186324,34.6152522 170.046618,34.5029043 169.937794,34.3698609 C169.830441,34.2353391 169.759853,34.0801217 169.728971,33.9027304 C169.699559,33.7253391 169.737794,33.5109913 169.843676,33.2582087 C169.942206,33.0246435 170.080441,32.8058609 170.258382,32.5989043 C170.439265,32.3919478 170.645147,32.2145565 170.883382,32.0652522 C171.117206,31.9159478 171.3775,31.7991652 171.662794,31.7134261 C171.946618,31.6291652 172.246618,31.5848174 172.559853,31.5848174 C172.930441,31.5848174 173.243676,31.6513391 173.499559,31.7799478 C173.753971,31.9085565 173.953971,32.0682087 174.1025,32.2544696 L173.367206,32.8842087 C173.230441,32.7304696 173.074559,32.6048174 172.898088,32.5072522 C172.721618,32.4111652 172.5025,32.3623826 172.246618,32.3623826 C171.876029,32.3623826 171.568676,32.4466435 171.324559,32.6166435 C171.080441,32.7866435 170.911324,32.9862087 170.817206,33.2109043 C170.759853,33.3483826 170.745147,33.4681217 170.774559,33.5686435 C170.805441,33.6706435 170.864265,33.7593391 170.9525,33.8362087 C171.040735,33.9130783 171.149559,33.9825565 171.281912,34.0431652 C171.414265,34.1037739 171.551029,34.1658609 171.692206,34.2294261 C171.867206,34.3107304 172.042206,34.3964696 172.218676,34.483687 C172.393676,34.5738609 172.539265,34.6847304 172.6525,34.8177739 C172.764265,34.9508174 172.834853,35.1163826 172.861324,35.3085565 C172.887794,35.503687 172.845147,35.7387304 172.728971,36.013687 C172.626029,36.2561217 172.484853,36.4822957 172.303971,36.6922087 C172.123088,36.9021217 171.909853,37.0883826 171.661324,37.2480348 C171.412794,37.4121217 171.133382,37.5392522 170.824559,37.6323826 C170.517206,37.7240348 170.190735,37.7713391 169.845147,37.7713391 C169.424559,37.7713391 169.058382,37.6944696 168.745147,37.5407304 C168.433382,37.3869913 168.183382,37.1933391 168.001029,36.9582957 L168.776029,36.2916 Z" id="Fill-31" fill="#1A3667"></path>
                <path d="M173.829853,36.2916 C173.998971,36.5029913 174.190147,36.6729913 174.406324,36.8016 C174.619559,36.9302087 174.903382,36.9952522 175.259265,36.9952522 C175.644559,36.9952522 175.9725,36.9065565 176.240147,36.727687 C176.506324,36.5517739 176.694559,36.331513 176.803382,36.0742957 C176.868088,35.9190783 176.884265,35.7860348 176.851912,35.673687 C176.818088,35.5598609 176.757794,35.4608174 176.668088,35.3765565 C176.578382,35.2908174 176.468088,35.2169043 176.334265,35.1518609 C176.200441,35.0868174 176.066618,35.0232522 175.934265,34.9582087 C175.754853,34.8842957 175.581324,34.801513 175.410735,34.7098609 C175.240147,34.6152522 175.100441,34.5029043 174.991618,34.3698609 C174.884265,34.2353391 174.815147,34.0801217 174.782794,33.9027304 C174.754853,33.7253391 174.791618,33.5109913 174.898971,33.2582087 C174.996029,33.0246435 175.134265,32.8058609 175.312206,32.5989043 C175.493088,32.3919478 175.698971,32.2145565 175.937206,32.0652522 C176.171029,31.9159478 176.432794,31.7991652 176.716618,31.7134261 C177.000441,31.6291652 177.298971,31.5848174 177.615147,31.5848174 C177.982794,31.5848174 178.296029,31.6513391 178.553382,31.7799478 C178.807794,31.9085565 179.007794,32.0682087 179.154853,32.2544696 L178.421029,32.8842087 C178.284265,32.7304696 178.128382,32.6048174 177.951912,32.5072522 C177.776912,32.4111652 177.557794,32.3623826 177.298971,32.3623826 C176.931324,32.3623826 176.6225,32.4466435 176.378382,32.6166435 C176.135735,32.7866435 175.966618,32.9862087 175.8725,33.2109043 C175.815147,33.3483826 175.800441,33.4681217 175.828382,33.5686435 C175.859265,33.6706435 175.918088,33.7593391 176.006324,33.8362087 C176.096029,33.9130783 176.203382,33.9825565 176.337206,34.0431652 C176.468088,34.1037739 176.604853,34.1658609 176.746029,34.2294261 C176.921029,34.3107304 177.096029,34.3964696 177.273971,34.483687 C177.4475,34.5738609 177.593088,34.6847304 177.706324,34.8177739 C177.818088,34.9508174 177.888676,35.1163826 177.915147,35.3085565 C177.943088,35.503687 177.898971,35.7387304 177.782794,36.013687 C177.681324,36.2561217 177.540147,36.4822957 177.357794,36.6922087 C177.178382,36.9021217 176.963676,37.0883826 176.715147,37.2480348 C176.466618,37.4121217 176.187206,37.5392522 175.878382,37.6323826 C175.571029,37.7240348 175.244559,37.7713391 174.898971,37.7713391 C174.478382,37.7713391 174.112206,37.6944696 173.798971,37.5407304 C173.487206,37.3869913 173.238676,37.1933391 173.054853,36.9582957 L173.829853,36.2916 Z" id="Fill-33" fill="#1A3667"></path>
                <path d="M79.1226471,48.940487 L79.2564706,47.728313 C79.3005882,47.2833565 79.3476471,46.8413565 79.405,46.3993565 C79.4608824,45.9588348 79.5211765,45.5094435 79.5858824,45.0467478 L79.5373529,45.0467478 C79.2226471,45.5094435 78.9108824,45.9588348 78.5961765,46.3993565 C78.2814706,46.8413565 77.9594118,47.2833565 77.6285294,47.728313 L76.7461765,48.940487 L79.1226471,48.940487 Z M79.0344118,49.7535304 L76.1520588,49.7535304 L74.3726471,52.1778783 L73.3476471,52.1778783 L79.3652941,44.2233565 L80.5005882,44.2233565 L79.8388235,52.1778783 L78.7638235,52.1778783 L79.0344118,49.7535304 Z" id="Fill-35" fill="#1A3667"></path>
                <path d="M82.7035294,49.2321478 C82.405,49.941713 82.3123529,50.4975391 82.4285294,50.8922348 C82.5447059,51.289887 82.8579412,51.4864957 83.3741176,51.4864957 C83.6476471,51.4864957 83.9314706,51.4199739 84.2285294,51.2884087 C84.5255882,51.1553652 84.8535294,50.949887 85.2108824,50.6749304 L86.5035294,47.5942348 C86.3491176,47.3680609 86.1770588,47.2084087 85.9858824,47.1152783 C85.7976471,47.0221478 85.5814706,46.9763217 85.3402941,46.9763217 C85.1079412,46.9763217 84.8652941,47.0310174 84.6138235,47.1389304 C84.3623529,47.2483217 84.1197059,47.4035391 83.8829412,47.6001478 C83.6476471,47.7982348 83.4270588,48.0347565 83.2241176,48.309713 C83.0197059,48.5861478 82.8461765,48.8936261 82.7035294,49.2321478 M81.6741176,49.2439739 C81.8741176,48.7679739 82.1241176,48.3363217 82.4270588,47.9519739 C82.7285294,47.5691043 83.0520588,47.2424087 83.3976471,46.9763217 C83.7432353,46.7102348 84.0976471,46.5032783 84.4652941,46.3584087 C84.8314706,46.2120609 85.1844118,46.1381478 85.5211765,46.1381478 C85.8594118,46.1381478 86.1285294,46.2002348 86.3270588,46.3214522 C86.5255882,46.4426696 86.7094118,46.609713 86.8785294,46.8181478 L87.2520588,45.8129304 L88.2035294,43.5438 L89.2064706,43.5438 L85.5814706,52.1783217 L84.7594118,52.1783217 L84.9667647,51.4864957 L84.93,51.4864957 C84.6020588,51.7156261 84.2520588,51.9107565 83.8814706,52.0748435 C83.5094118,52.2404087 83.1505882,52.3246696 82.805,52.3246696 C82.0652941,52.3246696 81.5873529,52.0571043 81.3741176,51.5249304 C81.1579412,50.9898 81.2594118,50.2299739 81.6741176,49.2439739" id="Fill-37" fill="#1A3667"></path>
                <path d="M90.0327941,46.2856783 L90.8533824,46.2856783 L90.5813235,47.1342 L90.6166176,47.1342 C90.9930882,46.8503739 91.3725,46.6138522 91.7533824,46.4246348 C92.1342647,46.2354174 92.5019118,46.1378522 92.8563235,46.1378522 C93.3063235,46.1378522 93.6166176,46.2398522 93.7872059,46.4379391 C93.9563235,46.6345478 94.0283824,46.9124609 93.9989706,47.2672435 C94.4475,46.9287217 94.8695588,46.6552435 95.2666176,46.448287 C95.6636765,46.2428087 96.0401471,46.1378522 96.4033824,46.1378522 C97.0077941,46.1378522 97.3739706,46.3329826 97.5048529,46.7217652 C97.6357353,47.1105478 97.5416176,47.6826348 97.2225,48.4439391 L95.6548529,52.1780261 L94.6651471,52.1780261 L96.1769118,48.5769826 C96.4107353,48.0182 96.4901471,47.616113 96.4166176,47.3707217 C96.3445588,47.1223739 96.1210294,46.9996783 95.7519118,46.9996783 C95.3092647,46.9996783 94.6916176,47.3027217 93.8989706,47.910287 L92.1077941,52.1780261 L91.1180882,52.1780261 L92.6298529,48.5769826 C92.8636765,48.0182 92.9430882,47.616113 92.8695588,47.3707217 C92.7975,47.1223739 92.5710294,46.9996783 92.1930882,46.9996783 C91.7504412,46.9996783 91.1342647,47.3027217 90.3401471,47.910287 L88.5489706,52.1780261 L87.5592647,52.1780261 L90.0327941,46.2856783 Z" id="Fill-39" fill="#1A3667"></path>
                <path d="M101.051471,45.0730609 C100.857353,45.0730609 100.720588,45.0109739 100.638235,44.8897565 C100.557353,44.7700174 100.555882,44.6148 100.633824,44.4285391 C100.714706,44.2363652 100.845588,44.0796696 101.027941,43.9614087 C101.210294,43.8446261 101.397059,43.7869739 101.591176,43.7869739 C101.783824,43.7869739 101.923529,43.8446261 102.005882,43.9614087 C102.088235,44.0796696 102.091176,44.2363652 102.008824,44.4285391 C101.932353,44.6148 101.8,44.7700174 101.616176,44.8897565 C101.433824,45.0109739 101.244118,45.0730609 101.051471,45.0730609 Z M100.035294,46.2852348 L101.025,46.2852348 L98.5514706,52.1790609 L97.5617647,52.1790609 L100.035294,46.2852348 Z" id="Fill-41" fill="#1A3667"></path>
                <path d="M103.0025,46.2856783 L103.823088,46.2856783 L103.551029,47.1342 L103.586324,47.1342 C103.986324,46.8503739 104.381912,46.6138522 104.773088,46.4246348 C105.159853,46.2354174 105.561324,46.1378522 105.970147,46.1378522 C106.590735,46.1378522 106.961324,46.3329826 107.084853,46.7217652 C107.205441,47.1105478 107.108382,47.6826348 106.789265,48.4439391 L105.221618,52.1780261 L104.231912,52.1780261 L105.745147,48.5769826 C105.978971,48.0182 106.058382,47.616113 105.984853,47.3707217 C105.912794,47.1223739 105.681912,46.9996783 105.295147,46.9996783 C104.989265,46.9996783 104.689265,47.0765478 104.390735,47.2317652 C104.093676,47.3840261 103.733382,47.6102 103.309853,47.910287 L101.518676,52.1780261 L100.528971,52.1780261 L103.0025,46.2856783 Z" id="Fill-43" fill="#1A3667"></path>
                <path d="M110.6175,45.0730609 C110.423382,45.0730609 110.286618,45.0109739 110.204265,44.8897565 C110.123382,44.7700174 110.121912,44.6148 110.199853,44.4285391 C110.280735,44.2363652 110.411618,44.0796696 110.593971,43.9614087 C110.776324,43.8446261 110.963088,43.7869739 111.157206,43.7869739 C111.349853,43.7869739 111.489559,43.8446261 111.571912,43.9614087 C111.654265,44.0796696 111.657206,44.2363652 111.574853,44.4285391 C111.498382,44.6148 111.366029,44.7700174 111.183676,44.8897565 C110.999853,45.0109739 110.810147,45.0730609 110.6175,45.0730609 Z M109.601324,46.2852348 L110.591029,46.2852348 L108.1175,52.1790609 L107.127794,52.1790609 L109.601324,46.2852348 Z" id="Fill-45" fill="#1A3667"></path>
                <path d="M110.501176,50.8446348 C110.668824,51.0560261 110.861471,51.2260261 111.077647,51.3546348 C111.290882,51.4832435 111.574706,51.548287 111.930588,51.548287 C112.315882,51.548287 112.642353,51.4595913 112.911471,51.2807217 C113.177647,51.1048087 113.365882,50.8845478 113.474706,50.6273304 C113.537941,50.472113 113.555588,50.3390696 113.521765,50.2267217 C113.489412,50.1128957 113.429118,50.0138522 113.339412,49.9295913 C113.249706,49.8438522 113.139412,49.7699391 113.005588,49.7048957 C112.871765,49.6398522 112.737941,49.576287 112.605588,49.5112435 C112.426176,49.4373304 112.251176,49.3545478 112.082059,49.2628957 C111.91,49.168287 111.771765,49.0559391 111.662941,48.9228957 C111.555588,48.7883739 111.485,48.6331565 111.454118,48.4557652 C111.424706,48.2783739 111.462941,48.0640261 111.568824,47.8112435 C111.667353,47.5776783 111.805588,47.3588957 111.983529,47.1534174 C112.164412,46.9449826 112.370294,46.7675913 112.607059,46.618287 C112.842353,46.4689826 113.102647,46.3522 113.387941,46.2664609 C113.671765,46.1822 113.970294,46.1378522 114.285,46.1378522 C114.654118,46.1378522 114.967353,46.2043739 115.224706,46.3329826 C115.479118,46.4615913 115.679118,46.6212435 115.826176,46.8075043 L115.092353,47.4372435 C114.955588,47.2835043 114.799706,47.1578522 114.623235,47.060287 C114.446765,46.9642 114.227647,46.9168957 113.970294,46.9168957 C113.601176,46.9168957 113.292353,46.9996783 113.049706,47.1696783 C112.805588,47.3396783 112.636471,47.5392435 112.542353,47.7639391 C112.485,47.9014174 112.470294,48.0211565 112.498235,48.1216783 C112.530588,48.2236783 112.589412,48.3123739 112.676176,48.3892435 C112.765882,48.466113 112.874706,48.5355913 113.007059,48.5962 C113.139412,48.6568087 113.274706,48.7188957 113.415882,48.7824609 C113.592353,48.8637652 113.767353,48.9495043 113.943824,49.0367217 C114.118824,49.1268957 114.262941,49.2377652 114.377647,49.3708087 C114.489412,49.5038522 114.558529,49.6694174 114.586471,49.8615913 C114.612941,50.0567217 114.570294,50.2917652 114.454118,50.5667217 C114.351176,50.8091565 114.21,51.0353304 114.029118,51.2452435 C113.848235,51.4551565 113.635,51.6414174 113.386471,51.8010696 C113.136471,51.9651565 112.858529,52.092287 112.549706,52.1854174 C112.242353,52.2770696 111.915882,52.3243739 111.568824,52.3243739 C111.148235,52.3243739 110.783529,52.2475043 110.470294,52.0937652 C110.157059,51.9400261 109.908529,51.7463739 109.726176,51.5113304 L110.501176,50.8446348 Z" id="Fill-47" fill="#1A3667"></path>
                <path d="M117.237941,47.0970957 L116.370294,47.0970957 L116.685,46.3446609 L117.626176,46.2855304 L118.439412,44.634313 L119.273235,44.634313 L118.579118,46.2855304 L120.158529,46.2855304 L119.820294,47.0970957 L118.240882,47.0970957 L116.864412,50.3714435 C116.712941,50.7365739 116.66,51.0159652 116.71,51.2140522 C116.76,51.4136174 116.954118,51.5111826 117.290882,51.5111826 C117.395294,51.5111826 117.512941,51.4964 117.648235,51.4638783 C117.782059,51.4313565 117.907059,51.3944 118.020294,51.354487 L117.896765,52.1069217 C117.711471,52.1630957 117.515882,52.2133565 117.31,52.2577043 C117.099706,52.3020522 116.904118,52.3242261 116.720294,52.3242261 C116.408529,52.3242261 116.164412,52.2754435 115.990882,52.1793565 C115.817353,52.0817913 115.701176,51.9487478 115.640882,51.7787478 C115.577647,51.6087478 115.570294,51.4017913 115.614412,51.1593565 C115.661471,50.9184 115.743824,50.6508348 115.867353,50.3596174 L117.237941,47.0970957 Z" id="Fill-49" fill="#1A3667"></path>
                <path d="M121.474559,46.2856783 L122.296618,46.2856783 L121.933382,47.3529826 L121.968676,47.3529826 C122.324559,46.9804609 122.693676,46.6848087 123.070147,46.4660261 C123.448088,46.2487217 123.803971,46.1378522 124.140735,46.1378522 C124.376029,46.1378522 124.567206,46.1807217 124.718676,46.2590696 L124.159853,47.1342 C124.0775,47.1031565 123.998088,47.0765478 123.924559,47.060287 C123.849559,47.0455043 123.753971,47.0366348 123.633382,47.0366348 C123.383382,47.0366348 123.081912,47.1371565 122.7275,47.3396783 C122.371618,47.5422 121.992206,47.8940261 121.578971,48.3951565 L119.990735,52.1780261 L119.001029,52.1780261 L121.474559,46.2856783 Z" id="Fill-51" fill="#1A3667"></path>
                <path d="M124.270735,50.5776609 C124.126618,50.9176609 124.122206,51.1600957 124.260441,51.3049652 C124.395735,51.451313 124.6075,51.5252261 124.898676,51.5252261 C125.179559,51.5252261 125.475147,51.4572261 125.783971,51.3241826 C126.094265,51.1911391 126.444265,50.9945304 126.833971,50.7358348 L127.520735,49.0979217 C127.001618,49.1644435 126.5575,49.2398348 126.1825,49.3285304 C125.8075,49.4187043 125.491324,49.5221826 125.235441,49.6434 C124.978088,49.7646174 124.775147,49.9050522 124.617794,50.0617478 C124.464853,50.2199217 124.348676,50.3928783 124.270735,50.5776609 M123.260441,50.6515739 C123.533971,50.0040957 124.028088,49.5088783 124.748676,49.1644435 C125.466324,48.8229652 126.483971,48.5805304 127.795735,48.4445304 C127.873676,48.2582696 127.931029,48.0764435 127.970735,47.8975739 C128.008971,47.7201826 128.010441,47.5620087 127.976618,47.4245304 C127.941324,47.2870522 127.864853,47.1761826 127.748676,47.0919217 C127.631029,47.0061826 127.451618,46.9647913 127.210441,46.9647913 C126.864853,46.9647913 126.517794,47.0298348 126.170735,47.1584435 C125.823676,47.2870522 125.497206,47.4334 125.197206,47.5930522 L125.089853,46.9041826 C125.436912,46.7267913 125.841324,46.5538348 126.306029,46.3882696 C126.769265,46.2241826 127.239853,46.1384435 127.713382,46.1384435 C128.429559,46.1384435 128.856029,46.3587043 128.992794,46.7992261 C129.129559,47.2397478 129.042794,47.8295739 128.733971,48.5657478 L127.217794,52.1786174 L126.397206,52.1786174 L126.6075,51.4749652 L126.583971,51.4749652 C126.201618,51.711487 125.816324,51.9095739 125.420735,52.0751391 C125.025147,52.2407043 124.648676,52.3249652 124.286912,52.3249652 C123.786912,52.3249652 123.435441,52.1786174 123.231029,51.8874 C123.028088,51.5961826 123.036912,51.1837478 123.260441,50.6515739" id="Fill-53" fill="#1A3667"></path>
                <path d="M131.108088,47.0970957 L130.240441,47.0970957 L130.556618,46.3446609 L131.499265,46.2855304 L132.311029,44.634313 L133.144853,44.634313 L132.452206,46.2855304 L134.031618,46.2855304 L133.690441,47.0970957 L132.111029,47.0970957 L130.736029,50.3714435 C130.583088,50.7365739 130.530147,51.0159652 130.581618,51.2140522 C130.631618,51.4136174 130.825735,51.5111826 131.1625,51.5111826 C131.266912,51.5111826 131.386029,51.4964 131.519853,51.4638783 C131.653676,51.4313565 131.778676,51.3944 131.891912,51.354487 L131.768382,52.1069217 C131.584559,52.1630957 131.3875,52.2133565 131.181618,52.2577043 C130.972794,52.3020522 130.777206,52.3242261 130.590441,52.3242261 C130.278676,52.3242261 130.034559,52.2754435 129.8625,52.1793565 C129.688971,52.0817913 129.572794,51.9487478 129.5125,51.7787478 C129.450735,51.6087478 129.441912,51.4017913 129.4875,51.1593565 C129.533088,50.9184 129.616912,50.6508348 129.738971,50.3596174 L131.108088,47.0970957 Z" id="Fill-55" fill="#1A3667"></path>
                <path d="M136.374265,45.0730609 C136.180147,45.0730609 136.043382,45.0109739 135.9625,44.8897565 C135.880147,44.7700174 135.878676,44.6148 135.956618,44.4285391 C136.0375,44.2363652 136.168382,44.0796696 136.350735,43.9614087 C136.533088,43.8446261 136.719853,43.7869739 136.913971,43.7869739 C137.106618,43.7869739 137.246324,43.8446261 137.328676,43.9614087 C137.411029,44.0796696 137.413971,44.2363652 137.331618,44.4285391 C137.255147,44.6148 137.122794,44.7700174 136.938971,44.8897565 C136.756618,45.0109739 136.566912,45.0730609 136.374265,45.0730609 Z M135.359559,46.2852348 L136.346324,46.2852348 L133.874265,52.1790609 L132.884559,52.1790609 L135.359559,46.2852348 Z" id="Fill-57" fill="#1A3667"></path>
                <path d="M137.676912,49.2436783 C137.532794,49.5836783 137.444559,49.8911565 137.409265,50.1646348 C137.373971,50.4410696 137.390147,50.6775913 137.456324,50.8756783 C137.5225,51.0737652 137.635735,51.2275043 137.798971,51.3354174 C137.960735,51.4448087 138.168088,51.4980261 138.418088,51.4980261 C138.668088,51.4980261 138.921029,51.4448087 139.173971,51.3354174 C139.428382,51.2275043 139.6725,51.0737652 139.904853,50.8756783 C140.137206,50.6775913 140.350441,50.4410696 140.546029,50.1646348 C140.741618,49.8911565 140.910735,49.5836783 141.054853,49.2436783 C141.1975,48.9051565 141.285735,48.5962 141.3225,48.3168087 C141.359265,48.0374174 141.346029,47.7964609 141.281324,47.5939391 C141.218088,47.3914174 141.103382,47.2376783 140.940147,47.1268087 C140.776912,47.0174174 140.571029,46.9642 140.3225,46.9642 C140.0725,46.9642 139.819559,47.0174174 139.566618,47.1268087 C139.310735,47.2376783 139.066618,47.3914174 138.832794,47.5939391 C138.598971,47.7964609 138.382794,48.0374174 138.187206,48.3168087 C137.987206,48.5962 137.819559,48.9051565 137.676912,49.2436783 M136.650441,49.2436783 C136.856324,48.7514174 137.115147,48.3123739 137.425441,47.9280261 C137.735735,47.5436783 138.071029,47.2199391 138.434265,46.9508957 C138.794559,46.6848087 139.168088,46.4837652 139.548971,46.3448087 C139.932794,46.2073304 140.306324,46.1378522 140.668088,46.1378522 C141.029853,46.1378522 141.344559,46.2073304 141.613676,46.3448087 C141.881324,46.4837652 142.084265,46.6848087 142.2225,46.9508957 C142.359265,47.2199391 142.4225,47.5436783 142.407794,47.9280261 C142.396029,48.3123739 142.287206,48.7514174 142.079853,49.2436783 C141.875441,49.7285478 141.619559,50.1631565 141.307794,50.5489826 C141.000441,50.9318522 140.663676,51.2555913 140.304853,51.5172435 C139.944559,51.7818522 139.573971,51.9814174 139.190147,52.1174174 C138.806324,52.2563739 138.435735,52.3243739 138.073971,52.3243739 C137.710735,52.3243739 137.394559,52.2563739 137.126912,52.1174174 C136.859265,51.9814174 136.654853,51.7818522 136.516618,51.5172435 C136.375441,51.2555913 136.312206,50.9318522 136.326912,50.5489826 C136.338676,50.1631565 136.446029,49.7285478 136.650441,49.2436783" id="Fill-59" fill="#1A3667"></path>
                <path d="M144.866176,46.2856783 L145.685294,46.2856783 L145.414706,47.1342 L145.448529,47.1342 C145.85,46.8503739 146.244118,46.6138522 146.635294,46.4246348 C147.023529,46.2354174 147.423529,46.1378522 147.833824,46.1378522 C148.452941,46.1378522 148.823529,46.3329826 148.947059,46.7217652 C149.067647,47.1105478 148.972059,47.6826348 148.651471,48.4439391 L147.085294,52.1780261 L146.095588,52.1780261 L147.607353,48.5769826 C147.841176,48.0182 147.920588,47.616113 147.847059,47.3707217 C147.776471,47.1223739 147.544118,46.9996783 147.158824,46.9996783 C146.852941,46.9996783 146.551471,47.0765478 146.252941,47.2317652 C145.957353,47.3840261 145.595588,47.6102 145.173529,47.910287 L143.380882,52.1780261 L142.391176,52.1780261 L144.866176,46.2856783 Z" id="Fill-61" fill="#1A3667"></path>
                <g id="Group-65" transform="translate(0.000000, 54.935870)">
                    <mask id="mask-2" fill="white">
                        <use xlink:href="#path-1"></use>
                    </mask>
                    <g id="Clip-64"></g>
                    <polygon id="Fill-63" fill="#CA2026" mask="url(#mask-2)" points="44.9952941 7.5616 5.34676471 7.5616 4.97323529 7.5616 5.14529412 7.15064348 7.60852941 1.28490435 4.20705882 1.28490435 -0.000294117647 11.3045565 43.4438235 11.3045565"></polygon>
                </g>
                <polygon id="Fill-66" fill="#1A3667" points="17.4757353 24.7556957 20.8772059 24.7556957 23.3404412 18.8884783 23.5125 18.479 23.8845588 18.479 63.1610294 18.479 63.5345588 18.479 63.3625 18.8884783 60.8992647 24.7556957 64.3007353 24.7556957 68.5066176 14.7360435 21.6830882 14.7360435"></polygon>
                <path d="M6.19205882,45.1063217 C5.67294118,46.4101478 5.20382353,48.887713 8.93911765,48.887713 C10.9641176,48.887713 13.4508824,48.3348435 14.4905882,45.8543217 C15.2582353,44.0286696 13.9229412,43.5393652 12.0008824,42.9539739 L10.0523529,42.3656261 C7.11264706,41.4860609 4.27294118,40.6390174 6.43764706,35.4858 C7.53176471,32.8796261 10.6876471,28.283713 17.3332353,28.283713 C23.6082353,28.283713 23.32,32.9771913 22.145,35.8450174 L18.0376471,35.8450174 C18.3611765,34.8028435 19.0582353,32.3252783 15.3229412,32.3252783 C13.6964706,32.3252783 11.47,33.0082348 10.5802941,35.1295391 C9.81411765,36.953713 10.9611765,37.3469304 11.7214706,37.5745826 L16.1229412,38.9774522 C18.5905882,39.7594522 20.6097059,41.0618 18.845,45.2659739 C15.8876471,52.3113652 9.35235294,52.9292783 7.55676471,52.9292783 C0.0847058824,52.9292783 0.867058824,48.0081478 2.08470588,45.1063217 L6.19205882,45.1063217 Z" id="Fill-68" fill="#1A3667"></path>
                <path d="M31.1260294,28.9031043 L41.4642647,28.9031043 C46.6789706,28.9031043 46.5054412,32.4893652 45.4922059,34.901887 C44.0833824,38.2575391 41.9672059,39.2051043 40.8745588,39.6944087 C43.0289706,40.7691043 42.7525,43.0500609 41.7804412,45.3664957 C41.0010294,47.2261478 39.5510294,48.9852783 37.9186765,50.1915391 C36.1569118,51.493887 34.6583824,52.3113652 30.3039706,52.3113652 L21.2995588,52.3113652 L31.1260294,28.9031043 Z M31.5451471,38.0624087 L36.7598529,38.0624087 C38.5069118,38.0624087 40.2142647,37.3129304 40.9951471,35.4562348 C41.8025,33.5315391 40.8054412,32.9431913 38.7907353,32.9431913 L33.6951471,32.9431913 L31.5451471,38.0624087 Z M27.2613235,48.2683217 L32.7127941,48.2683217 C34.8760294,48.2683217 36.5569118,47.2261478 37.5569118,44.8431913 C38.4186765,42.7928435 37.1480882,42.0064087 35.5480882,42.0064087 L29.8907353,42.0064087 L27.2613235,48.2683217 Z" id="Fill-70" fill="#1A3667"></path>
                <polygon id="Fill-72" fill="#1A3667" points="62.5289706 28.8945304 59.1539706 28.8945304 42.5657353 52.3175739 46.8304412 52.3175739 57.4260294 36.9392261 55.1775 52.3175739 59.4422059 52.3175739"></polygon>
                <polygon id="Fill-74" fill="#1A3667" points="48.4061765 62.4744087 43.4444118 66.2395391 49.265 52.3749304 52.6458824 52.3749304"></polygon>
                <path d="M354.101765,58.8235478 L354.500294,58.7259826 L354.500294,60.5959826 C354.500294,60.7866783 354.520882,60.9418957 354.559118,61.0616348 C354.597353,61.1813739 354.648824,61.2700696 354.716471,61.3306783 C354.781176,61.3927652 354.859118,61.4297217 354.948824,61.4415478 C355.038529,61.4518957 355.134118,61.4459826 355.237059,61.4208522 C355.342941,61.3957217 355.441471,61.3543304 355.531176,61.2996348 C355.619412,61.2419826 355.698824,61.1680696 355.766471,61.0734609 C355.834118,60.9788522 355.887059,60.8635478 355.925294,60.7245913 C355.963529,60.5856348 355.982647,60.4230261 355.982647,60.2323304 L355.982647,58.3623304 L356.367941,58.2662435 L356.367941,60.1273739 C356.367941,60.383113 356.338529,60.6033739 356.279706,60.7925913 C356.222353,60.9803304 356.142941,61.1399826 356.041471,61.2730261 C355.941471,61.4060696 355.822353,61.5125043 355.684118,61.5938087 C355.545882,61.675113 355.397353,61.7342435 355.237059,61.7726783 C355.076765,61.8125913 354.926765,61.8258957 354.787059,61.8140696 C354.647353,61.8022435 354.526765,61.7534609 354.426765,61.6721565 C354.325294,61.5878957 354.245882,61.4652 354.188529,61.3070261 C354.132647,61.1458957 354.101765,60.9404174 354.101765,60.6846783 L354.101765,58.8235478 Z" id="Fill-76" fill="#1A3667"></path>
                <path d="M357.025735,61.0351739 C357.025735,60.9420435 357.055147,60.8592609 357.109559,60.7897826 C357.166912,60.7188261 357.234559,60.6744783 357.313971,60.6537826 C357.391912,60.6345652 357.458088,60.6463913 357.513971,60.6907391 C357.569853,60.7321304 357.597794,60.8016087 357.597794,60.8947391 C357.597794,60.9819565 357.569853,61.0603043 357.513971,61.1297826 C357.458088,61.1992609 357.391912,61.245087 357.313971,61.2628261 C357.234559,61.2835217 357.166912,61.2716957 357.109559,61.2303043 C357.055147,61.1874348 357.025735,61.1223913 357.025735,61.0351739" id="Fill-78" fill="#1A3667"></path>
                <path d="M358.348382,60.2584957 C358.461618,60.3501478 358.5925,60.4122348 358.746912,60.447713 C358.898382,60.4831913 359.055735,60.4802348 359.218971,60.4418 C359.427794,60.3900609 359.591029,60.3013652 359.704265,60.1786696 C359.820441,60.0544957 359.879265,59.9170174 359.879265,59.7603217 C359.879265,59.6804957 359.864559,59.6154522 359.838088,59.5651913 C359.810147,59.5164087 359.773382,59.4764957 359.726324,59.4484087 C359.680735,59.4203217 359.624853,59.3966696 359.560147,59.3789304 C359.495441,59.3641478 359.427794,59.3464087 359.354265,59.3301478 L358.902794,59.2429304 C358.827794,59.2281478 358.752794,59.2074522 358.676324,59.1808435 C358.598382,59.155713 358.529265,59.1187565 358.468971,59.0670174 C358.408676,59.019713 358.358676,58.9546696 358.318971,58.8748435 C358.280735,58.7964957 358.261618,58.6974522 358.261618,58.5821478 C358.261618,58.463887 358.286618,58.3456261 358.336618,58.2303217 C358.385147,58.1150174 358.455735,58.0085826 358.543971,57.9124957 C358.630735,57.8149304 358.736618,57.7291913 358.857206,57.6567565 C358.976324,57.5858 359.108676,57.5325826 359.251324,57.4985826 C359.4425,57.4527565 359.616029,57.4453652 359.777794,57.477887 C359.936618,57.5104087 360.074853,57.5724957 360.185147,57.659713 L359.970441,57.9745826 C359.873382,57.9036261 359.7675,57.8563217 359.649853,57.8326696 C359.533676,57.8090174 359.399853,57.8149304 359.251324,57.8504087 C359.076324,57.8932783 358.933676,57.9701478 358.826324,58.0780609 C358.718971,58.1889304 358.6675,58.3145826 358.6675,58.4594522 C358.6675,58.5363217 358.682206,58.5984087 358.711618,58.6427565 C358.7425,58.6885826 358.783676,58.7270174 358.833676,58.7536261 C358.885147,58.781713 358.941029,58.803887 359.002794,58.8171913 C359.063088,58.8334522 359.126324,58.8467565 359.191029,58.8571043 L359.638088,58.939887 C359.726324,58.9576261 359.811618,58.9812783 359.8925,59.0108435 C359.971912,59.041887 360.041029,59.0818 360.098382,59.1335391 C360.157206,59.1852783 360.202794,59.2518 360.235147,59.3316261 C360.271912,59.4144087 360.286618,59.5119739 360.286618,59.6272783 C360.286618,59.7529304 360.263088,59.8771043 360.213088,59.9968435 C360.161618,60.1195391 360.091029,60.2333652 359.998382,60.3398 C359.905735,60.4447565 359.7925,60.5349304 359.661618,60.6147565 C359.530735,60.6945826 359.380735,60.753713 359.214559,60.7936261 C358.9925,60.8483217 358.788088,60.8571913 358.598382,60.8202348 C358.410147,60.7818 358.246912,60.7093652 358.108676,60.5970174 L358.348382,60.2584957 Z" id="Fill-80" fill="#1A3667"></path>
                <path d="M360.785588,60.1097826 C360.785588,60.0166522 360.813529,59.9338696 360.869412,59.8643913 C360.926765,59.7934348 360.994412,59.749087 361.073824,59.7283913 C361.151765,59.7091739 361.217941,59.721 361.273824,59.7653478 C361.329706,59.8067391 361.357647,59.8762174 361.357647,59.9678696 C361.357647,60.055087 361.329706,60.134913 361.273824,60.2043913 C361.217941,60.2738696 361.151765,60.3196957 361.073824,60.3374348 C360.994412,60.3581304 360.926765,60.3463043 360.869412,60.304913 C360.813529,60.2620435 360.785588,60.197 360.785588,60.1097826" id="Fill-82" fill="#1A3667"></path>
                <path d="M363.084706,59.0934783 C363.197941,59.1851304 363.328824,59.2486957 363.483235,59.2841739 C363.634706,59.3196522 363.790588,59.3166957 363.955294,59.2767826 C364.164118,59.2265217 364.325882,59.1378261 364.440588,59.0151304 C364.556765,58.8909565 364.614118,58.7534783 364.614118,58.5967826 C364.614118,58.5169565 364.600882,58.4504348 364.572941,58.4016522 C364.546471,58.3513913 364.509706,58.3129565 364.462647,58.2848696 C364.417059,58.2567826 364.361176,58.2331304 364.296471,58.2153913 C364.231765,58.2006087 364.164118,58.1828696 364.090588,58.1651304 L363.639118,58.077913 C363.564118,58.0646087 363.489118,58.0424348 363.412647,58.0173043 C363.334706,57.9921739 363.265588,57.9537391 363.203824,57.9034783 C363.145,57.8546957 363.095,57.7911304 363.053824,57.7098261 C363.017059,57.6329565 362.997941,57.533913 362.997941,57.4186087 C362.997941,57.2988696 363.022941,57.182087 363.072941,57.0653043 C363.121471,56.9514783 363.192059,56.8450435 363.280294,56.7474783 C363.367059,56.649913 363.472941,56.5641739 363.592059,56.4932174 C363.712647,56.4222609 363.845,56.3690435 363.987647,56.3335652 C364.177353,56.2877391 364.352353,56.2818261 364.514118,56.3128696 C364.672941,56.3468696 364.809706,56.4089565 364.921471,56.4961739 L364.706765,56.8095652 C364.609706,56.740087 364.503824,56.6927826 364.386176,56.6691304 C364.27,56.6454783 364.136176,56.649913 363.987647,56.6853913 C363.812647,56.7282609 363.67,56.8066087 363.562647,56.9145217 C363.455294,57.023913 363.402353,57.1495652 363.402353,57.2944348 C363.402353,57.3713043 363.418529,57.4348696 363.446471,57.4792174 C363.478824,57.5235652 363.52,57.562 363.57,57.590087 C363.621471,57.6181739 363.677353,57.6388696 363.737647,57.6536522 C363.799412,57.669913 363.862647,57.6832174 363.927353,57.6935652 L364.372941,57.7763478 C364.462647,57.794087 364.547941,57.8162609 364.628824,57.8458261 C364.708235,57.8783478 364.777353,57.9182609 364.834706,57.9685217 C364.893529,58.0202609 364.939118,58.0882609 364.971471,58.168087 C365.006765,58.2493913 365.022941,58.3469565 365.022941,58.4622609 C365.022941,58.587913 364.999412,58.712087 364.949412,58.8333043 C364.897941,58.956 364.827353,59.0698261 364.734706,59.1747826 C364.642059,59.2797391 364.528824,59.369913 364.397941,59.4512174 C364.267059,59.5295652 364.117059,59.5901739 363.950882,59.630087 C363.728824,59.6847826 363.524412,59.6936522 363.334706,59.6566957 C363.146471,59.6182609 362.983235,59.5458261 362.845,59.432 L363.084706,59.0934783 Z" id="Fill-84" fill="#1A3667"></path>
                <path d="M365.605147,56.8169565 L365.931618,56.7371304 L365.965441,57.0682609 L365.980147,57.0638261 C366.081618,56.9263478 366.193382,56.8036522 366.313971,56.7001739 C366.433088,56.5937391 366.563971,56.5242609 366.706618,56.4887826 C366.886029,56.4444348 367.025735,56.4503478 367.127206,56.5035652 C367.228676,56.5582609 367.302206,56.649913 367.350735,56.7814783 C367.474265,56.6144348 367.594853,56.4754783 367.718382,56.3631304 C367.841912,56.2522609 367.975735,56.1768696 368.121324,56.1413913 C368.361029,56.0822609 368.538971,56.1162609 368.656618,56.241913 C368.772794,56.3675652 368.831618,56.5833913 368.831618,56.8849565 L368.831618,58.3750435 L368.4375,58.4711304 L368.4375,57.0342609 C368.4375,56.8125217 368.402206,56.6617391 368.331618,56.5804348 C368.2625,56.4991304 368.152206,56.4784348 368.005147,56.513913 C367.830147,56.5567826 367.633088,56.7253043 367.416912,57.0209565 L367.416912,58.7224348 L367.024265,58.8185217 L367.024265,57.3831304 C367.024265,57.159913 366.9875,57.0091304 366.918382,56.9278261 C366.847794,56.848 366.7375,56.8258261 366.586029,56.8613043 C366.411029,56.9056522 366.213971,57.0756522 365.999265,57.3683478 L365.999265,59.0698261 L365.605147,59.1673913 L365.605147,56.8169565 Z" id="Fill-86" fill="#1A3667"></path>
                <path d="M369.866176,57.4809913 C369.866176,57.6169913 369.904412,57.7027304 369.983824,57.7426435 C370.063235,57.7796 370.160294,57.785513 370.273529,57.7574261 C370.386765,57.7293391 370.494118,57.6776 370.595588,57.5992522 C370.695588,57.5194261 370.802941,57.4159478 370.914706,57.2843826 L370.914706,56.6324696 C370.719118,56.7063826 370.554412,56.7773391 370.419118,56.8468174 C370.283824,56.9162957 370.176471,56.9842957 370.094118,57.0522957 C370.013235,57.1217739 369.954412,57.1912522 369.919118,57.263687 C369.883824,57.3331652 369.866176,57.4070783 369.866176,57.4809913 M369.476471,57.6051652 C369.476471,57.3464696 369.591176,57.1232522 369.820588,56.9296 C370.05,56.7344696 370.414706,56.549687 370.914706,56.3708174 C370.914706,56.2969043 370.907353,56.2259478 370.892647,56.1594261 C370.877941,56.0929043 370.854412,56.0352522 370.816176,55.9894261 C370.779412,55.9436 370.730882,55.9110783 370.669118,55.8933391 C370.608824,55.8741217 370.529412,55.8770783 370.433824,55.9007304 C370.295588,55.9347304 370.169118,55.9909043 370.051471,56.0707304 C369.933824,56.1520348 369.830882,56.2348174 369.735294,56.323513 L369.577941,56.0869913 C369.685294,55.9894261 369.820588,55.8889043 369.976471,55.7839478 C370.133824,55.677513 370.307353,55.6021217 370.497059,55.5562957 C370.780882,55.4853391 370.989706,55.5237739 371.117647,55.6671652 C371.244118,55.8105565 371.308824,56.0308174 371.308824,56.323513 L371.308824,57.7633391 L370.982353,57.8446435 L370.948529,57.5726435 L370.938235,57.5741217 C370.826471,57.6968174 370.705882,57.8062087 370.575,57.9037739 C370.447059,58.0013391 370.308824,58.0678609 370.164706,58.1033391 C369.964706,58.1521217 369.801471,58.1343826 369.672059,58.0516 C369.541176,57.9658609 369.476471,57.8180348 369.476471,57.6051652" id="Fill-88" fill="#1A3667"></path>
                <path d="M372.054706,54.1376087 L372.448824,54.0415217 L372.448824,57.0394348 C372.448824,57.1044783 372.459118,57.1458696 372.482647,57.1665652 C372.506176,57.1872609 372.529706,57.1916957 372.560588,57.1857826 C372.572353,57.1828261 372.582647,57.1798696 372.595882,57.176913 C372.607647,57.1739565 372.623824,57.1665652 372.645882,57.1547391 L372.698824,57.4400435 C372.672353,57.4607391 372.641471,57.4784783 372.607647,57.4932609 C372.572353,57.5080435 372.526765,57.5228261 372.472353,57.5361304 C372.322353,57.5716087 372.215,57.5553478 372.150294,57.4799565 C372.085588,57.4060435 372.054706,57.2803913 372.054706,57.1074348 L372.054706,54.1376087 Z" id="Fill-90" fill="#1A3667"></path>
                <path d="M373.281176,53.8358957 L373.675294,53.7398087 L373.675294,56.7377217 C373.675294,56.8027652 373.684118,56.8441565 373.709118,56.8648522 C373.731176,56.8855478 373.756176,56.8899826 373.785588,56.8840696 C373.798824,56.881113 373.809118,56.8781565 373.822353,56.8752 C373.832647,56.8722435 373.850294,56.8648522 373.872353,56.8545043 L373.923824,57.1398087 C373.898824,57.1590261 373.867941,57.1767652 373.832647,57.1915478 C373.798824,57.2063304 373.753235,57.221113 373.698824,57.2344174 C373.548824,57.2713739 373.44,57.2536348 373.376765,57.1782435 C373.312059,57.1043304 373.281176,56.9786783 373.281176,56.8057217 L373.281176,53.8358957 Z" id="Fill-92" fill="#1A3667"></path>
                <path d="M376.463676,56.177313 C376.738676,56.1107913 376.948971,56.0087913 377.100441,55.8683565 C377.250441,55.7294 377.326912,55.553487 377.326912,55.3376609 C377.326912,55.1410522 377.251912,55.0139217 377.104853,54.9592261 C376.956324,54.9045304 376.743088,54.9104435 376.463676,54.9769652 L375.916618,55.1129652 L375.916618,56.313313 L376.463676,56.177313 Z M376.382794,54.6990522 C376.654853,54.6325304 376.850441,54.5379217 376.968088,54.4167043 C377.085735,54.2940087 377.143088,54.1432261 377.143088,53.9658348 C377.143088,53.7928783 377.081324,53.6820087 376.957794,53.6361826 C376.834265,53.5903565 376.650441,53.5992261 376.403382,53.6598348 L375.916618,53.7795739 L375.916618,54.8143565 L376.382794,54.6990522 Z M375.516618,53.559313 L376.456324,53.3272261 C376.615147,53.2887913 376.762206,53.2666174 376.896029,53.2621826 C377.028382,53.2577478 377.143088,53.2769652 377.237206,53.3139217 C377.332794,53.3523565 377.404853,53.4144435 377.457794,53.4987043 C377.510735,53.5844435 377.537206,53.6967913 377.537206,53.8357478 C377.537206,53.9924435 377.491618,54.1461826 377.403382,54.295487 C377.312206,54.4447913 377.175441,54.5660087 376.988676,54.6620957 L376.988676,54.6798348 C377.221029,54.6606174 377.398971,54.6960957 377.528382,54.7907043 C377.656324,54.8838348 377.721029,55.0405304 377.721029,55.2607913 C377.721029,55.4145304 377.691618,55.5564435 377.632794,55.6865304 C377.576912,55.8180957 377.493088,55.9348783 377.387206,56.0368783 C377.284265,56.1418348 377.156324,56.2290522 377.007794,56.3059217 C376.860735,56.381313 376.698971,56.4389652 376.5225,56.4818348 L375.516618,56.7301826 L375.516618,53.559313 Z" id="Fill-94" fill="#1A3667"></path>
                <path d="M378.273235,53.7015217 L378.671765,53.6039565 L378.671765,55.0393478 C378.671765,55.2625652 378.705588,55.4148261 378.776176,55.4961304 C378.845294,55.5774348 378.955588,55.5981304 379.108529,55.5611739 C379.232059,55.5301304 379.339412,55.4739565 379.432059,55.3882174 C379.526176,55.3024783 379.629118,55.1768261 379.739412,55.0112609 L379.739412,53.3423043 L380.135,53.2432609 L380.135,55.5936957 L379.807059,55.675 L379.774706,55.3157826 L379.76,55.3187391 C379.651176,55.4754348 379.535,55.6055217 379.414412,55.7134348 C379.293824,55.8198696 379.152647,55.8937826 378.989412,55.9336957 C378.739412,55.9957826 378.557059,55.9632609 378.443824,55.8346522 C378.329118,55.709 378.273235,55.4946522 378.273235,55.1916087 L378.273235,53.7015217 Z" id="Fill-96" fill="#1A3667"></path>
                <path d="M380.861029,54.8867913 C380.9625,54.9444435 381.069853,54.9858348 381.177206,55.0109652 C381.284559,55.0375739 381.408088,55.0316609 381.549265,54.9961826 C381.702206,54.9592261 381.818382,54.8956609 381.894853,54.805487 C381.971324,54.7167913 382.011029,54.6192261 382.011029,54.5157478 C382.011029,54.4551391 381.994853,54.4063565 381.9625,54.3679217 C381.930147,54.3324435 381.888971,54.3014 381.838971,54.2807043 C381.790441,54.2570522 381.733088,54.2422696 381.669853,54.2334 C381.605147,54.2230522 381.540441,54.2127043 381.477206,54.2023565 C381.391912,54.193487 381.311029,54.1801826 381.227206,54.1654 C381.141912,54.1491391 381.069853,54.1210522 381.003676,54.0840957 C380.9375,54.0486174 380.884559,53.9983565 380.841912,53.9377478 C380.799265,53.8771391 380.778676,53.7987913 380.778676,53.6967913 C380.778676,53.6051391 380.797794,53.5120087 380.834559,53.4203565 C380.871324,53.3287043 380.924265,53.2459217 380.993382,53.1675739 C381.0625,53.0907043 381.144853,53.0241826 381.246324,52.9650522 C381.344853,52.9074 381.456618,52.8630522 381.581618,52.8320087 C381.730147,52.7965304 381.866912,52.7891391 381.988971,52.811313 C382.113971,52.8305304 382.218382,52.8689652 382.309559,52.9192261 L382.119853,53.2178348 C382.041912,53.1764435 381.958088,53.1454 381.871324,53.1306174 C381.784559,53.1114 381.688971,53.1143565 381.586029,53.139487 C381.440441,53.1764435 381.331618,53.2385304 381.2625,53.321313 C381.193382,53.4070522 381.159559,53.4942696 381.159559,53.5844435 C381.159559,53.6391391 381.174265,53.683487 381.202206,53.717487 C381.231618,53.7500087 381.269853,53.7751391 381.318382,53.7943565 C381.366912,53.8135739 381.422794,53.8268783 381.483088,53.8357478 C381.546324,53.8446174 381.6125,53.853487 381.678676,53.8623565 C381.7625,53.8741826 381.846324,53.887487 381.931618,53.9022696 C382.016912,53.9170522 382.091912,53.9421826 382.161029,53.9806174 C382.227206,54.0160957 382.283088,54.0678348 382.325735,54.1328783 C382.368382,54.2008783 382.390441,54.2895739 382.390441,54.3989652 C382.390441,54.4950522 382.371324,54.5896609 382.336029,54.681313 C382.299265,54.7759217 382.243382,54.8631391 382.171324,54.9459217 C382.100735,55.0287043 382.009559,55.1011391 381.902206,55.1632261 C381.794853,55.2267913 381.672794,55.2770522 381.534559,55.3095739 C381.368382,55.3509652 381.208088,55.3598348 381.058088,55.3361826 C380.906618,55.3110522 380.775735,55.2667043 380.663971,55.2001826 L380.861029,54.8867913 Z" id="Fill-98" fill="#1A3667"></path>
                <path d="M382.940588,52.5567565 L383.333235,52.4606696 L383.333235,54.8096261 L382.940588,54.9071913 L382.940588,52.5567565 Z M383.142059,52.0231043 C383.064118,52.0423217 382.999412,52.0334522 382.946471,51.9994522 C382.895,51.9654522 382.867059,51.9092783 382.867059,51.8353652 C382.867059,51.7570174 382.895,51.6875391 382.946471,51.629887 C382.999412,51.5692783 383.064118,51.5293652 383.142059,51.5101478 C383.218529,51.4909304 383.283235,51.4998 383.336176,51.5338 C383.389118,51.5663217 383.415588,51.6224957 383.415588,51.7008435 C383.415588,51.7747565 383.389118,51.8427565 383.336176,51.9033652 C383.283235,51.9654522 383.218529,52.003887 383.142059,52.0231043 Z" id="Fill-100" fill="#1A3667"></path>
                <path d="M384.1225,52.2652435 L384.450441,52.1854174 L384.482794,52.5165478 L384.498971,52.5135913 C384.609265,52.3716783 384.728382,52.2475043 384.850441,52.1425478 C384.973971,52.0375913 385.118088,51.9636783 385.282794,51.9237652 C385.528382,51.8631565 385.709265,51.8956783 385.821029,52.0228087 C385.935735,52.1499391 385.993088,52.364287 385.993088,52.6658522 L385.993088,54.1559391 L385.598971,54.2535043 L385.598971,52.8166348 C385.598971,52.5948957 385.563676,52.4426348 385.493088,52.3613304 C385.423971,52.2815043 385.310735,52.2593304 385.156324,52.296287 C385.035735,52.3273304 384.928382,52.3835043 384.834265,52.4692435 C384.741618,52.5520261 384.635735,52.6688087 384.516618,52.8166348 L384.516618,54.518113 L384.1225,54.6156783 L384.1225,52.2652435 Z" id="Fill-102" fill="#1A3667"></path>
                <path d="M388.213971,52.262287 C388.213971,52.0198522 388.163971,51.8468957 388.061029,51.7448957 C387.9625,51.6428957 387.818382,51.6148087 387.636029,51.6591565 C387.553676,51.6783739 387.474265,51.7168087 387.397794,51.7685478 C387.324265,51.820287 387.256618,51.8853304 387.194853,51.9622 C387.134559,52.0420261 387.083088,52.1307217 387.041912,52.2312435 C387.003676,52.3347217 386.977206,52.4455913 386.9625,52.5697652 L388.213971,52.262287 Z M386.580147,52.8432435 C386.580147,52.6495913 386.608088,52.4692435 386.666912,52.2992435 C386.727206,52.1322 386.805147,51.9858522 386.902206,51.854287 C387.000735,51.7227217 387.1125,51.6148087 387.2375,51.5275913 C387.363971,51.4388957 387.493382,51.378287 387.627206,51.3472435 C387.774265,51.3088087 387.908088,51.3043739 388.024265,51.3265478 C388.140441,51.3487217 388.240441,51.3989826 388.316912,51.4773304 C388.396324,51.5542 388.455147,51.6562 388.497794,51.7803739 C388.540441,51.9060261 388.559559,52.0523739 388.559559,52.2208957 C388.559559,52.3066348 388.555147,52.3805478 388.547794,52.4396783 L386.968382,52.8284609 C386.984559,53.0797652 387.0625,53.2615913 387.202206,53.3754174 C387.340441,53.4892435 387.522794,53.5188087 387.747794,53.4626348 C387.861029,53.4360261 387.963971,53.3946348 388.059559,53.3369826 C388.153676,53.2793304 388.243382,53.214287 388.330147,53.1374174 L388.469853,53.3635913 C388.366912,53.4537652 388.252206,53.5365478 388.127206,53.6163739 C388.002206,53.6962 387.861029,53.7553304 387.699265,53.7937652 C387.541912,53.8322 387.394853,53.8410696 387.259559,53.8188957 C387.124265,53.7952435 387.005147,53.7435043 386.902206,53.6636783 C386.802206,53.5853304 386.722794,53.4744609 386.665441,53.3384609 C386.606618,53.2009826 386.580147,53.0339391 386.580147,52.8432435 Z" id="Fill-104" fill="#1A3667"></path>
                <path d="M389.075735,52.8671913 C389.177206,52.9263217 389.283088,52.967713 389.390441,52.9928435 C389.497794,53.0179739 389.621324,53.0135391 389.763971,52.9780609 C389.915441,52.9411043 390.031618,52.8760609 390.109559,52.785887 C390.186029,52.6971913 390.224265,52.5996261 390.224265,52.4961478 C390.224265,52.4355391 390.208088,52.3867565 390.175735,52.3498 C390.144853,52.3128435 390.103676,52.2818 390.053676,52.2625826 C390.005147,52.2389304 389.947794,52.2241478 389.883088,52.2138 C389.818382,52.2049304 389.755147,52.1931043 389.690441,52.1842348 C389.606618,52.1753652 389.524265,52.1620609 389.440441,52.1472783 C389.356618,52.1295391 389.283088,52.1029304 389.218382,52.0659739 C389.150735,52.0290174 389.097794,51.9787565 389.055147,51.9181478 C389.013971,51.8575391 388.991912,51.7791913 388.991912,51.6771913 C388.991912,51.5855391 389.011029,51.4924087 389.047794,51.4022348 C389.086029,51.3091043 389.1375,51.2263217 389.208088,51.1479739 C389.277206,51.0725826 389.359559,51.0060609 389.461029,50.9454522 C389.559559,50.8892783 389.669853,50.8449304 389.796324,50.8124087 C389.944853,50.7769304 390.080147,50.7695391 390.203676,50.791713 C390.327206,50.8109304 390.433088,50.8493652 390.522794,50.8996261 L390.334559,51.199713 C390.255147,51.1568435 390.171324,51.1272783 390.086029,51.1110174 C389.999265,51.0932783 389.903676,51.0962348 389.800735,51.1213652 C389.655147,51.1568435 389.544853,51.2189304 389.475735,51.3031913 C389.408088,51.3874522 389.374265,51.4746696 389.374265,51.5648435 C389.374265,51.6195391 389.3875,51.6653652 389.416912,51.697887 C389.444853,51.7304087 389.483088,51.7570174 389.531618,51.7747565 C389.580147,51.7939739 389.636029,51.8087565 389.697794,51.8161478 C389.761029,51.8264957 389.825735,51.833887 389.893382,51.8442348 C389.975735,51.8560609 390.061029,51.8693652 390.146324,51.8841478 C390.230147,51.8989304 390.305147,51.9240609 390.374265,51.9610174 C390.441912,51.9964957 390.497794,52.0482348 390.540441,52.1147565 C390.583088,52.1812783 390.603676,52.2714522 390.603676,52.3808435 C390.603676,52.4769304 390.586029,52.5715391 390.549265,52.6631913 C390.5125,52.7563217 390.456618,52.8450174 390.386029,52.9263217 C390.313971,53.0091043 390.222794,53.0830174 390.115441,53.1451043 C390.009559,53.2071913 389.886029,53.2574522 389.749265,53.2899739 C389.581618,53.3313652 389.422794,53.3402348 389.272794,53.3180609 C389.121324,53.2914522 388.988971,53.2485826 388.878676,53.1820609 L389.075735,52.8671913 Z" id="Fill-106" fill="#1A3667"></path>
                <path d="M391.090588,52.3719739 C391.192059,52.4296261 391.299412,52.4724957 391.406765,52.4961478 C391.514118,52.5227565 391.637647,52.5183217 391.778824,52.4828435 C391.931765,52.445887 392.047941,52.3808435 392.124412,52.2906696 C392.202353,52.2019739 392.240588,52.1044087 392.240588,52.0009304 C392.240588,51.9403217 392.224412,51.8915391 392.192059,51.8545826 C392.159706,51.8176261 392.118529,51.7865826 392.068529,51.765887 C392.02,51.743713 391.962647,51.7274522 391.899412,51.7200609 C391.834706,51.7082348 391.77,51.697887 391.706765,51.6875391 C391.621471,51.6786696 391.540588,51.6668435 391.456765,51.6520609 C391.372941,51.6343217 391.299412,51.6062348 391.233235,51.5707565 C391.167059,51.5338 391.114118,51.4835391 391.071471,51.4229304 C391.030294,51.3623217 391.008235,51.2839739 391.008235,51.1819739 C391.008235,51.0903217 391.027353,50.9971913 391.064118,50.9055391 C391.100882,50.813887 391.153824,50.7311043 391.224412,50.6527565 C391.292059,50.5773652 391.375882,50.5093652 391.475882,50.4502348 C391.574412,50.3940609 391.686176,50.3482348 391.812647,50.3171913 C391.961176,50.281713 392.096471,50.2743217 392.218529,50.2964957 C392.343529,50.315713 392.449412,50.3541478 392.539118,50.4044087 L392.350882,50.7030174 C392.271471,50.6616261 392.187647,50.6305826 392.100882,50.6158 C392.014118,50.5980609 391.918529,50.6010174 391.815588,50.6246696 C391.67,50.6616261 391.561176,50.723713 391.492059,50.8064957 C391.424412,50.893713 391.389118,50.9794522 391.389118,51.0696261 C391.389118,51.1243217 391.403824,51.1701478 391.431765,51.2026696 C391.461176,51.2351913 391.499412,51.2603217 391.547941,51.2795391 C391.596471,51.2987565 391.652353,51.3120609 391.714118,51.3209304 C391.775882,51.3298 391.842059,51.3386696 391.909706,51.3490174 C391.992059,51.3608435 392.075882,51.3726696 392.161176,51.3889304 C392.246471,51.4022348 392.321471,51.4273652 392.390588,51.4658 C392.456765,51.5027565 392.512647,51.5530174 392.555294,51.6180609 C392.597941,51.6860609 392.62,51.7747565 392.62,51.8841478 C392.62,51.981713 392.600882,52.0763217 392.565588,52.1679739 C392.528824,52.2611043 392.472941,52.3483217 392.400882,52.4311043 C392.330294,52.513887 392.239118,52.5863217 392.131765,52.649887 C392.024412,52.7119739 391.902353,52.7622348 391.765588,52.7947565 C391.597941,52.8361478 391.437647,52.8450174 391.287647,52.8228435 C391.136176,52.7962348 391.005294,52.7533652 390.893529,52.6868435 L391.090588,52.3719739 Z" id="Fill-108" fill="#1A3667"></path>
                <path d="M360.0875,65.0397826 L359.9375,64.5918696 C359.881618,64.4292609 359.827206,64.2666522 359.775735,64.1025652 C359.724265,63.9399565 359.674265,63.772913 359.622794,63.6014348 L359.602206,63.6058696 C359.553676,63.8024783 359.505147,63.9931739 359.452206,64.1823913 C359.400735,64.3716087 359.347794,64.5608261 359.290441,64.753 L359.140441,65.2718696 L360.0875,65.0397826 Z M360.188971,65.336913 L359.040441,65.6207391 L358.736029,66.662913 L358.327206,66.7619565 L359.396324,63.3279565 L359.847794,63.217087 L360.913971,66.1263043 L360.486029,66.2327391 L360.188971,65.336913 Z" id="Fill-110" fill="#1A3667"></path>
                <path d="M361.565294,64.7914348 C361.565294,65.0752609 361.621176,65.2836957 361.734412,65.4123043 C361.844706,65.5423913 362.005,65.5823043 362.209412,65.5320435 C362.319706,65.5054348 362.421176,65.4536957 362.518235,65.3768261 C362.615294,65.3014348 362.710882,65.195 362.807941,65.0634348 L362.807941,63.835 C362.706471,63.7699565 362.612353,63.727087 362.518235,63.7137826 C362.428529,63.699 362.334412,63.7034348 362.238824,63.7256087 C362.146176,63.7492609 362.057941,63.7921304 361.977059,63.8556957 C361.894706,63.9207391 361.824118,63.999087 361.762353,64.0936957 C361.702059,64.1868261 361.653529,64.2932609 361.618235,64.4115217 C361.584412,64.5297826 361.565294,64.6554348 361.565294,64.7914348 M361.156471,64.8978696 C361.156471,64.7071739 361.184412,64.5283043 361.240294,64.3612609 C361.297647,64.1956957 361.371176,64.0463913 361.465294,63.9163043 C361.556471,63.7876957 361.663824,63.6797826 361.785882,63.591087 C361.907941,63.5038696 362.035882,63.4432609 362.171176,63.4092609 C362.306471,63.3767391 362.422647,63.3723043 362.521176,63.3959565 C362.621176,63.4196087 362.722647,63.4624783 362.824118,63.5216087 L362.807941,63.1239565 L362.807941,62.2192609 L363.205,62.1202174 L363.205,65.563087 L362.878529,65.6443913 L362.844706,65.3768261 L362.83,65.3797826 C362.737353,65.495087 362.631471,65.5985652 362.512353,65.6931739 C362.390294,65.7892609 362.262353,65.8528261 362.124118,65.8868261 C361.83,65.9592609 361.593235,65.9119565 361.418235,65.7419565 C361.244706,65.5719565 361.156471,65.291087 361.156471,64.8978696" id="Fill-112" fill="#1A3667"></path>
                <path d="M363.993824,63.0201826 L364.321765,62.9388783 L364.354118,63.2700087 L364.370294,63.2670522 C364.470294,63.1280957 364.582059,63.0054 364.702647,62.9019217 C364.821765,62.795487 364.954118,62.7260087 365.095294,62.6905304 C365.274706,62.6476609 365.414412,62.6535739 365.515882,62.705313 C365.617353,62.7600087 365.690882,62.8531391 365.739412,62.9832261 C365.862941,62.8176609 365.983529,62.6787043 366.107059,62.5663565 C366.230588,62.4540087 366.364412,62.3786174 366.51,62.3431391 C366.749706,62.2840087 366.927647,62.3180087 367.045294,62.4436609 C367.161471,62.569313 367.220294,62.7851391 367.220294,63.0867043 L367.220294,64.5767913 L366.826176,64.6728783 L366.826176,63.2360087 C366.826176,63.0142696 366.790882,62.863487 366.720294,62.7821826 C366.651176,62.7008783 366.540882,62.6801826 366.393824,62.7156609 C366.218824,62.7585304 366.021765,62.9285304 365.805588,63.2227043 L365.805588,64.9241826 L365.412941,65.0217478 L365.412941,63.5848783 C365.412941,63.3616609 365.376176,63.2108783 365.307059,63.1295739 C365.236471,63.0497478 365.126176,63.0275739 364.974706,63.0645304 C364.799706,63.1074 364.602647,63.2774 364.387941,63.5715739 L364.387941,65.2715739 L363.993824,65.3706174 L363.993824,63.0201826 Z" id="Fill-114" fill="#1A3667"></path>
                <path d="M367.981912,62.0384696 L368.376029,61.9438609 L368.376029,64.2928174 L367.981912,64.3889043 L367.981912,62.0384696 Z M368.184853,61.5062957 C368.106912,61.5240348 368.042206,61.5166435 367.989265,61.4811652 C367.936324,61.4471652 367.909853,61.3924696 367.909853,61.3185565 C367.909853,61.2402087 367.936324,61.1707304 367.989265,61.1116 C368.042206,61.0524696 368.106912,61.0125565 368.184853,60.9933391 C368.261324,60.9741217 368.324559,60.9829913 368.378971,61.0169913 C368.431912,61.049513 368.458382,61.105687 368.458382,61.1840348 C368.458382,61.2564696 368.431912,61.3259478 368.378971,61.3865565 C368.324559,61.4486435 368.261324,61.4870783 368.184853,61.5062957 Z" id="Fill-116" fill="#1A3667"></path>
                <path d="M369.165294,61.748287 L369.491765,61.6684609 L369.525588,61.9995913 L369.540294,61.9951565 C369.652059,61.8547217 369.771176,61.7305478 369.893235,61.6255913 C370.016765,61.5191565 370.160882,61.4467217 370.324118,61.4068087 C370.571176,61.3462 370.752059,61.3787217 370.863824,61.5058522 C370.978529,61.6315043 371.035882,61.8473304 371.035882,62.1488957 L371.035882,63.6375043 L370.641765,63.7365478 L370.641765,62.2996783 C370.641765,62.0779391 370.606471,61.9256783 370.535882,61.8443739 C370.465294,61.7645478 370.353529,61.7423739 370.199118,61.7793304 C370.077059,61.8103739 369.971176,61.8665478 369.877059,61.952287 C369.782941,62.0350696 369.678529,62.1518522 369.559412,62.2996783 L369.559412,64.0011565 L369.165294,64.0987217 L369.165294,61.748287 Z" id="Fill-118" fill="#1A3667"></path>
                <path d="M371.796324,61.1015478 L372.190441,61.0054609 L372.190441,63.3544174 L371.796324,63.4519826 L371.796324,61.1015478 Z M371.999265,60.5693739 C371.921324,60.587113 371.856618,60.5797217 371.803676,60.5442435 C371.750735,60.5102435 371.724265,60.4540696 371.724265,60.3801565 C371.724265,60.3018087 371.750735,60.2338087 371.803676,60.1746783 C371.856618,60.1155478 371.921324,60.0756348 371.999265,60.0564174 C372.074265,60.0372 372.138971,60.0460696 372.193382,60.0800696 C372.246324,60.1125913 372.271324,60.167287 372.271324,60.2456348 C372.271324,60.3195478 372.246324,60.3890261 372.193382,60.4496348 C372.138971,60.5117217 372.074265,60.5501565 371.999265,60.5693739 Z" id="Fill-120" fill="#1A3667"></path>
                <path d="M372.915,62.6461826 C373.016471,62.7038348 373.123824,62.7452261 373.231176,62.7703565 C373.338529,62.7969652 373.462059,62.7925304 373.603235,62.7570522 C373.756176,62.7186174 373.872353,62.6550522 373.948824,62.5648783 C374.025294,62.4747043 374.065,62.3786174 374.065,62.2751391 C374.065,62.2145304 374.048824,62.1657478 374.016471,62.127313 C373.984118,62.0918348 373.942941,62.0607913 373.892941,62.0400957 C373.844412,62.0164435 373.787059,62.0016609 373.723824,61.9927913 C373.659118,61.9824435 373.594412,61.9720957 373.531176,61.9617478 C373.445882,61.9528783 373.365,61.9395739 373.281176,61.9247913 C373.195882,61.9085304 373.123824,61.8804435 373.057647,61.843487 C372.991471,61.8080087 372.938529,61.7577478 372.895882,61.6971391 C372.853235,61.6365304 372.832647,61.5581826 372.832647,61.4561826 C372.832647,61.3645304 372.851765,61.2699217 372.888529,61.1797478 C372.925294,61.0880957 372.978235,61.005313 373.047353,60.9269652 C373.116471,60.8500957 373.198824,60.7835739 373.300294,60.7244435 C373.398824,60.6667913 373.510588,60.6224435 373.635588,60.5914 C373.784118,60.5559217 373.920882,60.5485304 374.042941,60.5707043 C374.167941,60.5884435 374.272353,60.6268783 374.363529,60.6786174 L374.173824,60.9772261 C374.095882,60.9358348 374.012059,60.9047913 373.925294,60.8900087 C373.838529,60.8707913 373.742941,60.8752261 373.64,60.8988783 C373.494412,60.9358348 373.385588,60.9964435 373.316471,61.0807043 C373.247353,61.1664435 373.213529,61.2536609 373.213529,61.3438348 C373.213529,61.3985304 373.228235,61.4428783 373.256176,61.4754 C373.285588,61.5094 373.323824,61.5345304 373.372353,61.5537478 C373.420882,61.5729652 373.476765,61.5862696 373.537059,61.5951391 C373.600294,61.6040087 373.666471,61.6128783 373.732647,61.6217478 C373.816471,61.6335739 373.900294,61.6468783 373.985588,61.6616609 C374.070882,61.6764435 374.145882,61.7015739 374.215,61.7385304 C374.281176,61.775487 374.337059,61.8272261 374.379706,61.8922696 C374.422353,61.9602696 374.444412,62.0489652 374.444412,62.1583565 C374.444412,62.2544435 374.425294,62.3490522 374.39,62.4421826 C374.353235,62.535313 374.297353,62.6225304 374.225294,62.705313 C374.154706,62.7880957 374.063529,62.8605304 373.956176,62.9226174 C373.848824,62.9861826 373.726765,63.0364435 373.588529,63.0689652 C373.422353,63.1088783 373.262059,63.1177478 373.112059,63.0955739 C372.960588,63.0704435 372.829706,63.0260957 372.717941,62.9595739 L372.915,62.6461826 Z" id="Fill-122" fill="#1A3667"></path>
                <path d="M374.972941,60.6453565 L374.627353,60.7310957 L374.627353,60.4295304 L374.993529,60.3157043 L375.040588,59.6475304 L375.371471,59.5662261 L375.371471,60.2225739 L376.002353,60.0673565 L376.002353,60.3925739 L375.371471,60.5477913 L375.371471,61.8516174 C375.371471,61.996487 375.397941,62.1029217 375.450882,62.1694435 C375.503824,62.234487 375.597941,62.2522261 375.733235,62.2182261 C375.775882,62.2093565 375.82,62.1901391 375.867059,62.1650087 C375.917059,62.1428348 375.959706,62.1147478 375.996471,62.0910957 L376.072941,62.3719652 C376.009706,62.4104 375.939118,62.4473565 375.865588,62.4828348 C375.789118,62.5197913 375.715588,62.5464 375.640588,62.5641391 C375.517059,62.5951826 375.411176,62.6025739 375.325882,62.5848348 C375.242059,62.5670957 375.172941,62.5286609 375.12,62.4739652 C375.065588,62.4207478 375.028824,62.348313 375.005294,62.2581391 C374.984706,62.1650087 374.972941,62.0615304 374.972941,61.9462261 L374.972941,60.6453565 Z" id="Fill-124" fill="#1A3667"></path>
                <path d="M376.528235,59.9380087 L376.854706,59.8581826 L376.888529,60.2765304 L376.903235,60.2720957 C376.984118,60.1035739 377.081176,59.9631391 377.192941,59.8478348 C377.307647,59.7325304 377.432647,59.6600957 377.566471,59.6260957 C377.660588,59.6024435 377.742941,59.599487 377.817941,59.6127913 L377.74,59.9794 C377.701765,59.9764435 377.666471,59.9749652 377.634118,59.9764435 C377.601765,59.9764435 377.562059,59.9838348 377.513529,59.9971391 C377.415,60.0222696 377.310588,60.087313 377.203235,60.1937478 C377.095882,60.3016609 377.001765,60.4642696 376.922353,60.6830522 L376.922353,62.1908783 L376.528235,62.2884435 L376.528235,59.9380087 Z" id="Fill-126" fill="#1A3667"></path>
                <path d="M378.356471,61.1997043 C378.356471,61.3357043 378.394706,61.4229217 378.474118,61.4613565 C378.553529,61.4997913 378.650588,61.5042261 378.763824,61.4761391 C378.877059,61.4480522 378.984412,61.396313 379.085882,61.3179652 C379.185882,61.2396174 379.291765,61.1361391 379.405,61.0045739 L379.405,60.3526609 C379.209412,60.4265739 379.043235,60.4960522 378.909412,60.5655304 C378.774118,60.6350087 378.666765,60.7030087 378.584412,60.7710087 C378.503529,60.840487 378.444706,60.9099652 378.409412,60.9824 C378.374118,61.0518783 378.356471,61.1257913 378.356471,61.1997043 M377.966765,61.3253565 C377.966765,61.0651826 378.081471,60.8419652 378.310882,60.648313 C378.540294,60.4546609 378.903529,60.2684 379.405,60.0910087 C379.405,60.0170957 379.397647,59.9461391 379.382941,59.8781391 C379.368235,59.8130957 379.343235,59.7539652 379.306471,59.7081391 C379.269706,59.6637913 379.221176,59.6297913 379.159412,59.6135304 C379.097647,59.594313 379.019706,59.5957913 378.924118,59.6209217 C378.785882,59.6534435 378.657941,59.7110957 378.541765,59.7909217 C378.424118,59.8722261 378.319706,59.9535304 378.225588,60.0422261 L378.068235,59.8057043 C378.175588,59.7081391 378.310882,59.6076174 378.466765,59.5026609 C378.624118,59.3977043 378.797647,59.3208348 378.987353,59.2750087 C379.271176,59.2055304 379.48,59.242487 379.607941,59.3858783 C379.734412,59.5292696 379.799118,59.7495304 379.799118,60.0437043 L379.799118,61.4835304 L379.472647,61.5633565 L379.437353,61.2913565 L379.428529,61.294313 C379.316765,61.4155304 379.194706,61.5249217 379.065294,61.622487 C378.937353,61.7215304 378.799118,61.7865739 378.653529,61.8220522 C378.455,61.8708348 378.291765,61.8530957 378.162353,61.770313 C378.031471,61.6845739 377.966765,61.5367478 377.966765,61.3253565" id="Fill-128" fill="#1A3667"></path>
                <path d="M380.510735,59.2840261 L380.165147,59.3697652 L380.165147,59.0682 L380.531324,58.9543739 L380.578382,58.2862 L380.909265,58.2048957 L380.909265,58.8612435 L381.540147,58.7060261 L381.540147,59.0312435 L380.909265,59.1864609 L380.909265,60.490287 C380.909265,60.6351565 380.937206,60.7415913 380.990147,60.808113 C381.041618,60.8731565 381.137206,60.8908957 381.2725,60.8568957 C381.313676,60.8480261 381.357794,60.8288087 381.404853,60.8036783 C381.454853,60.7815043 381.4975,60.7534174 381.534265,60.7297652 L381.612206,61.0106348 C381.5475,61.0490696 381.478382,61.0860261 381.403382,61.1215043 C381.328382,61.1584609 381.253382,61.1850696 381.179853,61.204287 C381.054853,61.2338522 380.948971,61.2412435 380.863676,61.2235043 C380.779853,61.2057652 380.710735,61.1673304 380.657794,61.1126348 C380.603382,61.0594174 380.566618,60.9869826 380.544559,60.8953304 C380.5225,60.8051565 380.510735,60.7002 380.510735,60.5848957 L380.510735,59.2840261 Z" id="Fill-130" fill="#1A3667"></path>
                <path d="M382.068824,58.5766783 L382.462941,58.4805913 L382.462941,60.8295478 L382.068824,60.927113 L382.068824,58.5766783 Z M382.271765,58.0430261 C382.193824,58.0622435 382.129118,58.0548522 382.076176,58.0193739 C382.023235,57.9853739 381.996765,57.9292 381.996765,57.855287 C381.996765,57.7769391 382.023235,57.7089391 382.076176,57.6498087 C382.129118,57.5906783 382.193824,57.5507652 382.271765,57.5315478 C382.348235,57.5108522 382.411471,57.5197217 382.465882,57.5552 C382.518824,57.5862435 382.545294,57.6424174 382.545294,57.7207652 C382.545294,57.7946783 382.518824,57.8641565 382.465882,57.9247652 C382.411471,57.9853739 382.348235,58.025287 382.271765,58.0430261 Z" id="Fill-132" fill="#1A3667"></path>
                <path d="M383.487794,59.4082 C383.487794,59.5442 383.503971,59.6624609 383.534853,59.7629826 C383.568676,59.8664609 383.614265,59.9477652 383.673088,60.0128087 C383.731912,60.0778522 383.803971,60.1207217 383.886324,60.1443739 C383.970147,60.1665478 384.062794,60.1665478 384.161324,60.1414174 C384.259853,60.116287 384.3525,60.0719391 384.436324,60.0083739 C384.518676,59.9448087 384.590735,59.8679391 384.649559,59.7733304 C384.708382,59.6802 384.753971,59.5737652 384.787794,59.4555043 C384.817206,59.3387217 384.834853,59.2115913 384.834853,59.0770696 C384.834853,58.9425478 384.817206,58.8228087 384.787794,58.7178522 C384.753971,58.6158522 384.708382,58.530113 384.649559,58.4650696 C384.590735,58.3985478 384.518676,58.3542 384.436324,58.3305478 C384.3525,58.3083739 384.259853,58.3098522 384.161324,58.3335043 C384.062794,58.3586348 383.970147,58.4015043 383.886324,58.4665478 C383.803971,58.530113 383.731912,58.6099391 383.673088,58.7045478 C383.614265,58.8006348 383.568676,58.9070696 383.534853,59.0253304 C383.503971,59.1450696 383.487794,59.2722 383.487794,59.4082 M383.080441,59.5087217 C383.080441,59.312113 383.108382,59.130287 383.167206,58.9617652 C383.2275,58.7947217 383.306912,58.6439391 383.405441,58.5153304 C383.505441,58.3837652 383.620147,58.2743739 383.751029,58.1886348 C383.880441,58.1014174 384.015735,58.0393304 384.161324,58.0053304 C384.306912,57.9683739 384.442206,57.9624609 384.571618,57.986113 C384.701029,58.0097652 384.815735,58.0615043 384.917206,58.144287 C385.015735,58.224113 385.095147,58.3349826 385.153971,58.4739391 C385.214265,58.6114174 385.242206,58.7784609 385.242206,58.9780261 C385.242206,59.1687217 385.214265,59.3505478 385.153971,59.5190696 C385.095147,59.686113 385.015735,59.8339391 384.917206,59.9625478 C384.815735,60.0926348 384.701029,60.2005478 384.571618,60.2877652 C384.442206,60.3735043 384.306912,60.434113 384.161324,60.4710696 C384.015735,60.5050696 383.880441,60.5124609 383.751029,60.4888087 C383.620147,60.4666348 383.505441,60.4163739 383.405441,60.3350696 C383.306912,60.2537652 383.2275,60.1458522 383.167206,60.0068957 C383.108382,59.8694174 383.080441,59.7008957 383.080441,59.5087217" id="Fill-134" fill="#1A3667"></path>
                <path d="M385.858824,57.6455217 L386.185294,57.5642174 L386.217647,57.8953478 L386.233824,57.8923913 C386.345588,57.7519565 386.463235,57.6277826 386.586765,57.5228261 C386.708824,57.4163913 386.852941,57.3439565 387.017647,57.3040435 C387.264706,57.2434348 387.444118,57.2759565 387.557353,57.4016087 C387.670588,57.5287391 387.727941,57.743087 387.727941,58.0461304 L387.727941,59.5347391 L387.333824,59.6337826 L387.333824,58.1954348 C387.333824,57.9736957 387.298529,57.822913 387.229412,57.7416087 C387.158824,57.6617826 387.045588,57.6396087 386.891176,57.6765652 C386.770588,57.7076087 386.663235,57.7637826 386.569118,57.8495217 C386.476471,57.9323043 386.370588,58.049087 386.252941,58.196913 L386.252941,59.8983913 L385.858824,59.9959565 L385.858824,57.6455217 Z" id="Fill-136" fill="#1A3667"></path>
                <polygon id="Fill-138" fill="#CA2026" points="390.032206 40.8736174 356.693971 49.0676174 356.380735 49.144487 356.380735 48.7985739 356.380735 43.8670957 353.521912 44.5692696 353.521912 52.9938783 390.048382 44.0164"></polygon>
                <polygon id="Fill-140" fill="#1A3667" points="353.570441 18.1005652 356.430735 17.396913 356.430735 12.4654348 356.430735 12.121 356.743971 12.0441304 389.7675 3.927 390.080735 3.85013043 390.080735 4.19604348 390.080735 9.12752174 392.941029 8.42534783 392.941029 0.000739130435 353.570441 9.67891304"></polygon>
                <path d="M351.266912,35.779087 C351.290441,36.8700435 351.771324,38.8346522 354.911029,38.063 C356.615441,37.6446522 358.509559,36.7118696 358.509559,34.6275217 C358.509559,33.0945652 357.213971,33.0014348 355.391912,32.9556087 L353.544853,32.9156957 C350.7625,32.8595217 348.077206,32.8077826 348.077206,28.475 C348.077206,26.2827391 349.108088,22.1643043 354.696324,20.7924783 C359.971324,19.4945652 361.3875,23.0941304 361.411029,25.5007391 L357.958088,26.3492609 C357.861029,25.4963043 357.574265,23.482913 354.433088,24.2545652 C353.065441,24.5901304 351.434559,25.5687391 351.434559,27.3485652 C351.434559,28.8844783 352.5375,28.9421304 353.256618,28.956913 L357.453676,29.1047391 C359.803676,29.1860435 361.9625,29.7492609 361.9625,33.2852609 C361.9625,39.2086522 356.686029,41.0254348 355.175735,41.3964783 C348.893382,42.9412609 347.813971,39.0667391 347.813971,36.629087 L351.266912,35.779087 Z" id="Fill-142" fill="#1A3667"></path>
                <path d="M366.512794,18.4080435 L375.205441,16.2704783 C379.589265,15.1928261 380.708382,17.935 380.708382,19.9631739 C380.708382,22.7851739 379.264265,23.9367391 378.517206,24.5295217 C380.708382,24.8961304 381.283382,26.6744783 381.283382,28.6213478 C381.283382,30.1838696 380.684853,31.8099565 379.739265,33.0576087 C378.717206,34.4043043 377.745147,35.3296957 374.083382,36.2284783 L366.512794,38.0896087 L366.512794,18.4080435 Z M370.098088,25.2287391 L374.483382,24.151087 C375.9525,23.7903913 377.124559,22.8738696 377.124559,21.3098696 C377.124559,19.6911739 376.0775,19.4561304 374.383382,19.8715217 L370.098088,20.9240435 L370.098088,25.2287391 Z M370.098088,33.8085652 L374.681912,32.6821304 C376.501029,32.2356957 377.546618,31.1018696 377.546618,29.0988261 C377.546618,27.3751739 376.201029,27.0455217 374.855441,27.3751739 L370.098088,28.5444783 L370.098088,33.8085652 Z" id="Fill-144" fill="#1A3667"></path>
                <polygon id="Fill-146" fill="#1A3667" points="392.912941 11.9133043 390.074706 12.6110435 384.395294 33.7013913 387.980588 32.8203478 391.462941 19.0326087 394.999706 31.0952174 398.585 30.2126957"></polygon>
                <polygon id="Fill-148" fill="#1A3667" points="392.891471 40.1517826 390.048824 44.0159565 390.048824 32.3598696 392.891471 31.6621304"></polygon>
            </g>
        </g>
    </g>
</svg>