<?xml version="1.0" encoding="UTF-8"?>
<svg width="400px" height="60px" viewBox="0 0 400 60" version="1.1" xmlns="http://www.w3.org/2000/svg" xmlns:xlink="http://www.w3.org/1999/xlink">
    <!-- Generator: Sketch 49 (51002) - http://www.bohemiancoding.com/sketch -->
    <title>Page 1</title>
    <desc>Created with Sketch.</desc>
    <defs>
        <polygon id="path-1" points="0 59.1657 399.680899 59.1657 399.680899 -0.0003 0 -0.0003"></polygon>
    </defs>
    <g id="Page-1" stroke="none" stroke-width="1" fill="none" fill-rule="evenodd">
        <g id="Tablet" transform="translate(-250.000000, -2726.000000)">
            <g id="Page-1" transform="translate(250.000000, 2726.000000)">
                <path d="M76.6843446,30.3756 L77.7045693,30.3756 L77.7045693,35.1381 C77.7045693,35.6226 77.7525094,36.0291 77.8513858,36.3561 C77.9502622,36.6846 78.0835955,36.9471 78.2513858,37.1436 C78.419176,37.3416 78.618427,37.4826 78.8476404,37.5681 C79.0768539,37.6551 79.3225468,37.6971 79.5847191,37.6971 C79.8558801,37.6971 80.1045693,37.6551 80.3352809,37.5681 C80.5629963,37.4826 80.7652434,37.3416 80.93603,37.1436 C81.1083146,36.9471 81.2431461,36.6846 81.3420225,36.3561 C81.4408989,36.0291 81.4903371,35.6226 81.4903371,35.1381 L81.4903371,30.3756 L82.4731086,30.3756 L82.4731086,35.1141 C82.4731086,35.7621 82.3982022,36.3081 82.2513858,36.7506 C82.1045693,37.1931 81.900824,37.5516 81.6431461,37.8276 C81.3854682,38.1021 81.0798502,38.2986 80.7277903,38.4171 C80.3757303,38.5356 79.9937079,38.5956 79.5847191,38.5956 C79.1757303,38.5956 78.7922097,38.5356 78.4356554,38.4171 C78.0791011,38.2986 77.771985,38.1021 77.5143071,37.8276 C77.2551311,37.5516 77.0528839,37.1931 76.9045693,36.7506 C76.7577528,36.3081 76.6843446,35.7621 76.6843446,35.1141 L76.6843446,30.3756 Z" id="Fill-1" fill="#1A3667"></path>
                <path d="M84.1567041,37.83315 C84.1567041,37.59465 84.2286142,37.40415 84.3724345,37.26165 C84.5147566,37.11765 84.6885393,37.04565 84.8937828,37.04565 C85.0915356,37.04565 85.260824,37.11765 85.4046442,37.26165 C85.5469663,37.40415 85.6188764,37.59465 85.6188764,37.83315 C85.6188764,38.05365 85.5469663,38.23815 85.4046442,38.38065 C85.260824,38.52315 85.0915356,38.59665 84.8937828,38.59665 C84.6885393,38.59665 84.5147566,38.52315 84.3724345,38.38065 C84.2286142,38.23815 84.1567041,38.05365 84.1567041,37.83315" id="Fill-3" fill="#1A3667"></path>
                <path d="M87.5486142,36.68835 C87.8347566,36.99285 88.1733333,37.23585 88.5628464,37.42035 C88.9523596,37.60485 89.3553558,37.69785 89.7733333,37.69785 C90.3051685,37.69785 90.7201498,37.57635 91.0137828,37.33485 C91.3089139,37.09335 91.4572285,36.77535 91.4572285,36.38085 C91.4572285,36.17535 91.4212734,36.00135 91.3523596,35.85735 C91.2834457,35.71485 91.1890637,35.59185 91.0692135,35.48835 C90.9508614,35.38635 90.8100375,35.29335 90.6452434,35.21235 C90.4819476,35.12985 90.3051685,35.04435 90.1164045,34.95285 L88.9613483,34.44885 C88.7725843,34.36785 88.580824,34.26885 88.3845693,34.15335 C88.1868165,34.03935 88.0115356,33.89985 87.8557303,33.73485 C87.6999251,33.57135 87.5725843,33.37635 87.475206,33.15135 C87.3763296,32.92485 87.3268914,32.66385 87.3268914,32.36985 C87.3268914,32.06535 87.3913109,31.78185 87.5171536,31.52085 C87.6444944,31.25685 87.8212734,31.03035 88.0459925,30.83685 C88.2707116,30.64485 88.5373783,30.49485 88.8444944,30.38835 C89.1516105,30.28185 89.4901873,30.22785 89.8587266,30.22785 C90.3426217,30.22785 90.7890637,30.32085 91.1995506,30.50535 C91.6085393,30.68985 91.9561049,30.92985 92.2437453,31.22385 L91.6909363,31.88985 C91.4452434,31.65135 91.1710861,31.46535 90.8729588,31.32885 C90.5748315,31.19385 90.2362547,31.12635 89.8587266,31.12635 C89.4077903,31.12635 89.0467416,31.23135 88.7710861,31.43985 C88.4969288,31.64985 88.3605993,31.93785 88.3605993,32.30835 C88.3605993,32.50485 88.3980524,32.67135 88.4759551,32.80635 C88.5538577,32.94135 88.6587266,33.06135 88.7905618,33.16335 C88.9208989,33.26535 89.0647191,33.35535 89.2205243,33.43335 C89.3748315,33.51135 89.5351311,33.58335 89.6999251,33.64935 L90.8429963,34.14135 C91.0722097,34.24035 91.2894382,34.35285 91.4931835,34.47885 C91.698427,34.60635 91.875206,34.75485 92.0220225,34.92285 C92.168839,35.09085 92.287191,35.28735 92.3725843,35.51385 C92.4579775,35.73885 92.5014232,35.99985 92.5014232,36.29535 C92.5014232,36.61485 92.4385019,36.91485 92.311161,37.19235 C92.1838202,37.47135 92.0010487,37.71585 91.7643446,37.92585 C91.5261423,38.13435 91.24,38.29935 90.9044195,38.41785 C90.5673408,38.53635 90.1868165,38.59635 89.7613483,38.59635 C89.1950562,38.59635 88.6707116,38.48985 88.1868165,38.27685 C87.7044195,38.06385 87.2864419,37.77135 86.934382,37.40235 L87.5486142,36.68835 Z" id="Fill-5" fill="#1A3667"></path>
                <path d="M93.7796255,37.83315 C93.7796255,37.59465 93.8515356,37.40415 93.9953558,37.26165 C94.1376779,37.11765 94.3114607,37.04565 94.5167041,37.04565 C94.7144569,37.04565 94.8837453,37.11765 95.0275655,37.26165 C95.1698876,37.40415 95.2417978,37.59465 95.2417978,37.83315 C95.2417978,38.05365 95.1698876,38.23815 95.0275655,38.38065 C94.8837453,38.52315 94.7144569,38.59665 94.5167041,38.59665 C94.3114607,38.59665 94.1376779,38.52315 93.9953558,38.38065 C93.8515356,38.23815 93.7796255,38.05365 93.7796255,37.83315" id="Fill-7" fill="#1A3667"></path>
                <path d="M99.6551311,36.68835 C99.9412734,36.99285 100.27985,37.23585 100.669363,37.42035 C101.058876,37.60485 101.461873,37.69785 101.87985,37.69785 C102.411685,37.69785 102.826667,37.57635 103.1203,37.33485 C103.415431,37.09335 103.563745,36.77535 103.563745,36.38085 C103.563745,36.17535 103.52779,36.00135 103.458876,35.85735 C103.389963,35.71485 103.295581,35.59185 103.17573,35.48835 C103.057378,35.38635 102.916554,35.29335 102.75176,35.21235 C102.588464,35.12985 102.411685,35.04435 102.222921,34.95285 L101.067865,34.44885 C100.879101,34.36785 100.687341,34.26885 100.491086,34.15335 C100.293333,34.03935 100.118052,33.89985 99.9622472,33.73485 C99.8064419,33.57135 99.6791011,33.37635 99.5817228,33.15135 C99.4828464,32.92485 99.4334082,32.66385 99.4334082,32.36985 C99.4334082,32.06535 99.4978277,31.78185 99.6236704,31.52085 C99.7510112,31.25685 99.9277903,31.03035 100.152509,30.83685 C100.377228,30.64485 100.643895,30.49485 100.951011,30.38835 C101.258127,30.28185 101.596704,30.22785 101.965243,30.22785 C102.449139,30.22785 102.895581,30.32085 103.306067,30.50535 C103.715056,30.68985 104.062622,30.92985 104.350262,31.22385 L103.797453,31.88985 C103.55176,31.65135 103.277603,31.46535 102.979476,31.32885 C102.681348,31.19385 102.342772,31.12635 101.965243,31.12635 C101.514307,31.12635 101.153258,31.23135 100.877603,31.43985 C100.603446,31.64985 100.467116,31.93785 100.467116,32.30835 C100.467116,32.50485 100.504569,32.67135 100.582472,32.80635 C100.660375,32.94135 100.765243,33.06135 100.897079,33.16335 C101.027416,33.26535 101.171236,33.35535 101.327041,33.43335 C101.481348,33.51135 101.641648,33.58335 101.806442,33.64935 L102.949513,34.14135 C103.178727,34.24035 103.395955,34.35285 103.5997,34.47885 C103.804944,34.60635 103.981723,34.75485 104.128539,34.92285 C104.275356,35.09085 104.393708,35.28735 104.479101,35.51385 C104.564494,35.73885 104.60794,35.99985 104.60794,36.29535 C104.60794,36.61485 104.545019,36.91485 104.417678,37.19235 C104.290337,37.47135 104.107566,37.71585 103.870861,37.92585 C103.632659,38.13435 103.346517,38.29935 103.010936,38.41785 C102.673858,38.53635 102.293333,38.59635 101.867865,38.59635 C101.301573,38.59635 100.777228,38.48985 100.293333,38.27685 C99.8109363,38.06385 99.3929588,37.77135 99.0408989,37.40235 L99.6551311,36.68835 Z" id="Fill-9" fill="#1A3667"></path>
                <path d="M106.095281,32.4675 L106.931236,32.4675 L107.016629,33.33 L107.054082,33.33 C107.316255,33.042 107.600899,32.802 107.908015,32.61 C108.215131,32.4165 108.549213,32.3205 108.908764,32.3205 C109.368689,32.3205 109.726742,32.421 109.984419,32.622 C110.243596,32.823 110.433858,33.1035 110.556704,33.465 C110.868315,33.12 111.181423,32.8425 111.49603,32.634 C111.812135,32.4255 112.153708,32.3205 112.523745,32.3205 C113.137978,32.3205 113.593408,32.517 113.893034,32.91 C114.194157,33.3045 114.342472,33.8865 114.342472,34.6575 L114.342472,38.448 L113.334232,38.448 L113.334232,34.794 C113.334232,34.227 113.242846,33.819 113.064569,33.5685 C112.883296,33.3195 112.604644,33.1935 112.227116,33.1935 C111.77618,33.1935 111.275805,33.501 110.728989,34.1175 L110.728989,38.448 L109.720749,38.448 L109.720749,34.794 C109.720749,34.227 109.630861,33.819 109.451086,33.5685 C109.269813,33.3195 108.988165,33.1935 108.601648,33.1935 C108.15221,33.1935 107.651835,33.501 107.102022,34.1175 L107.102022,38.448 L106.095281,38.448 L106.095281,32.4675 Z" id="Fill-11" fill="#1A3667"></path>
                <path d="M116.985169,36.82395 C116.985169,37.16895 117.084045,37.41495 117.286292,37.56195 C117.487041,37.71045 117.734232,37.78395 118.029363,37.78395 C118.317004,37.78395 118.588165,37.71645 118.845843,37.57995 C119.105019,37.44645 119.377678,37.24695 119.66382,36.98445 L119.66382,35.32245 C119.163446,35.38845 118.742472,35.46645 118.397903,35.55645 C118.054831,35.64645 117.777678,35.75295 117.569438,35.87595 C117.3597,35.99895 117.209888,36.14145 117.12,36.30045 C117.028614,36.46095 116.985169,36.63645 116.985169,36.82395 M115.988914,36.89745 C115.988914,36.24195 116.281049,35.73945 116.868315,35.38995 C117.452584,35.04195 118.385918,34.79745 119.66382,34.65795 C119.66382,34.47045 119.644345,34.28595 119.60839,34.10445 C119.572434,33.92445 119.506517,33.76395 119.412135,33.62445 C119.317753,33.48495 119.193408,33.37245 119.037603,33.28695 C118.881798,33.19995 118.681049,33.15645 118.435356,33.15645 C118.081798,33.15645 117.758202,33.22245 117.457079,33.35445 C117.158951,33.48495 116.890787,33.63345 116.652584,33.79695 L116.24809,33.09495 C116.525243,32.91495 116.865318,32.74095 117.266816,32.57295 C117.668315,32.40495 118.11176,32.32095 118.594157,32.32095 C119.325243,32.32095 119.852584,32.54295 120.180674,32.98995 C120.508764,33.43845 120.67206,34.03545 120.67206,34.78095 L120.67206,38.44845 L119.836105,38.44845 L119.750712,37.73445 L119.725243,37.73445 C119.439101,37.97295 119.130487,38.17545 118.797903,38.34345 C118.465318,38.51145 118.116255,38.59695 117.747715,38.59695 C117.238352,38.59695 116.818876,38.44845 116.486292,38.15295 C116.155206,37.85745 115.988914,37.43895 115.988914,36.89745" id="Fill-13" fill="#1A3667"></path>
                <path d="M122.576929,29.6865 L123.585169,29.6865 L123.585169,37.3155 C123.585169,37.4805 123.612135,37.5945 123.670562,37.6605 C123.728989,37.7265 123.793408,37.7595 123.866816,37.7595 L123.9597,37.7595 C123.988165,37.7595 124.03161,37.7505 124.088539,37.7355 L124.224869,38.4975 C124.158951,38.5305 124.081049,38.5545 123.989663,38.571 C123.899775,38.5875 123.785918,38.5965 123.646592,38.5965 C123.260075,38.5965 122.985918,38.481 122.822622,38.2515 C122.659326,38.022 122.576929,37.686 122.576929,37.242 L122.576929,29.6865 Z" id="Fill-15" fill="#1A3667"></path>
                <path d="M125.710712,29.6865 L126.718951,29.6865 L126.718951,37.3155 C126.718951,37.4805 126.745918,37.5945 126.804345,37.6605 C126.862772,37.7265 126.927191,37.7595 127.000599,37.7595 L127.093483,37.7595 C127.121948,37.7595 127.165393,37.7505 127.222322,37.7355 L127.358652,38.4975 C127.292734,38.5305 127.214831,38.5545 127.123446,38.571 C127.033558,38.5875 126.9197,38.5965 126.780375,38.5965 C126.393858,38.5965 126.1197,38.481 125.956404,38.2515 C125.793109,38.022 125.710712,37.686 125.710712,37.242 L125.710712,29.6865 Z" id="Fill-17" fill="#1A3667"></path>
                <path d="M133.846442,37.6362 C134.543071,37.6362 135.083895,37.5072 135.468914,37.2492 C135.853933,36.9897 136.047191,36.5862 136.047191,36.0372 C136.047191,35.5362 135.858427,35.1687 135.480899,34.9347 C135.104869,34.7007 134.559551,34.5837 133.846442,34.5837 L132.444195,34.5837 L132.444195,37.6362 L133.846442,37.6362 Z M133.636704,33.8217 C134.333333,33.8217 134.830712,33.7017 135.130337,33.4647 C135.429963,33.2277 135.579775,32.8827 135.579775,32.4312 C135.579775,31.9872 135.422472,31.6692 135.106367,31.4772 C134.790262,31.2852 134.316854,31.1877 133.68764,31.1877 L132.444195,31.1877 L132.444195,33.8217 L133.636704,33.8217 Z M131.425468,30.3762 L133.820974,30.3762 C134.231461,30.3762 134.605993,30.4137 134.946067,30.4857 C135.286142,30.5607 135.576779,30.6747 135.817978,30.8307 C136.060674,30.9867 136.249438,31.1907 136.38427,31.4397 C136.519101,31.6902 136.586517,31.9917 136.586517,32.3442 C136.586517,32.7462 136.472659,33.1092 136.243446,33.4332 C136.012734,33.7587 135.660674,33.9807 135.187266,34.1052 L135.187266,34.1532 C135.77603,34.2447 136.235955,34.4487 136.562547,34.7682 C136.890637,35.0892 137.055431,35.5287 137.055431,36.0852 C137.055431,36.4797 136.980524,36.8232 136.83221,37.1187 C136.686891,37.4157 136.477154,37.6617 136.205993,37.8582 C135.93633,38.0547 135.612734,38.2017 135.235206,38.3007 C134.859176,38.3997 134.444195,38.4492 133.994757,38.4492 L131.425468,38.4492 L131.425468,30.3762 Z" id="Fill-19" fill="#1A3667"></path>
                <path d="M138.466667,32.4675 L139.486891,32.4675 L139.486891,36.123 C139.486891,36.6885 139.573783,37.0965 139.750562,37.347 C139.927341,37.5975 140.211985,37.722 140.605993,37.722 C140.917603,37.722 141.190262,37.6425 141.429963,37.482 C141.666667,37.323 141.928839,37.0665 142.214981,36.714 L142.214981,32.4675 L143.223221,32.4675 L143.223221,38.448 L142.387266,38.448 L142.301873,37.5135 L142.264419,37.5135 C141.985768,37.842 141.692135,38.1045 141.385019,38.301 C141.077903,38.4975 140.715356,38.5965 140.298876,38.5965 C139.659176,38.5965 139.193258,38.4 138.902622,38.0055 C138.611985,37.611 138.466667,37.029 138.466667,36.258 L138.466667,32.4675 Z" id="Fill-21" fill="#1A3667"></path>
                <path d="M145.079551,37.09485 C145.341723,37.30785 145.609888,37.48035 145.884045,37.61085 C146.158202,37.74285 146.475805,37.80885 146.836854,37.80885 C147.230861,37.80885 147.524494,37.71885 147.722247,37.53735 C147.918502,37.35735 148.01588,37.13535 148.01588,36.87285 C148.01588,36.71835 147.975431,36.58185 147.893034,36.46785 C147.810637,36.35235 147.707266,36.25185 147.579925,36.16485 C147.452584,36.07935 147.307266,36.00285 147.14397,35.93835 C146.980674,35.87235 146.81588,35.80635 146.652584,35.74185 C146.438352,35.66685 146.227116,35.58285 146.012884,35.48835 C145.798652,35.39535 145.609888,35.27985 145.440599,35.14485 C145.274307,35.00835 145.136479,34.85085 145.030112,34.67085 C144.923745,34.49085 144.869813,34.27335 144.869813,34.01835 C144.869813,33.78135 144.917753,33.55635 145.010637,33.34785 C145.106517,33.13785 145.23985,32.95785 145.418127,32.80635 C145.593408,32.65485 145.80764,32.53485 146.062322,32.44935 C146.315506,32.36385 146.603146,32.32035 146.922247,32.32035 C147.298277,32.32035 147.645843,32.38635 147.961948,32.51685 C148.276554,32.64885 148.547715,32.80785 148.778427,32.99685 L148.299026,33.63735 C148.095281,33.48135 147.881049,33.35385 147.660824,33.25485 C147.439101,33.15735 147.196404,33.10785 146.934232,33.10785 C146.558202,33.10785 146.281049,33.19335 146.105768,33.36585 C145.928989,33.53835 145.842097,33.73935 145.842097,33.96885 C145.842097,34.10835 145.878052,34.22985 145.951461,34.33185 C146.026367,34.43535 146.123745,34.52535 146.246592,34.60335 C146.369438,34.68135 146.510262,34.75035 146.670562,34.81185 C146.830861,34.87335 146.995655,34.93785 147.169438,35.00235 C147.380674,35.08485 147.596404,35.17035 147.813633,35.26035 C148.030861,35.35185 148.225618,35.46435 148.397903,35.59935 C148.568689,35.73435 148.711011,35.90085 148.821873,36.09735 C148.931236,36.29535 148.986667,36.53235 148.986667,36.81135 C148.986667,37.05735 148.940225,37.28685 148.845843,37.50135 C148.751461,37.71435 148.612135,37.90335 148.427865,38.06685 C148.243596,38.23035 148.014382,38.36085 147.738727,38.45385 C147.466067,38.54835 147.152959,38.59635 146.799401,38.59635 C146.372434,38.59635 145.96794,38.51835 145.582921,38.36235 C145.197903,38.20635 144.860824,38.00985 144.574682,37.77135 L145.079551,37.09485 Z" id="Fill-23" fill="#1A3667"></path>
                <mask id="mask-2" fill="white">
                    <use xlink:href="#path-1"></use>
                </mask>
                <g id="Clip-26"></g>
                <path d="M150.389513,38.4477 L151.397753,38.4477 L151.397753,32.4672 L150.389513,32.4672 L150.389513,38.4477 Z M150.904869,31.2372 C150.707116,31.2372 150.542322,31.1757 150.405993,31.0527 C150.271161,30.9297 150.203745,30.7737 150.203745,30.5847 C150.203745,30.3882 150.271161,30.2292 150.405993,30.1107 C150.542322,29.9922 150.707116,29.9322 150.904869,29.9322 C151.101124,29.9322 151.267416,29.9922 151.402247,30.1107 C151.537079,30.2292 151.605993,30.3882 151.605993,30.5847 C151.605993,30.7737 151.537079,30.9297 151.402247,31.0527 C151.267416,31.1757 151.101124,31.2372 150.904869,31.2372 Z" id="Fill-25" fill="#1A3667" mask="url(#mask-2)"></path>
                <path d="M153.412884,32.4675 L154.248839,32.4675 L154.334232,33.33 L154.371685,33.33 C154.657828,33.042 154.958951,32.802 155.275056,32.61 C155.589663,32.4165 155.956704,32.3205 156.374682,32.3205 C157.005393,32.3205 157.466816,32.517 157.757453,32.91 C158.04809,33.3045 158.193408,33.8865 158.193408,34.6575 L158.193408,38.448 L157.186667,38.448 L157.186667,34.794 C157.186667,34.227 157.095281,33.819 156.915506,33.5685 C156.73573,33.3195 156.44809,33.1935 156.055581,33.1935 C155.74397,33.1935 155.469813,33.2715 155.23161,33.4275 C154.994906,33.5835 154.723745,33.813 154.421124,34.1175 L154.421124,38.448 L153.412884,38.448 L153.412884,32.4675 Z" id="Fill-27" fill="#1A3667" mask="url(#mask-2)"></path>
                <path d="M163.87191,35.0148 C163.87191,34.3998 163.741573,33.9303 163.483895,33.6063 C163.226217,33.2823 162.86367,33.1203 162.397753,33.1203 C162.183521,33.1203 161.979775,33.1638 161.788015,33.2493 C161.594757,33.3348 161.420974,33.4578 161.266667,33.6183 C161.109363,33.7788 160.980524,33.9753 160.878652,34.2093 C160.776779,34.4433 160.709363,34.7118 160.674906,35.0148 L163.87191,35.0148 Z M159.692135,35.4708 C159.692135,34.9788 159.768539,34.5378 159.91985,34.1478 C160.071161,33.7578 160.273408,33.4278 160.522097,33.1563 C160.772285,32.8863 161.056929,32.6793 161.37603,32.5353 C161.696629,32.3913 162.029213,32.3208 162.372285,32.3208 C162.748315,32.3208 163.086891,32.3868 163.386517,32.5173 C163.684644,32.6478 163.934831,32.8368 164.135581,33.0828 C164.33633,33.3288 164.490637,33.6243 164.595506,33.9693 C164.703371,34.3143 164.757303,34.6998 164.757303,35.1258 C164.757303,35.3478 164.74382,35.5323 164.718352,35.6793 L160.68839,35.6793 C160.728839,36.3273 160.92809,36.8403 161.283146,37.2183 C161.641199,37.5948 162.105618,37.7838 162.679401,37.7838 C162.967041,37.7838 163.229213,37.7403 163.47191,37.6548 C163.714607,37.5693 163.945318,37.4553 164.165543,37.3158 L164.523596,37.9818 C164.261423,38.1453 163.969288,38.2893 163.650187,38.4123 C163.331086,38.5353 162.967041,38.5968 162.556554,38.5968 C162.155056,38.5968 161.780524,38.5233 161.431461,38.3808 C161.083895,38.2368 160.781273,38.0328 160.522097,37.7658 C160.264419,37.4988 160.060674,37.1718 159.913858,36.7878 C159.767041,36.4008 159.692135,35.9628 159.692135,35.4708 Z" id="Fill-28" fill="#1A3667" mask="url(#mask-2)"></path>
                <path d="M166.07236,37.09485 C166.334532,37.30785 166.602697,37.48035 166.876854,37.61085 C167.151011,37.74285 167.468614,37.80885 167.829663,37.80885 C168.22367,37.80885 168.517303,37.71885 168.715056,37.53735 C168.911311,37.35735 169.008689,37.13535 169.008689,36.87285 C169.008689,36.71835 168.96824,36.58185 168.885843,36.46785 C168.803446,36.35235 168.700075,36.25185 168.572734,36.16485 C168.445393,36.07935 168.300075,36.00285 168.136779,35.93835 C167.973483,35.87235 167.808689,35.80635 167.645393,35.74185 C167.431161,35.66685 167.219925,35.58285 167.005693,35.48835 C166.791461,35.39535 166.602697,35.27985 166.433408,35.14485 C166.267116,35.00835 166.129288,34.85085 166.022921,34.67085 C165.916554,34.49085 165.862622,34.27335 165.862622,34.01835 C165.862622,33.78135 165.910562,33.55635 166.003446,33.34785 C166.099326,33.13785 166.232659,32.95785 166.410936,32.80635 C166.586217,32.65485 166.800449,32.53485 167.055131,32.44935 C167.308315,32.36385 167.595955,32.32035 167.915056,32.32035 C168.291086,32.32035 168.638652,32.38635 168.954757,32.51685 C169.269363,32.64885 169.540524,32.80785 169.771236,32.99685 L169.291835,33.63735 C169.08809,33.48135 168.873858,33.35385 168.653633,33.25485 C168.43191,33.15735 168.189213,33.10785 167.927041,33.10785 C167.551011,33.10785 167.273858,33.19335 167.098577,33.36585 C166.921798,33.53835 166.834906,33.73935 166.834906,33.96885 C166.834906,34.10835 166.870861,34.22985 166.94427,34.33185 C167.019176,34.43535 167.116554,34.52535 167.239401,34.60335 C167.362247,34.68135 167.503071,34.75035 167.663371,34.81185 C167.82367,34.87335 167.988464,34.93785 168.162247,35.00235 C168.373483,35.08485 168.589213,35.17035 168.806442,35.26035 C169.02367,35.35185 169.218427,35.46435 169.390712,35.59935 C169.561498,35.73435 169.70382,35.90085 169.814682,36.09735 C169.924045,36.29535 169.979476,36.53235 169.979476,36.81135 C169.979476,37.05735 169.933034,37.28685 169.838652,37.50135 C169.74427,37.71435 169.604944,37.90335 169.420674,38.06685 C169.236404,38.23035 169.007191,38.36085 168.731536,38.45385 C168.458876,38.54835 168.145768,38.59635 167.79221,38.59635 C167.365243,38.59635 166.960749,38.51835 166.57573,38.36235 C166.190712,38.20635 165.853633,38.00985 165.567491,37.77135 L166.07236,37.09485 Z" id="Fill-29" fill="#1A3667" mask="url(#mask-2)"></path>
                <path d="M171.220674,37.09485 C171.482846,37.30785 171.751011,37.48035 172.025169,37.61085 C172.299326,37.74285 172.616929,37.80885 172.977978,37.80885 C173.371985,37.80885 173.665618,37.71885 173.863371,37.53735 C174.059625,37.35735 174.157004,37.13535 174.157004,36.87285 C174.157004,36.71835 174.116554,36.58185 174.034157,36.46785 C173.95176,36.35235 173.84839,36.25185 173.721049,36.16485 C173.593708,36.07935 173.44839,36.00285 173.285094,35.93835 C173.121798,35.87235 172.957004,35.80635 172.793708,35.74185 C172.579476,35.66685 172.36824,35.58285 172.154007,35.48835 C171.939775,35.39535 171.751011,35.27985 171.581723,35.14485 C171.415431,35.00835 171.277603,34.85085 171.171236,34.67085 C171.064869,34.49085 171.010936,34.27335 171.010936,34.01835 C171.010936,33.78135 171.058876,33.55635 171.15176,33.34785 C171.24764,33.13785 171.380974,32.95785 171.559251,32.80635 C171.734532,32.65485 171.948764,32.53485 172.203446,32.44935 C172.456629,32.36385 172.74427,32.32035 173.063371,32.32035 C173.439401,32.32035 173.786966,32.38635 174.103071,32.51685 C174.417678,32.64885 174.688839,32.80785 174.919551,32.99685 L174.44015,33.63735 C174.236404,33.48135 174.022172,33.35385 173.801948,33.25485 C173.580225,33.15735 173.337528,33.10785 173.075356,33.10785 C172.699326,33.10785 172.422172,33.19335 172.246891,33.36585 C172.070112,33.53835 171.983221,33.73935 171.983221,33.96885 C171.983221,34.10835 172.019176,34.22985 172.092584,34.33185 C172.167491,34.43535 172.264869,34.52535 172.387715,34.60335 C172.510562,34.68135 172.651386,34.75035 172.811685,34.81185 C172.971985,34.87335 173.136779,34.93785 173.310562,35.00235 C173.521798,35.08485 173.737528,35.17035 173.954757,35.26035 C174.171985,35.35185 174.366742,35.46435 174.539026,35.59935 C174.709813,35.73435 174.852135,35.90085 174.962996,36.09735 C175.07236,36.29535 175.12779,36.53235 175.12779,36.81135 C175.12779,37.05735 175.081348,37.28685 174.986966,37.50135 C174.892584,37.71435 174.753258,37.90335 174.568989,38.06685 C174.384719,38.23035 174.155506,38.36085 173.87985,38.45385 C173.607191,38.54835 173.294082,38.59635 172.940524,38.59635 C172.513558,38.59635 172.109064,38.51835 171.724045,38.36235 C171.339026,38.20635 171.001948,38.00985 170.715805,37.77135 L171.220674,37.09485 Z" id="Fill-30" fill="#1A3667" mask="url(#mask-2)"></path>
                <path d="M80.1501124,49.9299 L79.769588,48.6999 C79.6212734,48.2484 79.4819476,47.7999 79.3516105,47.3514 C79.2197753,46.9044 79.0894382,46.4469 78.957603,45.9804 L78.9081648,45.9804 C78.7853184,46.4469 78.6579775,46.9044 78.5276404,47.3514 C78.3973034,47.7999 78.2564794,48.2484 78.1096629,48.6999 L77.7291386,49.9299 L80.1501124,49.9299 Z M80.4077903,50.7549 L77.4699625,50.7549 L76.6969288,53.2149 L75.651236,53.2149 L78.3793258,45.1434 L79.5358801,45.1434 L82.26397,53.2149 L81.1703371,53.2149 L80.4077903,50.7549 Z" id="Fill-31" fill="#1A3667" mask="url(#mask-2)"></path>
                <path d="M83.9232959,50.2251 C83.9232959,50.9466 84.0671161,51.5091 84.3532584,51.9111 C84.6408989,52.3131 85.0453933,52.5141 85.5697378,52.5141 C85.8483895,52.5141 86.1105618,52.4466 86.3577528,52.3116 C86.6034457,52.1751 86.8491386,51.9696 87.0948315,51.6906 L87.0948315,48.5646 C86.8401498,48.3351 86.5959551,48.1716 86.3622472,48.0771 C86.1300375,47.9841 85.888839,47.9361 85.6431461,47.9361 C85.4064419,47.9361 85.183221,47.9916 84.9734831,48.1026 C84.7652434,48.2136 84.5824719,48.3696 84.4266667,48.5691 C84.2708614,48.7716 84.148015,49.0116 84.0581273,49.2891 C83.9682397,49.5696 83.9232959,49.8816 83.9232959,50.2251 M82.8791011,50.2371 C82.8791011,49.7541 82.9510112,49.3176 83.0933333,48.9276 C83.2371536,48.5376 83.4274157,48.2076 83.665618,47.9361 C83.9023221,47.6646 84.1764794,47.4561 84.4880899,47.3091 C84.7997004,47.1621 85.1277903,47.0871 85.4723596,47.0871 C85.8154307,47.0871 86.1150562,47.1486 86.3682397,47.2716 C86.6229213,47.3946 86.8805993,47.5641 87.1427715,47.7771 L87.0948315,46.7556 L87.0948315,44.4531 L88.1135581,44.4531 L88.1135581,53.2161 L87.2791011,53.2161 L87.1922097,52.5141 L87.1562547,52.5141 C86.9180524,52.7436 86.6453933,52.9431 86.3382772,53.1111 C86.031161,53.2791 85.701573,53.3631 85.3495131,53.3631 C84.5944569,53.3631 83.995206,53.0931 83.548764,52.5516 C83.1023221,52.0086 82.8791011,51.2391 82.8791011,50.2371" id="Fill-32" fill="#1A3667" mask="url(#mask-2)"></path>
                <path d="M90.1301873,47.23455 L90.9661423,47.23455 L91.0515356,48.09705 L91.0889888,48.09705 C91.351161,47.80905 91.6358052,47.56905 91.9429213,47.37705 C92.2500375,47.18355 92.5841199,47.08755 92.9436704,47.08755 C93.4035955,47.08755 93.7616479,47.18805 94.0193258,47.38905 C94.2785019,47.59005 94.468764,47.87055 94.5916105,48.23205 C94.903221,47.88705 95.2163296,47.60955 95.5309363,47.40105 C95.8470412,47.19255 96.1886142,47.08755 96.5586517,47.08755 C97.1728839,47.08755 97.6283146,47.28405 97.9279401,47.67705 C98.2275655,48.07155 98.3773783,48.65355 98.3773783,49.42455 L98.3773783,53.21505 L97.3691386,53.21505 L97.3691386,49.56105 C97.3691386,48.99405 97.2777528,48.58605 97.0979775,48.33555 C96.9182022,48.08655 96.6395506,47.96055 96.2635206,47.96055 C95.8125843,47.96055 95.3122097,48.26805 94.7638951,48.88455 L94.7638951,53.21505 L93.7556554,53.21505 L93.7556554,49.56105 C93.7556554,48.99405 93.6657678,48.58605 93.4859925,48.33555 C93.3047191,48.08655 93.0230712,47.96055 92.6365543,47.96055 C92.1871161,47.96055 91.6867416,48.26805 91.1369288,48.88455 L91.1369288,53.21505 L90.1301873,53.21505 L90.1301873,47.23455 Z" id="Fill-33" fill="#1A3667" mask="url(#mask-2)"></path>
                <path d="M100.319101,53.2152 L101.325843,53.2152 L101.325843,47.2347 L100.319101,47.2347 L100.319101,53.2152 Z M100.834457,46.0047 C100.638202,46.0047 100.47191,45.9432 100.337079,45.8202 C100.202247,45.6972 100.134831,45.5412 100.134831,45.3522 C100.134831,45.1557 100.202247,44.9967 100.337079,44.8782 C100.47191,44.7597 100.638202,44.6997 100.834457,44.6997 C101.030712,44.6997 101.197004,44.7597 101.331835,44.8782 C101.468165,44.9967 101.535581,45.1557 101.535581,45.3522 C101.535581,45.5412 101.468165,45.6972 101.331835,45.8202 C101.197004,45.9432 101.030712,46.0047 100.834457,46.0047 Z" id="Fill-34" fill="#1A3667" mask="url(#mask-2)"></path>
                <path d="M103.341873,47.23455 L104.177828,47.23455 L104.263221,48.09705 L104.300674,48.09705 C104.586816,47.80905 104.88794,47.56905 105.204045,47.37705 C105.518652,47.18355 105.885693,47.08755 106.30367,47.08755 C106.934382,47.08755 107.395805,47.28405 107.686442,47.67705 C107.977079,48.07155 108.122397,48.65355 108.122397,49.42455 L108.122397,53.21505 L107.115655,53.21505 L107.115655,49.56105 C107.115655,48.99405 107.02427,48.58605 106.844494,48.33555 C106.664719,48.08655 106.377079,47.96055 105.984569,47.96055 C105.672959,47.96055 105.398801,48.03855 105.160599,48.19455 C104.922397,48.35055 104.652734,48.58005 104.348614,48.88455 L104.348614,53.21505 L103.341873,53.21505 L103.341873,47.23455 Z" id="Fill-35" fill="#1A3667" mask="url(#mask-2)"></path>
                <path d="M110.064419,53.2152 L111.071161,53.2152 L111.071161,47.2347 L110.064419,47.2347 L110.064419,53.2152 Z M110.579775,46.0047 C110.383521,46.0047 110.218727,45.9432 110.082397,45.8202 C109.947566,45.6972 109.88015,45.5412 109.88015,45.3522 C109.88015,45.1557 109.947566,44.9967 110.082397,44.8782 C110.218727,44.7597 110.383521,44.6997 110.579775,44.6997 C110.777528,44.6997 110.942322,44.7597 111.078652,44.8782 C111.213483,44.9967 111.280899,45.1557 111.280899,45.3522 C111.280899,45.5412 111.213483,45.6972 111.078652,45.8202 C110.942322,45.9432 110.777528,46.0047 110.579775,46.0047 Z" id="Fill-36" fill="#1A3667" mask="url(#mask-2)"></path>
                <path d="M112.929738,51.86205 C113.19191,52.07505 113.460075,52.24755 113.734232,52.37805 C114.00839,52.51005 114.325993,52.57605 114.687041,52.57605 C115.081049,52.57605 115.374682,52.48605 115.572434,52.30455 C115.768689,52.12455 115.866067,51.90255 115.866067,51.64005 C115.866067,51.48555 115.825618,51.34905 115.743221,51.23505 C115.660824,51.11955 115.557453,51.01905 115.430112,50.93205 C115.302772,50.84655 115.157453,50.77005 114.994157,50.70555 C114.830861,50.63955 114.666067,50.57355 114.502772,50.50905 C114.288539,50.43405 114.077303,50.35005 113.863071,50.25555 C113.648839,50.16255 113.460075,50.04705 113.290787,49.91205 C113.124494,49.77555 112.986667,49.61805 112.8803,49.43805 C112.773933,49.25805 112.72,49.04055 112.72,48.78555 C112.72,48.54855 112.76794,48.32355 112.860824,48.11505 C112.956704,47.90505 113.090037,47.72505 113.268315,47.57355 C113.443596,47.42205 113.657828,47.30205 113.912509,47.21655 C114.165693,47.13105 114.453333,47.08755 114.772434,47.08755 C115.148464,47.08755 115.49603,47.15355 115.812135,47.28405 C116.126742,47.41605 116.397903,47.57505 116.628614,47.76405 L116.149213,48.40455 C115.945468,48.24855 115.731236,48.12105 115.511011,48.02205 C115.289288,47.92455 115.046592,47.87505 114.784419,47.87505 C114.40839,47.87505 114.131236,47.96055 113.955955,48.13305 C113.779176,48.30555 113.692285,48.50655 113.692285,48.73605 C113.692285,48.87555 113.72824,48.99705 113.801648,49.09905 C113.876554,49.20255 113.973933,49.29255 114.096779,49.37055 C114.219625,49.44855 114.360449,49.51755 114.520749,49.57905 C114.681049,49.64055 114.845843,49.70505 115.019625,49.76955 C115.230861,49.85205 115.446592,49.93755 115.66382,50.02755 C115.881049,50.11905 116.075805,50.23155 116.24809,50.36655 C116.418876,50.50155 116.561199,50.66805 116.67206,50.86455 C116.781423,51.06255 116.836854,51.29955 116.836854,51.57855 C116.836854,51.82455 116.790412,52.05405 116.69603,52.26855 C116.601648,52.48155 116.462322,52.67055 116.278052,52.83405 C116.093783,52.99755 115.864569,53.12805 115.588914,53.22105 C115.316255,53.31555 115.003146,53.36355 114.649588,53.36355 C114.222622,53.36355 113.818127,53.28555 113.433109,53.12955 C113.04809,52.97355 112.711011,52.77705 112.424869,52.53855 L112.929738,51.86205 Z" id="Fill-37" fill="#1A3667" mask="url(#mask-2)"></path>
                <path d="M118.189363,48.05925 L117.305468,48.05925 L117.305468,47.29575 L118.238801,47.23425 L118.361648,45.56025 L119.211086,45.56025 L119.211086,47.23425 L120.820075,47.23425 L120.820075,48.05925 L119.211086,48.05925 L119.211086,51.38175 C119.211086,51.75075 119.278502,52.03575 119.411835,52.23675 C119.548165,52.43775 119.787865,52.53825 120.132434,52.53825 C120.238801,52.53825 120.352659,52.52325 120.475506,52.49025 C120.598352,52.45725 120.710712,52.41975 120.80809,52.37775 L121.004345,53.14125 C120.841049,53.19975 120.661273,53.25075 120.469513,53.29575 C120.277753,53.34075 120.087491,53.36325 119.898727,53.36325 C119.579625,53.36325 119.309963,53.31375 119.094232,53.21625 C118.875506,53.11725 118.700225,52.98225 118.565393,52.80975 C118.429064,52.63725 118.333184,52.42875 118.276255,52.18275 C118.219326,51.93525 118.189363,51.66525 118.189363,51.36975 L118.189363,48.05925 Z" id="Fill-38" fill="#1A3667" mask="url(#mask-2)"></path>
                <path d="M122.158502,47.23455 L122.994457,47.23455 L123.07985,48.31755 L123.117303,48.31755 C123.321049,47.94105 123.569738,47.64105 123.860375,47.41905 C124.151011,47.19855 124.468614,47.08755 124.811685,47.08755 C125.051386,47.08755 125.262622,47.12805 125.451386,47.21055 L125.255131,48.09705 C125.157753,48.06405 125.066367,48.03855 124.985468,48.02205 C124.903071,48.00555 124.801199,47.99805 124.678352,47.99805 C124.42367,47.99805 124.16,48.10005 123.884345,48.30555 C123.610187,48.51105 123.371985,48.86805 123.166742,49.37655 L123.166742,53.21505 L122.158502,53.21505 L122.158502,47.23455 Z" id="Fill-39" fill="#1A3667" mask="url(#mask-2)"></path>
                <path d="M126.841498,51.591 C126.841498,51.936 126.940375,52.182 127.142622,52.329 C127.343371,52.4775 127.590562,52.551 127.885693,52.551 C128.173333,52.551 128.444494,52.4835 128.702172,52.347 C128.961348,52.2135 129.234007,52.014 129.52015,51.7515 L129.52015,50.0895 C129.019775,50.1555 128.598801,50.2335 128.254232,50.3235 C127.911161,50.4135 127.634007,50.52 127.425768,50.643 C127.21603,50.766 127.066217,50.9085 126.97633,51.0675 C126.884944,51.228 126.841498,51.4035 126.841498,51.591 M125.845243,51.6645 C125.845243,51.009 126.137378,50.5065 126.724644,50.157 C127.308914,49.809 128.242247,49.5645 129.52015,49.425 C129.52015,49.2375 129.500674,49.053 129.464719,48.8715 C129.428764,48.6915 129.362846,48.531 129.268464,48.3915 C129.174082,48.252 129.049738,48.1395 128.893933,48.054 C128.738127,47.967 128.537378,47.9235 128.291685,47.9235 C127.938127,47.9235 127.614532,47.9895 127.313408,48.1215 C127.015281,48.252 126.747116,48.4005 126.508914,48.564 L126.104419,47.862 C126.381573,47.682 126.721648,47.508 127.123146,47.34 C127.524644,47.172 127.96809,47.088 128.450487,47.088 C129.181573,47.088 129.708914,47.31 130.037004,47.757 C130.365094,48.2055 130.52839,48.8025 130.52839,49.548 L130.52839,53.2155 L129.692434,53.2155 L129.607041,52.5015 L129.581573,52.5015 C129.295431,52.74 128.986816,52.9425 128.654232,53.1105 C128.321648,53.2785 127.972584,53.364 127.604045,53.364 C127.094682,53.364 126.675206,53.2155 126.342622,52.92 C126.011536,52.6245 125.845243,52.206 125.845243,51.6645" id="Fill-40" fill="#1A3667" mask="url(#mask-2)"></path>
                <path d="M132.322097,48.05925 L131.438202,48.05925 L131.438202,47.29575 L132.371536,47.23425 L132.494382,45.56025 L133.34382,45.56025 L133.34382,47.23425 L134.952809,47.23425 L134.952809,48.05925 L133.34382,48.05925 L133.34382,51.38175 C133.34382,51.75075 133.411236,52.03575 133.544569,52.23675 C133.680899,52.43775 133.920599,52.53825 134.265169,52.53825 C134.371536,52.53825 134.485393,52.52325 134.60824,52.49025 C134.731086,52.45725 134.843446,52.41975 134.940824,52.37775 L135.137079,53.14125 C134.973783,53.19975 134.794007,53.25075 134.602247,53.29575 C134.410487,53.34075 134.220225,53.36325 134.031461,53.36325 C133.71236,53.36325 133.442697,53.31375 133.226966,53.21625 C133.00824,53.11725 132.832959,52.98225 132.698127,52.80975 C132.561798,52.63725 132.465918,52.42875 132.408989,52.18275 C132.35206,51.93525 132.322097,51.66525 132.322097,51.36975 L132.322097,48.05925 Z" id="Fill-41" fill="#1A3667" mask="url(#mask-2)"></path>
                <path d="M136.30412,53.2152 L137.31236,53.2152 L137.31236,47.2347 L136.30412,47.2347 L136.30412,53.2152 Z M136.820974,46.0047 C136.623221,46.0047 136.458427,45.9432 136.322097,45.8202 C136.187266,45.6972 136.11985,45.5412 136.11985,45.3522 C136.11985,45.1557 136.187266,44.9967 136.322097,44.8782 C136.458427,44.7597 136.623221,44.6997 136.820974,44.6997 C137.017228,44.6997 137.183521,44.7597 137.318352,44.8782 C137.453184,44.9967 137.522097,45.1557 137.522097,45.3522 C137.522097,45.5412 137.453184,45.6972 137.318352,45.8202 C137.183521,45.9432 137.017228,46.0047 136.820974,46.0047 Z" id="Fill-42" fill="#1A3667" mask="url(#mask-2)"></path>
                <path d="M139.931236,50.23755 C139.931236,50.58105 139.970187,50.89305 140.054082,51.17355 C140.134981,51.45255 140.251835,51.69105 140.403146,51.89355 C140.555955,52.09305 140.737228,52.24905 140.951461,52.36005 C141.162697,52.47105 141.397903,52.52655 141.651086,52.52655 C141.90427,52.52655 142.139476,52.47105 142.350712,52.36005 C142.564944,52.24905 142.747715,52.09305 142.897528,51.89355 C143.050337,51.69105 143.167191,51.45255 143.249588,51.17355 C143.331985,50.89305 143.372434,50.58105 143.372434,50.23755 C143.372434,49.89405 143.331985,49.57905 143.249588,49.29705 C143.167191,49.01355 143.050337,48.76905 142.897528,48.56355 C142.747715,48.35955 142.564944,48.20055 142.350712,48.08955 C142.139476,47.98005 141.90427,47.92455 141.651086,47.92455 C141.397903,47.92455 141.162697,47.98005 140.951461,48.08955 C140.737228,48.20055 140.555955,48.35955 140.403146,48.56355 C140.251835,48.76905 140.134981,49.01355 140.054082,49.29705 C139.970187,49.57905 139.931236,49.89405 139.931236,50.23755 M138.885543,50.23755 C138.885543,49.73805 138.961948,49.29255 139.113258,48.90255 C139.264569,48.51255 139.466816,48.18255 139.721498,47.91255 C139.974682,47.64105 140.269813,47.43555 140.599401,47.29605 C140.931985,47.15655 141.282547,47.08755 141.651086,47.08755 C142.021124,47.08755 142.370187,47.15655 142.702772,47.29605 C143.033858,47.43555 143.327491,47.64105 143.582172,47.91255 C143.833858,48.18255 144.037603,48.51255 144.188914,48.90255 C144.340225,49.29255 144.416629,49.73805 144.416629,50.23755 C144.416629,50.72955 144.340225,51.17055 144.188914,51.56055 C144.037603,51.95055 143.833858,52.27755 143.582172,52.54455 C143.327491,52.81155 143.033858,53.01555 142.702772,53.15355 C142.370187,53.29305 142.021124,53.36355 141.651086,53.36355 C141.282547,53.36355 140.931985,53.29305 140.599401,53.15355 C140.269813,53.01555 139.974682,52.81155 139.721498,52.54455 C139.466816,52.27755 139.264569,51.95055 139.113258,51.56055 C138.961948,51.17055 138.885543,50.72955 138.885543,50.23755" id="Fill-43" fill="#1A3667" mask="url(#mask-2)"></path>
                <path d="M145.989513,47.23455 L146.825468,47.23455 L146.910861,48.09705 L146.948315,48.09705 C147.234457,47.80905 147.535581,47.56905 147.851685,47.37705 C148.166292,47.18355 148.533333,47.08755 148.951311,47.08755 C149.582022,47.08755 150.043446,47.28405 150.334082,47.67705 C150.624719,48.07155 150.770037,48.65355 150.770037,49.42455 L150.770037,53.21505 L149.763296,53.21505 L149.763296,49.56105 C149.763296,48.99405 149.67191,48.58605 149.492135,48.33555 C149.31236,48.08655 149.024719,47.96055 148.63221,47.96055 C148.320599,47.96055 148.046442,48.03855 147.80824,48.19455 C147.571536,48.35055 147.300375,48.58005 146.997753,48.88455 L146.997753,53.21505 L145.989513,53.21505 L145.989513,47.23455 Z" id="Fill-44" fill="#1A3667" mask="url(#mask-2)"></path>
                <path d="M4.18456929,46.0509 C4.21303371,47.3724 4.79430712,49.8879 8.60104869,49.8879 C10.66397,49.8879 12.9591011,49.3254 12.9591011,46.8099 C12.9591011,44.9574 11.3905618,44.4624 9.1823221,43.8669 L6.94561798,43.2699 C3.57333333,42.3774 0.320898876,41.5179 0.320898876,36.2889 C0.320898876,33.6444 1.57033708,28.9794 8.3388764,28.9794 C14.7313858,28.9794 16.4467416,33.7419 16.475206,36.6534 L12.2909363,36.6534 C12.1740824,35.5959 11.8265169,33.0819 8.01977528,33.0819 C6.36284644,33.0819 4.38831461,33.7764 4.38831461,35.9259 C4.38831461,37.7784 5.72464419,38.1774 6.59655431,38.4084 L11.6811985,39.8319 C14.5291386,40.6239 17.1433708,41.9469 17.1433708,46.2144 C17.1433708,53.3604 10.7508614,53.9889 8.92014981,53.9889 C1.30816479,53.9889 0.000299625468,48.9939 0.000299625468,46.0509 L4.18456929,46.0509 Z" id="Fill-45" fill="#1A3667" mask="url(#mask-2)"></path>
                <path d="M22.6558801,29.60805 L33.1877154,29.60805 C38.4985768,29.60805 39.8573783,33.24705 39.8573783,35.69505 C39.8573783,39.10155 38.1075655,40.06305 37.2011985,40.55805 C39.8573783,41.65005 40.5510112,43.96455 40.5510112,46.31505 C40.5510112,48.20055 39.8274157,49.98555 38.6813483,51.21105 C37.4438951,52.53405 36.266367,53.36055 31.830412,53.36055 L22.6558801,53.36055 L22.6558801,29.60805 Z M27.0019476,38.90355 L32.312809,38.90355 C34.0925843,38.90355 35.512809,38.14305 35.512809,36.25755 C35.512809,34.30455 34.2438951,33.70905 32.1914607,33.70905 L27.0019476,33.70905 L27.0019476,38.90355 Z M27.0019476,49.25805 L32.5540075,49.25805 C34.7577528,49.25805 36.0251685,48.20055 36.0251685,45.78405 C36.0251685,43.70205 34.395206,42.90555 32.7652434,42.90555 L27.0019476,42.90555 L27.0019476,49.25805 Z" id="Fill-46" fill="#1A3667" mask="url(#mask-2)"></path>
                <polygon id="Fill-47" fill="#1A3667" mask="url(#mask-2)" points="54.6432959 29.6007 51.2050936 29.6007 44.3241948 53.3682 48.668764 53.3682 52.8859925 37.7652 57.1706367 53.3682 61.5167041 53.3682"></polygon>
                <path d="M360.157303,50.0016 L360.563296,50.0016 L360.563296,51.9006 C360.563296,52.0941 360.58427,52.2546 360.624719,52.3851 C360.662172,52.5171 360.716105,52.6221 360.782022,52.7001 C360.849438,52.7781 360.928839,52.8351 361.020225,52.8696 C361.11161,52.9041 361.208989,52.9206 361.313858,52.9206 C361.421723,52.9206 361.522097,52.9041 361.613483,52.8696 C361.704869,52.8351 361.78427,52.7781 361.853184,52.7001 C361.922097,52.6221 361.97603,52.5171 362.014981,52.3851 C362.053933,52.2546 362.073408,52.0941 362.073408,51.9006 L362.073408,50.0016 L362.465918,50.0016 L362.465918,51.8901 C362.465918,52.1496 362.435955,52.3671 362.377528,52.5426 C362.317603,52.7196 362.238202,52.8621 362.134831,52.9716 C362.031461,53.0811 361.910112,53.1606 361.769288,53.2071 C361.628464,53.2551 361.477154,53.2791 361.313858,53.2791 C361.150562,53.2791 360.999251,53.2551 360.856929,53.2071 C360.713109,53.1606 360.59176,53.0811 360.48839,52.9716 C360.385019,52.8621 360.305618,52.7196 360.247191,52.5426 C360.187266,52.3671 360.157303,52.1496 360.157303,51.8901 L360.157303,50.0016 Z" id="Fill-48" fill="#1A3667" mask="url(#mask-2)"></path>
                <path d="M363.137528,52.9746 C363.137528,52.8801 363.165993,52.8036 363.222921,52.7466 C363.27985,52.6896 363.350262,52.6611 363.431161,52.6611 C363.509064,52.6611 363.577978,52.6896 363.634906,52.7466 C363.691835,52.8036 363.7203,52.8801 363.7203,52.9746 C363.7203,53.0631 363.691835,53.1351 363.634906,53.1936 C363.577978,53.2506 363.509064,53.2791 363.431161,53.2791 C363.350262,53.2791 363.27985,53.2506 363.222921,53.1936 C363.165993,53.1351 363.137528,53.0631 363.137528,52.9746" id="Fill-49" fill="#1A3667" mask="url(#mask-2)"></path>
                <path d="M364.489288,52.5183 C364.603146,52.6398 364.737978,52.7373 364.893783,52.8108 C365.04809,52.8843 365.20839,52.9203 365.37618,52.9203 C365.587416,52.9203 365.753708,52.8723 365.87206,52.7763 C365.988914,52.6788 366.047341,52.5528 366.047341,52.3953 C366.047341,52.3143 366.033858,52.2438 366.006891,52.1868 C365.978427,52.1298 365.940974,52.0803 365.893034,52.0398 C365.845094,51.9993 365.789663,51.9618 365.723745,51.9288 C365.657828,51.8973 365.587416,51.8628 365.514007,51.8268 L365.052584,51.6258 C364.977678,51.5928 364.899775,51.5538 364.823371,51.5073 C364.74397,51.4623 364.673558,51.4068 364.612135,51.3408 C364.549213,51.2748 364.499775,51.1983 364.459326,51.1083 C364.420375,51.0183 364.400899,50.9148 364.400899,50.7963 C364.400899,50.6748 364.426367,50.5623 364.477303,50.4573 C364.526742,50.3538 364.597154,50.2623 364.688539,50.1858 C364.776929,50.1093 364.884794,50.0493 365.006142,50.0073 C365.128989,49.9638 365.26382,49.9428 365.410637,49.9428 C365.602397,49.9428 365.780674,49.9803 365.945468,50.0523 C366.107266,50.1273 366.246592,50.2218 366.360449,50.3403 L366.141723,50.6058 C366.042846,50.5098 365.934981,50.4363 365.815131,50.3823 C365.696779,50.3283 365.560449,50.3013 365.410637,50.3013 C365.230861,50.3013 365.085543,50.3433 364.97618,50.4258 C364.868315,50.5098 364.812884,50.6253 364.812884,50.7723 C364.812884,50.8503 364.829363,50.9163 364.859326,50.9703 C364.890787,51.0243 364.932734,51.0723 364.98367,51.1128 C365.036105,51.1533 365.093034,51.1893 365.155955,51.2208 C365.217378,51.2523 365.281798,51.2808 365.346217,51.3063 L365.803146,51.5028 C365.893034,51.5418 365.979925,51.5868 366.062322,51.6378 C366.143221,51.6888 366.213633,51.7473 366.27206,51.8148 C366.330487,51.8823 366.378427,51.9603 366.412884,52.0503 C366.447341,52.1403 366.46382,52.2438 366.46382,52.3623 C366.46382,52.4883 366.438352,52.6083 366.388914,52.7193 C366.336479,52.8303 366.266067,52.9278 366.170187,53.0118 C366.075805,53.0943 365.960449,53.1603 365.827116,53.2068 C365.693783,53.2548 365.540974,53.2788 365.371685,53.2788 C365.145468,53.2788 364.937228,53.2368 364.74397,53.1513 C364.55221,53.0658 364.385918,52.9503 364.245094,52.8033 L364.489288,52.5183 Z" id="Fill-50" fill="#1A3667" mask="url(#mask-2)"></path>
                <path d="M366.973483,52.9746 C366.973483,52.8801 367.001948,52.8036 367.058876,52.7466 C367.115805,52.6896 367.186217,52.6611 367.267116,52.6611 C367.345019,52.6611 367.413933,52.6896 367.470861,52.7466 C367.52779,52.8036 367.556255,52.8801 367.556255,52.9746 C367.556255,53.0631 367.52779,53.1351 367.470861,53.1936 C367.413933,53.2506 367.345019,53.2791 367.267116,53.2791 C367.186217,53.2791 367.115805,53.2506 367.058876,53.1936 C367.001948,53.1351 366.973483,53.0631 366.973483,52.9746" id="Fill-51" fill="#1A3667" mask="url(#mask-2)"></path>
                <path d="M369.315805,52.5183 C369.429663,52.6398 369.564494,52.7373 369.7203,52.8108 C369.874607,52.8843 370.034906,52.9203 370.202697,52.9203 C370.413933,52.9203 370.580225,52.8723 370.698577,52.7763 C370.815431,52.6788 370.873858,52.5528 370.873858,52.3953 C370.873858,52.3143 370.860375,52.2438 370.833408,52.1868 C370.804944,52.1298 370.767491,52.0803 370.719551,52.0398 C370.67161,51.9993 370.61618,51.9618 370.550262,51.9288 C370.484345,51.8973 370.413933,51.8628 370.340524,51.8268 L369.879101,51.6258 C369.804195,51.5928 369.726292,51.5538 369.649888,51.5073 C369.570487,51.4623 369.500075,51.4068 369.438652,51.3408 C369.37573,51.2748 369.326292,51.1983 369.285843,51.1083 C369.246891,51.0183 369.227416,50.9148 369.227416,50.7963 C369.227416,50.6748 369.252884,50.5623 369.30382,50.4573 C369.353258,50.3538 369.42367,50.2623 369.515056,50.1858 C369.603446,50.1093 369.711311,50.0493 369.832659,50.0073 C369.955506,49.9638 370.090337,49.9428 370.237154,49.9428 C370.428914,49.9428 370.607191,49.9803 370.771985,50.0523 C370.933783,50.1273 371.073109,50.2218 371.186966,50.3403 L370.96824,50.6058 C370.869363,50.5098 370.761498,50.4363 370.641648,50.3823 C370.523296,50.3283 370.386966,50.3013 370.237154,50.3013 C370.057378,50.3013 369.91206,50.3433 369.802697,50.4258 C369.694831,50.5098 369.639401,50.6253 369.639401,50.7723 C369.639401,50.8503 369.65588,50.9163 369.685843,50.9703 C369.717303,51.0243 369.759251,51.0723 369.810187,51.1128 C369.862622,51.1533 369.919551,51.1893 369.982472,51.2208 C370.043895,51.2523 370.108315,51.2808 370.172734,51.3063 L370.629663,51.5028 C370.719551,51.5418 370.806442,51.5868 370.888839,51.6378 C370.969738,51.6888 371.04015,51.7473 371.098577,51.8148 C371.157004,51.8823 371.204944,51.9603 371.239401,52.0503 C371.273858,52.1403 371.290337,52.2438 371.290337,52.3623 C371.290337,52.4883 371.264869,52.6083 371.215431,52.7193 C371.162996,52.8303 371.092584,52.9278 370.996704,53.0118 C370.902322,53.0943 370.786966,53.1603 370.653633,53.2068 C370.5203,53.2548 370.367491,53.2788 370.198202,53.2788 C369.971985,53.2788 369.763745,53.2368 369.570487,53.1513 C369.378727,53.0658 369.212434,52.9503 369.07161,52.8033 L369.315805,52.5183 Z" id="Fill-52" fill="#1A3667" mask="url(#mask-2)"></path>
                <path d="M371.883446,50.8359 L372.21603,50.8359 L372.250487,51.1794 L372.265468,51.1794 C372.368839,51.0639 372.482697,50.9694 372.605543,50.8929 C372.726891,50.8149 372.860225,50.7759 373.005543,50.7759 C373.188315,50.7759 373.330637,50.8164 373.434007,50.8974 C373.537378,50.9769 373.612285,51.0894 373.661723,51.2334 C373.786067,51.0954 373.91191,50.9859 374.036255,50.9019 C374.162097,50.8179 374.298427,50.7759 374.445243,50.7759 C374.690936,50.7759 374.87221,50.8554 374.99206,51.0129 C375.110412,51.1689 375.170337,51.4014 375.170337,51.7089 L375.170337,53.2194 L374.768839,53.2194 L374.768839,51.7629 C374.768839,51.5379 374.732884,51.3744 374.660974,51.2739 C374.589064,51.1749 374.476704,51.1254 374.32839,51.1254 C374.148614,51.1254 373.949363,51.2469 373.729139,51.4929 L373.729139,53.2194 L373.329139,53.2194 L373.329139,51.7629 C373.329139,51.5379 373.291685,51.3744 373.221273,51.2739 C373.149363,51.1749 373.037004,51.1254 372.882697,51.1254 C372.702921,51.1254 372.50367,51.2469 372.284944,51.4929 L372.284944,53.2194 L371.883446,53.2194 L371.883446,50.8359 Z" id="Fill-53" fill="#1A3667" mask="url(#mask-2)"></path>
                <path d="M376.22412,52.57245 C376.22412,52.70895 376.263071,52.80795 376.34397,52.86645 C376.423371,52.92495 376.522247,52.95495 376.639101,52.95495 C376.754457,52.95495 376.86382,52.92795 376.965693,52.87395 C377.067566,52.81995 377.176929,52.74045 377.292285,52.63545 L377.292285,51.97395 C377.091536,51.99945 376.923745,52.03095 376.787416,52.06695 C376.649588,52.10295 376.540225,52.14495 376.45633,52.19445 C376.373933,52.24395 376.314007,52.29945 376.276554,52.36395 C376.242097,52.42695 376.22412,52.49745 376.22412,52.57245 M375.825618,52.60245 C375.825618,52.33995 375.94397,52.13895 376.177678,52.00095 C376.409888,51.86145 376.781423,51.76395 377.292285,51.70845 C377.292285,51.63345 377.284794,51.55995 377.269813,51.48795 C377.254831,51.41595 377.229363,51.35295 377.19191,51.29595 C377.152959,51.24045 377.103521,51.19695 377.042097,51.16245 C376.979176,51.12795 376.899775,51.10995 376.802397,51.10995 C376.661573,51.10995 376.531236,51.13695 376.411386,51.18945 C376.293034,51.24045 376.186667,51.30045 376.090787,51.36495 L375.930487,51.08595 C376.03985,51.01395 376.17618,50.94495 376.336479,50.87745 C376.496779,50.80995 376.67206,50.77695 376.865318,50.77695 C377.155955,50.77695 377.367191,50.86545 377.497528,51.04395 C377.627865,51.22245 377.692285,51.46095 377.692285,51.75795 L377.692285,53.22045 L377.361199,53.22045 L377.325243,52.93545 L377.316255,52.93545 C377.200899,53.02995 377.078052,53.11095 376.946217,53.17845 C376.814382,53.24595 376.675056,53.27895 376.526742,53.27895 C376.324494,53.27895 376.156704,53.22045 376.024869,53.10195 C375.891536,52.98345 375.825618,52.81845 375.825618,52.60245" id="Fill-54" fill="#1A3667" mask="url(#mask-2)"></path>
                <path d="M378.453783,49.72695 L378.855281,49.72695 L378.855281,52.76895 C378.855281,52.83345 378.865768,52.87995 378.889738,52.90545 C378.91221,52.93245 378.937678,52.94595 378.96764,52.94595 L379.003596,52.94595 C379.015581,52.94595 379.033558,52.94295 379.05603,52.93545 L379.108464,53.23995 C379.084494,53.25345 379.051536,53.26245 379.017079,53.26845 C378.981124,53.27595 378.934682,53.27895 378.879251,53.27895 C378.726442,53.27895 378.615581,53.23245 378.551161,53.14095 C378.485243,53.04945 378.453783,52.91595 378.453783,52.73895 L378.453783,49.72695 Z" id="Fill-55" fill="#1A3667" mask="url(#mask-2)"></path>
                <path d="M379.703221,49.72695 L380.104719,49.72695 L380.104719,52.76895 C380.104719,52.83345 380.115206,52.87995 380.139176,52.90545 C380.161648,52.93245 380.187116,52.94595 380.217079,52.94595 L380.253034,52.94595 C380.265019,52.94595 380.282996,52.94295 380.305468,52.93545 L380.357903,53.23995 C380.333933,53.25345 380.300974,53.26245 380.266517,53.26845 C380.230562,53.27595 380.18412,53.27895 380.128689,53.27895 C379.97588,53.27895 379.865019,53.23245 379.800599,53.14095 C379.734682,53.04945 379.703221,52.91595 379.703221,52.73895 L379.703221,49.72695 Z" id="Fill-56" fill="#1A3667" mask="url(#mask-2)"></path>
                <path d="M382.946667,52.89615 C383.225318,52.89615 383.439551,52.84515 383.593858,52.74165 C383.746667,52.63815 383.824569,52.47765 383.824569,52.25865 C383.824569,52.05915 383.748165,51.91215 383.59985,51.81915 C383.448539,51.72615 383.229813,51.67965 382.946667,51.67965 L382.387865,51.67965 L382.387865,52.89615 L382.946667,52.89615 Z M382.862772,51.37515 C383.141423,51.37515 383.340674,51.32865 383.459026,51.23265 C383.578876,51.13815 383.637303,51.00015 383.637303,50.82165 C383.637303,50.64465 383.574382,50.51715 383.448539,50.44065 C383.322697,50.36415 383.135431,50.32515 382.883745,50.32515 L382.387865,50.32515 L382.387865,51.37515 L382.862772,51.37515 Z M381.980375,50.00115 L382.93618,50.00115 C383.100974,50.00115 383.249288,50.01615 383.385618,50.04615 C383.521948,50.07465 383.637303,50.12115 383.733184,50.18265 C383.830562,50.24565 383.905468,50.32665 383.959401,50.42565 C384.013333,50.52615 384.038801,50.64615 384.038801,50.78715 C384.038801,50.94765 383.993858,51.09165 383.902472,51.22065 C383.811086,51.34965 383.670262,51.43965 383.48,51.48915 L383.48,51.50715 C383.716704,51.54465 383.899476,51.62565 384.029813,51.75315 C384.161648,51.88065 384.226067,52.05465 384.226067,52.27815 C384.226067,52.43415 384.196105,52.57215 384.137678,52.69065 C384.079251,52.80765 383.995356,52.90515 383.887491,52.98465 C383.781124,53.06265 383.650787,53.12115 383.500974,53.16165 C383.351161,53.20065 383.184869,53.22015 383.005094,53.22015 L381.980375,53.22015 L381.980375,50.00115 Z" id="Fill-57" fill="#1A3667" mask="url(#mask-2)"></path>
                <path d="M384.788614,50.8359 L385.194607,50.8359 L385.194607,52.2924 C385.194607,52.5189 385.230562,52.6809 385.300974,52.7814 C385.371386,52.8804 385.485243,52.9299 385.641049,52.9299 C385.765393,52.9299 385.876255,52.8984 385.969139,52.8354 C386.065019,52.7709 386.16839,52.6689 386.283745,52.5279 L386.283745,50.8359 L386.685243,50.8359 L386.685243,53.2194 L386.352659,53.2194 L386.318202,52.8474 L386.303221,52.8474 C386.19236,52.9779 386.074007,53.0829 385.952659,53.1609 C385.829813,53.2404 385.685993,53.2779 385.518202,53.2779 C385.263521,53.2779 385.077753,53.1999 384.962397,53.0439 C384.847041,52.8864 384.788614,52.6539 384.788614,52.3464 L384.788614,50.8359 Z" id="Fill-58" fill="#1A3667" mask="url(#mask-2)"></path>
                <path d="M387.425019,52.68015 C387.529888,52.76565 387.637753,52.83465 387.745618,52.88715 C387.854981,52.93815 387.982322,52.96515 388.126142,52.96515 C388.281948,52.96515 388.4003,52.92915 388.478202,52.85715 C388.557603,52.78515 388.596554,52.69665 388.596554,52.59165 C388.596554,52.53015 388.580075,52.47615 388.547116,52.42965 C388.515655,52.38465 388.47221,52.34415 388.422772,52.30965 C388.371835,52.27515 388.313408,52.24515 388.248989,52.21965 C388.183071,52.19265 388.117154,52.16715 388.052734,52.14015 C387.967341,52.11165 387.883446,52.07715 387.798052,52.03965 C387.712659,52.00215 387.637753,51.95715 387.570337,51.90315 C387.502921,51.84915 387.448989,51.78615 387.405543,51.71415 C387.363596,51.64215 387.341124,51.55515 387.341124,51.45465 C387.341124,51.35865 387.360599,51.27015 387.398052,51.18615 C387.435506,51.10365 387.489438,51.03165 387.55985,50.97015 C387.630262,50.91015 387.715655,50.86365 387.817528,50.82915 C387.917903,50.79465 388.03176,50.77665 388.159101,50.77665 C388.310412,50.77665 388.44824,50.80365 388.574082,50.85465 C388.699925,50.90715 388.809288,50.97165 388.899176,51.04665 L388.708914,51.30165 C388.628015,51.24015 388.542622,51.18915 388.454232,51.14865 C388.365843,51.11115 388.268464,51.09015 388.165094,51.09015 C388.015281,51.09015 387.904419,51.12465 387.834007,51.19365 C387.765094,51.26265 387.729139,51.34215 387.729139,51.43365 C387.729139,51.49065 387.74412,51.53865 387.772584,51.57915 C387.802547,51.61965 387.841498,51.65565 387.890936,51.68715 C387.940375,51.71715 387.995805,51.74565 388.060225,51.77115 C388.123146,51.79515 388.190562,51.82065 388.257978,51.84615 C388.341873,51.87915 388.428764,51.91365 388.515655,51.94965 C388.601049,51.98565 388.678951,52.03065 388.747865,52.08465 C388.816779,52.13865 388.873708,52.20465 388.917154,52.28265 C388.960599,52.36215 388.983071,52.45665 388.983071,52.56765 C388.983071,52.66515 388.963596,52.75665 388.92764,52.84215 C388.890187,52.92765 388.833258,53.00265 388.761348,53.06715 C388.686442,53.13315 388.595056,53.18415 388.485693,53.22165 C388.37633,53.26065 388.251985,53.27865 388.111161,53.27865 C387.941873,53.27865 387.778577,53.24715 387.625768,53.18565 C387.471461,53.12265 387.338127,53.04465 387.22427,52.95015 L387.425019,52.68015 Z" id="Fill-59" fill="#1A3667" mask="url(#mask-2)"></path>
                <path d="M389.541573,53.2197 L389.943071,53.2197 L389.943071,50.8362 L389.541573,50.8362 L389.541573,53.2197 Z M389.746816,50.3457 C389.668914,50.3457 389.601498,50.3202 389.549064,50.2707 C389.495131,50.2227 389.466667,50.1612 389.466667,50.0847 C389.466667,50.0067 389.495131,49.9437 389.549064,49.8957 C389.601498,49.8492 389.668914,49.8252 389.746816,49.8252 C389.826217,49.8252 389.892135,49.8492 389.946067,49.8957 C390,49.9437 390.026966,50.0067 390.026966,50.0847 C390.026966,50.1612 390,50.2227 389.946067,50.2707 C389.892135,50.3202 389.826217,50.3457 389.746816,50.3457 Z" id="Fill-60" fill="#1A3667" mask="url(#mask-2)"></path>
                <path d="M390.747566,50.8359 L391.08015,50.8359 L391.114607,51.1794 L391.129588,51.1794 C391.243446,51.0639 391.363296,50.9694 391.489139,50.8929 C391.614981,50.8149 391.761798,50.7759 391.92809,50.7759 C392.179775,50.7759 392.362547,50.8554 392.479401,51.0129 C392.594757,51.1689 392.651685,51.4014 392.651685,51.7089 L392.651685,53.2194 L392.251685,53.2194 L392.251685,51.7629 C392.251685,51.5379 392.214232,51.3744 392.14382,51.2739 C392.07191,51.1749 391.958052,51.1254 391.800749,51.1254 C391.676404,51.1254 391.567041,51.1554 391.471161,51.2184 C391.378277,51.2799 391.270412,51.3714 391.149064,51.4929 L391.149064,53.2194 L390.747566,53.2194 L390.747566,50.8359 Z" id="Fill-61" fill="#1A3667" mask="url(#mask-2)"></path>
                <path d="M394.917154,51.85095 C394.917154,51.60495 394.866217,51.41895 394.761348,51.28845 C394.659476,51.16095 394.514157,51.09645 394.32839,51.09645 C394.244494,51.09645 394.163596,51.11295 394.085693,51.14745 C394.010787,51.18195 393.940375,51.22995 393.878951,51.29445 C393.81603,51.35745 393.763596,51.43695 393.723146,51.52995 C393.682697,51.62295 393.65573,51.72945 393.642247,51.85095 L394.917154,51.85095 Z M393.251236,52.03245 C393.251236,51.83595 393.281199,51.66045 393.341124,51.50595 C393.401049,51.34995 393.481948,51.21795 393.580824,51.10995 C393.681199,51.00195 393.795056,50.91945 393.922397,50.86245 C394.049738,50.80545 394.181573,50.77695 394.319401,50.77695 C394.469213,50.77695 394.604045,50.80245 394.722397,50.85495 C394.842247,50.90745 394.942622,50.98245 395.022022,51.08145 C395.101423,51.17895 395.162846,51.29595 395.204794,51.43395 C395.24824,51.57045 395.269213,51.72495 395.269213,51.89445 C395.269213,51.98295 395.264719,52.05795 395.25573,52.11645 L393.646742,52.11645 C393.663221,52.37445 393.74412,52.57845 393.886442,52.72845 C394.027266,52.87995 394.213034,52.95495 394.442247,52.95495 C394.556105,52.95495 394.660974,52.93845 394.758352,52.90395 C394.854232,52.86945 394.947116,52.82445 395.034007,52.76895 L395.17633,53.03295 C395.072959,53.09895 394.956105,53.15595 394.827266,53.20545 C394.699925,53.25495 394.556105,53.27895 394.391311,53.27895 C394.232509,53.27895 394.082697,53.25045 393.944869,53.19345 C393.805543,53.13495 393.684195,53.05395 393.580824,52.94745 C393.478951,52.84095 393.398052,52.71195 393.338127,52.55745 C393.2797,52.40445 393.251236,52.22895 393.251236,52.03245 Z" id="Fill-62" fill="#1A3667" mask="url(#mask-2)"></path>
                <path d="M395.793408,52.68015 C395.898277,52.76565 396.006142,52.83465 396.114007,52.88715 C396.223371,52.93815 396.350712,52.96515 396.494532,52.96515 C396.650337,52.96515 396.768689,52.92915 396.846592,52.85715 C396.925993,52.78515 396.964944,52.69665 396.964944,52.59165 C396.964944,52.53015 396.948464,52.47615 396.915506,52.42965 C396.884045,52.38465 396.840599,52.34415 396.791161,52.30965 C396.740225,52.27515 396.681798,52.24515 396.617378,52.21965 C396.551461,52.19265 396.485543,52.16715 396.421124,52.14015 C396.33573,52.11165 396.251835,52.07715 396.166442,52.03965 C396.081049,52.00215 396.006142,51.95715 395.938727,51.90315 C395.871311,51.84915 395.817378,51.78615 395.773933,51.71415 C395.731985,51.64215 395.709513,51.55515 395.709513,51.45465 C395.709513,51.35865 395.728989,51.27015 395.766442,51.18615 C395.803895,51.10365 395.857828,51.03165 395.92824,50.97015 C395.998652,50.91015 396.084045,50.86365 396.185918,50.82915 C396.286292,50.79465 396.40015,50.77665 396.527491,50.77665 C396.678801,50.77665 396.816629,50.80365 396.942472,50.85465 C397.068315,50.90715 397.177678,50.97165 397.267566,51.04665 L397.077303,51.30165 C396.996404,51.24015 396.911011,51.18915 396.822622,51.14865 C396.734232,51.11115 396.636854,51.09015 396.533483,51.09015 C396.38367,51.09015 396.272809,51.12465 396.202397,51.19365 C396.133483,51.26265 396.097528,51.34215 396.097528,51.43365 C396.097528,51.49065 396.112509,51.53865 396.140974,51.57915 C396.170936,51.61965 396.209888,51.65565 396.259326,51.68715 C396.308764,51.71715 396.364195,51.74565 396.428614,51.77115 C396.491536,51.79515 396.558951,51.82065 396.626367,51.84615 C396.710262,51.87915 396.797154,51.91365 396.884045,51.94965 C396.969438,51.98565 397.047341,52.03065 397.116255,52.08465 C397.185169,52.13865 397.242097,52.20465 397.285543,52.28265 C397.328989,52.36215 397.351461,52.45665 397.351461,52.56765 C397.351461,52.66515 397.331985,52.75665 397.29603,52.84215 C397.258577,52.92765 397.201648,53.00265 397.129738,53.06715 C397.054831,53.13315 396.963446,53.18415 396.854082,53.22165 C396.744719,53.26065 396.620375,53.27865 396.479551,53.27865 C396.310262,53.27865 396.146966,53.24715 395.994157,53.18565 C395.83985,53.12265 395.706517,53.04465 395.592659,52.95015 L395.793408,52.68015 Z" id="Fill-63" fill="#1A3667" mask="url(#mask-2)"></path>
                <path d="M397.846142,52.68015 C397.951011,52.76565 398.058876,52.83465 398.166742,52.88715 C398.276105,52.93815 398.403446,52.96515 398.547266,52.96515 C398.703071,52.96515 398.821423,52.92915 398.899326,52.85715 C398.978727,52.78515 399.017678,52.69665 399.017678,52.59165 C399.017678,52.53015 399.001199,52.47615 398.96824,52.42965 C398.936779,52.38465 398.893333,52.34415 398.843895,52.30965 C398.792959,52.27515 398.734532,52.24515 398.670112,52.21965 C398.604195,52.19265 398.538277,52.16715 398.473858,52.14015 C398.388464,52.11165 398.304569,52.07715 398.219176,52.03965 C398.133783,52.00215 398.058876,51.95715 397.991461,51.90315 C397.924045,51.84915 397.870112,51.78615 397.826667,51.71415 C397.784719,51.64215 397.762247,51.55515 397.762247,51.45465 C397.762247,51.35865 397.781723,51.27015 397.819176,51.18615 C397.856629,51.10365 397.910562,51.03165 397.980974,50.97015 C398.051386,50.91015 398.136779,50.86365 398.238652,50.82915 C398.339026,50.79465 398.452884,50.77665 398.580225,50.77665 C398.731536,50.77665 398.869363,50.80365 398.995206,50.85465 C399.121049,50.90715 399.230412,50.97165 399.3203,51.04665 L399.130037,51.30165 C399.049139,51.24015 398.963745,51.18915 398.875356,51.14865 C398.786966,51.11115 398.689588,51.09015 398.586217,51.09015 C398.436404,51.09015 398.325543,51.12465 398.255131,51.19365 C398.186217,51.26265 398.150262,51.34215 398.150262,51.43365 C398.150262,51.49065 398.165243,51.53865 398.193708,51.57915 C398.22367,51.61965 398.262622,51.65565 398.31206,51.68715 C398.361498,51.71715 398.416929,51.74565 398.481348,51.77115 C398.54427,51.79515 398.611685,51.82065 398.679101,51.84615 C398.762996,51.87915 398.849888,51.91365 398.936779,51.94965 C399.022172,51.98565 399.100075,52.03065 399.168989,52.08465 C399.237903,52.13865 399.294831,52.20465 399.338277,52.28265 C399.381723,52.36215 399.404195,52.45665 399.404195,52.56765 C399.404195,52.66515 399.384719,52.75665 399.348764,52.84215 C399.311311,52.92765 399.254382,53.00265 399.182472,53.06715 C399.107566,53.13315 399.01618,53.18415 398.906816,53.22165 C398.797453,53.26065 398.673109,53.27865 398.532285,53.27865 C398.362996,53.27865 398.1997,53.24715 398.046891,53.18565 C397.892584,53.12265 397.759251,53.04465 397.645393,52.95015 L397.846142,52.68015 Z" id="Fill-64" fill="#1A3667" mask="url(#mask-2)"></path>
                <path d="M366.259625,57.79755 L366.106816,57.30705 C366.04839,57.12705 365.992959,56.94855 365.940524,56.76855 C365.88809,56.59155 365.837154,56.40855 365.784719,56.22255 L365.765243,56.22255 C365.715805,56.40855 365.664869,56.59155 365.612434,56.76855 C365.56,56.94855 365.504569,57.12705 365.446142,57.30705 L365.293333,57.79755 L366.259625,57.79755 Z M366.361498,58.12605 L365.191461,58.12605 L364.882846,59.10705 L364.466367,59.10705 L365.554007,55.88955 L366.013933,55.88955 L367.101573,59.10705 L366.665618,59.10705 L366.361498,58.12605 Z" id="Fill-65" fill="#1A3667" mask="url(#mask-2)"></path>
                <path d="M367.763596,57.9147 C367.763596,58.2027 367.820524,58.4262 367.934382,58.5867 C368.04824,58.7472 368.211536,58.8267 368.419775,58.8267 C368.532135,58.8267 368.635506,58.7997 368.732884,58.7472 C368.83176,58.6932 368.929139,58.6092 369.028015,58.4982 L369.028015,57.2532 C368.926142,57.1617 368.830262,57.0972 368.73588,57.0597 C368.642996,57.0207 368.547116,57.0027 368.449738,57.0027 C368.355356,57.0027 368.265468,57.0252 368.181573,57.0687 C368.099176,57.1122 368.027266,57.1752 367.964345,57.2547 C367.902921,57.3357 367.853483,57.4317 367.817528,57.5412 C367.781573,57.6537 367.763596,57.7782 367.763596,57.9147 M367.347116,57.9192 C367.347116,57.7272 367.375581,57.5532 367.432509,57.3972 C367.489438,57.2427 367.565843,57.1107 367.661723,57.0027 C367.754607,56.8947 367.86397,56.8107 367.988315,56.7522 C368.112659,56.6937 368.242996,56.6637 368.380824,56.6637 C368.518652,56.6637 368.637004,56.6892 368.738876,56.7372 C368.840749,56.7867 368.942622,56.8527 369.047491,56.9382 L369.028015,56.5317 L369.028015,55.6137 L369.434007,55.6137 L369.434007,59.1072 L369.101423,59.1072 L369.066966,58.8267 L369.051985,58.8267 C368.957603,58.9182 368.849738,58.9992 368.726891,59.0652 C368.604045,59.1327 368.473708,59.1657 368.332884,59.1657 C368.03176,59.1657 367.793558,59.0577 367.613783,58.8417 C367.435506,58.6272 367.347116,58.3197 367.347116,57.9192" id="Fill-66" fill="#1A3667" mask="url(#mask-2)"></path>
                <path d="M370.238951,56.7231 L370.571536,56.7231 L370.605993,57.0666 L370.620974,57.0666 C370.724345,56.9511 370.838202,56.8566 370.961049,56.7801 C371.082397,56.7021 371.21573,56.6631 371.361049,56.6631 C371.54382,56.6631 371.686142,56.7036 371.789513,56.7846 C371.892884,56.8641 371.96779,56.9766 372.017228,57.1206 C372.141573,56.9826 372.267416,56.8731 372.39176,56.7891 C372.517603,56.7051 372.653933,56.6631 372.800749,56.6631 C373.046442,56.6631 373.227715,56.7426 373.347566,56.9001 C373.465918,57.0561 373.525843,57.2886 373.525843,57.5961 L373.525843,59.1066 L373.124345,59.1066 L373.124345,57.6501 C373.124345,57.4251 373.08839,57.2616 373.016479,57.1611 C372.944569,57.0621 372.83221,57.0126 372.683895,57.0126 C372.50412,57.0126 372.304869,57.1341 372.084644,57.3801 L372.084644,59.1066 L371.684644,59.1066 L371.684644,57.6501 C371.684644,57.4251 371.647191,57.2616 371.576779,57.1611 C371.504869,57.0621 371.392509,57.0126 371.238202,57.0126 C371.058427,57.0126 370.859176,57.1341 370.640449,57.3801 L370.640449,59.1066 L370.238951,59.1066 L370.238951,56.7231 Z" id="Fill-67" fill="#1A3667" mask="url(#mask-2)"></path>
                <path d="M374.299625,59.1072 L374.701124,59.1072 L374.701124,56.7237 L374.299625,56.7237 L374.299625,59.1072 Z M374.504869,56.2317 C374.426966,56.2317 374.359551,56.2077 374.307116,56.1582 C374.253184,56.1087 374.226217,56.0472 374.226217,55.9722 C374.226217,55.8942 374.253184,55.8312 374.307116,55.7832 C374.359551,55.7352 374.426966,55.7127 374.504869,55.7127 C374.58427,55.7127 374.650187,55.7352 374.70412,55.7832 C374.758052,55.8312 374.785019,55.8942 374.785019,55.9722 C374.785019,56.0472 374.758052,56.1087 374.70412,56.1582 C374.650187,56.2077 374.58427,56.2317 374.504869,56.2317 Z" id="Fill-68" fill="#1A3667" mask="url(#mask-2)"></path>
                <path d="M375.505768,56.7231 L375.838352,56.7231 L375.872809,57.0666 L375.88779,57.0666 C376.001648,56.9511 376.121498,56.8566 376.247341,56.7801 C376.373184,56.7021 376.52,56.6631 376.686292,56.6631 C376.937978,56.6631 377.120749,56.7426 377.237603,56.9001 C377.352959,57.0561 377.409888,57.2886 377.409888,57.5961 L377.409888,59.1066 L377.009888,59.1066 L377.009888,57.6501 C377.009888,57.4251 376.972434,57.2616 376.902022,57.1611 C376.830112,57.0621 376.716255,57.0126 376.558951,57.0126 C376.434607,57.0126 376.325243,57.0426 376.229363,57.1056 C376.136479,57.1671 376.028614,57.2586 375.907266,57.3801 L375.907266,59.1066 L375.505768,59.1066 L375.505768,56.7231 Z" id="Fill-69" fill="#1A3667" mask="url(#mask-2)"></path>
                <path d="M378.185768,59.1072 L378.587266,59.1072 L378.587266,56.7237 L378.185768,56.7237 L378.185768,59.1072 Z M378.391011,56.2317 C378.313109,56.2317 378.245693,56.2077 378.193258,56.1582 C378.139326,56.1087 378.110861,56.0472 378.110861,55.9722 C378.110861,55.8942 378.139326,55.8312 378.193258,55.7832 C378.245693,55.7352 378.313109,55.7127 378.391011,55.7127 C378.470412,55.7127 378.53633,55.7352 378.590262,55.7832 C378.644195,55.8312 378.669663,55.8942 378.669663,55.9722 C378.669663,56.0472 378.644195,56.1087 378.590262,56.1582 C378.53633,56.2077 378.470412,56.2317 378.391011,56.2317 Z" id="Fill-70" fill="#1A3667" mask="url(#mask-2)"></path>
                <path d="M379.325843,58.56735 C379.430712,58.65285 379.538577,58.72185 379.646442,58.77435 C379.755805,58.82535 379.883146,58.85235 380.026966,58.85235 C380.182772,58.85235 380.301124,58.81635 380.379026,58.74435 C380.458427,58.67235 380.497378,58.58385 380.497378,58.47885 C380.497378,58.41735 380.480899,58.36335 380.44794,58.31685 C380.416479,58.27185 380.373034,58.23135 380.323596,58.19685 C380.272659,58.16235 380.214232,58.13235 380.149813,58.10685 C380.083895,58.07985 380.017978,58.05435 379.953558,58.02735 C379.868165,57.99885 379.78427,57.96435 379.698876,57.92685 C379.613483,57.88935 379.538577,57.84435 379.471161,57.79035 C379.403745,57.73635 379.349813,57.67335 379.306367,57.60135 C379.264419,57.52935 379.241948,57.44235 379.241948,57.34185 C379.241948,57.24585 379.261423,57.15735 379.298876,57.07335 C379.33633,56.99085 379.390262,56.91885 379.460674,56.85735 C379.531086,56.79735 379.616479,56.75085 379.718352,56.71635 C379.818727,56.68185 379.932584,56.66385 380.059925,56.66385 C380.211236,56.66385 380.349064,56.69085 380.474906,56.74185 C380.600749,56.79435 380.710112,56.85885 380.8,56.93385 L380.609738,57.18885 C380.528839,57.12735 380.443446,57.07635 380.355056,57.03585 C380.266667,56.99835 380.169288,56.97735 380.065918,56.97735 C379.916105,56.97735 379.805243,57.01185 379.734831,57.08085 C379.665918,57.14985 379.629963,57.22935 379.629963,57.32085 C379.629963,57.37785 379.644944,57.42585 379.673408,57.46635 C379.703371,57.50685 379.742322,57.54285 379.79176,57.57435 C379.841199,57.60435 379.896629,57.63285 379.961049,57.65835 C380.02397,57.68235 380.091386,57.70785 380.158801,57.73335 C380.242697,57.76635 380.329588,57.80085 380.416479,57.83685 C380.501873,57.87285 380.579775,57.91785 380.648689,57.97185 C380.717603,58.02585 380.774532,58.09185 380.817978,58.16985 C380.861423,58.24935 380.883895,58.34385 380.883895,58.45485 C380.883895,58.55235 380.864419,58.64385 380.828464,58.72935 C380.791011,58.81485 380.734082,58.88985 380.662172,58.95435 C380.587266,59.02035 380.49588,59.07135 380.386517,59.10885 C380.277154,59.14785 380.152809,59.16585 380.011985,59.16585 C379.842697,59.16585 379.679401,59.13435 379.526592,59.07285 C379.372285,59.00985 379.238951,58.93185 379.125094,58.83735 L379.325843,58.56735 Z" id="Fill-71" fill="#1A3667" mask="url(#mask-2)"></path>
                <path d="M381.42367,57.05115 L381.070112,57.05115 L381.070112,56.74665 L381.443146,56.72265 L381.491086,56.05515 L381.829663,56.05515 L381.829663,56.72265 L382.470861,56.72265 L382.470861,57.05115 L381.829663,57.05115 L381.829663,58.37565 C381.829663,58.52265 381.856629,58.63665 381.910562,58.71615 C381.964494,58.79715 382.060375,58.83765 382.198202,58.83765 C382.24015,58.83765 382.285094,58.83165 382.333034,58.81815 C382.38397,58.80465 382.427416,58.78965 382.466367,58.77315 L382.54427,59.07765 C382.47985,59.10015 382.40794,59.12115 382.331536,59.13915 C382.255131,59.15715 382.178727,59.16615 382.10382,59.16615 C381.976479,59.16615 381.870112,59.14665 381.783221,59.10765 C381.69633,59.06715 381.627416,59.01465 381.573483,58.94565 C381.518052,58.87665 381.480599,58.79265 381.456629,58.69515 C381.434157,58.59615 381.42367,58.48815 381.42367,58.37115 L381.42367,57.05115 Z" id="Fill-72" fill="#1A3667" mask="url(#mask-2)"></path>
                <path d="M383.006742,56.7231 L383.339326,56.7231 L383.373783,57.1551 L383.388764,57.1551 C383.471161,57.0036 383.568539,56.8851 383.683895,56.7966 C383.800749,56.7081 383.926592,56.6631 384.064419,56.6631 C384.1603,56.6631 384.244195,56.6811 384.319101,56.7126 L384.241199,57.0666 C384.202247,57.0531 384.164794,57.0426 384.133333,57.0366 C384.100375,57.0306 384.059925,57.0276 384.010487,57.0276 C383.910112,57.0276 383.803745,57.0681 383.694382,57.1491 C383.585019,57.2316 383.489139,57.3741 383.40824,57.5766 L383.40824,59.1066 L383.006742,59.1066 L383.006742,56.7231 Z" id="Fill-73" fill="#1A3667" mask="url(#mask-2)"></path>
                <path d="M384.873558,58.45965 C384.873558,58.59615 384.912509,58.69515 384.993408,58.75365 C385.072809,58.81215 385.171685,58.84215 385.288539,58.84215 C385.403895,58.84215 385.513258,58.81515 385.615131,58.76115 C385.717004,58.70715 385.826367,58.62765 385.941723,58.52265 L385.941723,57.86115 C385.740974,57.88665 385.573184,57.91815 385.436854,57.95415 C385.299026,57.99015 385.189663,58.03215 385.105768,58.08165 C385.023371,58.13115 384.963446,58.18665 384.925993,58.25115 C384.891536,58.31415 384.873558,58.38465 384.873558,58.45965 M384.475056,58.48965 C384.475056,58.22715 384.593408,58.02615 384.827116,57.88815 C385.059326,57.74865 385.430861,57.65115 385.941723,57.59565 C385.941723,57.52065 385.934232,57.44715 385.919251,57.37515 C385.90427,57.30315 385.878801,57.24015 385.841348,57.18315 C385.802397,57.12765 385.752959,57.08415 385.691536,57.04965 C385.628614,57.01515 385.549213,56.99715 385.451835,56.99715 C385.311011,56.99715 385.180674,57.02415 385.060824,57.07665 C384.942472,57.12765 384.836105,57.18765 384.740225,57.25215 L384.579925,56.97315 C384.689288,56.90115 384.825618,56.83215 384.985918,56.76465 C385.146217,56.69715 385.321498,56.66415 385.514757,56.66415 C385.805393,56.66415 386.016629,56.75265 386.146966,56.93115 C386.277303,57.10965 386.341723,57.34815 386.341723,57.64515 L386.341723,59.10765 L386.010637,59.10765 L385.974682,58.82265 L385.965693,58.82265 C385.850337,58.91715 385.727491,58.99815 385.595655,59.06565 C385.46382,59.13315 385.324494,59.16615 385.17618,59.16615 C384.973933,59.16615 384.806142,59.10765 384.674307,58.98915 C384.540974,58.87065 384.475056,58.70565 384.475056,58.48965" id="Fill-74" fill="#1A3667" mask="url(#mask-2)"></path>
                <path d="M387.059326,57.05115 L386.705768,57.05115 L386.705768,56.74665 L387.078801,56.72265 L387.126742,56.05515 L387.465318,56.05515 L387.465318,56.72265 L388.106517,56.72265 L388.106517,57.05115 L387.465318,57.05115 L387.465318,58.37565 C387.465318,58.52265 387.492285,58.63665 387.546217,58.71615 C387.60015,58.79715 387.69603,58.83765 387.833858,58.83765 C387.875805,58.83765 387.920749,58.83165 387.968689,58.81815 C388.019625,58.80465 388.063071,58.78965 388.102022,58.77315 L388.179925,59.07765 C388.115506,59.10015 388.043596,59.12115 387.967191,59.13915 C387.890787,59.15715 387.814382,59.16615 387.739476,59.16615 C387.612135,59.16615 387.505768,59.14665 387.418876,59.10765 C387.331985,59.06715 387.263071,59.01465 387.209139,58.94565 C387.153708,58.87665 387.116255,58.79265 387.092285,58.69515 C387.069813,58.59615 387.059326,58.48815 387.059326,58.37115 L387.059326,57.05115 Z" id="Fill-75" fill="#1A3667" mask="url(#mask-2)"></path>
                <path d="M388.647191,59.1072 L389.048689,59.1072 L389.048689,56.7237 L388.647191,56.7237 L388.647191,59.1072 Z M388.850936,56.2317 C388.774532,56.2317 388.707116,56.2077 388.654682,56.1582 C388.599251,56.1087 388.572285,56.0472 388.572285,55.9722 C388.572285,55.8942 388.599251,55.8312 388.654682,55.7832 C388.707116,55.7352 388.774532,55.7127 388.850936,55.7127 C388.930337,55.7127 388.996255,55.7352 389.050187,55.7832 C389.10412,55.8312 389.131086,55.8942 389.131086,55.9722 C389.131086,56.0472 389.10412,56.1087 389.050187,56.1582 C388.996255,56.2077 388.930337,56.2317 388.850936,56.2317 Z" id="Fill-76" fill="#1A3667" mask="url(#mask-2)"></path>
                <path d="M390.092135,57.9198 C390.092135,58.0578 390.108614,58.1808 390.140075,58.2933 C390.174532,58.4043 390.219476,58.5003 390.280899,58.5798 C390.340824,58.6593 390.414232,58.7223 390.498127,58.7658 C390.583521,58.8108 390.676404,58.8318 390.778277,58.8318 C390.878652,58.8318 390.971536,58.8108 391.058427,58.7658 C391.142322,58.7223 391.214232,58.6593 391.275655,58.5798 C391.335581,58.5003 391.382022,58.4043 391.414981,58.2933 C391.446442,58.1808 391.462921,58.0578 391.462921,57.9198 C391.462921,57.7818 391.446442,57.6573 391.414981,57.5448 C391.382022,57.4323 391.335581,57.3348 391.275655,57.2523 C391.214232,57.1713 391.142322,57.1068 391.058427,57.0633 C390.971536,57.0198 390.878652,56.9973 390.778277,56.9973 C390.676404,56.9973 390.583521,57.0198 390.498127,57.0633 C390.414232,57.1068 390.340824,57.1713 390.280899,57.2523 C390.219476,57.3348 390.174532,57.4323 390.140075,57.5448 C390.108614,57.6573 390.092135,57.7818 390.092135,57.9198 M389.675655,57.9198 C389.675655,57.7203 389.705618,57.5433 389.765543,57.3873 C389.825468,57.2328 389.907865,57.1008 390.00824,56.9928 C390.110112,56.8848 390.226966,56.8023 390.358801,56.7468 C390.492135,56.6913 390.629963,56.6643 390.778277,56.6643 C390.925094,56.6643 391.064419,56.6913 391.196255,56.7468 C391.32809,56.8023 391.444944,56.8848 391.546816,56.9928 C391.648689,57.1008 391.729588,57.2328 391.789513,57.3873 C391.849438,57.5433 391.879401,57.7203 391.879401,57.9198 C391.879401,58.1163 391.849438,58.2918 391.789513,58.4478 C391.729588,58.6023 391.648689,58.7328 391.546816,58.8393 C391.444944,58.9458 391.32809,59.0268 391.196255,59.0823 C391.064419,59.1378 390.925094,59.1663 390.778277,59.1663 C390.629963,59.1663 390.492135,59.1378 390.358801,59.0823 C390.226966,59.0268 390.110112,58.9458 390.00824,58.8393 C389.907865,58.7328 389.825468,58.6023 389.765543,58.4478 C389.705618,58.2918 389.675655,58.1163 389.675655,57.9198" id="Fill-77" fill="#1A3667" mask="url(#mask-2)"></path>
                <path d="M392.507566,56.7231 L392.84015,56.7231 L392.874607,57.0666 L392.889588,57.0666 C393.003446,56.9511 393.123296,56.8566 393.249139,56.7801 C393.374981,56.7021 393.521798,56.6631 393.68809,56.6631 C393.939775,56.6631 394.122547,56.7426 394.239401,56.9001 C394.354757,57.0561 394.411685,57.2886 394.411685,57.5961 L394.411685,59.1066 L394.011685,59.1066 L394.011685,57.6501 C394.011685,57.4251 393.974232,57.2616 393.90382,57.1611 C393.83191,57.0621 393.718052,57.0126 393.560749,57.0126 C393.436404,57.0126 393.327041,57.0426 393.231161,57.1056 C393.138277,57.1671 393.030412,57.2586 392.909064,57.3801 L392.909064,59.1066 L392.507566,59.1066 L392.507566,56.7231 Z" id="Fill-78" fill="#1A3667" mask="url(#mask-2)"></path>
                <polygon id="Fill-79" fill="#CA2026" mask="url(#mask-2)" points="396.716554 40.74825 362.754007 40.74825 362.434906 40.74825 362.434906 40.39725 362.434906 35.39325 359.522547 35.39325 359.522547 43.94175 396.733034 43.94175"></polygon>
                <polygon id="Fill-80" fill="#1A3667" mask="url(#mask-2)" points="359.572135 8.54805 362.485993 8.54805 362.485993 3.54255 362.485993 3.19305 362.805094 3.19305 396.447041 3.19305 396.766142 3.19305 396.766142 3.54255 396.766142 8.54805 399.68 8.54805 399.68 -0.00045 359.572135 -0.00045"></polygon>
                <polygon id="Fill-81" fill="#1A3667" mask="url(#mask-2)" points="399.629513 40.72845 396.733633 43.94145 396.733633 32.11245 399.629513 32.11245"></polygon>
            </g>
        </g>
    </g>
</svg>