<?xml version="1.0" encoding="UTF-8"?>
<svg width="400px" height="54px" viewBox="0 0 400 54" version="1.1" xmlns="http://www.w3.org/2000/svg" xmlns:xlink="http://www.w3.org/1999/xlink">
    <!-- Generator: Sketch 49 (51002) - http://www.bohemiancoding.com/sketch -->
    <title>Page 1</title>
    <desc>Created with Sketch.</desc>
    <defs>
        <polygon id="path-1" points="0 53.415 399.403745 53.415 399.403745 0 0 0"></polygon>
    </defs>
    <g id="Page-1" stroke="none" stroke-width="1" fill="none" fill-rule="evenodd">
        <g id="Tablet" transform="translate(-249.000000, -2845.000000)">
            <g id="Page-1" transform="translate(249.000000, 2845.000000)">
                <path d="M77.5592509,4.60935 L79.4139326,4.60935 L79.4139326,13.26885 C79.4139326,14.14785 79.5023221,14.88735 79.6820974,15.48435 C79.8603745,16.07985 80.1030712,16.55685 80.4086891,16.91535 C80.712809,17.27385 81.0753558,17.53035 81.4918352,17.68785 C81.9083146,17.84385 82.3562547,17.92185 82.8326592,17.92185 C83.3240449,17.92185 83.7779775,17.84385 84.1959551,17.68785 C84.6124345,17.53035 84.9779775,17.27385 85.2910861,16.91535 C85.6041948,16.55685 85.8498876,16.07985 86.0281648,15.48435 C86.2064419,14.88735 86.2963296,14.14785 86.2963296,13.26885 L86.2963296,4.60935 L88.0835955,4.60935 L88.0835955,13.22385 C88.0835955,14.40135 87.9502622,15.39435 87.6820974,16.19985 C87.4139326,17.00535 87.0453933,17.65785 86.5764794,18.15735 C86.1060674,18.65685 85.5502622,19.01535 84.9105618,19.23135 C84.2693633,19.44735 83.5772285,19.55535 82.8326592,19.55535 C82.0865918,19.55535 81.3914607,19.44735 80.7427715,19.23135 C80.0955805,19.01535 79.536779,18.65685 79.0678652,18.15735 C78.5974532,17.65785 78.2289139,17.00535 77.9622472,16.19985 C77.6925843,15.39435 77.5592509,14.40135 77.5592509,13.22385 L77.5592509,4.60935 Z" id="Fill-1" fill="#1A3667"></path>
                <path d="M91.1235955,18.1686 C91.1235955,17.7351 91.2539326,17.3886 91.5146067,17.1276 C91.7752809,16.8666 92.0913858,16.7361 92.4644195,16.7361 C92.8209738,16.7361 93.1310861,16.8666 93.3917603,17.1276 C93.6509363,17.3886 93.7827715,17.7351 93.7827715,18.1686 C93.7827715,18.5706 93.6509363,18.9036 93.3917603,19.1646 C93.1310861,19.4241 92.8209738,19.5561 92.4644195,19.5561 C92.0913858,19.5561 91.7752809,19.4241 91.5146067,19.1646 C91.2539326,18.9036 91.1235955,18.5706 91.1235955,18.1686" id="Fill-3" fill="#1A3667"></path>
                <path d="M97.2901873,16.0878 C97.8115356,16.6398 98.4257678,17.0838 99.134382,17.4183 C99.8414981,17.7543 100.575581,17.9223 101.335131,17.9223 C102.302921,17.9223 103.056479,17.7018 103.592809,17.2623 C104.12764,16.8228 104.397303,16.2438 104.397303,15.5283 C104.397303,15.1548 104.332884,14.8383 104.207041,14.5773 C104.0797,14.3163 103.907416,14.0928 103.691685,13.9053 C103.475955,13.7193 103.219775,13.5528 102.921648,13.4028 C102.623521,13.2528 102.302921,13.0968 101.961348,12.9318 L99.8594757,12.0153 C99.5179026,11.8668 99.1673408,11.6868 98.8107865,11.4783 C98.4527341,11.2698 98.1321348,11.0163 97.8489888,10.7178 C97.5658427,10.4193 97.3351311,10.0653 97.1568539,9.6543 C96.9785768,9.2448 96.8886891,8.7708 96.8886891,8.2338 C96.8886891,7.6818 97.0040449,7.1673 97.2347566,6.6903 C97.4654682,6.2133 97.7860674,5.7993 98.1950562,5.4483 C98.6055431,5.0988 99.0894382,4.8258 99.6482397,4.6323 C100.207041,4.4388 100.821273,4.3413 101.490936,4.3413 C102.370337,4.3413 103.182322,4.5093 103.926891,4.8438 C104.671461,5.1798 105.305169,5.6163 105.826517,6.1533 L104.821273,7.3623 C104.374831,6.9288 103.878951,6.5898 103.335131,6.3438 C102.791311,6.0978 102.177079,5.9748 101.490936,5.9748 C100.671461,5.9748 100.012285,6.1638 99.5134082,6.5448 C99.0145318,6.9258 98.7658427,7.4508 98.7658427,8.1213 C98.7658427,8.4798 98.8362547,8.7828 98.9770787,9.0288 C99.1194007,9.2748 99.3096629,9.4908 99.5478652,9.6783 C99.7860674,9.8643 100.046742,10.0278 100.329888,10.1703 C100.613034,10.3113 100.90367,10.4418 101.2003,10.5603 L103.2797,11.4558 C103.69618,11.6358 104.091685,11.8398 104.463221,12.0708 C104.836255,12.3033 105.155356,12.5718 105.425019,12.8763 C105.693184,13.1823 105.904419,13.5408 106.061723,13.9503 C106.217528,14.3613 106.295431,14.8353 106.295431,15.3708 C106.295431,15.9528 106.180075,16.4973 105.949363,17.0043 C105.718652,17.5128 105.387566,17.9553 104.954607,18.3363 C104.523146,18.7158 104.001798,19.0158 103.390562,19.2318 C102.780824,19.4478 102.087191,19.5558 101.312659,19.5558 C100.284944,19.5558 99.3306367,19.3623 98.4527341,18.9738 C97.5733333,18.5868 96.8137828,18.0558 96.1725843,17.3853 L97.2901873,16.0878 Z" id="Fill-5" fill="#1A3667"></path>
                <path d="M108.620524,18.1686 C108.620524,17.7351 108.750861,17.3886 109.011536,17.1276 C109.27221,16.8666 109.588315,16.7361 109.961348,16.7361 C110.317903,16.7361 110.628015,16.8666 110.888689,17.1276 C111.147865,17.3886 111.2797,17.7351 111.2797,18.1686 C111.2797,18.5706 111.147865,18.9036 110.888689,19.1646 C110.628015,19.4241 110.317903,19.5561 109.961348,19.5561 C109.588315,19.5561 109.27221,19.4241 109.011536,19.1646 C108.750861,18.9036 108.620524,18.5706 108.620524,18.1686" id="Fill-7" fill="#1A3667"></path>
                <path d="M119.301124,16.0878 C119.82397,16.6398 120.438202,17.0838 121.14382,17.4183 C121.852434,17.7543 122.586517,17.9223 123.346067,17.9223 C124.315356,17.9223 125.067416,17.7018 125.603745,17.2623 C126.138577,16.8228 126.406742,16.2438 126.406742,15.5283 C126.406742,15.1548 126.34382,14.8383 126.217978,14.5773 C126.090637,14.3163 125.91985,14.0928 125.702622,13.9053 C125.48839,13.7193 125.230712,13.5528 124.932584,13.4028 C124.634457,13.2528 124.315356,13.0968 123.972285,12.9318 L121.87191,12.0153 C121.527341,11.8668 121.178277,11.6868 120.821723,11.4783 C120.462172,11.2698 120.143071,11.0163 119.859925,10.7178 C119.578277,10.4193 119.346067,10.0653 119.16779,9.6543 C118.988015,9.2448 118.898127,8.7708 118.898127,8.2338 C118.898127,7.6818 119.014981,7.1673 119.245693,6.6903 C119.476404,6.2133 119.797004,5.7993 120.205993,5.4483 C120.616479,5.0988 121.100375,4.8258 121.659176,4.6323 C122.216479,4.4388 122.83221,4.3413 123.503371,4.3413 C124.381273,4.3413 125.193258,4.5093 125.939326,4.8438 C126.683895,5.1798 127.316105,5.6163 127.837453,6.1533 L126.83221,7.3623 C126.385768,6.9288 125.88839,6.5898 125.346067,6.3438 C124.802247,6.0978 124.188015,5.9748 123.503371,5.9748 C122.683895,5.9748 122.023221,6.1638 121.524345,6.5448 C121.025468,6.9258 120.775281,7.4508 120.775281,8.1213 C120.775281,8.4798 120.847191,8.7828 120.988015,9.0288 C121.130337,9.2748 121.320599,9.4908 121.558801,9.6783 C121.797004,9.8643 122.057678,10.0278 122.339326,10.1703 C122.62397,10.3113 122.913109,10.4418 123.211236,10.5603 L125.290637,11.4558 C125.707116,11.6358 126.102622,11.8398 126.474157,12.0708 C126.847191,12.3033 127.16779,12.5718 127.435955,12.8763 C127.702622,13.1823 127.915356,13.5408 128.071161,13.9503 C128.228464,14.3613 128.307865,14.8353 128.307865,15.3708 C128.307865,15.9528 128.192509,16.4973 127.9603,17.0043 C127.729588,17.5128 127.397004,17.9553 126.965543,18.3363 C126.534082,18.7158 126.011236,19.0158 125.401498,19.2318 C124.790262,19.4478 124.098127,19.5558 123.325094,19.5558 C122.29588,19.5558 121.341573,19.3623 120.462172,18.9738 C119.58427,18.5868 118.824719,18.0558 118.185019,17.3853 L119.301124,16.0878 Z" id="Fill-9" fill="#1A3667"></path>
                <path d="M131.009738,8.4135 L132.530337,8.4135 L132.686142,9.9795 L132.753558,9.9795 C133.229963,9.4575 133.748315,9.021 134.305618,8.67 C134.864419,8.3205 135.472659,8.145 136.127341,8.145 C136.961798,8.145 137.613483,8.328 138.083895,8.6925 C138.551311,9.0585 138.898876,9.57 139.122097,10.2255 C139.68839,9.6 140.257678,9.096 140.831461,8.715 C141.403745,8.3355 142.026966,8.145 142.698127,8.145 C143.81573,8.145 144.645693,8.5035 145.189513,9.219 C145.731835,9.9345 146.004494,10.9935 146.004494,12.396 L146.004494,19.287 L144.172285,19.287 L144.172285,12.642 C144.172285,11.613 144.008989,10.8705 143.680899,10.416 C143.352809,9.9615 142.844944,9.7335 142.1603,9.7335 C141.340824,9.7335 140.432959,10.293 139.435206,11.412 L139.435206,19.287 L137.601498,19.287 L137.601498,12.642 C137.601498,11.613 137.438202,10.8705 137.110112,10.416 C136.783521,9.9615 136.269663,9.7335 135.568539,9.7335 C134.749064,9.7335 133.841199,10.293 132.843446,11.412 L132.843446,19.287 L131.009738,19.287 L131.009738,8.4135 Z" id="Fill-11" fill="#1A3667"></path>
                <path d="M150.808689,16.33395 C150.808689,16.95945 150.991461,17.40795 151.355506,17.67645 C151.721049,17.94495 152.171985,18.07845 152.708315,18.07845 C153.229663,18.07845 153.724045,17.95545 154.194457,17.70945 C154.663371,17.46345 155.157753,17.10195 155.680599,16.62495 L155.680599,13.60395 C154.772734,13.72395 154.004195,13.86495 153.379476,14.02845 C152.753258,14.19345 152.249888,14.38695 151.870861,14.61045 C151.490337,14.83395 151.217678,15.09195 151.054382,15.38295 C150.891086,15.67395 150.808689,15.99045 150.808689,16.33395 M148.998951,16.46745 C148.998951,15.27495 149.530787,14.36145 150.595955,13.72695 C151.661124,13.09245 153.355506,12.64995 155.680599,12.39645 C155.680599,12.05295 155.646142,11.71695 155.580225,11.38845 C155.512809,11.06145 155.394457,10.77045 155.222172,10.51695 C155.051386,10.26345 154.82367,10.05795 154.540524,9.90045 C154.257378,9.74445 153.893333,9.66645 153.445393,9.66645 C152.805693,9.66645 152.212434,9.78645 151.668614,10.02345 C151.124794,10.26345 150.637903,10.53195 150.206442,10.83045 L149.467865,9.55395 C149.974232,9.22695 150.591461,8.90895 151.322547,8.60295 C152.052135,8.29845 152.856629,8.14545 153.73603,8.14545 C155.061873,8.14545 156.022172,8.55195 156.618427,9.36495 C157.214682,10.17795 157.512809,11.26245 157.512809,12.61995 L157.512809,19.28745 L155.993708,19.28745 L155.836404,17.98995 L155.791461,17.98995 C155.27161,18.42195 154.708315,18.79095 154.104569,19.09695 C153.502322,19.40295 152.86412,19.55595 152.194457,19.55595 C151.27161,19.55595 150.507566,19.28745 149.90382,18.75045 C149.300075,18.21345 148.998951,17.45295 148.998951,16.46745" id="Fill-13" fill="#1A3667"></path>
                <path d="M160.976629,3.35685 L162.810337,3.35685 L162.810337,17.22885 C162.810337,17.52735 162.862772,17.73585 162.966142,17.85585 C163.069513,17.97435 163.190861,18.03435 163.322697,18.03435 L163.491985,18.03435 C163.542921,18.03435 163.622322,18.01935 163.725693,17.98935 L163.971386,19.37685 C163.853034,19.43535 163.710712,19.48035 163.547416,19.51035 C163.382622,19.54035 163.174382,19.55535 162.921199,19.55535 C162.221573,19.55535 161.722697,19.34685 161.424569,18.92835 C161.126442,18.51135 160.976629,17.89935 160.976629,17.09385 L160.976629,3.35685 Z" id="Fill-15" fill="#1A3667"></path>
                <path d="M166.673558,3.35685 L168.507266,3.35685 L168.507266,17.22885 C168.507266,17.52735 168.5597,17.73585 168.663071,17.85585 C168.766442,17.97435 168.88779,18.03435 169.019625,18.03435 L169.188914,18.03435 C169.23985,18.03435 169.319251,18.01935 169.422622,17.98935 L169.668315,19.37685 C169.549963,19.43535 169.40764,19.48035 169.244345,19.51035 C169.079551,19.54035 168.871311,19.55535 168.618127,19.55535 C167.918502,19.55535 167.419625,19.34685 167.121498,18.92835 C166.823371,18.51135 166.673558,17.89935 166.673558,17.09385 L166.673558,3.35685 Z" id="Fill-17" fill="#1A3667"></path>
                <path d="M181.467566,17.81055 C182.733483,17.81055 183.716255,17.57505 184.417378,17.10555 C185.117004,16.63605 185.467566,15.90105 185.467566,14.90205 C185.467566,13.99305 185.122996,13.32405 184.438352,12.89955 C183.753708,12.47355 182.763446,12.26205 181.467566,12.26205 L178.919251,12.26205 L178.919251,17.81055 L181.467566,17.81055 Z M181.087041,10.87455 C182.352959,10.87455 183.257828,10.65855 183.803146,10.22505 C184.345468,9.79305 184.618127,9.16605 184.618127,8.34555 C184.618127,7.54005 184.330487,6.96255 183.756704,6.61155 C183.184419,6.26205 182.322996,6.08655 181.176929,6.08655 L178.919251,6.08655 L178.919251,10.87455 L181.087041,10.87455 Z M177.066067,4.60905 L181.422622,4.60905 C182.167191,4.60905 182.848839,4.67655 183.467566,4.81005 C184.084794,4.94505 184.615131,5.15355 185.054082,5.43705 C185.493034,5.72055 185.836105,6.09105 186.081798,6.54555 C186.327491,7.00005 186.450337,7.54905 186.450337,8.18955 C186.450337,8.92005 186.242097,9.58005 185.82412,10.16955 C185.40764,10.75905 184.766442,11.16555 183.903521,11.38905 L183.903521,11.47905 C184.97618,11.64255 185.809139,12.01605 186.405393,12.59655 C187.00015,13.17855 187.299775,13.97655 187.299775,14.99205 C187.299775,15.70755 187.166442,16.33455 186.896779,16.87155 C186.628614,17.40705 186.24809,17.85555 185.756704,18.21405 C185.265318,18.57105 184.678052,18.83955 183.993408,19.01805 C183.307266,19.19805 182.555206,19.28655 181.73573,19.28655 L177.066067,19.28655 L177.066067,4.60905 Z" id="Fill-19" fill="#1A3667"></path>
                <path d="M189.869663,8.4135 L191.722846,8.4135 L191.722846,15.0585 C191.722846,16.0875 191.884644,16.83 192.205243,17.2845 C192.524345,17.739 193.041199,17.967 193.757303,17.967 C194.323596,17.967 194.822472,17.8215 195.255431,17.5305 C195.686891,17.2395 196.163296,16.7745 196.684644,16.1325 L196.684644,8.4135 L198.516854,8.4135 L198.516854,19.287 L196.997753,19.287 L196.840449,17.586 L196.773034,17.586 C196.268165,18.183 195.734831,18.6615 195.17603,19.0185 C194.617228,19.377 193.958052,19.5555 193.198502,19.5555 C192.035955,19.5555 191.191011,19.197 190.662172,18.4815 C190.133333,17.766 189.869663,16.707 189.869663,15.3045 L189.869663,8.4135 Z" id="Fill-21" fill="#1A3667"></path>
                <path d="M201.891386,16.8261 C202.36779,17.2146 202.85618,17.5266 203.355056,17.7651 C203.853933,18.0051 204.430712,18.1236 205.086891,18.1236 C205.801498,18.1236 206.337828,17.9601 206.69588,17.6316 C207.052434,17.3031 207.230712,16.9011 207.230712,16.4226 C207.230712,16.1391 207.157303,15.8931 207.008989,15.6846 C206.859176,15.4761 206.668914,15.2931 206.438202,15.1371 C206.207491,14.9796 205.94382,14.8416 205.645693,14.7231 C205.347566,14.6031 205.049438,14.4846 204.751311,14.3646 C204.363296,14.2311 203.976779,14.0781 203.590262,13.9056 C203.202247,13.7346 202.85618,13.5261 202.549064,13.2801 C202.244944,13.0341 201.994757,12.7461 201.801498,12.4191 C201.60824,12.0906 201.510861,11.6946 201.510861,11.2326 C201.510861,10.7991 201.597753,10.3926 201.768539,10.0131 C201.939326,9.6321 202.185019,9.3051 202.505618,9.0291 C202.826217,8.7531 203.217228,8.5371 203.678652,8.3796 C204.140075,8.2236 204.662921,8.1441 205.242697,8.1441 C205.927341,8.1441 206.558052,8.2641 207.131835,8.5026 C207.705618,8.7411 208.2,9.0321 208.616479,9.3756 L207.746067,10.5396 C207.373034,10.2561 206.985019,10.0236 206.583521,9.8451 C206.182022,9.6666 205.741573,9.5766 205.265169,9.5766 C204.580524,9.5766 204.077154,9.7326 203.756554,10.0461 C203.435955,10.3596 203.277154,10.7256 203.277154,11.1426 C203.277154,11.3961 203.344569,11.6166 203.477903,11.8026 C203.611236,11.9901 203.791011,12.1536 204.014232,12.2946 C204.237453,12.4371 204.493633,12.5631 204.785768,12.6756 C205.074906,12.7881 205.377528,12.9036 205.690637,13.0221 C206.077154,13.1706 206.468165,13.3281 206.862172,13.4916 C207.257678,13.6566 207.611236,13.8606 207.924345,14.1081 C208.237453,14.3541 208.493633,14.6556 208.69588,15.0141 C208.896629,15.3711 208.997004,15.8046 208.997004,16.3116 C208.997004,16.7586 208.91161,17.1756 208.739326,17.5641 C208.568539,17.9526 208.315356,18.2946 207.979775,18.5931 C207.645693,18.8916 207.229213,19.1271 206.728839,19.2981 C206.229963,19.4691 205.660674,19.5561 205.019476,19.5561 C204.244944,19.5561 203.507865,19.4136 202.806742,19.1301 C202.107116,18.8481 201.49588,18.4896 200.97603,18.0561 L201.891386,16.8261 Z" id="Fill-23" fill="#1A3667"></path>
                <mask id="mask-2" fill="white">
                    <use xlink:href="#path-1"></use>
                </mask>
                <g id="Clip-26"></g>
                <path d="M211.544569,19.287 L213.378277,19.287 L213.378277,8.4135 L211.544569,8.4135 L211.544569,19.287 Z M212.483895,6.1755 C212.125843,6.1755 211.823221,6.0645 211.577528,5.841 C211.331835,5.616 211.208989,5.3325 211.208989,4.9905 C211.208989,4.632 211.331835,4.3455 211.577528,4.1295 C211.823221,3.9135 212.125843,3.804 212.483895,3.804 C212.840449,3.804 213.143071,3.9135 213.388764,4.1295 C213.634457,4.3455 213.757303,4.632 213.757303,4.9905 C213.757303,5.3325 213.634457,5.616 213.388764,5.841 C213.143071,6.0645 212.840449,6.1755 212.483895,6.1755 Z" id="Fill-25" fill="#1A3667" mask="url(#mask-2)"></path>
                <path d="M217.040899,8.4135 L218.561498,8.4135 L218.717303,9.9795 L218.784719,9.9795 C219.306067,9.4575 219.852884,9.021 220.426667,8.67 C221.000449,8.3205 221.667116,8.145 222.428165,8.145 C223.574232,8.145 224.411685,8.5035 224.940524,9.219 C225.469363,9.9345 225.734532,10.9935 225.734532,12.396 L225.734532,19.287 L223.902322,19.287 L223.902322,12.642 C223.902322,11.613 223.737528,10.8705 223.410936,10.416 C223.081348,9.9615 222.561498,9.7335 221.845393,9.7335 C221.279101,9.7335 220.780225,9.876 220.348764,10.158 C219.917303,10.4415 219.425918,10.86 218.874607,11.412 L218.874607,19.287 L217.040899,19.287 L217.040899,8.4135 Z" id="Fill-27" fill="#1A3667" mask="url(#mask-2)"></path>
                <path d="M236.058577,13.0446 C236.058577,11.9256 235.823371,11.0721 235.354457,10.4826 C234.885543,9.8931 234.224869,9.5991 233.376929,9.5991 C232.988914,9.5991 232.620375,9.6771 232.271311,9.8331 C231.919251,9.9906 231.603146,10.2141 231.321498,10.5051 C231.036854,10.7961 230.803146,11.1546 230.617378,11.5791 C230.430112,12.0051 230.307266,12.4926 230.248839,13.0446 L236.058577,13.0446 Z M228.461573,13.8726 C228.461573,12.9771 228.599401,12.1761 228.873558,11.4666 C229.149213,10.7586 229.514757,10.1586 229.970187,9.6666 C230.422622,9.1731 230.940974,8.7966 231.522247,8.5371 C232.102022,8.2761 232.707266,8.1441 233.331985,8.1441 C234.018127,8.1441 234.63236,8.2641 235.174682,8.5026 C235.718502,8.7411 236.173933,9.0846 236.537978,9.5316 C236.903521,9.9801 237.18367,10.5156 237.376929,11.1426 C237.570187,11.7696 237.667566,12.4701 237.667566,13.2456 C237.667566,13.6491 237.645094,13.9836 237.60015,14.2536 L230.271311,14.2536 C230.346217,15.4311 230.707266,16.3641 231.354457,17.0496 C232.003146,17.7351 232.846592,18.0786 233.890787,18.0786 C234.412135,18.0786 234.893034,18.0006 235.331985,17.8446 C235.772434,17.6871 236.19191,17.4816 236.593408,17.2296 L237.242097,18.4371 C236.765693,18.7356 236.236854,18.9966 235.655581,19.2201 C235.075805,19.4436 234.412135,19.5561 233.666067,19.5561 C232.936479,19.5561 232.25633,19.4241 231.622622,19.1646 C230.988914,18.9036 230.437603,18.5301 229.970187,18.0456 C229.499775,17.5611 229.131236,16.9671 228.863071,16.2666 C228.594906,15.5661 228.461573,14.7666 228.461573,13.8726 Z" id="Fill-28" fill="#1A3667" mask="url(#mask-2)"></path>
                <path d="M240.058427,16.8261 C240.534831,17.2146 241.023221,17.5266 241.522097,17.7651 C242.020974,18.0051 242.597753,18.1236 243.253933,18.1236 C243.968539,18.1236 244.504869,17.9601 244.862921,17.6316 C245.219476,17.3031 245.397753,16.9011 245.397753,16.4226 C245.397753,16.1391 245.324345,15.8931 245.17603,15.6846 C245.026217,15.4761 244.835955,15.2931 244.605243,15.1371 C244.374532,14.9796 244.110861,14.8416 243.812734,14.7231 C243.514607,14.6031 243.216479,14.4846 242.918352,14.3646 C242.530337,14.2311 242.14382,14.0781 241.757303,13.9056 C241.369288,13.7346 241.023221,13.5261 240.716105,13.2801 C240.411985,13.0341 240.161798,12.7461 239.968539,12.4191 C239.775281,12.0906 239.677903,11.6946 239.677903,11.2326 C239.677903,10.7991 239.764794,10.3926 239.935581,10.0131 C240.106367,9.6321 240.35206,9.3051 240.672659,9.0291 C240.993258,8.7531 241.38427,8.5371 241.845693,8.3796 C242.307116,8.2236 242.829963,8.1441 243.409738,8.1441 C244.094382,8.1441 244.725094,8.2641 245.298876,8.5026 C245.872659,8.7411 246.367041,9.0321 246.783521,9.3756 L245.913109,10.5396 C245.540075,10.2561 245.15206,10.0236 244.750562,9.8451 C244.349064,9.6666 243.908614,9.5766 243.43221,9.5766 C242.747566,9.5766 242.244195,9.7326 241.923596,10.0461 C241.602996,10.3596 241.444195,10.7256 241.444195,11.1426 C241.444195,11.3961 241.51161,11.6166 241.644944,11.8026 C241.778277,11.9901 241.958052,12.1536 242.181273,12.2946 C242.404494,12.4371 242.660674,12.5631 242.952809,12.6756 C243.241948,12.7881 243.544569,12.9036 243.857678,13.0221 C244.244195,13.1706 244.635206,13.3281 245.029213,13.4916 C245.424719,13.6566 245.778277,13.8606 246.091386,14.1081 C246.404494,14.3541 246.660674,14.6556 246.862921,15.0141 C247.06367,15.3711 247.164045,15.8046 247.164045,16.3116 C247.164045,16.7586 247.078652,17.1756 246.906367,17.5641 C246.735581,17.9526 246.482397,18.2946 246.146816,18.5931 C245.812734,18.8916 245.396255,19.1271 244.89588,19.2981 C244.397004,19.4691 243.827715,19.5561 243.186517,19.5561 C242.411985,19.5561 241.674906,19.4136 240.973783,19.1301 C240.274157,18.8481 239.662921,18.4896 239.143071,18.0561 L240.058427,16.8261 Z" id="Fill-29" fill="#1A3667" mask="url(#mask-2)"></path>
                <path d="M249.421723,16.8261 C249.898127,17.2146 250.386517,17.5266 250.885393,17.7651 C251.38427,18.0051 251.961049,18.1236 252.617228,18.1236 C253.331835,18.1236 253.868165,17.9601 254.226217,17.6316 C254.582772,17.3031 254.761049,16.9011 254.761049,16.4226 C254.761049,16.1391 254.68764,15.8931 254.539326,15.6846 C254.389513,15.4761 254.199251,15.2931 253.968539,15.1371 C253.737828,14.9796 253.474157,14.8416 253.17603,14.7231 C252.877903,14.6031 252.579775,14.4846 252.281648,14.3646 C251.893633,14.2311 251.507116,14.0781 251.120599,13.9056 C250.732584,13.7346 250.386517,13.5261 250.079401,13.2801 C249.775281,13.0341 249.525094,12.7461 249.331835,12.4191 C249.138577,12.0906 249.041199,11.6946 249.041199,11.2326 C249.041199,10.7991 249.12809,10.3926 249.298876,10.0131 C249.469663,9.6321 249.715356,9.3051 250.035955,9.0291 C250.356554,8.7531 250.747566,8.5371 251.208989,8.3796 C251.670412,8.2236 252.193258,8.1441 252.773034,8.1441 C253.457678,8.1441 254.08839,8.2641 254.662172,8.5026 C255.235955,8.7411 255.730337,9.0321 256.146816,9.3756 L255.276404,10.5396 C254.903371,10.2561 254.515356,10.0236 254.113858,9.8451 C253.71236,9.6666 253.27191,9.5766 252.795506,9.5766 C252.110861,9.5766 251.607491,9.7326 251.286891,10.0461 C250.966292,10.3596 250.807491,10.7256 250.807491,11.1426 C250.807491,11.3961 250.874906,11.6166 251.00824,11.8026 C251.141573,11.9901 251.321348,12.1536 251.544569,12.2946 C251.76779,12.4371 252.02397,12.5631 252.316105,12.6756 C252.605243,12.7881 252.907865,12.9036 253.220974,13.0221 C253.607491,13.1706 253.998502,13.3281 254.392509,13.4916 C254.788015,13.6566 255.141573,13.8606 255.454682,14.1081 C255.76779,14.3541 256.02397,14.6556 256.226217,15.0141 C256.426966,15.3711 256.527341,15.8046 256.527341,16.3116 C256.527341,16.7586 256.441948,17.1756 256.269663,17.5641 C256.098876,17.9526 255.845693,18.2946 255.510112,18.5931 C255.17603,18.8916 254.759551,19.1271 254.259176,19.2981 C253.7603,19.4691 253.191011,19.5561 252.549813,19.5561 C251.775281,19.5561 251.038202,19.4136 250.337079,19.1301 C249.637453,18.8481 249.026217,18.4896 248.506367,18.0561 L249.421723,16.8261 Z" id="Fill-30" fill="#1A3667" mask="url(#mask-2)"></path>
                <path d="M83.8603745,40.1625 L83.1682397,37.9245 C82.9000749,37.104 82.6453933,36.288 82.4086891,35.475 C82.1704869,34.662 81.9307865,33.831 81.6925843,32.9805 L81.6041948,32.9805 C81.3794757,33.831 81.148764,34.662 80.9105618,35.475 C80.6723596,36.288 80.419176,37.104 80.1510112,37.9245 L79.4588764,40.1625 L83.8603745,40.1625 Z M84.3292884,41.661 L78.9899625,41.661 L77.5817228,46.1355 L75.6820974,46.1355 L80.642397,31.458 L82.7427715,31.458 L87.7045693,46.1355 L85.7150562,46.1355 L84.3292884,41.661 Z" id="Fill-31" fill="#1A3667" mask="url(#mask-2)"></path>
                <path d="M90.7204494,40.69935 C90.7204494,42.01185 90.9811236,43.03335 91.5024719,43.76385 C92.0238202,44.49585 92.7608989,44.86035 93.715206,44.86035 C94.221573,44.86035 94.6979775,44.73735 95.1459176,44.49135 C95.5923596,44.24535 96.0388015,43.86885 96.4867416,43.36185 L96.4867416,37.67835 C96.0238202,37.26135 95.5818727,36.96585 95.1564045,36.79485 C94.7324345,36.62385 94.2964794,36.53835 93.8485393,36.53835 C93.4170787,36.53835 93.0110861,36.63735 92.6305618,36.83985 C92.2515356,37.04085 91.9189513,37.32435 91.6373034,37.69035 C91.3541573,38.05485 91.1294382,38.49135 90.9661423,38.99835 C90.8028464,39.50685 90.7204494,40.07235 90.7204494,40.69935 M88.820824,40.72185 C88.820824,39.84135 88.951161,39.04635 89.2118352,38.33835 C89.4725094,37.63035 89.8185768,37.03035 90.2515356,36.53835 C90.6829963,36.04485 91.1818727,35.66535 91.7496629,35.39685 C92.3144569,35.12835 92.9107116,34.99335 93.5354307,34.99335 C94.1616479,34.99335 94.7054682,35.10585 95.1668914,35.32935 C95.6283146,35.55285 96.0987266,35.85885 96.5751311,36.24735 L96.4867416,34.38885 L96.4867416,30.20535 L98.3399251,30.20535 L98.3399251,46.13685 L96.820824,46.13685 L96.6650187,44.86035 L96.597603,44.86035 C96.1661423,45.27885 95.6702622,45.64035 95.1114607,45.94635 C94.5526592,46.25235 93.9534082,46.40535 93.3122097,46.40535 C91.9414232,46.40535 90.8507865,45.91335 90.0388015,44.92785 C89.2268165,43.94385 88.820824,42.54135 88.820824,40.72185" id="Fill-32" fill="#1A3667" mask="url(#mask-2)"></path>
                <path d="M102.005393,35.2626 L103.524494,35.2626 L103.681798,36.8286 L103.749213,36.8286 C104.22412,36.3066 104.742472,35.8701 105.301273,35.5191 C105.860075,35.1696 106.466816,34.9941 107.122996,34.9941 C107.957453,34.9941 108.609139,35.1771 109.078052,35.5416 C109.546966,35.9076 109.893034,36.4191 110.117753,37.0746 C110.682547,36.4491 111.253333,35.9451 111.827116,35.5641 C112.399401,35.1846 113.022622,34.9941 113.693783,34.9941 C114.811386,34.9941 115.63985,35.3526 116.18367,36.0681 C116.727491,36.7836 117.00015,37.8426 117.00015,39.2451 L117.00015,46.1361 L115.16794,46.1361 L115.16794,39.4911 C115.16794,38.4621 115.004644,37.7196 114.676554,37.2651 C114.348464,36.8106 113.839101,36.5826 113.154457,36.5826 C112.336479,36.5826 111.428614,37.1421 110.430861,38.2611 L110.430861,46.1361 L108.597154,46.1361 L108.597154,39.4911 C108.597154,38.4621 108.433858,37.7196 108.105768,37.2651 C107.777678,36.8106 107.26382,36.5826 106.564195,36.5826 C105.744719,36.5826 104.835356,37.1421 103.837603,38.2611 L103.837603,46.1361 L102.005393,46.1361 L102.005393,35.2626 Z" id="Fill-33" fill="#1A3667" mask="url(#mask-2)"></path>
                <path d="M120.530337,46.1355 L122.364045,46.1355 L122.364045,35.262 L120.530337,35.262 L120.530337,46.1355 Z M121.469663,33.0255 C121.113109,33.0255 120.808989,32.913 120.563296,32.6895 C120.317603,32.466 120.194757,32.1825 120.194757,31.839 C120.194757,31.4805 120.317603,31.194 120.563296,30.978 C120.808989,30.762 121.113109,30.654 121.469663,30.654 C121.826217,30.654 122.128839,30.762 122.374532,30.978 C122.620225,31.194 122.743071,31.4805 122.743071,31.839 C122.743071,32.1825 122.620225,32.466 122.374532,32.6895 C122.128839,32.913 121.826217,33.0255 121.469663,33.0255 Z" id="Fill-34" fill="#1A3667" mask="url(#mask-2)"></path>
                <path d="M126.026667,35.2626 L127.547266,35.2626 L127.703071,36.8286 L127.770487,36.8286 C128.291835,36.3066 128.838652,35.8701 129.412434,35.5191 C129.986217,35.1696 130.652884,34.9941 131.413933,34.9941 C132.56,34.9941 133.397453,35.3526 133.926292,36.0681 C134.455131,36.7836 134.7203,37.8426 134.7203,39.2451 L134.7203,46.1361 L132.88809,46.1361 L132.88809,39.4911 C132.88809,38.4621 132.723296,37.7196 132.396704,37.2651 C132.067116,36.8106 131.547266,36.5826 130.831161,36.5826 C130.264869,36.5826 129.765993,36.7251 129.334532,37.0071 C128.903071,37.2906 128.411685,37.7091 127.860375,38.2611 L127.860375,46.1361 L126.026667,46.1361 L126.026667,35.2626 Z" id="Fill-35" fill="#1A3667" mask="url(#mask-2)"></path>
                <path d="M138.250187,46.1355 L140.083895,46.1355 L140.083895,35.262 L138.250187,35.262 L138.250187,46.1355 Z M139.189513,33.0255 C138.832959,33.0255 138.530337,32.913 138.283146,32.6895 C138.037453,32.466 137.914607,32.1825 137.914607,31.839 C137.914607,31.4805 138.037453,31.194 138.283146,30.978 C138.530337,30.762 138.832959,30.654 139.189513,30.654 C139.546067,30.654 139.848689,30.762 140.094382,30.978 C140.340075,31.194 140.464419,31.4805 140.464419,31.839 C140.464419,32.1825 140.340075,32.466 140.094382,32.6895 C139.848689,32.913 139.546067,33.0255 139.189513,33.0255 Z" id="Fill-36" fill="#1A3667" mask="url(#mask-2)"></path>
                <path d="M143.458427,43.6752 C143.934831,44.0637 144.423221,44.3757 144.922097,44.6142 C145.420974,44.8542 145.997753,44.9727 146.653933,44.9727 C147.368539,44.9727 147.904869,44.8092 148.262921,44.4807 C148.619476,44.1522 148.797753,43.7502 148.797753,43.2717 C148.797753,42.9882 148.724345,42.7422 148.57603,42.5337 C148.426217,42.3252 148.235955,42.1422 148.005243,41.9862 C147.774532,41.8287 147.510861,41.6907 147.212734,41.5722 C146.914607,41.4522 146.616479,41.3337 146.318352,41.2137 C145.930337,41.0802 145.54382,40.9272 145.157303,40.7547 C144.769288,40.5837 144.423221,40.3752 144.116105,40.1292 C143.811985,39.8832 143.561798,39.5952 143.368539,39.2682 C143.175281,38.9397 143.077903,38.5437 143.077903,38.0817 C143.077903,37.6482 143.164794,37.2417 143.335581,36.8622 C143.506367,36.4812 143.75206,36.1542 144.072659,35.8782 C144.393258,35.6022 144.78427,35.3862 145.245693,35.2287 C145.707116,35.0727 146.229963,34.9932 146.809738,34.9932 C147.494382,34.9932 148.125094,35.1132 148.698876,35.3517 C149.272659,35.5902 149.767041,35.8812 150.183521,36.2247 L149.313109,37.3887 C148.940075,37.1052 148.55206,36.8727 148.150562,36.6942 C147.749064,36.5157 147.308614,36.4257 146.83221,36.4257 C146.147566,36.4257 145.644195,36.5817 145.323596,36.8952 C145.002996,37.2087 144.844195,37.5747 144.844195,37.9917 C144.844195,38.2452 144.91161,38.4657 145.044944,38.6517 C145.178277,38.8392 145.358052,39.0027 145.581273,39.1437 C145.804494,39.2862 146.060674,39.4122 146.352809,39.5247 C146.641948,39.6372 146.944569,39.7527 147.257678,39.8712 C147.644195,40.0197 148.035206,40.1772 148.429213,40.3407 C148.824719,40.5057 149.178277,40.7097 149.491386,40.9572 C149.804494,41.2032 150.060674,41.5047 150.262921,41.8632 C150.46367,42.2202 150.564045,42.6537 150.564045,43.1607 C150.564045,43.6077 150.478652,44.0247 150.306367,44.4132 C150.135581,44.8017 149.882397,45.1437 149.546816,45.4422 C149.212734,45.7407 148.796255,45.9762 148.29588,46.1472 C147.797004,46.3182 147.227715,46.4052 146.586517,46.4052 C145.811985,46.4052 145.074906,46.2627 144.373783,45.9792 C143.674157,45.6972 143.062921,45.3387 142.543071,44.9052 L143.458427,43.6752 Z" id="Fill-37" fill="#1A3667" mask="url(#mask-2)"></path>
                <path d="M153.022172,36.76125 L151.414682,36.76125 L151.414682,35.37375 L153.11206,35.26275 L153.335281,32.21925 L154.876854,32.21925 L154.876854,35.26275 L157.804195,35.26275 L157.804195,36.76125 L154.876854,36.76125 L154.876854,42.80175 C154.876854,43.47375 154.9997,43.99275 155.245393,44.35725 C155.491086,44.72325 155.927041,44.90625 156.553258,44.90625 C156.746517,44.90625 156.956255,44.87625 157.177978,44.81625 C157.402697,44.75775 157.604944,44.69025 157.783221,44.61525 L158.139775,46.00275 C157.841648,46.10625 157.518052,46.19925 157.168989,46.28175 C156.816929,46.36275 156.47236,46.40475 156.12779,46.40475 C155.548015,46.40475 155.059625,46.31475 154.665618,46.13625 C154.270112,45.95775 153.949513,45.71175 153.70382,45.39825 C153.458127,45.08475 153.282846,44.70375 153.177978,44.25675 C153.074607,43.80975 153.022172,43.31775 153.022172,42.78075 L153.022172,36.76125 Z" id="Fill-38" fill="#1A3667" mask="url(#mask-2)"></path>
                <path d="M160.239251,35.2626 L161.75985,35.2626 L161.915655,37.2306 L161.983071,37.2306 C162.354607,36.5451 162.805543,36.0006 163.334382,35.5986 C163.863221,35.1951 164.441498,34.9941 165.067715,34.9941 C165.499176,34.9941 165.887191,35.0691 166.228764,35.2176 L165.87221,36.8286 C165.692434,36.7686 165.52764,36.7251 165.380824,36.6951 C165.231011,36.6651 165.043745,36.6501 164.822022,36.6501 C164.359101,36.6501 163.8797,36.8361 163.379326,37.2081 C162.880449,37.5816 162.444494,38.2311 162.072959,39.1551 L162.072959,46.1361 L160.239251,46.1361 L160.239251,35.2626 Z" id="Fill-39" fill="#1A3667" mask="url(#mask-2)"></path>
                <path d="M168.754007,43.18305 C168.754007,43.80855 168.936779,44.25705 169.300824,44.52555 C169.666367,44.79405 170.117303,44.92755 170.653633,44.92755 C171.174981,44.92755 171.669363,44.80455 172.139775,44.55855 C172.608689,44.31255 173.103071,43.95105 173.625918,43.47405 L173.625918,40.45305 C172.718052,40.57305 171.949513,40.71405 171.324794,40.87755 C170.698577,41.04255 170.195206,41.23605 169.81618,41.45955 C169.435655,41.68305 169.162996,41.94105 168.9997,42.23205 C168.836404,42.52305 168.754007,42.83955 168.754007,43.18305 M166.94427,43.31655 C166.94427,42.12405 167.476105,41.21055 168.541273,40.57605 C169.606442,39.94155 171.300824,39.49905 173.625918,39.24555 C173.625918,38.90205 173.591461,38.56605 173.525543,38.23755 C173.458127,37.91055 173.339775,37.61955 173.167491,37.36605 C172.996704,37.11255 172.768989,36.90705 172.485843,36.74955 C172.202697,36.59355 171.838652,36.51555 171.390712,36.51555 C170.751011,36.51555 170.157753,36.63555 169.613933,36.87255 C169.070112,37.11255 168.583221,37.38105 168.15176,37.67955 L167.413184,36.40305 C167.919551,36.07605 168.536779,35.75805 169.267865,35.45205 C169.997453,35.14755 170.801948,34.99455 171.681348,34.99455 C173.007191,34.99455 173.967491,35.40105 174.563745,36.21405 C175.16,37.02705 175.458127,38.11155 175.458127,39.46905 L175.458127,46.13655 L173.939026,46.13655 L173.781723,44.83905 L173.736779,44.83905 C173.216929,45.27105 172.653633,45.64005 172.049888,45.94605 C171.44764,46.25205 170.809438,46.40505 170.139775,46.40505 C169.216929,46.40505 168.452884,46.13655 167.849139,45.59955 C167.245393,45.06255 166.94427,44.30205 166.94427,43.31655" id="Fill-40" fill="#1A3667" mask="url(#mask-2)"></path>
                <path d="M178.742022,36.76125 L177.134532,36.76125 L177.134532,35.37375 L178.83191,35.26275 L179.055131,32.21925 L180.596704,32.21925 L180.596704,35.26275 L183.524045,35.26275 L183.524045,36.76125 L180.596704,36.76125 L180.596704,42.80175 C180.596704,43.47375 180.719551,43.99275 180.965243,44.35725 C181.210936,44.72325 181.646891,44.90625 182.273109,44.90625 C182.466367,44.90625 182.676105,44.87625 182.897828,44.81625 C183.122547,44.75775 183.324794,44.69025 183.503071,44.61525 L183.859625,46.00275 C183.561498,46.10625 183.237903,46.19925 182.888839,46.28175 C182.536779,46.36275 182.19221,46.40475 181.84764,46.40475 C181.267865,46.40475 180.779476,46.31475 180.385468,46.13625 C179.989963,45.95775 179.669363,45.71175 179.42367,45.39825 C179.177978,45.08475 179.002697,44.70375 178.897828,44.25675 C178.794457,43.80975 178.742022,43.31775 178.742022,42.78075 L178.742022,36.76125 Z" id="Fill-41" fill="#1A3667" mask="url(#mask-2)"></path>
                <path d="M185.982022,46.1355 L187.81573,46.1355 L187.81573,35.262 L185.982022,35.262 L185.982022,46.1355 Z M186.921348,33.0255 C186.564794,33.0255 186.262172,32.913 186.016479,32.6895 C185.770787,32.466 185.64794,32.1825 185.64794,31.839 C185.64794,31.4805 185.770787,31.194 186.016479,30.978 C186.262172,30.762 186.564794,30.654 186.921348,30.654 C187.279401,30.654 187.582022,30.762 187.827715,30.978 C188.073408,31.194 188.196255,31.4805 188.196255,31.839 C188.196255,32.1825 188.073408,32.466 187.827715,32.6895 C187.582022,32.913 187.279401,33.0255 186.921348,33.0255 Z" id="Fill-42" fill="#1A3667" mask="url(#mask-2)"></path>
                <path d="M192.574831,40.7214 C192.574831,41.3484 192.649738,41.9154 192.798052,42.4224 C192.946367,42.9294 193.159101,43.3659 193.434757,43.7304 C193.710412,44.0964 194.041498,44.3799 194.429513,44.5809 C194.81603,44.7834 195.241498,44.8824 195.702921,44.8824 C196.164345,44.8824 196.589813,44.7834 196.97633,44.5809 C197.364345,44.3799 197.695431,44.0964 197.972584,43.7304 C198.246742,43.3659 198.459476,42.9294 198.60779,42.4224 C198.757603,41.9154 198.832509,41.3484 198.832509,40.7214 C198.832509,40.0959 198.757603,39.5244 198.60779,39.0099 C198.459476,38.4954 198.246742,38.0514 197.972584,37.6794 C197.695431,37.3059 197.364345,37.0194 196.97633,36.8169 C196.589813,36.6159 196.164345,36.5154 195.702921,36.5154 C195.241498,36.5154 194.81603,36.6159 194.429513,36.8169 C194.041498,37.0194 193.710412,37.3059 193.434757,37.6794 C193.159101,38.0514 192.946367,38.4954 192.798052,39.0099 C192.649738,39.5244 192.574831,40.0959 192.574831,40.7214 M190.675206,40.7214 C190.675206,39.8124 190.813034,39.0024 191.088689,38.2944 C191.362846,37.5864 191.732884,36.9849 192.194307,36.4929 C192.657228,36.0009 193.189064,35.6274 193.791311,35.3739 C194.396554,35.1204 195.033258,34.9944 195.702921,34.9944 C196.374082,34.9944 197.010787,35.1204 197.613034,35.3739 C198.218277,35.6274 198.750112,36.0009 199.211536,36.4929 C199.672959,36.9849 200.041498,37.5864 200.317154,38.2944 C200.594307,39.0024 200.730637,39.8124 200.730637,40.7214 C200.730637,41.6169 200.594307,42.4179 200.317154,43.1274 C200.041498,43.8354 199.672959,44.4324 199.211536,44.9169 C198.750112,45.4014 198.218277,45.7704 197.613034,46.0239 C197.010787,46.2774 196.374082,46.4049 195.702921,46.4049 C195.033258,46.4049 194.396554,46.2774 193.791311,46.0239 C193.189064,45.7704 192.657228,45.4014 192.194307,44.9169 C191.732884,44.4324 191.362846,43.8354 191.088689,43.1274 C190.813034,42.4179 190.675206,41.6169 190.675206,40.7214" id="Fill-43" fill="#1A3667" mask="url(#mask-2)"></path>
                <path d="M203.589813,35.2626 L205.110412,35.2626 L205.266217,36.8286 L205.333633,36.8286 C205.854981,36.3066 206.401798,35.8701 206.975581,35.5191 C207.549363,35.1696 208.21603,34.9941 208.977079,34.9941 C210.123146,34.9941 210.960599,35.3526 211.489438,36.0681 C212.018277,36.7836 212.283446,37.8426 212.283446,39.2451 L212.283446,46.1361 L210.451236,46.1361 L210.451236,39.4911 C210.451236,38.4621 210.286442,37.7196 209.95985,37.2651 C209.630262,36.8106 209.110412,36.5826 208.394307,36.5826 C207.828015,36.5826 207.329139,36.7251 206.897678,37.0071 C206.466217,37.2906 205.974831,37.7091 205.423521,38.2611 L205.423521,46.1361 L203.589813,46.1361 L203.589813,35.2626 Z" id="Fill-44" fill="#1A3667" mask="url(#mask-2)"></path>
                <polygon id="Fill-45" fill="#CA2026" mask="url(#mask-2)" points="51.1525094 48.4638 10.76 48.4638 10.3809738 48.4638 10.3809738 48.0483 10.3809738 42.0948 6.91580524 42.0948 6.91580524 52.2618 51.171985 52.2618"></polygon>
                <polygon id="Fill-46" fill="#1A3667" mask="url(#mask-2)" points="6.97602996 10.167 10.4411985 10.167 10.4411985 4.215 10.4411985 3.798 10.8202247 3.798 50.8322097 3.798 51.2127341 3.798 51.2127341 4.215 51.2127341 10.167 54.6779026 10.167 54.6779026 0 6.97602996 0"></polygon>
                <path d="M4.18456929,30.81825 C4.21303371,32.14125 4.79430712,34.65525 8.60104869,34.65525 C10.66397,34.65525 12.9591011,34.09275 12.9591011,31.57725 C12.9591011,29.72475 11.3905618,29.22975 9.1823221,28.63425 L6.94561798,28.03725 C3.57333333,27.14475 0.320898876,26.28525 0.320898876,21.05625 C0.320898876,18.41025 1.57033708,13.74825 8.3388764,13.74825 C14.7313858,13.74825 16.4467416,18.51075 16.475206,21.42225 L12.2909363,21.42225 C12.1740824,20.36325 11.8265169,17.84925 8.01977528,17.84925 C6.36284644,17.84925 4.38831461,18.54375 4.38831461,20.69475 C4.38831461,22.54575 5.72464419,22.94475 6.59655431,23.17575 L11.6811985,24.59925 C14.5291386,25.39275 17.1433708,26.71425 17.1433708,30.98175 C17.1433708,38.12775 10.7508614,38.75625 8.92014981,38.75625 C1.30816479,38.75625 0.000299625468,33.76125 0.000299625468,30.81825 L4.18456929,30.81825 Z" id="Fill-47" fill="#1A3667" mask="url(#mask-2)"></path>
                <path d="M22.6558801,14.3754 L33.1877154,14.3754 C38.4985768,14.3754 39.8573783,18.0159 39.8573783,20.4624 C39.8573783,23.8704 38.1075655,24.8304 37.2011985,25.3254 C39.8573783,26.4174 40.5510112,28.7334 40.5510112,31.0824 C40.5510112,32.9679 39.8274157,34.7544 38.6813483,35.9784 C37.4438951,37.3014 36.266367,38.1279 31.830412,38.1279 L22.6558801,38.1279 L22.6558801,14.3754 Z M27.0019476,23.6709 L32.312809,23.6709 C34.0925843,23.6709 35.512809,22.9104 35.512809,21.0249 C35.512809,19.0719 34.2438951,18.4764 32.1914607,18.4764 L27.0019476,18.4764 L27.0019476,23.6709 Z M27.0019476,34.0254 L32.5540075,34.0254 C34.7577528,34.0254 36.0251685,32.9679 36.0251685,30.5514 C36.0251685,28.4694 34.395206,27.6729 32.7652434,27.6729 L27.0019476,27.6729 L27.0019476,34.0254 Z" id="Fill-48" fill="#1A3667" mask="url(#mask-2)"></path>
                <polygon id="Fill-49" fill="#1A3667" mask="url(#mask-2)" points="54.6432959 14.36745 51.2050936 14.36745 44.3241948 38.13495 48.668764 38.13495 52.8859925 22.53195 57.1706367 38.13495 61.5167041 38.13495"></polygon>
                <polygon id="Fill-50" fill="#1A3667" mask="url(#mask-2)" points="54.6169288 48.44265 51.1727341 52.26315 51.1727341 38.19465 54.6169288 38.19465"></polygon>
                <path d="M360.157303,44.2494 L360.563296,44.2494 L360.563296,46.1484 C360.563296,46.3419 360.58427,46.5024 360.624719,46.6329 C360.662172,46.7649 360.716105,46.8699 360.782022,46.9479 C360.849438,47.0259 360.928839,47.0829 361.020225,47.1174 C361.11161,47.1519 361.208989,47.1684 361.313858,47.1684 C361.421723,47.1684 361.522097,47.1519 361.613483,47.1174 C361.704869,47.0829 361.78427,47.0259 361.853184,46.9479 C361.922097,46.8699 361.97603,46.7649 362.014981,46.6329 C362.053933,46.5024 362.073408,46.3419 362.073408,46.1484 L362.073408,44.2494 L362.465918,44.2494 L362.465918,46.1379 C362.465918,46.3974 362.435955,46.6149 362.377528,46.7904 C362.317603,46.9674 362.238202,47.1099 362.134831,47.2194 C362.031461,47.3289 361.910112,47.4084 361.769288,47.4549 C361.628464,47.5029 361.477154,47.5269 361.313858,47.5269 C361.150562,47.5269 360.999251,47.5029 360.856929,47.4549 C360.713109,47.4084 360.59176,47.3289 360.48839,47.2194 C360.385019,47.1099 360.305618,46.9674 360.247191,46.7904 C360.187266,46.6149 360.157303,46.3974 360.157303,46.1379 L360.157303,44.2494 Z" id="Fill-51" fill="#1A3667" mask="url(#mask-2)"></path>
                <path d="M363.137528,47.2224 C363.137528,47.1279 363.165993,47.0514 363.222921,46.9944 C363.27985,46.9374 363.350262,46.9089 363.431161,46.9089 C363.509064,46.9089 363.577978,46.9374 363.634906,46.9944 C363.691835,47.0514 363.7203,47.1279 363.7203,47.2224 C363.7203,47.3109 363.691835,47.3829 363.634906,47.4414 C363.577978,47.4984 363.509064,47.5269 363.431161,47.5269 C363.350262,47.5269 363.27985,47.4984 363.222921,47.4414 C363.165993,47.3829 363.137528,47.3109 363.137528,47.2224" id="Fill-52" fill="#1A3667" mask="url(#mask-2)"></path>
                <path d="M364.489288,46.7661 C364.603146,46.8876 364.737978,46.9851 364.893783,47.0586 C365.04809,47.1321 365.20839,47.1681 365.37618,47.1681 C365.587416,47.1681 365.753708,47.1201 365.87206,47.0241 C365.988914,46.9266 366.047341,46.8006 366.047341,46.6431 C366.047341,46.5621 366.033858,46.4916 366.006891,46.4346 C365.978427,46.3776 365.940974,46.3281 365.893034,46.2876 C365.845094,46.2471 365.789663,46.2096 365.723745,46.1766 C365.657828,46.1451 365.587416,46.1106 365.514007,46.0746 L365.052584,45.8736 C364.977678,45.8406 364.899775,45.8016 364.823371,45.7551 C364.74397,45.7101 364.673558,45.6546 364.612135,45.5886 C364.549213,45.5226 364.499775,45.4461 364.459326,45.3561 C364.420375,45.2661 364.400899,45.1626 364.400899,45.0441 C364.400899,44.9226 364.426367,44.8101 364.477303,44.7051 C364.526742,44.6016 364.597154,44.5101 364.688539,44.4336 C364.776929,44.3571 364.884794,44.2971 365.006142,44.2551 C365.128989,44.2116 365.26382,44.1906 365.410637,44.1906 C365.602397,44.1906 365.780674,44.2281 365.945468,44.3001 C366.107266,44.3751 366.246592,44.4696 366.360449,44.5881 L366.141723,44.8536 C366.042846,44.7576 365.934981,44.6841 365.815131,44.6301 C365.696779,44.5761 365.560449,44.5491 365.410637,44.5491 C365.230861,44.5491 365.085543,44.5911 364.97618,44.6736 C364.868315,44.7576 364.812884,44.8731 364.812884,45.0201 C364.812884,45.0981 364.829363,45.1641 364.859326,45.2181 C364.890787,45.2721 364.932734,45.3201 364.98367,45.3606 C365.036105,45.4011 365.093034,45.4371 365.155955,45.4686 C365.217378,45.5001 365.281798,45.5286 365.346217,45.5541 L365.803146,45.7506 C365.893034,45.7896 365.979925,45.8346 366.062322,45.8856 C366.143221,45.9366 366.213633,45.9951 366.27206,46.0626 C366.330487,46.1301 366.378427,46.2081 366.412884,46.2981 C366.447341,46.3881 366.46382,46.4916 366.46382,46.6101 C366.46382,46.7361 366.438352,46.8561 366.388914,46.9671 C366.336479,47.0781 366.266067,47.1756 366.170187,47.2596 C366.075805,47.3421 365.960449,47.4081 365.827116,47.4546 C365.693783,47.5026 365.540974,47.5266 365.371685,47.5266 C365.145468,47.5266 364.937228,47.4846 364.74397,47.3991 C364.55221,47.3136 364.385918,47.1981 364.245094,47.0511 L364.489288,46.7661 Z" id="Fill-53" fill="#1A3667" mask="url(#mask-2)"></path>
                <path d="M366.973483,47.2224 C366.973483,47.1279 367.001948,47.0514 367.058876,46.9944 C367.115805,46.9374 367.186217,46.9089 367.267116,46.9089 C367.345019,46.9089 367.413933,46.9374 367.470861,46.9944 C367.52779,47.0514 367.556255,47.1279 367.556255,47.2224 C367.556255,47.3109 367.52779,47.3829 367.470861,47.4414 C367.413933,47.4984 367.345019,47.5269 367.267116,47.5269 C367.186217,47.5269 367.115805,47.4984 367.058876,47.4414 C367.001948,47.3829 366.973483,47.3109 366.973483,47.2224" id="Fill-54" fill="#1A3667" mask="url(#mask-2)"></path>
                <path d="M369.315805,46.7661 C369.429663,46.8876 369.564494,46.9851 369.7203,47.0586 C369.874607,47.1321 370.034906,47.1681 370.202697,47.1681 C370.413933,47.1681 370.580225,47.1201 370.698577,47.0241 C370.815431,46.9266 370.873858,46.8006 370.873858,46.6431 C370.873858,46.5621 370.860375,46.4916 370.833408,46.4346 C370.804944,46.3776 370.767491,46.3281 370.719551,46.2876 C370.67161,46.2471 370.61618,46.2096 370.550262,46.1766 C370.484345,46.1451 370.413933,46.1106 370.340524,46.0746 L369.879101,45.8736 C369.804195,45.8406 369.726292,45.8016 369.649888,45.7551 C369.570487,45.7101 369.500075,45.6546 369.438652,45.5886 C369.37573,45.5226 369.326292,45.4461 369.285843,45.3561 C369.246891,45.2661 369.227416,45.1626 369.227416,45.0441 C369.227416,44.9226 369.252884,44.8101 369.30382,44.7051 C369.353258,44.6016 369.42367,44.5101 369.515056,44.4336 C369.603446,44.3571 369.711311,44.2971 369.832659,44.2551 C369.955506,44.2116 370.090337,44.1906 370.237154,44.1906 C370.428914,44.1906 370.607191,44.2281 370.771985,44.3001 C370.933783,44.3751 371.073109,44.4696 371.186966,44.5881 L370.96824,44.8536 C370.869363,44.7576 370.761498,44.6841 370.641648,44.6301 C370.523296,44.5761 370.386966,44.5491 370.237154,44.5491 C370.057378,44.5491 369.91206,44.5911 369.802697,44.6736 C369.694831,44.7576 369.639401,44.8731 369.639401,45.0201 C369.639401,45.0981 369.65588,45.1641 369.685843,45.2181 C369.717303,45.2721 369.759251,45.3201 369.810187,45.3606 C369.862622,45.4011 369.919551,45.4371 369.982472,45.4686 C370.043895,45.5001 370.108315,45.5286 370.172734,45.5541 L370.629663,45.7506 C370.719551,45.7896 370.806442,45.8346 370.888839,45.8856 C370.969738,45.9366 371.04015,45.9951 371.098577,46.0626 C371.157004,46.1301 371.204944,46.2081 371.239401,46.2981 C371.273858,46.3881 371.290337,46.4916 371.290337,46.6101 C371.290337,46.7361 371.264869,46.8561 371.215431,46.9671 C371.162996,47.0781 371.092584,47.1756 370.996704,47.2596 C370.902322,47.3421 370.786966,47.4081 370.653633,47.4546 C370.5203,47.5026 370.367491,47.5266 370.198202,47.5266 C369.971985,47.5266 369.763745,47.4846 369.570487,47.3991 C369.378727,47.3136 369.212434,47.1981 369.07161,47.0511 L369.315805,46.7661 Z" id="Fill-55" fill="#1A3667" mask="url(#mask-2)"></path>
                <path d="M371.883446,45.0837 L372.21603,45.0837 L372.250487,45.4272 L372.265468,45.4272 C372.368839,45.3117 372.482697,45.2172 372.605543,45.1407 C372.726891,45.0627 372.860225,45.0237 373.005543,45.0237 C373.188315,45.0237 373.330637,45.0642 373.434007,45.1452 C373.537378,45.2247 373.612285,45.3372 373.661723,45.4812 C373.786067,45.3432 373.91191,45.2337 374.036255,45.1497 C374.162097,45.0657 374.298427,45.0237 374.445243,45.0237 C374.690936,45.0237 374.87221,45.1032 374.99206,45.2607 C375.110412,45.4167 375.170337,45.6492 375.170337,45.9567 L375.170337,47.4672 L374.768839,47.4672 L374.768839,46.0107 C374.768839,45.7857 374.732884,45.6222 374.660974,45.5217 C374.589064,45.4227 374.476704,45.3732 374.32839,45.3732 C374.148614,45.3732 373.949363,45.4947 373.729139,45.7407 L373.729139,47.4672 L373.329139,47.4672 L373.329139,46.0107 C373.329139,45.7857 373.291685,45.6222 373.221273,45.5217 C373.149363,45.4227 373.037004,45.3732 372.882697,45.3732 C372.702921,45.3732 372.50367,45.4947 372.284944,45.7407 L372.284944,47.4672 L371.883446,47.4672 L371.883446,45.0837 Z" id="Fill-56" fill="#1A3667" mask="url(#mask-2)"></path>
                <path d="M376.22412,46.82025 C376.22412,46.95675 376.263071,47.05575 376.34397,47.11425 C376.423371,47.17275 376.522247,47.20275 376.639101,47.20275 C376.754457,47.20275 376.86382,47.17575 376.965693,47.12175 C377.067566,47.06775 377.176929,46.98825 377.292285,46.88325 L377.292285,46.22175 C377.091536,46.24725 376.923745,46.27875 376.787416,46.31475 C376.649588,46.35075 376.540225,46.39275 376.45633,46.44225 C376.373933,46.49175 376.314007,46.54725 376.276554,46.61175 C376.242097,46.67475 376.22412,46.74525 376.22412,46.82025 M375.825618,46.85025 C375.825618,46.58775 375.94397,46.38675 376.177678,46.24875 C376.409888,46.10925 376.781423,46.01175 377.292285,45.95625 C377.292285,45.88125 377.284794,45.80775 377.269813,45.73575 C377.254831,45.66375 377.229363,45.60075 377.19191,45.54375 C377.152959,45.48825 377.103521,45.44475 377.042097,45.41025 C376.979176,45.37575 376.899775,45.35775 376.802397,45.35775 C376.661573,45.35775 376.531236,45.38475 376.411386,45.43725 C376.293034,45.48825 376.186667,45.54825 376.090787,45.61275 L375.930487,45.33375 C376.03985,45.26175 376.17618,45.19275 376.336479,45.12525 C376.496779,45.05775 376.67206,45.02475 376.865318,45.02475 C377.155955,45.02475 377.367191,45.11325 377.497528,45.29175 C377.627865,45.47025 377.692285,45.70875 377.692285,46.00575 L377.692285,47.46825 L377.361199,47.46825 L377.325243,47.18325 L377.316255,47.18325 C377.200899,47.27775 377.078052,47.35875 376.946217,47.42625 C376.814382,47.49375 376.675056,47.52675 376.526742,47.52675 C376.324494,47.52675 376.156704,47.46825 376.024869,47.34975 C375.891536,47.23125 375.825618,47.06625 375.825618,46.85025" id="Fill-57" fill="#1A3667" mask="url(#mask-2)"></path>
                <path d="M378.453783,43.97475 L378.855281,43.97475 L378.855281,47.01675 C378.855281,47.08125 378.865768,47.12775 378.889738,47.15325 C378.91221,47.18025 378.937678,47.19375 378.96764,47.19375 L379.003596,47.19375 C379.015581,47.19375 379.033558,47.19075 379.05603,47.18325 L379.108464,47.48775 C379.084494,47.50125 379.051536,47.51025 379.017079,47.51625 C378.981124,47.52375 378.934682,47.52675 378.879251,47.52675 C378.726442,47.52675 378.615581,47.48025 378.551161,47.38875 C378.485243,47.29725 378.453783,47.16375 378.453783,46.98675 L378.453783,43.97475 Z" id="Fill-58" fill="#1A3667" mask="url(#mask-2)"></path>
                <path d="M379.703221,43.97475 L380.104719,43.97475 L380.104719,47.01675 C380.104719,47.08125 380.115206,47.12775 380.139176,47.15325 C380.161648,47.18025 380.187116,47.19375 380.217079,47.19375 L380.253034,47.19375 C380.265019,47.19375 380.282996,47.19075 380.305468,47.18325 L380.357903,47.48775 C380.333933,47.50125 380.300974,47.51025 380.266517,47.51625 C380.230562,47.52375 380.18412,47.52675 380.128689,47.52675 C379.97588,47.52675 379.865019,47.48025 379.800599,47.38875 C379.734682,47.29725 379.703221,47.16375 379.703221,46.98675 L379.703221,43.97475 Z" id="Fill-59" fill="#1A3667" mask="url(#mask-2)"></path>
                <path d="M382.946667,47.14395 C383.225318,47.14395 383.439551,47.09295 383.593858,46.98945 C383.746667,46.88595 383.824569,46.72545 383.824569,46.50645 C383.824569,46.30695 383.748165,46.15995 383.59985,46.06695 C383.448539,45.97395 383.229813,45.92745 382.946667,45.92745 L382.387865,45.92745 L382.387865,47.14395 L382.946667,47.14395 Z M382.862772,45.62295 C383.141423,45.62295 383.340674,45.57645 383.459026,45.48045 C383.578876,45.38595 383.637303,45.24795 383.637303,45.06945 C383.637303,44.89245 383.574382,44.76495 383.448539,44.68845 C383.322697,44.61195 383.135431,44.57295 382.883745,44.57295 L382.387865,44.57295 L382.387865,45.62295 L382.862772,45.62295 Z M381.980375,44.24895 L382.93618,44.24895 C383.100974,44.24895 383.249288,44.26395 383.385618,44.29395 C383.521948,44.32245 383.637303,44.36895 383.733184,44.43045 C383.830562,44.49345 383.905468,44.57445 383.959401,44.67345 C384.013333,44.77395 384.038801,44.89395 384.038801,45.03495 C384.038801,45.19545 383.993858,45.33945 383.902472,45.46845 C383.811086,45.59745 383.670262,45.68745 383.48,45.73695 L383.48,45.75495 C383.716704,45.79245 383.899476,45.87345 384.029813,46.00095 C384.161648,46.12845 384.226067,46.30245 384.226067,46.52595 C384.226067,46.68195 384.196105,46.81995 384.137678,46.93845 C384.079251,47.05545 383.995356,47.15295 383.887491,47.23245 C383.781124,47.31045 383.650787,47.36895 383.500974,47.40945 C383.351161,47.44845 383.184869,47.46795 383.005094,47.46795 L381.980375,47.46795 L381.980375,44.24895 Z" id="Fill-60" fill="#1A3667" mask="url(#mask-2)"></path>
                <path d="M384.788614,45.0837 L385.194607,45.0837 L385.194607,46.5402 C385.194607,46.7667 385.230562,46.9287 385.300974,47.0292 C385.371386,47.1282 385.485243,47.1777 385.641049,47.1777 C385.765393,47.1777 385.876255,47.1462 385.969139,47.0832 C386.065019,47.0187 386.16839,46.9167 386.283745,46.7757 L386.283745,45.0837 L386.685243,45.0837 L386.685243,47.4672 L386.352659,47.4672 L386.318202,47.0952 L386.303221,47.0952 C386.19236,47.2257 386.074007,47.3307 385.952659,47.4087 C385.829813,47.4882 385.685993,47.5257 385.518202,47.5257 C385.263521,47.5257 385.077753,47.4477 384.962397,47.2917 C384.847041,47.1342 384.788614,46.9017 384.788614,46.5942 L384.788614,45.0837 Z" id="Fill-61" fill="#1A3667" mask="url(#mask-2)"></path>
                <path d="M387.425019,46.92795 C387.529888,47.01345 387.637753,47.08245 387.745618,47.13495 C387.854981,47.18595 387.982322,47.21295 388.126142,47.21295 C388.281948,47.21295 388.4003,47.17695 388.478202,47.10495 C388.557603,47.03295 388.596554,46.94445 388.596554,46.83945 C388.596554,46.77795 388.580075,46.72395 388.547116,46.67745 C388.515655,46.63245 388.47221,46.59195 388.422772,46.55745 C388.371835,46.52295 388.313408,46.49295 388.248989,46.46745 C388.183071,46.44045 388.117154,46.41495 388.052734,46.38795 C387.967341,46.35945 387.883446,46.32495 387.798052,46.28745 C387.712659,46.24995 387.637753,46.20495 387.570337,46.15095 C387.502921,46.09695 387.448989,46.03395 387.405543,45.96195 C387.363596,45.88995 387.341124,45.80295 387.341124,45.70245 C387.341124,45.60645 387.360599,45.51795 387.398052,45.43395 C387.435506,45.35145 387.489438,45.27945 387.55985,45.21795 C387.630262,45.15795 387.715655,45.11145 387.817528,45.07695 C387.917903,45.04245 388.03176,45.02445 388.159101,45.02445 C388.310412,45.02445 388.44824,45.05145 388.574082,45.10245 C388.699925,45.15495 388.809288,45.21945 388.899176,45.29445 L388.708914,45.54945 C388.628015,45.48795 388.542622,45.43695 388.454232,45.39645 C388.365843,45.35895 388.268464,45.33795 388.165094,45.33795 C388.015281,45.33795 387.904419,45.37245 387.834007,45.44145 C387.765094,45.51045 387.729139,45.58995 387.729139,45.68145 C387.729139,45.73845 387.74412,45.78645 387.772584,45.82695 C387.802547,45.86745 387.841498,45.90345 387.890936,45.93495 C387.940375,45.96495 387.995805,45.99345 388.060225,46.01895 C388.123146,46.04295 388.190562,46.06845 388.257978,46.09395 C388.341873,46.12695 388.428764,46.16145 388.515655,46.19745 C388.601049,46.23345 388.678951,46.27845 388.747865,46.33245 C388.816779,46.38645 388.873708,46.45245 388.917154,46.53045 C388.960599,46.60995 388.983071,46.70445 388.983071,46.81545 C388.983071,46.91295 388.963596,47.00445 388.92764,47.08995 C388.890187,47.17545 388.833258,47.25045 388.761348,47.31495 C388.686442,47.38095 388.595056,47.43195 388.485693,47.46945 C388.37633,47.50845 388.251985,47.52645 388.111161,47.52645 C387.941873,47.52645 387.778577,47.49495 387.625768,47.43345 C387.471461,47.37045 387.338127,47.29245 387.22427,47.19795 L387.425019,46.92795 Z" id="Fill-62" fill="#1A3667" mask="url(#mask-2)"></path>
                <path d="M389.541573,47.4675 L389.943071,47.4675 L389.943071,45.084 L389.541573,45.084 L389.541573,47.4675 Z M389.746816,44.5935 C389.668914,44.5935 389.601498,44.568 389.549064,44.5185 C389.495131,44.4705 389.466667,44.409 389.466667,44.3325 C389.466667,44.2545 389.495131,44.1915 389.549064,44.1435 C389.601498,44.097 389.668914,44.073 389.746816,44.073 C389.826217,44.073 389.892135,44.097 389.946067,44.1435 C390,44.1915 390.026966,44.2545 390.026966,44.3325 C390.026966,44.409 390,44.4705 389.946067,44.5185 C389.892135,44.568 389.826217,44.5935 389.746816,44.5935 Z" id="Fill-63" fill="#1A3667" mask="url(#mask-2)"></path>
                <path d="M390.747566,45.0837 L391.08015,45.0837 L391.114607,45.4272 L391.129588,45.4272 C391.243446,45.3117 391.363296,45.2172 391.489139,45.1407 C391.614981,45.0627 391.761798,45.0237 391.92809,45.0237 C392.179775,45.0237 392.362547,45.1032 392.479401,45.2607 C392.594757,45.4167 392.651685,45.6492 392.651685,45.9567 L392.651685,47.4672 L392.251685,47.4672 L392.251685,46.0107 C392.251685,45.7857 392.214232,45.6222 392.14382,45.5217 C392.07191,45.4227 391.958052,45.3732 391.800749,45.3732 C391.676404,45.3732 391.567041,45.4032 391.471161,45.4662 C391.378277,45.5277 391.270412,45.6192 391.149064,45.7407 L391.149064,47.4672 L390.747566,47.4672 L390.747566,45.0837 Z" id="Fill-64" fill="#1A3667" mask="url(#mask-2)"></path>
                <path d="M394.917154,46.0989 C394.917154,45.8529 394.866217,45.6669 394.761348,45.5364 C394.659476,45.4089 394.514157,45.3444 394.32839,45.3444 C394.244494,45.3444 394.163596,45.3609 394.085693,45.3954 C394.010787,45.4299 393.940375,45.4779 393.878951,45.5424 C393.81603,45.6054 393.763596,45.6849 393.723146,45.7779 C393.682697,45.8709 393.65573,45.9774 393.642247,46.0989 L394.917154,46.0989 Z M393.251236,46.2804 C393.251236,46.0839 393.281199,45.9084 393.341124,45.7539 C393.401049,45.5979 393.481948,45.4659 393.580824,45.3579 C393.681199,45.2499 393.795056,45.1674 393.922397,45.1104 C394.049738,45.0534 394.181573,45.0249 394.319401,45.0249 C394.469213,45.0249 394.604045,45.0504 394.722397,45.1029 C394.842247,45.1554 394.942622,45.2304 395.022022,45.3294 C395.101423,45.4269 395.162846,45.5439 395.204794,45.6819 C395.24824,45.8184 395.269213,45.9729 395.269213,46.1424 C395.269213,46.2309 395.264719,46.3059 395.25573,46.3644 L393.646742,46.3644 C393.663221,46.6224 393.74412,46.8264 393.886442,46.9764 C394.027266,47.1279 394.213034,47.2029 394.442247,47.2029 C394.556105,47.2029 394.660974,47.1864 394.758352,47.1519 C394.854232,47.1174 394.947116,47.0724 395.034007,47.0169 L395.17633,47.2809 C395.072959,47.3469 394.956105,47.4039 394.827266,47.4534 C394.699925,47.5029 394.556105,47.5269 394.391311,47.5269 C394.232509,47.5269 394.082697,47.4984 393.944869,47.4414 C393.805543,47.3829 393.684195,47.3019 393.580824,47.1954 C393.478951,47.0889 393.398052,46.9599 393.338127,46.8054 C393.2797,46.6524 393.251236,46.4769 393.251236,46.2804 Z" id="Fill-65" fill="#1A3667" mask="url(#mask-2)"></path>
                <path d="M395.793408,46.92795 C395.898277,47.01345 396.006142,47.08245 396.114007,47.13495 C396.223371,47.18595 396.350712,47.21295 396.494532,47.21295 C396.650337,47.21295 396.768689,47.17695 396.846592,47.10495 C396.925993,47.03295 396.964944,46.94445 396.964944,46.83945 C396.964944,46.77795 396.948464,46.72395 396.915506,46.67745 C396.884045,46.63245 396.840599,46.59195 396.791161,46.55745 C396.740225,46.52295 396.681798,46.49295 396.617378,46.46745 C396.551461,46.44045 396.485543,46.41495 396.421124,46.38795 C396.33573,46.35945 396.251835,46.32495 396.166442,46.28745 C396.081049,46.24995 396.006142,46.20495 395.938727,46.15095 C395.871311,46.09695 395.817378,46.03395 395.773933,45.96195 C395.731985,45.88995 395.709513,45.80295 395.709513,45.70245 C395.709513,45.60645 395.728989,45.51795 395.766442,45.43395 C395.803895,45.35145 395.857828,45.27945 395.92824,45.21795 C395.998652,45.15795 396.084045,45.11145 396.185918,45.07695 C396.286292,45.04245 396.40015,45.02445 396.527491,45.02445 C396.678801,45.02445 396.816629,45.05145 396.942472,45.10245 C397.068315,45.15495 397.177678,45.21945 397.267566,45.29445 L397.077303,45.54945 C396.996404,45.48795 396.911011,45.43695 396.822622,45.39645 C396.734232,45.35895 396.636854,45.33795 396.533483,45.33795 C396.38367,45.33795 396.272809,45.37245 396.202397,45.44145 C396.133483,45.51045 396.097528,45.58995 396.097528,45.68145 C396.097528,45.73845 396.112509,45.78645 396.140974,45.82695 C396.170936,45.86745 396.209888,45.90345 396.259326,45.93495 C396.308764,45.96495 396.364195,45.99345 396.428614,46.01895 C396.491536,46.04295 396.558951,46.06845 396.626367,46.09395 C396.710262,46.12695 396.797154,46.16145 396.884045,46.19745 C396.969438,46.23345 397.047341,46.27845 397.116255,46.33245 C397.185169,46.38645 397.242097,46.45245 397.285543,46.53045 C397.328989,46.60995 397.351461,46.70445 397.351461,46.81545 C397.351461,46.91295 397.331985,47.00445 397.29603,47.08995 C397.258577,47.17545 397.201648,47.25045 397.129738,47.31495 C397.054831,47.38095 396.963446,47.43195 396.854082,47.46945 C396.744719,47.50845 396.620375,47.52645 396.479551,47.52645 C396.310262,47.52645 396.146966,47.49495 395.994157,47.43345 C395.83985,47.37045 395.706517,47.29245 395.592659,47.19795 L395.793408,46.92795 Z" id="Fill-66" fill="#1A3667" mask="url(#mask-2)"></path>
                <path d="M397.846142,46.92795 C397.951011,47.01345 398.058876,47.08245 398.166742,47.13495 C398.276105,47.18595 398.403446,47.21295 398.547266,47.21295 C398.703071,47.21295 398.821423,47.17695 398.899326,47.10495 C398.978727,47.03295 399.017678,46.94445 399.017678,46.83945 C399.017678,46.77795 399.001199,46.72395 398.96824,46.67745 C398.936779,46.63245 398.893333,46.59195 398.843895,46.55745 C398.792959,46.52295 398.734532,46.49295 398.670112,46.46745 C398.604195,46.44045 398.538277,46.41495 398.473858,46.38795 C398.388464,46.35945 398.304569,46.32495 398.219176,46.28745 C398.133783,46.24995 398.058876,46.20495 397.991461,46.15095 C397.924045,46.09695 397.870112,46.03395 397.826667,45.96195 C397.784719,45.88995 397.762247,45.80295 397.762247,45.70245 C397.762247,45.60645 397.781723,45.51795 397.819176,45.43395 C397.856629,45.35145 397.910562,45.27945 397.980974,45.21795 C398.051386,45.15795 398.136779,45.11145 398.238652,45.07695 C398.339026,45.04245 398.452884,45.02445 398.580225,45.02445 C398.731536,45.02445 398.869363,45.05145 398.995206,45.10245 C399.121049,45.15495 399.230412,45.21945 399.3203,45.29445 L399.130037,45.54945 C399.049139,45.48795 398.963745,45.43695 398.875356,45.39645 C398.786966,45.35895 398.689588,45.33795 398.586217,45.33795 C398.436404,45.33795 398.325543,45.37245 398.255131,45.44145 C398.186217,45.51045 398.150262,45.58995 398.150262,45.68145 C398.150262,45.73845 398.165243,45.78645 398.193708,45.82695 C398.22367,45.86745 398.262622,45.90345 398.31206,45.93495 C398.361498,45.96495 398.416929,45.99345 398.481348,46.01895 C398.54427,46.04295 398.611685,46.06845 398.679101,46.09395 C398.762996,46.12695 398.849888,46.16145 398.936779,46.19745 C399.022172,46.23345 399.100075,46.27845 399.168989,46.33245 C399.237903,46.38645 399.294831,46.45245 399.338277,46.53045 C399.381723,46.60995 399.404195,46.70445 399.404195,46.81545 C399.404195,46.91295 399.384719,47.00445 399.348764,47.08995 C399.311311,47.17545 399.254382,47.25045 399.182472,47.31495 C399.107566,47.38095 399.01618,47.43195 398.906816,47.46945 C398.797453,47.50845 398.673109,47.52645 398.532285,47.52645 C398.362996,47.52645 398.1997,47.49495 398.046891,47.43345 C397.892584,47.37045 397.759251,47.29245 397.645393,47.19795 L397.846142,46.92795 Z" id="Fill-67" fill="#1A3667" mask="url(#mask-2)"></path>
                <path d="M366.259625,52.04685 L366.106816,51.55635 C366.04839,51.37635 365.992959,51.19785 365.940524,51.01785 C365.88809,50.84085 365.837154,50.65785 365.784719,50.47185 L365.765243,50.47185 C365.715805,50.65785 365.664869,50.84085 365.612434,51.01785 C365.56,51.19785 365.504569,51.37635 365.446142,51.55635 L365.293333,52.04685 L366.259625,52.04685 Z M366.361498,52.37535 L365.191461,52.37535 L364.882846,53.35635 L364.466367,53.35635 L365.554007,50.13885 L366.013933,50.13885 L367.101573,53.35635 L366.665618,53.35635 L366.361498,52.37535 Z" id="Fill-68" fill="#1A3667" mask="url(#mask-2)"></path>
                <path d="M367.763596,52.164 C367.763596,52.452 367.820524,52.6755 367.934382,52.836 C368.04824,52.9965 368.211536,53.076 368.419775,53.076 C368.532135,53.076 368.635506,53.049 368.732884,52.9965 C368.83176,52.9425 368.929139,52.8585 369.028015,52.7475 L369.028015,51.5025 C368.926142,51.411 368.830262,51.3465 368.73588,51.309 C368.642996,51.27 368.547116,51.252 368.449738,51.252 C368.355356,51.252 368.265468,51.2745 368.181573,51.318 C368.099176,51.3615 368.027266,51.4245 367.964345,51.504 C367.902921,51.585 367.853483,51.681 367.817528,51.7905 C367.781573,51.903 367.763596,52.0275 367.763596,52.164 M367.347116,52.1685 C367.347116,51.9765 367.375581,51.8025 367.432509,51.6465 C367.489438,51.492 367.565843,51.36 367.661723,51.252 C367.754607,51.144 367.86397,51.06 367.988315,51.0015 C368.112659,50.943 368.242996,50.913 368.380824,50.913 C368.518652,50.913 368.637004,50.9385 368.738876,50.9865 C368.840749,51.036 368.942622,51.102 369.047491,51.1875 L369.028015,50.781 L369.028015,49.863 L369.434007,49.863 L369.434007,53.3565 L369.101423,53.3565 L369.066966,53.076 L369.051985,53.076 C368.957603,53.1675 368.849738,53.2485 368.726891,53.3145 C368.604045,53.382 368.473708,53.415 368.332884,53.415 C368.03176,53.415 367.793558,53.307 367.613783,53.091 C367.435506,52.8765 367.347116,52.569 367.347116,52.1685" id="Fill-69" fill="#1A3667" mask="url(#mask-2)"></path>
                <path d="M370.238951,50.9724 L370.571536,50.9724 L370.605993,51.3159 L370.620974,51.3159 C370.724345,51.2004 370.838202,51.1059 370.961049,51.0294 C371.082397,50.9514 371.21573,50.9124 371.361049,50.9124 C371.54382,50.9124 371.686142,50.9529 371.789513,51.0339 C371.892884,51.1134 371.96779,51.2259 372.017228,51.3699 C372.141573,51.2319 372.267416,51.1224 372.39176,51.0384 C372.517603,50.9544 372.653933,50.9124 372.800749,50.9124 C373.046442,50.9124 373.227715,50.9919 373.347566,51.1494 C373.465918,51.3054 373.525843,51.5379 373.525843,51.8454 L373.525843,53.3559 L373.124345,53.3559 L373.124345,51.8994 C373.124345,51.6744 373.08839,51.5109 373.016479,51.4104 C372.944569,51.3114 372.83221,51.2619 372.683895,51.2619 C372.50412,51.2619 372.304869,51.3834 372.084644,51.6294 L372.084644,53.3559 L371.684644,53.3559 L371.684644,51.8994 C371.684644,51.6744 371.647191,51.5109 371.576779,51.4104 C371.504869,51.3114 371.392509,51.2619 371.238202,51.2619 C371.058427,51.2619 370.859176,51.3834 370.640449,51.6294 L370.640449,53.3559 L370.238951,53.3559 L370.238951,50.9724 Z" id="Fill-70" fill="#1A3667" mask="url(#mask-2)"></path>
                <path d="M374.299625,53.3565 L374.701124,53.3565 L374.701124,50.973 L374.299625,50.973 L374.299625,53.3565 Z M374.504869,50.481 C374.426966,50.481 374.359551,50.457 374.307116,50.4075 C374.253184,50.358 374.226217,50.2965 374.226217,50.2215 C374.226217,50.1435 374.253184,50.0805 374.307116,50.0325 C374.359551,49.9845 374.426966,49.962 374.504869,49.962 C374.58427,49.962 374.650187,49.9845 374.70412,50.0325 C374.758052,50.0805 374.785019,50.1435 374.785019,50.2215 C374.785019,50.2965 374.758052,50.358 374.70412,50.4075 C374.650187,50.457 374.58427,50.481 374.504869,50.481 Z" id="Fill-71" fill="#1A3667" mask="url(#mask-2)"></path>
                <path d="M375.505768,50.9724 L375.838352,50.9724 L375.872809,51.3159 L375.88779,51.3159 C376.001648,51.2004 376.121498,51.1059 376.247341,51.0294 C376.373184,50.9514 376.52,50.9124 376.686292,50.9124 C376.937978,50.9124 377.120749,50.9919 377.237603,51.1494 C377.352959,51.3054 377.409888,51.5379 377.409888,51.8454 L377.409888,53.3559 L377.009888,53.3559 L377.009888,51.8994 C377.009888,51.6744 376.972434,51.5109 376.902022,51.4104 C376.830112,51.3114 376.716255,51.2619 376.558951,51.2619 C376.434607,51.2619 376.325243,51.2919 376.229363,51.3549 C376.136479,51.4164 376.028614,51.5079 375.907266,51.6294 L375.907266,53.3559 L375.505768,53.3559 L375.505768,50.9724 Z" id="Fill-72" fill="#1A3667" mask="url(#mask-2)"></path>
                <path d="M378.185768,53.3565 L378.587266,53.3565 L378.587266,50.973 L378.185768,50.973 L378.185768,53.3565 Z M378.391011,50.481 C378.313109,50.481 378.245693,50.457 378.193258,50.4075 C378.139326,50.358 378.110861,50.2965 378.110861,50.2215 C378.110861,50.1435 378.139326,50.0805 378.193258,50.0325 C378.245693,49.9845 378.313109,49.962 378.391011,49.962 C378.470412,49.962 378.53633,49.9845 378.590262,50.0325 C378.644195,50.0805 378.669663,50.1435 378.669663,50.2215 C378.669663,50.2965 378.644195,50.358 378.590262,50.4075 C378.53633,50.457 378.470412,50.481 378.391011,50.481 Z" id="Fill-73" fill="#1A3667" mask="url(#mask-2)"></path>
                <path d="M379.325843,52.81665 C379.430712,52.90215 379.538577,52.97115 379.646442,53.02365 C379.755805,53.07465 379.883146,53.10165 380.026966,53.10165 C380.182772,53.10165 380.301124,53.06565 380.379026,52.99365 C380.458427,52.92165 380.497378,52.83315 380.497378,52.72815 C380.497378,52.66665 380.480899,52.61265 380.44794,52.56615 C380.416479,52.52115 380.373034,52.48065 380.323596,52.44615 C380.272659,52.41165 380.214232,52.38165 380.149813,52.35615 C380.083895,52.32915 380.017978,52.30365 379.953558,52.27665 C379.868165,52.24815 379.78427,52.21365 379.698876,52.17615 C379.613483,52.13865 379.538577,52.09365 379.471161,52.03965 C379.403745,51.98565 379.349813,51.92265 379.306367,51.85065 C379.264419,51.77865 379.241948,51.69165 379.241948,51.59115 C379.241948,51.49515 379.261423,51.40665 379.298876,51.32265 C379.33633,51.24015 379.390262,51.16815 379.460674,51.10665 C379.531086,51.04665 379.616479,51.00015 379.718352,50.96565 C379.818727,50.93115 379.932584,50.91315 380.059925,50.91315 C380.211236,50.91315 380.349064,50.94015 380.474906,50.99115 C380.600749,51.04365 380.710112,51.10815 380.8,51.18315 L380.609738,51.43815 C380.528839,51.37665 380.443446,51.32565 380.355056,51.28515 C380.266667,51.24765 380.169288,51.22665 380.065918,51.22665 C379.916105,51.22665 379.805243,51.26115 379.734831,51.33015 C379.665918,51.39915 379.629963,51.47865 379.629963,51.57015 C379.629963,51.62715 379.644944,51.67515 379.673408,51.71565 C379.703371,51.75615 379.742322,51.79215 379.79176,51.82365 C379.841199,51.85365 379.896629,51.88215 379.961049,51.90765 C380.02397,51.93165 380.091386,51.95715 380.158801,51.98265 C380.242697,52.01565 380.329588,52.05015 380.416479,52.08615 C380.501873,52.12215 380.579775,52.16715 380.648689,52.22115 C380.717603,52.27515 380.774532,52.34115 380.817978,52.41915 C380.861423,52.49865 380.883895,52.59315 380.883895,52.70415 C380.883895,52.80165 380.864419,52.89315 380.828464,52.97865 C380.791011,53.06415 380.734082,53.13915 380.662172,53.20365 C380.587266,53.26965 380.49588,53.32065 380.386517,53.35815 C380.277154,53.39715 380.152809,53.41515 380.011985,53.41515 C379.842697,53.41515 379.679401,53.38365 379.526592,53.32215 C379.372285,53.25915 379.238951,53.18115 379.125094,53.08665 L379.325843,52.81665 Z" id="Fill-74" fill="#1A3667" mask="url(#mask-2)"></path>
                <path d="M381.42367,51.30045 L381.070112,51.30045 L381.070112,50.99595 L381.443146,50.97195 L381.491086,50.30445 L381.829663,50.30445 L381.829663,50.97195 L382.470861,50.97195 L382.470861,51.30045 L381.829663,51.30045 L381.829663,52.62495 C381.829663,52.77195 381.856629,52.88595 381.910562,52.96545 C381.964494,53.04645 382.060375,53.08695 382.198202,53.08695 C382.24015,53.08695 382.285094,53.08095 382.333034,53.06745 C382.38397,53.05395 382.427416,53.03895 382.466367,53.02245 L382.54427,53.32695 C382.47985,53.34945 382.40794,53.37045 382.331536,53.38845 C382.255131,53.40645 382.178727,53.41545 382.10382,53.41545 C381.976479,53.41545 381.870112,53.39595 381.783221,53.35695 C381.69633,53.31645 381.627416,53.26395 381.573483,53.19495 C381.518052,53.12595 381.480599,53.04195 381.456629,52.94445 C381.434157,52.84545 381.42367,52.73745 381.42367,52.62045 L381.42367,51.30045 Z" id="Fill-75" fill="#1A3667" mask="url(#mask-2)"></path>
                <path d="M383.006742,50.9724 L383.339326,50.9724 L383.373783,51.4044 L383.388764,51.4044 C383.471161,51.2529 383.568539,51.1344 383.683895,51.0459 C383.800749,50.9574 383.926592,50.9124 384.064419,50.9124 C384.1603,50.9124 384.244195,50.9304 384.319101,50.9619 L384.241199,51.3159 C384.202247,51.3024 384.164794,51.2919 384.133333,51.2859 C384.100375,51.2799 384.059925,51.2769 384.010487,51.2769 C383.910112,51.2769 383.803745,51.3174 383.694382,51.3984 C383.585019,51.4809 383.489139,51.6234 383.40824,51.8259 L383.40824,53.3559 L383.006742,53.3559 L383.006742,50.9724 Z" id="Fill-76" fill="#1A3667" mask="url(#mask-2)"></path>
                <path d="M384.873558,52.70895 C384.873558,52.84545 384.912509,52.94445 384.993408,53.00295 C385.072809,53.06145 385.171685,53.09145 385.288539,53.09145 C385.403895,53.09145 385.513258,53.06445 385.615131,53.01045 C385.717004,52.95645 385.826367,52.87695 385.941723,52.77195 L385.941723,52.11045 C385.740974,52.13595 385.573184,52.16745 385.436854,52.20345 C385.299026,52.23945 385.189663,52.28145 385.105768,52.33095 C385.023371,52.38045 384.963446,52.43595 384.925993,52.50045 C384.891536,52.56345 384.873558,52.63395 384.873558,52.70895 M384.475056,52.73895 C384.475056,52.47645 384.593408,52.27545 384.827116,52.13745 C385.059326,51.99795 385.430861,51.90045 385.941723,51.84495 C385.941723,51.76995 385.934232,51.69645 385.919251,51.62445 C385.90427,51.55245 385.878801,51.48945 385.841348,51.43245 C385.802397,51.37695 385.752959,51.33345 385.691536,51.29895 C385.628614,51.26445 385.549213,51.24645 385.451835,51.24645 C385.311011,51.24645 385.180674,51.27345 385.060824,51.32595 C384.942472,51.37695 384.836105,51.43695 384.740225,51.50145 L384.579925,51.22245 C384.689288,51.15045 384.825618,51.08145 384.985918,51.01395 C385.146217,50.94645 385.321498,50.91345 385.514757,50.91345 C385.805393,50.91345 386.016629,51.00195 386.146966,51.18045 C386.277303,51.35895 386.341723,51.59745 386.341723,51.89445 L386.341723,53.35695 L386.010637,53.35695 L385.974682,53.07195 L385.965693,53.07195 C385.850337,53.16645 385.727491,53.24745 385.595655,53.31495 C385.46382,53.38245 385.324494,53.41545 385.17618,53.41545 C384.973933,53.41545 384.806142,53.35695 384.674307,53.23845 C384.540974,53.11995 384.475056,52.95495 384.475056,52.73895" id="Fill-77" fill="#1A3667" mask="url(#mask-2)"></path>
                <path d="M387.059326,51.30045 L386.705768,51.30045 L386.705768,50.99595 L387.078801,50.97195 L387.126742,50.30445 L387.465318,50.30445 L387.465318,50.97195 L388.106517,50.97195 L388.106517,51.30045 L387.465318,51.30045 L387.465318,52.62495 C387.465318,52.77195 387.492285,52.88595 387.546217,52.96545 C387.60015,53.04645 387.69603,53.08695 387.833858,53.08695 C387.875805,53.08695 387.920749,53.08095 387.968689,53.06745 C388.019625,53.05395 388.063071,53.03895 388.102022,53.02245 L388.179925,53.32695 C388.115506,53.34945 388.043596,53.37045 387.967191,53.38845 C387.890787,53.40645 387.814382,53.41545 387.739476,53.41545 C387.612135,53.41545 387.505768,53.39595 387.418876,53.35695 C387.331985,53.31645 387.263071,53.26395 387.209139,53.19495 C387.153708,53.12595 387.116255,53.04195 387.092285,52.94445 C387.069813,52.84545 387.059326,52.73745 387.059326,52.62045 L387.059326,51.30045 Z" id="Fill-78" fill="#1A3667" mask="url(#mask-2)"></path>
                <path d="M388.647191,53.3565 L389.048689,53.3565 L389.048689,50.973 L388.647191,50.973 L388.647191,53.3565 Z M388.850936,50.481 C388.774532,50.481 388.707116,50.457 388.654682,50.4075 C388.599251,50.358 388.572285,50.2965 388.572285,50.2215 C388.572285,50.1435 388.599251,50.0805 388.654682,50.0325 C388.707116,49.9845 388.774532,49.962 388.850936,49.962 C388.930337,49.962 388.996255,49.9845 389.050187,50.0325 C389.10412,50.0805 389.131086,50.1435 389.131086,50.2215 C389.131086,50.2965 389.10412,50.358 389.050187,50.4075 C388.996255,50.457 388.930337,50.481 388.850936,50.481 Z" id="Fill-79" fill="#1A3667" mask="url(#mask-2)"></path>
                <path d="M390.092135,52.1691 C390.092135,52.3071 390.108614,52.4301 390.140075,52.5426 C390.174532,52.6536 390.219476,52.7496 390.280899,52.8291 C390.340824,52.9086 390.414232,52.9716 390.498127,53.0151 C390.583521,53.0601 390.676404,53.0811 390.778277,53.0811 C390.878652,53.0811 390.971536,53.0601 391.058427,53.0151 C391.142322,52.9716 391.214232,52.9086 391.275655,52.8291 C391.335581,52.7496 391.382022,52.6536 391.414981,52.5426 C391.446442,52.4301 391.462921,52.3071 391.462921,52.1691 C391.462921,52.0311 391.446442,51.9066 391.414981,51.7941 C391.382022,51.6816 391.335581,51.5841 391.275655,51.5016 C391.214232,51.4206 391.142322,51.3561 391.058427,51.3126 C390.971536,51.2691 390.878652,51.2466 390.778277,51.2466 C390.676404,51.2466 390.583521,51.2691 390.498127,51.3126 C390.414232,51.3561 390.340824,51.4206 390.280899,51.5016 C390.219476,51.5841 390.174532,51.6816 390.140075,51.7941 C390.108614,51.9066 390.092135,52.0311 390.092135,52.1691 M389.675655,52.1691 C389.675655,51.9696 389.705618,51.7926 389.765543,51.6366 C389.825468,51.4821 389.907865,51.3501 390.00824,51.2421 C390.110112,51.1341 390.226966,51.0516 390.358801,50.9961 C390.492135,50.9406 390.629963,50.9136 390.778277,50.9136 C390.925094,50.9136 391.064419,50.9406 391.196255,50.9961 C391.32809,51.0516 391.444944,51.1341 391.546816,51.2421 C391.648689,51.3501 391.729588,51.4821 391.789513,51.6366 C391.849438,51.7926 391.879401,51.9696 391.879401,52.1691 C391.879401,52.3656 391.849438,52.5411 391.789513,52.6971 C391.729588,52.8516 391.648689,52.9821 391.546816,53.0886 C391.444944,53.1951 391.32809,53.2761 391.196255,53.3316 C391.064419,53.3871 390.925094,53.4156 390.778277,53.4156 C390.629963,53.4156 390.492135,53.3871 390.358801,53.3316 C390.226966,53.2761 390.110112,53.1951 390.00824,53.0886 C389.907865,52.9821 389.825468,52.8516 389.765543,52.6971 C389.705618,52.5411 389.675655,52.3656 389.675655,52.1691" id="Fill-80" fill="#1A3667" mask="url(#mask-2)"></path>
                <path d="M392.507566,50.9724 L392.84015,50.9724 L392.874607,51.3159 L392.889588,51.3159 C393.003446,51.2004 393.123296,51.1059 393.249139,51.0294 C393.374981,50.9514 393.521798,50.9124 393.68809,50.9124 C393.939775,50.9124 394.122547,50.9919 394.239401,51.1494 C394.354757,51.3054 394.411685,51.5379 394.411685,51.8454 L394.411685,53.3559 L394.011685,53.3559 L394.011685,51.8994 C394.011685,51.6744 393.974232,51.5109 393.90382,51.4104 C393.83191,51.3114 393.718052,51.2619 393.560749,51.2619 C393.436404,51.2619 393.327041,51.2919 393.231161,51.3549 C393.138277,51.4164 393.030412,51.5079 392.909064,51.6294 L392.909064,53.3559 L392.507566,53.3559 L392.507566,50.9724 Z" id="Fill-81" fill="#1A3667" mask="url(#mask-2)"></path>
                <polygon id="Fill-82" fill="#CA2026" mask="url(#mask-2)" points="387.287491 24.67335 371.999101 24.67335 371.855281 24.67335 371.855281 24.51435 371.855281 22.26285 370.544419 22.26285 370.544419 26.11035 387.294981 26.11035"></polygon>
                <polygon id="Fill-83" fill="#1A3667" mask="url(#mask-2)" points="370.566742 10.17645 371.877603 10.17645 371.877603 7.92345 371.877603 7.76595 372.022921 7.76595 387.165993 7.76595 387.312809 7.76595 387.312809 7.92345 387.312809 10.17645 388.62367 10.17645 388.62367 6.32895 370.566742 6.32895"></polygon>
                <path d="M369.510412,17.99355 C369.520899,18.49305 369.741124,19.44555 371.182322,19.44555 C371.962846,19.44555 372.83176,19.23255 372.83176,18.28155 C372.83176,17.57955 372.238502,17.39205 371.402547,17.16705 L370.556105,16.94205 C369.2797,16.60305 368.04824,16.27755 368.04824,14.29905 C368.04824,13.29705 368.52015,11.53305 371.083446,11.53305 C373.502921,11.53305 374.15161,13.33455 374.163596,14.43705 L372.578577,14.43705 C372.535131,14.03655 372.403296,13.08555 370.962097,13.08555 C370.33588,13.08555 369.588315,13.34805 369.588315,14.16105 C369.588315,14.86305 370.093184,15.01305 370.422772,15.10005 L372.347865,15.63855 C373.426517,15.94005 374.415281,16.43955 374.415281,18.05505 C374.415281,20.76105 371.995805,20.99805 371.30367,20.99805 C368.421273,20.99805 367.926891,19.10805 367.926891,17.99355 L369.510412,17.99355 Z" id="Fill-84" fill="#1A3667" mask="url(#mask-2)"></path>
                <path d="M376.502172,11.76945 L380.488689,11.76945 C382.499176,11.76945 383.013034,13.14645 383.013034,14.07345 C383.013034,15.36345 382.349363,15.72645 382.00779,15.91395 C383.013034,16.32795 383.275206,17.20395 383.275206,18.09345 C383.275206,18.80745 383.001049,19.48395 382.56809,19.94745 C382.099176,20.44695 381.652734,20.76045 379.974831,20.76045 L376.502172,20.76045 L376.502172,11.76945 Z M378.147116,15.28845 L380.157603,15.28845 C380.83176,15.28845 381.36809,15.00045 381.36809,14.28645 C381.36809,13.54695 380.888689,13.32195 380.111161,13.32195 L378.147116,13.32195 L378.147116,15.28845 Z M378.147116,19.20645 L380.248989,19.20645 C381.081948,19.20645 381.562846,18.80745 381.562846,17.89245 C381.562846,17.10345 380.945618,16.80195 380.32839,16.80195 L378.147116,16.80195 L378.147116,19.20645 Z" id="Fill-85" fill="#1A3667" mask="url(#mask-2)"></path>
                <polygon id="Fill-86" fill="#1A3667" mask="url(#mask-2)" points="388.610037 11.76735 387.308165 11.76735 384.704419 20.76285 386.346367 20.76285 387.944869 14.85735 389.567341 20.76285 391.210787 20.76285"></polygon>
                <polygon id="Fill-87" fill="#1A3667" mask="url(#mask-2)" points="388.59985 24.6645 387.296479 26.1105 387.296479 20.7855 388.59985 20.7855"></polygon>
            </g>
        </g>
    </g>
</svg>