<?xml version="1.0" encoding="UTF-8"?>
<svg width="400px" height="60px" viewBox="0 0 400 60" version="1.1" xmlns="http://www.w3.org/2000/svg" xmlns:xlink="http://www.w3.org/1999/xlink">
    <!-- Generator: Sketch 49 (51002) - http://www.bohemiancoding.com/sketch -->
    <title>Page 1</title>
    <desc>Created with Sketch.</desc>
    <defs>
        <polygon id="path-1" points="0 59.1657 399.836704 59.1657 399.836704 -0.0003 0 -0.0003"></polygon>
    </defs>
    <g id="Page-1" stroke="none" stroke-width="1" fill="none" fill-rule="evenodd">
        <g id="Tablet" transform="translate(-249.000000, -2519.000000)">
            <g id="Page-1" transform="translate(249.000000, 2519.000000)">
                <path d="M98.3424719,18.9294 L99.6503371,18.9294 L99.6503371,23.6919 C99.6503371,24.1764 99.7132584,24.5829 99.8405993,24.9099 C99.9649438,25.2384 100.13573,25.5009 100.351461,25.6974 C100.567191,25.8954 100.821873,26.0364 101.117004,26.1219 C101.410637,26.2089 101.725243,26.2509 102.062322,26.2509 C102.40839,26.2509 102.728989,26.2089 103.02412,26.1219 C103.317753,26.0364 103.575431,25.8954 103.795655,25.6974 C104.017378,25.5009 104.189663,25.2384 104.315506,24.9099 C104.441348,24.5829 104.50427,24.1764 104.50427,23.6919 L104.50427,18.9294 L105.765693,18.9294 L105.765693,23.6679 C105.765693,24.3159 105.671311,24.8619 105.482547,25.3044 C105.293783,25.7469 105.033109,26.1054 104.702022,26.3814 C104.370936,26.6559 103.979925,26.8524 103.527491,26.9709 C103.076554,27.0894 102.586667,27.1494 102.062322,27.1494 C101.536479,27.1494 101.045094,27.0894 100.588165,26.9709 C100.131236,26.8524 99.7372285,26.6559 99.4061423,26.3814 C99.0750562,26.1054 98.814382,25.7469 98.625618,25.3044 C98.4368539,24.8619 98.3424719,24.3159 98.3424719,23.6679 L98.3424719,18.9294 Z" id="Fill-1" fill="#1A3667"></path>
                <path d="M107.925243,26.38695 C107.925243,26.14845 108.016629,25.95795 108.200899,25.81545 C108.385169,25.67145 108.60839,25.59945 108.870562,25.59945 C109.122247,25.59945 109.340974,25.67145 109.525243,25.81545 C109.708015,25.95795 109.800899,26.14845 109.800899,26.38695 C109.800899,26.60745 109.708015,26.79195 109.525243,26.93445 C109.340974,27.07695 109.122247,27.15045 108.870562,27.15045 C108.60839,27.15045 108.385169,27.07695 108.200899,26.93445 C108.016629,26.79195 107.925243,26.60745 107.925243,26.38695" id="Fill-3" fill="#1A3667"></path>
                <path d="M112.274007,25.24215 C112.642547,25.54665 113.075506,25.78965 113.57588,25.97415 C114.073258,26.15865 114.59161,26.25165 115.126442,26.25165 C115.811086,26.25165 116.341423,26.13015 116.718951,25.88865 C117.099476,25.64715 117.286742,25.32915 117.286742,24.93465 C117.286742,24.72915 117.241798,24.55515 117.154906,24.41115 C117.063521,24.26865 116.94367,24.14565 116.79236,24.04215 C116.639551,23.94015 116.458277,23.84715 116.247041,23.76615 C116.037303,23.68365 115.811086,23.59815 115.56839,23.50665 L114.08824,23.00265 C113.845543,22.92165 113.59985,22.82265 113.348165,22.70715 C113.093483,22.59315 112.867266,22.45365 112.669513,22.28865 C112.470262,22.12515 112.305468,21.93015 112.181124,21.70515 C112.055281,21.47865 111.990861,21.21765 111.990861,20.92365 C111.990861,20.61915 112.07176,20.33565 112.236554,20.07465 C112.396854,19.81065 112.624569,19.58415 112.91221,19.39065 C113.201348,19.19865 113.544419,19.04865 113.938427,18.94215 C114.330936,18.83565 114.763895,18.78165 115.238801,18.78165 C115.859026,18.78165 116.431311,18.87465 116.955655,19.05915 C117.482996,19.24365 117.926442,19.48365 118.296479,19.77765 L117.587865,20.44365 C117.27176,20.20515 116.921199,20.01915 116.537678,19.88265 C116.154157,19.74765 115.721199,19.68015 115.238801,19.68015 C114.659026,19.68015 114.196105,19.78515 113.842547,19.99365 C113.490487,20.20365 113.315206,20.49165 113.315206,20.86215 C113.315206,21.05865 113.366142,21.22515 113.465019,21.36015 C113.563895,21.49515 113.698727,21.61515 113.865019,21.71715 C114.035805,21.81915 114.220075,21.90915 114.419326,21.98715 C114.617079,22.06515 114.822322,22.13715 115.033558,22.20315 L116.498727,22.69515 C116.79236,22.79415 117.072509,22.90665 117.333184,23.03265 C117.596854,23.16015 117.821573,23.30865 118.011835,23.47665 C118.202097,23.64465 118.35191,23.84115 118.462772,24.06765 C118.570637,24.29265 118.626067,24.55365 118.626067,24.84915 C118.626067,25.16865 118.545169,25.46865 118.383371,25.74615 C118.220075,26.02515 117.986367,26.26965 117.680749,26.47965 C117.376629,26.68815 117.00809,26.85315 116.578127,26.97165 C116.148165,27.09015 115.659775,27.15015 115.112959,27.15015 C114.386367,27.15015 113.713708,27.04365 113.093483,26.83065 C112.476255,26.61765 111.936929,26.32515 111.487491,25.95615 L112.274007,25.24215 Z" id="Fill-5" fill="#1A3667"></path>
                <path d="M120.266517,26.38695 C120.266517,26.14845 120.359401,25.95795 120.54367,25.81545 C120.726442,25.67145 120.949663,25.59945 121.213333,25.59945 C121.465019,25.59945 121.682247,25.67145 121.866517,25.81545 C122.049288,25.95795 122.142172,26.14845 122.142172,26.38695 C122.142172,26.60745 122.049288,26.79195 121.866517,26.93445 C121.682247,27.07695 121.465019,27.15045 121.213333,27.15045 C120.949663,27.15045 120.726442,27.07695 120.54367,26.93445 C120.359401,26.79195 120.266517,26.60745 120.266517,26.38695" id="Fill-7" fill="#1A3667"></path>
                <path d="M127.799551,25.24215 C128.166592,25.54665 128.601049,25.78965 129.099925,25.97415 C129.598801,26.15865 130.117154,26.25165 130.651985,26.25165 C131.335131,26.25165 131.866966,26.13015 132.244494,25.88865 C132.623521,25.64715 132.812285,25.32915 132.812285,24.93465 C132.812285,24.72915 132.765843,24.55515 132.678951,24.41115 C132.587566,24.26865 132.467715,24.14565 132.316404,24.04215 C132.163596,23.94015 131.982322,23.84715 131.771086,23.76615 C131.561348,23.68365 131.335131,23.59815 131.093933,23.50665 L129.612285,23.00265 C129.371086,22.92165 129.123895,22.82265 128.87221,22.70715 C128.619026,22.59315 128.392809,22.45365 128.193558,22.28865 C127.994307,22.12515 127.831011,21.93015 127.706667,21.70515 C127.579326,21.47865 127.516404,21.21765 127.516404,20.92365 C127.516404,20.61915 127.597303,20.33565 127.760599,20.07465 C127.922397,19.81065 128.148614,19.58415 128.437753,19.39065 C128.726891,19.19865 129.068464,19.04865 129.462472,18.94215 C129.856479,18.83565 130.289438,18.78165 130.764345,18.78165 C131.383071,18.78165 131.955356,18.87465 132.481199,19.05915 C133.007041,19.24365 133.451985,19.48365 133.822022,19.77765 L133.11191,20.44365 C132.795805,20.20515 132.446742,20.01915 132.063221,19.88265 C131.6797,19.74765 131.246742,19.68015 130.764345,19.68015 C130.184569,19.68015 129.72015,19.78515 129.36809,19.99365 C129.01603,20.20365 128.839251,20.49165 128.839251,20.86215 C128.839251,21.05865 128.890187,21.22515 128.990562,21.36015 C129.089438,21.49515 129.222772,21.61515 129.390562,21.71715 C129.55985,21.81915 129.74412,21.90915 129.943371,21.98715 C130.142622,22.06515 130.347865,22.13715 130.559101,22.20315 L132.022772,22.69515 C132.317903,22.79415 132.596554,22.90665 132.858727,23.03265 C133.122397,23.16015 133.347116,23.30865 133.537378,23.47665 C133.726142,23.64465 133.875955,23.84115 133.986816,24.06765 C134.09618,24.29265 134.15161,24.55365 134.15161,24.84915 C134.15161,25.16865 134.070712,25.46865 133.907416,25.74615 C133.74412,26.02515 133.51191,26.26965 133.204794,26.47965 C132.900674,26.68815 132.533633,26.85315 132.102172,26.97165 C131.67221,27.09015 131.18382,27.15015 130.637004,27.15015 C129.91191,27.15015 129.239251,27.04365 128.619026,26.83065 C128.0003,26.61765 127.462472,26.32515 127.011536,25.95615 L127.799551,25.24215 Z" id="Fill-9" fill="#1A3667"></path>
                <path d="M136.058277,21.02115 L137.130936,21.02115 L137.2403,21.88365 L137.28824,21.88365 C137.625318,21.59565 137.989363,21.35565 138.384869,21.16365 C138.777378,20.97015 139.205843,20.87415 139.668764,20.87415 C140.257528,20.87415 140.715955,20.97465 141.047041,21.17565 C141.378127,21.37665 141.622322,21.65715 141.779625,22.01865 C142.179625,21.67365 142.581124,21.39615 142.985618,21.18765 C143.39161,20.97915 143.829064,20.87415 144.302472,20.87415 C145.090487,20.87415 145.676255,21.07065 146.059775,21.46365 C146.443296,21.85815 146.635056,22.44015 146.635056,23.21115 L146.635056,27.00165 L145.342172,27.00165 L145.342172,23.34765 C145.342172,22.78065 145.226816,22.37265 144.996105,22.12215 C144.765393,21.87315 144.407341,21.74715 143.923446,21.74715 C143.345169,21.74715 142.705468,22.05465 142.001348,22.67115 L142.001348,27.00165 L140.708464,27.00165 L140.708464,23.34765 C140.708464,22.78065 140.59161,22.37265 140.362397,22.12215 C140.131685,21.87315 139.769139,21.74715 139.273258,21.74715 C138.696479,21.74715 138.055281,22.05465 137.351161,22.67115 L137.351161,27.00165 L136.058277,27.00165 L136.058277,21.02115 Z" id="Fill-11" fill="#1A3667"></path>
                <path d="M150.02412,25.3776 C150.02412,25.7226 150.151461,25.9686 150.409139,26.1156 C150.666816,26.2641 150.985918,26.3376 151.363446,26.3376 C151.731985,26.3376 152.079551,26.2701 152.412135,26.1336 C152.741723,26.0001 153.092285,25.8006 153.459326,25.5381 L153.459326,23.8761 C152.818127,23.9421 152.277303,24.0201 151.835356,24.1101 C151.394906,24.2001 151.03985,24.3066 150.771685,24.4296 C150.503521,24.5526 150.31176,24.6951 150.196404,24.8541 C150.081049,25.0146 150.02412,25.1901 150.02412,25.3776 M148.746217,25.4511 C148.746217,24.7956 149.122247,24.2931 149.872809,23.9436 C150.624869,23.5956 151.820375,23.3511 153.459326,23.2116 C153.459326,23.0241 153.435356,22.8396 153.388914,22.6581 C153.340974,22.4781 153.257079,22.3176 153.13573,22.1781 C153.01588,22.0386 152.855581,21.9261 152.65633,21.8406 C152.455581,21.7536 152.197903,21.7101 151.883296,21.7101 C151.430861,21.7101 151.012884,21.7761 150.629363,21.9081 C150.245843,22.0386 149.902772,22.1871 149.598652,22.3506 L149.077303,21.6486 C149.433858,21.4686 149.869813,21.2946 150.385169,21.1266 C150.900524,20.9586 151.468315,20.8746 152.088539,20.8746 C153.023371,20.8746 153.700524,21.0966 154.121498,21.5436 C154.542472,21.9921 154.75221,22.5891 154.75221,23.3346 L154.75221,27.0021 L153.679551,27.0021 L153.570187,26.2881 L153.538727,26.2881 C153.171685,26.5266 152.773184,26.7291 152.349213,26.8971 C151.923745,27.0651 151.474307,27.1506 150.999401,27.1506 C150.349213,27.1506 149.809888,27.0021 149.384419,26.7066 C148.958951,26.4111 148.746217,25.9926 148.746217,25.4511" id="Fill-13" fill="#1A3667"></path>
                <path d="M157.194457,18.24015 L158.487341,18.24015 L158.487341,25.86915 C158.487341,26.03415 158.524794,26.14815 158.598202,26.21415 C158.670112,26.28015 158.755506,26.31315 158.849888,26.31315 L158.96824,26.31315 C159.005693,26.31315 159.059625,26.30415 159.134532,26.28915 L159.306816,27.05115 C159.222921,27.08415 159.122547,27.10815 159.007191,27.12465 C158.891835,27.14115 158.745019,27.15015 158.566742,27.15015 C158.07236,27.15015 157.7203,27.03465 157.510562,26.80515 C157.299326,26.57565 157.194457,26.23965 157.194457,25.79565 L157.194457,18.24015 Z" id="Fill-15" fill="#1A3667"></path>
                <path d="M161.213333,18.24015 L162.506217,18.24015 L162.506217,25.86915 C162.506217,26.03415 162.54367,26.14815 162.617079,26.21415 C162.688989,26.28015 162.774382,26.31315 162.868764,26.31315 L162.987116,26.31315 C163.024569,26.31315 163.078502,26.30415 163.153408,26.28915 L163.325693,27.05115 C163.241798,27.08415 163.141423,27.10815 163.026067,27.12465 C162.910712,27.14115 162.763895,27.15015 162.585618,27.15015 C162.091236,27.15015 161.739176,27.03465 161.529438,26.80515 C161.318202,26.57565 161.213333,26.23965 161.213333,25.79565 L161.213333,18.24015 Z" id="Fill-17" fill="#1A3667"></path>
                <path d="M171.648989,26.18985 C172.541873,26.18985 173.235506,26.06085 173.729888,25.80285 C174.22427,25.54335 174.469963,25.13985 174.469963,24.59085 C174.469963,24.08985 174.228764,23.72235 173.744869,23.48835 C173.260974,23.25435 172.562846,23.13735 171.648989,23.13735 L169.852734,23.13735 L169.852734,26.18985 L171.648989,26.18985 Z M171.380824,22.37535 C172.273708,22.37535 172.913408,22.25535 173.296929,22.01835 C173.678951,21.78135 173.870712,21.43635 173.870712,20.98485 C173.870712,20.54085 173.669963,20.22285 173.26397,20.03085 C172.860974,19.83885 172.252734,19.74135 171.443745,19.74135 L169.852734,19.74135 L169.852734,22.37535 L171.380824,22.37535 Z M168.544869,18.92985 L171.617528,18.92985 C172.143371,18.92985 172.622772,18.96735 173.058727,19.03935 C173.494682,19.11435 173.867715,19.22835 174.177828,19.38435 C174.489438,19.54035 174.730637,19.74435 174.904419,19.99335 C175.076704,20.24385 175.163596,20.54535 175.163596,20.89785 C175.163596,21.29985 175.016779,21.66285 174.723146,21.98685 C174.428015,22.31235 173.977079,22.53435 173.365843,22.65885 L173.365843,22.70685 C174.122397,22.79835 174.712659,23.00235 175.132135,23.32185 C175.55161,23.64285 175.762846,24.08235 175.762846,24.63885 C175.762846,25.03335 175.668464,25.37685 175.4797,25.67235 C175.290936,25.96935 175.022772,26.21535 174.676704,26.41185 C174.32764,26.60835 173.914157,26.75535 173.428764,26.85435 C172.946367,26.95335 172.41603,27.00285 171.837753,27.00285 L168.544869,27.00285 L168.544869,18.92985 Z" id="Fill-19" fill="#1A3667"></path>
                <path d="M177.57573,21.02115 L178.883596,21.02115 L178.883596,24.67665 C178.883596,25.24215 178.995955,25.65015 179.22367,25.90065 C179.44839,26.15115 179.813933,26.27565 180.318801,26.27565 C180.717303,26.27565 181.069363,26.19615 181.373483,26.03565 C181.679101,25.87665 182.014682,25.62015 182.383221,25.26765 L182.383221,21.02115 L183.674607,21.02115 L183.674607,27.00165 L182.603446,27.00165 L182.492584,26.06715 L182.446142,26.06715 C182.089588,26.39565 181.713558,26.65815 181.319551,26.85465 C180.924045,27.05115 180.461124,27.15015 179.923296,27.15015 C179.105318,27.15015 178.507566,26.95365 178.134532,26.55915 C177.761498,26.16465 177.57573,25.58265 177.57573,24.81165 L177.57573,21.02115 Z" id="Fill-21" fill="#1A3667"></path>
                <path d="M186.053783,25.64865 C186.390861,25.86165 186.733933,26.03415 187.085993,26.16465 C187.439551,26.29665 187.845543,26.36265 188.308464,26.36265 C188.813333,26.36265 189.190861,26.27265 189.444045,26.09115 C189.69573,25.91115 189.821573,25.68915 189.821573,25.42665 C189.821573,25.27215 189.76764,25.13565 189.66427,25.02165 C189.559401,24.90615 189.424569,24.80565 189.262772,24.71865 C189.097978,24.63315 188.91221,24.55665 188.702472,24.49215 C188.492734,24.42615 188.281498,24.36015 188.07176,24.29565 C187.799101,24.22065 187.524944,24.13665 187.252285,24.04215 C186.978127,23.94915 186.733933,23.83365 186.5197,23.69865 C186.30397,23.56215 186.128689,23.40465 185.990861,23.22465 C185.854532,23.04465 185.785618,22.82715 185.785618,22.57215 C185.785618,22.33515 185.845543,22.11015 185.966891,21.90165 C186.08824,21.69165 186.262022,21.51165 186.48824,21.36015 C186.712959,21.20865 186.990112,21.08865 187.315206,21.00315 C187.641798,20.91765 188.008839,20.87415 188.417828,20.87415 C188.901723,20.87415 189.345169,20.94015 189.751161,21.07065 C190.154157,21.20265 190.504719,21.36165 190.798352,21.55065 L190.18412,22.19115 C189.920449,22.03515 189.64779,21.90765 189.364644,21.80865 C189.081498,21.71115 188.769888,21.66165 188.434307,21.66165 C187.95191,21.66165 187.595356,21.74715 187.370637,21.91965 C187.144419,22.09215 187.030562,22.29315 187.030562,22.52265 C187.030562,22.66215 187.08,22.78365 187.172884,22.88565 C187.268764,22.98915 187.394607,23.07915 187.55191,23.15715 C187.709213,23.23515 187.890487,23.30415 188.09573,23.36565 C188.300974,23.42715 188.513708,23.49165 188.733933,23.55615 C189.00809,23.63865 189.282247,23.72415 189.560899,23.81415 C189.839551,23.90565 190.08824,24.01815 190.309963,24.15315 C190.530187,24.28815 190.711461,24.45465 190.853783,24.65115 C190.996105,24.84915 191.066517,25.08615 191.066517,25.36515 C191.066517,25.61115 191.006592,25.84065 190.885243,26.05515 C190.765393,26.26815 190.585618,26.45715 190.348914,26.62065 C190.113708,26.78415 189.818577,26.91465 189.466517,27.00765 C189.114457,27.10215 188.711461,27.15015 188.262022,27.15015 C187.713708,27.15015 187.195356,27.07215 186.700974,26.91615 C186.206592,26.76015 185.775131,26.56365 185.40809,26.32515 L186.053783,25.64865 Z" id="Fill-23" fill="#1A3667"></path>
                <mask id="mask-2" fill="white">
                    <use xlink:href="#path-1"></use>
                </mask>
                <g id="Clip-26"></g>
                <path d="M192.862921,27.0012 L194.155805,27.0012 L194.155805,21.0207 L192.862921,21.0207 L192.862921,27.0012 Z M193.525094,19.7907 C193.273408,19.7907 193.060674,19.7292 192.886891,19.6062 C192.713109,19.4832 192.627715,19.3272 192.627715,19.1382 C192.627715,18.9417 192.713109,18.7842 192.886891,18.6657 C193.060674,18.5457 193.273408,18.4857 193.525094,18.4857 C193.776779,18.4857 193.991011,18.5457 194.163296,18.6657 C194.337079,18.7842 194.42397,18.9417 194.42397,19.1382 C194.42397,19.3272 194.337079,19.4832 194.163296,19.6062 C193.991011,19.7292 193.776779,19.7907 193.525094,19.7907 Z" id="Fill-25" fill="#1A3667" mask="url(#mask-2)"></path>
                <path d="M196.739775,21.02115 L197.812434,21.02115 L197.921798,21.88365 L197.969738,21.88365 C198.336779,21.59565 198.723296,21.35565 199.129288,21.16365 C199.532285,20.97015 200.004195,20.87415 200.539026,20.87415 C201.348015,20.87415 201.939775,21.07065 202.312809,21.46365 C202.685843,21.85815 202.87161,22.44015 202.87161,23.21115 L202.87161,27.00165 L201.578727,27.00165 L201.578727,23.34765 C201.578727,22.78065 201.463371,22.37265 201.232659,22.12215 C201.001948,21.87315 200.633408,21.74715 200.130037,21.74715 C199.730037,21.74715 199.377978,21.82515 199.073858,21.98115 C198.76824,22.13715 198.420674,22.36665 198.032659,22.67115 L198.032659,27.00165 L196.739775,27.00165 L196.739775,21.02115 Z" id="Fill-27" fill="#1A3667" mask="url(#mask-2)"></path>
                <path d="M210.154157,23.5686 C210.154157,22.9536 209.987865,22.4841 209.656779,22.1601 C209.325693,21.8361 208.861273,21.6741 208.262022,21.6741 C207.989363,21.6741 207.728689,21.7176 207.481498,21.8031 C207.235805,21.8886 207.011086,22.0116 206.813333,22.1721 C206.612584,22.3326 206.446292,22.5291 206.314457,22.7631 C206.18412,22.9971 206.097228,23.2656 206.055281,23.5686 L210.154157,23.5686 Z M204.795356,24.0246 C204.795356,23.5326 204.891236,23.0916 205.085993,22.7016 C205.280749,22.3116 205.538427,21.9816 205.859026,21.7101 C206.179625,21.4401 206.54367,21.2331 206.954157,21.0891 C207.364644,20.9451 207.790112,20.8746 208.230562,20.8746 C208.712959,20.8746 209.147416,20.9406 209.530936,21.0711 C209.914457,21.2016 210.235056,21.3906 210.492734,21.6366 C210.748914,21.8826 210.946667,22.1781 211.082996,22.5231 C211.219326,22.8681 211.28824,23.2536 211.28824,23.6796 C211.28824,23.9016 211.27176,24.0861 211.241798,24.2331 L206.070262,24.2331 C206.124195,24.8811 206.377378,25.3941 206.835805,25.7721 C207.292734,26.1486 207.888989,26.3376 208.624569,26.3376 C208.993109,26.3376 209.330187,26.2941 209.6403,26.2086 C209.950412,26.1231 210.247041,26.0091 210.531685,25.8696 L210.990112,26.5356 C210.653034,26.6991 210.28,26.8431 209.871011,26.9661 C209.460524,27.0891 208.993109,27.1506 208.467266,27.1506 C207.95191,27.1506 207.471011,27.0771 207.024569,26.9346 C206.578127,26.7906 206.190112,26.5866 205.859026,26.3196 C205.52794,26.0526 205.267266,25.7256 205.078502,25.3416 C204.88824,24.9546 204.795356,24.5166 204.795356,24.0246 Z" id="Fill-28" fill="#1A3667" mask="url(#mask-2)"></path>
                <path d="M212.974831,25.64865 C213.31191,25.86165 213.654981,26.03415 214.007041,26.16465 C214.360599,26.29665 214.766592,26.36265 215.229513,26.36265 C215.734382,26.36265 216.11191,26.27265 216.365094,26.09115 C216.616779,25.91115 216.742622,25.68915 216.742622,25.42665 C216.742622,25.27215 216.688689,25.13565 216.585318,25.02165 C216.480449,24.90615 216.345618,24.80565 216.18382,24.71865 C216.019026,24.63315 215.833258,24.55665 215.623521,24.49215 C215.413783,24.42615 215.202547,24.36015 214.992809,24.29565 C214.72015,24.22065 214.445993,24.13665 214.173333,24.04215 C213.899176,23.94915 213.654981,23.83365 213.440749,23.69865 C213.225019,23.56215 213.049738,23.40465 212.91191,23.22465 C212.775581,23.04465 212.706667,22.82715 212.706667,22.57215 C212.706667,22.33515 212.766592,22.11015 212.88794,21.90165 C213.009288,21.69165 213.183071,21.51165 213.409288,21.36015 C213.634007,21.20865 213.911161,21.08865 214.236255,21.00315 C214.562846,20.91765 214.929888,20.87415 215.338876,20.87415 C215.822772,20.87415 216.266217,20.94015 216.67221,21.07065 C217.075206,21.20265 217.425768,21.36165 217.719401,21.55065 L217.105169,22.19115 C216.841498,22.03515 216.568839,21.90765 216.285693,21.80865 C216.002547,21.71115 215.690936,21.66165 215.355356,21.66165 C214.872959,21.66165 214.516404,21.74715 214.291685,21.91965 C214.065468,22.09215 213.95161,22.29315 213.95161,22.52265 C213.95161,22.66215 214.001049,22.78365 214.093933,22.88565 C214.189813,22.98915 214.315655,23.07915 214.472959,23.15715 C214.630262,23.23515 214.811536,23.30415 215.016779,23.36565 C215.222022,23.42715 215.434757,23.49165 215.654981,23.55615 C215.929139,23.63865 216.203296,23.72415 216.481948,23.81415 C216.760599,23.90565 217.009288,24.01815 217.231011,24.15315 C217.451236,24.28815 217.632509,24.45465 217.774831,24.65115 C217.917154,24.84915 217.987566,25.08615 217.987566,25.36515 C217.987566,25.61115 217.92764,25.84065 217.806292,26.05515 C217.686442,26.26815 217.506667,26.45715 217.269963,26.62065 C217.034757,26.78415 216.739625,26.91465 216.387566,27.00765 C216.035506,27.10215 215.632509,27.15015 215.183071,27.15015 C214.634757,27.15015 214.116404,27.07215 213.622022,26.91615 C213.12764,26.76015 212.69618,26.56365 212.329139,26.32515 L212.974831,25.64865 Z" id="Fill-29" fill="#1A3667" mask="url(#mask-2)"></path>
                <path d="M219.578876,25.64865 C219.915955,25.86165 220.259026,26.03415 220.611086,26.16465 C220.964644,26.29665 221.370637,26.36265 221.833558,26.36265 C222.338427,26.36265 222.715955,26.27265 222.969139,26.09115 C223.220824,25.91115 223.346667,25.68915 223.346667,25.42665 C223.346667,25.27215 223.292734,25.13565 223.189363,25.02165 C223.084494,24.90615 222.949663,24.80565 222.787865,24.71865 C222.623071,24.63315 222.437303,24.55665 222.227566,24.49215 C222.017828,24.42615 221.806592,24.36015 221.596854,24.29565 C221.324195,24.22065 221.050037,24.13665 220.777378,24.04215 C220.503221,23.94915 220.259026,23.83365 220.044794,23.69865 C219.829064,23.56215 219.653783,23.40465 219.515955,23.22465 C219.379625,23.04465 219.310712,22.82715 219.310712,22.57215 C219.310712,22.33515 219.370637,22.11015 219.491985,21.90165 C219.613333,21.69165 219.787116,21.51165 220.013333,21.36015 C220.238052,21.20865 220.515206,21.08865 220.8403,21.00315 C221.166891,20.91765 221.533933,20.87415 221.942921,20.87415 C222.426816,20.87415 222.870262,20.94015 223.276255,21.07065 C223.679251,21.20265 224.029813,21.36165 224.323446,21.55065 L223.709213,22.19115 C223.445543,22.03515 223.172884,21.90765 222.889738,21.80865 C222.606592,21.71115 222.294981,21.66165 221.959401,21.66165 C221.477004,21.66165 221.120449,21.74715 220.89573,21.91965 C220.669513,22.09215 220.555655,22.29315 220.555655,22.52265 C220.555655,22.66215 220.605094,22.78365 220.697978,22.88565 C220.793858,22.98915 220.9197,23.07915 221.077004,23.15715 C221.234307,23.23515 221.415581,23.30415 221.620824,23.36565 C221.826067,23.42715 222.038801,23.49165 222.259026,23.55615 C222.533184,23.63865 222.807341,23.72415 223.085993,23.81415 C223.364644,23.90565 223.613333,24.01815 223.835056,24.15315 C224.055281,24.28815 224.236554,24.45465 224.378876,24.65115 C224.521199,24.84915 224.59161,25.08615 224.59161,25.36515 C224.59161,25.61115 224.531685,25.84065 224.410337,26.05515 C224.290487,26.26815 224.110712,26.45715 223.874007,26.62065 C223.638801,26.78415 223.34367,26.91465 222.99161,27.00765 C222.639551,27.10215 222.236554,27.15015 221.787116,27.15015 C221.238801,27.15015 220.720449,27.07215 220.226067,26.91615 C219.731685,26.76015 219.300225,26.56365 218.933184,26.32515 L219.578876,25.64865 Z" id="Fill-30" fill="#1A3667" mask="url(#mask-2)"></path>
                <path d="M102.787116,38.48355 L102.298727,37.25355 C102.108464,36.80205 101.930187,36.35355 101.762397,35.90505 C101.594607,35.45805 101.425318,35.00055 101.257528,34.53405 L101.196105,34.53405 C101.037303,35.00055 100.874007,35.45805 100.706217,35.90505 C100.538427,36.35355 100.36015,36.80205 100.169888,37.25355 L99.6814981,38.48355 L102.787116,38.48355 Z M103.118202,39.30855 L99.3519101,39.30855 L98.3571536,41.76855 L97.0178277,41.76855 L100.517453,33.69705 L101.999101,33.69705 L105.498727,41.76855 L104.094981,41.76855 L103.118202,39.30855 Z" id="Fill-31" fill="#1A3667" mask="url(#mask-2)"></path>
                <path d="M107.625318,38.77875 C107.625318,39.50025 107.809588,40.06275 108.176629,40.46475 C108.545169,40.86675 109.065019,41.06775 109.737678,41.06775 C110.094232,41.06775 110.431311,41.00025 110.745918,40.86525 C111.060524,40.72875 111.375131,40.52325 111.691236,40.24425 L111.691236,37.11825 C111.36764,36.88875 111.054532,36.72525 110.753408,36.63075 C110.455281,36.53775 110.148165,36.48975 109.83206,36.48975 C109.52794,36.48975 109.241798,36.54525 108.972135,36.65625 C108.705468,36.76725 108.470262,36.92325 108.272509,37.12275 C108.07176,37.32525 107.914457,37.56525 107.799101,37.84275 C107.683745,38.12325 107.625318,38.43525 107.625318,38.77875 M106.285993,38.79075 C106.285993,38.30775 106.377378,37.87125 106.561648,37.48125 C106.745918,37.09125 106.990112,36.76125 107.294232,36.48975 C107.598352,36.21825 107.950412,36.00975 108.350412,35.86275 C108.748914,35.71575 109.169888,35.64075 109.611835,35.64075 C110.052285,35.64075 110.435805,35.70225 110.762397,35.82525 C111.087491,35.94825 111.420075,36.11775 111.755655,36.33075 L111.691236,35.30925 L111.691236,33.00675 L112.999101,33.00675 L112.999101,41.76975 L111.929438,41.76975 L111.817079,41.06775 L111.770637,41.06775 C111.466517,41.29725 111.117453,41.49675 110.721948,41.66475 C110.329438,41.83275 109.905468,41.91675 109.454532,41.91675 C108.486742,41.91675 107.718202,41.64675 107.144419,41.10525 C106.572135,40.56225 106.285993,39.79275 106.285993,38.79075" id="Fill-32" fill="#1A3667" mask="url(#mask-2)"></path>
                <path d="M115.584869,35.7882 L116.657528,35.7882 L116.766891,36.6507 L116.814831,36.6507 C117.15191,36.3627 117.515955,36.1227 117.911461,35.9307 C118.30397,35.7372 118.732434,35.6412 119.195356,35.6412 C119.78412,35.6412 120.242547,35.7417 120.573633,35.9427 C120.904719,36.1437 121.148914,36.4242 121.306217,36.7857 C121.706217,36.4407 122.107715,36.1632 122.51221,35.9547 C122.918202,35.7462 123.355655,35.6412 123.829064,35.6412 C124.617079,35.6412 125.202846,35.8377 125.586367,36.2307 C125.969888,36.6252 126.161648,37.2072 126.161648,37.9782 L126.161648,41.7687 L124.868764,41.7687 L124.868764,38.1147 C124.868764,37.5477 124.753408,37.1397 124.522697,36.8892 C124.291985,36.6402 123.933933,36.5142 123.450037,36.5142 C122.87176,36.5142 122.23206,36.8217 121.52794,37.4382 L121.52794,41.7687 L120.235056,41.7687 L120.235056,38.1147 C120.235056,37.5477 120.118202,37.1397 119.888989,36.8892 C119.658277,36.6402 119.29573,36.5142 118.79985,36.5142 C118.223071,36.5142 117.581873,36.8217 116.877753,37.4382 L116.877753,41.7687 L115.584869,41.7687 L115.584869,35.7882 Z" id="Fill-33" fill="#1A3667" mask="url(#mask-2)"></path>
                <path d="M128.651685,41.7687 L129.944569,41.7687 L129.944569,35.7882 L128.651685,35.7882 L128.651685,41.7687 Z M129.313858,34.5582 C129.062172,34.5582 128.84794,34.4967 128.675655,34.3737 C128.501873,34.2507 128.414981,34.0947 128.414981,33.9057 C128.414981,33.7092 128.501873,33.5502 128.675655,33.4317 C128.84794,33.3132 129.062172,33.2532 129.313858,33.2532 C129.565543,33.2532 129.778277,33.3132 129.95206,33.4317 C130.125843,33.5502 130.212734,33.7092 130.212734,33.9057 C130.212734,34.0947 130.125843,34.2507 129.95206,34.3737 C129.778277,34.4967 129.565543,34.5582 129.313858,34.5582 Z" id="Fill-34" fill="#1A3667" mask="url(#mask-2)"></path>
                <path d="M132.52794,35.7882 L133.600599,35.7882 L133.709963,36.6507 L133.757903,36.6507 C134.124944,36.3627 134.511461,36.1227 134.917453,35.9307 C135.320449,35.7372 135.79236,35.6412 136.327191,35.6412 C137.13618,35.6412 137.72794,35.8377 138.100974,36.2307 C138.474007,36.6252 138.659775,37.2072 138.659775,37.9782 L138.659775,41.7687 L137.366891,41.7687 L137.366891,38.1147 C137.366891,37.5477 137.251536,37.1397 137.020824,36.8892 C136.790112,36.6402 136.421573,36.5142 135.918202,36.5142 C135.518202,36.5142 135.166142,36.5922 134.862022,36.7482 C134.556404,36.9042 134.208839,37.1337 133.820824,37.4382 L133.820824,41.7687 L132.52794,41.7687 L132.52794,35.7882 Z" id="Fill-35" fill="#1A3667" mask="url(#mask-2)"></path>
                <path d="M141.149064,41.7687 L142.441948,41.7687 L142.441948,35.7882 L141.149064,35.7882 L141.149064,41.7687 Z M141.812734,34.5582 C141.561049,34.5582 141.346816,34.4967 141.174532,34.3737 C141.000749,34.2507 140.913858,34.0947 140.913858,33.9057 C140.913858,33.7092 141.000749,33.5502 141.174532,33.4317 C141.346816,33.3132 141.561049,33.2532 141.812734,33.2532 C142.064419,33.2532 142.277154,33.3132 142.449438,33.4317 C142.624719,33.5502 142.710112,33.7092 142.710112,33.9057 C142.710112,34.0947 142.624719,34.2507 142.449438,34.3737 C142.277154,34.4967 142.064419,34.5582 141.812734,34.5582 Z" id="Fill-36" fill="#1A3667" mask="url(#mask-2)"></path>
                <path d="M144.821723,40.4157 C145.158801,40.6287 145.501873,40.8012 145.853933,40.9317 C146.207491,41.0637 146.613483,41.1297 147.076404,41.1297 C147.581273,41.1297 147.958801,41.0397 148.211985,40.8582 C148.46367,40.6782 148.589513,40.4562 148.589513,40.1937 C148.589513,40.0392 148.535581,39.9027 148.43221,39.7887 C148.327341,39.6732 148.192509,39.5727 148.030712,39.4857 C147.865918,39.4002 147.68015,39.3237 147.470412,39.2592 C147.260674,39.1932 147.049438,39.1272 146.8397,39.0627 C146.567041,38.9877 146.292884,38.9037 146.020225,38.8092 C145.746067,38.7162 145.501873,38.6007 145.28764,38.4657 C145.07191,38.3292 144.896629,38.1717 144.758801,37.9917 C144.622472,37.8117 144.553558,37.5942 144.553558,37.3392 C144.553558,37.1022 144.613483,36.8772 144.734831,36.6687 C144.85618,36.4587 145.029963,36.2787 145.25618,36.1272 C145.480899,35.9757 145.758052,35.8557 146.083146,35.7702 C146.409738,35.6847 146.776779,35.6412 147.185768,35.6412 C147.669663,35.6412 148.113109,35.7072 148.519101,35.8377 C148.922097,35.9697 149.272659,36.1287 149.566292,36.3177 L148.95206,36.9582 C148.68839,36.8022 148.41573,36.6747 148.132584,36.5757 C147.849438,36.4782 147.537828,36.4287 147.202247,36.4287 C146.71985,36.4287 146.363296,36.5142 146.138577,36.6867 C145.91236,36.8592 145.798502,37.0602 145.798502,37.2897 C145.798502,37.4292 145.84794,37.5507 145.940824,37.6527 C146.036704,37.7562 146.162547,37.8462 146.31985,37.9242 C146.477154,38.0022 146.658427,38.0712 146.86367,38.1327 C147.068914,38.1942 147.281648,38.2587 147.501873,38.3232 C147.77603,38.4057 148.050187,38.4912 148.328839,38.5812 C148.607491,38.6727 148.85618,38.7852 149.077903,38.9202 C149.298127,39.0552 149.479401,39.2217 149.621723,39.4182 C149.764045,39.6162 149.834457,39.8532 149.834457,40.1322 C149.834457,40.3782 149.774532,40.6077 149.653184,40.8222 C149.533333,41.0352 149.353558,41.2242 149.116854,41.3877 C148.881648,41.5512 148.586517,41.6817 148.234457,41.7747 C147.882397,41.8692 147.479401,41.9172 147.029963,41.9172 C146.481648,41.9172 145.963296,41.8392 145.468914,41.6832 C144.974532,41.5272 144.543071,41.3307 144.17603,41.0922 L144.821723,40.4157 Z" id="Fill-37" fill="#1A3667" mask="url(#mask-2)"></path>
                <path d="M151.553109,36.6129 L150.419026,36.6129 L150.419026,35.8494 L151.61603,35.7879 L151.773333,34.1139 L152.860974,34.1139 L152.860974,35.7879 L154.926891,35.7879 L154.926891,36.6129 L152.860974,36.6129 L152.860974,39.9354 C152.860974,40.3044 152.949363,40.5894 153.121648,40.7904 C153.295431,40.9914 153.602547,41.0919 154.042996,41.0919 C154.180824,41.0919 154.32764,41.0769 154.484944,41.0439 C154.643745,41.0109 154.784569,40.9734 154.910412,40.9314 L155.162097,41.6949 C154.953858,41.7534 154.723146,41.8044 154.477453,41.8494 C154.230262,41.8944 153.986067,41.9169 153.744869,41.9169 C153.334382,41.9169 152.989813,41.8674 152.711161,41.7699 C152.434007,41.6709 152.20779,41.5359 152.034007,41.3634 C151.860225,41.1909 151.737378,40.9824 151.66397,40.7364 C151.589064,40.4889 151.553109,40.2189 151.553109,39.9234 L151.553109,36.6129 Z" id="Fill-38" fill="#1A3667" mask="url(#mask-2)"></path>
                <path d="M156.659026,35.7882 L157.731685,35.7882 L157.841049,36.8712 L157.888989,36.8712 C158.151161,36.4947 158.470262,36.1947 158.843296,35.9727 C159.214831,35.7522 159.62382,35.6412 160.06427,35.6412 C160.369888,35.6412 160.641049,35.6817 160.883745,35.7642 L160.630562,36.6507 C160.504719,36.6177 160.389363,36.5922 160.284494,36.5757 C160.179625,36.5592 160.049288,36.5517 159.890487,36.5517 C159.563895,36.5517 159.226816,36.6537 158.874757,36.8592 C158.521199,37.0647 158.214082,37.4217 157.95191,37.9302 L157.95191,41.7687 L156.659026,41.7687 L156.659026,35.7882 Z" id="Fill-39" fill="#1A3667" mask="url(#mask-2)"></path>
                <path d="M162.666067,40.14465 C162.666067,40.48965 162.793408,40.73565 163.051086,40.88265 C163.308764,41.03115 163.627865,41.10465 164.005393,41.10465 C164.373933,41.10465 164.721498,41.03715 165.054082,40.90065 C165.38367,40.76715 165.734232,40.56765 166.101273,40.30515 L166.101273,38.64315 C165.460075,38.70915 164.919251,38.78715 164.477303,38.87715 C164.036854,38.96715 163.681798,39.07365 163.413633,39.19665 C163.145468,39.31965 162.953708,39.46215 162.838352,39.62115 C162.722996,39.78165 162.666067,39.95715 162.666067,40.14465 M161.388165,40.21815 C161.388165,39.56265 161.764195,39.06015 162.514757,38.71065 C163.266816,38.36265 164.462322,38.11815 166.101273,37.97865 C166.101273,37.79115 166.077303,37.60665 166.030861,37.42515 C165.982921,37.24515 165.899026,37.08465 165.777678,36.94515 C165.657828,36.80565 165.497528,36.69315 165.298277,36.60765 C165.097528,36.52065 164.83985,36.47715 164.525243,36.47715 C164.072809,36.47715 163.654831,36.54315 163.271311,36.67515 C162.88779,36.80565 162.544719,36.95415 162.240599,37.11765 L161.719251,36.41565 C162.075805,36.23565 162.51176,36.06165 163.027116,35.89365 C163.542472,35.72565 164.110262,35.64165 164.730487,35.64165 C165.665318,35.64165 166.342472,35.86365 166.763446,36.31065 C167.184419,36.75915 167.394157,37.35615 167.394157,38.10165 L167.394157,41.76915 L166.321498,41.76915 L166.212135,41.05515 L166.180674,41.05515 C165.813633,41.29365 165.415131,41.49615 164.991161,41.66415 C164.565693,41.83215 164.116255,41.91765 163.641348,41.91765 C162.991161,41.91765 162.451835,41.76915 162.026367,41.47365 C161.600899,41.17815 161.388165,40.75965 161.388165,40.21815" id="Fill-40" fill="#1A3667" mask="url(#mask-2)"></path>
                <path d="M169.710562,36.6129 L168.576479,36.6129 L168.576479,35.8494 L169.773483,35.7879 L169.930787,34.1139 L171.018427,34.1139 L171.018427,35.7879 L173.084345,35.7879 L173.084345,36.6129 L171.018427,36.6129 L171.018427,39.9354 C171.018427,40.3044 171.106816,40.5894 171.279101,40.7904 C171.452884,40.9914 171.76,41.0919 172.200449,41.0919 C172.338277,41.0919 172.485094,41.0769 172.642397,41.0439 C172.801199,41.0109 172.942022,40.9734 173.067865,40.9314 L173.319551,41.6949 C173.111311,41.7534 172.880599,41.8044 172.634906,41.8494 C172.387715,41.8944 172.143521,41.9169 171.902322,41.9169 C171.491835,41.9169 171.147266,41.8674 170.868614,41.7699 C170.591461,41.6709 170.365243,41.5359 170.191461,41.3634 C170.017678,41.1909 169.894831,40.9824 169.821423,40.7364 C169.746517,40.4889 169.710562,40.2189 169.710562,39.9234 L169.710562,36.6129 Z" id="Fill-41" fill="#1A3667" mask="url(#mask-2)"></path>
                <path d="M174.816479,41.7687 L176.109363,41.7687 L176.109363,35.7882 L174.816479,35.7882 L174.816479,41.7687 Z M175.478652,34.5582 C175.226966,34.5582 175.014232,34.4967 174.841948,34.3737 C174.666667,34.2507 174.581273,34.0947 174.581273,33.9057 C174.581273,33.7092 174.666667,33.5502 174.841948,33.4317 C175.014232,33.3132 175.226966,33.2532 175.478652,33.2532 C175.730337,33.2532 175.944569,33.3132 176.116854,33.4317 C176.290637,33.5502 176.377528,33.7092 176.377528,33.9057 C176.377528,34.0947 176.290637,34.2507 176.116854,34.3737 C175.944569,34.4967 175.730337,34.5582 175.478652,34.5582 Z" id="Fill-42" fill="#1A3667" mask="url(#mask-2)"></path>
                <path d="M179.467416,38.7912 C179.467416,39.1347 179.51985,39.4467 179.624719,39.7272 C179.731086,40.0062 179.879401,40.2447 180.074157,40.4472 C180.268914,40.6467 180.502622,40.8027 180.776779,40.9137 C181.049438,41.0247 181.349064,41.0802 181.675655,41.0802 C181.999251,41.0802 182.300375,41.0247 182.573034,40.9137 C182.845693,40.8027 183.079401,40.6467 183.274157,40.4472 C183.468914,40.2447 183.618727,40.0062 183.723596,39.7272 C183.828464,39.4467 183.880899,39.1347 183.880899,38.7912 C183.880899,38.4477 183.828464,38.1327 183.723596,37.8507 C183.618727,37.5672 183.468914,37.3227 183.274157,37.1172 C183.079401,36.9132 182.845693,36.7542 182.573034,36.6432 C182.300375,36.5337 181.999251,36.4782 181.675655,36.4782 C181.349064,36.4782 181.049438,36.5337 180.776779,36.6432 C180.502622,36.7542 180.268914,36.9132 180.074157,37.1172 C179.879401,37.3227 179.731086,37.5672 179.624719,37.8507 C179.51985,38.1327 179.467416,38.4477 179.467416,38.7912 M178.12809,38.7912 C178.12809,38.2917 178.225468,37.8462 178.420225,37.4562 C178.614981,37.0662 178.874157,36.7362 179.199251,36.4662 C179.525843,36.1947 179.901873,35.9892 180.325843,35.8497 C180.751311,35.7102 181.200749,35.6412 181.675655,35.6412 C182.147566,35.6412 182.597004,35.7102 183.022472,35.8497 C183.44794,35.9892 183.822472,36.1947 184.149064,36.4662 C184.475655,36.7362 184.734831,37.0662 184.929588,37.4562 C185.122846,37.8462 185.221723,38.2917 185.221723,38.7912 C185.221723,39.2832 185.122846,39.7242 184.929588,40.1142 C184.734831,40.5042 184.475655,40.8312 184.149064,41.0982 C183.822472,41.3652 183.44794,41.5692 183.022472,41.7072 C182.597004,41.8467 182.147566,41.9172 181.675655,41.9172 C181.200749,41.9172 180.751311,41.8467 180.325843,41.7072 C179.901873,41.5692 179.525843,41.3652 179.199251,41.0982 C178.874157,40.8312 178.614981,40.5042 178.420225,40.1142 C178.225468,39.7242 178.12809,39.2832 178.12809,38.7912" id="Fill-43" fill="#1A3667" mask="url(#mask-2)"></path>
                <path d="M187.237453,35.7882 L188.310112,35.7882 L188.419476,36.6507 L188.467416,36.6507 C188.834457,36.3627 189.220974,36.1227 189.626966,35.9307 C190.029963,35.7372 190.501873,35.6412 191.036704,35.6412 C191.845693,35.6412 192.437453,35.8377 192.810487,36.2307 C193.183521,36.6252 193.369288,37.2072 193.369288,37.9782 L193.369288,41.7687 L192.076404,41.7687 L192.076404,38.1147 C192.076404,37.5477 191.961049,37.1397 191.730337,36.8892 C191.499625,36.6402 191.131086,36.5142 190.627715,36.5142 C190.227715,36.5142 189.875655,36.5922 189.571536,36.7482 C189.265918,36.9042 188.918352,37.1337 188.530337,37.4382 L188.530337,41.7687 L187.237453,41.7687 L187.237453,35.7882 Z" id="Fill-44" fill="#1A3667" mask="url(#mask-2)"></path>
                <polygon id="Fill-45" fill="#CA2026" mask="url(#mask-2)" points="65.5994007 52.2501 13.7986517 52.2501 13.3117603 52.2501 13.3117603 51.8346 13.3117603 45.8811 8.86831461 45.8811 8.86831461 56.0481 65.6248689 56.0481"></polygon>
                <polygon id="Fill-46" fill="#1A3667" mask="url(#mask-2)" points="8.94561798 13.9533 13.3890637 13.9533 13.3890637 7.9998 13.3890637 7.5843 13.8759551 7.5843 65.1898127 7.5843 65.6767041 7.5843 65.6767041 7.9998 65.6767041 13.9533 70.1201498 13.9533 70.1201498 3.7863 8.94561798 3.7863"></polygon>
                <path d="M5.36644195,34.6032 C5.402397,35.9262 6.14846442,38.4417 11.0293633,38.4417 C13.6750562,38.4417 16.6203745,37.8792 16.6203745,35.3637 C16.6203745,33.5112 14.6068914,33.0147 11.7754307,32.4192 L8.90651685,31.8222 C4.58292135,30.9297 0.410636704,30.0717 0.410636704,24.8427 C0.410636704,22.1967 2.01213483,17.5332 10.6937828,17.5332 C18.8915356,17.5332 21.0892884,22.2957 21.1282397,25.2072 L15.7619476,25.2072 C15.6121348,24.1497 15.1656929,21.6342 10.284794,21.6342 C8.16044944,21.6342 5.6271161,22.3302 5.6271161,24.4797 C5.6271161,26.3322 7.34097378,26.7297 8.45857678,26.9607 L14.9799251,28.3842 C18.6308614,29.1777 21.9851685,30.4992 21.9851685,34.7667 C21.9851685,41.9142 13.7859176,42.5427 11.4398502,42.5427 C1.67805243,42.5427 0.000149812734,37.5477 0.000149812734,34.6032 L5.36644195,34.6032 Z" id="Fill-47" fill="#1A3667" mask="url(#mask-2)"></path>
                <path d="M29.0548315,18.1611 L42.5604494,18.1611 C49.3739326,18.1611 51.1147566,21.8001 51.1147566,24.2481 C51.1147566,27.6546 48.8690637,28.6161 47.708015,29.1111 C51.1147566,30.2031 52.0046442,32.5176 52.0046442,34.8681 C52.0046442,36.7536 51.0758052,38.5386 49.6061423,39.7641 C48.0196255,41.0856 46.5095131,41.9136 40.8196255,41.9136 L29.0548315,41.9136 L29.0548315,18.1611 Z M34.6278652,27.4566 L41.4398502,27.4566 C43.7229963,27.4566 45.5417228,26.6961 45.5417228,24.8106 C45.5417228,22.8576 43.9162547,22.2621 41.2840449,22.2621 L34.6278652,22.2621 L34.6278652,27.4566 Z M34.6278652,37.8111 L41.7484644,37.8111 C44.5739326,37.8111 46.2008989,36.7536 46.2008989,34.3371 C46.2008989,32.2551 44.1095131,31.4586 42.0196255,31.4586 L34.6278652,31.4586 L34.6278652,37.8111 Z" id="Fill-48" fill="#1A3667" mask="url(#mask-2)"></path>
                <polygon id="Fill-49" fill="#1A3667" mask="url(#mask-2)" points="70.0762547 18.15375 65.668764 18.15375 56.8417978 41.92125 62.4148315 41.92125 67.8230712 26.31675 73.3197004 41.92125 78.891236 41.92125"></polygon>
                <polygon id="Fill-50" fill="#1A3667" mask="url(#mask-2)" points="70.0432959 52.22745 65.6253184 56.04795 65.6253184 41.98095 70.0432959 41.98095"></polygon>
                <path d="M361.883446,50.0016 L362.225019,50.0016 L362.225019,51.9006 C362.225019,52.0941 362.241498,52.2546 362.274457,52.3851 C362.305918,52.5171 362.350861,52.6221 362.40779,52.7001 C362.464719,52.7781 362.530637,52.8351 362.605543,52.8696 C362.683446,52.9041 362.765843,52.9206 362.852734,52.9206 C362.94412,52.9206 363.028015,52.9041 363.102921,52.8696 C363.179326,52.8351 363.246742,52.7781 363.305169,52.7001 C363.362097,52.6221 363.408539,52.5171 363.44,52.3851 C363.474457,52.2546 363.489438,52.0941 363.489438,51.9006 L363.489438,50.0016 L363.819026,50.0016 L363.819026,51.8901 C363.819026,52.1496 363.793558,52.3671 363.74412,52.5426 C363.694682,52.7196 363.627266,52.8621 363.540375,52.9716 C363.454981,53.0811 363.35161,53.1606 363.234757,53.2071 C363.116404,53.2551 362.989064,53.2791 362.852734,53.2791 C362.716404,53.2791 362.589064,53.2551 362.469213,53.2071 C362.350861,53.1606 362.247491,53.0811 362.162097,52.9716 C362.075206,52.8621 362.006292,52.7196 361.958352,52.5426 C361.908914,52.3671 361.883446,52.1496 361.883446,51.8901 L361.883446,50.0016 Z" id="Fill-51" fill="#1A3667" mask="url(#mask-2)"></path>
                <path d="M364.38367,52.9746 C364.38367,52.8801 364.409139,52.8036 364.457079,52.7466 C364.503521,52.6896 364.561948,52.6611 364.630861,52.6611 C364.696779,52.6611 364.753708,52.6896 364.80015,52.7466 C364.849588,52.8036 364.873558,52.8801 364.873558,52.9746 C364.873558,53.0631 364.849588,53.1351 364.80015,53.1936 C364.753708,53.2506 364.696779,53.2791 364.630861,53.2791 C364.561948,53.2791 364.503521,53.2506 364.457079,53.1936 C364.409139,53.1351 364.38367,53.0631 364.38367,52.9746" id="Fill-52" fill="#1A3667" mask="url(#mask-2)"></path>
                <path d="M365.514607,52.5183 C365.610487,52.6398 365.724345,52.7373 365.854682,52.8108 C365.983521,52.8843 366.118352,52.9203 366.257678,52.9203 C366.435955,52.9203 366.575281,52.8723 366.672659,52.7763 C366.771536,52.6788 366.820974,52.5528 366.820974,52.3953 C366.820974,52.3143 366.808989,52.2438 366.786517,52.1868 C366.762547,52.1298 366.731086,52.0803 366.692135,52.0398 C366.651685,51.9993 366.605243,51.9618 366.549813,51.9288 C366.494382,51.8973 366.435955,51.8628 366.373034,51.8268 L365.986517,51.6258 C365.923596,51.5928 365.859176,51.5538 365.794757,51.5073 C365.728839,51.4623 365.670412,51.4068 365.616479,51.3408 C365.565543,51.2748 365.523596,51.1983 365.489139,51.1083 C365.457678,51.0183 365.441199,50.9148 365.441199,50.7963 C365.441199,50.6748 365.462172,50.5623 365.50412,50.4573 C365.546067,50.3538 365.605993,50.2623 365.680899,50.1858 C365.755805,50.1093 365.845693,50.0493 365.947566,50.0073 C366.050936,49.9638 366.164794,49.9428 366.28764,49.9428 C366.449438,49.9428 366.599251,49.9803 366.734082,50.0523 C366.87191,50.1273 366.987266,50.2218 367.084644,50.3403 L366.898876,50.6058 C366.816479,50.5098 366.726592,50.4363 366.626217,50.3823 C366.525843,50.3283 366.413483,50.3013 366.28764,50.3013 C366.13633,50.3013 366.014981,50.3433 365.923596,50.4258 C365.83221,50.5098 365.787266,50.6253 365.787266,50.7723 C365.787266,50.8503 365.797753,50.9163 365.824719,50.9703 C365.851685,51.0243 365.886142,51.0723 365.929588,51.1128 C365.974532,51.1533 366.022472,51.1893 366.073408,51.2208 C366.125843,51.2523 366.178277,51.2808 366.233708,51.3063 L366.61573,51.5028 C366.692135,51.5418 366.765543,51.5868 366.832959,51.6378 C366.901873,51.6888 366.961798,51.7473 367.009738,51.8148 C367.059176,51.8823 367.099625,51.9603 367.126592,52.0503 C367.156554,52.1403 367.170037,52.2438 367.170037,52.3623 C367.170037,52.4883 367.149064,52.6083 367.105618,52.7193 C367.06367,52.8303 367.003745,52.9278 366.922846,53.0118 C366.844944,53.0943 366.747566,53.1603 366.636704,53.2068 C366.524345,53.2548 366.397004,53.2788 366.254682,53.2788 C366.064419,53.2788 365.890637,53.2368 365.728839,53.1513 C365.567041,53.0658 365.426217,52.9503 365.309363,52.8033 L365.514607,52.5183 Z" id="Fill-53" fill="#1A3667" mask="url(#mask-2)"></path>
                <path d="M367.596404,52.9746 C367.596404,52.8801 367.621873,52.8036 367.669813,52.7466 C367.716255,52.6896 367.774682,52.6611 367.843596,52.6611 C367.909513,52.6611 367.966442,52.6896 368.012884,52.7466 C368.062322,52.8036 368.086292,52.8801 368.086292,52.9746 C368.086292,53.0631 368.062322,53.1351 368.012884,53.1936 C367.966442,53.2506 367.909513,53.2791 367.843596,53.2791 C367.774682,53.2791 367.716255,53.2506 367.669813,53.1936 C367.621873,53.1351 367.596404,53.0631 367.596404,52.9746" id="Fill-54" fill="#1A3667" mask="url(#mask-2)"></path>
                <path d="M369.55985,52.5183 C369.65573,52.6398 369.769588,52.7373 369.899925,52.8108 C370.028764,52.8843 370.163596,52.9203 370.302921,52.9203 C370.481199,52.9203 370.620524,52.8723 370.717903,52.7763 C370.816779,52.6788 370.866217,52.5528 370.866217,52.3953 C370.866217,52.3143 370.854232,52.2438 370.83176,52.1868 C370.80779,52.1298 370.77633,52.0803 370.737378,52.0398 C370.696929,51.9993 370.650487,51.9618 370.595056,51.9288 C370.539625,51.8973 370.481199,51.8628 370.418277,51.8268 L370.03176,51.6258 C369.968839,51.5928 369.904419,51.5538 369.84,51.5073 C369.774082,51.4623 369.715655,51.4068 369.661723,51.3408 C369.610787,51.2748 369.568839,51.1983 369.534382,51.1083 C369.502921,51.0183 369.486442,50.9148 369.486442,50.7963 C369.486442,50.6748 369.507416,50.5623 369.549363,50.4573 C369.591311,50.3538 369.651236,50.2623 369.726142,50.1858 C369.801049,50.1093 369.890936,50.0493 369.992809,50.0073 C370.09618,49.9638 370.210037,49.9428 370.332884,49.9428 C370.494682,49.9428 370.644494,49.9803 370.779326,50.0523 C370.917154,50.1273 371.032509,50.2218 371.129888,50.3403 L370.94412,50.6058 C370.861723,50.5098 370.771835,50.4363 370.671461,50.3823 C370.571086,50.3283 370.458727,50.3013 370.332884,50.3013 C370.181573,50.3013 370.060225,50.3433 369.968839,50.4258 C369.877453,50.5098 369.832509,50.6253 369.832509,50.7723 C369.832509,50.8503 369.842996,50.9163 369.869963,50.9703 C369.896929,51.0243 369.931386,51.0723 369.974831,51.1128 C370.019775,51.1533 370.067715,51.1893 370.118652,51.2208 C370.171086,51.2523 370.223521,51.2808 370.278951,51.3063 L370.660974,51.5028 C370.737378,51.5418 370.810787,51.5868 370.878202,51.6378 C370.947116,51.6888 371.007041,51.7473 371.054981,51.8148 C371.104419,51.8823 371.144869,51.9603 371.171835,52.0503 C371.201798,52.1403 371.215281,52.2438 371.215281,52.3623 C371.215281,52.4883 371.194307,52.6083 371.150861,52.7193 C371.108914,52.8303 371.048989,52.9278 370.96809,53.0118 C370.890187,53.0943 370.792809,53.1603 370.681948,53.2068 C370.569588,53.2548 370.442247,53.2788 370.299925,53.2788 C370.109663,53.2788 369.93588,53.2368 369.774082,53.1513 C369.612285,53.0658 369.471461,52.9503 369.354607,52.8033 L369.55985,52.5183 Z" id="Fill-55" fill="#1A3667" mask="url(#mask-2)"></path>
                <path d="M371.713408,50.8359 L371.993558,50.8359 L372.022022,51.1794 L372.034007,51.1794 C372.120899,51.0639 372.216779,50.9694 372.318652,50.8929 C372.423521,50.8149 372.534382,50.7759 372.654232,50.7759 C372.807041,50.7759 372.92839,50.8164 373.013783,50.8974 C373.100674,50.9769 373.163596,51.0894 373.204045,51.2334 C373.307416,51.0954 373.413783,50.9859 373.518652,50.9019 C373.623521,50.8179 373.738876,50.7759 373.863221,50.7759 C374.066966,50.7759 374.219775,50.8554 374.32015,51.0129 C374.420524,51.1689 374.469963,51.4014 374.469963,51.7089 L374.469963,53.2194 L374.132884,53.2194 L374.132884,51.7629 C374.132884,51.5379 374.102921,51.3744 374.042996,51.2739 C373.983071,51.1749 373.888689,51.1254 373.762846,51.1254 C373.613034,51.1254 373.445243,51.2469 373.262472,51.4929 L373.262472,53.2194 L372.925393,53.2194 L372.925393,51.7629 C372.925393,51.5379 372.895431,51.3744 372.835506,51.2739 C372.774082,51.1749 372.681199,51.1254 372.55236,51.1254 C372.401049,51.1254 372.234757,51.2469 372.050487,51.4929 L372.050487,53.2194 L371.713408,53.2194 L371.713408,50.8359 Z" id="Fill-56" fill="#1A3667" mask="url(#mask-2)"></path>
                <path d="M375.35191,52.57245 C375.35191,52.70895 375.384869,52.80795 375.452285,52.86645 C375.5197,52.92495 375.603596,52.95495 375.700974,52.95495 C375.796854,52.95495 375.88824,52.92795 375.975131,52.87395 C376.062022,52.81995 376.15191,52.74045 376.24779,52.63545 L376.24779,51.97395 C376.08,51.99945 375.940674,52.03095 375.82382,52.06695 C375.708464,52.10295 375.617079,52.14495 375.548165,52.19445 C375.477753,52.24395 375.428315,52.29945 375.396854,52.36395 C375.36839,52.42695 375.35191,52.49745 375.35191,52.57245 M375.019326,52.60245 C375.019326,52.33995 375.118202,52.13895 375.314457,52.00095 C375.507715,51.86145 375.819326,51.76395 376.24779,51.70845 C376.24779,51.63345 376.241798,51.55995 376.229813,51.48795 C376.21633,51.41595 376.193858,51.35295 376.163895,51.29595 C376.132434,51.24045 376.090487,51.19695 376.038052,51.16245 C375.987116,51.12795 375.9197,51.10995 375.837303,51.10995 C375.718951,51.10995 375.611086,51.13695 375.509213,51.18945 C375.410337,51.24045 375.320449,51.30045 375.241049,51.36495 L375.106217,51.08595 C375.197603,51.01395 375.312959,50.94495 375.446292,50.87745 C375.579625,50.80995 375.729438,50.77695 375.889738,50.77695 C376.133933,50.77695 376.310712,50.86545 376.420075,51.04395 C376.529438,51.22245 376.583371,51.46095 376.583371,51.75795 L376.583371,53.22045 L376.306217,53.22045 L376.276255,52.93545 L376.267266,52.93545 C376.172884,53.02995 376.069513,53.11095 375.957154,53.17845 C375.84779,53.24595 375.730936,53.27895 375.606592,53.27895 C375.437303,53.27895 375.296479,53.22045 375.187116,53.10195 C375.074757,52.98345 375.019326,52.81845 375.019326,52.60245" id="Fill-57" fill="#1A3667" mask="url(#mask-2)"></path>
                <path d="M377.220225,49.72695 L377.557303,49.72695 L377.557303,52.76895 C377.557303,52.83345 377.566292,52.87995 377.585768,52.90545 C377.605243,52.93245 377.626217,52.94595 377.651685,52.94595 L377.683146,52.94595 C377.692135,52.94595 377.705618,52.94295 377.726592,52.93545 L377.770037,53.23995 C377.749064,53.25345 377.723596,53.26245 377.692135,53.26845 C377.662172,53.27595 377.624719,53.27895 377.576779,53.27895 C377.44794,53.27895 377.358052,53.23245 377.302622,53.14095 C377.248689,53.04945 377.220225,52.91595 377.220225,52.73895 L377.220225,49.72695 Z" id="Fill-58" fill="#1A3667" mask="url(#mask-2)"></path>
                <path d="M378.267715,49.72695 L378.604794,49.72695 L378.604794,52.76895 C378.604794,52.83345 378.613783,52.87995 378.633258,52.90545 C378.652734,52.93245 378.673708,52.94595 378.699176,52.94595 L378.730637,52.94595 C378.739625,52.94595 378.753109,52.94295 378.774082,52.93545 L378.817528,53.23995 C378.796554,53.25345 378.771086,53.26245 378.739625,53.26845 C378.709663,53.27595 378.67221,53.27895 378.62427,53.27895 C378.495431,53.27895 378.405543,53.23245 378.350112,53.14095 C378.29618,53.04945 378.267715,52.91595 378.267715,52.73895 L378.267715,49.72695 Z" id="Fill-59" fill="#1A3667" mask="url(#mask-2)"></path>
                <path d="M380.987416,52.89615 C381.219625,52.89615 381.399401,52.84515 381.52824,52.74165 C381.657079,52.63815 381.721498,52.47765 381.721498,52.25865 C381.721498,52.05915 381.658577,51.91215 381.532734,51.81915 C381.406891,51.72615 381.225618,51.67965 380.987416,51.67965 L380.52,51.67965 L380.52,52.89615 L380.987416,52.89615 Z M380.917004,51.37515 C381.149213,51.37515 381.317004,51.32865 381.41588,51.23265 C381.516255,51.13815 381.567191,51.00015 381.567191,50.82165 C381.567191,50.64465 381.514757,50.51715 381.40839,50.44065 C381.302022,50.36415 381.143221,50.32515 380.933483,50.32515 L380.52,50.32515 L380.52,51.37515 L380.917004,51.37515 Z M380.178427,50.00115 L380.978427,50.00115 C381.116255,50.00115 381.240599,50.01615 381.354457,50.04615 C381.468315,50.07465 381.565693,50.12115 381.645094,50.18265 C381.727491,50.24565 381.790412,50.32665 381.835356,50.42565 C381.8803,50.52615 381.902772,50.64615 381.902772,50.78715 C381.902772,50.94765 381.865318,51.09165 381.787416,51.22065 C381.711011,51.34965 381.592659,51.43965 381.435356,51.48915 L381.435356,51.50715 C381.633109,51.54465 381.784419,51.62565 381.893783,51.75315 C382.004644,51.88065 382.060075,52.05465 382.060075,52.27815 C382.060075,52.43415 382.034607,52.57215 381.985169,52.69065 C381.93573,52.80765 381.866816,52.90515 381.775431,52.98465 C381.685543,53.06265 381.577678,53.12115 381.451835,53.16165 C381.325993,53.20065 381.186667,53.22015 381.035356,53.22015 L380.178427,53.22015 L380.178427,50.00115 Z" id="Fill-60" fill="#1A3667" mask="url(#mask-2)"></path>
                <path d="M382.532434,50.8359 L382.874007,50.8359 L382.874007,52.2924 C382.874007,52.5189 382.902472,52.6809 382.960899,52.7814 C383.019326,52.8804 383.115206,52.9299 383.247041,52.9299 C383.350412,52.9299 383.441798,52.8984 383.521199,52.8354 C383.600599,52.7709 383.687491,52.6689 383.784869,52.5279 L383.784869,50.8359 L384.121948,50.8359 L384.121948,53.2194 L383.841798,53.2194 L383.813333,52.8474 L383.801348,52.8474 C383.706966,52.9779 383.611086,53.0829 383.506217,53.1609 C383.404345,53.2404 383.282996,53.2779 383.14367,53.2779 C382.930936,53.2779 382.775131,53.1999 382.677753,53.0439 C382.580375,52.8864 382.532434,52.6539 382.532434,52.3464 L382.532434,50.8359 Z" id="Fill-61" fill="#1A3667" mask="url(#mask-2)"></path>
                <path d="M384.741573,52.68015 C384.829963,52.76565 384.918352,52.83465 385.011236,52.88715 C385.101124,52.93815 385.208989,52.96515 385.328839,52.96515 C385.459176,52.96515 385.558052,52.92915 385.62397,52.85715 C385.689888,52.78515 385.722846,52.69665 385.722846,52.59165 C385.722846,52.53015 385.709363,52.47615 385.682397,52.42965 C385.653933,52.38465 385.619476,52.34415 385.577528,52.30965 C385.534082,52.27515 385.486142,52.24515 385.430712,52.21965 C385.376779,52.19265 385.321348,52.16715 385.267416,52.14015 C385.195506,52.11165 385.125094,52.07715 385.053184,52.03965 C384.981273,52.00215 384.918352,51.95715 384.862921,51.90315 C384.805993,51.84915 384.761049,51.78615 384.723596,51.71415 C384.689139,51.64215 384.671161,51.55515 384.671161,51.45465 C384.671161,51.35865 384.68764,51.27015 384.717603,51.18615 C384.750562,51.10365 384.795506,51.03165 384.853933,50.97015 C384.91236,50.91015 384.98427,50.86365 385.069663,50.82915 C385.153558,50.79465 385.250936,50.77665 385.357303,50.77665 C385.483146,50.77665 385.598502,50.80365 385.704869,50.85465 C385.809738,50.90715 385.899625,50.97165 385.977528,51.04665 L385.817228,51.30165 C385.748315,51.24015 385.677903,51.18915 385.602996,51.14865 C385.529588,51.11115 385.450187,51.09015 385.361798,51.09015 C385.235955,51.09015 385.143071,51.12465 385.084644,51.19365 C385.024719,51.26265 384.996255,51.34215 384.996255,51.43365 C384.996255,51.49065 385.00824,51.53865 385.03221,51.57915 C385.057678,51.61965 385.089139,51.65565 385.131086,51.68715 C385.173034,51.71715 385.219476,51.74565 385.27191,51.77115 C385.327341,51.79515 385.382772,51.82065 385.4397,51.84615 C385.51161,51.87915 385.583521,51.91365 385.653933,51.94965 C385.727341,51.98565 385.79176,52.03065 385.850187,52.08465 C385.907116,52.13865 385.955056,52.20465 385.992509,52.28265 C386.028464,52.36215 386.04794,52.45665 386.04794,52.56765 C386.04794,52.66515 386.031461,52.75665 386,52.84215 C385.968539,52.92765 385.922097,53.00265 385.860674,53.06715 C385.799251,53.13315 385.721348,53.18415 385.631461,53.22165 C385.538577,53.26065 385.433708,53.27865 385.316854,53.27865 C385.173034,53.27865 385.038202,53.24715 384.909363,53.18565 C384.780524,53.12265 384.668165,53.04465 384.573783,52.95015 L384.741573,52.68015 Z" id="Fill-62" fill="#1A3667" mask="url(#mask-2)"></path>
                <path d="M386.516854,53.2197 L386.853933,53.2197 L386.853933,50.8362 L386.516854,50.8362 L386.516854,53.2197 Z M386.689139,50.3457 C386.623221,50.3457 386.56779,50.3202 386.521348,50.2707 C386.477903,50.2227 386.455431,50.1612 386.455431,50.0847 C386.455431,50.0067 386.477903,49.9437 386.521348,49.8957 C386.56779,49.8492 386.623221,49.8252 386.689139,49.8252 C386.755056,49.8252 386.810487,49.8492 386.855431,49.8957 C386.900375,49.9437 386.922846,50.0067 386.922846,50.0847 C386.922846,50.1612 386.900375,50.2227 386.855431,50.2707 C386.810487,50.3202 386.755056,50.3457 386.689139,50.3457 Z" id="Fill-63" fill="#1A3667" mask="url(#mask-2)"></path>
                <path d="M387.525693,50.8359 L387.805843,50.8359 L387.834307,51.1794 L387.846292,51.1794 C387.942172,51.0639 388.042547,50.9694 388.148914,50.8929 C388.253783,50.8149 388.375131,50.7759 388.515955,50.7759 C388.727191,50.7759 388.88,50.8554 388.978876,51.0129 C389.074757,51.1689 389.122697,51.4014 389.122697,51.7089 L389.122697,53.2194 L388.787116,53.2194 L388.787116,51.7629 C388.787116,51.5379 388.757154,51.3744 388.69573,51.2739 C388.635805,51.1749 388.541423,51.1254 388.409588,51.1254 C388.306217,51.1254 388.213333,51.1554 388.133933,51.2184 C388.054532,51.2799 387.964644,51.3714 387.862772,51.4929 L387.862772,53.2194 L387.525693,53.2194 L387.525693,50.8359 Z" id="Fill-64" fill="#1A3667" mask="url(#mask-2)"></path>
                <path d="M391.022322,51.85095 C391.022322,51.60495 390.978876,51.41895 390.891985,51.28845 C390.805094,51.16095 390.683745,51.09645 390.529438,51.09645 C390.457528,51.09645 390.390112,51.11295 390.325693,51.14745 C390.261273,51.18195 390.202846,51.22995 390.15191,51.29445 C390.099476,51.35745 390.054532,51.43695 390.021573,51.52995 C389.988614,51.62295 389.964644,51.72945 389.954157,51.85095 L391.022322,51.85095 Z M389.624569,52.03245 C389.624569,51.83595 389.650037,51.66045 389.700974,51.50595 C389.75191,51.34995 389.819326,51.21795 389.903221,51.10995 C389.987116,51.00195 390.081498,50.91945 390.187865,50.86245 C390.29573,50.80545 390.406592,50.77695 390.520449,50.77695 C390.646292,50.77695 390.758652,50.80245 390.860524,50.85495 C390.959401,50.90745 391.043296,50.98245 391.110712,51.08145 C391.178127,51.17895 391.229064,51.29595 391.263521,51.43395 C391.300974,51.57045 391.317453,51.72495 391.317453,51.89445 C391.317453,51.98295 391.312959,52.05795 391.30397,52.11645 L389.958652,52.11645 C389.972135,52.37445 390.038052,52.57845 390.157903,52.72845 C390.276255,52.87995 390.430562,52.95495 390.622322,52.95495 C390.7197,52.95495 390.806592,52.93845 390.887491,52.90395 C390.969888,52.86945 391.04779,52.82445 391.1197,52.76895 L391.239551,53.03295 C391.152659,53.09895 391.053783,53.15595 390.947416,53.20545 C390.841049,53.25495 390.7197,53.27895 390.581873,53.27895 C390.448539,53.27895 390.322697,53.25045 390.205843,53.19345 C390.090487,53.13495 389.990112,53.05395 389.903221,52.94745 C389.81633,52.84095 389.747416,52.71195 389.699476,52.55745 C389.650037,52.40445 389.624569,52.22895 389.624569,52.03245 Z" id="Fill-65" fill="#1A3667" mask="url(#mask-2)"></path>
                <path d="M391.756704,52.68015 C391.845094,52.76565 391.933483,52.83465 392.026367,52.88715 C392.116255,52.93815 392.22412,52.96515 392.34397,52.96515 C392.474307,52.96515 392.573184,52.92915 392.639101,52.85715 C392.705019,52.78515 392.737978,52.69665 392.737978,52.59165 C392.737978,52.53015 392.724494,52.47615 392.697528,52.42965 C392.669064,52.38465 392.634607,52.34415 392.592659,52.30965 C392.549213,52.27515 392.501273,52.24515 392.445843,52.21965 C392.39191,52.19265 392.336479,52.16715 392.282547,52.14015 C392.210637,52.11165 392.140225,52.07715 392.068315,52.03965 C391.996404,52.00215 391.933483,51.95715 391.878052,51.90315 C391.821124,51.84915 391.77618,51.78615 391.738727,51.71415 C391.70427,51.64215 391.686292,51.55515 391.686292,51.45465 C391.686292,51.35865 391.702772,51.27015 391.732734,51.18615 C391.765693,51.10365 391.810637,51.03165 391.869064,50.97015 C391.927491,50.91015 391.999401,50.86365 392.084794,50.82915 C392.168689,50.79465 392.266067,50.77665 392.372434,50.77665 C392.498277,50.77665 392.613633,50.80365 392.72,50.85465 C392.824869,50.90715 392.914757,50.97165 392.992659,51.04665 L392.83236,51.30165 C392.763446,51.24015 392.693034,51.18915 392.618127,51.14865 C392.544719,51.11115 392.465318,51.09015 392.376929,51.09015 C392.251086,51.09015 392.158202,51.12465 392.099775,51.19365 C392.03985,51.26265 392.011386,51.34215 392.011386,51.43365 C392.011386,51.49065 392.023371,51.53865 392.047341,51.57915 C392.072809,51.61965 392.10427,51.65565 392.146217,51.68715 C392.188165,51.71715 392.234607,51.74565 392.287041,51.77115 C392.342472,51.79515 392.397903,51.82065 392.454831,51.84615 C392.526742,51.87915 392.598652,51.91365 392.669064,51.94965 C392.742472,51.98565 392.806891,52.03065 392.865318,52.08465 C392.922247,52.13865 392.970187,52.20465 393.00764,52.28265 C393.043596,52.36215 393.063071,52.45665 393.063071,52.56765 C393.063071,52.66515 393.046592,52.75665 393.015131,52.84215 C392.98367,52.92765 392.937228,53.00265 392.875805,53.06715 C392.814382,53.13315 392.736479,53.18415 392.646592,53.22165 C392.553708,53.26065 392.448839,53.27865 392.331985,53.27865 C392.188165,53.27865 392.053333,53.24715 391.924494,53.18565 C391.795655,53.12265 391.683296,53.04465 391.588914,52.95015 L391.756704,52.68015 Z" id="Fill-66" fill="#1A3667" mask="url(#mask-2)"></path>
                <path d="M393.478652,52.68015 C393.567041,52.76565 393.655431,52.83465 393.748315,52.88715 C393.838202,52.93815 393.946067,52.96515 394.065918,52.96515 C394.196255,52.96515 394.295131,52.92915 394.361049,52.85715 C394.426966,52.78515 394.459925,52.69665 394.459925,52.59165 C394.459925,52.53015 394.446442,52.47615 394.419476,52.42965 C394.391011,52.38465 394.356554,52.34415 394.314607,52.30965 C394.271161,52.27515 394.223221,52.24515 394.16779,52.21965 C394.113858,52.19265 394.058427,52.16715 394.004494,52.14015 C393.932584,52.11165 393.862172,52.07715 393.790262,52.03965 C393.718352,52.00215 393.655431,51.95715 393.6,51.90315 C393.543071,51.84915 393.498127,51.78615 393.460674,51.71415 C393.426217,51.64215 393.40824,51.55515 393.40824,51.45465 C393.40824,51.35865 393.424719,51.27015 393.454682,51.18615 C393.48764,51.10365 393.532584,51.03165 393.591011,50.97015 C393.649438,50.91015 393.721348,50.86365 393.806742,50.82915 C393.890637,50.79465 393.988015,50.77665 394.094382,50.77665 C394.220225,50.77665 394.335581,50.80365 394.441948,50.85465 C394.546816,50.90715 394.636704,50.97165 394.714607,51.04665 L394.554307,51.30165 C394.485393,51.24015 394.414981,51.18915 394.340075,51.14865 C394.266667,51.11115 394.187266,51.09015 394.098876,51.09015 C393.973034,51.09015 393.88015,51.12465 393.821723,51.19365 C393.761798,51.26265 393.733333,51.34215 393.733333,51.43365 C393.733333,51.49065 393.745318,51.53865 393.769288,51.57915 C393.794757,51.61965 393.826217,51.65565 393.868165,51.68715 C393.910112,51.71715 393.956554,51.74565 394.008989,51.77115 C394.064419,51.79515 394.11985,51.82065 394.176779,51.84615 C394.248689,51.87915 394.320599,51.91365 394.391011,51.94965 C394.464419,51.98565 394.528839,52.03065 394.587266,52.08465 C394.644195,52.13865 394.692135,52.20465 394.729588,52.28265 C394.765543,52.36215 394.785019,52.45665 394.785019,52.56765 C394.785019,52.66515 394.768539,52.75665 394.737079,52.84215 C394.705618,52.92765 394.659176,53.00265 394.597753,53.06715 C394.53633,53.13315 394.458427,53.18415 394.368539,53.22165 C394.275655,53.26065 394.170787,53.27865 394.053933,53.27865 C393.910112,53.27865 393.775281,53.24715 393.646442,53.18565 C393.517603,53.12265 393.405243,53.04465 393.310861,52.95015 L393.478652,52.68015 Z" id="Fill-67" fill="#1A3667" mask="url(#mask-2)"></path>
                <path d="M366.998052,57.79755 L366.870712,57.30705 C366.821273,57.12705 366.774831,56.94855 366.729888,56.76855 C366.68794,56.59155 366.644494,56.40855 366.599551,56.22255 L366.583071,56.22255 C366.541124,56.40855 366.499176,56.59155 366.45573,56.76855 C366.410787,56.94855 366.365843,57.12705 366.316404,57.30705 L366.189064,57.79755 L366.998052,57.79755 Z M367.084944,58.12605 L366.102172,58.12605 L365.842996,59.10705 L365.493933,59.10705 L366.406292,55.88955 L366.792809,55.88955 L367.705169,59.10705 L367.339625,59.10705 L367.084944,58.12605 Z" id="Fill-68" fill="#1A3667" mask="url(#mask-2)"></path>
                <path d="M368.259176,57.9147 C368.259176,58.2027 368.305618,58.4262 368.402996,58.5867 C368.497378,58.7472 368.633708,58.8267 368.808989,58.8267 C368.901873,58.8267 368.988764,58.7997 369.071161,58.7472 C369.155056,58.6932 369.235955,58.6092 369.318352,58.4982 L369.318352,57.2532 C369.232959,57.1617 369.15206,57.0972 369.074157,57.0597 C368.996255,57.0207 368.915356,57.0027 368.834457,57.0027 C368.753558,57.0027 368.678652,57.0252 368.609738,57.0687 C368.539326,57.1122 368.477903,57.1752 368.426966,57.2547 C368.374532,57.3357 368.334082,57.4317 368.302622,57.5412 C368.274157,57.6537 368.259176,57.7782 368.259176,57.9147 M367.910112,57.9192 C367.910112,57.7272 367.932584,57.5532 367.980524,57.3972 C368.029963,57.2427 368.092884,57.1107 368.172285,57.0027 C368.251685,56.8947 368.344569,56.8107 368.44794,56.7522 C368.551311,56.6937 368.662172,56.6637 368.77603,56.6637 C368.891386,56.6637 368.990262,56.6892 369.075655,56.7372 C369.161049,56.7867 369.246442,56.8527 369.334831,56.9382 L369.318352,56.5317 L369.318352,55.6137 L369.659925,55.6137 L369.659925,59.1072 L369.379775,59.1072 L369.351311,58.8267 L369.339326,58.8267 C369.259925,58.9182 369.167041,58.9992 369.065169,59.0652 C368.963296,59.1327 368.852434,59.1657 368.734082,59.1657 C368.482397,59.1657 368.283146,59.0577 368.133333,58.8417 C367.983521,58.6272 367.910112,58.3197 367.910112,57.9192" id="Fill-69" fill="#1A3667" mask="url(#mask-2)"></path>
                <path d="M370.332285,56.7231 L370.612434,56.7231 L370.640899,57.0666 L370.652884,57.0666 C370.739775,56.9511 370.835655,56.8566 370.937528,56.7801 C371.042397,56.7021 371.153258,56.6631 371.273109,56.6631 C371.425918,56.6631 371.547266,56.7036 371.632659,56.7846 C371.719551,56.8641 371.782472,56.9766 371.822921,57.1206 C371.926292,56.9826 372.032659,56.8731 372.137528,56.7891 C372.242397,56.7051 372.357753,56.6631 372.482097,56.6631 C372.685843,56.6631 372.838652,56.7426 372.939026,56.9001 C373.039401,57.0561 373.088839,57.2886 373.088839,57.5961 L373.088839,59.1066 L372.75176,59.1066 L372.75176,57.6501 C372.75176,57.4251 372.721798,57.2616 372.661873,57.1611 C372.601948,57.0621 372.507566,57.0126 372.381723,57.0126 C372.23191,57.0126 372.06412,57.1341 371.881348,57.3801 L371.881348,59.1066 L371.54427,59.1066 L371.54427,57.6501 C371.54427,57.4251 371.514307,57.2616 371.454382,57.1611 C371.392959,57.0621 371.300075,57.0126 371.171236,57.0126 C371.019925,57.0126 370.853633,57.1341 370.669363,57.3801 L370.669363,59.1066 L370.332285,59.1066 L370.332285,56.7231 Z" id="Fill-70" fill="#1A3667" mask="url(#mask-2)"></path>
                <path d="M373.737828,59.1072 L374.074906,59.1072 L374.074906,56.7237 L373.737828,56.7237 L373.737828,59.1072 Z M373.910112,56.2317 C373.845693,56.2317 373.788764,56.2077 373.74382,56.1582 C373.700375,56.1087 373.676404,56.0472 373.676404,55.9722 C373.676404,55.8942 373.700375,55.8312 373.74382,55.7832 C373.788764,55.7352 373.845693,55.7127 373.910112,55.7127 C373.97603,55.7127 374.032959,55.7352 374.077903,55.7832 C374.122846,55.8312 374.145318,55.8942 374.145318,55.9722 C374.145318,56.0472 374.122846,56.1087 374.077903,56.1582 C374.032959,56.2077 373.97603,56.2317 373.910112,56.2317 Z" id="Fill-71" fill="#1A3667" mask="url(#mask-2)"></path>
                <path d="M374.747715,56.7231 L375.027865,56.7231 L375.05633,57.0666 L375.068315,57.0666 C375.164195,56.9511 375.264569,56.8566 375.370936,56.7801 C375.475805,56.7021 375.597154,56.6631 375.737978,56.6631 C375.949213,56.6631 376.102022,56.7426 376.200899,56.9001 C376.296779,57.0561 376.344719,57.2886 376.344719,57.5961 L376.344719,59.1066 L376.009139,59.1066 L376.009139,57.6501 C376.009139,57.4251 375.979176,57.2616 375.917753,57.1611 C375.857828,57.0621 375.763446,57.0126 375.63161,57.0126 C375.52824,57.0126 375.435356,57.0426 375.355955,57.1056 C375.276554,57.1671 375.186667,57.2586 375.084794,57.3801 L375.084794,59.1066 L374.747715,59.1066 L374.747715,56.7231 Z" id="Fill-72" fill="#1A3667" mask="url(#mask-2)"></path>
                <path d="M376.994757,59.1072 L377.331835,59.1072 L377.331835,56.7237 L376.994757,56.7237 L376.994757,59.1072 Z M377.167041,56.2317 C377.101124,56.2317 377.045693,56.2077 377.000749,56.1582 C376.957303,56.1087 376.933333,56.0472 376.933333,55.9722 C376.933333,55.8942 376.957303,55.8312 377.000749,55.7832 C377.045693,55.7352 377.101124,55.7127 377.167041,55.7127 C377.232959,55.7127 377.28839,55.7352 377.334831,55.7832 C377.379775,55.8312 377.402247,55.8942 377.402247,55.9722 C377.402247,56.0472 377.379775,56.1087 377.334831,56.1582 C377.28839,56.2077 377.232959,56.2317 377.167041,56.2317 Z" id="Fill-73" fill="#1A3667" mask="url(#mask-2)"></path>
                <path d="M377.95161,58.56735 C378.04,58.65285 378.12839,58.72185 378.221273,58.77435 C378.311161,58.82535 378.419026,58.85235 378.538876,58.85235 C378.669213,58.85235 378.76809,58.81635 378.834007,58.74435 C378.899925,58.67235 378.932884,58.58385 378.932884,58.47885 C378.932884,58.41735 378.919401,58.36335 378.892434,58.31685 C378.86397,58.27185 378.829513,58.23135 378.787566,58.19685 C378.74412,58.16235 378.69618,58.13235 378.640749,58.10685 C378.586816,58.07985 378.531386,58.05435 378.477453,58.02735 C378.405543,57.99885 378.335131,57.96435 378.263221,57.92685 C378.191311,57.88935 378.12839,57.84435 378.072959,57.79035 C378.01603,57.73635 377.971086,57.67335 377.933633,57.60135 C377.899176,57.52935 377.881199,57.44235 377.881199,57.34185 C377.881199,57.24585 377.897678,57.15735 377.92764,57.07335 C377.960599,56.99085 378.005543,56.91885 378.06397,56.85735 C378.122397,56.79735 378.194307,56.75085 378.2797,56.71635 C378.363596,56.68185 378.460974,56.66385 378.567341,56.66385 C378.693184,56.66385 378.808539,56.69085 378.914906,56.74185 C379.019775,56.79435 379.109663,56.85885 379.187566,56.93385 L379.027266,57.18885 C378.958352,57.12735 378.88794,57.07635 378.813034,57.03585 C378.739625,56.99835 378.660225,56.97735 378.571835,56.97735 C378.445993,56.97735 378.353109,57.01185 378.294682,57.08085 C378.234757,57.14985 378.206292,57.22935 378.206292,57.32085 C378.206292,57.37785 378.218277,57.42585 378.242247,57.46635 C378.267715,57.50685 378.299176,57.54285 378.341124,57.57435 C378.383071,57.60435 378.429513,57.63285 378.481948,57.65835 C378.537378,57.68235 378.592809,57.70785 378.649738,57.73335 C378.721648,57.76635 378.793558,57.80085 378.86397,57.83685 C378.937378,57.87285 379.001798,57.91785 379.060225,57.97185 C379.117154,58.02585 379.165094,58.09185 379.202547,58.16985 C379.238502,58.24935 379.257978,58.34385 379.257978,58.45485 C379.257978,58.55235 379.241498,58.64385 379.210037,58.72935 C379.178577,58.81485 379.132135,58.88985 379.070712,58.95435 C379.009288,59.02035 378.931386,59.07135 378.841498,59.10885 C378.748614,59.14785 378.643745,59.16585 378.526891,59.16585 C378.383071,59.16585 378.24824,59.13435 378.119401,59.07285 C377.990562,59.00985 377.878202,58.93185 377.78382,58.83735 L377.95161,58.56735 Z" id="Fill-74" fill="#1A3667" mask="url(#mask-2)"></path>
                <path d="M379.710262,57.05115 L379.413633,57.05115 L379.413633,56.74665 L379.726742,56.72265 L379.767191,56.05515 L380.051835,56.05515 L380.051835,56.72265 L380.588165,56.72265 L380.588165,57.05115 L380.051835,57.05115 L380.051835,58.37565 C380.051835,58.52265 380.072809,58.63665 380.117753,58.71615 C380.164195,58.79715 380.242097,58.83765 380.358951,58.83765 C380.393408,58.83765 380.43236,58.83165 380.474307,58.81815 C380.514757,58.80465 380.55221,58.78965 380.585169,58.77315 L380.649588,59.07765 C380.595655,59.10015 380.53573,59.12115 380.471311,59.13915 C380.406891,59.15715 380.34397,59.16615 380.281049,59.16615 C380.174682,59.16615 380.083296,59.14665 380.011386,59.10765 C379.937978,59.06715 379.879551,59.01465 379.834607,58.94565 C379.789663,58.87665 379.756704,58.79265 379.738727,58.69515 C379.719251,58.59615 379.710262,58.48815 379.710262,58.37115 L379.710262,57.05115 Z" id="Fill-75" fill="#1A3667" mask="url(#mask-2)"></path>
                <path d="M381.037154,56.7231 L381.317303,56.7231 L381.345768,57.1551 L381.357753,57.1551 C381.426667,57.0036 381.509064,56.8851 381.606442,56.7966 C381.702322,56.7081 381.810187,56.6631 381.925543,56.6631 C382.004944,56.6631 382.075356,56.6811 382.138277,56.7126 L382.07236,57.0666 C382.039401,57.0531 382.009438,57.0426 381.982472,57.0366 C381.954007,57.0306 381.921049,57.0276 381.879101,57.0276 C381.795206,57.0276 381.705318,57.0681 381.615431,57.1491 C381.522547,57.2316 381.443146,57.3741 381.374232,57.5766 L381.374232,59.1066 L381.037154,59.1066 L381.037154,56.7231 Z" id="Fill-76" fill="#1A3667" mask="url(#mask-2)"></path>
                <path d="M382.602547,58.45965 C382.602547,58.59615 382.635506,58.69515 382.702921,58.75365 C382.770337,58.81215 382.854232,58.84215 382.95161,58.84215 C383.047491,58.84215 383.138876,58.81515 383.225768,58.76115 C383.312659,58.70715 383.402547,58.62765 383.498427,58.52265 L383.498427,57.86115 C383.330637,57.88665 383.191311,57.91815 383.074457,57.95415 C382.959101,57.99015 382.867715,58.03215 382.798801,58.08165 C382.72839,58.13115 382.678951,58.18665 382.647491,58.25115 C382.619026,58.31415 382.602547,58.38465 382.602547,58.45965 M382.269963,58.48965 C382.269963,58.22715 382.368839,58.02615 382.565094,57.88815 C382.758352,57.74865 383.069963,57.65115 383.498427,57.59565 C383.498427,57.52065 383.492434,57.44715 383.480449,57.37515 C383.466966,57.30315 383.444494,57.24015 383.414532,57.18315 C383.383071,57.12765 383.341124,57.08415 383.288689,57.04965 C383.237753,57.01515 383.170337,56.99715 383.08794,56.99715 C382.969588,56.99715 382.861723,57.02415 382.75985,57.07665 C382.660974,57.12765 382.571086,57.18765 382.491685,57.25215 L382.356854,56.97315 C382.44824,56.90115 382.563596,56.83215 382.696929,56.76465 C382.830262,56.69715 382.980075,56.66415 383.140375,56.66415 C383.384569,56.66415 383.561348,56.75265 383.670712,56.93115 C383.780075,57.10965 383.834007,57.34815 383.834007,57.64515 L383.834007,59.10765 L383.556854,59.10765 L383.526891,58.82265 L383.517903,58.82265 C383.423521,58.91715 383.32015,58.99815 383.20779,59.06565 C383.098427,59.13315 382.981573,59.16615 382.857228,59.16615 C382.68794,59.16615 382.547116,59.10765 382.437753,58.98915 C382.325393,58.87065 382.269963,58.70565 382.269963,58.48965" id="Fill-77" fill="#1A3667" mask="url(#mask-2)"></path>
                <path d="M384.438652,57.05115 L384.142022,57.05115 L384.142022,56.74665 L384.455131,56.72265 L384.495581,56.05515 L384.780225,56.05515 L384.780225,56.72265 L385.316554,56.72265 L385.316554,57.05115 L384.780225,57.05115 L384.780225,58.37565 C384.780225,58.52265 384.801199,58.63665 384.846142,58.71615 C384.892584,58.79715 384.970487,58.83765 385.087341,58.83765 C385.121798,58.83765 385.160749,58.83165 385.202697,58.81815 C385.243146,58.80465 385.280599,58.78965 385.313558,58.77315 L385.377978,59.07765 C385.324045,59.10015 385.26412,59.12115 385.1997,59.13915 C385.135281,59.15715 385.07236,59.16615 385.009438,59.16615 C384.903071,59.16615 384.811685,59.14665 384.739775,59.10765 C384.666367,59.06715 384.60794,59.01465 384.562996,58.94565 C384.518052,58.87665 384.485094,58.79265 384.467116,58.69515 C384.44764,58.59615 384.438652,58.48815 384.438652,58.37115 L384.438652,57.05115 Z" id="Fill-78" fill="#1A3667" mask="url(#mask-2)"></path>
                <path d="M385.769288,59.1072 L386.106367,59.1072 L386.106367,56.7237 L385.769288,56.7237 L385.769288,59.1072 Z M385.941573,56.2317 C385.875655,56.2317 385.820225,56.2077 385.773783,56.1582 C385.730337,56.1087 385.707865,56.0472 385.707865,55.9722 C385.707865,55.8942 385.730337,55.8312 385.773783,55.7832 C385.820225,55.7352 385.875655,55.7127 385.941573,55.7127 C386.007491,55.7127 386.062921,55.7352 386.107865,55.7832 C386.152809,55.8312 386.175281,55.8942 386.175281,55.9722 C386.175281,56.0472 386.152809,56.1087 386.107865,56.1582 C386.062921,56.2077 386.007491,56.2317 385.941573,56.2317 Z" id="Fill-79" fill="#1A3667" mask="url(#mask-2)"></path>
                <path d="M386.981423,57.9198 C386.981423,58.0578 386.994906,58.1808 387.021873,58.2933 C387.050337,58.4043 387.08779,58.5003 387.138727,58.5798 C387.189663,58.6593 387.251086,58.7223 387.322996,58.7658 C387.39191,58.8108 387.471311,58.8318 387.556704,58.8318 C387.640599,58.8318 387.718502,58.8108 387.790412,58.7658 C387.862322,58.7223 387.922247,58.6593 387.973184,58.5798 C388.022622,58.5003 388.063071,58.4043 388.090037,58.2933 C388.117004,58.1808 388.131985,58.0578 388.131985,57.9198 C388.131985,57.7818 388.117004,57.6573 388.090037,57.5448 C388.063071,57.4323 388.022622,57.3348 387.973184,57.2523 C387.922247,57.1713 387.862322,57.1068 387.790412,57.0633 C387.718502,57.0198 387.640599,56.9973 387.556704,56.9973 C387.471311,56.9973 387.39191,57.0198 387.322996,57.0633 C387.251086,57.1068 387.189663,57.1713 387.138727,57.2523 C387.08779,57.3348 387.050337,57.4323 387.021873,57.5448 C386.994906,57.6573 386.981423,57.7818 386.981423,57.9198 M386.63236,57.9198 C386.63236,57.7203 386.65633,57.5433 386.707266,57.3873 C386.7597,57.2328 386.825618,57.1008 386.911011,56.9928 C386.996404,56.8848 387.093783,56.8023 387.204644,56.7468 C387.317004,56.6913 387.433858,56.6643 387.556704,56.6643 C387.679551,56.6643 387.796404,56.6913 387.907266,56.7468 C388.018127,56.8023 388.117004,56.8848 388.200899,56.9928 C388.286292,57.1008 388.353708,57.2328 388.404644,57.3873 C388.454082,57.5433 388.481049,57.7203 388.481049,57.9198 C388.481049,58.1163 388.454082,58.2918 388.404644,58.4478 C388.353708,58.6023 388.286292,58.7328 388.200899,58.8393 C388.117004,58.9458 388.018127,59.0268 387.907266,59.0823 C387.796404,59.1378 387.679551,59.1663 387.556704,59.1663 C387.433858,59.1663 387.317004,59.1378 387.204644,59.0823 C387.093783,59.0268 386.996404,58.9458 386.911011,58.8393 C386.825618,58.7328 386.7597,58.6023 386.707266,58.4478 C386.65633,58.2918 386.63236,58.1163 386.63236,57.9198" id="Fill-80" fill="#1A3667" mask="url(#mask-2)"></path>
                <path d="M389.004794,56.7231 L389.284944,56.7231 L389.313408,57.0666 L389.325393,57.0666 C389.421273,56.9511 389.521648,56.8566 389.628015,56.7801 C389.732884,56.7021 389.854232,56.6631 389.995056,56.6631 C390.206292,56.6631 390.359101,56.7426 390.457978,56.9001 C390.553858,57.0561 390.601798,57.2886 390.601798,57.5961 L390.601798,59.1066 L390.266217,59.1066 L390.266217,57.6501 C390.266217,57.4251 390.236255,57.2616 390.174831,57.1611 C390.114906,57.0621 390.020524,57.0126 389.888689,57.0126 C389.785318,57.0126 389.692434,57.0426 389.613034,57.1056 C389.533633,57.1671 389.443745,57.2586 389.341873,57.3801 L389.341873,59.1066 L389.004794,59.1066 L389.004794,56.7231 Z" id="Fill-81" fill="#1A3667" mask="url(#mask-2)"></path>
                <polygon id="Fill-82" fill="#CA2026" mask="url(#mask-2)" points="392.530637 40.74825 364.060225 40.74825 363.79206 40.74825 363.79206 40.39725 363.79206 35.39325 361.35161 35.39325 361.35161 43.94175 392.545618 43.94175"></polygon>
                <polygon id="Fill-83" fill="#1A3667" mask="url(#mask-2)" points="361.393258 8.5488 363.835206 8.5488 363.835206 3.5433 363.835206 3.1938 364.103371 3.1938 392.305618 3.1938 392.572285 3.1938 392.572285 3.5433 392.572285 8.5488 395.01573 8.5488 395.01573 0.0003 361.393258 0.0003"></polygon>
                <path d="M359.425468,25.9116 C359.446442,27.0231 359.855431,29.1381 362.538577,29.1381 C363.99176,29.1381 365.611236,28.6641 365.611236,26.5491 C365.611236,24.9936 364.505618,24.5751 362.949064,24.0756 L361.371536,23.5731 C358.995506,22.8216 356.703371,22.1001 356.703371,17.7036 C356.703371,15.4791 357.582772,11.5581 362.352809,11.5581 C366.859176,11.5581 368.069663,15.5631 368.089139,18.0111 L365.139326,18.0111 C365.056929,17.1216 364.812734,15.0066 362.129588,15.0066 C360.961049,15.0066 359.570787,15.5916 359.570787,17.3991 C359.570787,18.9576 360.51161,19.2906 361.124345,19.4856 L364.709363,20.6826 C366.716854,21.3486 368.561049,22.4616 368.561049,26.0481 C368.561049,32.0586 364.053184,32.5851 362.764794,32.5851 C357.398502,32.5851 356.475655,28.3866 356.475655,25.9116 L359.425468,25.9116 Z" id="Fill-84" fill="#1A3667" mask="url(#mask-2)"></path>
                <path d="M372.444944,12.08565 L379.868165,12.08565 C383.611985,12.08565 384.570787,15.14565 384.570787,17.20365 C384.570787,20.06865 383.33633,20.87715 382.698127,21.29265 C384.570787,22.21065 385.059176,24.15765 385.059176,26.13315 C385.059176,27.71865 384.548315,29.22015 383.740824,30.24915 C382.867416,31.36215 382.037453,32.05815 378.910861,32.05815 L372.444944,32.05815 L372.444944,12.08565 Z M375.507116,19.90215 L379.252434,19.90215 C380.506367,19.90215 381.507116,19.26315 381.507116,17.67915 C381.507116,16.03515 380.612734,15.53415 379.165543,15.53415 L375.507116,15.53415 L375.507116,19.90215 Z M375.507116,28.60815 L379.421723,28.60815 C380.975281,28.60815 381.868165,27.71865 381.868165,25.68765 C381.868165,23.93565 380.719101,23.26665 379.570037,23.26665 L375.507116,23.26665 L375.507116,28.60815 Z" id="Fill-85" fill="#1A3667" mask="url(#mask-2)"></path>
                <polygon id="Fill-86" fill="#1A3667" mask="url(#mask-2)" points="394.991461 12.08055 392.568989 12.08055 387.719551 32.06505 390.780225 32.06505 393.752509 18.94305 396.772734 32.06505 399.836404 32.06505"></polygon>
                <polygon id="Fill-87" fill="#1A3667" mask="url(#mask-2)" points="394.973933 40.7292 392.545468 43.9422 392.545468 32.1132 394.973933 32.1132"></polygon>
            </g>
        </g>
    </g>
</svg>