<?xml version="1.0" encoding="UTF-8"?>
<svg width="136px" height="37px" viewBox="0 0 136 37" version="1.1" xmlns="http://www.w3.org/2000/svg" xmlns:xlink="http://www.w3.org/1999/xlink">
    <!-- Generator: Sketch 49 (51002) - http://www.bohemiancoding.com/sketch -->
    <title>Page 1 Copy 2</title>
    <desc>Created with Sketch.</desc>
    <defs>
        <polygon id="path-1" points="0 0.126461353 13.4029984 0.126461353 13.4029984 17.8020942 0 17.8020942"></polygon>
        <polygon id="path-3" points="0 37 135.870674 37 135.870674 0.0623816425 0 0.0623816425"></polygon>
    </defs>
    <g id="Page-1" stroke="none" stroke-width="1" fill="none" fill-rule="evenodd">
        <g id="Tablet" transform="translate(-581.000000, -842.000000)">
            <g id="Page-1-Copy-2" transform="translate(581.000000, 842.000000)">
                <polygon id="Fill-1" fill="#CA2026" points="5.44 29.8387097 5.44 37 39.8933333 37 39.8933333 34.3251596 8.43337299 34.3251596 8.13739418 34.3251596 8.13739418 34.0315969 8.13739418 29.8387097"></polygon>
                <polygon id="Fill-2" fill="#213369" points="5.44 0 5.44 7.16129032 8.16194254 7.16129032 8.16194254 2.96840311 8.16194254 2.67501858 8.46063486 2.67501858 39.8947394 2.67501858 40.1932505 2.67501858 40.1932505 2.96840311 40.1932505 7.16129032 42.9155556 7.16129032 42.9155556 0"></polygon>
                <g id="Group-56">
                    <g id="Group-5" transform="translate(0.000000, 9.652174)">
                        <mask id="mask-2" fill="white">
                            <use xlink:href="#path-1"></use>
                        </mask>
                        <g id="Clip-4"></g>
                        <path d="M3.27153952,12.1915 C3.29390557,13.1265097 3.74862175,14.9035821 6.72420796,14.9035821 C8.33708859,14.9035821 10.1319639,14.5060556 10.1319639,12.7282681 C10.1319639,11.4189686 8.90525836,11.0688092 7.17910451,10.6480459 L5.42986313,10.2263889 C2.79427692,9.59506522 0.250319363,8.98805072 0.250319363,5.29251932 C0.250319363,3.4225 1.22703024,0.126461353 6.51966684,0.126461353 C11.5172159,0.126461353 12.8575554,3.49238889 12.8810037,5.55008937 L9.60942812,5.55008937 C9.51816021,4.80222464 9.24579947,3.02515217 6.26985252,3.02515217 C4.97478621,3.02515217 3.43080743,3.51669807 3.43080743,5.03602174 C3.43080743,6.34532126 4.47533793,6.62666425 5.15660053,6.7895 L9.13234589,7.7958285 C11.3584891,8.3569058 13.4029984,9.29120048 13.4029984,12.3067899 C13.4029984,17.3582729 8.40472785,17.8020942 6.97420265,17.8020942 C1.02284987,17.8020942 -3.60742706e-05,14.2720797 -3.60742706e-05,12.1915 L3.27153952,12.1915 Z" id="Fill-3" fill="#213369" mask="url(#mask-2)"></path>
                    </g>
                    <path d="M21.1102483,24.1113092 L25.4516064,24.1113092 C27.1745135,24.1113092 28.1656541,23.363087 28.1656541,21.6557246 C28.1656541,20.1839469 26.8907894,19.6209034 25.6164658,19.6209034 L21.1102483,19.6209034 L21.1102483,24.1113092 Z M21.1102483,16.7928164 L25.2631183,16.7928164 C26.655044,16.7928164 27.7645082,16.2553333 27.7645082,14.9220821 C27.7645082,13.5418213 26.7730069,13.121058 25.1684233,13.121058 L21.1102483,13.121058 L21.1102483,16.7928164 Z M17.7129538,10.2225459 L25.9469061,10.2225459 C30.0999565,10.2225459 31.1612615,12.7946715 31.1612615,14.524913 C31.1612615,16.9325942 29.7929645,17.6118213 29.0850069,17.9618019 C31.1612615,18.7334396 31.7043597,20.3694831 31.7043597,22.0307295 C31.7043597,23.363087 31.1379936,24.6255556 30.2419088,25.4910338 C29.2743968,26.4255072 28.3537814,27.0105362 24.8856011,27.0105362 L17.7129538,27.0105362 L17.7129538,10.2225459 Z" id="Fill-6" fill="#213369"></path>
                    <polygon id="Fill-8" fill="#213369" points="42.7216042 10.2171121 40.0342515 10.2171121 34.6532329 27.0158271 38.0505273 27.0158271 41.3475353 15.9869671 44.6982939 27.0158271 48.0955883 27.0158271"></polygon>
                    <polygon id="Fill-10" fill="#213369" points="42.7015289 34.2998937 40.0082239 37 40.0082239 27.0573671 42.7015289 27.0573671"></polygon>
                    <path d="M57.827182,10.1873512 L58.615044,10.1873512 L58.615044,13.8290807 C58.615044,14.1992594 58.6531024,14.5097377 58.7292191,14.7606942 C58.8051554,15.0112932 58.9081475,15.2123802 59.0378345,15.3627039 C59.1677019,15.513385 59.3208371,15.6213464 59.4986833,15.6874816 C59.6754472,15.7532594 59.8655586,15.7861483 60.0681156,15.7861483 C60.277166,15.7861483 60.469983,15.7532594 60.6474684,15.6874816 C60.8245931,15.6213464 60.9797125,15.513385 61.1126462,15.3627039 C61.2457602,15.2123802 61.3498345,15.0112932 61.4259512,14.7606942 C61.5018875,14.5097377 61.5399459,14.1992594 61.5399459,13.8290807 L61.5399459,10.1873512 L62.2994897,10.1873512 L62.2994897,13.8103126 C62.2994897,14.3057908 62.2424923,14.7229792 62.1288584,15.061699 C62.0148637,15.4004188 61.8583013,15.6746121 61.6584499,15.8851725 C61.4595003,16.0951966 61.2233942,16.2460565 60.9510334,16.3368585 C60.6788531,16.4273029 60.3846674,16.4732401 60.0681156,16.4732401 C59.7515639,16.4732401 59.4555745,16.4273029 59.1805082,16.3368585 C58.9049008,16.2460565 58.6675321,16.0951966 58.4680414,15.8851725 C58.268731,15.6746121 58.1121687,15.4004188 57.998174,15.061699 C57.8839989,14.7229792 57.827182,14.3057908 57.827182,13.8103126 L57.827182,10.1873512 Z" id="Fill-12" fill="#213369"></path>
                    <path d="M62.8788064,15.8896947 C62.8788064,15.7077333 62.9341804,15.562057 63.0449284,15.4523082 C63.1556764,15.3425594 63.2898727,15.2873275 63.4482387,15.2873275 C63.6002918,15.2873275 63.7317825,15.3425594 63.8425305,15.4523082 C63.9532785,15.562057 64.0086525,15.7077333 64.0086525,15.8896947 C64.0086525,16.059144 63.9532785,16.198743 63.8425305,16.3084918 C63.7317825,16.4178831 63.6002918,16.4732937 63.4482387,16.4732937 C63.2898727,16.4732937 63.1556764,16.4178831 63.0449284,16.3084918 C62.9341804,16.198743 62.8788064,16.059144 62.8788064,15.8896947" id="Fill-14" fill="#213369"></path>
                    <path d="M65.3569825,15.0145643 C65.5784785,15.2467527 65.8396562,15.4335401 66.1405156,15.5743903 C66.440834,15.7155981 66.7528764,15.7860232 67.0755607,15.7860232 C67.4871682,15.7860232 67.8069666,15.6934338 68.0347756,15.5084338 C68.262765,15.3236126 68.3763989,15.0805208 68.3763989,14.7795159 C68.3763989,14.6227575 68.3495236,14.4892357 68.2957729,14.379487 C68.2420223,14.2697382 68.169513,14.1755401 68.077704,14.0972502 C67.9855342,14.0186029 67.8764095,13.9481778 67.7499692,13.8850812 C67.6229878,13.8228783 67.4871682,13.7569217 67.3417889,13.6877478 L66.449131,13.3020184 C66.3032106,13.2392792 66.1545846,13.164028 66.0028923,13.0759072 C65.8506589,12.9883227 65.7142981,12.8817913 65.5945316,12.7561343 C65.4738631,12.6308348 65.3759215,12.4817623 65.2999851,12.3089169 C65.2238684,12.1366077 65.1859905,11.9376657 65.1859905,11.7115546 C65.1859905,11.4797237 65.2350515,11.263086 65.3333538,11.0625353 C65.4312955,10.8618058 65.5672955,10.6877092 65.7417146,10.5398879 C65.9157729,10.3929604 66.1213963,10.2782068 66.358765,10.1966995 C66.5961337,10.1151923 66.8573114,10.0742599 67.1419374,10.0742599 C67.5156668,10.0742599 67.8607172,10.144685 68.177269,10.2860715 C68.4938207,10.4272792 68.7627544,10.6108493 68.9842504,10.8364242 L68.5569507,11.3445932 C68.3668393,11.1628106 68.1565263,11.0198155 67.9254706,10.9166802 C67.6945952,10.8131874 67.4334175,10.7611729 67.1419374,10.7611729 C66.7938207,10.7611729 66.5140647,10.8412502 66.301948,11.0010473 C66.0896509,11.1612019 65.9839533,11.3823082 65.9839533,11.6643662 C65.9839533,11.8152261 66.0137146,11.9421343 66.0739586,12.0456271 C66.1338419,12.1492986 66.2148286,12.2402792 66.316017,12.3183903 C66.4173857,12.3970377 66.5279533,12.4662116 66.648261,12.5255546 C66.7685687,12.5854338 66.8921231,12.6403082 67.0185634,12.6901778 L67.9014812,13.0666126 C68.0789666,13.1418638 68.2467119,13.2283758 68.4048976,13.3254338 C68.5630833,13.4228493 68.699444,13.5358155 68.8132584,13.6639749 C68.9272531,13.793028 69.0177995,13.9433517 69.0838154,14.1156609 C69.1503724,14.2885063 69.1839215,14.4874483 69.1839215,14.7135594 C69.1839215,14.9580812 69.1346801,15.1874097 69.0367385,15.4002937 C68.9382557,15.613714 68.7973857,15.8003227 68.6141284,15.9601198 C68.4301496,16.1202744 68.2086536,16.2459314 67.9490992,16.3367333 C67.6897252,16.4273565 67.3955395,16.4732937 67.0661814,16.4732937 C66.629322,16.4732937 66.2243883,16.3912502 65.8506589,16.2284145 C65.4772902,16.0652213 65.1544255,15.8425063 64.8820647,15.5604483 L65.3569825,15.0145643 Z" id="Fill-16" fill="#213369"></path>
                    <path d="M70.028835,15.8896947 C70.028835,15.7077333 70.0843894,15.562057 70.1951374,15.4523082 C70.305705,15.3425594 70.4400817,15.2873275 70.5982674,15.2873275 C70.7505008,15.2873275 70.8818111,15.3425594 70.9925592,15.4523082 C71.1033072,15.562057 71.1586812,15.7077333 71.1586812,15.8896947 C71.1586812,16.059144 71.1033072,16.198743 70.9925592,16.3084918 C70.8818111,16.4178831 70.7505008,16.4732937 70.5982674,16.4732937 C70.4400817,16.4732937 70.305705,16.4178831 70.1951374,16.3084918 C70.0843894,16.198743 70.028835,16.059144 70.028835,15.8896947" id="Fill-18" fill="#213369"></path>
                    <path d="M74.8525422,15.0145643 C75.0740382,15.2467527 75.3352159,15.4335401 75.6360753,15.5743903 C75.936574,15.7155981 76.2484361,15.7860232 76.5711204,15.7860232 C76.9829082,15.7860232 77.3025263,15.6934338 77.5303353,15.5084338 C77.7583247,15.3236126 77.8719586,15.0805208 77.8719586,14.7795159 C77.8719586,14.6227575 77.8452637,14.4892357 77.791513,14.379487 C77.7377623,14.2697382 77.6650727,14.1755401 77.5732637,14.0972502 C77.4810939,14.0186029 77.3719692,13.9481778 77.2457093,13.8850812 C77.1185475,13.8228783 76.9829082,13.7569217 76.8373485,13.6877478 L75.9446907,13.3020184 C75.7987703,13.2392792 75.6501443,13.164028 75.498452,13.0759072 C75.3462186,12.9883227 75.2098578,12.8817913 75.0900912,12.7561343 C74.9694228,12.6308348 74.8714812,12.4817623 74.7955448,12.3089169 C74.7196085,12.1366077 74.6815501,11.9376657 74.6815501,11.7115546 C74.6815501,11.4797237 74.7306111,11.263086 74.8289135,11.0625353 C74.9268552,10.8618058 75.0628552,10.6877092 75.2372743,10.5398879 C75.4113326,10.3929604 75.616956,10.2782068 75.8543247,10.1966995 C76.0918737,10.1151923 76.3528711,10.0742599 76.6376775,10.0742599 C77.0112265,10.0742599 77.3562769,10.144685 77.6728286,10.2860715 C77.9893804,10.4272792 78.2584944,10.6108493 78.4798101,10.8364242 L78.0525103,11.3445932 C77.8623989,11.1628106 77.6520859,11.0198155 77.4212106,10.9166802 C77.1901549,10.8131874 76.9291576,10.7611729 76.6376775,10.7611729 C76.2893804,10.7611729 76.0096244,10.8412502 75.7975077,11.0010473 C75.5852106,11.1612019 75.479513,11.3823082 75.479513,11.6643662 C75.479513,11.8152261 75.5092743,11.9421343 75.5695183,12.0456271 C75.6294016,12.1492986 75.7103883,12.2402792 75.8115767,12.3183903 C75.9129454,12.3970377 76.0236934,12.4662116 76.1438207,12.5255546 C76.2641284,12.5854338 76.3876828,12.6403082 76.5141231,12.6901778 L77.3972212,13.0666126 C77.5745263,13.1418638 77.7422716,13.2283758 77.9004573,13.3254338 C78.058643,13.4228493 78.1951841,13.5358155 78.308818,13.6639749 C78.4228127,13.793028 78.5133592,13.9433517 78.5793751,14.1156609 C78.6459321,14.2885063 78.6794812,14.4874483 78.6794812,14.7135594 C78.6794812,14.9580812 78.6302398,15.1874097 78.5322981,15.4002937 C78.4339958,15.613714 78.2931257,15.8003227 78.1096881,15.9601198 C77.9257093,16.1202744 77.7043936,16.2459314 77.4446589,16.3367333 C77.1852849,16.4273565 76.8910992,16.4732937 76.5617411,16.4732937 C76.1248817,16.4732937 75.719948,16.3912502 75.3462186,16.2284145 C74.9728499,16.0652213 74.6499851,15.8425063 74.3776244,15.5604483 L74.8525422,15.0145643 Z" id="Fill-20" fill="#213369"></path>
                    <path d="M80.0653464,11.7868773 L80.7112562,11.7868773 L80.7778133,12.4457275 L80.8063119,12.4457275 C81.0086886,12.22623 81.2285613,12.0428386 81.4662907,11.8950174 C81.703479,11.7479111 81.9614101,11.6739111 82.2402642,11.6739111 C82.5943332,11.6739111 82.8717443,11.750771 83.0708743,11.9044908 C83.2705454,12.0583894 83.417548,12.2734184 83.5126037,12.5490415 C83.7530387,12.2857517 83.9952775,12.0739401 84.2391395,11.9137855 C84.4824605,11.7541671 84.7468849,11.6739111 85.0315109,11.6739111 C85.5064286,11.6739111 85.859235,11.8245923 86.0906515,12.1255971 C86.3217072,12.4269594 86.4369645,12.8723894 86.4369645,13.4617082 L86.4369645,16.3602203 L85.6584817,16.3602203 L85.6584817,13.5653797 C85.6584817,13.1324618 85.588678,12.8203749 85.4494313,12.6291188 C85.3101846,12.4380415 85.0948212,12.342056 84.8038822,12.342056 C84.4555851,12.342056 84.0695905,12.5771043 83.645357,13.0477372 L83.645357,16.3602203 L82.8666939,16.3602203 L82.8666939,13.5653797 C82.8666939,13.1324618 82.7968902,12.8203749 82.6580042,12.6291188 C82.5183968,12.4380415 82.3001475,12.342056 82.0025347,12.342056 C81.654418,12.342056 81.2684233,12.5771043 80.8443703,13.0477372 L80.8443703,16.3602203 L80.0653464,16.3602203 L80.0653464,11.7868773 Z" id="Fill-22" fill="#213369"></path>
                    <path d="M88.5262419,15.1181643 C88.5262419,15.3814541 88.603982,15.5698502 88.758921,15.6828164 C88.9138599,15.7954251 89.1055947,15.8519082 89.3334037,15.8519082 C89.5547194,15.8519082 89.7655735,15.80043 89.9648838,15.6967585 C90.1643745,15.5932657 90.3746875,15.4413333 90.5967247,15.2402464 L90.5967247,13.969913 C90.2101889,14.0203188 89.8840775,14.0800193 89.6185708,14.1488357 C89.3523427,14.2180097 89.138783,14.2995169 88.977531,14.3933575 C88.8159183,14.4875556 88.7003003,14.5956957 88.6308573,14.7181353 C88.5608732,14.8405749 88.5262419,14.9739179 88.5262419,15.1181643 M87.7571385,15.1746473 C87.7571385,14.6725556 87.9833241,14.2884348 88.4362366,14.0219275 C88.8887883,13.7552415 89.6090111,13.5686329 90.5967247,13.461744 C90.5967247,13.3174976 90.5819342,13.1766473 90.5536159,13.0382995 C90.5251172,12.9006667 90.4742525,12.7782271 90.4013825,12.6715169 C90.3286928,12.5649855 90.2320138,12.4784734 90.1122472,12.4125169 C89.9915788,12.3467391 89.8366398,12.3138502 89.6470695,12.3138502 C89.3747088,12.3138502 89.1230907,12.364256 88.8918546,12.4645314 C88.6606186,12.5649855 88.4535523,12.6779517 88.2701146,12.8032512 L87.9564488,12.2668406 C88.1716318,12.1288502 88.4344329,11.995686 88.744852,11.8668116 C89.0549103,11.7384734 89.3965337,11.6737681 89.7700828,11.6737681 C90.3337432,11.6737681 90.7419236,11.8450048 90.995165,12.186942 C91.248226,12.5288792 91.3750271,12.9850338 91.3750271,13.555942 L91.3750271,16.360256 L90.7292976,16.360256 L90.6627406,15.814372 L90.6436212,15.814372 C90.4223056,15.9965121 90.1834939,16.1516618 89.9271862,16.2803575 C89.6705178,16.4085169 89.3999607,16.4732222 89.1151544,16.4732222 C88.7226663,16.4732222 88.3981782,16.360256 88.1415098,16.1341449 C87.8853825,15.9083913 87.7571385,15.5886184 87.7571385,15.1746473" id="Fill-24" fill="#213369"></path>
                    <path d="M93.0837931,9.66036039 L93.8626366,9.66036039 L93.8626366,15.4945633 C93.8626366,15.6202203 93.8844615,15.7078048 93.9290133,15.7578531 C93.9732042,15.8082589 94.0238886,15.8331043 94.0808859,15.8331043 L94.1519523,15.8331043 C94.1743183,15.8331043 94.2073263,15.8270271 94.2520584,15.8143362 L94.3566737,16.3977565 C94.3056286,16.4227807 94.2453846,16.4415488 94.1759416,16.4544184 C94.1061379,16.4667517 94.017756,16.4731865 93.9098939,16.4731865 C93.6124615,16.4731865 93.4003448,16.3852444 93.2739045,16.2095391 C93.1471034,16.0341913 93.0837931,15.7766213 93.0837931,15.4379014 L93.0837931,9.66036039 Z" id="Fill-26" fill="#213369"></path>
                    <path d="M95.7425029,9.66036039 L96.5213464,9.66036039 L96.5213464,15.4945633 C96.5213464,15.6202203 96.5431714,15.7078048 96.5877231,15.7578531 C96.6319141,15.8082589 96.6825984,15.8331043 96.7395958,15.8331043 L96.8106621,15.8331043 C96.8330281,15.8331043 96.8660361,15.8270271 96.9107682,15.8143362 L97.0153836,16.3977565 C96.9643385,16.4227807 96.9040944,16.4415488 96.8346515,16.4544184 C96.7648477,16.4667517 96.6764658,16.4731865 96.5686037,16.4731865 C96.270991,16.4731865 96.0590546,16.3852444 95.9326143,16.2095391 C95.8058133,16.0341913 95.7425029,15.7766213 95.7425029,15.4379014 L95.7425029,9.66036039 Z" id="Fill-28" fill="#213369"></path>
                    <path d="M102.503272,15.7389778 C103.04132,15.7389778 103.45924,15.6403111 103.756673,15.4429778 C104.054285,15.2451082 104.202911,14.9364174 104.202911,14.5158329 C104.202911,14.1333208 104.057532,13.8523353 103.766232,13.6734126 C103.474933,13.4948473 103.054307,13.4056541 102.503272,13.4056541 L101.420683,13.4056541 L101.420683,15.7389778 L102.503272,15.7389778 Z M102.341659,12.8220551 C102.879888,12.8220551 103.26462,12.7312531 103.495495,12.5489343 C103.726551,12.3671517 103.842169,12.1038618 103.842169,11.7585285 C103.842169,11.4199874 103.720238,11.1767169 103.476556,11.0292531 C103.232694,10.8823256 102.867442,10.8081469 102.379718,10.8081469 L101.420683,10.8081469 L101.420683,12.8220551 L102.341659,12.8220551 Z M100.632641,10.1873691 L102.484514,10.1873691 C102.800885,10.1873691 103.090561,10.2156106 103.353362,10.2717362 C103.615803,10.3282193 103.840545,10.4163401 104.02723,10.5353836 C104.214094,10.6546058 104.359654,10.8097556 104.464089,11.0010116 C104.568705,11.1926251 104.620651,11.4232048 104.620651,11.6927507 C104.620651,12.0001903 104.532269,12.2779585 104.355145,12.5255188 C104.177659,12.7734367 103.905299,12.9444947 103.538423,13.0383353 L103.538423,13.0760502 C103.994402,13.1452242 104.348832,13.3019826 104.601712,13.5465043 C104.854954,13.7913836 104.981935,14.1267072 104.981935,14.5535478 C104.981935,14.8543739 104.924938,15.1182 104.810763,15.3437749 C104.696768,15.569886 104.535697,15.7577459 104.326466,15.9084271 C104.117415,16.059287 103.867421,16.1717169 103.576482,16.2471469 C103.285182,16.3225768 102.965384,16.3602918 102.617447,16.3602918 L100.632641,16.3602918 L100.632641,10.1873691 Z" id="Fill-30" fill="#213369"></path>
                    <path d="M106.121089,11.7868773 L106.909672,11.7868773 L106.909672,14.5817179 C106.909672,15.0146357 106.977311,15.326544 107.113672,15.5178 C107.249672,15.7094135 107.469545,15.8048628 107.773651,15.8048628 C108.014086,15.8048628 108.226203,15.7439111 108.40964,15.6214715 C108.593439,15.4990319 108.795996,15.3033072 109.017492,15.0334039 L109.017492,11.7868773 L109.795975,11.7868773 L109.795975,16.3602203 L109.150606,16.3602203 L109.084049,15.6450657 L109.05555,15.6450657 C108.840187,15.8958435 108.61364,16.0969304 108.376632,16.2472541 C108.139264,16.3977565 107.859327,16.4731865 107.536102,16.4731865 C107.042245,16.4731865 106.683126,16.3225053 106.458383,16.0215005 C106.23364,15.7201382 106.121089,15.2750657 106.121089,14.6853894 L106.121089,11.7868773 Z" id="Fill-32" fill="#213369"></path>
                    <path d="M111.467584,15.3249353 C111.669961,15.4883072 111.877207,15.6202203 112.089324,15.7201382 C112.301441,15.820771 112.546385,15.8708193 112.82542,15.8708193 C113.129165,15.8708193 113.356794,15.8020029 113.508847,15.6640126 C113.6609,15.5260222 113.737016,15.3565729 113.737016,15.1558435 C113.737016,15.0366213 113.705091,14.9331285 113.641961,14.8450077 C113.57829,14.7574232 113.497664,14.6803845 113.399722,14.614428 C113.30142,14.5490077 113.189048,14.4907372 113.062608,14.4405101 C112.935807,14.3904618 112.809186,14.340056 112.682746,14.2901865 C112.517886,14.2337034 112.353388,14.1693556 112.189069,14.0973217 C112.02421,14.0252879 111.877207,13.9371671 111.74734,13.8334957 C111.617473,13.7300029 111.511775,13.6095295 111.429526,13.4711816 C111.346916,13.3335488 111.305971,13.1673169 111.305971,12.9728435 C111.305971,12.7905246 111.342406,12.6198242 111.415096,12.4596696 C111.487786,12.299515 111.592221,12.1620609 111.728221,12.0456986 C111.864581,11.9296937 112.030703,11.8388918 112.227128,11.7729353 C112.423372,11.7069787 112.644688,11.6739111 112.891616,11.6739111 C113.182916,11.6739111 113.450226,11.7241382 113.694088,11.8245923 C113.93777,11.9248676 114.148083,12.0473072 114.325388,12.1915536 L113.955085,12.6807758 C113.7969,12.5617324 113.632401,12.4646744 113.461409,12.3892444 C113.290597,12.3138145 113.103913,12.2762783 112.900995,12.2762783 C112.610056,12.2762783 112.396316,12.3422348 112.260136,12.4739691 C112.124136,12.6055246 112.055955,12.7594232 112.055955,12.9351285 C112.055955,13.0416599 112.084454,13.1340705 112.141451,13.2123604 C112.198629,13.2910077 112.274566,13.3601816 112.369621,13.4195246 C112.464136,13.4794039 112.573802,13.5326696 112.696815,13.5796792 C112.820369,13.6268676 112.948613,13.6751285 113.081547,13.7255343 C113.246046,13.7880947 113.412168,13.8540512 113.579913,13.9228676 C113.747839,13.9920415 113.898268,14.0783749 114.031202,14.1816889 C114.164136,14.2853604 114.273441,14.4122686 114.358756,14.5629498 C114.444433,14.7136309 114.487001,14.8954135 114.487001,15.1088338 C114.487001,15.2966937 114.450566,15.472399 114.377876,15.635771 C114.304645,15.7987855 114.197324,15.9430319 114.054831,16.0686889 C113.912698,16.1939884 113.735213,16.2930126 113.523276,16.3646889 C113.310979,16.4367227 113.068741,16.4731865 112.796921,16.4731865 C112.467563,16.4731865 112.154438,16.413486 111.856825,16.2942638 C111.558852,16.1750415 111.299298,16.0248966 111.077802,15.8425778 L111.467584,15.3249353 Z" id="Fill-34" fill="#213369"></path>
                    <mask id="mask-4" fill="white">
                        <use xlink:href="#path-3"></use>
                    </mask>
                    <g id="Clip-37"></g>
                    <path d="M115.806345,16.360256 L116.585369,16.360256 L116.585369,11.786913 L115.806345,11.786913 L115.806345,16.360256 Z M116.205146,10.8458261 C116.053454,10.8458261 115.92539,10.7986377 115.820775,10.7049758 C115.71634,10.6107778 115.664212,10.4915556 115.664212,10.3471304 C115.664212,10.1968068 115.71634,10.0759758 115.820775,9.98499517 C115.92539,9.89419324 116.053454,9.84825604 116.205146,9.84825604 C116.357379,9.84825604 116.485443,9.89419324 116.589878,9.98499517 C116.694493,10.0759758 116.74644,10.1968068 116.74644,10.3471304 C116.74644,10.4915556 116.694493,10.6107778 116.589878,10.7049758 C116.485443,10.7986377 116.357379,10.8458261 116.205146,10.8458261 Z" id="Fill-36" fill="#213369" mask="url(#mask-4)"></path>
                    <path d="M118.379992,11.7868773 L119.025901,11.7868773 L119.092458,12.4457275 L119.120777,12.4457275 C119.342453,12.22623 119.575132,12.0428386 119.818994,11.8950174 C120.062315,11.7479111 120.345679,11.6739111 120.668543,11.6739111 C121.156087,11.6739111 121.511779,11.8245923 121.736522,12.1255971 C121.961445,12.4269594 122.073816,12.8723894 122.073816,13.4617082 L122.073816,16.3602203 L121.295334,16.3602203 L121.295334,13.5653797 C121.295334,13.1324618 121.22535,12.8203749 121.086283,12.6291188 C120.946856,12.4380415 120.725541,12.342056 120.421795,12.342056 C120.180819,12.342056 119.968883,12.4019353 119.785445,12.5206213 C119.601827,12.640201 119.392777,12.8159063 119.158835,13.0477372 L119.158835,16.3602203 L118.379992,16.3602203 L118.379992,11.7868773 Z" id="Fill-38" fill="#213369" mask="url(#mask-4)"></path>
                    <path d="M126.698394,13.7349005 C126.698394,13.2644464 126.598648,12.905171 126.399158,12.6574319 C126.199847,12.4096928 125.919911,12.2856444 125.558627,12.2856444 C125.394309,12.2856444 125.237566,12.3183546 125.08876,12.3843111 C124.939953,12.4502676 124.805396,12.5444657 124.685089,12.6669053 C124.564781,12.7889874 124.465216,12.9396686 124.386394,13.1185913 C124.30685,13.2971565 124.254362,13.5027121 124.22929,13.7349005 L126.698394,13.7349005 Z M123.469746,14.082915 C123.469746,13.7066589 123.528547,13.3695478 123.645248,13.0715816 C123.762309,12.7734367 123.917608,12.5206928 124.110606,12.313886 C124.303784,12.1067217 124.523837,11.9485333 124.770585,11.8389633 C125.017693,11.7290357 125.274001,11.6738039 125.539508,11.6738039 C125.830807,11.6738039 126.092166,11.7242097 126.323041,11.824485 C126.554097,11.9249391 126.747094,12.0693643 126.902394,12.2574029 C127.057333,12.445799 127.175837,12.6713739 127.258627,12.9350213 C127.341057,13.1984899 127.381821,13.4932386 127.381821,13.8196251 C127.381821,13.9887169 127.372261,14.1299246 127.353683,14.2430696 L124.238669,14.2430696 C124.270595,14.7385478 124.423911,15.1308908 124.699518,15.4192048 C124.974585,15.7078763 125.333884,15.851944 125.777237,15.851944 C125.998733,15.851944 126.202914,15.8192338 126.389598,15.7532773 C126.576282,15.6873208 126.755211,15.6013449 126.926022,15.494456 L127.20163,16.0028039 C126.998712,16.1279246 126.77433,16.2376734 126.527221,16.3318715 C126.280654,16.4260696 125.998733,16.473258 125.682181,16.473258 C125.371943,16.473258 125.082627,16.4178473 124.813693,16.308456 C124.544219,16.198886 124.310277,16.0419488 124.110606,15.8380019 C123.911476,15.6340551 123.754553,15.3847072 123.640919,15.0899585 C123.526744,14.7950309 123.469746,14.4593498 123.469746,14.082915 Z" id="Fill-39" fill="#213369" mask="url(#mask-4)"></path>
                    <path d="M128.635095,15.3249353 C128.837652,15.4883072 129.044718,15.6202203 129.257015,15.7201382 C129.468952,15.820771 129.713896,15.8708193 129.992931,15.8708193 C130.296676,15.8708193 130.524485,15.8020029 130.676358,15.6640126 C130.828591,15.5260222 130.904527,15.3565729 130.904527,15.1558435 C130.904527,15.0366213 130.872782,14.9331285 130.809652,14.8450077 C130.745801,14.7574232 130.665355,14.6803845 130.567413,14.614428 C130.469111,14.5490077 130.356559,14.4907372 130.230299,14.4405101 C130.103318,14.3904618 129.976697,14.340056 129.850437,14.2901865 C129.685578,14.2337034 129.521079,14.1693556 129.35658,14.0973217 C129.191721,14.0252879 129.044718,13.9371671 128.914851,13.8334957 C128.785164,13.7300029 128.679286,13.6095295 128.597037,13.4711816 C128.514427,13.3335488 128.473482,13.1673169 128.473482,12.9728435 C128.473482,12.7905246 128.509917,12.6198242 128.582607,12.4596696 C128.655297,12.299515 128.759912,12.1620609 128.895732,12.0456986 C129.032273,11.9296937 129.198395,11.8388918 129.394639,11.7729353 C129.590883,11.7069787 129.812379,11.6739111 130.059127,11.6739111 C130.350427,11.6739111 130.617737,11.7241382 130.861599,11.8245923 C131.105281,11.9248676 131.315594,12.0473072 131.493079,12.1915536 L131.122777,12.6807758 C130.964411,12.5617324 130.800092,12.4646744 130.62892,12.3892444 C130.458289,12.3138145 130.271424,12.2762783 130.068506,12.2762783 C129.777747,12.2762783 129.564007,12.3422348 129.427827,12.4739691 C129.291827,12.6055246 129.223647,12.7594232 129.223647,12.9351285 C129.223647,13.0416599 129.252145,13.1340705 129.308962,13.2123604 C129.36614,13.2910077 129.442257,13.3601816 129.537132,13.4195246 C129.631827,13.4794039 129.741312,13.5326696 129.864326,13.5796792 C129.98806,13.6268676 130.116124,13.6751285 130.249058,13.7255343 C130.413556,13.7880947 130.579679,13.8540512 130.747604,13.9228676 C130.91535,13.9920415 131.065779,14.0783749 131.198893,14.1816889 C131.331827,14.2853604 131.440952,14.4122686 131.526448,14.5629498 C131.612124,14.7136309 131.654511,14.8954135 131.654511,15.1088338 C131.654511,15.2966937 131.618257,15.472399 131.545567,15.635771 C131.472336,15.7987855 131.365015,15.9430319 131.222342,16.0686889 C131.080209,16.1939884 130.902904,16.2930126 130.690787,16.3646889 C130.478671,16.4367227 130.236432,16.4731865 129.964432,16.4731865 C129.635074,16.4731865 129.321949,16.413486 129.024336,16.2942638 C128.726543,16.1750415 128.466808,16.0248966 128.245493,15.8425778 L128.635095,15.3249353 Z" id="Fill-40" fill="#213369" mask="url(#mask-4)"></path>
                    <path d="M132.851275,15.3249353 C133.053832,15.4883072 133.260899,15.6202203 133.473196,15.7201382 C133.685132,15.820771 133.930076,15.8708193 134.209111,15.8708193 C134.512856,15.8708193 134.740665,15.8020029 134.892538,15.6640126 C135.044771,15.5260222 135.120708,15.3565729 135.120708,15.1558435 C135.120708,15.0366213 135.088962,14.9331285 135.025832,14.8450077 C134.961981,14.7574232 134.881535,14.6803845 134.783594,14.614428 C134.685291,14.5490077 134.57274,14.4907372 134.44648,14.4405101 C134.319498,14.3904618 134.192877,14.340056 134.066618,14.2901865 C133.901758,14.2337034 133.737259,14.1693556 133.572761,14.0973217 C133.407901,14.0252879 133.260899,13.9371671 133.131031,13.8334957 C133.001344,13.7300029 132.895466,13.6095295 132.813217,13.4711816 C132.730607,13.3335488 132.689663,13.1673169 132.689663,12.9728435 C132.689663,12.7905246 132.726098,12.6198242 132.798787,12.4596696 C132.871477,12.299515 132.976092,12.1620609 133.111912,12.0456986 C133.248453,11.9296937 133.414575,11.8388918 133.610819,11.7729353 C133.807063,11.7069787 134.028559,11.6739111 134.275307,11.6739111 C134.566607,11.6739111 134.833917,11.7241382 135.077779,11.8245923 C135.321461,11.9248676 135.531774,12.0473072 135.709259,12.1915536 L135.338957,12.6807758 C135.180591,12.5617324 135.016273,12.4646744 134.8451,12.3892444 C134.674469,12.3138145 134.487604,12.2762783 134.284686,12.2762783 C133.993928,12.2762783 133.780188,12.3422348 133.644007,12.4739691 C133.508007,12.6055246 133.439827,12.7594232 133.439827,12.9351285 C133.439827,13.0416599 133.468326,13.1340705 133.525143,13.2123604 C133.58232,13.2910077 133.658437,13.3601816 133.753312,13.4195246 C133.848007,13.4794039 133.957493,13.5326696 134.080506,13.5796792 C134.204241,13.6268676 134.332305,13.6751285 134.465238,13.7255343 C134.629737,13.7880947 134.795859,13.8540512 134.963785,13.9228676 C135.13153,13.9920415 135.28196,14.0783749 135.414893,14.1816889 C135.548007,14.2853604 135.657132,14.4122686 135.742628,14.5629498 C135.828124,14.7136309 135.870692,14.8954135 135.870692,15.1088338 C135.870692,15.2966937 135.834437,15.472399 135.761747,15.635771 C135.688517,15.7987855 135.581196,15.9430319 135.438522,16.0686889 C135.296389,16.1939884 135.119084,16.2930126 134.906968,16.3646889 C134.694671,16.4367227 134.452612,16.4731865 134.180612,16.4731865 C133.851254,16.4731865 133.538129,16.413486 133.240517,16.2942638 C132.942724,16.1750415 132.682989,16.0248966 132.461673,15.8425778 L132.851275,15.3249353 Z" id="Fill-41" fill="#213369" mask="url(#mask-4)"></path>
                    <path d="M60.5047406,24.4343174 L60.2105549,23.4932304 C60.0965602,23.1480758 59.9892393,22.8048874 59.8878706,22.4625928 C59.7863215,22.121013 59.6849528,21.7708536 59.5837645,21.4133657 L59.5457061,21.4133657 C59.4510111,21.7708536 59.3527088,22.121013 59.2515204,22.4625928 C59.1501517,22.8048874 59.0428308,23.1480758 58.9288361,23.4932304 L58.6341093,24.4343174 L60.5047406,24.4343174 Z M60.7044117,25.0645686 L58.4347989,25.0645686 L57.8366875,26.9465638 L57.0295257,26.9465638 L59.1375257,20.7738198 L60.0300032,20.7738198 L62.1383639,26.9465638 L61.2933241,26.9465638 L60.7044117,25.0645686 Z" id="Fill-42" fill="#213369" mask="url(#mask-4)"></path>
                    <path d="M63.6573613,24.659928 C63.6573613,25.2118894 63.7681093,25.6419473 63.989966,25.9490295 C64.2114621,26.2566478 64.5247671,26.4101889 64.9297008,26.4101889 C65.1448838,26.4101889 65.3478016,26.3585319 65.5375523,26.2548604 C65.7276637,26.1513676 65.917234,25.9931792 66.1073454,25.7799377 L66.1073454,23.3897734 C65.9111013,23.2140681 65.7226133,23.0898411 65.5424223,23.0178072 C65.3618706,22.9457734 65.1768095,22.9096671 64.9866981,22.9096671 C64.8032605,22.9096671 64.6308255,22.9518507 64.4693931,23.0365754 C64.3076,23.1214787 64.16673,23.240701 64.0466027,23.3940633 C63.926295,23.5481406 63.8314196,23.7315319 63.7617963,23.9449522 C63.6919926,24.1581937 63.6573613,24.3966382 63.6573613,24.659928 M62.8501995,24.6694014 C62.8501995,24.299044 62.9057538,23.965329 63.0163215,23.6673628 C63.1272499,23.3692179 63.2742525,23.1164739 63.4582313,22.9096671 C63.641669,22.7025029 63.8536053,22.5428845 64.0942207,22.4297396 C64.3346557,22.3167734 64.5878971,22.2602903 64.8541252,22.2602903 C65.1196318,22.2602903 65.3508679,22.3073 65.5471119,22.4014981 C65.7431756,22.4956961 65.9424859,22.624213 66.1454037,22.7872275 L66.1073454,22.0062952 L66.1073454,20.2467396 L66.8953878,20.2467396 L66.8953878,26.9465995 L66.2500191,26.9465995 L66.1834621,26.4101889 L66.1549634,26.4101889 C65.9709846,26.5857155 65.7606716,26.7381841 65.5234833,26.866701 C65.2857538,26.9948604 65.0308891,27.0595657 64.7588891,27.0595657 C64.1762897,27.0595657 63.7127353,26.8524014 63.3676849,26.4384304 C63.0224541,26.0244594 62.8501995,25.4346043 62.8501995,24.6694014" id="Fill-43" fill="#213369" mask="url(#mask-4)"></path>
                    <path d="M68.4999172,22.3732744 L69.1458271,22.3732744 L69.2123841,23.0323034 L69.2408828,23.0323034 C69.4432594,22.8126271 69.6631321,22.6292357 69.9008615,22.4814145 C70.1380499,22.3343082 70.3959809,22.2603082 70.674835,22.2603082 C71.028904,22.2603082 71.3063151,22.3371681 71.5054451,22.4908879 C71.7051162,22.6447865 71.8521188,22.8598155 71.9469942,23.1354386 C72.1876095,22.8721488 72.4298483,22.6603372 72.6737103,22.5001826 C72.9168509,22.3405643 73.1814557,22.2603082 73.4660817,22.2603082 C73.9409995,22.2603082 74.2938058,22.4109894 74.5252223,22.7119942 C74.756278,23.0133565 74.8715353,23.4589652 74.8715353,24.0481053 L74.8715353,26.9466174 L74.0930525,26.9466174 L74.0930525,24.1517768 C74.0930525,23.7188589 74.0232488,23.4069507 73.8840021,23.2155159 C73.7445751,23.0244386 73.529392,22.9284531 73.2384531,22.9284531 C72.890156,22.9284531 72.5041613,23.1636802 72.0799279,23.6341343 L72.0799279,26.9466174 L71.3012647,26.9466174 L71.3012647,24.1517768 C71.3012647,23.7188589 71.231461,23.4069507 71.0925751,23.2155159 C70.9529676,23.0244386 70.7347183,22.9284531 70.4371056,22.9284531 C70.0889889,22.9284531 69.7028138,23.1636802 69.2789411,23.6341343 L69.2789411,26.9466174 L68.4999172,26.9466174 L68.4999172,22.3732744 Z" id="Fill-44" fill="#213369" mask="url(#mask-4)"></path>
                    <path d="M76.609305,26.9465459 L77.3881485,26.9465459 L77.3881485,22.3732029 L76.609305,22.3732029 L76.609305,26.9465459 Z M77.0079257,21.4322947 C76.8564138,21.4322947 76.7281698,21.3851063 76.6237347,21.2914444 C76.5191194,21.1972464 76.466992,21.0780242 76.466992,20.9334203 C76.466992,20.7830966 76.5191194,20.6624444 76.6237347,20.5714638 C76.7281698,20.4806618 76.8564138,20.4347246 77.0079257,20.4347246 C77.1599788,20.4347246 77.2880424,20.4806618 77.3926578,20.5714638 C77.4970928,20.6624444 77.5492202,20.7830966 77.5492202,20.9334203 C77.5492202,21.0780242 77.4970928,21.1972464 77.3926578,21.2914444 C77.2880424,21.3851063 77.1599788,21.4322947 77.0079257,21.4322947 Z" id="Fill-45" fill="#213369" mask="url(#mask-4)"></path>
                    <path d="M79.1823385,22.3732744 L79.8282483,22.3732744 L79.8948053,23.0323034 L79.9231236,23.0323034 C80.1448,22.8126271 80.377479,22.6292357 80.6213411,22.4814145 C80.8646621,22.3343082 81.1480255,22.2603082 81.4708902,22.2603082 C81.958434,22.2603082 82.3141263,22.4109894 82.538869,22.7119942 C82.763792,23.0133565 82.8761634,23.4589652 82.8761634,24.0481053 L82.8761634,26.9466174 L82.0976806,26.9466174 L82.0976806,24.1517768 C82.0976806,23.7188589 82.0276966,23.4069507 81.8886302,23.2155159 C81.7492032,23.0244386 81.5278875,22.9284531 81.2241422,22.9284531 C80.983166,22.9284531 80.7712297,22.9883324 80.587792,23.1070184 C80.404174,23.2265981 80.1951236,23.4023034 79.961182,23.6341343 L79.961182,26.9466174 L79.1823385,26.9466174 L79.1823385,22.3732744 Z" id="Fill-46" fill="#213369" mask="url(#mask-4)"></path>
                    <path d="M84.6138249,26.9465459 L85.3926684,26.9465459 L85.3926684,22.3732029 L84.6138249,22.3732029 L84.6138249,26.9465459 Z M85.0124456,21.4322947 C84.8609337,21.4322947 84.73287,21.3851063 84.628435,21.2914444 C84.5236393,21.1972464 84.4716923,21.0780242 84.4716923,20.9334203 C84.4716923,20.7830966 84.5236393,20.6624444 84.628435,20.5714638 C84.73287,20.4806618 84.8609337,20.4347246 85.0124456,20.4347246 C85.164679,20.4347246 85.2927427,20.4806618 85.3973581,20.5714638 C85.5017931,20.6624444 85.5539204,20.7830966 85.5539204,20.9334203 C85.5539204,21.0780242 85.5017931,21.1972464 85.3973581,21.2914444 C85.2927427,21.3851063 85.164679,21.4322947 85.0124456,21.4322947 Z" id="Fill-47" fill="#213369" mask="url(#mask-4)"></path>
                    <path d="M87.0638992,25.9114039 C87.2662759,26.0747758 87.4735225,26.2065101 87.6858196,26.306428 C87.897756,26.4072396 88.1427003,26.4572879 88.4217347,26.4572879 C88.7254801,26.4572879 88.9532891,26.3884715 89.1051618,26.2504812 C89.2572149,26.1124908 89.3333316,25.9428628 89.3333316,25.7423121 C89.3333316,25.6230899 89.3014058,25.5194184 89.2382759,25.4314763 C89.1746048,25.3438918 89.0941592,25.2668531 88.9962175,25.2008966 C88.8977347,25.1352976 88.7853634,25.0772058 88.6589231,25.0268 C88.532122,24.9769304 88.4055013,24.9265246 88.279061,24.8764763 C88.1142016,24.820172 87.9498833,24.7558242 87.7853846,24.6836116 C87.6205252,24.6115778 87.4735225,24.5236357 87.3436552,24.4199643 C87.2137878,24.3162928 87.1080902,24.1959981 87.0258408,24.0574715 C86.9432308,23.9200174 86.9022865,23.7537855 86.9022865,23.5591333 C86.9022865,23.3769932 86.9387215,23.2062928 87.0114111,23.0461382 C87.0841008,22.8859836 87.1885358,22.7483507 87.3245358,22.6319884 C87.4608966,22.5161623 87.6270186,22.4253604 87.823443,22.3594039 C88.019687,22.2934473 88.241183,22.260201 88.487931,22.260201 C88.7792308,22.260201 89.0465411,22.3106068 89.2904032,22.4110609 C89.5340849,22.5113362 89.7443979,22.6337758 89.9218833,22.7778435 L89.5515809,23.2672444 C89.3932149,23.1480222 89.2287162,23.0509643 89.0577241,22.975713 C88.8869125,22.9002831 88.7002281,22.8625681 88.4973103,22.8625681 C88.2063714,22.8625681 87.9928117,22.9285246 87.8564509,23.0604377 C87.7206313,23.1918145 87.6524509,23.3458918 87.6524509,23.5214184 C87.6524509,23.6279498 87.6807692,23.7205391 87.7377666,23.798829 C87.7949443,23.8774763 87.871061,23.9466502 87.9659363,24.0059932 C88.0604509,24.0656937 88.1701167,24.1189594 88.29313,24.1659691 C88.4168647,24.2131575 88.5449284,24.2615971 88.6778621,24.3118242 C88.8423607,24.3745633 89.0084828,24.4405198 89.1762281,24.5091575 C89.3441538,24.5783314 89.4945836,24.6648435 89.6275172,24.7681575 C89.7606313,24.8716502 89.869756,24.9985585 89.955252,25.1492396 C90.040748,25.2999208 90.0833156,25.4818821 90.0833156,25.6951237 C90.0833156,25.8831623 90.0468806,26.0588676 89.9743714,26.2222396 C89.9009602,26.3850754 89.7936393,26.5293217 89.6511459,26.6549787 C89.5090133,26.7802783 89.3317082,26.8794812 89.1195915,26.9509787 C88.9072944,27.0231913 88.6652361,27.0596551 88.3932361,27.0596551 C88.063878,27.0596551 87.7507533,26.9997758 87.4531406,26.8805536 C87.1551671,26.7615101 86.8956127,26.6111865 86.6742971,26.4290464 L87.0638992,25.9114039 Z" id="Fill-48" fill="#213369" mask="url(#mask-4)"></path>
                    <path d="M91.5361889,23.0039367 L90.8527618,23.0039367 L90.8527618,22.4203377 L91.5742472,22.373328 L91.6693029,21.0935213 L92.3242313,21.0935213 L92.3242313,22.373328 L93.5686133,22.373328 L93.5686133,23.0039367 L92.3242313,23.0039367 L92.3242313,25.5444246 C92.3242313,25.8266614 92.3767194,26.0449077 92.4807936,26.1984488 C92.585409,26.3523473 92.7706504,26.4290285 93.0366981,26.4290285 C93.1187671,26.4290285 93.2073294,26.4166952 93.3023851,26.3913135 C93.3974408,26.3662894 93.4829369,26.3380478 93.5590536,26.3065889 L93.7107459,26.8900092 C93.5843056,26.9338014 93.4461411,26.9733039 93.2978759,27.0076227 C93.1490695,27.0419415 93.0015257,27.0596372 92.855966,27.0596372 C92.6093984,27.0596372 92.4019714,27.0219222 92.234226,26.946671 C92.0663003,26.8712411 91.9304806,26.7675696 91.8258653,26.6361928 C91.7212499,26.5042797 91.6469369,26.3441251 91.6027459,26.1562652 C91.5581942,25.9678691 91.5361889,25.7610623 91.5361889,25.53513 L91.5361889,23.0039367 Z" id="Fill-49" fill="#213369" mask="url(#mask-4)"></path>
                    <path d="M94.8499894,22.3732744 L95.4957188,22.3732744 L95.5622759,23.2012164 L95.5907745,23.2012164 C95.7485995,22.9130812 95.9405146,22.6837527 96.1652573,22.5146609 C96.39,22.3450329 96.6349443,22.2603082 96.9011724,22.2603082 C97.0847905,22.2603082 97.2491088,22.2917671 97.3950292,22.3545063 L97.2429761,23.0323034 C97.1670398,23.0071005 97.0970557,22.9883324 97.0342865,22.9756415 C96.9706154,22.9629507 96.8916127,22.9568734 96.7967374,22.9568734 C96.600313,22.9568734 96.3961326,23.0355208 96.1841963,23.1919217 C95.9718992,23.3486802 95.7866578,23.621801 95.6288329,24.0105691 L95.6288329,26.9466174 L94.8499894,26.9466174 L94.8499894,22.3732744 Z" id="Fill-50" fill="#213369" mask="url(#mask-4)"></path>
                    <path d="M98.6863979,25.7045614 C98.6863979,25.9678512 98.7641379,26.1562473 98.9188966,26.2692135 C99.0738355,26.382001 99.2657507,26.4383053 99.4933793,26.4383053 C99.7148753,26.4383053 99.9255491,26.3868271 100.124859,26.2831556 C100.32435,26.1796628 100.534663,26.0277304 100.7567,25.8266435 L100.7567,24.5563101 C100.370345,24.6067159 100.044233,24.6664164 99.7785464,24.7352329 C99.5123183,24.8044068 99.2987586,24.885914 99.137687,24.9797546 C98.9758939,25.0739527 98.8602759,25.1820928 98.7908329,25.3045324 C98.7210292,25.426972 98.6863979,25.5604937 98.6863979,25.7045614 M97.9172944,25.7610444 C97.9172944,25.2589527 98.1432997,24.8748319 98.5962122,24.6083246 C99.0487639,24.3416386 99.7689867,24.15503 100.7567,24.0481411 C100.7567,23.9040734 100.74209,23.7632232 100.713592,23.6246966 C100.685093,23.4870638 100.634408,23.3646242 100.561538,23.257914 C100.488849,23.1513826 100.39217,23.0648705 100.272403,22.998914 C100.151735,22.9331362 99.9967958,22.9004261 99.8070451,22.9004261 C99.5346844,22.9004261 99.2830663,22.9506531 99.0520106,23.0509285 C98.8205942,23.1513826 98.6137082,23.2643488 98.4300902,23.3896483 L98.1166048,22.8532377 C98.3317878,22.7152473 98.5945889,22.5820831 98.905008,22.4532087 C99.2148859,22.3250493 99.5565093,22.2601652 99.9302387,22.2601652 C100.493899,22.2601652 100.90208,22.4314019 101.155321,22.7733391 C101.408382,23.1152763 101.535183,23.5714309 101.535183,24.1423391 L101.535183,26.9466531 L100.889273,26.9466531 L100.822716,26.4007691 L100.803597,26.4007691 C100.582281,26.5829092 100.343469,26.7382377 100.087342,26.8667546 C99.8306737,26.994914 99.5599363,27.0596193 99.2753103,27.0596193 C98.8826419,27.0596193 98.5581538,26.9466531 98.3016658,26.720542 C98.0453581,26.4949671 97.9172944,26.1750155 97.9172944,25.7610444" id="Fill-51" fill="#213369" mask="url(#mask-4)"></path>
                    <path d="M103.376937,23.0039367 L102.69351,23.0039367 L102.69351,22.4203377 L103.414995,22.373328 L103.509871,21.0935213 L104.164979,21.0935213 L104.164979,22.373328 L105.409181,22.373328 L105.409181,23.0039367 L104.164979,23.0039367 L104.164979,25.5444246 C104.164979,25.8266614 104.217467,26.0449077 104.321542,26.1984488 C104.425977,26.3523473 104.611218,26.4290285 104.877266,26.4290285 C104.959515,26.4290285 105.048077,26.4166952 105.143133,26.3913135 C105.238008,26.3662894 105.323685,26.3380478 105.399621,26.3065889 L105.551314,26.8900092 C105.424873,26.9338014 105.286889,26.9733039 105.138624,27.0076227 C104.989637,27.0419415 104.842274,27.0596372 104.696714,27.0596372 C104.449966,27.0596372 104.242719,27.0219222 104.074794,26.946671 C103.907048,26.8712411 103.771229,26.7675696 103.666433,26.6361928 C103.561998,26.5042797 103.487685,26.3441251 103.443494,26.1562652 C103.398762,25.9678691 103.376937,25.7610623 103.376937,25.53513 L103.376937,23.0039367 Z" id="Fill-52" fill="#213369" mask="url(#mask-4)"></path>
                    <path d="M106.691098,26.9465459 L107.469942,26.9465459 L107.469942,22.3732029 L106.691098,22.3732029 L106.691098,26.9465459 Z M107.089719,21.4322947 C106.938027,21.4322947 106.809963,21.3851063 106.705528,21.2914444 C106.600912,21.1972464 106.548966,21.0780242 106.548966,20.9334203 C106.548966,20.7830966 106.600912,20.6624444 106.705528,20.5714638 C106.809963,20.4806618 106.938027,20.4347246 107.089719,20.4347246 C107.241952,20.4347246 107.370016,20.4806618 107.474631,20.5714638 C107.579066,20.6624444 107.631194,20.7830966 107.631194,20.9334203 C107.631194,21.0780242 107.579066,21.1972464 107.474631,21.2914444 C107.370016,21.3851063 107.241952,21.4322947 107.089719,21.4322947 Z" id="Fill-53" fill="#213369" mask="url(#mask-4)"></path>
                    <path d="M109.729399,24.6693657 C109.729399,24.9326556 109.761325,25.1714575 109.824455,25.3843415 C109.887766,25.5977618 109.977771,25.7815106 110.095193,25.9352304 C110.212254,26.0885928 110.353124,26.207815 110.517983,26.2927184 C110.682301,26.377443 110.862492,26.4196266 111.058736,26.4196266 C111.255161,26.4196266 111.435712,26.377443 111.600211,26.2927184 C111.764529,26.207815 111.905399,26.0885928 112.023002,25.9352304 C112.139882,25.7815106 112.229888,25.5977618 112.293559,25.3843415 C112.356689,25.1714575 112.388073,24.9326556 112.388073,24.6693657 C112.388073,24.4060758 112.356689,24.1660227 112.293559,23.949385 C112.229888,23.7332836 112.139882,23.5464961 112.023002,23.3897377 C111.905399,23.2328005 111.764529,23.1119696 111.600211,23.0272449 C111.435712,22.9425203 111.255161,22.9003367 111.058736,22.9003367 C110.862492,22.9003367 110.682301,22.9425203 110.517983,23.0272449 C110.353124,23.1119696 110.212254,23.2328005 110.095193,23.3897377 C109.977771,23.5464961 109.887766,23.7332836 109.824455,23.949385 C109.761325,24.1660227 109.729399,24.4060758 109.729399,24.6693657 M108.922418,24.6693657 C108.922418,24.2868536 108.981219,23.9467039 109.0981,23.6485589 C109.21498,23.350414 109.372084,23.0980275 109.568328,22.8908633 C109.764211,22.683699 109.990577,22.5272981 110.247246,22.4204092 C110.503553,22.3138778 110.77411,22.2602546 111.058736,22.2602546 C111.343903,22.2602546 111.614641,22.3138778 111.870768,22.4204092 C112.127437,22.5272981 112.353442,22.683699 112.549866,22.8908633 C112.74611,23.0980275 112.902673,23.350414 113.019914,23.6485589 C113.136975,23.9467039 113.195776,24.2868536 113.195776,24.6693657 C113.195776,25.0456217 113.136975,25.3830903 113.019914,25.6808778 C112.902673,25.9790227 112.74611,26.2299792 112.549866,26.4339261 C112.353442,26.6378729 112.127437,26.7930227 111.870768,26.8995541 C111.614641,27.0059068 111.343903,27.0597087 111.058736,27.0597087 C110.77411,27.0597087 110.503553,27.0059068 110.247246,26.8995541 C109.990577,26.7930227 109.764211,26.6378729 109.568328,26.4339261 C109.372084,26.2299792 109.21498,25.9790227 109.0981,25.6808778 C108.981219,25.3830903 108.922418,25.0456217 108.922418,24.6693657" id="Fill-54" fill="#213369" mask="url(#mask-4)"></path>
                    <path d="M114.457979,22.3732744 L115.103889,22.3732744 L115.170446,23.0323034 L115.198944,23.0323034 C115.42044,22.8126271 115.653119,22.6292357 115.896981,22.4814145 C116.140302,22.3343082 116.423666,22.2603082 116.746531,22.2603082 C117.234255,22.2603082 117.589947,22.4109894 117.81469,22.7119942 C118.039432,23.0133565 118.151804,23.4589652 118.151804,24.0481053 L118.151804,26.9466174 L117.373321,26.9466174 L117.373321,24.1517768 C117.373321,23.7188589 117.303517,23.4069507 117.164271,23.2155159 C117.025024,23.0244386 116.803528,22.9284531 116.499782,22.9284531 C116.258806,22.9284531 116.04705,22.9883324 115.863432,23.1070184 C115.679995,23.2265981 115.470764,23.4023034 115.237003,23.6341343 L115.237003,26.9466174 L114.457979,26.9466174 L114.457979,22.3732744 Z" id="Fill-55" fill="#213369" mask="url(#mask-4)"></path>
                </g>
            </g>
        </g>
    </g>
</svg>