<?xml version="1.0" encoding="UTF-8"?>
<svg width="194px" height="53px" viewBox="0 0 194 53" version="1.1" xmlns="http://www.w3.org/2000/svg" xmlns:xlink="http://www.w3.org/1999/xlink">
    <!-- Generator: Sketch 49 (51002) - http://www.bohemiancoding.com/sketch -->
    <title>Page 1</title>
    <desc>Created with Sketch.</desc>
    <defs>
        <polygon id="path-1" points="0 0.181147343 19.118983 0.181147343 19.118983 25.5002971 0 25.5002971"></polygon>
        <polygon id="path-3" points="0 53 193.81552 53 193.81552 0.0893574879 0 0.0893574879"></polygon>
    </defs>
    <g id="Page-1" stroke="none" stroke-width="1" fill="none" fill-rule="evenodd">
        <g id="Tablet" transform="translate(-523.000000, -551.000000)">
            <g id="Page-1" transform="translate(523.000000, 551.000000)">
                <polygon id="Fill-1" fill="#CA2026" points="7.76 42.7419355 7.76 53 56.9066667 53 56.9066667 49.1684718 12.0299585 49.1684718 11.6077535 49.1684718 11.6077535 48.7479631 11.6077535 42.7419355"></polygon>
                <polygon id="Fill-2" fill="#213369" points="7.76 0 7.76 10.2580645 11.642771 10.2580645 11.642771 4.25203689 11.642771 3.83178336 12.0688468 3.83178336 56.9086724 3.83178336 57.3344897 3.83178336 57.3344897 4.25203689 57.3344897 10.2580645 61.2177778 10.2580645 61.2177778 0"></polygon>
                <g id="Group-56">
                    <g id="Group-5" transform="translate(0.000000, 13.826087)">
                        <mask id="mask-2" fill="white">
                            <use xlink:href="#path-1"></use>
                        </mask>
                        <g id="Clip-4"></g>
                        <path d="M4.66675491,17.4635 C4.69865942,18.8028382 5.34729867,21.3483744 9.59188488,21.3483744 C11.8926117,21.3483744 14.4529485,20.7789444 14.4529485,18.2323841 C14.4529485,16.356901 12.7030891,15.8553213 10.2407814,15.2526063 L7.74554005,14.6486111 C3.98595385,13.7442826 0.35707321,12.8747754 0.35707321,7.58117633 C0.35707321,4.9025 1.75032255,0.181147343 9.300113,0.181147343 C16.4289698,0.181147343 18.3409247,5.00261111 18.3743729,7.95012802 L13.7075666,7.95012802 C13.5773756,6.87886232 13.188861,4.33332609 8.94376021,4.33332609 C7.09638621,4.33332609 4.89394589,5.03743237 4.89394589,7.21376087 C4.89394589,9.08924396 6.38393793,9.49224879 7.35573899,9.7255 L13.0270228,11.1669976 C16.2025507,11.9707029 19.118983,13.3090169 19.118983,17.6286449 C19.118983,24.8645531 11.9890971,25.5002971 9.94849496,25.5002971 C1.45906525,25.5002971 -5.14588859e-05,20.4437899 -5.14588859e-05,17.4635 L4.66675491,17.4635 Z" id="Fill-3" fill="#213369" mask="url(#mask-2)"></path>
                    </g>
                    <path d="M30.1131483,34.5378213 L36.3059679,34.5378213 C38.7636443,34.5378213 40.1774772,33.4660435 40.1774772,31.0203623 C40.1774772,28.9121401 38.3589202,28.1056184 36.541135,28.1056184 L30.1131483,28.1056184 L30.1131483,34.5378213 Z M30.1131483,24.0545749 L36.0370952,24.0545749 C38.0226363,24.0545749 39.6052544,23.2846667 39.6052544,21.3748744 C39.6052544,19.397744 38.1909069,18.795029 35.9020156,18.795029 L30.1131483,18.795029 L30.1131483,24.0545749 Z M25.2670077,14.6431063 L37.0124984,14.6431063 C42.9367027,14.6431063 44.4506231,18.3275024 44.4506231,20.8059565 C44.4506231,24.2547971 42.4987875,25.227744 41.4889069,25.7290676 C44.4506231,26.8343865 45.2253366,29.1779082 45.2253366,31.5575314 C45.2253366,33.4660435 44.4174321,35.2744444 43.1391934,36.5141836 C41.759066,37.8527536 40.4458353,38.6907681 35.498578,38.6907681 L25.2670077,38.6907681 L25.2670077,14.6431063 Z" id="Fill-6" fill="#213369"></path>
                    <polygon id="Fill-8" fill="#213369" points="60.9411119 14.6353227 57.1076822 14.6353227 49.4318175 38.6983469 54.2779581 38.6983469 58.981043 22.9002502 63.7608016 38.6983469 68.6069422 38.6983469"></polygon>
                    <polygon id="Fill-10" fill="#213369" points="60.9124751 49.1322802 57.0705546 53 57.0705546 38.7578502 60.9124751 38.7578502"></polygon>
                    <path d="M82.4887743,14.5926923 L83.6126363,14.5926923 L83.6126363,19.8092237 C83.6126363,20.3394797 83.6669255,20.7842188 83.7755037,21.1436971 C83.8838247,21.5026633 84.0307398,21.7907068 84.2157345,22.0060353 C84.4009865,22.2218758 84.6194294,22.3765232 84.8731218,22.4712575 C85.1252703,22.5654797 85.3964586,22.6125908 85.6854003,22.6125908 C85.9836045,22.6125908 86.2586523,22.5654797 86.51183,22.4712575 C86.7644931,22.3765232 86.9857663,22.2218758 87.1753923,22.0060353 C87.3652756,21.7907068 87.5137345,21.5026633 87.6223127,21.1436971 C87.7306337,20.7842188 87.7849228,20.3394797 87.7849228,19.8092237 L87.7849228,14.5926923 L88.8683897,14.5926923 L88.8683897,19.7823396 C88.8683897,20.4920787 88.7870846,21.0896729 88.6249891,21.5748662 C88.462379,22.0600594 88.2390475,22.4528227 87.9539653,22.7544362 C87.6701695,23.0552816 87.3333711,23.2713783 86.9448565,23.4014459 C86.5565992,23.5310014 86.136952,23.5968034 85.6854003,23.5968034 C85.2338485,23.5968034 84.8116284,23.5310014 84.4192544,23.4014459 C84.0261085,23.2713783 83.687509,23.0552816 83.4029414,22.7544362 C83.118631,22.4528227 82.8952995,22.0600594 82.7326894,21.5748662 C82.569822,21.0896729 82.4887743,20.4920787 82.4887743,19.7823396 L82.4887743,14.5926923 Z" id="Fill-12" fill="#213369"></path>
                    <path d="M89.6947679,22.760914 C89.6947679,22.5002667 89.7737573,22.2915952 89.9317361,22.1343874 C90.0897149,21.9771797 90.2811419,21.8980638 90.5070464,21.8980638 C90.7239456,21.8980638 90.9115133,21.9771797 91.069492,22.1343874 C91.2274708,22.2915952 91.3064602,22.5002667 91.3064602,22.760914 C91.3064602,23.0036386 91.2274708,23.2036048 91.069492,23.3608126 C90.9115133,23.5175082 90.7239456,23.5968802 90.5070464,23.5968802 C90.2811419,23.5968802 90.0897149,23.5175082 89.9317361,23.3608126 C89.7737573,23.2036048 89.6947679,23.0036386 89.6947679,22.760914" id="Fill-14" fill="#213369"></path>
                    <path d="M93.2298133,21.5073488 C93.5457708,21.839943 93.9183332,22.1075034 94.3475003,22.3092618 C94.7758955,22.5115324 95.2210149,22.6124116 95.6813146,22.6124116 C96.2684605,22.6124116 96.7246435,22.4797836 97.0496064,22.2147836 C97.3748265,21.9500396 97.536922,21.6018271 97.536922,21.170658 C97.536922,20.9461121 97.4985851,20.7548512 97.4219114,20.5976435 C97.3452377,20.4404357 97.2418053,20.3055034 97.1108424,20.1933585 C96.979365,20.0807014 96.8237019,19.9798222 96.6433385,19.8894406 C96.4622032,19.8003391 96.2684605,19.7058609 96.0610812,19.6067739 L94.787731,19.0542425 C94.5795798,18.9643729 94.3675692,18.8565807 94.1511846,18.7303536 C93.9340281,18.6048947 93.7395135,18.4522957 93.56867,18.2723005 C93.3965401,18.0928174 93.2568292,17.8792812 93.1485082,17.6316918 C93.03993,17.3848705 92.9858981,17.0998995 92.9858981,16.7760106 C92.9858981,16.4439285 93.0558822,16.1336097 93.1961077,15.8463343 C93.3358186,15.5588029 93.5298186,15.3094213 93.7786223,15.0976773 C94.0269114,14.8872135 94.3202271,14.7228367 94.6588265,14.6060831 C94.997426,14.4893295 95.3699883,14.4306966 95.7759989,14.4306966 C96.309113,14.4306966 96.8013172,14.5315758 97.252869,14.7341024 C97.7044207,14.9363729 98.0880467,15.1993246 98.4040042,15.5224454 L97.7944737,16.2503633 C97.5232854,15.989972 97.2232801,15.7851411 96.8936859,15.6374068 C96.5643491,15.4891604 96.1917867,15.4146531 95.7759989,15.4146531 C95.2794207,15.4146531 94.880357,15.5293585 94.5777788,15.758257 C94.2749432,15.9876676 94.1241687,16.3043874 94.1241687,16.7084164 C94.1241687,16.924513 94.1666223,17.1063005 94.2525586,17.2545469 C94.3379804,17.4030493 94.4535056,17.5333729 94.5978477,17.6452618 C94.7424472,17.7579188 94.9001687,17.8570058 95.0717841,17.9420106 C95.2433995,18.0277836 95.4196462,18.1063874 95.6000095,18.1778222 L96.8594658,18.7170396 C97.1126435,18.8248319 97.3519273,18.9487546 97.5775745,19.0877836 C97.8032218,19.2273246 97.9977363,19.3891411 98.1600891,19.5727208 C98.3226992,19.7575807 98.451861,19.9729092 98.5460308,20.2197304 C98.6409724,20.4673198 98.6888292,20.7522908 98.6888292,21.0761797 C98.6888292,21.4264406 98.6185878,21.7549382 98.4788769,22.0598802 C98.3383942,22.3655903 98.1374472,22.6328947 97.8760361,22.8617932 C97.6135958,23.0912039 97.2976382,23.271199 96.9273915,23.4012667 C96.5574021,23.5310783 96.1377549,23.5968802 95.6679353,23.5968802 C95.0447682,23.5968802 94.4671422,23.4793585 93.9340281,23.2461072 C93.4014286,23.012344 92.9408716,22.6933198 92.552357,22.2892908 L93.2298133,21.5073488 Z" id="Fill-16" fill="#213369"></path>
                    <path d="M99.8940735,22.760914 C99.8940735,22.5002667 99.9733202,22.2915952 100.131299,22.1343874 C100.28902,21.9771797 100.480705,21.8980638 100.706352,21.8980638 C100.923508,21.8980638 101.110819,21.9771797 101.268798,22.1343874 C101.426776,22.2915952 101.505766,22.5002667 101.505766,22.760914 C101.505766,23.0036386 101.426776,23.2036048 101.268798,23.3608126 C101.110819,23.5175082 100.923508,23.5968802 100.706352,23.5968802 C100.480705,23.5968802 100.28902,23.5175082 100.131299,23.3608126 C99.9733202,23.2036048 99.8940735,23.0036386 99.8940735,22.760914" id="Fill-18" fill="#213369"></path>
                    <path d="M106.77495,21.5073488 C107.090907,21.839943 107.46347,22.1075034 107.892637,22.3092618 C108.321289,22.5115324 108.766151,22.6124116 109.226451,22.6124116 C109.813854,22.6124116 110.26978,22.4797836 110.594743,22.2147836 C110.919963,21.9500396 111.082059,21.6018271 111.082059,21.170658 C111.082059,20.9461121 111.043979,20.7548512 110.967305,20.5976435 C110.890632,20.4404357 110.786942,20.3055034 110.655979,20.1933585 C110.524502,20.0807014 110.368838,19.9798222 110.188732,19.8894406 C110.00734,19.8003391 109.813854,19.7058609 109.606218,19.6067739 L108.332868,19.0542425 C108.124716,18.9643729 107.912706,18.8565807 107.696321,18.7303536 C107.479165,18.6048947 107.28465,18.4522957 107.113807,18.2723005 C106.941677,18.0928174 106.801966,17.8792812 106.693645,17.6316918 C106.585324,17.3848705 106.531035,17.0998995 106.531035,16.7760106 C106.531035,16.4439285 106.601019,16.1336097 106.741244,15.8463343 C106.880955,15.5588029 107.074955,15.3094213 107.323759,15.0976773 C107.572048,14.8872135 107.865364,14.7228367 108.203963,14.6060831 C108.54282,14.4893295 108.915125,14.4306966 109.321393,14.4306966 C109.85425,14.4306966 110.346454,14.5315758 110.798006,14.7341024 C111.249557,14.9363729 111.633441,15.1993246 111.949141,15.5224454 L111.33961,16.2503633 C111.068422,15.989972 110.768417,15.7851411 110.43908,15.6374068 C110.109486,15.4891604 109.737181,15.4146531 109.321393,15.4146531 C108.824557,15.4146531 108.425494,15.5293585 108.122915,15.758257 C107.82008,15.9876676 107.669305,16.3043874 107.669305,16.7084164 C107.669305,16.924513 107.711759,17.1063005 107.797695,17.2545469 C107.883117,17.4030493 107.998642,17.5333729 108.142984,17.6452618 C108.287584,17.7579188 108.445563,17.8570058 108.616921,17.9420106 C108.788536,18.0277836 108.964783,18.1063874 109.145146,18.1778222 L110.40486,18.7170396 C110.65778,18.8248319 110.897064,18.9487546 111.122711,19.0877836 C111.348358,19.2273246 111.54313,19.3891411 111.705226,19.5727208 C111.867836,19.7575807 111.996998,19.9729092 112.091167,20.2197304 C112.186109,20.4673198 112.233966,20.7522908 112.233966,21.0761797 C112.233966,21.4264406 112.163724,21.7549382 112.024014,22.0598802 C111.883788,22.3655903 111.682841,22.6328947 111.421173,22.8617932 C111.158732,23.0912039 110.843032,23.271199 110.472528,23.4012667 C110.102539,23.5310783 109.682892,23.5968802 109.213072,23.5968802 C108.589905,23.5968802 108.012279,23.4793585 107.479165,23.2461072 C106.946565,23.012344 106.486008,22.6933198 106.097494,22.2892908 L106.77495,21.5073488 Z" id="Fill-20" fill="#213369"></path>
                    <path d="M114.210862,16.8839053 L115.132233,16.8839053 L115.227175,17.8276638 L115.267827,17.8276638 C115.556512,17.5132483 115.870154,17.2505527 116.209268,17.0388087 C116.54761,16.8280889 116.915541,16.7220889 117.313318,16.7220889 C117.818387,16.7220889 118.214106,16.8321855 118.498159,17.0523787 C118.782984,17.272828 118.992679,17.5808425 119.128273,17.9756541 C119.471246,17.5985092 119.816793,17.2951034 120.164655,17.0656928 C120.511745,16.8370502 120.888939,16.7220889 121.294949,16.7220889 C121.972406,16.7220889 122.475673,16.9379295 122.805782,17.3690986 C123.135376,17.8007797 123.299788,18.438828 123.299788,19.2829874 L123.299788,23.4349101 L122.189305,23.4349101 L122.189305,19.4314899 C122.189305,18.8113643 122.089732,18.3643208 121.891101,18.0903594 C121.692469,17.8166541 121.38526,17.6791614 120.970244,17.6791614 C120.473408,17.6791614 119.922798,18.0158522 119.317642,18.6900019 L119.317642,23.4349101 L118.206902,23.4349101 L118.206902,19.4314899 C118.206902,18.8113643 118.107329,18.3643208 117.909212,18.0903594 C117.710066,17.8166541 117.39874,17.6791614 116.974204,17.6791614 C116.477626,17.6791614 115.927016,18.0158522 115.322116,18.6900019 L115.322116,23.4349101 L114.210862,23.4349101 L114.210862,16.8839053 Z" id="Fill-22" fill="#213369"></path>
                    <path d="M126.28008,21.6557488 C126.28008,22.0328937 126.390974,22.3027585 126.61199,22.4645749 C126.833006,22.6258792 127.10651,22.7067874 127.431473,22.7067874 C127.747173,22.7067874 128.04795,22.6330483 128.332261,22.4845459 C128.616828,22.3362995 128.916834,22.1186667 129.233563,21.8306232 L129.233563,20.0109565 C128.682181,20.0831594 128.216993,20.1686763 127.838255,20.2672512 C127.458489,20.3663382 127.153852,20.4830918 126.923831,20.6175121 C126.693295,20.7524444 126.528369,20.9073478 126.429311,21.0827343 C126.329481,21.2581208 126.28008,21.4491256 126.28008,21.6557488 M125.182977,21.736657 C125.182977,21.0174444 125.505624,20.4672174 126.15169,20.0854638 C126.797242,19.7034541 127.824619,19.4361498 129.233563,19.2830386 C129.233563,19.0764155 129.212465,18.874657 129.17207,18.6764831 C129.131417,18.4793333 129.05886,18.3039469 128.954913,18.1510918 C128.851224,17.9984928 128.713314,17.87457 128.54247,17.7800918 C128.37034,17.6858696 128.149324,17.6387585 127.878908,17.6387585 C127.490393,17.6387585 127.131468,17.7109614 126.801616,17.854599 C126.471765,17.9984928 126.176391,18.1603092 125.914722,18.3397923 L125.467287,17.5714203 C125.77424,17.3737585 126.149118,17.1830097 126.591921,16.9984058 C127.03421,16.81457 127.521526,16.7218841 128.054383,16.7218841 C128.858428,16.7218841 129.440685,16.9671691 129.801927,17.456971 C130.162911,17.9467729 130.343789,18.6001836 130.343789,19.417971 L130.343789,23.4349614 L129.422675,23.4349614 L129.327733,22.6530193 L129.30046,22.6530193 C128.984759,22.9139227 128.644102,23.1361643 128.278486,23.3205121 C127.912356,23.5040918 127.526415,23.5967778 127.120147,23.5967778 C126.560274,23.5967778 126.097401,23.4349614 125.731271,23.1110725 C125.365913,22.7876957 125.182977,22.3296425 125.182977,21.736657" id="Fill-24" fill="#213369"></path>
                    <path d="M132.781293,13.8378135 L133.89229,13.8378135 L133.89229,22.194915 C133.89229,22.3749101 133.923423,22.5003691 133.986975,22.5720599 C134.050012,22.6442628 134.122312,22.6798522 134.203617,22.6798522 L134.304991,22.6798522 C134.336895,22.6798522 134.38398,22.6711469 134.447789,22.6529681 L134.59702,23.4886783 C134.524206,23.5245237 134.438269,23.5514077 134.339211,23.5698425 C134.239638,23.5875092 134.113564,23.5967266 133.959702,23.5967266 C133.535423,23.5967266 133.232845,23.4707556 133.052481,23.2190696 C132.871603,22.9678957 132.781293,22.598944 132.781293,22.1137507 L132.781293,13.8378135 Z" id="Fill-26" fill="#213369"></path>
                    <path d="M136.573864,13.8378135 L137.684862,13.8378135 L137.684862,22.194915 C137.684862,22.3749101 137.715994,22.5003691 137.779546,22.5720599 C137.842583,22.6442628 137.914883,22.6798522 137.996188,22.6798522 L138.097562,22.6798522 C138.129467,22.6798522 138.176551,22.6711469 138.24036,22.6529681 L138.389591,23.4886783 C138.316777,23.5245237 138.230841,23.5514077 138.131782,23.5698425 C138.032209,23.5875092 137.906135,23.5967266 137.752273,23.5967266 C137.327737,23.5967266 137.025416,23.4707556 136.845053,23.2190696 C136.664175,22.9678957 136.573864,22.598944 136.573864,22.1137507 L136.573864,13.8378135 Z" id="Fill-28" fill="#213369"></path>
                    <path d="M146.217903,22.5450222 C146.985412,22.5450222 147.581563,22.4036889 148.005842,22.1210222 C148.430378,21.8375874 148.642388,21.3954087 148.642388,20.7929498 C148.642388,20.2450271 148.435009,19.8425343 148.019479,19.5862396 C147.603948,19.330457 147.003937,19.2026937 146.217903,19.2026937 L144.673622,19.2026937 L144.673622,22.5450222 L146.217903,22.5450222 Z M145.987367,18.3667275 C146.755134,18.3667275 147.303943,18.2366599 147.63328,17.9755005 C147.962874,17.7151092 148.127799,17.3379643 148.127799,16.8432976 C148.127799,16.3583604 147.953868,16.0098918 147.606264,15.7986599 C147.258402,15.5881961 146.73738,15.4819401 146.041656,15.4819401 L144.673622,15.4819401 L144.673622,18.3667275 L145.987367,18.3667275 Z M143.549502,14.5927179 L146.191144,14.5927179 C146.642439,14.5927179 147.055654,14.633172 147.430532,14.7135681 C147.804895,14.7944763 148.125484,14.9207034 148.391784,15.0912251 C148.658341,15.2620029 148.865977,15.4842444 149.014951,15.7582058 C149.164181,16.0326792 149.238282,16.3629691 149.238282,16.7490754 C149.238282,17.1894618 149.112208,17.5873459 148.859545,17.9419594 C148.606367,18.297085 148.217853,18.542114 147.694516,18.6765343 L147.694516,18.7305585 C148.344956,18.8296454 148.85054,19.0541913 149.211266,19.4044522 C149.572508,19.7552251 149.753643,20.2355536 149.753643,20.8469739 C149.753643,21.277887 149.672338,21.6558 149.509471,21.9789208 C149.34686,22.3028097 149.117097,22.5719063 148.818635,22.7877469 C148.520431,23.0038435 148.163821,23.1648918 147.748805,23.2729401 C147.333274,23.3809884 146.877091,23.4350126 146.38077,23.4350126 L143.549502,23.4350126 L143.549502,14.5927179 Z" id="Fill-30" fill="#213369"></path>
                    <path d="M151.378612,16.8839053 L152.503503,16.8839053 L152.503503,20.8873256 C152.503503,21.5074512 152.599988,21.9542386 152.794503,22.2282 C152.988503,22.5026734 153.302145,22.6393981 153.735943,22.6393981 C154.078917,22.6393981 154.381495,22.5520889 154.643163,22.3767024 C154.905346,22.2013159 155.194288,21.9209536 155.510246,21.5343353 L155.510246,16.8839053 L156.620728,16.8839053 L156.620728,23.4349101 L155.700129,23.4349101 L155.605187,22.4104995 L155.564535,22.4104995 C155.257325,22.7697217 154.934163,23.0577652 154.596079,23.2730937 C154.257479,23.4886783 153.858158,23.5967266 153.397086,23.5967266 C152.692614,23.5967266 152.180341,23.380886 151.859752,22.9497169 C151.539163,22.5180357 151.378612,21.8804995 151.378612,21.035828 L151.378612,16.8839053 Z" id="Fill-32" fill="#213369"></path>
                    <path d="M159.00523,21.9519343 C159.293915,22.1859536 159.589546,22.3749101 159.892124,22.5180357 C160.194702,22.6621855 160.544108,22.7338763 160.942143,22.7338763 C161.375427,22.7338763 161.700132,22.6353014 161.917031,22.4376396 C162.133931,22.2399778 162.242509,21.9972531 162.242509,21.7097217 C162.242509,21.538944 162.196968,21.3906976 162.106915,21.2644705 C162.01609,21.1390116 161.901079,21.0286589 161.761368,20.9341807 C161.621143,20.8404705 161.460848,20.7570019 161.280485,20.6850551 C161.099607,20.6133643 160.918986,20.5411614 160.738623,20.4697266 C160.503456,20.3888184 160.268803,20.2966444 160.034408,20.1934609 C159.799241,20.0902773 159.589546,19.9640502 159.404294,19.8155478 C159.219042,19.6673014 159.068267,19.4947314 158.950941,19.2965575 C158.8331,19.0994077 158.774694,18.8612918 158.774694,18.5827217 C158.774694,18.3215623 158.826668,18.0770454 158.930358,17.8476348 C159.034047,17.6182242 159.183021,17.4213304 159.377021,17.2546493 C159.571535,17.0884802 159.808503,16.9584126 160.088697,16.8639343 C160.368633,16.769456 160.684334,16.7220889 161.03657,16.7220889 C161.4521,16.7220889 161.833411,16.7940357 162.181273,16.9379295 C162.528877,17.0815671 162.828883,17.2569536 163.081803,17.4635768 L162.553578,18.1643546 C162.327931,17.9938329 162.093278,17.8548039 161.849363,17.7467556 C161.605705,17.6387072 161.339405,17.5849391 161.049949,17.5849391 C160.634933,17.5849391 160.330039,17.6794174 160.135782,17.8681179 C159.941782,18.0565623 159.844525,18.2770116 159.844525,18.5286976 C159.844525,18.6812966 159.885177,18.8136686 159.966482,18.9258135 C160.048045,19.0384705 160.156366,19.1375575 160.29196,19.2225623 C160.426782,19.3083353 160.583217,19.3846348 160.758692,19.4519729 C160.934938,19.5195671 161.117875,19.5886976 161.307501,19.6609005 C161.542153,19.750514 161.779121,19.8449923 162.018405,19.9435671 C162.257946,20.0426541 162.47253,20.1663208 162.662156,20.3143111 C162.851782,20.4628135 163.007702,20.644601 163.129403,20.8604415 C163.251618,21.0762821 163.312339,21.3366734 163.312339,21.6423836 C163.312339,21.9114802 163.260366,22.1631662 163.156676,22.3971855 C163.052214,22.6306928 162.899124,22.8373159 162.695862,23.0173111 C162.493114,23.1967942 162.239936,23.3386396 161.937615,23.4413111 C161.634779,23.5444947 161.289233,23.5967266 160.90149,23.5967266 C160.431671,23.5967266 159.985007,23.5112097 159.560472,23.3404319 C159.135421,23.1696541 158.765175,22.9545816 158.449217,22.6934222 L159.00523,21.9519343 Z" id="Fill-34" fill="#213369"></path>
                    <mask id="mask-4" fill="white">
                        <use xlink:href="#path-3"></use>
                    </mask>
                    <g id="Clip-37"></g>
                    <path d="M165.194345,23.4349614 L166.305599,23.4349614 L166.305599,16.8839565 L165.194345,16.8839565 L165.194345,23.4349614 Z M165.763223,15.535913 C165.546838,15.535913 165.364159,15.4683188 165.214928,15.3341546 C165.065955,15.1992222 164.991597,15.0284444 164.991597,14.8215652 C164.991597,14.6062367 165.065955,14.4331546 165.214928,14.3028309 C165.364159,14.1727633 165.546838,14.1069614 165.763223,14.1069614 C165.980379,14.1069614 166.163058,14.1727633 166.312032,14.3028309 C166.461263,14.4331546 166.535363,14.6062367 166.535363,14.8215652 C166.535363,15.0284444 166.461263,15.1992222 166.312032,15.3341546 C166.163058,15.4683188 165.980379,15.535913 165.763223,15.535913 Z" id="Fill-36" fill="#213369" mask="url(#mask-4)"></path>
                    <path d="M168.865576,16.8839053 L169.786947,16.8839053 L169.881889,17.8276638 L169.922284,17.8276638 C170.238499,17.5132483 170.570409,17.2505527 170.918271,17.0388087 C171.265361,16.8280889 171.669571,16.7220889 172.130128,16.7220889 C172.825595,16.7220889 173.332979,16.9379295 173.653568,17.3690986 C173.974414,17.8007797 174.134709,18.438828 174.134709,19.2829874 L174.134709,23.4349101 L173.024226,23.4349101 L173.024226,19.4314899 C173.024226,18.8113643 172.924396,18.3643208 172.726022,18.0903594 C172.527133,17.8166541 172.211433,17.6791614 171.778149,17.6791614 C171.434404,17.6791614 171.132083,17.7649343 170.870414,17.934944 C170.608489,18.1062338 170.310284,18.3579198 169.976573,18.6900019 L169.976573,23.4349101 L168.865576,23.4349101 L168.865576,16.8839053 Z" id="Fill-38" fill="#213369" mask="url(#mask-4)"></path>
                    <path d="M180.731532,19.6743169 C180.731532,19.0004232 180.589248,18.4857855 180.304681,18.1309159 C180.02037,17.7760464 179.621049,17.5983556 179.105689,17.5983556 C178.871293,17.5983556 178.647705,17.6452106 178.435437,17.7396889 C178.223169,17.8341671 178.031227,17.9690995 177.859612,18.144486 C177.687996,18.3193604 177.54597,18.535201 177.433532,18.7914957 C177.320065,19.0472783 177.245193,19.3417227 177.209429,19.6743169 L180.731532,19.6743169 Z M176.125962,20.1728242 C176.125962,19.6338628 176.20984,19.1509739 176.376309,18.7241575 C176.543293,18.297085 176.764824,17.9350464 177.040129,17.6388097 C177.315691,17.3420609 177.62959,17.1154667 177.981569,16.958515 C178.334063,16.8010512 178.699678,16.7219353 179.078415,16.7219353 C179.493946,16.7219353 179.866766,16.7941382 180.196102,16.9377758 C180.525697,17.0816696 180.801002,17.2885488 181.022532,17.5579014 C181.243548,17.8277662 181.41259,18.150887 181.530689,18.528544 C181.648272,18.9059449 181.706421,19.3281527 181.706421,19.7956792 C181.706421,20.0378918 181.692784,20.2401623 181.666283,20.4022348 L177.222808,20.4022348 C177.268349,21.1119739 177.487049,21.6739787 177.880195,22.0869691 C178.272569,22.5004715 178.7851,22.7068386 179.417529,22.7068386 C179.733487,22.7068386 180.024744,22.6599836 180.291044,22.5655053 C180.557344,22.4710271 180.81258,22.3478725 181.056238,22.1947614 L181.449384,22.9229353 C181.159927,23.1021623 180.839853,23.25937 180.48736,23.3943024 C180.135638,23.5292348 179.733487,23.596829 179.281935,23.596829 C178.839389,23.596829 178.426689,23.517457 178.043063,23.3607614 C177.658665,23.2038097 177.324954,22.9790077 177.040129,22.6868676 C176.756076,22.3947275 176.53223,22.0375536 176.370134,21.6153459 C176.207267,21.1928821 176.125962,20.7120415 176.125962,20.1728242 Z" id="Fill-39" fill="#213369" mask="url(#mask-4)"></path>
                    <path d="M183.49418,21.9519343 C183.783121,22.1859536 184.078495,22.3749101 184.381331,22.5180357 C184.683652,22.6621855 185.033058,22.7338763 185.431092,22.7338763 C185.864376,22.7338763 186.189339,22.6353014 186.405981,22.4376396 C186.623137,22.2399778 186.731458,21.9972531 186.731458,21.7097217 C186.731458,21.538944 186.686174,21.3906976 186.596121,21.2644705 C186.505039,21.1390116 186.390286,21.0286589 186.250575,20.9341807 C186.110349,20.8404705 185.949798,20.7570019 185.769692,20.6850551 C185.588556,20.6133643 185.407936,20.5411614 185.227829,20.4697266 C184.992662,20.3888184 184.75801,20.2966444 184.523357,20.1934609 C184.28819,20.0902773 184.078495,19.9640502 183.893243,19.8155478 C183.708249,19.6673014 183.557217,19.4947314 183.43989,19.2965575 C183.32205,19.0994077 183.263644,18.8612918 183.263644,18.5827217 C183.263644,18.3215623 183.315617,18.0770454 183.419307,17.8476348 C183.522997,17.6182242 183.672227,17.4213304 183.86597,17.2546493 C184.060742,17.0884802 184.29771,16.9584126 184.577646,16.8639343 C184.857583,16.769456 185.17354,16.7220889 185.525519,16.7220889 C185.94105,16.7220889 186.32236,16.7940357 186.670222,16.9379295 C187.017827,17.0815671 187.317832,17.2569536 187.57101,17.4635768 L187.042784,18.1643546 C186.81688,17.9938329 186.582485,17.8548039 186.338312,17.7467556 C186.094912,17.6387072 185.828355,17.5849391 185.538898,17.5849391 C185.12414,17.5849391 184.819246,17.6794174 184.624989,17.8681179 C184.430989,18.0565623 184.333731,18.2770116 184.333731,18.5286976 C184.333731,18.6812966 184.374384,18.8136686 184.455432,18.9258135 C184.536994,19.0384705 184.645572,19.1375575 184.780909,19.2225623 C184.915989,19.3083353 185.072166,19.3846348 185.247641,19.4519729 C185.424145,19.5195671 185.606824,19.5886976 185.79645,19.6609005 C186.031103,19.750514 186.268071,19.8449923 186.507612,19.9435671 C186.746896,20.0426541 186.961479,20.1663208 187.151363,20.3143111 C187.340989,20.4628135 187.496652,20.644601 187.618609,20.8604415 C187.740824,21.0762821 187.801288,21.3366734 187.801288,21.6423836 C187.801288,21.9114802 187.749572,22.1631662 187.645882,22.3971855 C187.541421,22.6306928 187.388331,22.8373159 187.184811,23.0173111 C186.982063,23.1967942 186.729142,23.3386396 186.426564,23.4413111 C186.123986,23.5444947 185.77844,23.5967266 185.39044,23.5967266 C184.92062,23.5967266 184.473957,23.5112097 184.049421,23.3404319 C183.624628,23.1696541 183.254124,22.9545816 182.938424,22.6934222 L183.49418,21.9519343 Z" id="Fill-40" fill="#213369" mask="url(#mask-4)"></path>
                    <path d="M189.508437,21.9519343 C189.797379,22.1859536 190.092753,22.3749101 190.395588,22.5180357 C190.697909,22.6621855 191.047315,22.7338763 191.445349,22.7338763 C191.878633,22.7338763 192.203596,22.6353014 192.420238,22.4376396 C192.637394,22.2399778 192.745715,21.9972531 192.745715,21.7097217 C192.745715,21.538944 192.700432,21.3906976 192.610379,21.2644705 C192.519296,21.1390116 192.404543,21.0286589 192.264832,20.9341807 C192.124607,20.8404705 191.964055,20.7570019 191.783949,20.6850551 C191.602814,20.6133643 191.422193,20.5411614 191.242087,20.4697266 C191.00692,20.3888184 190.772267,20.2966444 190.537615,20.1934609 C190.302447,20.0902773 190.092753,19.9640502 189.907501,19.8155478 C189.722506,19.6673014 189.571474,19.4947314 189.454148,19.2965575 C189.336307,19.0994077 189.277901,18.8612918 189.277901,18.5827217 C189.277901,18.3215623 189.329875,18.0770454 189.433564,17.8476348 C189.537254,17.6182242 189.686485,17.4213304 189.880227,17.2546493 C190.074999,17.0884802 190.311967,16.9584126 190.591904,16.8639343 C190.87184,16.769456 191.187798,16.7220889 191.539776,16.7220889 C191.955307,16.7220889 192.336617,16.7940357 192.684479,16.9379295 C193.032084,17.0815671 193.332089,17.2569536 193.585267,17.4635768 L193.057042,18.1643546 C192.831137,17.9938329 192.596742,17.8548039 192.352569,17.7467556 C192.109169,17.6387072 191.842612,17.5849391 191.553156,17.5849391 C191.138397,17.5849391 190.833503,17.6794174 190.639246,17.8681179 C190.445246,18.0565623 190.347989,18.2770116 190.347989,18.5286976 C190.347989,18.6812966 190.388641,18.8136686 190.469689,18.9258135 C190.551251,19.0384705 190.659829,19.1375575 190.795166,19.2225623 C190.930246,19.3083353 191.086424,19.3846348 191.261898,19.4519729 C191.438402,19.5195671 191.621081,19.5886976 191.810707,19.6609005 C192.04536,19.750514 192.282328,19.8449923 192.521869,19.9435671 C192.761153,20.0426541 192.975737,20.1663208 193.165363,20.3143111 C193.355246,20.4628135 193.510909,20.644601 193.632867,20.8604415 C193.754824,21.0762821 193.815546,21.3366734 193.815546,21.6423836 C193.815546,21.9114802 193.763829,22.1631662 193.66014,22.3971855 C193.555678,22.6306928 193.402588,22.8373159 193.199068,23.0173111 C192.99632,23.1967942 192.7434,23.3386396 192.440821,23.4413111 C192.137986,23.5444947 191.792697,23.5967266 191.404697,23.5967266 C190.934877,23.5967266 190.488214,23.5112097 190.063678,23.3404319 C189.638885,23.1696541 189.268381,22.9545816 188.952681,22.6934222 L189.508437,21.9519343 Z" id="Fill-41" fill="#213369" mask="url(#mask-4)"></path>
                    <path d="M86.3082329,35.0005087 L85.8885857,33.6524652 C85.7259756,33.1580546 85.5728854,32.6664604 85.4282859,32.1761464 C85.2834292,31.6868565 85.1388297,31.1852768 84.9944875,30.6731995 L84.9401984,30.6731995 C84.8051188,31.1852768 84.6648934,31.6868565 84.5205512,32.1761464 C84.3759517,32.6664604 84.2228615,33.1580546 84.0602515,33.6524652 L83.6398324,35.0005087 L86.3082329,35.0005087 Z M86.5930578,35.903301 L83.355522,35.903301 L82.5023337,38.5991319 L81.3509411,38.5991319 L84.3579411,29.7570932 L85.631034,29.7570932 L88.6385485,38.5991319 L87.4331241,38.5991319 L86.5930578,35.903301 Z" id="Fill-42" fill="#213369" mask="url(#mask-4)"></path>
                    <path d="M90.8053536,35.3236807 C90.8053536,36.114328 90.9633324,36.730357 91.2798045,37.1702314 C91.5957621,37.6108739 92.0426825,37.8308111 92.6203085,37.8308111 C92.9272607,37.8308111 93.216717,37.7568159 93.4873907,37.6083135 C93.758579,37.4600671 94.0289955,37.2334729 94.3001838,36.9280188 L94.3001838,33.50427 C94.0202475,33.2525841 93.7513748,33.0746372 93.4943377,32.9714536 C93.2367859,32.86827 92.9728019,32.8165502 92.7016135,32.8165502 C92.4399451,32.8165502 92.1939716,32.8769754 91.9636931,32.9983377 C91.7329,33.119956 91.5319531,33.2907338 91.360595,33.510415 C91.1889796,33.7311203 91.0536427,33.9938159 90.9543271,34.2995261 C90.8547541,34.6049802 90.8053536,34.9465357 90.8053536,35.3236807 M89.653961,35.3372507 C89.653961,34.8067386 89.7332077,34.3287145 89.8909292,33.9018981 C90.0491653,33.4748256 90.2588602,33.112787 90.5213005,32.8165502 C90.782969,32.5198014 91.0852899,32.2911589 91.4285207,32.1290865 C91.7714942,31.96727 92.1327355,31.8863618 92.5125021,31.8863618 C92.8912395,31.8863618 93.221091,31.9537 93.5010273,32.0886324 C93.7807064,32.2235647 94.0650167,32.4076565 94.3544729,32.6411638 L94.3001838,31.5225309 L94.3001838,29.0020865 L95.4243032,29.0020865 L95.4243032,38.5991831 L94.5037037,38.5991831 L94.4087621,37.8308111 L94.3681095,37.8308111 C94.1056692,38.0822411 93.8056639,38.300642 93.4673218,38.4847338 C93.1282077,38.6683135 92.7646507,38.7609995 92.3766507,38.7609995 C91.5455897,38.7609995 90.884343,38.4642507 90.3921387,37.8712652 C89.8996772,37.2782797 89.653961,36.4333522 89.653961,35.3372507" id="Fill-43" fill="#213369" mask="url(#mask-4)"></path>
                    <path d="M97.7131172,32.0482039 L98.6344886,32.0482039 L98.7294302,32.9922184 L98.7700828,32.9922184 C99.0587671,32.6775469 99.372409,32.4148512 99.7115231,32.2031072 C100.049865,31.9923874 100.417796,31.8863874 100.815573,31.8863874 C101.320642,31.8863874 101.716361,31.9964841 102.000414,32.2166773 C102.285239,32.4371266 102.494934,32.7451411 102.630271,33.1399527 C102.973502,32.7628077 103.319048,32.4594019 103.66691,32.2299913 C104.013743,32.0013488 104.391194,31.8863874 104.797205,31.8863874 C105.474661,31.8863874 105.977929,32.102228 106.308038,32.5333971 C106.637632,32.9650783 106.802043,33.6033826 106.802043,34.447286 L106.802043,38.5992087 L105.69156,38.5992087 L105.69156,34.5957884 C105.69156,33.9756628 105.591987,33.5288754 105.393356,33.254658 C105.194467,32.9809527 104.887515,32.8434599 104.472499,32.8434599 C103.975664,32.8434599 103.425054,33.1804068 102.819897,33.8543005 L102.819897,38.5992087 L101.709157,38.5992087 L101.709157,34.5957884 C101.709157,33.9756628 101.609584,33.5288754 101.411467,33.254658 C101.212321,32.9809527 100.900995,32.8434599 100.476459,32.8434599 C99.9798812,32.8434599 99.4290138,33.1804068 98.8243719,33.8543005 L98.8243719,38.5992087 L97.7131172,38.5992087 L97.7131172,32.0482039 Z" id="Fill-44" fill="#213369" mask="url(#mask-4)"></path>
                    <path d="M109.28092,38.5991063 L110.391918,38.5991063 L110.391918,32.0481014 L109.28092,32.0481014 L109.28092,38.5991063 Z M109.849541,30.700314 C109.633414,30.700314 109.450477,30.6327198 109.301504,30.4985556 C109.152273,30.3636232 109.077915,30.1928454 109.077915,29.9857101 C109.077915,29.7703816 109.152273,29.5975556 109.301504,29.4672319 C109.450477,29.3371643 109.633414,29.2713623 109.849541,29.2713623 C110.06644,29.2713623 110.249119,29.3371643 110.39835,29.4672319 C110.547324,29.5975556 110.621682,29.7703816 110.621682,29.9857101 C110.621682,30.1928454 110.547324,30.3636232 110.39835,30.4985556 C110.249119,30.6327198 110.06644,30.700314 109.849541,30.700314 Z" id="Fill-45" fill="#213369" mask="url(#mask-4)"></path>
                    <path d="M112.951277,32.0482039 L113.872648,32.0482039 L113.96759,32.9922184 L114.007985,32.9922184 C114.3242,32.6775469 114.65611,32.4148512 115.003972,32.2031072 C115.351062,31.9923874 115.755272,31.8863874 116.215829,31.8863874 C116.911295,31.8863874 117.41868,32.102228 117.739269,32.5333971 C118.060115,32.9650783 118.22041,33.6033826 118.22041,34.447286 L118.22041,38.5992087 L117.109927,38.5992087 L117.109927,34.5957884 C117.109927,33.9756628 117.010097,33.5288754 116.811723,33.254658 C116.612834,32.9809527 116.297134,32.8434599 115.86385,32.8434599 C115.520105,32.8434599 115.217784,32.9292329 114.956115,33.0992425 C114.694189,33.2705324 114.395985,33.5222184 114.062274,33.8543005 L114.062274,38.5992087 L112.951277,38.5992087 L112.951277,32.0482039 Z" id="Fill-46" fill="#213369" mask="url(#mask-4)"></path>
                    <path d="M120.699133,38.5991063 L121.81013,38.5991063 L121.81013,32.0481014 L120.699133,32.0481014 L120.699133,38.5991063 Z M121.267753,30.700314 C121.051626,30.700314 120.868947,30.6327198 120.719973,30.4985556 C120.570485,30.3636232 120.496385,30.1928454 120.496385,29.9857101 C120.496385,29.7703816 120.570485,29.5975556 120.719973,29.4672319 C120.868947,29.3371643 121.051626,29.2713623 121.267753,29.2713623 C121.48491,29.2713623 121.667589,29.3371643 121.81682,29.4672319 C121.965793,29.5975556 122.040151,29.7703816 122.040151,29.9857101 C122.040151,30.1928454 121.965793,30.3636232 121.81682,30.4985556 C121.667589,30.6327198 121.48491,30.700314 121.267753,30.700314 Z" id="Fill-47" fill="#213369" mask="url(#mask-4)"></path>
                    <path d="M124.194092,37.1163353 C124.482776,37.3503546 124.778407,37.5390551 125.081243,37.6821807 C125.383564,37.8265865 125.732969,37.8982773 126.131004,37.8982773 C126.564288,37.8982773 126.889251,37.7997024 127.105893,37.6020406 C127.322792,37.4043787 127.43137,37.1613981 127.43137,36.8741227 C127.43137,36.7033449 127.385829,36.5548425 127.295776,36.4288715 C127.204951,36.3034126 127.090198,36.1930599 126.950487,36.0985816 C126.810004,36.0046155 126.64971,35.9214029 126.469346,35.8492 C126.288468,35.7777652 126.107847,35.7055623 125.927484,35.6338715 C125.692317,35.5532193 125.457922,35.4610454 125.223269,35.3576058 C124.988102,35.2544222 124.778407,35.1284512 124.593155,34.9799488 C124.407903,34.8314464 124.257129,34.6591324 124.139802,34.4607024 C124.021962,34.2638087 123.963556,34.0256928 123.963556,33.7468667 C123.963556,33.4859633 124.015529,33.2414464 124.119219,33.0120357 C124.222908,32.7826251 124.371882,32.5854754 124.565882,32.4187942 C124.760397,32.2528812 124.997365,32.1228135 125.277558,32.0283353 C125.557495,31.933857 125.873452,31.8862338 126.225431,31.8862338 C126.640962,31.8862338 127.022272,31.9584367 127.370134,32.1023304 C127.717739,32.2459681 128.017744,32.4213546 128.270922,32.6277217 L127.742696,33.3287556 C127.516792,33.1579778 127.282139,33.0189488 127.038224,32.9111565 C126.794566,32.8031082 126.528267,32.7490841 126.23881,32.7490841 C125.823794,32.7490841 125.519158,32.8435623 125.324643,33.0325188 C125.130901,33.2207072 125.033643,33.4414126 125.033643,33.6928425 C125.033643,33.8454415 125.074038,33.9780696 125.155344,34.0902145 C125.236906,34.2028715 125.345484,34.3019585 125.480821,34.3869633 C125.615643,34.4724802 125.772078,34.5487797 125.947553,34.6161179 C126.124057,34.6837121 126.306736,34.7530986 126.496362,34.8250454 C126.731015,34.914915 126.967983,35.0093932 127.207267,35.1077121 C127.446808,35.206799 127.661391,35.3307217 127.851017,35.4787121 C128.040901,35.6269585 128.196564,35.8087459 128.318521,36.0245865 C128.440479,36.2404271 128.5012,36.5010744 128.5012,36.8065285 C128.5012,37.0758812 128.449227,37.3275671 128.345794,37.5615865 C128.241076,37.7948377 128.087985,38.0014609 127.884723,38.181456 C127.681975,38.3609391 127.429054,38.5030406 127.126476,38.605456 C126.823641,38.7088957 126.478351,38.7611275 126.090351,38.7611275 C125.620532,38.7611275 125.173869,38.6753546 124.749333,38.5045768 C124.324282,38.3340551 123.954036,38.1187266 123.638336,37.8578232 L124.194092,37.1163353 Z" id="Fill-48" fill="#213369" mask="url(#mask-4)"></path>
                    <path d="M130.573681,32.951585 L129.598793,32.951585 L129.598793,32.1156188 L130.62797,32.0482807 L130.763564,30.215044 L131.697801,30.215044 L131.697801,32.0482807 L133.472875,32.0482807 L133.472875,32.951585 L131.697801,32.951585 L131.697801,36.5906623 C131.697801,36.9949473 131.772673,37.3075705 131.921132,37.5275077 C132.070363,37.747957 132.334604,37.8577976 132.714114,37.8577976 C132.831182,37.8577976 132.957514,37.8401309 133.093108,37.8037734 C133.228702,37.767928 133.35066,37.7274739 133.459238,37.6824111 L133.675623,38.5181213 C133.495259,38.5808507 133.298172,38.6374353 133.086676,38.6865947 C132.874408,38.7357541 132.663941,38.7611019 132.456305,38.7611019 C132.104583,38.7611019 131.808694,38.7070778 131.569411,38.5992855 C131.329869,38.4912372 131.136127,38.3427348 130.986896,38.1545464 C130.837665,37.9655899 130.73166,37.7361792 130.668623,37.4670826 C130.605071,37.1972179 130.573681,36.9009812 130.573681,36.5773483 L130.573681,32.951585 Z" id="Fill-49" fill="#213369" mask="url(#mask-4)"></path>
                    <path d="M135.30072,32.0482039 L136.221834,32.0482039 L136.316776,33.2341749 L136.357428,33.2341749 C136.582561,32.8214406 136.856322,32.492943 137.176911,32.2507304 C137.4975,32.0077498 137.846906,31.8863874 138.226672,31.8863874 C138.488598,31.8863874 138.722993,31.9314502 138.931145,32.0213198 L138.714245,32.9922184 C138.605924,32.9561169 138.506094,32.9292329 138.416556,32.9110541 C138.325731,32.8928754 138.213036,32.88417 138.077699,32.88417 C137.797505,32.88417 137.506248,32.9968271 137.203927,33.2208609 C136.901092,33.4454068 136.63685,33.8366338 136.411718,34.3935179 L136.411718,38.5992087 L135.30072,38.5992087 L135.30072,32.0482039 Z" id="Fill-50" fill="#213369" mask="url(#mask-4)"></path>
                    <path d="M140.773244,36.8200473 C140.773244,37.1971923 140.884138,37.467057 141.104897,37.6288734 C141.325912,37.7904338 141.599674,37.871086 141.924379,37.871086 C142.240337,37.871086 142.540857,37.7973469 142.825167,37.6488444 C143.109735,37.5005981 143.40974,37.2829652 143.726469,36.9949217 L143.726469,35.1752551 C143.175345,35.247458 142.710156,35.3329749 142.331162,35.4315498 C141.951395,35.5306367 141.646759,35.6473903 141.416995,35.7818106 C141.186202,35.916743 141.021276,36.0716464 140.922218,36.2470329 C140.822645,36.4224193 140.773244,36.6136802 140.773244,36.8200473 M139.676141,36.9009556 C139.676141,36.181743 139.998531,35.6315159 140.644597,35.2497623 C141.290149,34.8677527 142.317525,34.6004483 143.726469,34.4473372 C143.726469,34.24097 143.705629,34.0392116 143.664976,33.8407816 C143.624324,33.6436319 143.552024,33.4682454 143.448077,33.3153903 C143.344387,33.1627913 143.206477,33.0388686 143.035634,32.9443903 C142.863504,32.8501681 142.642488,32.803313 142.371814,32.803313 C141.9833,32.803313 141.624374,32.8752599 141.29478,33.0188976 C140.964671,33.1627913 140.669554,33.3246077 140.407629,33.5040908 L139.960451,32.7357188 C140.267403,32.538057 140.642281,32.3473082 141.085085,32.1627043 C141.527117,31.9791246 142.014432,31.8861826 142.547546,31.8861826 C143.351592,31.8861826 143.933849,32.1314676 144.29509,32.6212696 C144.656074,33.1110715 144.836952,33.7644821 144.836952,34.5822696 L144.836952,38.5992599 L143.915581,38.5992599 L143.820639,37.8173179 L143.793366,37.8173179 C143.477666,38.0782213 143.137008,38.3007188 142.77165,38.4848106 C142.40552,38.6683903 142.019321,38.7610763 141.61331,38.7610763 C141.05318,38.7610763 140.590308,38.5992599 140.224435,38.275371 C139.85882,37.9522502 139.676141,37.4939411 139.676141,36.9009556" id="Fill-51" fill="#213369" mask="url(#mask-4)"></path>
                    <path d="M147.46416,32.951585 L146.489271,32.951585 L146.489271,32.1156188 L147.518449,32.0482807 L147.653786,30.215044 L148.588279,30.215044 L148.588279,32.0482807 L150.363096,32.0482807 L150.363096,32.951585 L148.588279,32.951585 L148.588279,36.5906623 C148.588279,36.9949473 148.663152,37.3075705 148.811611,37.5275077 C148.960584,37.747957 149.224826,37.8577976 149.604335,37.8577976 C149.721661,37.8577976 149.847993,37.8401309 149.983587,37.8037734 C150.118924,37.767928 150.241139,37.7274739 150.34946,37.6824111 L150.565844,38.5181213 C150.385481,38.5808507 150.188651,38.6374353 149.977155,38.6865947 C149.764629,38.7357541 149.55442,38.7611019 149.346783,38.7611019 C148.994805,38.7611019 148.699173,38.7070778 148.459632,38.5992855 C148.220348,38.4912372 148.026606,38.3427348 147.877118,38.1545464 C147.728144,37.9655899 147.622139,37.7361792 147.559102,37.4670826 C147.495293,37.1972179 147.46416,36.9009812 147.46416,36.5773483 L147.46416,32.951585 Z" id="Fill-52" fill="#213369" mask="url(#mask-4)"></path>
                    <path d="M152.191714,38.5991063 L153.302711,38.5991063 L153.302711,32.0481014 L152.191714,32.0481014 L152.191714,38.5991063 Z M152.760334,30.700314 C152.54395,30.700314 152.361271,30.6327198 152.212297,30.4985556 C152.063066,30.3636232 151.988966,30.1928454 151.988966,29.9857101 C151.988966,29.7703816 152.063066,29.5975556 152.212297,29.4672319 C152.361271,29.3371643 152.54395,29.2713623 152.760334,29.2713623 C152.977491,29.2713623 153.16017,29.3371643 153.309401,29.4672319 C153.458374,29.5975556 153.532732,29.7703816 153.532732,29.9857101 C153.532732,30.1928454 153.458374,30.3636232 153.309401,30.4985556 C153.16017,30.6327198 152.977491,30.700314 152.760334,30.700314 Z" id="Fill-53" fill="#213369" mask="url(#mask-4)"></path>
                    <path d="M156.525761,35.3371995 C156.525761,35.7143444 156.571302,36.0564121 156.661355,36.3613541 C156.751666,36.6670643 156.880055,36.930272 157.047554,37.1504652 C157.214538,37.3701464 157.415485,37.5409242 157.650652,37.6625425 C157.885047,37.7839048 158.142085,37.84433 158.422021,37.84433 C158.702215,37.84433 158.959766,37.7839048 159.194419,37.6625425 C159.428814,37.5409242 159.629761,37.3701464 159.797517,37.1504652 C159.964244,36.930272 160.092634,36.6670643 160.183459,36.3613541 C160.273512,36.0564121 160.318281,35.7143444 160.318281,35.3371995 C160.318281,34.9600546 160.273512,34.6161947 160.183459,34.3058758 C160.092634,33.9963251 159.964244,33.7287647 159.797517,33.5042188 C159.629761,33.2794169 159.428814,33.1063348 159.194419,32.9849725 C158.959766,32.8636101 158.702215,32.803185 158.422021,32.803185 C158.142085,32.803185 157.885047,32.8636101 157.650652,32.9849725 C157.415485,33.1063348 157.214538,33.2794169 157.047554,33.5042188 C156.880055,33.7287647 156.751666,33.9963251 156.661355,34.3058758 C156.571302,34.6161947 156.525761,34.9600546 156.525761,35.3371995 M155.374626,35.3371995 C155.374626,34.7892768 155.458504,34.3020353 155.625231,33.8749628 C155.791957,33.4478903 156.016061,33.0863638 156.295997,32.789615 C156.575419,32.4928662 156.898323,32.2688324 157.264453,32.1157213 C157.630069,31.9631222 158.01601,31.8863106 158.422021,31.8863106 C158.828803,31.8863106 159.215002,31.9631222 159.58036,32.1157213 C159.94649,32.2688324 160.26888,32.4928662 160.549074,32.789615 C160.82901,33.0863638 161.052342,33.4478903 161.219583,33.8749628 C161.386567,34.3020353 161.470445,34.7892768 161.470445,35.3371995 C161.470445,35.8761609 161.386567,36.3595618 161.219583,36.7861222 C161.052342,37.2131947 160.82901,37.5726729 160.549074,37.864813 C160.26888,38.1569531 159.94649,38.3791947 159.58036,38.5317937 C159.215002,38.6841367 158.828803,38.7612043 158.422021,38.7612043 C158.01601,38.7612043 157.630069,38.6841367 157.264453,38.5317937 C156.898323,38.3791947 156.575419,38.1569531 156.295997,37.864813 C156.016061,37.5726729 155.791957,37.2131947 155.625231,36.7861222 C155.458504,36.3595618 155.374626,35.8761609 155.374626,35.3371995" id="Fill-54" fill="#213369" mask="url(#mask-4)"></path>
                    <path d="M163.27094,32.0482039 L164.192312,32.0482039 L164.287253,32.9922184 L164.327906,32.9922184 C164.643863,32.6775469 164.975773,32.4148512 165.323635,32.2031072 C165.670725,31.9923874 166.074935,31.8863874 166.535492,31.8863874 C167.231216,31.8863874 167.738601,32.102228 168.05919,32.5333971 C168.379779,32.9650783 168.540073,33.6033826 168.540073,34.447286 L168.540073,38.5992087 L167.42959,38.5992087 L167.42959,34.5957884 C167.42959,33.9756628 167.330017,33.5288754 167.131386,33.254658 C166.932755,32.9809527 166.616797,32.8434599 166.183513,32.8434599 C165.839768,32.8434599 165.537704,32.9292329 165.275779,33.0992425 C165.01411,33.2705324 164.715649,33.5222184 164.382195,33.8543005 L164.382195,38.5992087 L163.27094,38.5992087 L163.27094,32.0482039 Z" id="Fill-55" fill="#213369" mask="url(#mask-4)"></path>
                </g>
            </g>
        </g>
    </g>
</svg>