<?xml version="1.0" encoding="UTF-8"?>
<svg width="85px" height="93px" viewBox="0 0 85 93" version="1.1" xmlns="http://www.w3.org/2000/svg" xmlns:xlink="http://www.w3.org/1999/xlink">
    <!-- Generator: Sketch 49 (51002) - http://www.bohemiancoding.com/sketch -->
    <title>Page 1 Copy</title>
    <desc>Created with Sketch.</desc>
    <defs>
        <polygon id="path-1" points="0.096837416 0.21671956 23.6553236 0.21671956 23.6553236 30.2973308 0.096837416 30.2973308"></polygon>
        <polygon id="path-3" points="0 93 84.2909969 93 84.2909969 0.224200489 0 0.224200489"></polygon>
    </defs>
    <g id="Page-1" stroke="none" stroke-width="1" fill="none" fill-rule="evenodd">
        <g id="Tablet" transform="translate(-634.000000, -410.000000)">
            <g id="Page-1-Copy" transform="translate(634.000000, 410.000000)">
                <polygon id="Fill-1" fill="#CA2026" points="71 60.5174949 15.2996923 60.5174949 14.7760483 60.5174949 14.7760483 60.0257298 14.7760483 53 10 53 10 65 71 65"></polygon>
                <polygon id="Fill-2" fill="#213369" points="10 0 10 12 14.7939143 12 14.7939143 4.97435807 14.7939143 4.48237228 15.3195668 4.48237228 70.6799797 4.48237228 71.2058589 4.48237228 71.2058589 4.97435807 71.2058589 12 76 12 76 0"></polygon>
                <g id="Group-56">
                    <path d="M5.73352961,39.2264905 C5.7728305,40.9004905 6.56985274,44.0827276 11.7845206,44.0827276 C14.6114905,44.0827276 17.7571345,43.3710161 17.7571345,40.1876421 C17.7571345,37.843087 15.6070384,37.2159623 12.581992,36.4626396 L9.51607274,35.7077252 C4.89698189,34.5769452 0.438463291,33.4900504 0.438463291,26.8729526 C0.438463291,23.5242704 2.15018589,17.6225222 11.4260964,17.6225222 C20.1848072,17.6225222 22.5338781,23.6495589 22.5749756,27.334087 L16.8413112,27.334087 C16.6811881,25.9950235 16.2039629,22.8127863 10.9881721,22.8127863 C8.71882592,22.8127863 6.01267828,23.6929892 6.01267828,26.4134098 C6.01267828,28.7579648 7.84342646,29.26162 9.03727549,29.5533535 L16.0049881,31.3553707 C19.9067814,32.36018 23.4899005,34.0332704 23.4899005,39.4327276 C23.4899005,48.4782851 14.7298423,49.2732191 12.2228941,49.2732191 C1.79265999,49.2732191 8.98306271e-05,42.9519477 8.98306271e-05,39.2264905 L5.73352961,39.2264905 Z" id="Fill-3" fill="#213369"></path>
                    <path d="M36.9971705,43.2868614 L44.6058246,43.2868614 C47.6252565,43.2868614 49.3625809,41.947343 49.3625809,38.8897122 C49.3625809,36.2543333 47.1282686,35.2463406 44.8948546,35.2463406 L36.9971705,35.2463406 L36.9971705,43.2868614 Z M36.9971705,30.1820472 L44.2754725,30.1820472 C46.7148231,30.1820472 48.6594316,29.2197587 48.6594316,26.8322281 C48.6594316,24.3610203 46.9214336,23.6074702 44.1095104,23.6074702 L36.9971705,23.6074702 L36.9971705,30.1820472 Z M31.0431965,18.4169787 L45.4740376,18.4169787 C52.7523396,18.4169787 54.6125073,23.0230936 54.6125073,26.1211988 C54.6125073,30.4326242 52.2144787,31.6486731 50.9736932,32.275343 C54.6125073,33.6569274 55.5644874,36.5867685 55.5644874,39.5614042 C55.5644874,41.947343 54.5716344,44.2079934 53.001395,45.7576144 C51.3056173,47.4309323 49.6920347,48.4784897 43.6140945,48.4784897 L31.0431965,48.4784897 L31.0431965,18.4169787 Z" id="Fill-5" fill="#213369"></path>
                    <g id="Group-9" transform="translate(60.635673, 18.190709)">
                        <mask id="mask-2" fill="white">
                            <use xlink:href="#path-1"></use>
                        </mask>
                        <g id="Clip-8"></g>
                        <polygon id="Fill-7" fill="#213369" mask="url(#mask-2)" points="14.2370764 0.21671956 9.52703207 0.21671956 0.096837416 30.2973308 6.05081138 30.2973308 11.8289419 10.5483601 17.7016191 30.2973308 23.6553685 30.2973308"></polygon>
                    </g>
                    <polygon id="Fill-10" fill="#213369" points="74.8374238 61.5309829 70.1172735 66.3660733 70.1172735 48.5623716 74.8374238 48.5623716"></polygon>
                    <path d="M9.47555912,78.5729941 L10.1351405,78.5729941 L10.1351405,81.6867888 C10.1351405,82.0033071 10.1670304,82.2688914 10.2305855,82.4833144 C10.2941407,82.6977374 10.3803781,82.8696396 10.4888486,82.9981115 C10.5975437,83.1270381 10.7257769,83.2195834 10.8744466,83.2759746 C11.0224425,83.3323658 11.1816673,83.360334 11.350998,83.360334 C11.5259432,83.360334 11.6876383,83.3323658 11.8358589,83.2759746 C11.984304,83.2195834 12.1141092,83.1270381 12.2252746,82.9981115 C12.3366646,82.8696396 12.4238003,82.6977374 12.48758,82.4833144 C12.5511352,82.2688914 12.5828005,82.0033071 12.5828005,81.6867888 L12.5828005,78.5729941 L13.2185768,78.5729941 L13.2185768,81.6706445 C13.2185768,82.0942606 13.170742,82.4512533 13.0757461,82.740713 C12.980301,83.0304 12.8491483,83.2650601 12.6820634,83.4449208 C12.5154275,83.624554 12.3180247,83.7534807 12.0900795,83.831246 C11.8621343,83.9085565 11.6159984,83.9478939 11.350998,83.9478939 C11.0862223,83.9478939 10.8385143,83.9085565 10.6080988,83.831246 C10.3774586,83.7534807 10.1789329,83.624554 10.0120725,83.4449208 C9.84521215,83.2650601 9.71428401,83.0304 9.61883897,82.740713 C9.52339393,82.4512533 9.47555912,82.0942606 9.47555912,81.6706445 L9.47555912,78.5729941 Z" id="Fill-12" fill="#213369"></path>
                    <path d="M13.7033702,83.4488773 C13.7033702,83.2933467 13.7498576,83.1687403 13.8423831,83.0748308 C13.9351332,82.9809213 14.0474215,82.9336254 14.1799217,82.9336254 C14.3072566,82.9336254 14.4172991,82.9809213 14.5098247,83.0748308 C14.6025748,83.1687403 14.6488376,83.2933467 14.6488376,83.4488773 C14.6488376,83.5939482 14.6025748,83.7130973 14.5098247,83.8070068 C14.4172991,83.9004616 14.3072566,83.9477575 14.1799217,83.9477575 C14.0474215,83.9477575 13.9351332,83.9004616 13.8423831,83.8070068 C13.7498576,83.7130973 13.7033702,83.5939482 13.7033702,83.4488773" id="Fill-14" fill="#213369"></path>
                    <path d="M15.7773124,82.700557 C15.9628126,82.8990631 16.1813256,83.0586866 16.4330759,83.1792 C16.6846017,83.3001682 16.9455597,83.3601976 17.2157253,83.3601976 C17.5600012,83.3601976 17.8276964,83.281068 18.0183619,83.1228088 C18.209252,82.9650044 18.3042479,82.7569482 18.3042479,82.4995496 C18.3042479,82.3653932 18.2817902,82.2512465 18.2368749,82.1573369 C18.1919596,82.0636548 18.1310994,81.9831609 18.0542942,81.91631 C17.9772644,81.8490044 17.8858618,81.7887477 17.7800862,81.7348577 C17.6738615,81.6816499 17.5600012,81.6252587 17.4382807,81.5661389 L16.691339,81.2362049 C16.5693939,81.1825423 16.4447539,81.1181927 16.3178682,81.0429286 C16.1905332,80.9681193 16.0764483,80.8769384 15.9762872,80.7693858 C15.8752277,80.662288 15.7932573,80.5349531 15.7297021,80.3869262 C15.6659224,80.2398088 15.6342571,80.0694983 15.6342571,79.876222 C15.6342571,79.6779433 15.6753546,79.4928528 15.7577742,79.321178 C15.8395201,79.1497306 15.9533804,79.0007941 16.0993552,78.8743687 C16.2448808,78.7486254 16.417131,78.650623 16.6156567,78.5810435 C16.8146315,78.5112367 17.0331445,78.4762196 17.2714203,78.4762196 C17.5840308,78.4762196 17.8728363,78.5367037 18.1376121,78.6574445 C18.4026124,78.7781853 18.6276382,78.9348528 18.8131384,79.1279017 L18.4553879,79.5624323 C18.2963877,79.4071291 18.1203197,79.2847966 17.9269593,79.1965716 C17.7335988,79.1078919 17.5150858,79.0635521 17.2714203,79.0635521 C16.9796953,79.0635521 16.7456865,79.132222 16.568271,79.2686523 C16.3904064,79.4055374 16.3019232,79.5947208 16.3019232,79.8357477 C16.3019232,79.9649017 16.3268512,80.0733638 16.3773809,80.1620435 C16.4276861,80.2507232 16.4952836,80.3282611 16.579949,80.395112 C16.664839,80.4624176 16.7573645,80.5215374 16.8579748,80.5724714 C16.9588097,80.6234054 17.0621149,80.6702465 17.1678905,80.713222 L17.906972,81.0349702 C18.0554171,81.0993198 18.1957774,81.1732196 18.3282776,81.2559873 C18.4607778,81.3396645 18.5748627,81.4360753 18.6698586,81.5456743 C18.7653036,81.6559555 18.8412105,81.7846548 18.8964563,81.9319995 C18.9521513,82.079799 18.9802234,82.2501095 18.9802234,82.4431584 C18.9802234,82.6521242 18.9389013,82.8481291 18.8569308,83.0302636 C18.7747358,83.2128528 18.6568331,83.3724763 18.5032227,83.509134 C18.3493878,83.6460191 18.1638875,83.7535716 17.946722,83.8313369 C17.7295565,83.90842 17.4834205,83.9477575 17.2076405,83.9477575 C16.8422544,83.9477575 16.5031438,83.8777232 16.1905332,83.7383369 C15.8779227,83.5989506 15.6079816,83.4084029 15.3800364,83.167376 L15.7773124,82.700557 Z" id="Fill-16" fill="#213369"></path>
                    <path d="M19.6873252,83.4488773 C19.6873252,83.2933467 19.7338125,83.1687403 19.826338,83.0748308 C19.9190882,82.9809213 20.0313765,82.9336254 20.1638766,82.9336254 C20.2912115,82.9336254 20.4010295,82.9809213 20.4937796,83.0748308 C20.5865297,83.1687403 20.6327925,83.2933467 20.6327925,83.4488773 C20.6327925,83.5939482 20.5865297,83.7130973 20.4937796,83.8070068 C20.4010295,83.9004616 20.2912115,83.9477575 20.1638766,83.9477575 C20.0313765,83.9477575 19.9190882,83.9004616 19.826338,83.8070068 C19.7338125,83.7130973 19.6873252,83.5939482 19.6873252,83.4488773" id="Fill-18" fill="#213369"></path>
                    <path d="M23.7242237,82.700557 C23.9094994,82.8990631 24.1282369,83.0586866 24.3799873,83.1792 C24.6312885,83.3001682 24.892471,83.3601976 25.1626366,83.3601976 C25.5069125,83.3601976 25.7746078,83.281068 25.9652733,83.1228088 C26.1561634,82.9650044 26.2511592,82.7569482 26.2511592,82.4995496 C26.2511592,82.3653932 26.2287016,82.2512465 26.1837863,82.1573369 C26.138871,82.0636548 26.0780107,81.9831609 26.0012055,81.91631 C25.9239512,81.8490044 25.8327731,81.7887477 25.7269975,81.7348577 C25.6207728,81.6816499 25.5069125,81.6252587 25.385192,81.5661389 L24.6382503,81.2362049 C24.5160807,81.1825423 24.3916653,81.1181927 24.2647795,81.0429286 C24.1374446,80.9681193 24.0233597,80.8769384 23.922974,80.7693858 C23.8221391,80.662288 23.7401686,80.5349531 23.6766135,80.3869262 C23.6128337,80.2398088 23.5809439,80.0694983 23.5809439,79.876222 C23.5809439,79.6779433 23.6222659,79.4928528 23.704461,79.321178 C23.7864314,79.1497306 23.9002917,79.0007941 24.0462665,78.8743687 C24.1917921,78.7486254 24.3640423,78.650623 24.562568,78.5810435 C24.7613183,78.5112367 24.9798313,78.4762196 25.218107,78.4762196 C25.5307176,78.4762196 25.8197477,78.5367037 26.0845234,78.6574445 C26.3492992,78.7781853 26.5745495,78.9348528 26.7600497,79.1279017 L26.4022993,79.5624323 C26.2432991,79.4071291 26.067231,79.2847966 25.8738706,79.1965716 C25.6805102,79.1078919 25.4619972,79.0635521 25.218107,79.0635521 C24.9266066,79.0635521 24.6925979,79.132222 24.5151824,79.2686523 C24.3373177,79.4055374 24.2488346,79.5947208 24.2488346,79.8357477 C24.2488346,79.9649017 24.2737626,80.0733638 24.3242923,80.1620435 C24.3743729,80.2507232 24.442195,80.3282611 24.5268604,80.395112 C24.6117503,80.4624176 24.7042758,80.5215374 24.8048861,80.5724714 C24.9054964,80.6234054 25.0090262,80.6702465 25.1148018,80.713222 L25.8538833,81.0349702 C26.0023284,81.0993198 26.1426888,81.1732196 26.2749644,81.2559873 C26.4074645,81.3396645 26.521774,81.4360753 26.6167699,81.5456743 C26.7122149,81.6559555 26.7878972,81.7846548 26.8433677,81.9319995 C26.8990626,82.079799 26.9269101,82.2501095 26.9269101,82.4431584 C26.9269101,82.6521242 26.8858126,82.8481291 26.8038422,83.0302636 C26.7216472,83.2128528 26.6035199,83.3724763 26.4501341,83.509134 C26.2962991,83.6460191 26.1107989,83.7535716 25.8936333,83.8313369 C25.6764678,83.90842 25.4303319,83.9477575 25.1545519,83.9477575 C24.7889412,83.9477575 24.4500552,83.8777232 24.1374446,83.7383369 C23.824834,83.5989506 23.554893,83.4084029 23.3267232,83.167376 L23.7242237,82.700557 Z" id="Fill-20" fill="#213369"></path>
                    <path d="M28.0869155,79.9406399 L28.6274713,79.9406399 L28.6831663,80.5040971 L28.7069714,80.5040971 C28.8765267,80.316278 29.0604549,80.1596105 29.2592052,80.0329577 C29.4577308,79.9074418 29.6735489,79.8440017 29.906884,79.8440017 C30.2033251,79.8440017 30.4355372,79.9097156 30.602173,80.0411435 C30.769258,80.1727988 30.892326,80.3565249 30.9718261,80.592322 C31.1730467,80.367212 31.3758393,80.185987 31.5797548,80.0493293 C31.7834458,79.9126716 32.0048783,79.8440017 32.243154,79.8440017 C32.64043,79.8440017 32.9357482,79.9729284 33.1295577,80.2300995 C33.3226936,80.4879528 33.4192615,80.8688208 33.4192615,81.3727034 L33.4192615,83.8511875 L32.7677649,83.8511875 L32.7677649,81.4611557 C32.7677649,81.0914296 32.709375,80.8244809 32.5925952,80.6609919 C32.4762645,80.4972756 32.2959295,80.4154174 32.0524885,80.4154174 C31.7609881,80.4154174 31.438047,80.6164247 31.0827669,81.0186667 L31.0827669,83.8511875 L30.4312703,83.8511875 L30.4312703,81.4611557 C30.4312703,81.0914296 30.3728804,80.8244809 30.2567743,80.6609919 C30.1397699,80.4972756 29.9571891,80.4154174 29.7081337,80.4154174 C29.4166333,80.4154174 29.0936922,80.6164247 28.7388613,81.0186667 L28.7388613,83.8511875 L28.0869155,83.8511875 L28.0869155,79.9406399 Z" id="Fill-22" fill="#213369"></path>
                    <path d="M35.1677697,82.7891457 C35.1677697,83.0142557 35.232897,83.1752435 35.3624776,83.2718817 C35.4922829,83.3682924 35.6526306,83.4167252 35.8432961,83.4167252 C36.0285717,83.4167252 36.2050889,83.3723853 36.3717247,83.283933 C36.5385851,83.1952533 36.7146531,83.0654171 36.900378,82.8935149 L36.900378,81.8073022 C36.5769877,81.8502778 36.3043518,81.9016665 36.0817964,81.9601042 C35.859241,82.0194513 35.6802535,82.0892582 35.5455075,82.1692973 C35.4103124,82.2500186 35.3132954,82.3423364 35.2553546,82.446933 C35.1967401,82.551757 35.1677697,82.6659037 35.1677697,82.7891457 M34.5241333,82.8375785 C34.5241333,82.4080504 34.7134513,82.0797081 35.0925366,81.8518694 C35.4711727,81.6238034 36.0739362,81.46418 36.900378,81.3727716 C36.900378,81.2495296 36.8882508,81.1290161 36.8644457,81.0107765 C36.8406406,80.8929917 36.7979711,80.7883951 36.7371108,80.6969868 C36.6762506,80.6058059 36.595403,80.5319061 36.4952418,80.4755149 C36.3941824,80.4193511 36.2643771,80.3911555 36.1056015,80.3911555 C35.8778809,80.3911555 35.667228,80.4343584 35.4738676,80.5200822 C35.280058,80.6058059 35.1069095,80.702444 34.9532991,80.8097692 L34.6907691,80.3509086 C34.8711041,80.2331237 35.0909646,80.1192044 35.3507996,80.0086958 C35.6101856,79.8993242 35.8960716,79.8440699 36.2086821,79.8440699 C36.6805175,79.8440699 37.0220985,79.9902778 37.2340987,80.2829208 C37.4458744,80.575109 37.5520992,80.9652998 37.5520992,81.4532655 L37.5520992,83.8512557 L37.0113188,83.8512557 L36.9556238,83.3844367 L36.9399034,83.3844367 C36.7544032,83.5401946 36.5545301,83.6729868 36.340284,83.7828132 C36.1253642,83.8926396 35.8987665,83.9478939 35.6607153,83.9478939 C35.3319352,83.9478939 35.0606467,83.8512557 34.8457269,83.6577521 C34.6314809,83.4649306 34.5241333,83.1916152 34.5241333,82.8375785" id="Fill-24" fill="#213369"></path>
                    <path d="M38.9819557,78.1222284 L39.6339015,78.1222284 L39.6339015,83.1108029 C39.6339015,83.2183555 39.6520922,83.2933922 39.6891473,83.3361403 C39.7262025,83.3791159 39.7686474,83.40049 39.8164822,83.40049 L39.875995,83.40049 C39.8946349,83.40049 39.9222578,83.3952601 39.9597621,83.3845731 L40.0471224,83.8834533 C40.0046774,83.9048274 39.9541477,83.9207443 39.8959823,83.9316587 C39.8375924,83.9423457 39.7634822,83.9478029 39.673427,83.9478029 C39.4243716,83.9478029 39.2469561,83.8725389 39.1409559,83.7222381 C39.0349558,83.5723922 38.9819557,83.3522846 38.9819557,83.0625976 L38.9819557,78.1222284 Z" id="Fill-26" fill="#213369"></path>
                    <path d="M41.2071053,78.1222284 L41.859051,78.1222284 L41.859051,83.1108029 C41.859051,83.2183555 41.8772417,83.2933922 41.9142969,83.3361403 C41.951352,83.3791159 41.993797,83.40049 42.0416318,83.40049 L42.10092,83.40049 C42.1197844,83.40049 42.1474074,83.3952601 42.1846871,83.3845731 L42.2722719,83.8834533 C42.2296024,83.9048274 42.1792972,83.9207443 42.1211319,83.9316587 C42.062742,83.9423457 41.9886317,83.9478029 41.8983519,83.9478029 C41.6492965,83.9478029 41.4721056,83.8725389 41.3661055,83.7222381 C41.2598808,83.5723922 41.2071053,83.3522846 41.2071053,83.0625976 L41.2071053,78.1222284 Z" id="Fill-28" fill="#213369"></path>
                    <path d="M46.8651547,83.3198597 C47.3154307,83.3198597 47.665321,83.2355002 47.9141518,83.0667814 C48.1629827,82.8978352 48.2876227,82.6336152 48.2876227,82.2738939 C48.2876227,81.9471433 48.1659022,81.7067985 47.922012,81.5537692 C47.6783464,81.4011946 47.3262104,81.3247936 46.8651547,81.3247936 L45.9592128,81.3247936 L45.9592128,83.3198597 L46.8651547,83.3198597 Z M46.7299596,80.8256861 C47.1802356,80.8256861 47.5022784,80.7479208 47.6954143,80.5923902 C47.8889993,80.4366323 47.9855672,80.2115222 47.9855672,79.916378 C47.9855672,79.6269183 47.8836094,79.4188621 47.6796939,79.2928914 C47.4757784,79.1671482 47.1699051,79.1037081 46.7618495,79.1037081 L45.9592128,79.1037081 L45.9592128,80.8256861 L46.7299596,80.8256861 Z M45.2996314,78.5729941 L46.8494343,78.5729941 C47.1142101,78.5729941 47.3565282,78.5968694 47.5766133,78.6448474 C47.7962491,78.6932802 47.9842197,78.7685443 48.1407496,78.8706396 C48.2970549,78.9725076 48.4187754,79.1052998 48.5063602,79.2687888 C48.5937205,79.4325051 48.6372884,79.6296469 48.6372884,79.8599868 C48.6372884,80.1230699 48.5634027,80.3604587 48.414733,80.5723804 C48.2665125,80.7843022 48.0387918,80.93051 47.7313465,81.0107765 L47.7313465,81.0428377 C48.1131267,81.1019575 48.4097923,81.2361139 48.6213434,81.4453071 C48.8333437,81.6547276 48.9393439,81.9414587 48.9393439,82.3061824 C48.9393439,82.5635809 48.8917336,82.7891457 48.7965132,82.9821946 C48.7008435,83.1752435 48.565873,83.3360039 48.3911525,83.4649306 C48.2162073,83.5938572 48.006902,83.6900406 47.7632364,83.7543902 C47.5195708,83.8189672 47.2518755,83.8512557 46.9608243,83.8512557 L45.2996314,83.8512557 L45.2996314,78.5729941 Z" id="Fill-30" fill="#213369"></path>
                    <path d="M49.8929858,79.9406399 L50.5527918,79.9406399 L50.5527918,82.3304443 C50.5527918,82.7006252 50.6093851,82.9675738 50.7236945,83.1308355 C50.8373303,83.2947792 51.0212585,83.3761826 51.2759283,83.3761826 C51.4773735,83.3761826 51.654789,83.3241117 51.8081748,83.2195152 C51.9620097,83.1146912 52.131565,82.9475641 52.3168407,82.7167694 L52.3168407,79.9406399 L52.9683373,79.9406399 L52.9683373,83.8511875 L52.4282307,83.8511875 L52.3725357,83.2397523 L52.3487306,83.2397523 C52.1686202,83.4539479 51.9790775,83.6260775 51.7805519,83.754322 C51.5820262,83.883476 51.3475682,83.9478257 51.0769535,83.9478257 C50.6639572,83.9478257 50.3634737,83.8191264 50.1752785,83.5617279 C49.9870834,83.3038746 49.8929858,82.923234 49.8929858,82.4188966 L49.8929858,79.9406399 Z" id="Fill-32" fill="#213369"></path>
                    <path d="M54.3674044,82.9659139 C54.5367352,83.1055276 54.7098837,83.21831 54.8877483,83.3038064 C55.0651638,83.3899848 55.2704268,83.432733 55.5037619,83.432733 C55.757758,83.432733 55.9484235,83.3738406 56.0757584,83.2558284 C56.2030933,83.1380435 56.2666485,82.9929726 56.2666485,82.8212978 C56.2666485,82.7194298 56.2401484,82.6307501 56.1871484,82.5554861 C56.1336991,82.4806768 56.0663262,82.4147355 55.9843557,82.3583443 C55.9021607,82.3024078 55.8080631,82.2526108 55.702063,82.2096352 C55.5960628,82.166887 55.4902873,82.1239115 55.3842871,82.0809359 C55.2463971,82.0327306 55.1089562,81.9777037 54.9710662,81.91631 C54.8331762,81.8544616 54.7098837,81.7791976 54.6014132,81.6907452 C54.4929427,81.6020655 54.404235,81.499288 54.3355145,81.380821 C54.266345,81.2632636 54.2319848,81.1211487 54.2319848,80.9547037 C54.2319848,80.7989457 54.2625272,80.6527379 54.3233874,80.5160802 C54.3842477,80.3789677 54.4718325,80.2611829 54.5856928,80.1620435 C54.6995532,80.0626768 54.8387906,79.9851389 55.0029561,79.9287477 C55.1673462,79.8723565 55.3526218,79.8441609 55.5592323,79.8441609 C55.8028978,79.8441609 56.0268007,79.8871364 56.2307162,79.9728601 C56.4346317,80.0585839 56.6106998,80.1634078 56.7589203,80.2866499 L56.4494538,80.7050362 C56.3169536,80.6029408 56.1790636,80.5201731 56.0360083,80.4558235 C55.8931776,80.3912465 55.7368723,80.3589579 55.5670924,80.3589579 C55.3236514,80.3589579 55.1448885,80.4153491 55.030579,80.5281315 C54.9167187,80.6404592 54.8596763,80.7723418 54.8596763,80.9226425 C54.8596763,81.0135961 54.883706,81.0927257 54.9315408,81.1595765 C54.979151,81.2268822 55.0427062,81.2857746 55.1222063,81.3367086 C55.2014818,81.3878699 55.293109,81.4333467 55.3961897,81.473821 C55.4994949,81.5138406 55.6068425,81.5552244 55.7182325,81.5982 C55.8558979,81.6518626 55.9949108,81.7082538 56.1352712,81.7671462 C56.2756315,81.8260386 56.401619,81.9001658 56.5130089,81.9883907 C56.6241744,82.0770704 56.715577,82.1853051 56.7869924,82.3144592 C56.8588569,82.4431584 56.89434,82.598689 56.89434,82.7812782 C56.89434,82.9418112 56.8637975,83.092112 56.8031619,83.2317257 C56.7418525,83.371112 56.6520218,83.494354 56.5327717,83.6019066 C56.4135215,83.7090044 56.265301,83.7938186 56.0878855,83.8549848 C55.9100209,83.9168333 55.7074528,83.9477575 55.4799567,83.9477575 C55.2044013,83.9477575 54.9420959,83.8968235 54.6930404,83.7949555 C54.4437605,83.6928601 54.2265949,83.5643883 54.0413192,83.4084029 L54.3674044,82.9659139 Z" id="Fill-34" fill="#213369"></path>
                    <mask id="mask-4" fill="white">
                        <use xlink:href="#path-3"></use>
                    </mask>
                    <g id="Clip-37"></g>
                    <path d="M57.9984707,83.8512103 L58.6501919,83.8512103 L58.6501919,79.9406626 L57.9984707,79.9406626 L57.9984707,83.8512103 Z M58.332416,79.1359511 C58.2053057,79.1359511 58.0981827,79.0957042 58.0105978,79.015665 C57.9232375,78.9349438 57.8796697,78.8330758 57.8796697,78.7096064 C57.8796697,78.5809071 57.9232375,78.4776748 58.0105978,78.3999095 C58.0981827,78.3223716 58.2053057,78.2830342 58.332416,78.2830342 C58.4595264,78.2830342 58.566874,78.3223716 58.6542342,78.3999095 C58.7418191,78.4776748 58.7851624,78.5809071 58.7851624,78.7096064 C58.7851624,78.8330758 58.7418191,78.9349438 58.6542342,79.015665 C58.566874,79.0957042 58.4595264,79.1359511 58.332416,79.1359511 Z" id="Fill-36" fill="#213369" mask="url(#mask-4)"></path>
                    <path d="M60.1524519,79.9406399 L60.6930077,79.9406399 L60.7484781,80.5040971 L60.7725078,80.5040971 C60.9577835,80.316278 61.1524913,80.1596105 61.3566314,80.0329577 C61.5603224,79.9074418 61.7974753,79.8440017 62.0676409,79.8440017 C62.4756965,79.8440017 62.773485,79.9729284 62.9616802,80.2300995 C63.1498753,80.4879528 63.2439729,80.8688208 63.2439729,81.3727034 L63.2439729,83.8511875 L62.5922517,83.8511875 L62.5922517,81.4611557 C62.5922517,81.0914296 62.5338618,80.8244809 62.4173066,80.6609919 C62.3005268,80.4972756 62.1152511,80.4154174 61.8610304,80.4154174 C61.6595852,80.4154174 61.4821697,80.4665787 61.3285594,80.5682193 C61.1751736,80.6703147 61.0000039,80.8206154 60.8041731,81.0186667 L60.8041731,83.8511875 L60.1524519,83.8511875 L60.1524519,79.9406399 Z" id="Fill-38" fill="#213369" mask="url(#mask-4)"></path>
                    <path d="M67.1141009,81.6062721 C67.1141009,81.2038027 67.030783,80.8968345 66.863698,80.6849127 C66.6970622,80.4732183 66.4626043,80.3672575 66.1603242,80.3672575 C66.0226588,80.3672575 65.8915061,80.3952257 65.7670907,80.4516169 C65.6424507,80.5080081 65.5297132,80.5882746 65.4291029,80.6930985 C65.3284926,80.7974677 65.2451747,80.9263944 65.1791492,81.0794237 C65.1126745,81.2319983 65.0688821,81.407766 65.0477719,81.6062721 L67.1141009,81.6062721 Z M64.4119957,81.904145 C64.4119957,81.5821694 64.4611779,81.2940741 64.5590933,81.0391768 C64.6570087,80.7842795 64.7870385,80.5682648 64.9482845,80.3911328 C65.1099796,80.2142281 65.2941324,80.0789347 65.5005183,79.9850252 C65.7073533,79.891343 65.9218239,79.8440472 66.1443793,79.8440472 C66.3882694,79.8440472 66.6065579,79.8870227 66.8001429,79.9727465 C66.9932787,80.0584702 67.1549739,80.182167 67.2850037,80.3429274 C67.4145844,80.5039152 67.5136226,80.6969641 67.5830168,80.9225289 C67.6519618,81.1474115 67.6860974,81.3998076 67.6860974,81.6788076 C67.6860974,81.8234237 67.6782373,81.9441645 67.6625169,82.0408027 L65.0556321,82.0408027 C65.0821321,82.4644188 65.2103654,82.8000374 65.4412301,83.0465215 C65.671421,83.2934604 65.9721291,83.4167024 66.3431296,83.4167024 C66.5286298,83.4167024 66.699308,83.3887342 66.8558379,83.332343 C67.0119186,83.2759518 67.1617111,83.2025068 67.3045418,83.1108711 L67.535182,83.5454017 C67.3654021,83.6527269 67.1776561,83.746409 66.9708211,83.8271303 C66.7642106,83.9076242 66.5286298,83.9478711 66.2636295,83.9478711 C66.0040189,83.9478711 65.7619254,83.9005753 65.5366751,83.8071205 C65.3112002,83.713211 65.115594,83.5790545 64.9482845,83.4046511 C64.7816487,83.2304751 64.6502714,83.0169616 64.5550509,82.7650203 C64.4598305,82.5128516 64.4119957,82.2258932 64.4119957,81.904145 Z" id="Fill-39" fill="#213369" mask="url(#mask-4)"></path>
                    <path d="M68.7348251,82.9659139 C68.9043804,83.1055276 69.0775289,83.21831 69.2553936,83.3038064 C69.4328091,83.3899848 69.6378475,83.432733 69.8714071,83.432733 C70.1254032,83.432733 70.3160687,83.3738406 70.443179,83.2558284 C70.5707385,83.1380435 70.6342937,82.9929726 70.6342937,82.8212978 C70.6342937,82.7194298 70.6075691,82.6307501 70.5547936,82.5554861 C70.5013444,82.4806768 70.4339714,82.4147355 70.352001,82.3583443 C70.2698059,82.3024078 70.1757083,82.2526108 70.0697082,82.2096352 C69.9637081,82.166887 69.8579325,82.1239115 69.7519324,82.0809359 C69.6140424,82.0327306 69.4763769,81.9777037 69.3387115,81.91631 C69.2008215,81.8544616 69.0775289,81.7791976 68.9690584,81.6907452 C68.860588,81.6020655 68.7718802,81.499288 68.7029352,81.380821 C68.6339902,81.2632636 68.59963,81.1211487 68.59963,80.9547037 C68.59963,80.7989457 68.6301724,80.6527379 68.6910327,80.5160802 C68.7518929,80.3789677 68.8394778,80.2611829 68.9531135,80.1620435 C69.0671984,80.0626768 69.2064359,79.9851389 69.3706014,79.9287477 C69.5349914,79.8723565 69.7202671,79.8441609 69.9266529,79.8441609 C70.1705431,79.8441609 70.3942213,79.8871364 70.5983614,79.9728601 C70.802277,80.0585839 70.978345,80.1634078 71.1265655,80.2866499 L70.8168744,80.7050362 C70.6843743,80.6029408 70.5467088,80.5201731 70.4036536,80.4558235 C70.2608229,80.3912465 70.1045176,80.3589579 69.9347377,80.3589579 C69.6912967,80.3589579 69.5123092,80.4153491 69.3982243,80.5281315 C69.284364,80.6404592 69.2273215,80.7723418 69.2273215,80.9226425 C69.2273215,81.0135961 69.2513512,81.0927257 69.2989614,81.1595765 C69.3467962,81.2268822 69.4103514,81.2857746 69.4898515,81.3367086 C69.569127,81.3878699 69.6607543,81.4333467 69.7638349,81.473821 C69.8671401,81.5138406 69.9744877,81.5552244 70.0858777,81.5982 C70.2233186,81.6518626 70.3623315,81.7082538 70.5029164,81.7671462 C70.6432768,81.8260386 70.7692642,81.9001658 70.8804296,81.9883907 C70.9918196,82.0770704 71.0832223,82.1853051 71.1546376,82.3144592 C71.2262775,82.4431584 71.2619852,82.598689 71.2619852,82.7812782 C71.2619852,82.9418112 71.2314428,83.092112 71.1705825,83.2317257 C71.1092731,83.371112 71.0194425,83.494354 70.9001924,83.6019066 C70.7811668,83.7090044 70.6327217,83.7938186 70.4553062,83.8549848 C70.2776661,83.9168333 70.075098,83.9477575 69.8473774,83.9477575 C69.5720465,83.9477575 69.3097411,83.8968235 69.0606857,83.7949555 C68.8114057,83.6928601 68.5942402,83.5643883 68.4087399,83.4084029 L68.7348251,82.9659139 Z" id="Fill-40" fill="#213369" mask="url(#mask-4)"></path>
                    <path d="M72.2633497,82.9659139 C72.432905,83.1055276 72.6060535,83.21831 72.7839181,83.3038064 C72.9613336,83.3899848 73.166372,83.432733 73.3999317,83.432733 C73.6539278,83.432733 73.8445933,83.3738406 73.9717036,83.2558284 C74.0992631,83.1380435 74.1628183,82.9929726 74.1628183,82.8212978 C74.1628183,82.7194298 74.1360937,82.6307501 74.0833182,82.5554861 C74.0298689,82.4806768 73.962496,82.4147355 73.8805255,82.3583443 C73.7983305,82.3024078 73.7042329,82.2526108 73.5982328,82.2096352 C73.4922326,82.166887 73.3864571,82.1239115 73.2804569,82.0809359 C73.1425669,82.0327306 73.0049015,81.9777037 72.8672361,81.91631 C72.729346,81.8544616 72.6060535,81.7791976 72.497583,81.6907452 C72.3891125,81.6020655 72.3004048,81.499288 72.2314598,81.380821 C72.1625148,81.2632636 72.1281546,81.1211487 72.1281546,80.9547037 C72.1281546,80.7989457 72.158697,80.6527379 72.2195572,80.5160802 C72.2804175,80.3789677 72.3680023,80.2611829 72.4816381,80.1620435 C72.595723,80.0626768 72.7349605,79.9851389 72.8991259,79.9287477 C73.063516,79.8723565 73.2487916,79.8441609 73.4551775,79.8441609 C73.6990677,79.8441609 73.9227459,79.8871364 74.126886,79.9728601 C74.3308015,80.0585839 74.5068696,80.1634078 74.6550901,80.2866499 L74.345399,80.7050362 C74.2128988,80.6029408 74.0752334,80.5201731 73.9321781,80.4558235 C73.7893474,80.3912465 73.6330422,80.3589579 73.4632623,80.3589579 C73.2198213,80.3589579 73.0408337,80.4153491 72.9267488,80.5281315 C72.8128885,80.6404592 72.7558461,80.7723418 72.7558461,80.9226425 C72.7558461,81.0135961 72.7798758,81.0927257 72.827486,81.1595765 C72.8753208,81.2268822 72.938876,81.2857746 73.0183761,81.3367086 C73.0976516,81.3878699 73.1892789,81.4333467 73.2923595,81.473821 C73.3956647,81.5138406 73.5030123,81.5552244 73.6144023,81.5982 C73.7518432,81.6518626 73.8908561,81.7082538 74.0312164,81.7671462 C74.1718013,81.8260386 74.2977888,81.9001658 74.4089542,81.9883907 C74.5203442,82.0770704 74.6117468,82.1853051 74.6831622,82.3144592 C74.7548021,82.4431584 74.7905098,82.598689 74.7905098,82.7812782 C74.7905098,82.9418112 74.7599674,83.092112 74.6991071,83.2317257 C74.6377977,83.371112 74.5479671,83.494354 74.4287169,83.6019066 C74.3096913,83.7090044 74.1612462,83.7938186 73.9838307,83.8549848 C73.8061907,83.9168333 73.6036226,83.9477575 73.375902,83.9477575 C73.1005711,83.9477575 72.8382657,83.8968235 72.5892103,83.7949555 C72.3399303,83.6928601 72.1227647,83.5643883 71.9372645,83.4084029 L72.2633497,82.9659139 Z" id="Fill-41" fill="#213369" mask="url(#mask-4)"></path>
                    <path d="M19.4648371,90.7551301 L19.2184766,89.9504186 C19.1232562,89.6552743 19.033201,89.3619491 18.9485356,89.0690787 C18.8634211,88.7771178 18.7785312,88.4776533 18.6938658,88.1720494 L18.6622005,88.1720494 C18.582925,88.4776533 18.5007299,88.7771178 18.41584,89.0690787 C18.3311746,89.3619491 18.241344,89.6552743 18.1456744,89.9504186 L17.8990893,90.7551301 L19.4648371,90.7551301 Z M19.6319221,91.2940298 L17.7324535,91.2940298 L17.2318723,92.9032254 L16.556346,92.9032254 L18.320395,87.6249638 L19.0673366,87.6249638 L20.8318347,92.9032254 L20.1246431,92.9032254 L19.6319221,91.2940298 Z" id="Fill-42" fill="#213369" mask="url(#mask-4)"></path>
                    <path d="M22.1031851,90.948088 C22.1031851,91.4201369 22.1959352,91.7875892 22.3816601,92.050445 C22.5669357,92.3133007 22.8290166,92.4447286 23.1679026,92.4447286 C23.348013,92.4447286 23.5180175,92.4006161 23.6765686,92.3119364 C23.8357933,92.2232567 23.994569,92.0881907 24.1535692,91.9058289 L24.1535692,89.8618753 C23.9891791,89.711802 23.8315264,89.6056137 23.6808355,89.5439927 C23.5296955,89.4823716 23.3747376,89.4514474 23.2157374,89.4514474 C23.0621271,89.4514474 22.9179489,89.4876015 22.7827538,89.5601369 C22.6475587,89.6326724 22.5294314,89.734313 22.4290457,89.8657408 C22.3282108,89.9973961 22.2487107,90.154291 22.19077,90.3368802 C22.1321555,90.5190147 22.1031851,90.722978 22.1031851,90.948088 M21.4276588,90.9560465 C21.4276588,90.6397555 21.4741462,90.3543888 21.5666717,90.0994914 C21.6594218,89.8443667 21.7824898,89.6283521 21.9365493,89.4514474 C22.0899351,89.2743154 22.2673506,89.1376577 22.4685712,89.0410196 C22.6700164,88.9443814 22.8820167,88.896176 23.104572,88.896176 C23.3271274,88.896176 23.5204878,88.936423 23.6846533,89.0169169 C23.8488188,89.0974108 24.0156792,89.2074645 24.1854591,89.3468509 L24.1535692,88.6790244 L24.1535692,87.1744254 L24.8131506,87.1744254 L24.8131506,92.9033619 L24.2728193,92.9033619 L24.2173489,92.4447286 L24.1933192,92.4447286 C24.0394843,92.594802 23.8634163,92.7250929 23.6648906,92.8351467 C23.4661403,92.9445183 23.2527926,93 23.0250719,93 C22.5375162,93 22.1494479,92.822868 21.8606424,92.4686039 C21.5720615,92.1147946 21.4276588,91.6104572 21.4276588,90.9560465" id="Fill-43" fill="#213369" mask="url(#mask-4)"></path>
                    <path d="M26.1559612,88.9929051 L26.696517,88.9929051 L26.752212,89.5563623 L26.7760171,89.5563623 C26.9455724,89.3685433 27.1295007,89.2116484 27.3282509,89.085223 C27.5267766,88.9597071 27.7425947,88.8960396 27.9759297,88.8960396 C28.2723708,88.8960396 28.504583,88.9619809 28.6712188,89.0931814 C28.8380792,89.2250641 28.9613717,89.4087902 29.0408718,89.6443599 C29.2420924,89.4192499 29.4448851,89.2382523 29.6488006,89.1013672 C29.8524915,88.9647095 30.073924,88.8960396 30.3121998,88.8960396 C30.7094757,88.8960396 31.0047939,89.0251936 31.1986035,89.2823648 C31.3917393,89.5399907 31.4883073,89.9210861 31.4883073,90.4249687 L31.4883073,92.9032254 L30.8368106,92.9032254 L30.8368106,90.513421 C30.8368106,90.1434675 30.7784207,89.8767462 30.6616409,89.7130298 C30.5450857,89.5495408 30.3649753,89.4676826 30.1215343,89.4676826 C29.8300339,89.4676826 29.5070928,89.66869 29.1518126,90.070932 L29.1518126,92.9032254 L28.500316,92.9032254 L28.500316,90.513421 C28.500316,90.1434675 28.4419261,89.8767462 28.32582,89.7130298 C28.2088156,89.5495408 28.0262349,89.4676826 27.7771795,89.4676826 C27.4856791,89.4676826 27.1625134,89.66869 26.807907,90.070932 L26.807907,92.9032254 L26.1559612,92.9032254 L26.1559612,88.9929051 Z" id="Fill-44" fill="#213369" mask="url(#mask-4)"></path>
                    <path d="M32.942463,92.9031345 L33.5944088,92.9031345 L33.5944088,88.9928142 L32.942463,88.9928142 L32.942463,92.9031345 Z M33.2764083,88.1881027 C33.149298,88.1881027 33.042175,88.1480831 32.9545901,88.0678166 C32.8672298,87.9873227 32.823662,87.8852274 32.823662,87.7615306 C32.823662,87.6332861 32.8672298,87.5298264 32.9545901,87.4520611 C33.042175,87.3742958 33.149298,87.3351858 33.2764083,87.3351858 C33.4035187,87.3351858 33.5106417,87.3742958 33.5982266,87.4520611 C33.6858114,87.5298264 33.7293793,87.6332861 33.7293793,87.7615306 C33.7293793,87.8852274 33.6858114,87.9873227 33.5982266,88.0678166 C33.5106417,88.1480831 33.4035187,88.1881027 33.2764083,88.1881027 Z" id="Fill-45" fill="#213369" mask="url(#mask-4)"></path>
                    <path d="M35.09604,88.9929051 L35.6365958,88.9929051 L35.6922908,89.5563623 L35.7160959,89.5563623 C35.9013716,89.3685433 36.096304,89.2116484 36.3002195,89.085223 C36.5039105,88.9597071 36.7410633,88.8960396 37.011229,88.8960396 C37.4192846,88.8960396 37.7170731,89.0251936 37.9052683,89.2823648 C38.0934634,89.5399907 38.187561,89.9210861 38.187561,90.4249687 L38.187561,92.9032254 L37.5358398,92.9032254 L37.5358398,90.513421 C37.5358398,90.1434675 37.4774499,89.8767462 37.3608947,89.7130298 C37.2443394,89.5495408 37.0590638,89.4676826 36.8048431,89.4676826 C36.6031733,89.4676826 36.4257578,89.518844 36.2721475,89.6202572 C36.1187617,89.72258 35.943592,89.8726533 35.7479858,90.070932 L35.7479858,92.9032254 L35.09604,92.9032254 L35.09604,88.9929051 Z" id="Fill-46" fill="#213369" mask="url(#mask-4)"></path>
                    <path d="M39.641582,92.9031345 L40.2935278,92.9031345 L40.2935278,88.9928142 L39.641582,88.9928142 L39.641582,92.9031345 Z M39.9755274,88.1881027 C39.848417,88.1881027 39.741294,88.1480831 39.6537091,88.0678166 C39.5663489,87.9873227 39.5225564,87.8852274 39.5225564,87.7615306 C39.5225564,87.6332861 39.5663489,87.5298264 39.6537091,87.4520611 C39.741294,87.3742958 39.848417,87.3351858 39.9755274,87.3351858 C40.1026377,87.3351858 40.2099853,87.3742958 40.2973456,87.4520611 C40.3849304,87.5298264 40.4284983,87.6332861 40.4284983,87.7615306 C40.4284983,87.8852274 40.3849304,87.9873227 40.2973456,88.0678166 C40.2099853,88.1480831 40.1026377,88.1881027 39.9755274,88.1881027 Z" id="Fill-47" fill="#213369" mask="url(#mask-4)"></path>
                    <path d="M41.6921008,92.0181792 C41.8614316,92.1577929 42.0348047,92.2705753 42.2124447,92.3560716 C42.3900848,92.4422501 42.5951232,92.4849983 42.8284583,92.4849983 C43.0826789,92.4849983 43.2733444,92.4261059 43.4004548,92.3080936 C43.5277897,92.1900814 43.5915694,92.0450105 43.5915694,91.8735631 C43.5915694,91.7716951 43.5646202,91.6830154 43.5118447,91.6077513 C43.4586201,91.5327147 43.3912471,91.4670007 43.3092767,91.4106095 C43.2268571,91.3546731 43.1329841,91.304876 43.0269839,91.2619005 C42.9207592,91.2189249 42.8149837,91.1761768 42.7092081,91.1332012 C42.5713181,91.0849958 42.4334281,91.0299689 42.2957626,90.9683479 C42.1578726,90.9067269 42.0348047,90.8314628 41.9261096,90.7430105 C41.8176391,90.6543308 41.729156,90.5513259 41.6602109,90.4328589 C41.5910414,90.3155289 41.5569057,90.1731866 41.5569057,90.0067416 C41.5569057,89.851211 41.5872236,89.7050032 41.6480838,89.5681181 C41.7089441,89.431233 41.7965289,89.3134482 41.9103892,89.2140814 C42.0244741,89.1149421 42.163487,89.0374042 42.3278771,88.981013 C42.4920426,88.9246218 42.6773182,88.8961988 42.8837041,88.8961988 C43.1275942,88.8961988 43.3512725,88.9391743 43.5554126,89.0251254 C43.7595527,89.1108491 43.9356207,89.2156731 44.0838413,89.3389152 L43.7739256,89.7573015 C43.6414254,89.6552061 43.5039846,89.572211 43.3607047,89.5078614 C43.217874,89.4435117 43.0615687,89.4112232 42.8917888,89.4112232 C42.6483478,89.4112232 42.4693603,89.4676144 42.3555,89.5803968 C42.2416397,89.6927244 42.1845972,89.8246071 42.1845972,89.9746804 C42.1845972,90.065634 42.2084023,90.144991 42.2562372,90.2118418 C42.3038474,90.2791474 42.3674026,90.3380399 42.4471272,90.3889738 C42.5261782,90.4401352 42.61803,90.485612 42.7211107,90.5258589 C42.8244159,90.5661059 42.9315389,90.6074897 43.0429289,90.6504653 C43.1803697,90.7041279 43.3196072,90.7605191 43.4599676,90.8194115 C43.6005525,90.8783039 43.7263154,90.9524311 43.8374808,91.0404286 C43.9488707,91.1291083 44.040498,91.2375704 44.1119133,91.3664971 C44.1833287,91.4954237 44.2190364,91.6509543 44.2190364,91.8333161 C44.2190364,91.9940765 44.1887185,92.1443773 44.1276337,92.283991 C44.0665489,92.4231499 43.9764937,92.5463919 43.8572435,92.6541719 C43.7384425,92.7612697 43.5899974,92.8460839 43.4125819,92.9072501 C43.2349418,92.9688711 43.0321492,93.0000227 42.8046531,93.0000227 C42.5290977,93.0000227 42.2667923,92.9488614 42.0179614,92.8469934 C41.7684569,92.7451254 41.5512913,92.6166535 41.3660156,92.4606682 L41.6921008,92.0181792 Z" id="Fill-48" fill="#213369" mask="url(#mask-4)"></path>
                    <path d="M45.4350062,89.532055 L44.8630097,89.532055 L44.8630097,89.0331748 L45.4668961,88.9929279 L45.5463962,87.8985293 L46.0945876,87.8985293 L46.0945876,88.9929279 L47.1357245,88.9929279 L47.1357245,89.532055 L46.0945876,89.532055 L46.0945876,91.7044804 C46.0945876,91.9457347 46.13838,92.1324169 46.2257403,92.2636174 C46.3131006,92.3952726 46.4680584,92.4607592 46.6908384,92.4607592 C46.7595588,92.4607592 46.833669,92.4502995 46.9131692,92.4284707 C46.9926693,92.407324 47.0643092,92.3829939 47.1278644,92.3561626 L47.2549747,92.8550428 C47.1489746,92.8923337 47.0333176,92.9262139 46.9091268,92.9555465 C46.7849359,92.9851064 46.6614188,93.0001137 46.5396983,93.0001137 C46.3330879,93.0001137 46.1597148,92.9675978 46.0191298,92.9032482 C45.8787695,92.8388985 45.7649092,92.7502188 45.6773243,92.6378912 C45.589964,92.5251088 45.5277563,92.3884511 45.4907012,92.2274633 C45.4534215,92.0664756 45.4350062,91.8895709 45.4350062,91.696522 L45.4350062,89.532055 Z" id="Fill-49" fill="#213369" mask="url(#mask-4)"></path>
                    <path d="M48.2082348,88.9929051 L48.7487906,88.9929051 L48.8044856,89.7007511 L48.8285153,89.7007511 C48.9605663,89.454267 49.120914,89.2582621 49.3088846,89.113646 C49.4970798,88.9688024 49.7021182,88.8960396 49.9251227,88.8960396 C50.0785085,88.8960396 50.2161739,88.9230983 50.338119,88.9767609 L50.2110087,89.5563623 C50.1474535,89.5349883 50.088839,89.518844 50.0365127,89.5079296 C49.9830635,89.4970152 49.917038,89.4917853 49.8375378,89.4917853 C49.6731478,89.4917853 49.5024696,89.5588636 49.3250541,89.6927927 C49.1471895,89.8269491 48.9922316,90.0604724 48.8601806,90.3926802 L48.8601806,92.9032254 L48.2082348,92.9032254 L48.2082348,88.9929051 Z" id="Fill-50" fill="#213369" mask="url(#mask-4)"></path>
                    <path d="M51.4189611,91.8414337 C51.4189611,92.0665438 51.4838637,92.2275315 51.613669,92.3241697 C51.7432497,92.4205804 51.9038219,92.4687858 52.0944874,92.4687858 C52.2797631,92.4687858 52.4560557,92.4246733 52.6226915,92.336221 C52.7897765,92.2475413 52.9658445,92.1177051 53.1515693,91.9458029 L53.1515693,90.8595902 C52.8281791,90.9025658 52.5555431,90.9537271 52.3329878,91.0123922 C52.1102078,91.0717394 51.9314448,91.1413188 51.7966989,91.2215853 C51.6612792,91.3020792 51.5644867,91.3946244 51.506546,91.499221 C51.4479315,91.6038176 51.4189611,91.7181917 51.4189611,91.8414337 M50.7753247,91.8896391 C50.7753247,91.4603384 50.9646427,91.1319961 51.3435034,90.9039301 C51.7223641,90.6760914 52.324903,90.516468 53.1515693,90.4250597 C53.1515693,90.3018176 53.1394422,90.1813042 53.1156371,90.0630645 C53.0916074,89.9452797 53.0491624,89.8404557 52.9883022,89.7492748 C52.9274419,89.6580939 52.8463698,89.5841941 52.7462086,89.5278029 C52.6453738,89.4714117 52.5155685,89.4434435 52.3567929,89.4434435 C52.1288477,89.4434435 51.9184194,89.4866465 51.725059,89.5723702 C51.5312494,89.6580939 51.3581009,89.754732 51.2044905,89.8618298 L50.9419605,89.4031966 C51.1222955,89.2851844 51.3421559,89.1714924 51.6017664,89.0609839 C51.861377,88.9516122 52.1472629,88.8961306 52.4598735,88.8961306 C52.9314843,88.8961306 53.2732898,89.0425658 53.4852901,89.3349814 C53.6970658,89.6273971 53.803066,90.0175878 53.803066,90.5055535 L53.803066,92.9033164 L53.2625102,92.9033164 L53.2068152,92.4364973 L53.1910948,92.4364973 C53.0055946,92.5924826 52.8057214,92.7252748 52.5914754,92.8351012 C52.3765556,92.9447002 52.1501824,93.0001819 51.9116821,93.0001819 C51.5831266,93.0001819 51.3116135,92.9033164 51.0969183,92.7100401 C50.8824477,92.5172186 50.7753247,92.2436758 50.7753247,91.8896391" id="Fill-51" fill="#213369" mask="url(#mask-4)"></path>
                    <path d="M55.3444472,89.532055 L54.7724507,89.532055 L54.7724507,89.0331748 L55.3763371,88.9929279 L55.4558372,87.8985293 L56.0040286,87.8985293 L56.0040286,88.9929279 L57.0451656,88.9929279 L57.0451656,89.532055 L56.0040286,89.532055 L56.0040286,91.7044804 C56.0040286,91.9457347 56.0480456,92.1324169 56.1351813,92.2636174 C56.2225416,92.3952726 56.3774994,92.4607592 56.6002794,92.4607592 C56.6689998,92.4607592 56.7431101,92.4502995 56.8226102,92.4284707 C56.9023349,92.407324 56.9737502,92.3829939 57.0373054,92.3561626 L57.1644157,92.8550428 C57.0584156,92.8923337 56.9429832,92.9262139 56.8185678,92.9555465 C56.694377,92.9851064 56.5708599,93.0001137 56.4491394,93.0001137 C56.2425289,93.0001137 56.0691558,92.9675978 55.9287955,92.9032482 C55.7882105,92.8388985 55.6745748,92.7502188 55.5869899,92.6378912 C55.4994051,92.5251088 55.4371974,92.3884511 55.4001422,92.2274633 C55.3628625,92.0664756 55.3444472,91.8895709 55.3444472,91.696522 L55.3444472,89.532055 Z" id="Fill-52" fill="#213369" mask="url(#mask-4)"></path>
                    <path d="M58.11817,92.9031345 L58.7698912,92.9031345 L58.7698912,88.9928142 L58.11817,88.9928142 L58.11817,92.9031345 Z M58.4518907,88.1881027 C58.325005,88.1881027 58.2176574,88.1480831 58.1300725,88.0678166 C58.0427122,87.9873227 57.9989198,87.8852274 57.9989198,87.7615306 C57.9989198,87.6332861 58.0427122,87.5298264 58.1300725,87.4520611 C58.2176574,87.3742958 58.325005,87.3351858 58.4518907,87.3351858 C58.5790011,87.3351858 58.6863487,87.3742958 58.7739335,87.4520611 C58.8612938,87.5298264 58.9048617,87.6332861 58.9048617,87.7615306 C58.9048617,87.8852274 58.8612938,87.9873227 58.7739335,88.0678166 C58.6863487,88.1480831 58.5790011,88.1881027 58.4518907,88.1881027 Z" id="Fill-53" fill="#213369" mask="url(#mask-4)"></path>
                    <path d="M60.661028,90.9560919 C60.661028,91.181202 60.687528,91.38562 60.7405281,91.5672998 C60.7935282,91.749889 60.8687613,91.9072386 60.9669013,92.0384391 C61.0648167,92.169867 61.1827194,92.271735 61.3208339,92.344043 C61.4584994,92.4165785 61.6094148,92.4527325 61.7735803,92.4527325 C61.9379704,92.4527325 62.0888858,92.4165785 62.2265512,92.344043 C62.3642167,92.271735 62.4821194,92.169867 62.5802593,92.0384391 C62.6781747,91.9072386 62.7534079,91.749889 62.8068571,91.5672998 C62.8598572,91.38562 62.885908,91.181202 62.885908,90.9560919 C62.885908,90.7309819 62.8598572,90.5256543 62.8068571,90.3405638 C62.7534079,90.1554733 62.6781747,89.9958499 62.5802593,89.8619208 C62.4821194,89.7279917 62.3642167,89.624532 62.2265512,89.5519966 C62.0888858,89.4796885 61.9379704,89.4435345 61.7735803,89.4435345 C61.6094148,89.4435345 61.4584994,89.4796885 61.3208339,89.5519966 C61.1827194,89.624532 61.0648167,89.7279917 60.9669013,89.8619208 C60.8687613,89.9958499 60.7935282,90.1554733 60.7405281,90.3405638 C60.687528,90.5256543 60.661028,90.7309819 60.661028,90.9560919 M59.9855017,90.9560919 C59.9855017,90.6291139 60.0346839,90.3380626 60.1323747,90.0831653 C60.2302901,89.828268 60.361892,89.6127081 60.5260575,89.435576 C60.6899984,89.2582166 60.879541,89.1245149 61.0944608,89.0331066 C61.3087068,88.9421531 61.5353046,88.8959941 61.7735803,88.8959941 C62.0123052,88.8959941 62.2384538,88.9421531 62.4529244,89.0331066 C62.6678442,89.1245149 62.8569377,89.2582166 63.0213277,89.435576 C63.1854932,89.6127081 63.3166459,89.828268 63.4147859,90.0831653 C63.5127012,90.3380626 63.5618835,90.6291139 63.5618835,90.9560919 C63.5618835,91.2778401 63.5127012,91.5666176 63.4147859,91.8210601 C63.3166459,92.0759575 63.1854932,92.2906078 63.0213277,92.4650112 C62.8569377,92.6391873 62.6678442,92.7719795 62.4529244,92.8631604 C62.2384538,92.9541139 62.0123052,93.0000455 61.7735803,93.0000455 C61.5353046,93.0000455 61.3087068,92.9541139 61.0944608,92.8631604 C60.879541,92.7719795 60.6899984,92.6391873 60.5260575,92.4650112 C60.361892,92.2906078 60.2302901,92.0759575 60.1323747,91.8210601 C60.0346839,91.5666176 59.9855017,91.2778401 59.9855017,90.9560919" id="Fill-54" fill="#213369" mask="url(#mask-4)"></path>
                    <path d="M64.6183141,88.9929051 L65.1588699,88.9929051 L65.2145649,89.5563623 L65.23837,89.5563623 C65.4238703,89.3685433 65.6183536,89.2116484 65.8224937,89.085223 C66.0264092,88.9597071 66.2633375,88.8960396 66.5335031,88.8960396 C66.9417833,88.8960396 67.2393473,89.0251936 67.4275424,89.2823648 C67.6157376,89.5399907 67.7098352,89.9210861 67.7098352,90.4249687 L67.7098352,92.9032254 L67.058114,92.9032254 L67.058114,90.513421 C67.058114,90.1434675 66.9997241,89.8767462 66.8831688,89.7130298 C66.7666136,89.5495408 66.5811133,89.4676826 66.3268927,89.4676826 C66.1254475,89.4676826 65.948032,89.518844 65.7944216,89.6202572 C65.6410358,89.72258 65.4658661,89.8726533 65.2700353,90.070932 L65.2700353,92.9032254 L64.6183141,92.9032254 L64.6183141,88.9929051 Z" id="Fill-55" fill="#213369" mask="url(#mask-4)"></path>
                </g>
            </g>
        </g>
    </g>
</svg>