<?xml version="1.0" encoding="UTF-8"?>
<svg width="105px" height="82px" viewBox="0 0 105 82" version="1.1" xmlns="http://www.w3.org/2000/svg" xmlns:xlink="http://www.w3.org/1999/xlink">
    <!-- Generator: Sketch 49 (51002) - http://www.bohemiancoding.com/sketch -->
    <title>Page 1</title>
    <desc>Created with Sketch.</desc>
    <defs>
        <polygon id="path-1" points="0.11960674 0.0240601947 29.2173858 0.0240601947 29.2173858 37.1210667 0.11960674 37.1210667"></polygon>
        <polygon id="path-3" points="0.0609961088 0.197052434 5.89099254 0.197052434 5.89099254 22.1533261 0.0609961088 22.1533261"></polygon>
    </defs>
    <g id="Page-1" stroke="none" stroke-width="1" fill="none" fill-rule="evenodd">
        <g id="Tablet" transform="translate(-614.000000, -667.000000)">
            <g id="Page-1" transform="translate(614.000000, 667.000000)">
                <polygon id="Fill-1" fill="#CA2026" points="12 66 12 82 87 82 87 76.0235036 18.5159909 76.0235036 17.8721688 76.0235036 17.8721688 75.3678053 17.8721688 66"></polygon>
                <polygon id="Fill-2" fill="#213369" points="12 0 12 16 17.8834403 16 17.8834403 6.63236022 17.8834403 5.9766735 18.5285593 5.9766735 86.4708841 5.9766735 87.1162814 5.9766735 87.1162814 6.63236022 87.1162814 16 93 16 93 0"></polygon>
                <g id="Group-13" transform="translate(0.000000, 21.000000)">
                    <path d="M7.08165101,26.8209198 C7.1301927,28.8853854 8.11461831,32.8098892 14.555408,32.8098892 C18.0470815,32.8098892 21.9323589,31.9321688 21.9323589,28.0062629 C21.9323589,25.1148332 19.2767121,24.3414298 15.5403883,23.4123922 L11.7535813,22.4813916 C6.04840633,21.0868538 0.541558903,19.7464373 0.541558903,11.5858811 C0.541558903,7.45610852 2.65575782,0.17775941 14.1127077,0.17775941 C24.9308489,0.17775941 27.8322554,7.61062096 27.8830161,12.1545766 L20.8011987,12.1545766 C20.603426,10.5031723 20.0139911,6.57866855 13.5718145,6.57866855 C10.7688783,6.57866855 7.42643574,7.66418153 7.42643574,11.0191485 C7.42643574,13.9105782 9.68764665,14.5317126 11.1622047,14.8914939 L19.7682314,17.113837 C24.587451,18.3530212 29.0130668,20.4163651 29.0130668,27.0752624 C29.0130668,38.230724 18.1932614,39.2110788 15.0968559,39.2110788 C2.21416707,39.2110788 0.000110952449,31.4153514 0.000110952449,26.8209198 L7.08165101,26.8209198 Z" id="Fill-3" fill="#213369"></path>
                    <path d="M45.6962931,31.8283847 L55.0939656,31.8283847 C58.8233547,31.8283847 60.9691751,30.1764196 60.9691751,26.405587 C60.9691751,23.1554977 58.2095103,21.9123877 55.4509551,21.9123877 L45.6962931,21.9123877 L45.6962931,31.8283847 Z M45.6962931,15.6668322 L54.6859379,15.6668322 C57.6988517,15.6668322 60.1006948,14.480087 60.1006948,11.5356575 C60.1006948,8.48803288 57.9540423,7.55871487 54.4809533,7.55871487 L45.6962931,7.55871487 L45.6962931,15.6668322 Z M38.3423648,1.15752531 L56.166321,1.15752531 C65.1559658,1.15752531 67.4535136,6.83803072 67.4535136,10.6587784 C67.4535136,15.9758571 64.491638,17.4755532 62.9591073,18.2483958 C67.4535136,19.9522389 68.6293322,23.5654745 68.6293322,27.2339531 C68.6293322,30.1764196 67.4030302,32.9643736 65.4635814,34.8754485 C63.3690766,36.9390729 61.3760932,38.2309764 53.8690505,38.2309764 L38.3423648,38.2309764 L38.3423648,1.15752531 Z" id="Fill-5" fill="#213369"></path>
                    <g id="Group-9" transform="translate(74.892903, 1.121687)">
                        <mask id="mask-2" fill="white">
                            <use xlink:href="#path-1"></use>
                        </mask>
                        <g id="Clip-8"></g>
                        <polygon id="Fill-7" fill="#213369" mask="url(#mask-2)" points="17.5846317 0.0240601947 11.7671174 0.0240601947 0.11960674 37.1210667 7.47353506 37.1210667 14.610274 12.7655878 21.8637903 37.1210667 29.2174412 37.1210667"></polygon>
                    </g>
                    <g id="Group-12" transform="translate(86.542910, 38.137372)">
                        <mask id="mask-4" fill="white">
                            <use xlink:href="#path-3"></use>
                        </mask>
                        <g id="Clip-11"></g>
                        <polygon id="Fill-10" fill="#213369" mask="url(#mask-4)" points="5.89099254 16.1906322 0.0609961088 22.1535224 0.0609961088 0.197052434 5.89099254 0.197052434"></polygon>
                    </g>
                </g>
            </g>
        </g>
    </g>
</svg>