<?xml version="1.0" encoding="UTF-8"?>
<svg width="137px" height="150px" viewBox="0 0 137 150" version="1.1" xmlns="http://www.w3.org/2000/svg" xmlns:xlink="http://www.w3.org/1999/xlink">
    <!-- Generator: Sketch 49 (51002) - http://www.bohemiancoding.com/sketch -->
    <title>Page 1</title>
    <desc>Created with Sketch.</desc>
    <defs>
        <polygon id="path-1" points="0.157218393 0.349547677 38.4051136 0.349547677 38.4051136 48.8666626 0.157218393 48.8666626"></polygon>
        <polygon id="path-3" points="0 150 136.848913 150 136.848913 0.361613692 0 0.361613692"></polygon>
    </defs>
    <g id="Page-1" stroke="none" stroke-width="1" fill="none" fill-rule="evenodd">
        <g id="Tablet" transform="translate(-581.000000, -106.000000)">
            <g id="Page-1" transform="translate(581.000000, 106.000000)">
                <polygon id="Fill-1" fill="#CA2026" points="114 98.5291581 24.5142597 98.5291581 23.6729957 98.5291581 23.6729957 97.7095497 23.6729957 86 16 86 16 106 114 106"></polygon>
                <polygon id="Fill-2" fill="#213369" points="16 0 16 20 23.771952 20 23.771952 8.29059678 23.771952 7.47062046 24.6241462 7.47062046 114.375119 7.47062046 115.22768 7.47062046 115.22768 8.29059678 115.22768 20 123 20 123 0"></polygon>
                <g id="Group-56">
                    <path d="M9.30855395,63.268533 C9.37236011,65.968533 10.6663492,71.1011736 19.1325159,71.1011736 C23.7221845,71.1011736 28.8292301,69.9532518 28.8292301,64.8187775 C28.8292301,61.0372372 25.3384859,60.0257457 20.4272341,58.810709 L15.449624,57.5931051 C7.95039413,55.7692665 0.711858049,54.0162103 0.711858049,43.3434719 C0.711858049,37.9423716 3.49089003,28.423423 18.5506036,28.423423 C32.7706281,28.423423 36.5844138,38.1444499 36.6511368,44.0872372 L27.3423641,44.0872372 C27.0823996,41.9274572 26.3076104,36.7948166 17.8396206,36.7948166 C14.1552703,36.7948166 9.76176003,38.2144988 9.76176003,42.6022738 C9.76176003,46.3838142 12.7340335,47.1961614 14.6722826,47.6666993 L25.9845689,50.5731785 C32.3192451,52.1938386 38.1365444,54.8923716 38.1365444,63.6011736 C38.1365444,78.1907824 23.9143323,79.472934 19.8442281,79.472934 C2.91043623,79.472934 0.000145842665,69.277335 0.000145842665,63.268533 L9.30855395,63.268533 Z" id="Fill-3" fill="#213369"></path>
                    <path d="M60.0659944,69.8175183 L72.4188681,69.8175183 C77.3210047,69.8175183 80.1416019,67.6570049 80.1416019,62.7253423 C80.1416019,58.4747311 76.5141302,56.8489364 72.8881169,56.8489364 L60.0659944,56.8489364 L60.0659944,69.8175183 Z M60.0659944,48.6807213 L71.8825317,48.6807213 C75.8428893,48.6807213 79.0000184,47.128643 79.0000184,43.2777873 C79.0000184,39.2919682 76.1783274,38.0765648 71.6130874,38.0765648 L60.0659944,38.0765648 L60.0659944,48.6807213 Z M50.3995426,29.7048044 L73.8284375,29.7048044 C85.6449748,29.7048044 88.6650118,37.134022 88.6650118,42.1309658 C88.6650118,49.0848778 84.7717419,51.0462469 82.7572901,52.0570049 C88.6650118,54.2853667 90.2105795,59.0109169 90.2105795,63.8087164 C90.2105795,67.6570049 88.5986534,71.3032152 86.0493236,73.8026039 C83.2961787,76.5015037 80.6764798,78.1911125 70.8087651,78.1911125 L50.3995426,78.1911125 L50.3995426,29.7048044 Z" id="Fill-5" fill="#213369"></path>
                    <g id="Group-9" transform="translate(98.443799, 29.339853)">
                        <mask id="mask-2" fill="white">
                            <use xlink:href="#path-1"></use>
                        </mask>
                        <g id="Clip-8"></g>
                        <polygon id="Fill-7" fill="#213369" mask="url(#mask-2)" points="23.1143123 0.349547677 15.4674168 0.349547677 0.157218393 48.8666626 9.82367024 48.8666626 19.2046351 17.0134841 28.7390993 48.8666626 38.4051865 48.8666626"></polygon>
                    </g>
                    <polygon id="Fill-10" fill="#213369" points="121.500759 99.2435208 113.837456 107.042054 113.837456 78.3264059 121.500759 78.3264059"></polygon>
                    <path d="M15.3838489,126.730636 L16.4546987,126.730636 L16.4546987,131.752885 C16.4546987,132.263399 16.5064728,132.69176 16.6096565,133.037604 C16.7128402,133.383447 16.8528492,133.660709 17.0289542,133.867922 C17.2054238,134.075868 17.4136142,134.225134 17.6549838,134.316088 C17.8952596,134.407042 18.1537657,134.452152 18.4286792,134.452152 C18.7127078,134.452152 18.9752246,134.407042 19.215865,134.316088 C19.45687,134.225134 19.6676126,134.075868 19.8480929,133.867922 C20.0289378,133.660709 20.1704052,133.383447 20.2739535,133.037604 C20.3771372,132.69176 20.4285467,132.263399 20.4285467,131.752885 L20.4285467,126.730636 L21.4607482,126.730636 L21.4607482,131.726846 C21.4607482,132.410098 21.383087,132.985892 21.2288583,133.452763 C21.0739005,133.92 20.8609702,134.298484 20.5897029,134.588582 C20.3191647,134.878313 19.9986755,135.086259 19.6285997,135.211687 C19.2585239,135.336381 18.858915,135.399829 18.4286792,135.399829 C17.9988079,135.399829 17.5966468,135.336381 17.2225603,135.211687 C16.8481093,135.086259 16.525797,134.878313 16.2548942,134.588582 C15.9839915,134.298484 15.7714258,133.92 15.616468,133.452763 C15.4615101,132.985892 15.3838489,132.410098 15.3838489,131.726846 L15.3838489,126.730636 Z" id="Fill-12" fill="#213369"></path>
                    <path d="M22.2478246,134.594963 C22.2478246,134.344108 22.3232982,134.14313 22.4735161,133.991663 C22.6240987,133.840196 22.806402,133.763912 23.0215199,133.763912 C23.2282519,133.763912 23.4069092,133.840196 23.5571271,133.991663 C23.7077097,134.14313 23.7828186,134.344108 23.7828186,134.594963 C23.7828186,134.828949 23.7077097,135.021125 23.5571271,135.172592 C23.4069092,135.323325 23.2282519,135.399609 23.0215199,135.399609 C22.806402,135.399609 22.6240987,135.323325 22.4735161,135.172592 C22.3232982,135.021125 22.2478246,134.828949 22.2478246,134.594963" id="Fill-14" fill="#213369"></path>
                    <path d="M25.6149307,133.387995 C25.9160958,133.708166 26.270858,133.965623 26.6795821,134.16 C27.0879416,134.35511 27.5116145,134.451932 27.9502363,134.451932 C28.5091783,134.451932 28.9437895,134.324303 29.2533405,134.069046 C29.5632562,133.814523 29.7174848,133.478949 29.7174848,133.06379 C29.7174848,132.847408 29.6810242,132.663301 29.6081028,132.511834 C29.5351815,132.360733 29.4363731,132.230905 29.3116776,132.123081 C29.1866175,132.014523 29.0382226,131.917335 28.8664929,131.830416 C28.6940339,131.744597 28.5091783,131.653643 28.3115615,131.558289 L27.0988798,131.026137 C26.9008984,130.939584 26.6985417,130.835795 26.4925389,130.714401 C26.2858069,130.593741 26.1005867,130.446675 25.9379722,130.273203 C25.7738992,130.100465 25.6408177,129.895086 25.537634,129.656333 C25.4340858,129.419046 25.3826762,129.144352 25.3826762,128.832616 C25.3826762,128.512812 25.4493992,128.214279 25.5832099,127.937384 C25.7159267,127.660856 25.9007823,127.420636 26.1377766,127.216724 C26.3740417,127.013912 26.653695,126.855844 26.9760073,126.743619 C27.2990488,126.631027 27.6538111,126.574548 28.0406588,126.574548 C28.5481913,126.574548 29.0170754,126.672103 29.4469467,126.866846 C29.8771825,127.061589 30.2425184,127.314279 30.5436835,127.625648 L29.9628651,128.326504 C29.7047236,128.076015 29.418872,127.878704 29.1049456,127.736406 C28.7910193,127.593374 28.436257,127.521858 28.0406588,127.521858 C27.5670347,127.521858 27.1871146,127.632616 26.8990753,127.852665 C26.6103068,128.073447 26.4666518,128.378582 26.4666518,128.767335 C26.4666518,128.975648 26.5071232,129.150587 26.5891597,129.293619 C26.6708316,129.43665 26.7805782,129.561711 26.9180349,129.669535 C27.0558562,129.778093 27.2060741,129.873447 27.3694179,129.955599 C27.5331263,130.037751 27.7008454,130.113301 27.8725751,130.182616 L29.0724956,130.701565 C29.3135006,130.805355 29.5413798,130.924548 29.7564977,131.058044 C29.9716157,131.193007 30.1568359,131.348509 30.3110645,131.525281 C30.4660223,131.703154 30.5892594,131.910733 30.6789526,132.148386 C30.769375,132.386773 30.8149509,132.661467 30.8149509,132.972836 C30.8149509,133.309878 30.7478633,133.626015 30.6147818,133.91978 C30.4813358,134.214279 30.2899173,134.471736 30.0405263,134.692152 C29.7907708,134.912934 29.4896057,135.086406 29.137031,135.211834 C28.7844564,135.336161 28.3848475,135.399609 27.9371105,135.399609 C27.3438955,135.399609 26.7933394,135.28665 26.2858069,135.061834 C25.7782744,134.837017 25.3400172,134.529682 24.9699415,134.140929 L25.6149307,133.387995 Z" id="Fill-16" fill="#213369"></path>
                    <path d="M31.9629514,134.594963 C31.9629514,134.344108 32.038425,134.14313 32.1886429,133.991663 C32.3392255,133.840196 32.5215288,133.763912 32.7366468,133.763912 C32.9433787,133.763912 33.1216714,133.840196 33.2722539,133.991663 C33.4228365,134.14313 33.4979455,134.344108 33.4979455,134.594963 C33.4979455,134.828949 33.4228365,135.021125 33.2722539,135.172592 C33.1216714,135.323325 32.9433787,135.399609 32.7366468,135.399609 C32.5215288,135.399609 32.3392255,135.323325 32.1886429,135.172592 C32.038425,135.021125 31.9629514,134.828949 31.9629514,134.594963" id="Fill-18" fill="#213369"></path>
                    <path d="M38.516975,133.387995 C38.8177754,133.708166 39.1729023,133.965623 39.5816264,134.16 C39.9896213,134.35511 40.4136588,134.451932 40.8522806,134.451932 C41.4112226,134.451932 41.8458338,134.324303 42.1553848,134.069046 C42.4653005,133.814523 42.6195291,133.478949 42.6195291,133.06379 C42.6195291,132.847408 42.5830685,132.663301 42.5101471,132.511834 C42.4372258,132.360733 42.3384174,132.230905 42.2137219,132.123081 C42.0882972,132.014523 41.9402669,131.917335 41.7685372,131.830416 C41.5960782,131.744597 41.4112226,131.653643 41.2136058,131.558289 L40.0009241,131.026137 C39.802578,130.939584 39.600586,130.835795 39.3945832,130.714401 C39.1878512,130.593741 39.002631,130.446675 38.8396518,130.273203 C38.6759435,130.100465 38.542862,129.895086 38.4396783,129.656333 C38.33613,129.419046 38.2843559,129.144352 38.2843559,128.832616 C38.2843559,128.512812 38.3514435,128.214279 38.4848896,127.937384 C38.617971,127.660856 38.8028266,127.420636 39.0398209,127.216724 C39.276086,127.013912 39.5557393,126.855844 39.8780516,126.743619 C40.2007285,126.631027 40.5554908,126.574548 40.9423385,126.574548 C41.4498709,126.574548 41.9191197,126.672103 42.348991,126.866846 C42.7788622,127.061589 43.1445627,127.314279 43.4457278,127.625648 L42.8649094,128.326504 C42.6067679,128.076015 42.3209163,127.878704 42.0069899,127.736406 C41.6930636,127.593374 41.3383013,127.521858 40.9423385,127.521858 C40.469079,127.521858 40.0891589,127.632616 39.8011196,127.852665 C39.5123511,128.073447 39.3686961,128.378582 39.3686961,128.767335 C39.3686961,128.975648 39.4091675,129.150587 39.491204,129.293619 C39.5725112,129.43665 39.6826225,129.561711 39.8200792,129.669535 C39.9579005,129.778093 40.1081184,129.873447 40.2714622,129.955599 C40.434806,130.037751 40.6028897,130.113301 40.7746194,130.182616 L41.9745399,130.701565 C42.2155449,130.805355 42.4434241,130.924548 42.6581774,131.058044 C42.8732954,131.193007 43.0588802,131.348509 43.2131088,131.525281 C43.3680666,131.703154 43.490939,131.910733 43.5809969,132.148386 C43.6714193,132.386773 43.7166306,132.661467 43.7166306,132.972836 C43.7166306,133.309878 43.6499076,133.626015 43.5168261,133.91978 C43.3833801,134.214279 43.191597,134.471736 42.9425706,134.692152 C42.6928151,134.912934 42.39165,135.086406 42.0390753,135.211834 C41.6865007,135.336161 41.2868918,135.399609 40.8391548,135.399609 C40.2455751,135.399609 39.6953837,135.28665 39.1878512,135.061834 C38.6803187,134.837017 38.2420615,134.529682 37.8716212,134.140929 L38.516975,133.387995 Z" id="Fill-20" fill="#213369"></path>
                    <path d="M45.5999334,128.936516 L46.4775416,128.936516 L46.5679641,129.845318 L46.6066124,129.845318 C46.8818904,129.542384 47.1805033,129.289694 47.5031801,129.085416 C47.8254924,128.882971 48.1758794,128.780648 48.5547058,128.780648 C49.0359866,128.780648 49.4129898,128.886638 49.683528,129.098619 C49.9547953,129.310966 50.1545998,129.607298 50.2836706,129.987616 C50.6103581,129.624535 50.9395979,129.332237 51.2706608,129.111822 C51.601359,128.891406 51.9608612,128.780648 52.3477089,128.780648 C52.9926981,128.780648 53.4721558,128.988594 53.7868114,129.403386 C54.1003731,129.819279 54.257154,130.433582 54.257154,131.246296 L54.257154,135.243851 L53.19943,135.243851 L53.19943,131.388961 C53.19943,130.792628 53.1046323,130.362066 52.9150368,130.098374 C52.7261706,129.834315 52.4333914,129.702286 52.0381578,129.702286 C51.5648984,129.702286 51.040594,130.026491 50.4637863,130.675269 L50.4637863,135.243851 L49.4060623,135.243851 L49.4060623,131.388961 C49.4060623,130.792628 49.3112646,130.362066 49.1227629,130.098374 C48.9328029,129.834315 48.6363777,129.702286 48.2320289,129.702286 C47.7587694,129.702286 47.234465,130.026491 46.6583865,130.675269 L46.6583865,135.243851 L45.5999334,135.243851 L45.5999334,128.936516 Z" id="Fill-22" fill="#213369"></path>
                    <path d="M57.0959085,133.53088 C57.0959085,133.893961 57.2016445,134.153619 57.4120225,134.309487 C57.6227652,134.464988 57.8830943,134.543105 58.1926454,134.543105 C58.4934459,134.543105 58.7800267,134.471589 59.0505648,134.328924 C59.3214676,134.185892 59.6073192,133.976479 59.9088489,133.699218 L59.9088489,131.947262 C59.3838153,132.016577 58.9411828,132.099462 58.5798576,132.193716 C58.2185324,132.289438 57.9279409,132.402029 57.7091769,132.531125 C57.4896837,132.66132 57.3321736,132.81022 57.2381051,132.978924 C57.1429428,133.147995 57.0959085,133.332103 57.0959085,133.53088 M56.0509458,133.608998 C56.0509458,132.91621 56.3583092,132.386626 56.9737653,132.019144 C57.5884921,131.651296 58.5670964,131.393839 59.9088489,131.246406 C59.9088489,131.047628 59.8891602,130.853252 59.8505119,130.662543 C59.8118636,130.472567 59.7425883,130.303863 59.6437799,130.15643 C59.5449715,130.009364 59.4137131,129.890171 59.2510985,129.799218 C59.0870255,129.708631 58.8762829,129.663154 58.618506,129.663154 C58.2487948,129.663154 57.9067937,129.732836 57.5928674,129.8711 C57.2782119,130.009364 56.9971001,130.165232 56.7477092,130.338337 L56.321484,129.59824 C56.6142631,129.408264 56.971213,129.224523 57.393063,129.046284 C57.8141837,128.869878 58.2783279,128.780758 58.7858604,128.780758 C59.551899,128.780758 60.1064657,129.016577 60.4506544,129.488582 C60.7944785,129.959853 60.9669375,130.589193 60.9669375,131.376235 L60.9669375,135.243961 L60.0889646,135.243961 L59.9985422,134.491027 L59.9730197,134.491027 C59.6718546,134.742249 59.3473547,134.95643 58.9995199,135.13357 C58.6505913,135.310709 58.2827032,135.399829 57.8962202,135.399829 C57.362436,135.399829 56.9219911,135.243961 56.5730626,134.931858 C56.2252278,134.620856 56.0509458,134.180024 56.0509458,133.608998" id="Fill-24" fill="#213369"></path>
                    <path d="M63.2883516,126.003594 L64.3468048,126.003594 L64.3468048,134.049682 C64.3468048,134.223154 64.3763379,134.344181 64.436498,134.41313 C64.4966581,134.482445 64.5655688,134.516919 64.64323,134.516919 L64.7398508,134.516919 C64.7701131,134.516919 64.8149597,134.508484 64.875849,134.491247 L65.017681,135.295892 C64.9487704,135.330367 64.8667339,135.356039 64.7723007,135.373643 C64.677503,135.39088 64.5571828,135.399682 64.4109755,135.399682 C64.0066268,135.399682 63.7185875,135.278289 63.5464931,135.035868 C63.3743988,134.794181 63.2883516,134.439169 63.2883516,133.971932 L63.2883516,126.003594 Z" id="Fill-26" fill="#213369"></path>
                    <path d="M66.9009474,126.003594 L67.9594005,126.003594 L67.9594005,134.049682 C67.9594005,134.223154 67.9889337,134.344181 68.0490938,134.41313 C68.1092538,134.482445 68.1781645,134.516919 68.2558257,134.516919 L68.3520819,134.516919 C68.3827088,134.516919 68.4275555,134.508484 68.4880802,134.491247 L68.6302768,135.295892 C68.5610015,135.330367 68.4793296,135.356039 68.3848965,135.373643 C68.2900988,135.39088 68.1697786,135.399682 68.0232067,135.399682 C67.6188579,135.399682 67.3311832,135.278289 67.1590889,135.035868 C66.9866299,134.794181 66.9009474,134.439169 66.9009474,133.971932 L66.9009474,126.003594 Z" id="Fill-28" fill="#213369"></path>
                    <path d="M76.086957,134.38687 C76.8179934,134.38687 77.3860506,134.250807 77.7900347,133.97868 C78.1940189,133.706186 78.3963756,133.280024 78.3963756,132.699829 C78.3963756,132.172812 78.1987588,131.785159 77.802796,131.538337 C77.4071977,131.292249 76.8354945,131.169022 76.086957,131.169022 L74.6161337,131.169022 L74.6161337,134.38687 L76.086957,134.38687 Z M75.8674638,130.36401 C76.5985002,130.36401 77.1213461,130.238582 77.4349078,129.987726 C77.7491988,129.736504 77.9059797,129.373423 77.9059797,128.897384 C77.9059797,128.430513 77.7404482,128.094939 77.4093854,127.89176 C77.0783225,127.688949 76.5817283,127.586626 75.919238,127.586626 L74.6161337,127.586626 L74.6161337,130.36401 L75.8674638,130.36401 Z M73.545284,126.730636 L76.0614345,126.730636 C76.4913058,126.730636 76.8847164,126.769144 77.2420309,126.846528 C77.5986162,126.924645 77.903792,127.046039 78.1579229,127.210709 C78.4116891,127.375012 78.6093059,127.589193 78.7515025,127.852885 C78.8933345,128.116944 78.9640682,128.434914 78.9640682,128.80643 C78.9640682,129.230758 78.8441126,129.613643 78.602743,129.955452 C78.3621026,130.297262 77.9923914,130.533081 77.4932449,130.662543 L77.4932449,130.714254 C78.1130762,130.809609 78.5947216,131.02599 78.9381811,131.363399 C79.2823698,131.701174 79.4544642,132.163643 79.4544642,132.751907 C79.4544642,133.167066 79.3771675,133.53088 79.2225743,133.842249 C79.0672519,134.153619 78.8481233,134.41291 78.5644593,134.620856 C78.2804307,134.828802 77.9406173,134.983936 77.5450191,135.087726 C77.1494208,135.191883 76.7148097,135.243961 76.2422795,135.243961 L73.545284,135.243961 L73.545284,126.730636 Z" id="Fill-30" fill="#213369"></path>
                    <path d="M81.0027299,128.936516 L82.0739443,128.936516 L82.0739443,132.791039 C82.0739443,133.388105 82.1658251,133.818667 82.3514099,134.081993 C82.5359009,134.346418 82.8345138,134.477714 83.2479777,134.477714 C83.5750299,134.477714 83.8630692,134.393729 84.1120955,134.225024 C84.3618511,134.055954 84.6371291,133.786394 84.9379296,133.414144 L84.9379296,128.936516 L85.9956535,128.936516 L85.9956535,135.243851 L85.1187745,135.243851 L85.0283521,134.257665 L84.9897037,134.257665 C84.6972892,134.603142 84.3895612,134.88077 84.0672489,135.087616 C83.7449366,135.295929 83.3642872,135.399719 82.9249362,135.399719 C82.2544246,135.399719 81.7665808,135.192139 81.4610405,134.77698 C81.1555001,134.361088 81.0027299,133.747152 81.0027299,132.933704 L81.0027299,128.936516 Z" id="Fill-32" fill="#213369"></path>
                    <path d="M88.2670801,133.81599 C88.5419935,134.041174 88.8231053,134.223081 89.1118738,134.360978 C89.399913,134.499976 89.7331635,134.568924 90.1119898,134.568924 C90.52436,134.568924 90.833911,134.473936 91.040643,134.283594 C91.247375,134.093619 91.3505587,133.859633 91.3505587,133.582738 C91.3505587,133.418435 91.3075351,133.275403 91.2214879,133.15401 C91.1347115,133.03335 91.0253295,132.926993 90.8922481,132.836039 C90.7588021,132.745819 90.6060319,132.665501 90.4339375,132.596186 C90.2618432,132.527237 90.0901134,132.457922 89.9180191,132.388606 C89.6941506,132.310856 89.4710113,132.222103 89.2471428,132.123081 C89.0232743,132.023325 88.8231053,131.901932 88.6470003,131.759267 C88.4708952,131.616235 88.3268756,131.450465 88.215306,131.259389 C88.1030071,131.06978 88.0472223,130.840562 88.0472223,130.572103 C88.0472223,130.32088 88.0968088,130.085061 88.1956172,129.864645 C88.2944256,129.643496 88.4366222,129.453521 88.6214778,129.293619 C88.8063334,129.13335 89.0323895,129.008289 89.298917,128.917335 C89.5658091,128.826381 89.8666095,128.780905 90.2020477,128.780905 C90.5976459,128.780905 90.9611588,128.85022 91.2922216,128.988484 C91.6232845,129.126748 91.9091361,129.295819 92.1497765,129.494597 L91.6473485,130.169413 C91.4322306,130.004743 91.2083621,129.871247 90.9761076,129.767457 C90.7442178,129.663301 90.4904516,129.611222 90.2148089,129.611222 C89.8195753,129.611222 89.5293484,129.702176 89.3437636,129.884083 C89.158908,130.065257 89.0662979,130.277971 89.0662979,130.520391 C89.0662979,130.66709 89.1053108,130.794719 89.1829721,130.902543 C89.2602687,131.0111 89.3634524,131.106088 89.4925231,131.18824 C89.6212293,131.270758 89.7699888,131.344108 89.9373432,131.409389 C90.1050623,131.473936 90.2793443,131.540685 90.4601892,131.61 C90.6836931,131.696553 90.9093846,131.787506 91.1372638,131.882494 C91.3651429,131.977482 91.5696873,132.097042 91.7505322,132.23934 C91.9310125,132.382372 92.0794074,132.556944 92.1953523,132.765257 C92.3120264,132.972836 92.3696343,133.223692 92.3696343,133.518191 C92.3696343,133.777115 92.3200478,134.019535 92.221604,134.244719 C92.1220664,134.469535 91.9762237,134.668313 91.7826176,134.841785 C91.5890114,135.014523 91.348371,135.15132 91.0603318,135.249976 C90.7715633,135.349731 90.4426881,135.399609 90.0733415,135.399609 C89.6259692,135.399609 89.2001086,135.317457 88.7957598,135.153154 C88.3910464,134.988484 88.0384717,134.781271 87.7376712,134.529682 L88.2670801,133.81599 Z" id="Fill-34" fill="#213369"></path>
                    <mask id="mask-4" fill="white">
                        <use xlink:href="#path-3"></use>
                    </mask>
                    <g id="Clip-37"></g>
                    <path d="M94.1622229,135.243888 L95.2203115,135.243888 L95.2203115,128.936553 L94.1622229,128.936553 L94.1622229,135.243888 Z M94.7043931,127.638631 C94.4980257,127.638631 94.3241083,127.573716 94.1819117,127.444621 C94.0400797,127.314425 93.969346,127.150122 93.969346,126.950978 C93.969346,126.743399 94.0400797,126.576895 94.1819117,126.451467 C94.3241083,126.326406 94.4980257,126.262958 94.7043931,126.262958 C94.9107604,126.262958 95.0850424,126.326406 95.2268744,126.451467 C95.369071,126.576895 95.4394401,126.743399 95.4394401,126.950978 C95.4394401,127.150122 95.369071,127.314425 95.2268744,127.444621 C95.0850424,127.573716 94.9107604,127.638631 94.7043931,127.638631 Z" id="Fill-36" fill="#213369" mask="url(#mask-4)"></path>
                    <path d="M97.6592748,128.936516 L98.5368831,128.936516 L98.6269409,129.845318 L98.6659538,129.845318 C98.9667543,129.542384 99.2828683,129.289694 99.6142958,129.085416 C99.944994,128.882971 100.330019,128.780648 100.76864,128.780648 C101.431131,128.780648 101.914599,128.988594 102.22014,129.403386 C102.52568,129.819279 102.67845,130.433582 102.67845,131.246296 L102.67845,135.243851 L101.620362,135.243851 L101.620362,131.388961 C101.620362,130.792628 101.525564,130.362066 101.336333,130.098374 C101.146738,129.834315 100.845937,129.702286 100.433202,129.702286 C100.10615,129.702286 99.8181109,129.784804 99.5687199,129.948741 C99.3196936,130.113411 99.0353004,130.355831 98.7173634,130.675269 L98.7173634,135.243851 L97.6592748,135.243851 L97.6592748,128.936516 Z" id="Fill-38" fill="#213369" mask="url(#mask-4)"></path>
                    <path d="M108.961717,131.62302 C108.961717,130.973875 108.826448,130.478765 108.55518,130.136956 C108.284642,129.795513 107.903993,129.624609 107.413232,129.624609 C107.189728,129.624609 106.976798,129.669719 106.774806,129.760672 C106.572449,129.851626 106.389417,129.981088 106.226073,130.150159 C106.062729,130.318496 105.92746,130.526443 105.820266,130.773264 C105.712342,131.019352 105.641244,131.302848 105.606971,131.62302 L108.961717,131.62302 Z M104.574769,132.10346 C104.574769,131.584144 104.654618,131.119474 104.813587,130.70835 C104.972555,130.297225 105.183663,129.948814 105.44545,129.663117 C105.707967,129.377787 106.006944,129.159572 106.342018,129.008105 C106.677821,128.857005 107.02602,128.780721 107.387345,128.780721 C107.783308,128.780721 108.137706,128.850037 108.451997,128.988301 C108.765558,129.126565 109.028075,129.326076 109.239182,129.585367 C109.44956,129.845024 109.610352,130.156394 109.723015,130.520208 C109.83495,130.882922 109.89037,131.290012 109.89037,131.740012 C109.89037,131.973264 109.877609,132.168007 109.852086,132.323875 L105.619732,132.323875 C105.662756,133.007127 105.870946,133.548447 106.245762,133.946002 C106.619484,134.344291 107.107692,134.543068 107.710022,134.543068 C108.011187,134.543068 108.288288,134.497958 108.542419,134.407005 C108.795821,134.316051 109.039013,134.197592 109.270903,134.049792 L109.645354,134.750648 C109.369712,134.923753 109.0649,135.074853 108.729098,135.205049 C108.39366,135.334878 108.011187,135.399792 107.580951,135.399792 C107.159466,135.399792 106.76642,135.323509 106.40072,135.172775 C106.034654,135.021308 105.717082,134.804927 105.44545,134.523631 C105.174912,134.242702 104.961617,133.898325 104.807024,133.491968 C104.652431,133.085244 104.574769,132.622408 104.574769,132.10346 Z" id="Fill-39" fill="#213369" mask="url(#mask-4)"></path>
                    <path d="M111.59301,133.81599 C111.868288,134.041174 112.1494,134.223081 112.438168,134.360978 C112.726208,134.499976 113.059094,134.568924 113.438284,134.568924 C113.850655,134.568924 114.160206,134.473936 114.366573,134.283594 C114.57367,134.093619 114.676853,133.859633 114.676853,133.582738 C114.676853,133.418435 114.633465,133.275403 114.547783,133.15401 C114.461006,133.03335 114.351624,132.926993 114.218543,132.836039 C114.085097,132.745819 113.932326,132.665501 113.760232,132.596186 C113.588138,132.527237 113.416408,132.457922 113.244314,132.388606 C113.020445,132.310856 112.796941,132.222103 112.573437,132.123081 C112.349569,132.023325 112.1494,131.901932 111.973295,131.759267 C111.79719,131.616235 111.65317,131.450465 111.541236,131.259389 C111.429302,131.06978 111.373517,130.840562 111.373517,130.572103 C111.373517,130.32088 111.423103,130.085061 111.521912,129.864645 C111.62072,129.643496 111.762917,129.453521 111.947408,129.293619 C112.132628,129.13335 112.358684,129.008289 112.625212,128.917335 C112.892104,128.826381 113.192904,128.780905 113.527978,128.780905 C113.923941,128.780905 114.287089,128.85022 114.618516,128.988484 C114.949579,129.126748 115.235431,129.295819 115.476071,129.494597 L114.973279,130.169413 C114.758161,130.004743 114.534657,129.871247 114.302402,129.767457 C114.070512,129.663301 113.816746,129.611222 113.541104,129.611222 C113.14587,129.611222 112.855278,129.702176 112.670058,129.884083 C112.485203,130.065257 112.392593,130.277971 112.392593,130.520391 C112.392593,130.66709 112.431605,130.794719 112.508902,130.902543 C112.586563,131.0111 112.689747,131.106088 112.818818,131.18824 C112.947524,131.270758 113.096283,131.344108 113.263638,131.409389 C113.431357,131.473936 113.605639,131.540685 113.786484,131.61 C114.009623,131.696553 114.235315,131.787506 114.463558,131.882494 C114.691438,131.977482 114.895982,132.097042 115.076462,132.23934 C115.257307,132.382372 115.405702,132.556944 115.521647,132.765257 C115.637956,132.972836 115.695929,133.223692 115.695929,133.518191 C115.695929,133.777115 115.646342,134.019535 115.547534,134.244719 C115.447996,134.469535 115.302154,134.668313 115.108548,134.841785 C114.915306,135.014523 114.674301,135.15132 114.386262,135.249976 C114.097858,135.349731 113.768983,135.399609 113.399272,135.399609 C112.952264,135.399609 112.526403,135.317457 112.122054,135.153154 C111.717341,134.988484 111.364766,134.781271 111.063601,134.529682 L111.59301,133.81599 Z" id="Fill-40" fill="#213369" mask="url(#mask-4)"></path>
                    <path d="M117.321674,133.81599 C117.596952,134.041174 117.878063,134.223081 118.166832,134.360978 C118.454871,134.499976 118.787757,134.568924 119.166948,134.568924 C119.579318,134.568924 119.888869,134.473936 120.095236,134.283594 C120.302333,134.093619 120.405517,133.859633 120.405517,133.582738 C120.405517,133.418435 120.362129,133.275403 120.276446,133.15401 C120.18967,133.03335 120.080288,132.926993 119.947206,132.836039 C119.81376,132.745819 119.66099,132.665501 119.488896,132.596186 C119.316801,132.527237 119.145071,132.457922 118.972977,132.388606 C118.749109,132.310856 118.525605,132.222103 118.302101,132.123081 C118.078232,132.023325 117.878063,131.901932 117.701958,131.759267 C117.525853,131.616235 117.381834,131.450465 117.269899,131.259389 C117.157965,131.06978 117.10218,130.840562 117.10218,130.572103 C117.10218,130.32088 117.151767,130.085061 117.250575,129.864645 C117.349384,129.643496 117.49158,129.453521 117.676071,129.293619 C117.861291,129.13335 118.087348,129.008289 118.353875,128.917335 C118.620767,128.826381 118.921568,128.780905 119.256641,128.780905 C119.652604,128.780905 120.015752,128.85022 120.34718,128.988484 C120.678243,129.126748 120.964094,129.295819 121.204735,129.494597 L120.701942,130.169413 C120.486824,130.004743 120.26332,129.871247 120.031066,129.767457 C119.799176,129.663301 119.54541,129.611222 119.269767,129.611222 C118.874533,129.611222 118.583942,129.702176 118.398722,129.884083 C118.213866,130.065257 118.121256,130.277971 118.121256,130.520391 C118.121256,130.66709 118.160269,130.794719 118.237566,130.902543 C118.315227,131.0111 118.41841,131.106088 118.547481,131.18824 C118.676187,131.270758 118.824947,131.344108 118.992301,131.409389 C119.16002,131.473936 119.334302,131.540685 119.515147,131.61 C119.738287,131.696553 119.963978,131.787506 120.191857,131.882494 C120.420101,131.977482 120.624645,132.097042 120.805126,132.23934 C120.985971,132.382372 121.134365,132.556944 121.25031,132.765257 C121.36662,132.972836 121.424592,133.223692 121.424592,133.518191 C121.424592,133.777115 121.375006,134.019535 121.276197,134.244719 C121.17666,134.469535 121.030817,134.668313 120.837211,134.841785 C120.643969,135.014523 120.402964,135.15132 120.114925,135.249976 C119.826521,135.349731 119.497646,135.399609 119.127935,135.399609 C118.680927,135.399609 118.255067,135.317457 117.850718,135.153154 C117.446004,134.988484 117.09343,134.781271 116.792265,134.529682 L117.321674,133.81599 Z" id="Fill-41" fill="#213369" mask="url(#mask-4)"></path>
                    <path d="M31.6017356,146.379242 L31.2017621,145.08132 C31.0471689,144.605281 30.9009616,144.132176 30.7635049,143.659804 C30.625319,143.1889 30.4874976,142.705892 30.3500409,142.212983 L30.2986314,142.212983 C30.1699252,142.705892 30.0364792,143.1889 29.8986579,143.659804 C29.7612012,144.132176 29.6153585,144.605281 29.4600361,145.08132 L29.0596979,146.379242 L31.6017356,146.379242 Z M31.873003,147.248435 L28.7891598,147.248435 L27.9764516,149.843912 L26.8797147,149.843912 L29.7437,141.330587 L30.9563818,141.330587 L33.8210964,149.843912 L32.67295,149.843912 L31.873003,147.248435 Z" id="Fill-42" fill="#213369" mask="url(#mask-4)"></path>
                    <path d="M35.8851711,146.690465 C35.8851711,147.451834 36.0357537,148.044499 36.3372834,148.46846 C36.6380839,148.892421 37.0635799,149.104401 37.6137713,149.104401 C37.9061859,149.104401 38.1821931,149.033252 38.4396054,148.89022 C38.6981115,148.747188 38.9558885,148.52934 39.21403,148.235208 L39.21403,144.938509 C38.9471379,144.696455 38.691184,144.525183 38.4465329,144.425795 C38.2011527,144.326406 37.9495741,144.276528 37.6914325,144.276528 C37.4420416,144.276528 37.2079641,144.334841 36.9884709,144.451834 C36.7689777,144.568826 36.5771946,144.732763 36.4142154,144.944743 C36.250507,145.15709 36.1214363,145.410147 36.0273677,145.704645 C35.9322054,145.998411 35.8851711,146.327384 35.8851711,146.690465 M34.7884343,146.703301 C34.7884343,146.193154 34.8639079,145.732885 35.0141258,145.32176 C35.1647084,144.910269 35.3645128,144.561858 35.614633,144.276528 C35.8636593,143.990831 36.1516986,143.770416 36.4783862,143.614548 C36.8054384,143.45868 37.149627,143.380929 37.5109522,143.380929 C37.8722774,143.380929 38.1862038,143.445844 38.4527313,143.575672 C38.7192587,143.705501 38.9901615,143.883007 39.2658041,144.107824 L39.21403,143.030685 L39.21403,140.603912 L40.2848797,140.603912 L40.2848797,149.844132 L39.4076361,149.844132 L39.3175783,149.104401 L39.2785653,149.104401 C39.0288098,149.346455 38.7429582,149.556601 38.4206459,149.734108 C38.097969,149.910513 37.7515926,150 37.3818815,150 C36.5903204,150 35.9602801,149.714303 35.4913959,149.14291 C35.0228764,148.572249 34.7884343,147.758802 34.7884343,146.703301" id="Fill-43" fill="#213369" mask="url(#mask-4)"></path>
                    <path d="M42.4649724,143.536944 L43.3425806,143.536944 L43.433003,144.445746 L43.4716514,144.445746 C43.7469294,144.142812 44.0455422,143.889756 44.3682191,143.685844 C44.6905314,143.483399 45.0409184,143.380709 45.4197448,143.380709 C45.9010255,143.380709 46.2780288,143.487066 46.548567,143.69868 C46.8194697,143.911394 47.0196388,144.207726 47.1487095,144.587677 C47.4753971,144.224597 47.8046369,143.932665 48.1356998,143.711883 C48.466398,143.491467 48.8259002,143.380709 49.2127479,143.380709 C49.8577371,143.380709 50.3371948,143.589022 50.6518504,144.003814 C50.9654121,144.41934 51.122193,145.03401 51.122193,145.846724 L51.122193,149.843912 L50.064469,149.843912 L50.064469,145.989389 C50.064469,145.392689 49.9696713,144.962494 49.7800758,144.698435 C49.590845,144.434743 49.2984304,144.302714 48.9031968,144.302714 C48.4299374,144.302714 47.905633,144.626919 47.3288252,145.275697 L47.3288252,149.843912 L46.2711013,149.843912 L46.2711013,145.989389 C46.2711013,145.392689 46.1763036,144.962494 45.9878019,144.698435 C45.7978419,144.434743 45.5014166,144.302714 45.0970679,144.302714 C44.6238084,144.302714 44.0991394,144.626919 43.5234255,145.275697 L43.5234255,149.843912 L42.4649724,149.843912 L42.4649724,143.536944 Z" id="Fill-44" fill="#213369" mask="url(#mask-4)"></path>
                    <path d="M53.4830576,149.843765 L54.5415107,149.843765 L54.5415107,143.536797 L53.4830576,143.536797 L53.4830576,149.843765 Z M54.0252277,142.238875 C53.8188603,142.238875 53.6449429,142.174328 53.5027463,142.044866 C53.3609143,141.915037 53.2901806,141.750367 53.2901806,141.550856 C53.2901806,141.34401 53.3609143,141.177139 53.5027463,141.051711 C53.6449429,140.926284 53.8188603,140.863203 54.0252277,140.863203 C54.231595,140.863203 54.4055124,140.926284 54.547709,141.051711 C54.6899056,141.177139 54.7606393,141.34401 54.7606393,141.550856 C54.7606393,141.750367 54.6899056,141.915037 54.547709,142.044866 C54.4055124,142.174328 54.231595,142.238875 54.0252277,142.238875 Z" id="Fill-45" fill="#213369" mask="url(#mask-4)"></path>
                    <path d="M56.9794532,143.536944 L57.8570614,143.536944 L57.9474839,144.445746 L57.9861322,144.445746 C58.2869327,144.142812 58.6034112,143.889756 58.9344741,143.685844 C59.2651723,143.483399 59.650197,143.380709 60.0888188,143.380709 C60.7513091,143.380709 61.2347775,143.589022 61.5403179,144.003814 C61.8458583,144.41934 61.9986285,145.03401 61.9986285,145.846724 L61.9986285,149.843912 L60.9405399,149.843912 L60.9405399,145.989389 C60.9405399,145.392689 60.8457422,144.962494 60.6565114,144.698435 C60.4672805,144.434743 60.16648,144.302714 59.7537453,144.302714 C59.4263285,144.302714 59.1382892,144.385232 58.8888983,144.548802 C58.6398719,144.713839 58.3554787,144.955892 58.0379063,145.275697 L58.0379063,149.843912 L56.9794532,149.843912 L56.9794532,143.536944 Z" id="Fill-46" fill="#213369" mask="url(#mask-4)"></path>
                    <path d="M64.3592743,149.843765 L65.4177275,149.843765 L65.4177275,143.536797 L64.3592743,143.536797 L64.3592743,149.843765 Z M64.9014444,142.238875 C64.6950771,142.238875 64.5211597,142.174328 64.3789631,142.044866 C64.2371311,141.915037 64.1660328,141.750367 64.1660328,141.550856 C64.1660328,141.34401 64.2371311,141.177139 64.3789631,141.051711 C64.5211597,140.926284 64.6950771,140.863203 64.9014444,140.863203 C65.1078118,140.863203 65.2820938,140.926284 65.4239258,141.051711 C65.5661224,141.177139 65.6368561,141.34401 65.6368561,141.550856 C65.6368561,141.750367 65.5661224,141.915037 65.4239258,142.044866 C65.2820938,142.174328 65.1078118,142.238875 64.9014444,142.238875 Z" id="Fill-47" fill="#213369" mask="url(#mask-4)"></path>
                    <path d="M67.6883519,148.416418 C67.9632653,148.641601 68.2447417,148.823509 68.5331456,148.961406 C68.8215494,149.100403 69.1544353,149.169352 69.5332616,149.169352 C69.9459964,149.169352 70.2555474,149.074364 70.4619148,148.884022 C70.6686468,148.69368 70.7721951,148.459694 70.7721951,148.183166 C70.7721951,148.018863 70.7284423,147.875831 70.6427597,147.754438 C70.5563479,147.633411 70.4469659,147.527421 70.3138845,147.436467 C70.1800739,147.346247 70.0276683,147.265929 69.8555739,147.196614 C69.683115,147.127298 69.5113852,147.05835 69.3396555,146.989034 C69.115787,146.911284 68.8919185,146.822531 68.6684146,146.723142 C68.4445461,146.623753 68.2447417,146.502359 68.0682721,146.359694 C67.892167,146.216663 67.748512,146.050526 67.6365778,145.85945 C67.5242789,145.670208 67.4688587,145.440623 67.4688587,145.172164 C67.4688587,144.921308 67.5180806,144.685489 67.616889,144.464707 C67.7156974,144.243924 67.857894,144.053949 68.0427496,143.89368 C68.2279698,143.733778 68.4536613,143.608716 68.7205534,143.517763 C68.9870809,143.426809 69.2878813,143.380966 69.6229549,143.380966 C70.0189177,143.380966 70.3820659,143.450281 70.7134934,143.588912 C71.0449209,143.727176 71.3307725,143.896247 71.5714129,144.095024 L71.0682557,144.769841 C70.8531378,144.605171 70.6299985,144.471308 70.3973794,144.367518 C70.1654896,144.263729 69.9117233,144.21165 69.6360807,144.21165 C69.2408471,144.21165 68.9502556,144.302604 68.7654,144.484511 C68.5805444,144.665685 68.4879343,144.878399 68.4879343,145.120452 C68.4879343,145.267152 68.5265826,145.395147 68.6042439,145.502971 C68.6815405,145.611528 68.7847242,145.706516 68.9141595,145.788667 C69.0425011,145.871186 69.1916252,145.944535 69.3589796,146.00945 C69.5266987,146.074364 69.7006161,146.141112 69.881461,146.210428 C70.1046003,146.29698 70.3306564,146.387934 70.5585356,146.482922 C70.7867793,146.57791 70.9909591,146.697469 71.1714394,146.839401 C71.3522843,146.982433 71.5010438,147.157372 71.6169887,147.365318 C71.7329336,147.573264 71.7909061,147.82412 71.7909061,148.118252 C71.7909061,148.377543 71.7416842,148.619963 71.6425112,148.845147 C71.5433382,149.069597 71.3971309,149.268374 71.2035248,149.442213 C71.0106478,149.614951 70.7696428,149.751748 70.4816036,149.850403 C70.1931997,149.949792 69.8639599,150.000037 69.4946133,150.000037 C69.047241,150.000037 68.6213804,149.917518 68.2173962,149.753215 C67.8123182,149.588912 67.4597435,149.381699 67.158943,149.13011 L67.6883519,148.416418 Z" id="Fill-48" fill="#213369" mask="url(#mask-4)"></path>
                    <path d="M73.7650689,144.40654 L72.8364157,144.40654 L72.8364157,143.601895 L73.816843,143.53698 L73.9459138,141.771822 L74.8359186,141.771822 L74.8359186,143.53698 L76.5262351,143.53698 L76.5262351,144.40654 L74.8359186,144.40654 L74.8359186,147.910452 C74.8359186,148.299572 74.9070169,148.600672 75.0488489,148.812286 C75.1906809,149.024633 75.4422595,149.130257 75.8039493,149.130257 C75.915519,149.130257 76.0358392,149.113386 76.1649099,149.078178 C76.2939807,149.044071 76.4102902,149.004829 76.5134739,148.961553 L76.7198413,149.766198 C76.5477469,149.826345 76.3599745,149.88099 76.158347,149.928301 C75.9567195,149.975978 75.7561859,150.000183 75.558569,150.000183 C75.2231309,150.000183 74.9416546,149.947738 74.7134108,149.843949 C74.4855316,149.740159 74.3006761,149.597127 74.1584795,149.415954 C74.0166475,149.234046 73.9156514,149.013631 73.8554913,148.753973 C73.7949666,148.494315 73.7650689,148.208985 73.7650689,147.897616 L73.7650689,144.40654 Z" id="Fill-49" fill="#213369" mask="url(#mask-4)"></path>
                    <path d="M78.2674872,143.536944 L79.1450954,143.536944 L79.2355179,144.678631 L79.2745308,144.678631 C79.4889195,144.281076 79.7492486,143.964939 80.0544244,143.731687 C80.3599648,143.498068 80.6928507,143.380709 81.0549051,143.380709 C81.3039315,143.380709 81.5274353,143.424352 81.7254168,143.510905 L81.5190494,144.445746 C81.4158657,144.411271 81.3207034,144.385232 81.23575,144.367628 C81.1489736,144.350024 81.0417793,144.341589 80.9127085,144.341589 C80.6458164,144.341589 80.3687154,144.44978 80.0806761,144.665795 C79.7919076,144.882176 79.540329,145.258826 79.3259403,145.794645 L79.3259403,149.843912 L78.2674872,149.843912 L78.2674872,143.536944 Z" id="Fill-50" fill="#213369" mask="url(#mask-4)"></path>
                    <path d="M83.4801957,148.131345 C83.4801957,148.494425 83.585567,148.754083 83.7963097,148.909951 C84.0066877,149.065452 84.2673815,149.143203 84.5769325,149.143203 C84.877733,149.143203 85.1639493,149.072054 85.4344874,148.929389 C85.7057548,148.786357 85.9916064,148.576944 86.2931361,148.299682 L86.2931361,146.547726 C85.7681025,146.617042 85.32547,146.69956 84.9641448,146.794181 C84.602455,146.889902 84.3122281,147.002127 84.0934641,147.131589 C83.8736063,147.261418 83.7164608,147.410685 83.6223923,147.579389 C83.52723,147.748093 83.4801957,147.932567 83.4801957,148.131345 M82.435233,148.209095 C82.435233,147.516675 82.7425964,146.98709 83.3576879,146.619242 C83.9727793,146.25176 84.951019,145.994303 86.2931361,145.84687 C86.2931361,145.648093 86.2734473,145.453716 86.234799,145.263007 C86.1957861,145.073032 86.1268755,144.903961 86.0280671,144.756895 C85.9292587,144.609829 85.7976357,144.490636 85.6350211,144.399682 C85.4713127,144.308729 85.26057,144.263619 85.0027931,144.263619 C84.6327174,144.263619 84.2910809,144.333301 83.9771546,144.471565 C83.662499,144.609829 83.3813873,144.765697 83.1319963,144.938435 L82.7057712,144.198704 C82.9985503,144.008362 83.3555002,143.824988 83.7769855,143.646748 C84.1984708,143.470342 84.6626151,143.380856 85.1701476,143.380856 C85.9358216,143.380856 86.4907529,143.617042 86.8349416,144.08868 C87.1787657,144.560318 87.35086,145.189658 87.35086,145.976699 L87.35086,149.844059 L86.4732518,149.844059 L86.3828293,149.091125 L86.3573069,149.091125 C86.0561418,149.342714 85.7316418,149.556895 85.3838071,149.734034 C85.0348785,149.910807 84.667355,150.000293 84.2801427,150.000293 C83.7467232,150.000293 83.3059137,149.844059 82.9573497,149.532323 C82.6091504,149.22132 82.435233,148.780122 82.435233,148.209095" id="Fill-51" fill="#213369" mask="url(#mask-4)"></path>
                    <path d="M89.8533379,144.40654 L88.9246847,144.40654 L88.9246847,143.601895 L89.905112,143.53698 L90.0341828,141.771822 L90.9241876,141.771822 L90.9241876,143.53698 L92.6145041,143.53698 L92.6145041,144.40654 L90.9241876,144.40654 L90.9241876,147.910452 C90.9241876,148.299572 90.9956505,148.600672 91.1371179,148.812286 C91.2789499,149.024633 91.5305285,149.130257 91.8922183,149.130257 C92.003788,149.130257 92.1241082,149.113386 92.2531789,149.078178 C92.3826143,149.044071 92.4985592,149.004829 92.6017429,148.961553 L92.8081103,149.766198 C92.6360159,149.826345 92.4486081,149.88099 92.246616,149.928301 C92.0449885,149.975978 91.8444549,150.000183 91.646838,150.000183 C91.3113999,150.000183 91.0299236,149.947738 90.8020444,149.843949 C90.5738006,149.740159 90.3893097,149.597127 90.2471131,149.415954 C90.1049165,149.234046 90.0039204,149.013631 89.9437603,148.753973 C89.8832356,148.494315 89.8533379,148.208985 89.8533379,147.897616 L89.8533379,144.40654 Z" id="Fill-52" fill="#213369" mask="url(#mask-4)"></path>
                    <path d="M94.3565583,149.843765 L95.4146468,149.843765 L95.4146468,143.536797 L94.3565583,143.536797 L94.3565583,149.843765 Z M94.8983638,142.238875 C94.692361,142.238875 94.5180791,142.174328 94.3758825,142.044866 C94.2340505,141.915037 94.1629522,141.750367 94.1629522,141.550856 C94.1629522,141.34401 94.2340505,141.177139 94.3758825,141.051711 C94.5180791,140.926284 94.692361,140.863203 94.8983638,140.863203 C95.1047312,140.863203 95.2790132,140.926284 95.4212098,141.051711 C95.5630417,141.177139 95.6337754,141.34401 95.6337754,141.550856 C95.6337754,141.750367 95.5630417,141.915037 95.4212098,142.044866 C95.2790132,142.174328 95.1047312,142.238875 94.8983638,142.238875 Z" id="Fill-53" fill="#213369" mask="url(#mask-4)"></path>
                    <path d="M98.4849631,146.703374 C98.4849631,147.066455 98.5279867,147.396161 98.6140338,147.689193 C98.700081,147.983692 98.8222242,148.237482 98.9815574,148.449095 C99.1405259,148.661076 99.3319444,148.825379 99.5561775,148.942005 C99.7796813,149.058998 100.024697,149.117311 100.291224,149.117311 C100.558117,149.117311 100.803132,149.058998 101.026636,148.942005 C101.25014,148.825379 101.441559,148.661076 101.600892,148.449095 C101.75986,148.237482 101.882003,147.983692 101.96878,147.689193 C102.054827,147.396161 102.097121,147.066455 102.097121,146.703374 C102.097121,146.340293 102.054827,146.00912 101.96878,145.710587 C101.882003,145.412054 101.75986,145.154597 101.600892,144.938582 C101.441559,144.722567 101.25014,144.555697 101.026636,144.438704 C100.803132,144.322078 100.558117,144.263765 100.291224,144.263765 C100.024697,144.263765 99.7796813,144.322078 99.5561775,144.438704 C99.3319444,144.555697 99.1405259,144.722567 98.9815574,144.938582 C98.8222242,145.154597 98.700081,145.412054 98.6140338,145.710587 C98.5279867,146.00912 98.4849631,146.340293 98.4849631,146.703374 M97.3882262,146.703374 C97.3882262,146.17599 97.4680751,145.706553 97.626679,145.295428 C97.7856475,144.884303 97.999307,144.536626 98.2658345,144.250929 C98.5319973,143.964866 98.8397254,143.749218 99.1886539,143.601785 C99.5364887,143.455086 99.9043768,143.380636 100.291224,143.380636 C100.678801,143.380636 101.04596,143.455086 101.39416,143.601785 C101.743088,143.749218 102.050087,143.964866 102.316979,144.250929 C102.583507,144.536626 102.796437,144.884303 102.95577,145.295428 C103.114738,145.706553 103.194587,146.17599 103.194587,146.703374 C103.194587,147.222323 103.114738,147.688093 102.95577,148.098484 C102.796437,148.509609 102.583507,148.855819 102.316979,149.137115 C102.050087,149.418044 101.743088,149.632225 101.39416,149.779291 C101.04596,149.92599 100.678801,150.000073 100.291224,150.000073 C99.9043768,150.000073 99.5364887,149.92599 99.1886539,149.779291 C98.8397254,149.632225 98.5319973,149.418044 98.2658345,149.137115 C97.999307,148.855819 97.7856475,148.509609 97.626679,148.098484 C97.4680751,147.688093 97.3882262,147.222323 97.3882262,146.703374" id="Fill-54" fill="#213369" mask="url(#mask-4)"></path>
                    <path d="M104.909734,143.536944 L105.787342,143.536944 L105.877764,144.445746 L105.916413,144.445746 C106.217578,144.142812 106.533327,143.889756 106.864754,143.685844 C107.195817,143.483399 107.580477,143.380709 108.019099,143.380709 C108.681954,143.380709 109.165058,143.589022 109.470598,144.003814 C109.776139,144.41934 109.928909,145.03401 109.928909,145.846724 L109.928909,149.843912 L108.87082,149.843912 L108.87082,145.989389 C108.87082,145.392689 108.776023,144.962494 108.586792,144.698435 C108.397561,144.434743 108.096396,144.302714 107.683661,144.302714 C107.356609,144.302714 107.06857,144.385232 106.819179,144.548802 C106.570152,144.713839 106.285759,144.955892 105.967822,145.275697 L105.967822,149.843912 L104.909734,149.843912 L104.909734,143.536944 Z" id="Fill-55" fill="#213369" mask="url(#mask-4)"></path>
                </g>
            </g>
        </g>
    </g>
</svg>