<?xml version="1.0" encoding="UTF-8"?>
<svg width="194px" height="75px" viewBox="0 0 194 75" version="1.1" xmlns="http://www.w3.org/2000/svg" xmlns:xlink="http://www.w3.org/1999/xlink">
    <!-- Generator: Sketch 49 (51002) - http://www.bohemiancoding.com/sketch -->
    <title>Group 2</title>
    <desc>Created with Sketch.</desc>
    <defs>
        <polygon id="path-1" points="0 0.150386473 15.669682 0.150386473 15.669682 21.170058 0 21.170058"></polygon>
        <polygon id="path-3" points="0 44 158.848802 44 158.848802 0.0741835749 0 0.0741835749"></polygon>
    </defs>
    <g id="Page-1" stroke="none" stroke-width="1" fill="none" fill-rule="evenodd">
        <g id="Tablet" transform="translate(-525.000000, -1189.000000)">
            <g id="Group-2" transform="translate(525.000000, 1189.000000)">
                <rect id="Rectangle-Copy" fill="#002E6D" x="0" y="0" width="194" height="75"></rect>
                <g id="Page-1" transform="translate(18.000000, 16.000000)">
                    <polygon id="Fill-1" fill="#CA2026" points="7 35 7 43 47 43 47 40.01189 10.4752782 40.01189 10.1316496 40.01189 10.1316496 39.6839461 10.1316496 35"></polygon>
                    <polygon id="Fill-2" fill="#FEFEFE" points="7 0 7 8 10.1958291 8 10.1958291 3.31605393 10.1958291 2.98830904 10.5465234 2.98830904 47.4532638 2.98830904 47.8037453 2.98830904 47.8037453 3.31605393 47.8037453 8 51 8 51 0"></polygon>
                    <g id="Group-56">
                        <g id="Group-5" transform="translate(0.000000, 11.478261)">
                            <mask id="mask-2" fill="white">
                                <use xlink:href="#path-1"></use>
                            </mask>
                            <g id="Clip-4"></g>
                            <path d="M3.82481459,14.498 C3.85096313,15.6099034 4.38257984,17.7231787 7.86139019,17.7231787 C9.7470374,17.7231787 11.8454578,17.2504444 11.8454578,15.1363188 C11.8454578,13.579314 10.4112947,13.1629082 8.39321777,12.6625411 L6.34814881,12.1611111 C3.26683846,11.4103478 0.292652785,10.6884928 0.292652785,6.29380676 C0.292652785,4.07 1.43454271,0.150386473 7.62225756,0.150386473 C13.4649804,0.150386473 15.031995,4.15311111 15.0594088,6.60010628 L11.234552,6.60010628 C11.1278491,5.71075362 10.8094273,3.59747826 7.33019523,3.59747826 C5.81611034,3.59747826 4.01101751,4.18201932 4.01101751,5.98878261 C4.01101751,7.54578744 5.23219655,7.88035749 6.02867268,8.074 L10.6767867,9.27071498 C13.2794101,9.93794203 15.669682,11.0489952 15.669682,14.6351014 C15.669682,20.6422705 9.82611565,21.170058 8.1536634,21.170058 C1.19583183,21.170058 -4.21750663e-05,16.9722029 -4.21750663e-05,14.498 L3.82481459,14.498 Z" id="Fill-3" fill="#FEFEFE" mask="url(#mask-2)"></path>
                        </g>
                        <path d="M24.6803638,28.6729082 L29.7559221,28.6729082 C31.7702033,28.6729082 32.9289633,27.7831304 32.9289633,25.7527536 C32.9289633,24.0025314 31.4384964,23.3329662 29.9486622,23.3329662 L24.6803638,23.3329662 L24.6803638,28.6729082 Z M24.6803638,19.9698357 L29.5355574,19.9698357 C31.1628824,19.9698357 32.4599765,19.3306667 32.4599765,17.7451787 C32.4599765,16.1037874 31.3007948,15.6034203 29.4248479,15.6034203 L24.6803638,15.6034203 L24.6803638,19.9698357 Z M20.7085269,12.1565411 L30.3349858,12.1565411 C35.1903903,12.1565411 36.4311808,15.215285 36.4311808,17.2728696 C36.4311808,20.136058 34.8314805,20.9437874 34.0037948,21.3599807 C36.4311808,22.2776039 37.0661264,24.2231691 37.0661264,26.1987053 C37.0661264,27.7831304 36.4039779,29.2844444 35.3563492,30.3136618 C34.2252139,31.4249275 33.1489062,32.1206377 29.0941954,32.1206377 L20.7085269,32.1206377 L20.7085269,12.1565411 Z" id="Fill-6" fill="#FEFEFE"></path>
                        <polygon id="Fill-8" fill="#FEFEFE" points="49.9465814 12.1500792 46.8047499 12.1500792 40.5137061 32.1269295 44.485543 32.1269295 48.3401332 19.0115285 52.2575642 32.1269295 56.2294011 32.1269295"></polygon>
                        <polygon id="Fill-10" fill="#FEFEFE" points="49.923111 40.7890628 46.7743206 44 46.7743206 32.1763285 49.923111 32.1763285"></polygon>
                        <path d="M67.6067789,12.1146879 L68.5278824,12.1146879 L68.5278824,16.4453932 C68.5278824,16.8856058 68.5723771,17.2548232 68.6613664,17.553258 C68.750145,17.8512676 68.8705548,18.0903981 69.0221741,18.2691614 C69.1740044,18.4483498 69.3530375,18.5767362 69.5609606,18.6553836 C69.7676184,18.7336058 69.989881,18.7727169 70.226694,18.7727169 C70.4710985,18.7727169 70.6965243,18.7336058 70.9040256,18.6553836 C71.1111052,18.5767362 71.292458,18.4483498 71.4478731,18.2691614 C71.6034991,18.0903981 71.7251741,17.8512676 71.8141635,17.553258 C71.902942,17.2548232 71.9474367,16.8856058 71.9474367,16.4453932 L71.9474367,12.1146879 L72.8354328,12.1146879 L72.8354328,16.4230744 C72.8354328,17.0122918 72.7687962,17.5084077 72.6359447,17.9112097 C72.5026715,18.3140116 72.3196317,18.6400792 72.0859818,18.8904754 C71.8533863,19.1402338 71.5773505,19.3196348 71.2589288,19.4276155 C70.9407179,19.535171 70.5967802,19.589799 70.226694,19.589799 C69.8566078,19.589799 69.5105614,19.535171 69.1889765,19.4276155 C68.866759,19.3196348 68.5892471,19.1402338 68.356019,18.8904754 C68.1230017,18.6400792 67.9399619,18.3140116 67.8066887,17.9112097 C67.6732046,17.5084077 67.6067789,17.0122918 67.6067789,16.4230744 L67.6067789,12.1146879 Z" id="Fill-12" fill="#FEFEFE"></path>
                        <path d="M73.5127221,18.8958531 C73.5127221,18.6794667 73.5774609,18.50623 73.7069383,18.3757179 C73.8364158,18.2452058 73.993307,18.1795246 74.1784556,18.1795246 C74.3562235,18.1795246 74.5099516,18.2452058 74.639429,18.3757179 C74.7689065,18.50623 74.8336452,18.6794667 74.8336452,18.8958531 C74.8336452,19.0973604 74.7689065,19.26337 74.639429,19.3938821 C74.5099516,19.5239691 74.3562235,19.5898628 74.1784556,19.5898628 C73.993307,19.5898628 73.8364158,19.5239691 73.7069383,19.3938821 C73.5774609,19.26337 73.5127221,19.0973604 73.5127221,18.8958531" id="Fill-14" fill="#FEFEFE"></path>
                        <path d="M76.4100016,17.8551575 C76.6689565,18.1312734 76.974304,18.353399 77.326044,18.5208966 C77.6771515,18.6888193 78.0419658,18.7725681 78.4192218,18.7725681 C78.9004393,18.7725681 79.2743212,18.6624618 79.5406568,18.4424618 C79.8072032,18.2226744 79.9400546,17.9335923 79.9400546,17.5756406 C79.9400546,17.3892251 79.9086342,17.2304425 79.8457934,17.0999304 C79.7829525,16.9694184 79.6981806,16.857399 79.5908451,16.7642976 C79.4830878,16.670771 79.3555082,16.5870222 79.2076846,16.5119884 C79.0592284,16.4380174 78.9004393,16.3595826 78.7304737,16.2773217 L77.6868517,15.8186164 C77.5162536,15.7440077 77.3424923,15.6545198 77.1651462,15.5497275 C76.9871674,15.4455729 76.8277456,15.318887 76.6877244,15.169457 C76.5466488,15.0204522 76.4321435,14.8431768 76.343365,14.6376309 C76.2543756,14.4327227 76.2100918,14.196143 76.2100918,13.9272541 C76.2100918,13.6515633 76.2674499,13.3939401 76.3823769,13.1554473 C76.4968822,12.916742 76.6558822,12.7097082 76.8597987,12.5339208 C77.0632934,12.3591961 77.3036912,12.2227324 77.5812032,12.1258048 C77.8587151,12.0288773 78.1640626,11.980201 78.4968239,11.980201 C78.9337576,11.980201 79.3371621,12.0639498 79.7072483,12.232085 C80.0773345,12.4000077 80.3917496,12.6183072 80.6507045,12.8865585 L80.1511408,13.4908676 C79.9288782,13.2746937 79.6829976,13.1046454 79.4128663,12.9819981 C79.1429459,12.8589256 78.8375984,12.7970705 78.4968239,12.7970705 C78.0898345,12.7970705 77.7627668,12.8922976 77.5147775,13.0823266 C77.2665772,13.2727807 77.1430042,13.5357179 77.1430042,13.8711382 C77.1430042,14.0505391 77.1777987,14.201457 77.248231,14.3245295 C77.3182416,14.4478145 77.4129247,14.5560077 77.5312257,14.6488966 C77.6497377,14.7424232 77.7790042,14.8246841 77.9196581,14.8952541 C78.0603119,14.9664618 78.2047615,15.0317179 78.3525851,15.0910222 L79.3848199,15.5386744 C79.5923212,15.6281623 79.7884353,15.7310415 79.9733729,15.8464618 C80.1583106,15.9623072 80.3177324,16.0966454 80.4507947,16.2490512 C80.5840679,16.4025198 80.6899273,16.5812831 80.7671077,16.7861913 C80.8449207,16.9917372 80.8841435,17.2283169 80.8841435,17.4972058 C80.8841435,17.7879884 80.8265745,18.0607034 80.7120692,18.3138628 C80.5969313,18.5676599 80.4322377,18.7895729 80.2179883,18.9796019 C80.0028955,19.170056 79.7439406,19.319486 79.440491,19.4274667 C79.1372523,19.5352348 78.7933146,19.5898628 78.4082562,19.5898628 C77.8975162,19.5898628 77.4241011,19.4922976 76.9871674,19.2986551 C76.5506554,19.1045874 76.1731886,18.8397372 75.8547668,18.5043169 L76.4100016,17.8551575 Z" id="Fill-16" fill="#FEFEFE"></path>
                        <path d="M81.8719468,18.8958531 C81.8719468,18.6794667 81.9368964,18.50623 82.0663739,18.3757179 C82.1956405,18.2452058 82.3527426,18.1795246 82.5376802,18.1795246 C82.715659,18.1795246 82.8691763,18.2452058 82.9986537,18.3757179 C83.1281312,18.50623 83.1928699,18.6794667 83.1928699,18.8958531 C83.1928699,19.0973604 83.1281312,19.26337 82.9986537,19.3938821 C82.8691763,19.5239691 82.715659,19.5898628 82.5376802,19.5898628 C82.3527426,19.5898628 82.1956405,19.5239691 82.0663739,19.3938821 C81.9368964,19.26337 81.8719468,19.0973604 81.8719468,18.8958531" id="Fill-18" fill="#FEFEFE"></path>
                        <path d="M87.511428,17.8551575 C87.7703829,18.1312734 88.0757304,18.353399 88.4274704,18.5208966 C88.7787887,18.6888193 89.1433922,18.7725681 89.5206481,18.7725681 C90.0020765,18.7725681 90.3757476,18.6624618 90.6420832,18.4424618 C90.9086296,18.2226744 91.041481,17.9335923 91.041481,17.5756406 C91.041481,17.3892251 91.0102715,17.2304425 90.9474306,17.0999304 C90.8845898,16.9694184 90.799607,16.857399 90.6922715,16.7642976 C90.5845142,16.670771 90.4569346,16.5870222 90.3093219,16.5119884 C90.1606548,16.4380174 90.0020765,16.3595826 89.8319001,16.2773217 L88.7882781,15.8186164 C88.61768,15.7440077 88.4439187,15.6545198 88.2665725,15.5497275 C88.0885938,15.4455729 87.929172,15.318887 87.7891508,15.169457 C87.6480752,15.0204522 87.5335699,14.8431768 87.4447914,14.6376309 C87.3560129,14.4327227 87.3115182,14.196143 87.3115182,13.9272541 C87.3115182,13.6515633 87.3688763,13.3939401 87.4838033,13.1554473 C87.5983086,12.916742 87.7573086,12.7097082 87.9612251,12.5339208 C88.1647198,12.3591961 88.4051176,12.2227324 88.6826296,12.1258048 C88.9603524,12.0288773 89.265489,11.980201 89.5984611,11.980201 C90.035184,11.980201 90.4385885,12.0639498 90.8086747,12.232085 C91.1787609,12.4000077 91.4933869,12.6183072 91.7521309,12.8865585 L91.2525672,13.4908676 C91.0303046,13.2746937 90.784424,13.1046454 90.5145036,12.9819981 C90.2443723,12.8589256 89.9392357,12.7970705 89.5984611,12.7970705 C89.1912609,12.7970705 88.8641932,12.8922976 88.6162038,13.0823266 C88.3680036,13.2727807 88.2444306,13.5357179 88.2444306,13.8711382 C88.2444306,14.0505391 88.2792251,14.201457 88.3496574,14.3245295 C88.419668,14.4478145 88.5143511,14.5560077 88.6326521,14.6488966 C88.7511641,14.7424232 88.8806415,14.8246841 89.0210845,14.8952541 C89.1617383,14.9664618 89.3061879,15.0317179 89.4540115,15.0910222 L90.4864572,15.5386744 C90.6937476,15.6281623 90.8898617,15.7310415 91.0747993,15.8464618 C91.259737,15.9623072 91.4193696,16.0966454 91.5522211,16.2490512 C91.6854943,16.4025198 91.7913537,16.5812831 91.8685341,16.7861913 C91.9463471,16.9917372 91.9855699,17.2283169 91.9855699,17.4972058 C91.9855699,17.7879884 91.9280009,18.0607034 91.8134956,18.3138628 C91.6985686,18.5676599 91.5338749,18.7895729 91.3194147,18.9796019 C91.1043219,19.170056 90.8455779,19.319486 90.5419174,19.4274667 C90.2386786,19.5352348 89.894741,19.5898628 89.5096826,19.5898628 C88.9989426,19.5898628 88.5255275,19.4922976 88.0885938,19.2986551 C87.6520818,19.1045874 87.274615,18.8397372 86.9561932,18.5043169 L87.511428,17.8551575 Z" id="Fill-20" fill="#FEFEFE"></path>
                        <path d="M93.6058094,14.0168271 L94.360954,14.0168271 L94.438767,14.8003246 L94.4720853,14.8003246 C94.7086874,14.5393005 94.9657444,14.3212135 95.2436781,14.1454261 C95.5209792,13.9704889 95.8225309,13.8824889 96.1485442,13.8824889 C96.5624924,13.8824889 96.8868187,13.9738899 97.1196251,14.1566918 C97.3530641,14.3397063 97.5249275,14.5954164 97.6360588,14.9231845 C97.9171556,14.6100831 98.2003611,14.358199 98.4854646,14.1677449 C98.7699354,13.9779285 99.0790786,13.8824889 99.4118399,13.8824889 C99.9670747,13.8824889 100.379547,14.0616773 100.6501,14.419629 C100.920231,14.7780058 101.054981,15.3077063 101.054981,16.0085179 L101.054981,19.4553971 L100.144843,19.4553971 L100.144843,16.1318029 C100.144843,15.6169816 100.063234,15.2458512 99.9004381,15.0184116 C99.7376423,14.7911845 99.4858572,14.6770396 99.1457153,14.6770396 C98.738515,14.6770396 98.2872418,14.9565565 97.791263,15.516228 L97.791263,19.4553971 L96.8809142,19.4553971 L96.8809142,16.1318029 C96.8809142,15.6169816 96.7993054,15.2458512 96.6369314,15.0184116 C96.4737139,14.7911845 96.2185548,14.6770396 95.8706105,14.6770396 C95.4636211,14.6770396 95.0123479,14.9565565 94.51658,15.516228 L94.51658,19.4553971 L93.6058094,19.4553971 L93.6058094,14.0168271 Z" id="Fill-22" fill="#FEFEFE"></path>
                        <path d="M103.497592,17.9783575 C103.497592,18.2914589 103.588479,18.5154976 103.769621,18.6498357 C103.950763,18.7837488 104.174923,18.8509179 104.441259,18.8509179 C104.700003,18.8509179 104.946516,18.7897005 105.179533,18.6664155 C105.412761,18.543343 105.658642,18.3626667 105.91823,18.1235362 L105.91823,16.6128696 C105.466324,16.6728116 105.085061,16.7438068 104.774653,16.8256425 C104.463401,16.9079034 104.213724,17.0048309 104.025202,17.1164251 C103.836257,17.2284444 103.701086,17.3570435 103.619899,17.5026473 C103.53808,17.6482512 103.497592,17.8068213 103.497592,17.9783575 M102.598419,18.0455266 C102.598419,17.4484444 102.862857,16.9916522 103.392365,16.6747246 C103.921451,16.3575845 104.763476,16.1356715 105.91823,16.0085604 C105.91823,15.8370242 105.900938,15.6695266 105.86783,15.5050048 C105.834512,15.3413333 105.775045,15.1957295 105.689852,15.0688309 C105.604869,14.9421449 105.49184,14.8392657 105.351818,14.7608309 C105.210743,14.6826087 105.029601,14.6434976 104.807971,14.6434976 C104.489549,14.6434976 104.195378,14.7034396 103.925036,14.822686 C103.654694,14.9421449 103.412609,15.0764831 103.198149,15.2254879 L102.831436,14.5875942 C103.083011,14.4234976 103.390256,14.2651401 103.753173,14.1118841 C104.115667,13.9592657 104.515065,13.8823188 104.951788,13.8823188 C105.610773,13.8823188 106.087984,14.0859517 106.384053,14.4925797 C106.679911,14.8992077 106.828157,15.4416618 106.828157,16.1205797 L106.828157,19.4554396 L106.073223,19.4554396 L105.99541,18.8062802 L105.973057,18.8062802 C105.714313,19.0228792 105.435114,19.2073816 105.13546,19.3604251 C104.835385,19.5128309 104.519072,19.5897778 104.1861,19.5897778 C103.727235,19.5897778 103.34787,19.4554396 103.047795,19.1865507 C102.748352,18.918087 102.598419,18.5378164 102.598419,18.0455266" id="Fill-24" fill="#FEFEFE"></path>
                        <path d="M108.825905,11.4879961 L109.736465,11.4879961 L109.736465,18.4259671 C109.736465,18.5753971 109.761981,18.6795517 109.814067,18.7390686 C109.865731,18.7990106 109.924987,18.8285565 109.991624,18.8285565 L110.074709,18.8285565 C110.100857,18.8285565 110.139448,18.8213295 110.191745,18.8062377 L110.314052,19.5000348 C110.254375,19.5297932 110.183942,19.5521121 110.102755,19.5674164 C110.021147,19.5820831 109.917818,19.5897353 109.791714,19.5897353 C109.443981,19.5897353 109.195991,19.4851556 109.048168,19.2762087 C108.899922,19.067687 108.825905,18.7613874 108.825905,18.3585855 L108.825905,11.4879961 Z" id="Fill-26" fill="#FEFEFE"></path>
                        <path d="M111.93425,11.4879961 L112.844809,11.4879961 L112.844809,18.4259671 C112.844809,18.5753971 112.870325,18.6795517 112.922412,18.7390686 C112.974076,18.7990106 113.033332,18.8285565 113.099969,18.8285565 L113.183053,18.8285565 C113.209202,18.8285565 113.247792,18.8213295 113.300089,18.8062377 L113.422397,19.5000348 C113.362719,19.5297932 113.292287,19.5521121 113.2111,19.5674164 C113.129491,19.5820831 113.026162,19.5897353 112.900059,19.5897353 C112.552114,19.5897353 112.304336,19.4851556 112.156512,19.2762087 C112.008267,19.067687 111.93425,18.7613874 111.93425,18.3585855 L111.93425,11.4879961 Z" id="Fill-28" fill="#FEFEFE"></path>
                        <path d="M119.838384,18.7166222 C120.467425,18.7166222 120.956024,18.5992889 121.303757,18.3646222 C121.651701,18.1293179 121.825463,17.7622261 121.825463,17.2620715 C121.825463,16.8071923 121.655497,16.4730473 121.314933,16.2602744 C120.97437,16.0479266 120.482608,15.9418589 119.838384,15.9418589 L118.572711,15.9418589 L118.572711,18.7166222 L119.838384,18.7166222 Z M119.64944,15.2478493 C120.278692,15.2478493 120.728489,15.1398686 120.99841,14.923057 C121.268541,14.7068831 121.403712,14.3937816 121.403712,13.983115 C121.403712,13.5805256 121.26116,13.2912309 120.976268,13.1158686 C120.691164,12.941144 120.264142,12.8529314 119.693935,12.8529314 L118.572711,12.8529314 L118.572711,15.2478493 L119.64944,15.2478493 Z M117.651396,12.1147092 L119.816453,12.1147092 C120.186329,12.1147092 120.524994,12.1482937 120.83224,12.2150377 C121.139063,12.2822068 121.401814,12.386999 121.62007,12.5285643 C121.838537,12.670342 122.008713,12.8548444 122.13081,13.0822841 C122.253118,13.3101488 122.31385,13.5843517 122.31385,13.9048928 C122.31385,14.2704966 122.210521,14.6008155 122.003441,14.8952116 C121.79594,15.1900329 121.477518,15.3934531 121.048598,15.5050473 L121.048598,15.5498976 C121.581691,15.6321585 121.996061,15.8185739 122.291708,16.1093565 C122.587777,16.4005643 122.736233,16.7993275 122.736233,17.3069217 C122.736233,17.6646609 122.669597,17.9784 122.536112,18.2466512 C122.402839,18.5155401 122.214528,18.7389411 121.969912,18.9181295 C121.725508,19.0975304 121.433234,19.2312309 121.093093,19.3209314 C120.752529,19.4106319 120.378647,19.4554821 119.971868,19.4554821 L117.651396,19.4554821 L117.651396,12.1147092 Z" id="Fill-30" fill="#FEFEFE"></path>
                        <path d="M124.068037,14.0168271 L124.989984,14.0168271 L124.989984,17.3404213 C124.989984,17.8552425 125.069063,18.2261604 125.228484,18.4536 C125.387484,18.6814647 125.644541,18.794972 126.000077,18.794972 C126.281174,18.794972 126.529163,18.7224889 126.743624,18.576885 C126.958506,18.4312812 127.195319,18.1985275 127.454273,17.8775614 L127.454273,14.0168271 L128.364411,14.0168271 L128.364411,19.4553971 L127.609899,19.4553971 L127.532086,18.604943 L127.498768,18.604943 C127.246983,18.9031652 126.982124,19.1422957 126.705033,19.3210589 C126.427521,19.5000348 126.100243,19.5897353 125.722354,19.5897353 C125.144978,19.5897353 124.725125,19.4105469 124.462374,19.0525952 C124.199624,18.6942184 124.068037,18.164943 124.068037,17.4637063 L124.068037,14.0168271 Z" id="Fill-32" fill="#FEFEFE"></path>
                        <path d="M130.31872,18.2242473 C130.555322,18.4185275 130.797618,18.5753971 131.045607,18.6942184 C131.293596,18.8138899 131.579965,18.8734068 131.906189,18.8734068 C132.261303,18.8734068 132.527428,18.791571 132.705196,18.6274744 C132.882964,18.4633778 132.971953,18.2618705 132.971953,18.0231652 C132.971953,17.8813874 132.934628,17.758315 132.860822,17.6535227 C132.786383,17.5493681 132.692121,17.4577546 132.577616,17.3793198 C132.462689,17.3015227 132.331314,17.232228 132.18349,17.1724986 C132.035245,17.1129816 131.88721,17.0530396 131.739387,16.9937353 C131.546647,16.9265662 131.354328,16.8500444 131.162221,16.7643826 C130.969481,16.6787208 130.797618,16.5739285 130.645787,16.4506435 C130.493957,16.327571 130.370384,16.1843053 130.274225,16.0197836 C130.177644,15.8561121 130.129775,15.6584309 130.129775,15.4271652 C130.129775,15.2103536 130.172372,15.0073585 130.257355,14.8169043 C130.342338,14.6264502 130.464434,14.4629913 130.623434,14.3246145 C130.782856,14.1866628 130.977072,14.0786821 131.206716,14.0002473 C131.436148,13.9218126 131.694892,13.8824889 131.98358,13.8824889 C132.324144,13.8824889 132.636661,13.9422184 132.921765,14.0616773 C133.206657,14.1809237 133.452538,14.3265275 133.659828,14.4980638 L133.226901,15.0798415 C133.041964,14.9382763 132.849645,14.822856 132.649736,14.7331556 C132.450037,14.6434551 132.231781,14.5988174 131.994546,14.5988174 C131.654404,14.5988174 131.404517,14.6772522 131.245306,14.8339092 C131.086306,14.9903536 131.006595,15.1733681 131.006595,15.382315 C131.006595,15.509001 131.039913,15.6188947 131.10655,15.7119961 C131.173397,15.8055227 131.262176,15.8877836 131.373307,15.9583536 C131.483806,16.0295614 131.612018,16.0929043 131.755835,16.1488077 C131.900285,16.2049237 132.050217,16.262315 132.205632,16.322257 C132.39795,16.3966531 132.592167,16.4750879 132.788281,16.5569237 C132.984606,16.6391845 133.160476,16.7418512 133.315891,16.8647111 C133.471306,16.9879961 133.599096,17.138914 133.69884,17.3181024 C133.799006,17.4972908 133.848773,17.7134647 133.848773,17.9672618 C133.848773,18.1906628 133.806176,18.3996097 133.721193,18.5938899 C133.635578,18.7877449 133.510107,18.9592812 133.343515,19.1087111 C133.177346,19.2577159 132.969844,19.3754744 132.722066,19.4607111 C132.473866,19.5463729 132.19066,19.5897353 131.872871,19.5897353 C131.487812,19.5897353 131.121733,19.5187401 130.773789,19.3769623 C130.425423,19.2351845 130.121973,19.0566338 129.863018,18.8398222 L130.31872,18.2242473 Z" id="Fill-34" fill="#FEFEFE"></path>
                        <mask id="mask-4" fill="white">
                            <use xlink:href="#path-3"></use>
                        </mask>
                        <g id="Clip-37"></g>
                        <path d="M135.391241,19.4554396 L136.302012,19.4554396 L136.302012,14.0168696 L135.391241,14.0168696 L135.391241,19.4554396 Z M135.857487,12.8977391 C135.680141,12.8977391 135.530419,12.8416232 135.408111,12.7302415 C135.286015,12.6182222 135.225072,12.4764444 135.225072,12.3046957 C135.225072,12.1259324 135.286015,11.9822415 135.408111,11.8740483 C135.530419,11.7660676 135.680141,11.7114396 135.857487,11.7114396 C136.035466,11.7114396 136.185187,11.7660676 136.307284,11.8740483 C136.429592,11.9822415 136.490324,12.1259324 136.490324,12.3046957 C136.490324,12.4764444 136.429592,12.6182222 136.307284,12.7302415 C136.185187,12.8416232 136.035466,12.8977391 135.857487,12.8977391 Z" id="Fill-36" fill="#FEFEFE" mask="url(#mask-4)"></path>
                        <path d="M138.400137,14.0168271 L139.155282,14.0168271 L139.233095,14.8003246 L139.266202,14.8003246 C139.525368,14.5393005 139.797397,14.3212135 140.082501,14.1454261 C140.366971,13.9704889 140.698256,13.8824889 141.075723,13.8824889 C141.645719,13.8824889 142.061566,14.0616773 142.324316,14.419629 C142.587278,14.7780058 142.718653,15.3077063 142.718653,16.0085179 L142.718653,19.4553971 L141.808515,19.4553971 L141.808515,16.1318029 C141.808515,15.6169816 141.726695,15.2458512 141.564111,15.0184116 C141.401104,14.7911845 141.14236,14.6770396 140.787246,14.6770396 C140.505516,14.6770396 140.257738,14.7482473 140.043278,14.8893874 C139.828607,15.0315903 139.584202,15.2405372 139.310697,15.516228 L139.310697,19.4553971 L138.400137,19.4553971 L138.400137,14.0168271 Z" id="Fill-38" fill="#FEFEFE" mask="url(#mask-4)"></path>
                        <path d="M148.125328,16.3333952 C148.125328,15.7739362 148.008714,15.3466899 147.775486,15.0520812 C147.542468,14.7574725 147.21519,14.6099556 146.792807,14.6099556 C146.600699,14.6099556 146.417449,14.6488541 146.243476,14.7272889 C146.069504,14.8057237 145.912191,14.917743 145.771537,15.0633469 C145.630884,15.2085256 145.51448,15.387714 145.422328,15.600487 C145.329332,15.8128348 145.267967,16.0572792 145.238655,16.3333952 L148.125328,16.3333952 Z M144.350659,16.7472502 C144.350659,16.2998106 144.419405,15.8989217 144.555841,15.5445836 C144.692699,15.1900329 144.874263,14.8894725 145.099899,14.6435401 C145.325747,14.3971826 145.583015,14.2090667 145.871492,14.0787671 C146.160392,13.9480425 146.460045,13.8823614 146.770454,13.8823614 C147.111018,13.8823614 147.416576,13.9423034 147.686496,14.0615498 C147.956628,14.1810087 148.182264,14.3527575 148.363828,14.576371 C148.54497,14.8004097 148.683515,15.0686609 148.780307,15.3821874 C148.876677,15.6955014 148.924334,16.0460135 148.924334,16.4341488 C148.924334,16.6352309 148.913158,16.8031536 148.891438,16.9377043 L145.249621,16.9377043 C145.286946,17.5269217 145.46619,17.9934918 145.788407,18.3363517 C146.109992,18.6796367 146.530056,18.8509604 147.048388,18.8509604 C147.307342,18.8509604 147.546053,18.8120618 147.764309,18.7336271 C147.982565,18.6551923 148.191754,18.5529507 148.391453,18.4258396 L148.71367,19.0303614 C148.476435,19.1791536 148.214106,19.3096657 147.925207,19.421685 C147.636941,19.5337043 147.307342,19.5898203 146.937256,19.5898203 C146.574551,19.5898203 146.236307,19.5239266 145.921892,19.3938396 C145.606844,19.2635401 145.333338,19.0769121 145.099899,18.8343807 C144.867093,18.5918493 144.683632,18.2953275 144.55078,17.9448155 C144.417296,17.5940908 144.350659,17.1949024 144.350659,16.7472502 Z" id="Fill-39" fill="#FEFEFE" mask="url(#mask-4)"></path>
                        <path d="M150.38956,18.2242473 C150.626373,18.4185275 150.868457,18.5753971 151.116658,18.6942184 C151.364436,18.8138899 151.650805,18.8734068 151.977029,18.8734068 C152.332143,18.8734068 152.598479,18.791571 152.776036,18.6274744 C152.954014,18.4633778 153.042793,18.2618705 153.042793,18.0231652 C153.042793,17.8813874 153.005679,17.758315 152.931873,17.6535227 C152.857223,17.5493681 152.763172,17.4577546 152.648667,17.3793198 C152.53374,17.3015227 152.402154,17.232228 152.254541,17.1724986 C152.106085,17.1129816 151.95805,17.0530396 151.810438,16.9937353 C151.617697,16.9265662 151.425379,16.8500444 151.233061,16.7643826 C151.040321,16.6787208 150.868457,16.5739285 150.716627,16.4506435 C150.565008,16.327571 150.441224,16.1843053 150.345065,16.0197836 C150.248484,15.8561121 150.200615,15.6584309 150.200615,15.4271652 C150.200615,15.2103536 150.243212,15.0073585 150.328195,14.8169043 C150.413178,14.6264502 150.535485,14.4629913 150.694274,14.3246145 C150.853907,14.1866628 151.048123,14.0786821 151.277556,14.0002473 C151.506988,13.9218126 151.765943,13.8824889 152.05442,13.8824889 C152.394984,13.8824889 152.707501,13.9422184 152.992605,14.0616773 C153.277497,14.1809237 153.523378,14.3265275 153.730879,14.4980638 L153.297952,15.0798415 C153.112804,14.9382763 152.920696,14.822856 152.720575,14.7331556 C152.521087,14.6434551 152.302621,14.5988174 152.065386,14.5988174 C151.725455,14.5988174 151.475568,14.6772522 151.316357,14.8339092 C151.157357,14.9903536 151.077646,15.1733681 151.077646,15.382315 C151.077646,15.509001 151.110964,15.6188947 151.17739,15.7119961 C151.244237,15.8055227 151.333227,15.8877836 151.444147,15.9583536 C151.554857,16.0295614 151.682858,16.0929043 151.826675,16.1488077 C151.971335,16.2049237 152.121057,16.262315 152.276472,16.322257 C152.46879,16.3966531 152.663006,16.4750879 152.859331,16.5569237 C153.055445,16.6391845 153.231316,16.7418512 153.386942,16.8647111 C153.542357,16.9879961 153.669936,17.138914 153.769891,17.3181024 C153.870057,17.4972908 153.919613,17.7134647 153.919613,17.9672618 C153.919613,18.1906628 153.877227,18.3996097 153.792244,18.5938899 C153.706629,18.7877449 153.581158,18.9592812 153.414355,19.1087111 C153.248186,19.2577159 153.040895,19.3754744 152.792906,19.4607111 C152.544916,19.5463729 152.261711,19.5897353 151.943711,19.5897353 C151.558652,19.5897353 151.192573,19.5187401 150.844629,19.3769623 C150.496473,19.2351845 150.192813,19.0566338 149.934069,18.8398222 L150.38956,18.2242473 Z" id="Fill-40" fill="#FEFEFE" mask="url(#mask-4)"></path>
                        <path d="M155.31877,18.2242473 C155.555583,18.4185275 155.797668,18.5753971 156.045869,18.6942184 C156.293647,18.8138899 156.580016,18.8734068 156.90624,18.8734068 C157.261354,18.8734068 157.52769,18.791571 157.705247,18.6274744 C157.883225,18.4633778 157.972004,18.2618705 157.972004,18.0231652 C157.972004,17.8813874 157.93489,17.758315 157.861083,17.6535227 C157.786434,17.5493681 157.692383,17.4577546 157.577878,17.3793198 C157.462951,17.3015227 157.331365,17.232228 157.183752,17.1724986 C157.035296,17.1129816 156.887261,17.0530396 156.739648,16.9937353 C156.546908,16.9265662 156.35459,16.8500444 156.162272,16.7643826 C155.969532,16.6787208 155.797668,16.5739285 155.645838,16.4506435 C155.494219,16.327571 155.370435,16.1843053 155.274276,16.0197836 C155.177695,15.8561121 155.129826,15.6584309 155.129826,15.4271652 C155.129826,15.2103536 155.172423,15.0073585 155.257406,14.8169043 C155.342388,14.6264502 155.464696,14.4629913 155.623485,14.3246145 C155.783118,14.1866628 155.977334,14.0786821 156.206766,14.0002473 C156.436199,13.9218126 156.695154,13.8824889 156.983631,13.8824889 C157.324195,13.8824889 157.636712,13.9422184 157.921816,14.0616773 C158.206708,14.1809237 158.452589,14.3265275 158.66009,14.4980638 L158.227163,15.0798415 C158.042014,14.9382763 157.849907,14.822856 157.649786,14.7331556 C157.450298,14.6434551 157.231831,14.5988174 156.994597,14.5988174 C156.654666,14.5988174 156.404778,14.6772522 156.245568,14.8339092 C156.086568,14.9903536 156.006857,15.1733681 156.006857,15.382315 C156.006857,15.509001 156.040175,15.6188947 156.106601,15.7119961 C156.173448,15.8055227 156.262438,15.8877836 156.373358,15.9583536 C156.484068,16.0295614 156.612069,16.0929043 156.755886,16.1488077 C156.900546,16.2049237 157.050268,16.262315 157.205683,16.322257 C157.398001,16.3966531 157.592217,16.4750879 157.788542,16.5569237 C157.984656,16.6391845 158.160526,16.7418512 158.315942,16.8647111 C158.471568,16.9879961 158.599147,17.138914 158.699102,17.3181024 C158.799057,17.4972908 158.848823,17.7134647 158.848823,17.9672618 C158.848823,18.1906628 158.806438,18.3996097 158.721455,18.5938899 C158.635839,18.7877449 158.510369,18.9592812 158.343566,19.1087111 C158.177396,19.2577159 157.970106,19.3754744 157.722117,19.4607111 C157.473916,19.5463729 157.190922,19.5897353 156.872922,19.5897353 C156.487863,19.5897353 156.121784,19.5187401 155.773839,19.3769623 C155.425684,19.2351845 155.122024,19.0566338 154.86328,18.8398222 L155.31877,18.2242473 Z" id="Fill-41" fill="#FEFEFE" mask="url(#mask-4)"></path>
                        <path d="M70.7371599,29.0570261 L70.3932223,27.9378957 C70.2599491,27.5274415 70.1344782,27.1193256 70.0159663,26.7122725 C69.8972435,26.3060696 69.7787316,25.8896638 69.6604305,25.464543 L69.6159358,25.464543 C69.5052263,25.8896638 69.3902992,26.3060696 69.2719981,26.7122725 C69.1534862,27.1193256 69.0280154,27.5274415 68.8947422,27.9378957 L68.5501719,29.0570261 L70.7371599,29.0570261 Z M70.9705989,29.806514 L68.3171546,29.806514 L67.617892,32.0445623 L66.6742249,32.0445623 L69.1387249,24.7040019 L70.1821361,24.7040019 L72.6470578,32.0445623 L71.6591069,32.0445623 L70.9705989,29.806514 Z" id="Fill-42" fill="#FEFEFE" mask="url(#mask-4)"></path>
                        <path d="M74.4229444,29.3253198 C74.4229444,29.9817063 74.5524219,30.4931266 74.8117985,30.8583053 C75.0707534,31.2241217 75.4370439,31.4067111 75.910459,31.4067111 C76.1620333,31.4067111 76.399268,31.3452812 76.6211089,31.2219961 C76.8433715,31.0989237 77.0650015,30.9108077 77.2872641,30.6572232 L77.2872641,27.8148657 C77.0578317,27.6059188 76.837467,27.4581894 76.6268025,27.3725275 C76.4157163,27.2868657 76.1993582,27.2439285 75.9770956,27.2439285 C75.7626354,27.2439285 75.5610386,27.2940928 75.3723052,27.3948464 C75.18315,27.4958126 75.0184564,27.6375903 74.8780134,27.8199671 C74.7373595,28.0031942 74.6264391,28.2212812 74.5450412,28.4750783 C74.4634325,28.7286628 74.4229444,29.0122184 74.4229444,29.3253198 M73.4792773,29.3365855 C73.4792773,28.8961604 73.5442269,28.4993101 73.6734935,28.144972 C73.8031818,27.7904213 73.9750452,27.4898609 74.1901381,27.2439285 C74.4045983,26.997571 74.6523768,26.8077546 74.9336845,26.6732039 C75.2147813,26.5388657 75.5108503,26.4716966 75.8221023,26.4716966 C76.1325107,26.4716966 76.4028529,26.5276 76.6322853,26.6396193 C76.8615068,26.7516386 77.094524,26.9044696 77.3317588,27.0983246 L77.2872641,26.1696483 L77.2872641,24.0772039 L78.2085784,24.0772039 L78.2085784,32.0446048 L77.4540664,32.0446048 L77.3762534,31.4067111 L77.3429351,31.4067111 C77.1278423,31.6154454 76.8819617,31.7967594 76.6046606,31.9495903 C76.3267269,32.1019961 76.0287601,32.178943 75.7107601,32.178943 C75.0296328,32.178943 74.4876832,31.9325855 74.0842786,31.4402957 C73.6806633,30.9480058 73.4792773,30.2465565 73.4792773,29.3365855" id="Fill-43" fill="#FEFEFE" mask="url(#mask-4)"></path>
                        <path d="M80.0844621,26.606056 L80.8396066,26.606056 L80.9174196,27.3897662 L80.9507379,27.3897662 C81.1873401,27.1285295 81.4443971,26.9104425 81.7223308,26.7346551 C81.9996318,26.5597179 82.3011836,26.4717179 82.6271968,26.4717179 C83.0411451,26.4717179 83.3654714,26.5631188 83.5982777,26.7459208 C83.8317167,26.9289353 84.0035801,27.1846454 84.1145005,27.5124135 C84.3958082,27.1993121 84.6790138,26.947428 84.9641172,26.7569739 C85.2483772,26.5671575 85.5577313,26.4717179 85.8904926,26.4717179 C86.4457273,26.4717179 86.8581995,26.6509063 87.1287525,27.008858 C87.3988838,27.3672348 87.5336332,27.8971478 87.5336332,28.5977469 L87.5336332,32.0446261 L86.6234952,32.0446261 L86.6234952,28.7210319 C86.6234952,28.2062106 86.5418865,27.8352928 86.3790907,27.6076406 C86.2160841,27.3804135 85.9645098,27.2662686 85.6243679,27.2662686 C85.2171676,27.2662686 84.7658944,27.5459981 84.2699156,28.105457 L84.2699156,32.0446261 L83.3595668,32.0446261 L83.3595668,28.7210319 C83.3595668,28.2062106 83.2779581,27.8352928 83.1155841,27.6076406 C82.9523666,27.3804135 82.6972074,27.2662686 82.3492631,27.2662686 C81.9422737,27.2662686 81.4907897,27.5459981 80.9952326,28.105457 L80.9952326,32.0446261 L80.0844621,32.0446261 L80.0844621,26.606056 Z" id="Fill-44" fill="#FEFEFE" mask="url(#mask-4)"></path>
                        <path d="M89.5652905,32.0445411 L90.4758501,32.0445411 L90.4758501,26.605971 L89.5652905,26.605971 L89.5652905,32.0445411 Z M90.0313249,25.4870531 C89.8541897,25.4870531 89.7042573,25.4309372 89.5821605,25.3195556 C89.4598528,25.2075362 89.3989098,25.0657585 89.3989098,24.8937971 C89.3989098,24.7150338 89.4598528,24.5715556 89.5821605,24.4633623 C89.7042573,24.3553816 89.8541897,24.3007536 90.0313249,24.3007536 C90.2090928,24.3007536 90.3588143,24.3553816 90.481122,24.4633623 C90.6032188,24.5715556 90.6641618,24.7150338 90.6641618,24.8937971 C90.6641618,25.0657585 90.6032188,25.2075362 90.481122,25.3195556 C90.3588143,25.4309372 90.2090928,25.4870531 90.0313249,25.4870531 Z" id="Fill-45" fill="#FEFEFE" mask="url(#mask-4)"></path>
                        <path d="M92.5734692,26.606056 L93.3286138,26.606056 L93.4064268,27.3897662 L93.4395342,27.3897662 C93.6987,27.1285295 93.9707292,26.9104425 94.2558326,26.7346551 C94.5403034,26.5597179 94.8715886,26.4717179 95.2490554,26.4717179 C95.8190515,26.4717179 96.2348976,26.6509063 96.4976483,27.008858 C96.7606098,27.3672348 96.8919851,27.8971478 96.8919851,28.5977469 L96.8919851,32.0446261 L95.9818472,32.0446261 L95.9818472,28.7210319 C95.9818472,28.2062106 95.9000276,27.8352928 95.7374427,27.6076406 C95.5744361,27.3804135 95.315692,27.2662686 94.960578,27.2662686 C94.6788485,27.2662686 94.43107,27.3374763 94.2166098,27.4786164 C94.0019387,27.6208193 93.7575342,27.8297662 93.4840289,28.105457 L93.4840289,32.0446261 L92.5734692,32.0446261 L92.5734692,26.606056 Z" id="Fill-46" fill="#FEFEFE" mask="url(#mask-4)"></path>
                        <path d="M98.9235159,32.0445411 L99.8340756,32.0445411 L99.8340756,26.605971 L98.9235159,26.605971 L98.9235159,32.0445411 Z M99.3895504,25.4870531 C99.2124151,25.4870531 99.0626936,25.4309372 98.9405968,25.3195556 C98.8180782,25.2075362 98.7573462,25.0657585 98.7573462,24.8937971 C98.7573462,24.7150338 98.8180782,24.5715556 98.9405968,24.4633623 C99.0626936,24.3553816 99.2124151,24.3007536 99.3895504,24.3007536 C99.5675292,24.3007536 99.7172507,24.3553816 99.8395584,24.4633623 C99.9616552,24.5715556 100.022598,24.7150338 100.022598,24.8937971 C100.022598,25.0657585 99.9616552,25.2075362 99.8395584,25.3195556 C99.7172507,25.4309372 99.5675292,25.4870531 99.3895504,25.4870531 Z" id="Fill-47" fill="#FEFEFE" mask="url(#mask-4)"></path>
                        <path d="M101.787941,30.8135614 C102.024543,31.0078415 102.266839,31.1644986 102.515039,31.2833198 C102.762818,31.4032039 103.049186,31.4627208 103.37541,31.4627208 C103.730525,31.4627208 103.99686,31.380885 104.174417,31.2167884 C104.352185,31.0526918 104.441174,30.850972 104.441174,30.6124792 C104.441174,30.4707014 104.403849,30.3474164 104.330043,30.2428367 C104.255604,30.1386821 104.161554,30.0470686 104.047048,29.9686338 C103.93191,29.8906242 103.800535,29.821542 103.652712,29.7616 C103.504466,29.7022957 103.356432,29.6423536 103.208608,29.5828367 C103.015868,29.5158802 102.823761,29.4393585 102.631442,29.3534841 C102.438702,29.2678222 102.266839,29.1632425 102.115009,29.0399575 C101.963178,28.9166725 101.839605,28.7736193 101.743446,28.608885 C101.646865,28.4454261 101.598997,28.2477449 101.598997,28.0162667 C101.598997,27.7996676 101.641594,27.5966725 101.726576,27.4062184 C101.811559,27.2157643 101.933656,27.0520928 102.092656,26.9137159 C102.252078,26.7759768 102.446294,26.6679961 102.675937,26.5895614 C102.905369,26.5111266 103.164324,26.4715903 103.452802,26.4715903 C103.793365,26.4715903 104.105883,26.5315324 104.390986,26.6509913 C104.675879,26.7702377 104.921759,26.9158415 105.129261,27.0871652 L104.696334,27.6691556 C104.511185,27.5273778 104.318867,27.4119575 104.118957,27.3224696 C103.919258,27.2327691 103.701002,27.1879188 103.463767,27.1879188 C103.123625,27.1879188 102.873949,27.2663536 102.714527,27.4232232 C102.555738,27.5794551 102.476027,27.7626821 102.476027,27.9714164 C102.476027,28.0981024 102.509135,28.2082087 102.575771,28.3013101 C102.642619,28.3948367 102.731608,28.4770976 102.842529,28.5476676 C102.953027,28.6186628 103.081239,28.6820058 103.225056,28.7379092 C103.369717,28.7940251 103.519438,28.851629 103.674853,28.9113585 C103.867172,28.9859671 104.061388,29.0644019 104.257502,29.1460251 C104.453827,29.228286 104.629697,29.3311652 104.785112,29.4540251 C104.940738,29.5770976 105.068318,29.7280155 105.168273,29.9072039 C105.268227,30.0863923 105.317994,30.3027787 105.317994,30.5563633 C105.317994,30.7799768 105.275397,30.9889237 105.190625,31.1832039 C105.104799,31.3768464 104.979328,31.5483826 104.812737,31.6978126 C104.646567,31.8468174 104.439277,31.9647884 104.191287,32.0498126 C103.943087,32.135687 103.660092,32.1790493 103.342092,32.1790493 C102.957034,32.1790493 102.590954,32.1078415 102.24301,31.9660638 C101.894644,31.8244986 101.591194,31.6457353 101.33245,31.4291362 L101.787941,30.8135614 Z" id="Fill-48" fill="#FEFEFE" mask="url(#mask-4)"></path>
                        <path d="M107.016574,27.3560329 L106.217567,27.3560329 L106.217567,26.6620232 L107.061068,26.6061198 L107.1722,25.0841874 L107.937888,25.0841874 L107.937888,26.6061198 L109.392717,26.6061198 L109.392717,27.3560329 L107.937888,27.3560329 L107.937888,30.3771536 C107.937888,30.7127865 107.999253,30.9723227 108.120928,31.1549121 C108.243236,31.3379266 108.459805,31.429115 108.770846,31.429115 C108.866794,31.429115 108.970334,31.4144483 109.081465,31.3842647 C109.192596,31.3545063 109.292551,31.3209217 109.381541,31.2835111 L109.558887,31.9773082 C109.411063,32.0293855 109.249533,32.0763614 109.076193,32.1171729 C108.902221,32.1579845 108.729725,32.179028 108.559549,32.179028 C108.271282,32.179028 108.028775,32.1341778 107.832661,32.0446899 C107.636336,31.9549894 107.477547,31.8317043 107.35524,31.6754725 C107.232932,31.5186029 107.146051,31.3281488 107.094387,31.1047478 C107.042301,30.8807092 107.016574,30.6347768 107.016574,30.3661005 L107.016574,27.3560329 Z" id="Fill-49" fill="#FEFEFE" mask="url(#mask-4)"></path>
                        <path d="M110.890796,26.606056 L111.64573,26.606056 L111.723543,27.5906357 L111.756861,27.5906357 C111.941377,27.2479884 112.165749,26.9752734 112.428499,26.7741913 C112.69125,26.5724715 112.977619,26.4717179 113.288871,26.4717179 C113.503542,26.4717179 113.695649,26.5091285 113.866247,26.5837372 L113.688479,27.3897662 C113.599701,27.3597952 113.517881,27.3374763 113.444497,27.3223845 C113.370058,27.3072928 113.277694,27.3000657 113.166774,27.3000657 C112.937131,27.3000657 112.69842,27.3935923 112.450641,27.5795826 C112.202441,27.7659981 111.985872,28.0907903 111.801356,28.5531092 L111.801356,32.0446261 L110.890796,32.0446261 L110.890796,26.606056 Z" id="Fill-50" fill="#FEFEFE" mask="url(#mask-4)"></path>
                        <path d="M115.376009,30.5675865 C115.376009,30.8806879 115.466897,31.1047266 115.647828,31.2390647 C115.828969,31.3731903 116.053341,31.4401469 116.319466,31.4401469 C116.57842,31.4401469 116.824723,31.3789295 117.05774,31.2556444 C117.290968,31.132572 117.536849,30.9518957 117.796436,30.7127652 L117.796436,29.2020986 C117.344741,29.2620406 116.963479,29.3330357 116.652859,29.4148715 C116.341607,29.4971324 116.091931,29.5940599 115.903619,29.7056541 C115.714464,29.8176734 115.579293,29.9462725 115.498106,30.0918763 C115.416497,30.2374802 115.376009,30.3962628 115.376009,30.5675865 M114.476837,30.6347556 C114.476837,30.0376734 114.741064,29.5808812 115.270572,29.2639536 C115.799658,28.9468135 116.641683,28.7249005 117.796436,28.5977894 C117.796436,28.4264657 117.779355,28.2589681 117.746037,28.0942338 C117.712719,27.9305623 117.653463,27.7849585 117.568269,27.6580599 C117.483286,27.5313739 117.370257,27.4284947 117.230236,27.3500599 C117.08916,27.2718377 116.908019,27.2329391 116.686178,27.2329391 C116.367756,27.2329391 116.073585,27.2926686 115.803454,27.411915 C115.532901,27.5313739 115.291027,27.6657121 115.076355,27.8147169 L114.709854,27.1768232 C114.961428,27.0127266 115.268674,26.8543691 115.63159,26.701113 C115.993874,26.5487072 116.393272,26.4715478 116.830206,26.4715478 C117.489191,26.4715478 117.966402,26.6751807 118.262471,27.0818087 C118.558329,27.4884367 118.706574,28.0308908 118.706574,28.7098087 L118.706574,32.0446686 L117.95143,32.0446686 L117.873617,31.3955092 L117.851264,31.3955092 C117.59252,31.6121082 117.313321,31.7968232 117.013878,31.9496541 C116.713802,32.1020599 116.397279,32.1790068 116.064517,32.1790068 C115.605442,32.1790068 115.226077,32.0446686 114.926212,31.7757797 C114.626558,31.5075285 114.476837,31.1270454 114.476837,30.6347556" id="Fill-51" fill="#FEFEFE" mask="url(#mask-4)"></path>
                        <path d="M120.859801,27.3560329 L120.060795,27.3560329 L120.060795,26.6620232 L120.904296,26.6061198 L121.015216,25.0841874 L121.781116,25.0841874 L121.781116,26.6061198 L123.235734,26.6061198 L123.235734,27.3560329 L121.781116,27.3560329 L121.781116,30.3771536 C121.781116,30.7127865 121.84248,30.9723227 121.964155,31.1549121 C122.086252,31.3379266 122.302821,31.429115 122.613862,31.429115 C122.710021,31.429115 122.813561,31.4144483 122.924692,31.3842647 C123.035613,31.3545063 123.135779,31.3209217 123.224557,31.2835111 L123.401903,31.9773082 C123.25408,32.0293855 123.09276,32.0763614 122.919421,32.1171729 C122.745238,32.1579845 122.572952,32.179028 122.402776,32.179028 C122.114299,32.179028 121.872003,32.1341778 121.675678,32.0446899 C121.479564,31.9549894 121.320775,31.8317043 121.198256,31.6754725 C121.076159,31.5186029 120.989279,31.3281488 120.937614,31.1047478 C120.885317,30.8807092 120.859801,30.6347768 120.859801,30.3661005 L120.859801,27.3560329 Z" id="Fill-52" fill="#FEFEFE" mask="url(#mask-4)"></path>
                        <path d="M124.734446,32.0445411 L125.645005,32.0445411 L125.645005,26.605971 L124.734446,26.605971 L124.734446,32.0445411 Z M125.20048,25.4870531 C125.023134,25.4870531 124.873412,25.4309372 124.751316,25.3195556 C124.629008,25.2075362 124.568276,25.0657585 124.568276,24.8937971 C124.568276,24.7150338 124.629008,24.5715556 124.751316,24.4633623 C124.873412,24.3553816 125.023134,24.3007536 125.20048,24.3007536 C125.378459,24.3007536 125.52818,24.3553816 125.650488,24.4633623 C125.772585,24.5715556 125.833528,24.7150338 125.833528,24.8937971 C125.833528,25.0657585 125.772585,25.2075362 125.650488,25.3195556 C125.52818,25.4309372 125.378459,25.4870531 125.20048,25.4870531 Z" id="Fill-53" fill="#FEFEFE" mask="url(#mask-4)"></path>
                        <path d="M128.286577,29.336543 C128.286577,29.6496444 128.323902,29.9336251 128.397709,30.1867845 C128.471726,30.4405816 128.576953,30.6590937 128.714232,30.8418957 C128.851091,31.0242725 129.015784,31.1660502 129.208524,31.2670164 C129.400632,31.36777 129.611296,31.4179343 129.840729,31.4179343 C130.070372,31.4179343 130.281458,31.36777 130.473776,31.2670164 C130.665884,31.1660502 130.830577,31.0242725 130.968068,30.8418957 C131.104715,30.6590937 131.209942,30.4405816 131.284381,30.1867845 C131.358187,29.9336251 131.39488,29.6496444 131.39488,29.336543 C131.39488,29.0234415 131.358187,28.7379729 131.284381,28.4803498 C131.209942,28.2233643 131.104715,28.0012386 130.968068,27.8148232 C130.830577,27.6281952 130.665884,27.4845043 130.473776,27.3837507 C130.281458,27.2829971 130.070372,27.2328329 129.840729,27.2328329 C129.611296,27.2328329 129.400632,27.2829971 129.208524,27.3837507 C129.015784,27.4845043 128.851091,27.6281952 128.714232,27.8148232 C128.576953,28.0012386 128.471726,28.2233643 128.397709,28.4803498 C128.323902,28.7379729 128.286577,29.0234415 128.286577,29.336543 M127.343121,29.336543 C127.343121,28.8816638 127.411866,28.4771614 127.548514,28.1226106 C127.685161,27.7680599 127.868833,27.4679246 128.098266,27.2215671 C128.327276,26.9752097 128.591925,26.7892193 128.892,26.6621082 C129.191654,26.5354222 129.507967,26.4716541 129.840729,26.4716541 C130.174122,26.4716541 130.490646,26.5354222 130.790089,26.6621082 C131.090165,26.7892193 131.354392,26.9752097 131.584035,27.2215671 C131.813467,27.4679246 131.996507,27.7680599 132.133576,28.1226106 C132.270434,28.4771614 132.339179,28.8816638 132.339179,29.336543 C132.339179,29.7839826 132.270434,30.1852966 132.133576,30.5394222 C131.996507,30.8939729 131.813467,31.1924077 131.584035,31.4349391 C131.354392,31.6774705 131.090165,31.8619729 130.790089,31.9886589 C130.490646,32.1151324 130.174122,32.179113 129.840729,32.179113 C129.507967,32.179113 129.191654,32.1151324 128.892,31.9886589 C128.591925,31.8619729 128.327276,31.6774705 128.098266,31.4349391 C127.868833,31.1924077 127.685161,30.8939729 127.548514,30.5394222 C127.411866,30.1852966 127.343121,29.7839826 127.343121,29.336543" id="Fill-54" fill="#FEFEFE" mask="url(#mask-4)"></path>
                        <path d="M133.814843,26.606056 L134.569987,26.606056 L134.6478,27.3897662 L134.681119,27.3897662 C134.940074,27.1285295 135.212103,26.9104425 135.497206,26.7346551 C135.781677,26.5597179 136.112962,26.4717179 136.490429,26.4717179 C137.060636,26.4717179 137.476482,26.6509063 137.739233,27.008858 C138.001983,27.3672348 138.133359,27.8971478 138.133359,28.5977469 L138.133359,32.0446261 L137.223221,32.0446261 L137.223221,28.7210319 C137.223221,28.2062106 137.141612,27.8352928 136.978816,27.6076406 C136.816021,27.3804135 136.557066,27.2662686 136.201952,27.2662686 C135.920222,27.2662686 135.672655,27.3374763 135.457983,27.4786164 C135.243523,27.6208193 134.998908,27.8297662 134.725613,28.105457 L134.725613,32.0446261 L133.814843,32.0446261 L133.814843,26.606056 Z" id="Fill-55" fill="#FEFEFE" mask="url(#mask-4)"></path>
                    </g>
                </g>
            </g>
        </g>
    </g>
</svg>