<?xml version="1.0" encoding="UTF-8"?>
<svg width="194px" height="54px" viewBox="0 0 194 54" version="1.1" xmlns="http://www.w3.org/2000/svg" xmlns:xlink="http://www.w3.org/1999/xlink">
    <!-- Generator: Sketch 49 (51002) - http://www.bohemiancoding.com/sketch -->
    <title>Page 1</title>
    <desc>Created with Sketch.</desc>
    <defs>
        <polygon id="path-1" points="0 0.183677885 19.118983 0.183677885 19.118983 25.856524 0 25.856524"></polygon>
        <polygon id="path-3" points="0 53.7403846 193.81552 53.7403846 193.81552 0.0906057692 0 0.0906057692"></polygon>
    </defs>
    <g id="Page-1" stroke="none" stroke-width="1" fill="none" fill-rule="evenodd">
        <g id="Tablet" transform="translate(-523.000000, -1692.000000)">
            <g id="Page-1" transform="translate(523.000000, 1692.000000)">
                <polygon id="Fill-1" fill="#213369" points="7.71250345 43.4723106 7.71250345 53.9093683 55.6742435 53.9093683 55.6742435 50.0109837 12.0008297 50.0109837 11.5768085 50.0109837 11.5768085 49.5831375 11.5768085 43.4723106"></polygon>
                <polygon id="Fill-2" fill="#213369" points="7.77965729 0.259667308 7.77965729 10.696725 11.643705 10.696725 11.643705 4.58589808 11.643705 4.15831154 12.0677263 4.15831154 56.6913284 4.15831154 57.1150923 4.15831154 57.1150923 4.58589808 57.1150923 10.696725 60.9796546 10.696725 60.9796546 0.259667308"></polygon>
                <g id="Group-56" transform="translate(0.000000, 0.169010)">
                    <g id="Group-5" transform="translate(0.000000, 14.019231)">
                        <mask id="mask-2" fill="white">
                            <use xlink:href="#path-1"></use>
                        </mask>
                        <g id="Clip-4"></g>
                        <path d="M4.66675491,17.7074567 C4.69865942,19.0655048 5.34729867,21.646601 9.59188488,21.646601 C11.8926117,21.646601 14.4529485,21.0692163 14.4529485,18.4870817 C14.4529485,16.585399 12.7030891,16.0768125 10.2407814,15.4656779 L7.74554005,14.8532452 C3.98595385,13.9362837 0.35707321,13.0546298 0.35707321,7.68708173 C0.35707321,4.97098558 1.75032255,0.183677885 9.300113,0.183677885 C16.4289698,0.183677885 18.3409247,5.07249519 18.3743729,8.0611875 L13.7075666,8.0611875 C13.5773756,6.97495673 13.188861,4.39386058 8.94376021,4.39386058 C7.09638621,4.39386058 4.89394589,5.10780288 4.89394589,7.31453365 C4.89394589,9.21621635 6.38393793,9.62485096 7.35573899,9.86136058 L13.0270228,11.3229952 C16.2025507,12.1379279 19.118983,13.4949375 19.118983,17.8749087 C19.118983,25.211899 11.9890971,25.856524 9.94849496,25.856524 C1.45906525,25.856524 -5.14588859e-05,20.7293798 -5.14588859e-05,17.7074567 L4.66675491,17.7074567 Z" id="Fill-3" fill="#213369" mask="url(#mask-2)"></path>
                    </g>
                    <path d="M30.1131483,35.0202981 L36.3059679,35.0202981 C38.7636443,35.0202981 40.1774772,33.9335481 40.1774772,31.4537019 C40.1774772,29.3160288 38.3589202,28.4982404 36.541135,28.4982404 L30.1131483,28.4982404 L30.1131483,35.0202981 Z M30.1131483,24.3906058 L36.0370952,24.3906058 C38.0226363,24.3906058 39.6052544,23.6099423 39.6052544,21.6734712 C39.6052544,19.6687212 38.1909069,19.0575865 35.9020156,19.0575865 L30.1131483,19.0575865 L30.1131483,24.3906058 Z M25.2670077,14.8476635 L37.0124984,14.8476635 C42.9367027,14.8476635 44.4506231,18.5835288 44.4506231,21.0966058 C44.4506231,24.593625 42.4987875,25.5801635 41.4889069,26.0884904 C44.4506231,27.20925 45.2253366,29.5855096 45.2253366,31.998375 C45.2253366,33.9335481 44.4174321,35.7672115 43.1391934,37.0242692 C41.759066,38.3815385 40.4458353,39.2312596 35.498578,39.2312596 L25.2670077,39.2312596 L25.2670077,14.8476635 Z" id="Fill-6" fill="#213369"></path>
                    <polygon id="Fill-8" fill="#213369" points="60.9411119 14.8397712 57.1076822 14.8397712 49.4318175 39.2389442 54.2779581 39.2389442 58.981043 23.2201558 63.7608016 39.2389442 68.6069422 39.2389442"></polygon>
                    <polygon id="Fill-10" fill="#213369" points="60.9124751 49.8186346 57.0705546 53.7403846 57.0705546 39.2992788 60.9124751 39.2992788"></polygon>
                    <path d="M82.4887743,14.7965452 L83.6126363,14.7965452 L83.6126363,20.085949 C83.6126363,20.6236125 83.6669255,21.0745644 83.7755037,21.4390644 C83.8838247,21.8030452 84.0307398,22.0951125 84.2157345,22.313449 C84.4009865,22.5323048 84.6194294,22.6891125 84.8731218,22.7851702 C85.1252703,22.8807087 85.3964586,22.9284779 85.6854003,22.9284779 C85.9836045,22.9284779 86.2586523,22.8807087 86.51183,22.7851702 C86.7644931,22.6891125 86.9857663,22.5323048 87.1753923,22.313449 C87.3652756,22.0951125 87.5137345,21.8030452 87.6223127,21.4390644 C87.7306337,21.0745644 87.7849228,20.6236125 87.7849228,20.085949 L87.7849228,14.7965452 L88.8683897,14.7965452 L88.8683897,20.0586894 C88.8683897,20.7783433 88.7870846,21.3842856 88.6249891,21.8762567 C88.462379,22.3682279 88.2390475,22.7664779 87.9539653,23.0723048 C87.6701695,23.3773529 87.3333711,23.5964683 86.9448565,23.7283529 C86.5565992,23.8597183 86.136952,23.9264394 85.6854003,23.9264394 C85.2338485,23.9264394 84.8116284,23.8597183 84.4192544,23.7283529 C84.0261085,23.5964683 83.687509,23.3773529 83.4029414,23.0723048 C83.118631,22.7664779 82.8952995,22.3682279 82.7326894,21.8762567 C82.569822,21.3842856 82.4887743,20.7783433 82.4887743,20.0586894 L82.4887743,14.7965452 Z" id="Fill-12" fill="#213369"></path>
                    <path d="M89.6947679,23.0788731 C89.6947679,22.8145846 89.7737573,22.6029981 89.9317361,22.4435942 C90.0897149,22.2841904 90.2811419,22.2039692 90.5070464,22.2039692 C90.7239456,22.2039692 90.9115133,22.2841904 91.069492,22.4435942 C91.2274708,22.6029981 91.3064602,22.8145846 91.3064602,23.0788731 C91.3064602,23.3249885 91.2274708,23.5277481 91.069492,23.6871519 C90.9115133,23.8460365 90.7239456,23.9265173 90.5070464,23.9265173 C90.2811419,23.9265173 90.0897149,23.8460365 89.9317361,23.6871519 C89.7737573,23.5277481 89.6947679,23.3249885 89.6947679,23.0788731" id="Fill-14" fill="#213369"></path>
                    <path d="M93.2298133,21.8077962 C93.5457708,22.1450365 93.9183332,22.4163346 94.3475003,22.6209115 C94.7758955,22.8260077 95.2210149,22.9282962 95.6813146,22.9282962 C96.2684605,22.9282962 96.7246435,22.7938154 97.0496064,22.5251135 C97.3748265,22.2566712 97.536922,21.9035942 97.536922,21.4664019 C97.536922,21.2387192 97.4985851,21.0447865 97.4219114,20.8853827 C97.3452377,20.7259788 97.2418053,20.5891615 97.1108424,20.47545 C96.979365,20.3612192 96.8237019,20.2589308 96.6433385,20.1672865 C96.4622032,20.0769404 96.2684605,19.9811423 96.0610812,19.8806712 L94.787731,19.3204212 C94.5795798,19.2292962 94.3675692,19.1199981 94.1511846,18.9920077 C93.9340281,18.8647962 93.7395135,18.7100654 93.56867,18.5275558 C93.3965401,18.3455654 93.2568292,18.1290462 93.1485082,17.8779981 C93.03993,17.6277288 92.9858981,17.3387769 92.9858981,17.0103635 C92.9858981,16.6736423 93.0558822,16.3589885 93.1961077,16.0677 C93.3358186,15.7761519 93.5298186,15.5232865 93.7786223,15.3085846 C94.0269114,15.0951808 94.3202271,14.9285077 94.6588265,14.8101231 C94.997426,14.6917385 95.3699883,14.6322865 95.7759989,14.6322865 C96.309113,14.6322865 96.8013172,14.734575 97.252869,14.9399308 C97.7044207,15.1450269 98.0880467,15.4116519 98.4040042,15.7392865 L97.7944737,16.4773731 C97.5232854,16.2133442 97.2232801,16.0056519 96.8936859,15.8558538 C96.5643491,15.7055365 96.1917867,15.6299885 95.7759989,15.6299885 C95.2794207,15.6299885 94.880357,15.7462962 94.5777788,15.9783923 C94.2749432,16.2110077 94.1241687,16.5321519 94.1241687,16.941825 C94.1241687,17.1609404 94.1666223,17.3452673 94.2525586,17.4955846 C94.3379804,17.6461615 94.4535056,17.7783058 94.5978477,17.8917577 C94.7424472,18.0059885 94.9001687,18.1064596 95.0717841,18.1926519 C95.2433995,18.2796231 95.4196462,18.359325 95.6000095,18.4317577 L96.8594658,18.9785077 C97.1126435,19.0878058 97.3519273,19.2134596 97.5775745,19.3544308 C97.8032218,19.4959212 97.9977363,19.6599981 98.1600891,19.8461423 C98.3226992,20.0335846 98.451861,20.2519212 98.5460308,20.5021904 C98.6409724,20.7532385 98.6888292,21.0421904 98.6888292,21.3706038 C98.6888292,21.7257577 98.6185878,22.0588442 98.4788769,22.3680462 C98.3383942,22.6780269 98.1374472,22.9490654 97.8760361,23.1811615 C97.6135958,23.4137769 97.2976382,23.5962865 96.9273915,23.7281712 C96.5574021,23.8597962 96.1377549,23.9265173 95.6679353,23.9265173 C95.0447682,23.9265173 94.4671422,23.8073538 93.9340281,23.5708442 C93.4014286,23.3338154 92.9408716,23.0103346 92.552357,22.6006615 L93.2298133,21.8077962 Z" id="Fill-16" fill="#213369"></path>
                    <path d="M99.8940735,23.0788731 C99.8940735,22.8145846 99.9733202,22.6029981 100.131299,22.4435942 C100.28902,22.2841904 100.480705,22.2039692 100.706352,22.2039692 C100.923508,22.2039692 101.110819,22.2841904 101.268798,22.4435942 C101.426776,22.6029981 101.505766,22.8145846 101.505766,23.0788731 C101.505766,23.3249885 101.426776,23.5277481 101.268798,23.6871519 C101.110819,23.8460365 100.923508,23.9265173 100.706352,23.9265173 C100.480705,23.9265173 100.28902,23.8460365 100.131299,23.6871519 C99.9733202,23.5277481 99.8940735,23.3249885 99.8940735,23.0788731" id="Fill-18" fill="#213369"></path>
                    <path d="M106.77495,21.8077962 C107.090907,22.1450365 107.46347,22.4163346 107.892637,22.6209115 C108.321289,22.8260077 108.766151,22.9282962 109.226451,22.9282962 C109.813854,22.9282962 110.26978,22.7938154 110.594743,22.5251135 C110.919963,22.2566712 111.082059,21.9035942 111.082059,21.4664019 C111.082059,21.2387192 111.043979,21.0447865 110.967305,20.8853827 C110.890632,20.7259788 110.786942,20.5891615 110.655979,20.47545 C110.524502,20.3612192 110.368838,20.2589308 110.188732,20.1672865 C110.00734,20.0769404 109.813854,19.9811423 109.606218,19.8806712 L108.332868,19.3204212 C108.124716,19.2292962 107.912706,19.1199981 107.696321,18.9920077 C107.479165,18.8647962 107.28465,18.7100654 107.113807,18.5275558 C106.941677,18.3455654 106.801966,18.1290462 106.693645,17.8779981 C106.585324,17.6277288 106.531035,17.3387769 106.531035,17.0103635 C106.531035,16.6736423 106.601019,16.3589885 106.741244,16.0677 C106.880955,15.7761519 107.074955,15.5232865 107.323759,15.3085846 C107.572048,15.0951808 107.865364,14.9285077 108.203963,14.8101231 C108.54282,14.6917385 108.915125,14.6322865 109.321393,14.6322865 C109.85425,14.6322865 110.346454,14.734575 110.798006,14.9399308 C111.249557,15.1450269 111.633441,15.4116519 111.949141,15.7392865 L111.33961,16.4773731 C111.068422,16.2133442 110.768417,16.0056519 110.43908,15.8558538 C110.109486,15.7055365 109.737181,15.6299885 109.321393,15.6299885 C108.824557,15.6299885 108.425494,15.7462962 108.122915,15.9783923 C107.82008,16.2110077 107.669305,16.5321519 107.669305,16.941825 C107.669305,17.1609404 107.711759,17.3452673 107.797695,17.4955846 C107.883117,17.6461615 107.998642,17.7783058 108.142984,17.8917577 C108.287584,18.0059885 108.445563,18.1064596 108.616921,18.1926519 C108.788536,18.2796231 108.964783,18.359325 109.145146,18.4317577 L110.40486,18.9785077 C110.65778,19.0878058 110.897064,19.2134596 111.122711,19.3544308 C111.348358,19.4959212 111.54313,19.6599981 111.705226,19.8461423 C111.867836,20.0335846 111.996998,20.2519212 112.091167,20.5021904 C112.186109,20.7532385 112.233966,21.0421904 112.233966,21.3706038 C112.233966,21.7257577 112.163724,22.0588442 112.024014,22.3680462 C111.883788,22.6780269 111.682841,22.9490654 111.421173,23.1811615 C111.158732,23.4137769 110.843032,23.5962865 110.472528,23.7281712 C110.102539,23.8597962 109.682892,23.9265173 109.213072,23.9265173 C108.589905,23.9265173 108.012279,23.8073538 107.479165,23.5708442 C106.946565,23.3338154 106.486008,23.0103346 106.097494,22.6006615 L106.77495,21.8077962 Z" id="Fill-20" fill="#213369"></path>
                    <path d="M114.210862,17.1197654 L115.132233,17.1197654 L115.227175,18.0767077 L115.267827,18.0767077 C115.556512,17.7579 115.870154,17.4915346 116.209268,17.2768327 C116.54761,17.0631692 116.915541,16.9556885 117.313318,16.9556885 C117.818387,16.9556885 118.214106,17.0673231 118.498159,17.2905923 C118.782984,17.5141212 118.992679,17.8264385 119.128273,18.2267654 C119.471246,17.8443519 119.816793,17.5367077 120.164655,17.3040923 C120.511745,17.0722558 120.888939,16.9556885 121.294949,16.9556885 C121.972406,16.9556885 122.475673,17.1745442 122.805782,17.6117365 C123.135376,18.0494481 123.299788,18.6964096 123.299788,19.5523615 L123.299788,23.7622846 L122.189305,23.7622846 L122.189305,19.7029385 C122.189305,19.07415 122.089732,18.6208615 121.891101,18.3430731 C121.692469,18.0655442 121.38526,17.9261308 120.970244,17.9261308 C120.473408,17.9261308 119.922798,18.267525 119.317642,18.9510923 L119.317642,23.7622846 L118.206902,23.7622846 L118.206902,19.7029385 C118.206902,19.07415 118.107329,18.6208615 117.909212,18.3430731 C117.710066,18.0655442 117.39874,17.9261308 116.974204,17.9261308 C116.477626,17.9261308 115.927016,18.267525 115.322116,18.9510923 L115.322116,23.7622846 L114.210862,23.7622846 L114.210862,17.1197654 Z" id="Fill-22" fill="#213369"></path>
                    <path d="M126.28008,21.9582692 C126.28008,22.3406827 126.390974,22.6143173 126.61199,22.7783942 C126.833006,22.9419519 127.10651,23.0239904 127.431473,23.0239904 C127.747173,23.0239904 128.04795,22.9492212 128.332261,22.7986442 C128.616828,22.6483269 128.916834,22.4276538 129.233563,22.1355865 L129.233563,20.2905 C128.682181,20.3637115 128.216993,20.4504231 127.838255,20.550375 C127.458489,20.6508462 127.153852,20.7692308 126.923831,20.9055288 C126.693295,21.0423462 126.528369,21.1994135 126.429311,21.37725 C126.329481,21.5550865 126.28008,21.7487596 126.28008,21.9582692 M125.182977,22.0403077 C125.182977,21.3110481 125.505624,20.7531346 126.15169,20.3660481 C126.797242,19.9787019 127.824619,19.7076635 129.233563,19.5524135 C129.233563,19.3429038 129.212465,19.1383269 129.17207,18.9373846 C129.131417,18.7374808 129.05886,18.5596442 128.954913,18.4046538 C128.851224,18.2499231 128.713314,18.1242692 128.54247,18.0284712 C128.37034,17.9329327 128.149324,17.8851635 127.878908,17.8851635 C127.490393,17.8851635 127.131468,17.958375 126.801616,18.1040192 C126.471765,18.2499231 126.176391,18.414 125.914722,18.5959904 L125.467287,17.8168846 C125.77424,17.6164615 126.149118,17.4230481 126.591921,17.2358654 C127.03421,17.0494615 127.521526,16.9554808 128.054383,16.9554808 C128.858428,16.9554808 129.440685,17.2041923 129.801927,17.7008365 C130.162911,18.1974808 130.343789,18.8600192 130.343789,19.6892308 L130.343789,23.7623365 L129.422675,23.7623365 L129.327733,22.9694712 L129.30046,22.9694712 C128.984759,23.2340192 128.644102,23.4593654 128.278486,23.6462885 C127.912356,23.8324327 127.526415,23.9264135 127.120147,23.9264135 C126.560274,23.9264135 126.097401,23.7623365 125.731271,23.4339231 C125.365913,23.1060288 125.182977,22.6415769 125.182977,22.0403077" id="Fill-24" fill="#213369"></path>
                    <path d="M132.781293,14.0311212 L133.89229,14.0311212 L133.89229,22.5049673 C133.89229,22.6874769 133.923423,22.8146885 133.986975,22.8873808 C134.050012,22.9605923 134.122312,22.9966788 134.203617,22.9966788 L134.304991,22.9966788 C134.336895,22.9966788 134.38398,22.9878519 134.447789,22.9694192 L134.59702,23.8168038 C134.524206,23.85315 134.438269,23.8804096 134.339211,23.8991019 C134.239638,23.9170154 134.113564,23.9263615 133.959702,23.9263615 C133.535423,23.9263615 133.232845,23.7986308 133.052481,23.5434288 C132.871603,23.2887462 132.781293,22.9146404 132.781293,22.4226692 L132.781293,14.0311212 Z" id="Fill-26" fill="#213369"></path>
                    <path d="M136.573864,14.0311212 L137.684862,14.0311212 L137.684862,22.5049673 C137.684862,22.6874769 137.715994,22.8146885 137.779546,22.8873808 C137.842583,22.9605923 137.914883,22.9966788 137.996188,22.9966788 L138.097562,22.9966788 C138.129467,22.9966788 138.176551,22.9878519 138.24036,22.9694192 L138.389591,23.8168038 C138.316777,23.85315 138.230841,23.8804096 138.131782,23.8991019 C138.032209,23.9170154 137.906135,23.9263615 137.752273,23.9263615 C137.327737,23.9263615 137.025416,23.7986308 136.845053,23.5434288 C136.664175,23.2887462 136.573864,22.9146404 136.573864,22.4226692 L136.573864,14.0311212 Z" id="Fill-28" fill="#213369"></path>
                    <path d="M146.217903,22.8599654 C146.985412,22.8599654 147.581563,22.7166577 148.005842,22.4300423 C148.430378,22.1426481 148.642388,21.6942923 148.642388,21.0834173 C148.642388,20.5278404 148.435009,20.119725 148.019479,19.85985 C147.603948,19.6004942 147.003937,19.4709462 146.217903,19.4709462 L144.673622,19.4709462 L144.673622,22.8599654 L146.217903,22.8599654 Z M145.987367,18.6233019 C146.755134,18.6233019 147.303943,18.4914173 147.63328,18.2266096 C147.962874,17.9625808 148.127799,17.5801673 148.127799,17.0785904 C148.127799,16.5868788 147.953868,16.2335423 147.606264,16.0193596 C147.258402,15.8059558 146.73738,15.6982154 146.041656,15.6982154 L144.673622,15.6982154 L144.673622,18.6233019 L145.987367,18.6233019 Z M143.549502,14.7965712 L146.191144,14.7965712 C146.642439,14.7965712 147.055654,14.8375904 147.430532,14.9191096 C147.804895,15.0011481 148.125484,15.1291385 148.391784,15.3020423 C148.658341,15.4752058 148.865977,15.7005519 149.014951,15.9783404 C149.164181,16.2566481 149.238282,16.5915519 149.238282,16.9830519 C149.238282,17.4295904 149.112208,17.8330327 148.859545,18.1926 C148.606367,18.5526865 148.217853,18.8011385 147.694516,18.9374365 L147.694516,18.9922154 C148.344956,19.0926865 148.85054,19.3203692 149.211266,19.6755231 C149.572508,20.0311962 149.753643,20.5182346 149.753643,21.1381962 C149.753643,21.5751288 149.672338,21.9583212 149.509471,22.2859558 C149.34686,22.6143692 149.117097,22.887225 148.818635,23.1060808 C148.520431,23.3251962 148.163821,23.4884942 147.748805,23.5980519 C147.333274,23.7076096 146.877091,23.7623885 146.38077,23.7623885 L143.549502,23.7623885 L143.549502,14.7965712 Z" id="Fill-30" fill="#213369"></path>
                    <path d="M151.378612,17.1197654 L152.503503,17.1197654 L152.503503,21.1791115 C152.503503,21.8079 152.599988,22.2609288 152.794503,22.5387173 C152.988503,22.817025 153.302145,22.9556596 153.735943,22.9556596 C154.078917,22.9556596 154.381495,22.8671308 154.643163,22.6892942 C154.905346,22.5114577 155.194288,22.2271788 155.510246,21.8351596 L155.510246,17.1197654 L156.620728,17.1197654 L156.620728,23.7622846 L155.700129,23.7622846 L155.605187,22.7235635 L155.564535,22.7235635 C155.257325,23.0878038 154.934163,23.3798712 154.596079,23.5982077 C154.257479,23.8168038 153.858158,23.9263615 153.397086,23.9263615 C152.692614,23.9263615 152.180341,23.7075058 151.859752,23.2703135 C151.539163,22.8326019 151.378612,22.1861596 151.378612,21.3296885 L151.378612,17.1197654 Z" id="Fill-32" fill="#213369"></path>
                    <path d="M159.00523,22.2585923 C159.293915,22.4958808 159.589546,22.6874769 159.892124,22.8326019 C160.194702,22.9787654 160.544108,23.0514577 160.942143,23.0514577 C161.375427,23.0514577 161.700132,22.9515058 161.917031,22.7510827 C162.133931,22.5506596 162.242509,22.3045442 162.242509,22.0129962 C162.242509,21.8398327 162.196968,21.6895154 162.106915,21.561525 C162.01609,21.4343135 161.901079,21.3224192 161.761368,21.2266212 C161.621143,21.1316019 161.460848,21.0469673 161.280485,20.9740154 C161.099607,20.9013231 160.918986,20.8281115 160.738623,20.7556788 C160.503456,20.6736404 160.268803,20.5801788 160.034408,20.4755538 C159.799241,20.3709288 159.589546,20.2429385 159.404294,20.0923615 C159.219042,19.9420442 159.068267,19.7670635 158.950941,19.5661212 C158.8331,19.3662173 158.774694,19.124775 158.774694,18.8423135 C158.774694,18.5775058 158.826668,18.3295731 158.930358,18.0969577 C159.034047,17.8643423 159.183021,17.6646981 159.377021,17.4956885 C159.571535,17.3271981 159.808503,17.1953135 160.088697,17.0995154 C160.368633,17.0037173 160.684334,16.9556885 161.03657,16.9556885 C161.4521,16.9556885 161.833411,17.0286404 162.181273,17.1745442 C162.528877,17.3201885 162.828883,17.498025 163.081803,17.7075346 L162.553578,18.4181019 C162.327931,18.2451981 162.093278,18.1042269 161.849363,17.9946692 C161.605705,17.8851115 161.339405,17.8305923 161.049949,17.8305923 C160.634933,17.8305923 160.330039,17.9263904 160.135782,18.1177269 C159.941782,18.3088038 159.844525,18.5323327 159.844525,18.7875346 C159.844525,18.9422654 159.885177,19.0764865 159.966482,19.1901981 C160.048045,19.3044288 160.156366,19.4049 160.29196,19.4910923 C160.426782,19.5780635 160.583217,19.6554288 160.758692,19.7237077 C160.934938,19.7922462 161.117875,19.8623423 161.307501,19.9355538 C161.542153,20.0264192 161.779121,20.1222173 162.018405,20.2221692 C162.257946,20.3226404 162.47253,20.4480346 162.662156,20.5980923 C162.851782,20.7486692 163.007702,20.9329962 163.129403,21.1518519 C163.251618,21.3707077 163.312339,21.6347365 163.312339,21.9447173 C163.312339,22.2175731 163.260366,22.472775 163.156676,22.7100635 C163.052214,22.9468327 162.899124,23.1563423 162.695862,23.3388519 C162.493114,23.5208423 162.239936,23.6646692 161.937615,23.768775 C161.634779,23.8734 161.289233,23.9263615 160.90149,23.9263615 C160.431671,23.9263615 159.985007,23.83965 159.560472,23.6664865 C159.135421,23.4933231 158.765175,23.2752462 158.449217,23.0104385 L159.00523,22.2585923 Z" id="Fill-34" fill="#213369"></path>
                    <mask id="mask-4" fill="white">
                        <use xlink:href="#path-3"></use>
                    </mask>
                    <g id="Clip-37"></g>
                    <path d="M165.194345,23.7623365 L166.305599,23.7623365 L166.305599,17.1198173 L165.194345,17.1198173 L165.194345,23.7623365 Z M165.763223,15.7529423 C165.546838,15.7529423 165.364159,15.6844038 165.214928,15.5483654 C165.065955,15.4115481 164.991597,15.2383846 164.991597,15.0286154 C164.991597,14.8102788 165.065955,14.6347788 165.214928,14.5026346 C165.364159,14.37075 165.546838,14.3040288 165.763223,14.3040288 C165.980379,14.3040288 166.163058,14.37075 166.312032,14.5026346 C166.461263,14.6347788 166.535363,14.8102788 166.535363,15.0286154 C166.535363,15.2383846 166.461263,15.4115481 166.312032,15.5483654 C166.163058,15.6844038 165.980379,15.7529423 165.763223,15.7529423 Z" id="Fill-36" fill="#213369" mask="url(#mask-4)"></path>
                    <path d="M168.865576,17.1197654 L169.786947,17.1197654 L169.881889,18.0767077 L169.922284,18.0767077 C170.238499,17.7579 170.570409,17.4915346 170.918271,17.2768327 C171.265361,17.0631692 171.669571,16.9556885 172.130128,16.9556885 C172.825595,16.9556885 173.332979,17.1745442 173.653568,17.6117365 C173.974414,18.0494481 174.134709,18.6964096 174.134709,19.5523615 L174.134709,23.7622846 L173.024226,23.7622846 L173.024226,19.7029385 C173.024226,19.07415 172.924396,18.6208615 172.726022,18.3430731 C172.527133,18.0655442 172.211433,17.9261308 171.778149,17.9261308 C171.434404,17.9261308 171.132083,18.0131019 170.870414,18.1854865 C170.608489,18.3591692 170.310284,18.6143712 169.976573,18.9510923 L169.976573,23.7622846 L168.865576,23.7622846 L168.865576,17.1197654 Z" id="Fill-38" fill="#213369" mask="url(#mask-4)"></path>
                    <path d="M180.731532,19.9491577 C180.731532,19.26585 180.589248,18.7440231 180.304681,18.3841962 C180.02037,18.0243692 179.621049,17.8441962 179.105689,17.8441962 C178.871293,17.8441962 178.647705,17.8917058 178.435437,17.9875038 C178.223169,18.0833019 178.031227,18.2201192 177.859612,18.3979558 C177.687996,18.5752731 177.54597,18.7941288 177.433532,19.0540038 C177.320065,19.3133596 177.245193,19.6119173 177.209429,19.9491577 L180.731532,19.9491577 Z M176.125962,20.4546288 C176.125962,19.9081385 176.20984,19.4185038 176.376309,18.985725 C176.543293,18.5526865 176.764824,18.1855904 177.040129,17.8852154 C177.315691,17.5843212 177.62959,17.3545615 177.981569,17.1954173 C178.334063,17.0357538 178.699678,16.9555327 179.078415,16.9555327 C179.493946,16.9555327 179.866766,17.0287442 180.196102,17.1743885 C180.525697,17.3202923 180.801002,17.5300615 181.022532,17.8031769 C181.243548,18.0768115 181.41259,18.4044462 181.530689,18.7873788 C181.648272,19.1700519 181.706421,19.5981577 181.706421,20.0722154 C181.706421,20.3178115 181.692784,20.5229077 181.666283,20.6872442 L177.222808,20.6872442 C177.268349,21.4068981 177.487049,21.9767538 177.880195,22.3955135 C178.272569,22.8147923 178.7851,23.0240423 179.417529,23.0240423 C179.733487,23.0240423 180.024744,22.9765327 180.291044,22.8807346 C180.557344,22.7849365 180.81258,22.6600615 181.056238,22.5048115 L181.449384,23.2431577 C181.159927,23.4248885 180.839853,23.5842923 180.48736,23.7211096 C180.135638,23.8579269 179.733487,23.9264654 179.281935,23.9264654 C178.839389,23.9264654 178.426689,23.8459846 178.043063,23.6871 C177.658665,23.5279558 177.324954,23.3000135 177.040129,23.0037923 C176.756076,22.7075712 176.53223,22.3454077 176.370134,21.9173019 C176.207267,21.4889365 176.125962,21.0013788 176.125962,20.4546288 Z" id="Fill-39" fill="#213369" mask="url(#mask-4)"></path>
                    <path d="M183.49418,22.2585923 C183.783121,22.4958808 184.078495,22.6874769 184.381331,22.8326019 C184.683652,22.9787654 185.033058,23.0514577 185.431092,23.0514577 C185.864376,23.0514577 186.189339,22.9515058 186.405981,22.7510827 C186.623137,22.5506596 186.731458,22.3045442 186.731458,22.0129962 C186.731458,21.8398327 186.686174,21.6895154 186.596121,21.561525 C186.505039,21.4343135 186.390286,21.3224192 186.250575,21.2266212 C186.110349,21.1316019 185.949798,21.0469673 185.769692,20.9740154 C185.588556,20.9013231 185.407936,20.8281115 185.227829,20.7556788 C184.992662,20.6736404 184.75801,20.5801788 184.523357,20.4755538 C184.28819,20.3709288 184.078495,20.2429385 183.893243,20.0923615 C183.708249,19.9420442 183.557217,19.7670635 183.43989,19.5661212 C183.32205,19.3662173 183.263644,19.124775 183.263644,18.8423135 C183.263644,18.5775058 183.315617,18.3295731 183.419307,18.0969577 C183.522997,17.8643423 183.672227,17.6646981 183.86597,17.4956885 C184.060742,17.3271981 184.29771,17.1953135 184.577646,17.0995154 C184.857583,17.0037173 185.17354,16.9556885 185.525519,16.9556885 C185.94105,16.9556885 186.32236,17.0286404 186.670222,17.1745442 C187.017827,17.3201885 187.317832,17.498025 187.57101,17.7075346 L187.042784,18.4181019 C186.81688,18.2451981 186.582485,18.1042269 186.338312,17.9946692 C186.094912,17.8851115 185.828355,17.8305923 185.538898,17.8305923 C185.12414,17.8305923 184.819246,17.9263904 184.624989,18.1177269 C184.430989,18.3088038 184.333731,18.5323327 184.333731,18.7875346 C184.333731,18.9422654 184.374384,19.0764865 184.455432,19.1901981 C184.536994,19.3044288 184.645572,19.4049 184.780909,19.4910923 C184.915989,19.5780635 185.072166,19.6554288 185.247641,19.7237077 C185.424145,19.7922462 185.606824,19.8623423 185.79645,19.9355538 C186.031103,20.0264192 186.268071,20.1222173 186.507612,20.2221692 C186.746896,20.3226404 186.961479,20.4480346 187.151363,20.5980923 C187.340989,20.7486692 187.496652,20.9329962 187.618609,21.1518519 C187.740824,21.3707077 187.801288,21.6347365 187.801288,21.9447173 C187.801288,22.2175731 187.749572,22.472775 187.645882,22.7100635 C187.541421,22.9468327 187.388331,23.1563423 187.184811,23.3388519 C186.982063,23.5208423 186.729142,23.6646692 186.426564,23.768775 C186.123986,23.8734 185.77844,23.9263615 185.39044,23.9263615 C184.92062,23.9263615 184.473957,23.83965 184.049421,23.6664865 C183.624628,23.4933231 183.254124,23.2752462 182.938424,23.0104385 L183.49418,22.2585923 Z" id="Fill-40" fill="#213369" mask="url(#mask-4)"></path>
                    <path d="M189.508437,22.2585923 C189.797379,22.4958808 190.092753,22.6874769 190.395588,22.8326019 C190.697909,22.9787654 191.047315,23.0514577 191.445349,23.0514577 C191.878633,23.0514577 192.203596,22.9515058 192.420238,22.7510827 C192.637394,22.5506596 192.745715,22.3045442 192.745715,22.0129962 C192.745715,21.8398327 192.700432,21.6895154 192.610379,21.561525 C192.519296,21.4343135 192.404543,21.3224192 192.264832,21.2266212 C192.124607,21.1316019 191.964055,21.0469673 191.783949,20.9740154 C191.602814,20.9013231 191.422193,20.8281115 191.242087,20.7556788 C191.00692,20.6736404 190.772267,20.5801788 190.537615,20.4755538 C190.302447,20.3709288 190.092753,20.2429385 189.907501,20.0923615 C189.722506,19.9420442 189.571474,19.7670635 189.454148,19.5661212 C189.336307,19.3662173 189.277901,19.124775 189.277901,18.8423135 C189.277901,18.5775058 189.329875,18.3295731 189.433564,18.0969577 C189.537254,17.8643423 189.686485,17.6646981 189.880227,17.4956885 C190.074999,17.3271981 190.311967,17.1953135 190.591904,17.0995154 C190.87184,17.0037173 191.187798,16.9556885 191.539776,16.9556885 C191.955307,16.9556885 192.336617,17.0286404 192.684479,17.1745442 C193.032084,17.3201885 193.332089,17.498025 193.585267,17.7075346 L193.057042,18.4181019 C192.831137,18.2451981 192.596742,18.1042269 192.352569,17.9946692 C192.109169,17.8851115 191.842612,17.8305923 191.553156,17.8305923 C191.138397,17.8305923 190.833503,17.9263904 190.639246,18.1177269 C190.445246,18.3088038 190.347989,18.5323327 190.347989,18.7875346 C190.347989,18.9422654 190.388641,19.0764865 190.469689,19.1901981 C190.551251,19.3044288 190.659829,19.4049 190.795166,19.4910923 C190.930246,19.5780635 191.086424,19.6554288 191.261898,19.7237077 C191.438402,19.7922462 191.621081,19.8623423 191.810707,19.9355538 C192.04536,20.0264192 192.282328,20.1222173 192.521869,20.2221692 C192.761153,20.3226404 192.975737,20.4480346 193.165363,20.5980923 C193.355246,20.7486692 193.510909,20.9329962 193.632867,21.1518519 C193.754824,21.3707077 193.815546,21.6347365 193.815546,21.9447173 C193.815546,22.2175731 193.763829,22.472775 193.66014,22.7100635 C193.555678,22.9468327 193.402588,23.1563423 193.199068,23.3388519 C192.99632,23.5208423 192.7434,23.6646692 192.440821,23.768775 C192.137986,23.8734 191.792697,23.9263615 191.404697,23.9263615 C190.934877,23.9263615 190.488214,23.83965 190.063678,23.6664865 C189.638885,23.4933231 189.268381,23.2752462 188.952681,23.0104385 L189.508437,22.2585923 Z" id="Fill-41" fill="#213369" mask="url(#mask-4)"></path>
                    <path d="M86.3082329,35.489449 L85.8885857,34.122574 C85.7259756,33.6212567 85.5728854,33.1227952 85.4282859,32.6256317 C85.2834292,32.1295067 85.1388297,31.6209202 84.9944875,31.1016894 L84.9401984,31.1016894 C84.8051188,31.6209202 84.6648934,32.1295067 84.5205512,32.6256317 C84.3759517,33.1227952 84.2228615,33.6212567 84.0602515,34.122574 L83.6398324,35.489449 L86.3082329,35.489449 Z M86.5930578,36.4048529 L83.355522,36.4048529 L82.5023337,39.1383433 L81.3509411,39.1383433 L84.3579411,30.1727856 L85.631034,30.1727856 L88.6385485,39.1383433 L87.4331241,39.1383433 L86.5930578,36.4048529 Z" id="Fill-42" fill="#213369" mask="url(#mask-4)"></path>
                    <path d="M90.8053536,35.8171356 C90.8053536,36.6188279 90.9633324,37.2434625 91.2798045,37.6894817 C91.5957621,38.1362798 92.0426825,38.3592894 92.6203085,38.3592894 C92.9272607,38.3592894 93.216717,38.2842606 93.4873907,38.1336837 C93.758579,37.9833663 94.0289955,37.7536067 94.3001838,37.4438856 L94.3001838,33.9723087 C94.0202475,33.7171067 93.7513748,33.536674 93.4943377,33.432049 C93.2367859,33.327424 92.9728019,33.2749817 92.7016135,33.2749817 C92.4399451,33.2749817 92.1939716,33.336251 91.9636931,33.4593087 C91.7329,33.582626 91.5319531,33.7557894 91.360595,33.9785394 C91.1889796,34.2023279 91.0536427,34.4686933 90.9543271,34.778674 C90.8547541,35.0883952 90.8053536,35.4347221 90.8053536,35.8171356 M89.653961,35.8308952 C89.653961,35.2929721 89.7332077,34.8082702 89.8909292,34.3754913 C90.0491653,33.9424529 90.2588602,33.5753567 90.5213005,33.2749817 C90.782969,32.9740875 91.0852899,32.742251 91.4285207,32.5779144 C91.7714942,32.4138375 92.1327355,32.331799 92.5125021,32.331799 C92.8912395,32.331799 93.221091,32.4000779 93.5010273,32.5368952 C93.7807064,32.6737125 94.0650167,32.860376 94.3544729,33.0971452 L94.3001838,31.9628856 L94.3001838,29.4072317 L95.4243032,29.4072317 L95.4243032,39.1383952 L94.5037037,39.1383952 L94.4087621,38.3592894 L94.3681095,38.3592894 C94.1056692,38.6142317 93.8056639,38.8356837 93.4673218,39.0223471 C93.1282077,39.2084913 92.7646507,39.3024721 92.3766507,39.3024721 C91.5455897,39.3024721 90.884343,39.0015779 90.3921387,38.4003087 C89.8996772,37.7990394 89.653961,36.9423087 89.653961,35.8308952" id="Fill-43" fill="#213369" mask="url(#mask-4)"></path>
                    <path d="M97.7131172,32.4959019 L98.6344886,32.4959019 L98.7294302,33.4531038 L98.7700828,33.4531038 C99.0587671,33.1340365 99.372409,32.8676712 99.7115231,32.6529692 C100.049865,32.4393058 100.417796,32.331825 100.815573,32.331825 C101.320642,32.331825 101.716361,32.4434596 102.000414,32.6667288 C102.285239,32.8902577 102.494934,33.202575 102.630271,33.6029019 C102.973502,33.2204885 103.319048,32.9128442 103.66691,32.6802288 C104.013743,32.4483923 104.391194,32.331825 104.797205,32.331825 C105.474661,32.331825 105.977929,32.5506808 106.308038,32.9878731 C106.637632,33.4255846 106.802043,34.0728058 106.802043,34.9284981 L106.802043,39.1384212 L105.69156,39.1384212 L105.69156,35.079075 C105.69156,34.4502865 105.591987,33.9972577 105.393356,33.7192096 C105.194467,33.4416808 104.887515,33.3022673 104.472499,33.3022673 C103.975664,33.3022673 103.425054,33.6439212 102.819897,34.3272288 L102.819897,39.1384212 L101.709157,39.1384212 L101.709157,35.079075 C101.709157,34.4502865 101.609584,33.9972577 101.411467,33.7192096 C101.212321,33.4416808 100.900995,33.3022673 100.476459,33.3022673 C99.9798812,33.3022673 99.4290138,33.6439212 98.8243719,34.3272288 L98.8243719,39.1384212 L97.7131172,39.1384212 L97.7131172,32.4959019 Z" id="Fill-44" fill="#213369" mask="url(#mask-4)"></path>
                    <path d="M109.28092,39.1383173 L110.391918,39.1383173 L110.391918,32.4957981 L109.28092,32.4957981 L109.28092,39.1383173 Z M109.849541,31.1291827 C109.633414,31.1291827 109.450477,31.0606442 109.301504,30.9246058 C109.152273,30.7877885 109.077915,30.614625 109.077915,30.4045962 C109.077915,30.1862596 109.152273,30.0110192 109.301504,29.878875 C109.450477,29.7469904 109.633414,29.6802692 109.849541,29.6802692 C110.06644,29.6802692 110.249119,29.7469904 110.39835,29.878875 C110.547324,30.0110192 110.621682,30.1862596 110.621682,30.4045962 C110.621682,30.614625 110.547324,30.7877885 110.39835,30.9246058 C110.249119,31.0606442 110.06644,31.1291827 109.849541,31.1291827 Z" id="Fill-45" fill="#213369" mask="url(#mask-4)"></path>
                    <path d="M112.951277,32.4959019 L113.872648,32.4959019 L113.96759,33.4531038 L114.007985,33.4531038 C114.3242,33.1340365 114.65611,32.8676712 115.003972,32.6529692 C115.351062,32.4393058 115.755272,32.331825 116.215829,32.331825 C116.911295,32.331825 117.41868,32.5506808 117.739269,32.9878731 C118.060115,33.4255846 118.22041,34.0728058 118.22041,34.9284981 L118.22041,39.1384212 L117.109927,39.1384212 L117.109927,35.079075 C117.109927,34.4502865 117.010097,33.9972577 116.811723,33.7192096 C116.612834,33.4416808 116.297134,33.3022673 115.86385,33.3022673 C115.520105,33.3022673 115.217784,33.3892385 114.956115,33.5616231 C114.694189,33.7353058 114.395985,33.9905077 114.062274,34.3272288 L114.062274,39.1384212 L112.951277,39.1384212 L112.951277,32.4959019 Z" id="Fill-46" fill="#213369" mask="url(#mask-4)"></path>
                    <path d="M120.699133,39.1383173 L121.81013,39.1383173 L121.81013,32.4957981 L120.699133,32.4957981 L120.699133,39.1383173 Z M121.267753,31.1291827 C121.051626,31.1291827 120.868947,31.0606442 120.719973,30.9246058 C120.570485,30.7877885 120.496385,30.614625 120.496385,30.4045962 C120.496385,30.1862596 120.570485,30.0110192 120.719973,29.878875 C120.868947,29.7469904 121.051626,29.6802692 121.267753,29.6802692 C121.48491,29.6802692 121.667589,29.7469904 121.81682,29.878875 C121.965793,30.0110192 122.040151,30.1862596 122.040151,30.4045962 C122.040151,30.614625 121.965793,30.7877885 121.81682,30.9246058 C121.667589,31.0606442 121.48491,31.1291827 121.267753,31.1291827 Z" id="Fill-47" fill="#213369" mask="url(#mask-4)"></path>
                    <path d="M124.194092,37.6348327 C124.482776,37.8721212 124.778407,38.0634577 125.081243,38.2085827 C125.383564,38.3550058 125.732969,38.4276981 126.131004,38.4276981 C126.564288,38.4276981 126.889251,38.3277462 127.105893,38.1273231 C127.322792,37.9269 127.43137,37.680525 127.43137,37.3892365 C127.43137,37.2160731 127.385829,37.0654962 127.295776,36.9377654 C127.204951,36.8105538 127.090198,36.6986596 126.950487,36.6028615 C126.810004,36.5075827 126.64971,36.4232077 126.469346,36.3499962 C126.288468,36.2775635 126.107847,36.2043519 125.927484,36.1316596 C125.692317,36.0498808 125.457922,35.9564192 125.223269,35.8515346 C124.988102,35.7469096 124.778407,35.6191788 124.593155,35.4686019 C124.407903,35.318025 124.257129,35.1433038 124.139802,34.9421019 C124.021962,34.7424577 123.963556,34.5010154 123.963556,34.2182942 C123.963556,33.9537462 124.015529,33.7058135 124.119219,33.4731981 C124.222908,33.2405827 124.371882,33.0406788 124.565882,32.8716692 C124.760397,32.7034385 124.997365,32.5715538 125.277558,32.4757558 C125.557495,32.3799577 125.873452,32.3316692 126.225431,32.3316692 C126.640962,32.3316692 127.022272,32.4048808 127.370134,32.5507846 C127.717739,32.6964288 128.017744,32.8742654 128.270922,33.0835154 L127.742696,33.7943423 C127.516792,33.6211788 127.282139,33.4802077 127.038224,33.3709096 C126.794566,33.2613519 126.528267,33.2065731 126.23881,33.2065731 C125.823794,33.2065731 125.519158,33.3023712 125.324643,33.4939673 C125.130901,33.6847846 125.033643,33.9085731 125.033643,34.1635154 C125.033643,34.3182462 125.074038,34.4527269 125.155344,34.5664385 C125.236906,34.6806692 125.345484,34.7811404 125.480821,34.8673327 C125.615643,34.9540442 125.772078,35.0314096 125.947553,35.0996885 C126.124057,35.1682269 126.306736,35.2385827 126.496362,35.3115346 C126.731015,35.4026596 126.967983,35.4984577 127.207267,35.59815 C127.446808,35.6986212 127.661391,35.824275 127.851017,35.9743327 C128.040901,36.12465 128.196564,36.3089769 128.318521,36.5278327 C128.440479,36.7466885 128.5012,37.0109769 128.5012,37.3206981 C128.5012,37.5938135 128.449227,37.8490154 128.345794,38.0863038 C128.241076,38.3228135 128.087985,38.5323231 127.884723,38.7148327 C127.681975,38.8968231 127.429054,39.0409096 127.126476,39.1447558 C126.823641,39.2496404 126.478351,39.3026019 126.090351,39.3026019 C125.620532,39.3026019 125.173869,39.2156308 124.749333,39.0424673 C124.324282,38.8695635 123.954036,38.6512269 123.638336,38.3866788 L124.194092,37.6348327 Z" id="Fill-48" fill="#213369" mask="url(#mask-4)"></path>
                    <path d="M130.573681,33.4119029 L129.598793,33.4119029 L129.598793,32.5642587 L130.62797,32.4959798 L130.763564,30.6371337 L131.697801,30.6371337 L131.697801,32.4959798 L133.472875,32.4959798 L133.472875,33.4119029 L131.697801,33.4119029 L131.697801,37.1018163 C131.697801,37.511749 131.772673,37.8287394 131.921132,38.051749 C132.070363,38.2752779 132.334604,38.3866529 132.714114,38.3866529 C132.831182,38.3866529 132.957514,38.3687394 133.093108,38.331874 C133.228702,38.2955279 133.35066,38.2545087 133.459238,38.2088163 L133.675623,39.056201 C133.495259,39.1198067 133.298172,39.1771817 133.086676,39.2270279 C132.874408,39.276874 132.663941,39.302576 132.456305,39.302576 C132.104583,39.302576 131.808694,39.2477971 131.569411,39.138499 C131.329869,39.0289413 131.136127,38.8783644 130.986896,38.6875471 C130.837665,38.495951 130.73166,38.2633356 130.668623,37.9904798 C130.605071,37.7168452 130.573681,37.4164702 130.573681,37.0883163 L130.573681,33.4119029 Z" id="Fill-49" fill="#213369" mask="url(#mask-4)"></path>
                    <path d="M135.30072,32.4959019 L136.221834,32.4959019 L136.316776,33.6984404 L136.357428,33.6984404 C136.582561,33.2799404 136.856322,32.9468538 137.176911,32.7012577 C137.4975,32.4548827 137.846906,32.331825 138.226672,32.331825 C138.488598,32.331825 138.722993,32.3775173 138.931145,32.4686423 L138.714245,33.4531038 C138.605924,33.4164981 138.506094,33.3892385 138.416556,33.3708058 C138.325731,33.3523731 138.213036,33.3435462 138.077699,33.3435462 C137.797505,33.3435462 137.506248,33.4577769 137.203927,33.6849404 C136.901092,33.9126231 136.63685,34.3093154 136.411718,34.8739788 L136.411718,39.1384212 L135.30072,39.1384212 L135.30072,32.4959019 Z" id="Fill-50" fill="#213369" mask="url(#mask-4)"></path>
                    <path d="M140.773244,37.3344058 C140.773244,37.7168192 140.884138,37.9904538 141.104897,38.1545308 C141.325912,38.3183481 141.599674,38.4001269 141.924379,38.4001269 C142.240337,38.4001269 142.540857,38.3253577 142.825167,38.1747808 C143.109735,38.0244635 143.40974,37.8037904 143.726469,37.5117231 L143.726469,35.6666365 C143.175345,35.7398481 142.710156,35.8265596 142.331162,35.9265115 C141.951395,36.0269827 141.646759,36.1453673 141.416995,36.2816654 C141.186202,36.4184827 141.021276,36.57555 140.922218,36.7533865 C140.822645,36.9312231 140.773244,37.1251558 140.773244,37.3344058 M139.676141,37.4164442 C139.676141,36.6871846 139.998531,36.1292712 140.644597,35.7421846 C141.290149,35.3548385 142.317525,35.0838 143.726469,34.92855 C143.726469,34.7193 143.705629,34.5147231 143.664976,34.3135212 C143.624324,34.1136173 143.552024,33.9357808 143.448077,33.7807904 C143.344387,33.6260596 143.206477,33.5004058 143.035634,33.4046077 C142.863504,33.3090692 142.642488,33.2615596 142.371814,33.2615596 C141.9833,33.2615596 141.624374,33.3345115 141.29478,33.4801558 C140.964671,33.6260596 140.669554,33.7901365 140.407629,33.9721269 L139.960451,33.1930212 C140.267403,32.9925981 140.642281,32.7991846 141.085085,32.6120019 C141.527117,32.4258577 142.014432,32.3316173 142.547546,32.3316173 C143.351592,32.3316173 143.933849,32.5803288 144.29509,33.0769731 C144.656074,33.5736173 144.836952,34.2361558 144.836952,35.0653673 L144.836952,39.1384731 L143.915581,39.1384731 L143.820639,38.3456077 L143.793366,38.3456077 C143.477666,38.6101558 143.137008,38.8357615 142.77165,39.022425 C142.40552,39.2085692 142.019321,39.30255 141.61331,39.30255 C141.05318,39.30255 140.590308,39.1384731 140.224435,38.8100596 C139.85882,38.482425 139.676141,38.0177135 139.676141,37.4164442" id="Fill-51" fill="#213369" mask="url(#mask-4)"></path>
                    <path d="M147.46416,33.4119029 L146.489271,33.4119029 L146.489271,32.5642587 L147.518449,32.4959798 L147.653786,30.6371337 L148.588279,30.6371337 L148.588279,32.4959798 L150.363096,32.4959798 L150.363096,33.4119029 L148.588279,33.4119029 L148.588279,37.1018163 C148.588279,37.511749 148.663152,37.8287394 148.811611,38.051749 C148.960584,38.2752779 149.224826,38.3866529 149.604335,38.3866529 C149.721661,38.3866529 149.847993,38.3687394 149.983587,38.331874 C150.118924,38.2955279 150.241139,38.2545087 150.34946,38.2088163 L150.565844,39.056201 C150.385481,39.1198067 150.188651,39.1771817 149.977155,39.2270279 C149.764629,39.276874 149.55442,39.302576 149.346783,39.302576 C148.994805,39.302576 148.699173,39.2477971 148.459632,39.138499 C148.220348,39.0289413 148.026606,38.8783644 147.877118,38.6875471 C147.728144,38.495951 147.622139,38.2633356 147.559102,37.9904798 C147.495293,37.7168452 147.46416,37.4164702 147.46416,37.0883163 L147.46416,33.4119029 Z" id="Fill-52" fill="#213369" mask="url(#mask-4)"></path>
                    <path d="M152.191714,39.1383173 L153.302711,39.1383173 L153.302711,32.4957981 L152.191714,32.4957981 L152.191714,39.1383173 Z M152.760334,31.1291827 C152.54395,31.1291827 152.361271,31.0606442 152.212297,30.9246058 C152.063066,30.7877885 151.988966,30.614625 151.988966,30.4045962 C151.988966,30.1862596 152.063066,30.0110192 152.212297,29.878875 C152.361271,29.7469904 152.54395,29.6802692 152.760334,29.6802692 C152.977491,29.6802692 153.16017,29.7469904 153.309401,29.878875 C153.458374,30.0110192 153.532732,30.1862596 153.532732,30.4045962 C153.532732,30.614625 153.458374,30.7877885 153.309401,30.9246058 C153.16017,31.0606442 152.977491,31.1291827 152.760334,31.1291827 Z" id="Fill-53" fill="#213369" mask="url(#mask-4)"></path>
                    <path d="M156.525761,35.8308433 C156.525761,36.2132567 156.571302,36.5601029 156.661355,36.8693048 C156.751666,37.1792856 156.880055,37.4461702 157.047554,37.6694394 C157.214538,37.8921894 157.415485,38.0653529 157.650652,38.1886702 C157.885047,38.3117279 158.142085,38.3729971 158.422021,38.3729971 C158.702215,38.3729971 158.959766,38.3117279 159.194419,38.1886702 C159.428814,38.0653529 159.629761,37.8921894 159.797517,37.6694394 C159.964244,37.4461702 160.092634,37.1792856 160.183459,36.8693048 C160.273512,36.5601029 160.318281,36.2132567 160.318281,35.8308433 C160.318281,35.4484298 160.273512,35.0997663 160.183459,34.7851125 C160.092634,34.4712375 159.964244,34.1999394 159.797517,33.9722567 C159.629761,33.7443144 159.428814,33.5688144 159.194419,33.4457567 C158.959766,33.322699 158.702215,33.2614298 158.422021,33.2614298 C158.142085,33.2614298 157.885047,33.322699 157.650652,33.4457567 C157.415485,33.5688144 157.214538,33.7443144 157.047554,33.9722567 C156.880055,34.1999394 156.751666,34.4712375 156.661355,34.7851125 C156.571302,35.0997663 156.525761,35.4484298 156.525761,35.8308433 M155.374626,35.8308433 C155.374626,35.2752663 155.458504,34.7812183 155.625231,34.3481798 C155.791957,33.9151413 156.016061,33.5485644 156.295997,33.2476702 C156.575419,32.946776 156.898323,32.7196125 157.264453,32.5643625 C157.630069,32.4096317 158.01601,32.3317471 158.422021,32.3317471 C158.828803,32.3317471 159.215002,32.4096317 159.58036,32.5643625 C159.94649,32.7196125 160.26888,32.946776 160.549074,33.2476702 C160.82901,33.5485644 161.052342,33.9151413 161.219583,34.3481798 C161.386567,34.7812183 161.470445,35.2752663 161.470445,35.8308433 C161.470445,36.3773337 161.386567,36.8674875 161.219583,37.3000067 C161.052342,37.7330452 160.82901,38.0975452 160.549074,38.3937663 C160.26888,38.6899875 159.94649,38.9153337 159.58036,39.0700644 C159.215002,39.2245356 158.828803,39.3026798 158.422021,39.3026798 C158.01601,39.3026798 157.630069,39.2245356 157.264453,39.0700644 C156.898323,38.9153337 156.575419,38.6899875 156.295997,38.3937663 C156.016061,38.0975452 155.791957,37.7330452 155.625231,37.3000067 C155.458504,36.8674875 155.374626,36.3773337 155.374626,35.8308433" id="Fill-54" fill="#213369" mask="url(#mask-4)"></path>
                    <path d="M163.27094,32.4959019 L164.192312,32.4959019 L164.287253,33.4531038 L164.327906,33.4531038 C164.643863,33.1340365 164.975773,32.8676712 165.323635,32.6529692 C165.670725,32.4393058 166.074935,32.331825 166.535492,32.331825 C167.231216,32.331825 167.738601,32.5506808 168.05919,32.9878731 C168.379779,33.4255846 168.540073,34.0728058 168.540073,34.9284981 L168.540073,39.1384212 L167.42959,39.1384212 L167.42959,35.079075 C167.42959,34.4502865 167.330017,33.9972577 167.131386,33.7192096 C166.932755,33.4416808 166.616797,33.3022673 166.183513,33.3022673 C165.839768,33.3022673 165.537704,33.3892385 165.275779,33.5616231 C165.01411,33.7353058 164.715649,33.9905077 164.382195,34.3272288 L164.382195,39.1384212 L163.27094,39.1384212 L163.27094,32.4959019 Z" id="Fill-55" fill="#213369" mask="url(#mask-4)"></path>
                </g>
            </g>
        </g>
    </g>
</svg>