<?xml version="1.0" encoding="UTF-8"?>
<svg width="119px" height="132px" viewBox="0 0 119 132" version="1.1" xmlns="http://www.w3.org/2000/svg" xmlns:xlink="http://www.w3.org/1999/xlink">
    <!-- Generator: Sketch 49 (51002) - http://www.bohemiancoding.com/sketch -->
    <title>Group 3</title>
    <desc>Created with Sketch.</desc>
    <defs>
        <polygon id="path-1" points="0.0917446809 0.202243171 22.4112766 0.202243171 22.4112766 28.2735359 0.0917446809 28.2735359"></polygon>
        <polygon id="path-3" points="0 86.7878049 79.8580851 86.7878049 79.8580851 0.20922439 0 0.20922439"></polygon>
    </defs>
    <g id="Page-1" stroke="none" stroke-width="1" fill="none" fill-rule="evenodd">
        <g id="Tablet" transform="translate(-600.000000, -1482.000000)">
            <g id="Group-3" transform="translate(600.000000, 1482.000000)">
                <rect id="Rectangle-Copy-2" fill="#002E6D" x="0" y="0" width="119" height="132"></rect>
                <g id="Page-1" transform="translate(20.000000, 22.000000)">
                    <polygon id="Fill-1" fill="#FEFEFE" points="64.804617 57.4505349 13.9688723 57.4505349 13.4754681 57.4505349 13.4754681 56.9584544 13.4754681 49.9282178 8.97717021 49.9282178 8.97717021 61.9359154 64.804617 61.9359154"></polygon>
                    <polygon id="Fill-2" fill="#FEFEFE" points="9.05553191 0.212173902 9.05553191 12.2196593 13.5534043 12.2196593 13.5534043 5.18963488 13.5534043 4.6973422 14.0465957 4.6973422 65.9882979 4.6973422 66.4817021 4.6973422 66.4817021 5.18963488 66.4817021 12.2196593 70.9797872 12.2196593 70.9797872 0.212173902"></polygon>
                    <g id="Group-56" transform="translate(0.000000, 0.002971)">
                        <path d="M5.432,36.6062473 C5.46923404,38.1684278 6.22434043,41.1380985 11.164766,41.1380985 C13.8430638,41.1380985 16.8232766,40.4739278 16.8232766,37.5031961 C16.8232766,35.3152522 14.7862553,34.730018 11.9202979,34.0270156 L9.01561702,33.3225278 C4.63944681,32.2672815 0.415404255,31.2529888 0.415404255,25.0778985 C0.415404255,21.952901 2.03710638,16.4453766 10.8251915,16.4453766 C19.1232766,16.4453766 21.3488085,22.0698205 21.3877447,25.5082302 L15.955617,25.5082302 C15.8039149,24.2586132 15.3517872,21.2889424 10.4102979,21.2889424 C8.26029787,21.2889424 5.69646809,22.1103498 5.69646809,24.6490522 C5.69646809,26.8369961 7.43093617,27.3070083 8.562,27.5792546 L15.1632766,29.260901 C18.8598723,30.1985912 22.2545532,31.7599229 22.2545532,36.7987083 C22.2545532,45.2400424 13.9551915,45.9818766 11.5800851,45.9818766 C1.69838298,45.9818766 8.5106383e-05,40.0828522 8.5106383e-05,36.6062473 L5.432,36.6062473 Z" id="Fill-3" fill="#FEFEFE"></path>
                        <path d="M35.0514681,40.3953944 L42.2599787,40.3953944 C45.120617,40.3953944 46.7665745,39.1453529 46.7665745,36.2919651 C46.7665745,33.8326237 44.649766,32.8919627 42.5338085,32.8919627 L35.0514681,32.8919627 L35.0514681,40.3953944 Z M35.0514681,28.1659529 L41.947,28.1659529 C44.2580638,28.1659529 46.1004043,27.2679432 46.1004043,25.0398944 C46.1004043,22.7337578 44.4538085,22.0305432 41.789766,22.0305432 L35.0514681,22.0305432 L35.0514681,28.1659529 Z M29.410617,17.1867651 L43.0825319,17.1867651 C49.9780638,17.1867651 51.7404043,21.4852017 51.7404043,24.3763602 C51.7404043,28.399792 49.4684894,29.5346115 48.2929574,30.1194212 C51.7404043,31.4087188 52.6423191,34.1428529 52.6423191,36.9187895 C52.6423191,39.1453529 51.7016809,41.2549968 50.2140213,42.7011066 C48.6074255,44.2626505 47.0787021,45.2402334 41.3204043,45.2402334 L29.410617,45.2402334 L29.410617,17.1867651 Z" id="Fill-5" fill="#FEFEFE"></path>
                        <g id="Group-9" transform="translate(57.446809, 16.975610)">
                            <mask id="mask-2" fill="white">
                                <use xlink:href="#path-1"></use>
                            </mask>
                            <g id="Clip-8"></g>
                            <polygon id="Fill-7" fill="#FEFEFE" mask="url(#mask-2)" points="13.4883404 0.202243171 9.026 0.202243171 0.0917446809 28.2735359 5.73259574 28.2735359 11.2068511 9.84375293 16.7706809 28.2735359 22.4113191 28.2735359"></polygon>
                        </g>
                        <polygon id="Fill-10" fill="#FEFEFE" points="70.9016809 57.4208488 66.429766 61.9329659 66.429766 45.3185122 70.9016809 45.3185122"></polygon>
                        <path d="M8.97723404,73.3244912 L9.60212766,73.3244912 L9.60212766,76.2302912 C9.60212766,76.5256668 9.63234043,76.7735107 9.69255319,76.9736107 C9.75276596,77.1737107 9.83446809,77.3341302 9.93723404,77.4540205 C10.0402128,77.5743351 10.1617021,77.6606985 10.3025532,77.7133229 C10.442766,77.7659473 10.593617,77.7920473 10.7540426,77.7920473 C10.9197872,77.7920473 11.0729787,77.7659473 11.2134043,77.7133229 C11.3540426,77.6606985 11.4770213,77.5743351 11.5823404,77.4540205 C11.6878723,77.3341302 11.7704255,77.1737107 11.8308511,76.9736107 C11.8910638,76.7735107 11.9210638,76.5256668 11.9210638,76.2302912 L11.9210638,73.3244912 L12.5234043,73.3244912 L12.5234043,76.2152254 C12.5234043,76.6105449 12.4780851,76.9436912 12.3880851,77.2138156 C12.2976596,77.4841522 12.1734043,77.7031376 12.0151064,77.8709839 C11.857234,78.038618 11.6702128,78.1589327 11.4542553,78.2315034 C11.2382979,78.3036498 11.0051064,78.3403595 10.7540426,78.3403595 C10.5031915,78.3403595 10.2685106,78.3036498 10.0502128,78.2315034 C9.83170213,78.1589327 9.64361702,78.038618 9.48553191,77.8709839 C9.32744681,77.7031376 9.20340426,77.4841522 9.11297872,77.2138156 C9.02255319,76.9436912 8.97723404,76.6105449 8.97723404,76.2152254 L8.97723404,73.3244912 Z" id="Fill-12" fill="#FEFEFE"></path>
                        <path d="M12.9827021,77.8746761 C12.9827021,77.7295346 13.0267447,77.6132517 13.1144043,77.5256151 C13.2022766,77.4379785 13.3086596,77.393842 13.4341915,77.393842 C13.5548298,77.393842 13.6590851,77.4379785 13.7467447,77.5256151 C13.834617,77.6132517 13.8784468,77.7295346 13.8784468,77.8746761 C13.8784468,78.0100566 13.834617,78.1212468 13.7467447,78.2088834 C13.6590851,78.2960956 13.5548298,78.3402322 13.4341915,78.3402322 C13.3086596,78.3402322 13.2022766,78.2960956 13.1144043,78.2088834 C13.0267447,78.1212468 12.9827021,78.0100566 12.9827021,77.8746761" id="Fill-14" fill="#FEFEFE"></path>
                        <path d="M14.9475745,77.176342 C15.1233191,77.3615883 15.3303404,77.5105493 15.5688511,77.6230127 C15.8071489,77.7359005 16.054383,77.79192 16.3103404,77.79192 C16.6365106,77.79192 16.8901277,77.7180761 17.070766,77.5703883 C17.251617,77.4231249 17.341617,77.2289663 17.341617,76.9887615 C17.341617,76.8635663 17.3203404,76.7570444 17.2777872,76.6694078 C17.235234,76.5819834 17.1775745,76.5068663 17.1048085,76.444481 C17.0318298,76.3816712 16.945234,76.3254395 16.8450213,76.2751493 C16.744383,76.2254956 16.6365106,76.1728712 16.5211915,76.1177005 L15.8135319,75.8098054 C15.698,75.7597273 15.5799149,75.6996761 15.4597021,75.6294395 C15.3390638,75.5596273 15.2309787,75.4745371 15.1360851,75.3741688 C15.0403404,75.2742249 14.9626809,75.1553956 14.9024681,75.0172566 C14.8420426,74.8799663 14.8120426,74.7210322 14.8120426,74.5406663 C14.8120426,74.3556322 14.8509787,74.1829054 14.9290638,74.022698 C15.0065106,73.8627029 15.114383,73.7237151 15.2526809,73.6057346 C15.3905532,73.4883907 15.5537447,73.3969346 15.7418298,73.3320029 C15.9303404,73.266859 16.1373617,73.234181 16.3631064,73.234181 C16.6592766,73.234181 16.9328936,73.2906249 17.1837447,73.4033005 C17.4348085,73.5159761 17.648,73.6621785 17.8237447,73.8423322 L17.4848085,74.2478371 C17.3341702,74.1029078 17.1673617,73.9887468 16.9841702,73.9064151 C16.8009787,73.823659 16.5939574,73.782281 16.3631064,73.782281 C16.0867234,73.782281 15.8650213,73.8463639 15.6969362,73.973681 C15.5284255,74.1014224 15.4445957,74.2779688 15.4445957,74.5028956 C15.4445957,74.6234224 15.4682128,74.7246395 15.5160851,74.8073956 C15.5637447,74.8901517 15.6277872,74.9625102 15.708,75.0248956 C15.7884255,75.0877054 15.8760851,75.1428761 15.9714043,75.1904078 C16.0669362,75.2379395 16.1648085,75.2816517 16.2650213,75.3217566 L16.965234,75.6220127 C17.1058723,75.6820639 17.2388511,75.7510273 17.364383,75.8282663 C17.4899149,75.9063541 17.598,75.9963249 17.688,76.0986029 C17.7784255,76.2015176 17.8503404,76.32162 17.9026809,76.4591224 C17.9554468,76.5970493 17.9820426,76.7559834 17.9820426,76.9361371 C17.9820426,77.1311444 17.9428936,77.3140566 17.865234,77.4840249 C17.7873617,77.6544176 17.6756596,77.8033785 17.5301277,77.9309078 C17.384383,78.0586493 17.2086383,78.1590176 17.0028936,78.2315883 C16.7971489,78.3035224 16.5639574,78.3402322 16.3026809,78.3402322 C15.9565106,78.3402322 15.635234,78.2748761 15.3390638,78.1448005 C15.0428936,78.0147249 14.7871489,77.8369054 14.5711915,77.6119785 L14.9475745,77.176342 Z" id="Fill-16" fill="#FEFEFE"></path>
                        <path d="M18.6519574,77.8746761 C18.6519574,77.7295346 18.696,77.6132517 18.7836596,77.5256151 C18.8715319,77.4379785 18.9779149,77.393842 19.1034468,77.393842 C19.2240851,77.393842 19.3281277,77.4379785 19.416,77.5256151 C19.5038723,77.6132517 19.5477021,77.7295346 19.5477021,77.8746761 C19.5477021,78.0100566 19.5038723,78.1212468 19.416,78.2088834 C19.3281277,78.2960956 19.2240851,78.3402322 19.1034468,78.3402322 C18.9779149,78.3402322 18.8715319,78.2960956 18.7836596,78.2088834 C18.696,78.1212468 18.6519574,78.0100566 18.6519574,77.8746761" id="Fill-18" fill="#FEFEFE"></path>
                        <path d="M22.4765532,77.176342 C22.6520851,77.3615883 22.8593191,77.5105493 23.0978298,77.6230127 C23.3359149,77.7359005 23.5833617,77.79192 23.8393191,77.79192 C24.1654894,77.79192 24.4191064,77.7180761 24.5997447,77.5703883 C24.7805957,77.4231249 24.8705957,77.2289663 24.8705957,76.9887615 C24.8705957,76.8635663 24.8493191,76.7570444 24.806766,76.6694078 C24.7642128,76.5819834 24.7065532,76.5068663 24.6337872,76.444481 C24.5605957,76.3816712 24.4742128,76.3254395 24.374,76.2751493 C24.2733617,76.2254956 24.1654894,76.1728712 24.0501702,76.1177005 L23.3425106,75.8098054 C23.226766,75.7597273 23.1088936,75.6996761 22.9886809,75.6294395 C22.8680426,75.5596273 22.7599574,75.4745371 22.6648511,75.3741688 C22.5693191,75.2742249 22.4916596,75.1553956 22.4314468,75.0172566 C22.3710213,74.8799663 22.3408085,74.7210322 22.3408085,74.5406663 C22.3408085,74.3556322 22.3799574,74.1829054 22.4578298,74.022698 C22.5354894,73.8627029 22.6433617,73.7237151 22.7816596,73.6057346 C22.9195319,73.4883907 23.0827234,73.3969346 23.2708085,73.3320029 C23.4591064,73.266859 23.6661277,73.234181 23.8918723,73.234181 C24.1880426,73.234181 24.4618723,73.2906249 24.7127234,73.4033005 C24.9635745,73.5159761 25.1769787,73.6621785 25.3527234,73.8423322 L25.0137872,74.2478371 C24.8631489,74.1029078 24.6963404,73.9887468 24.5131489,73.9064151 C24.3299574,73.823659 24.1229362,73.782281 23.8918723,73.782281 C23.6157021,73.782281 23.394,73.8463639 23.2259149,73.973681 C23.0574043,74.1014224 22.9735745,74.2779688 22.9735745,74.5028956 C22.9735745,74.6234224 22.9971915,74.7246395 23.0450638,74.8073956 C23.0925106,74.8901517 23.156766,74.9625102 23.2369787,75.0248956 C23.3174043,75.0877054 23.4050638,75.1428761 23.500383,75.1904078 C23.5957021,75.2379395 23.6937872,75.2816517 23.794,75.3217566 L24.4942128,75.6220127 C24.6348511,75.6820639 24.7678298,75.7510273 24.8931489,75.8282663 C25.0186809,75.9063541 25.1269787,75.9963249 25.2169787,76.0986029 C25.3074043,76.2015176 25.3791064,76.32162 25.4316596,76.4591224 C25.4844255,76.5970493 25.5108085,76.7559834 25.5108085,76.9361371 C25.5108085,77.1311444 25.4718723,77.3140566 25.3942128,77.4840249 C25.3163404,77.6544176 25.2044255,77.8033785 25.0591064,77.9309078 C24.9133617,78.0586493 24.737617,78.1590176 24.5318723,78.2315883 C24.3261277,78.3035224 24.0929362,78.3402322 23.8316596,78.3402322 C23.4852766,78.3402322 23.1642128,78.2748761 22.8680426,78.1448005 C22.5718723,78.0147249 22.3161277,77.8369054 22.0999574,77.6119785 L22.4765532,77.176342 Z" id="Fill-20" fill="#FEFEFE"></path>
                        <path d="M26.6098085,74.6007812 L27.1219362,74.6007812 L27.1747021,75.1266007 L27.1972553,75.1266007 C27.3578936,74.9513276 27.5321489,74.8051251 27.7204468,74.6869324 C27.9085319,74.5698007 28.113,74.5105983 28.3340638,74.5105983 C28.6149149,74.5105983 28.8349149,74.5719227 28.9927872,74.6945715 C29.1510851,74.8174324 29.2676809,74.9888861 29.343,75.2089324 C29.5336383,74.9988593 29.725766,74.8297398 29.9189574,74.7022105 C30.1119362,74.5746812 30.3217234,74.5105983 30.5474681,74.5105983 C30.9238511,74.5105983 31.2036383,74.6309129 31.3872553,74.8709056 C31.570234,75.1115349 31.6617234,75.4669617 31.6617234,75.9371861 L31.6617234,78.2501129 L31.0444894,78.2501129 L31.0444894,76.01973 C31.0444894,75.6747007 30.9891702,75.4255837 30.8785319,75.2730154 C30.7683191,75.1202349 30.5974681,75.0438446 30.3668298,75.0438446 C30.0906596,75.0438446 29.7847021,75.2314251 29.4481064,75.6067983 L29.4481064,78.2501129 L28.8308723,78.2501129 L28.8308723,76.01973 C28.8308723,75.6747007 28.7755532,75.4255837 28.6655532,75.2730154 C28.5547021,75.1202349 28.3817234,75.0438446 28.145766,75.0438446 C27.8695957,75.0438446 27.5636383,75.2314251 27.2274681,75.6067983 L27.2274681,78.2501129 L26.6098085,78.2501129 L26.6098085,74.6007812 Z" id="Fill-22" fill="#FEFEFE"></path>
                        <path d="M33.3182766,77.2590132 C33.3182766,77.4690863 33.3799787,77.6193205 33.5027447,77.7095034 C33.6257234,77.7994741 33.7776383,77.8446717 33.9582766,77.8446717 C34.1338085,77.8446717 34.3010426,77.8032937 34.4589149,77.7207498 C34.617,77.6379937 34.7838085,77.5168302 34.959766,77.3564107 L34.959766,76.3427546 C34.653383,76.3828595 34.3950851,76.4308156 34.184234,76.4853498 C33.973383,76.5407327 33.8038085,76.6058766 33.6761489,76.6805693 C33.5480638,76.7558985 33.4561489,76.8420498 33.4012553,76.9396595 C33.3457234,77.0374815 33.3182766,77.1440034 33.3182766,77.2590132 M32.7084894,77.3042107 C32.7084894,76.9033741 32.8878511,76.5969644 33.247,76.3843449 C33.6057234,76.1715132 34.1767872,76.0225522 34.959766,75.9372498 C34.959766,75.82224 34.9482766,75.7097766 34.9257234,75.5994351 C34.9031702,75.489518 34.8627447,75.3919083 34.8050851,75.3066059 C34.7474255,75.2215156 34.6708298,75.1525522 34.5759362,75.0999278 C34.4801915,75.0475156 34.3572128,75.0212034 34.2067872,75.0212034 C33.9910426,75.0212034 33.7914681,75.0615205 33.6082766,75.141518 C33.4246596,75.2215156 33.260617,75.3116985 33.1150851,75.4118546 L32.8663617,74.9836449 C33.0372128,74.8737278 33.2455106,74.767418 33.4916809,74.6642912 C33.7374255,74.5622254 34.0082766,74.510662 34.3044468,74.510662 C34.7514681,74.510662 35.0750851,74.6471034 35.2759362,74.9201985 C35.4765745,75.1928693 35.5772128,75.5569961 35.5772128,76.0123668 L35.5772128,78.2501766 L35.0648723,78.2501766 L35.0121064,77.81454 L34.9972128,77.81454 C34.8214681,77.9598937 34.6321064,78.0838156 34.4291277,78.1863059 C34.2255106,78.2887961 34.0108298,78.3403595 33.7852979,78.3403595 C33.4738085,78.3403595 33.2167872,78.2501766 33.0131702,78.0695985 C32.8101915,77.8896571 32.7084894,77.6345985 32.7084894,77.3042107" id="Fill-24" fill="#FEFEFE"></path>
                        <path d="M36.9318723,72.9038356 L37.5495319,72.9038356 L37.5495319,77.5591844 C37.5495319,77.6595527 37.566766,77.7295771 37.6018723,77.7694698 C37.6369787,77.8095746 37.6771915,77.829521 37.7225106,77.829521 L37.7788936,77.829521 C37.7965532,77.829521 37.8227234,77.8246405 37.8582553,77.8146673 L37.9410213,78.2802234 C37.9008085,78.3001698 37.8529362,78.3150234 37.7978298,78.3252088 C37.7425106,78.335182 37.6722979,78.3402746 37.5869787,78.3402746 C37.3510213,78.3402746 37.1829362,78.270038 37.0825106,78.1297771 C36.9820851,77.9899405 36.9318723,77.7845356 36.9318723,77.514199 L36.9318723,72.9038356 Z" id="Fill-26" fill="#FEFEFE"></path>
                        <path d="M39.04,72.9038356 L39.6576596,72.9038356 L39.6576596,77.5591844 C39.6576596,77.6595527 39.6748936,77.7295771 39.71,77.7694698 C39.7451064,77.8095746 39.7853191,77.829521 39.8306383,77.829521 L39.8868085,77.829521 C39.9046809,77.829521 39.9308511,77.8246405 39.9661702,77.8146673 L40.0491489,78.2802234 C40.0087234,78.3001698 39.9610638,78.3150234 39.9059574,78.3252088 C39.8506383,78.335182 39.7804255,78.3402746 39.6948936,78.3402746 C39.4589362,78.3402746 39.2910638,78.270038 39.1906383,78.1297771 C39.09,77.9899405 39.04,77.7845356 39.04,77.514199 L39.04,72.9038356 Z" id="Fill-28" fill="#FEFEFE"></path>
                        <path d="M44.4004894,77.7542766 C44.8270851,77.7542766 45.1585745,77.6755522 45.3943191,77.5181034 C45.6300638,77.3604424 45.7481489,77.1138717 45.7481489,76.778179 C45.7481489,76.4732546 45.6328298,76.2489644 45.401766,76.1061571 C45.1709149,75.9637741 44.8372979,75.8924766 44.4004894,75.8924766 L43.5421915,75.8924766 L43.5421915,77.7542766 L44.4004894,77.7542766 Z M44.2724043,75.4267083 C44.699,75.4267083 45.0041064,75.3541376 45.1870851,75.2089961 C45.3704894,75.0636424 45.4619787,74.8535693 45.4619787,74.57814 C45.4619787,74.3080156 45.365383,74.1138571 45.1721915,73.996301 C44.979,73.8789571 44.6892128,73.8197546 44.302617,73.8197546 L43.5421915,73.8197546 L43.5421915,75.4267083 L44.2724043,75.4267083 Z M42.9172979,73.3244912 L44.3855957,73.3244912 C44.6364468,73.3244912 44.8660213,73.3467717 45.0745319,73.3915449 C45.282617,73.4367424 45.4607021,73.506979 45.609,73.6022546 C45.7570851,73.697318 45.8724043,73.82124 45.955383,73.9738083 C46.0381489,74.1265888 46.0794255,74.310562 46.0794255,74.5255156 C46.0794255,74.7710254 46.0094255,74.9925571 45.8685745,75.1903229 C45.7281489,75.3880888 45.5124043,75.5245302 45.2211277,75.5994351 L45.2211277,75.6293546 C45.5828298,75.6845254 45.8638936,75.8097205 46.0643191,76.00494 C46.2651702,76.2003717 46.3655957,76.4679498 46.3655957,76.8083107 C46.3655957,77.0485156 46.3204894,77.2590132 46.2302766,77.4391668 C46.1396383,77.6193205 46.011766,77.7693424 45.846234,77.8896571 C45.6804894,78.0099717 45.4821915,78.0997302 45.2513404,78.1597815 C45.0204894,78.2200449 44.7668723,78.2501766 44.4911277,78.2501766 L42.9172979,78.2501766 L42.9172979,73.3244912 Z" id="Fill-30" fill="#FEFEFE"></path>
                        <path d="M47.2690851,74.6007812 L47.8941915,74.6007812 L47.8941915,76.830952 C47.8941915,77.1764056 47.9478085,77.4255227 48.0561064,77.5778788 C48.163766,77.7308715 48.3380213,77.8068373 48.5792979,77.8068373 C48.7701489,77.8068373 48.938234,77.7582446 49.0835532,77.6606349 C49.2292979,77.5628129 49.3899362,77.4068495 49.5654681,77.1914715 L49.5654681,74.6007812 L50.1827021,74.6007812 L50.1827021,78.2501129 L49.671,78.2501129 L49.618234,77.6795202 L49.5956809,77.6795202 C49.4250426,77.879408 49.2454681,78.0400398 49.057383,78.1597178 C48.8692979,78.2802446 48.6471702,78.3402959 48.3907872,78.3402959 C47.9995106,78.3402959 47.7148298,78.2201934 47.5365319,77.9799885 C47.358234,77.7393593 47.2690851,77.3841446 47.2690851,76.9134959 L47.2690851,74.6007812 Z" id="Fill-32" fill="#FEFEFE"></path>
                        <path d="M51.5081915,77.4239737 C51.668617,77.5542615 51.8326596,77.6595102 52.0011702,77.7392956 C52.1692553,77.8197176 52.3637234,77.8596102 52.5847872,77.8596102 C52.8254255,77.8596102 53.0060638,77.8046517 53.1267021,77.6945224 C53.2473404,77.5846054 53.3075532,77.4492249 53.3075532,77.2890176 C53.3075532,77.1939541 53.2824468,77.111198 53.232234,77.0409615 C53.1815957,76.9711493 53.117766,76.9096127 53.0401064,76.8569883 C52.962234,76.8047883 52.8730851,76.7583176 52.7726596,76.7182127 C52.672234,76.67832 52.5720213,76.6382151 52.4715957,76.5981102 C52.3409574,76.5531249 52.2107447,76.5017737 52.0801064,76.444481 C51.9494681,76.3867639 51.8326596,76.3165273 51.7298936,76.2339834 C51.6271277,76.1512273 51.5430851,76.0553151 51.4779787,75.9447615 C51.4124468,75.8350566 51.3798936,75.7024346 51.3798936,75.5471078 C51.3798936,75.4017541 51.4088298,75.2653127 51.4664894,75.1377834 C51.5241489,75.0098298 51.6071277,74.8999127 51.715,74.8073956 C51.8228723,74.7146663 51.9547872,74.6423078 52.1103191,74.5896834 C52.2660638,74.537059 52.4415957,74.5107468 52.6373404,74.5107468 C52.8681915,74.5107468 53.0803191,74.5508517 53.2735106,74.6308493 C53.4667021,74.7108468 53.6335106,74.8086688 53.7739362,74.9236785 L53.4807447,75.3141176 C53.3552128,75.218842 53.2245745,75.1416029 53.0890426,75.0815517 C52.9537234,75.0212883 52.8056383,74.9911566 52.6447872,74.9911566 C52.4141489,74.9911566 52.2447872,75.043781 52.1364894,75.1490298 C52.028617,75.2538541 51.9745745,75.3769273 51.9745745,75.5171883 C51.9745745,75.6020663 51.9973404,75.6759102 52.0426596,75.7382956 C52.087766,75.8011054 52.1479787,75.8560639 52.2232979,75.9035956 C52.2984043,75.9513395 52.3852128,75.9937785 52.4828723,76.0315493 C52.5807447,76.0688956 52.6824468,76.1075151 52.7879787,76.14762 C52.9184043,76.197698 53.0501064,76.2503224 53.1830851,76.305281 C53.3160638,76.3602395 53.4354255,76.4294151 53.5409574,76.5117468 C53.6462766,76.5945029 53.7328723,76.6955078 53.8005319,76.8160346 C53.868617,76.9361371 53.902234,77.0812785 53.902234,77.2516712 C53.902234,77.401481 53.8732979,77.541742 53.8158511,77.6720298 C53.757766,77.8021054 53.6726596,77.9171151 53.5596809,78.0174834 C53.4467021,78.1174273 53.3062766,78.1965761 53.1381915,78.2536566 C52.9696809,78.3113737 52.777766,78.3402322 52.562234,78.3402322 C52.3011702,78.3402322 52.0526596,78.2927005 51.8167021,78.1976371 C51.5805319,78.1023615 51.3747872,77.9824712 51.1992553,77.8369054 L51.5081915,77.4239737 Z" id="Fill-34" fill="#FEFEFE"></path>
                        <mask id="mask-4" fill="white">
                            <use xlink:href="#path-3"></use>
                        </mask>
                        <g id="Clip-37"></g>
                        <path d="M54.9482979,78.2501341 L55.5657447,78.2501341 L55.5657447,74.6008024 L54.9482979,74.6008024 L54.9482979,78.2501341 Z M55.2646809,73.8498439 C55.1442553,73.8498439 55.042766,73.8122854 54.9597872,73.7375927 C54.8770213,73.6622634 54.8357447,73.5672 54.8357447,73.451978 C54.8357447,73.3318756 54.8770213,73.235539 54.9597872,73.1629683 C55.042766,73.0906098 55.1442553,73.0539 55.2646809,73.0539 C55.3851064,73.0539 55.4868085,73.0906098 55.5695745,73.1629683 C55.6525532,73.235539 55.693617,73.3318756 55.693617,73.451978 C55.693617,73.5672 55.6525532,73.6622634 55.5695745,73.7375927 C55.4868085,73.8122854 55.3851064,73.8498439 55.2646809,73.8498439 Z" id="Fill-36" fill="#FEFEFE" mask="url(#mask-4)"></path>
                        <path d="M56.989,74.6007812 L57.5011277,74.6007812 L57.5536809,75.1266007 L57.5764468,75.1266007 C57.7519787,74.9513276 57.9364468,74.8051251 58.1298511,74.6869324 C58.3228298,74.5698007 58.5475106,74.5105983 58.8034681,74.5105983 C59.1900638,74.5105983 59.4721915,74.6309129 59.6504894,74.8709056 C59.8287872,75.1115349 59.9179362,75.4669617 59.9179362,75.9371861 L59.9179362,78.2501129 L59.3004894,78.2501129 L59.3004894,76.01973 C59.3004894,75.6747007 59.2451702,75.4255837 59.1347447,75.2730154 C59.0241064,75.1202349 58.8485745,75.0438446 58.6077234,75.0438446 C58.4168723,75.0438446 58.2487872,75.0915885 58.1032553,75.1864398 C57.9579362,75.2817154 57.7919787,75.4219763 57.6064468,75.6067983 L57.6064468,78.2501129 L56.989,78.2501129 L56.989,74.6007812 Z" id="Fill-38" fill="#FEFEFE" mask="url(#mask-4)"></path>
                        <path d="M63.5845319,76.1551529 C63.5845319,75.7795676 63.5055957,75.4931041 63.3472979,75.2953383 C63.1894255,75.0977846 62.9672979,74.9989017 62.6809149,74.9989017 C62.5504894,74.9989017 62.426234,75.0250017 62.3083617,75.0776261 C62.1902766,75.1302505 62.0834681,75.2051554 61.9881489,75.3029773 C61.8928298,75.4003749 61.8138936,75.5206895 61.7513404,75.6634968 C61.6883617,75.8058798 61.6468723,75.9699066 61.6268723,76.1551529 L63.5845319,76.1551529 Z M61.0245319,76.4331285 C61.0245319,76.1326602 61.0711277,75.863809 61.1638936,75.6259383 C61.2566596,75.3880676 61.3798511,75.1864822 61.532617,75.0211822 C61.6858085,74.8560944 61.8602766,74.7298383 62.0558085,74.6422017 C62.251766,74.5547773 62.4549574,74.5106407 62.6658085,74.5106407 C62.8968723,74.5106407 63.1036809,74.5507456 63.2870851,74.6307432 C63.4700638,74.7107407 63.6232553,74.8261749 63.7464468,74.9761968 C63.8692128,75.126431 63.9630426,75.3065846 64.0287872,75.5170822 C64.0941064,75.7269432 64.1264468,75.9624798 64.1264468,76.2228432 C64.1264468,76.3577993 64.119,76.4704749 64.1041064,76.5606578 L61.6343191,76.5606578 C61.6594255,76.9559773 61.7809149,77.2691773 61.9996383,77.4991968 C62.2177234,77.7296407 62.502617,77.8446505 62.8541064,77.8446505 C63.0298511,77.8446505 63.1915532,77.8185505 63.3398511,77.7659261 C63.4877234,77.7133017 63.6296383,77.6447627 63.7649574,77.559248 L63.9834681,77.9647529 C63.822617,78.064909 63.6447447,78.1523334 63.4487872,78.2276627 C63.2530426,78.3027798 63.0298511,78.3403383 62.7787872,78.3403383 C62.5328298,78.3403383 62.3034681,78.2962017 62.0900638,78.2089895 C61.8764468,78.1213529 61.6911277,77.9961578 61.532617,77.8334041 C61.3747447,77.6708627 61.2502766,77.4716115 61.1600638,77.2364993 C61.0698511,77.0011749 61.0245319,76.7333846 61.0245319,76.4331285 Z" id="Fill-39" fill="#FEFEFE" mask="url(#mask-4)"></path>
                        <path d="M65.1200213,77.4239737 C65.2806596,77.5542615 65.4447021,77.6595102 65.6132128,77.7392956 C65.7812979,77.8197176 65.9755532,77.8596102 66.1968298,77.8596102 C66.4374681,77.8596102 66.6181064,77.8046517 66.7385319,77.6945224 C66.859383,77.5846054 66.9195957,77.4492249 66.9195957,77.2890176 C66.9195957,77.1939541 66.8942766,77.111198 66.8442766,77.0409615 C66.7936383,76.9711493 66.7298085,76.9096127 66.6521489,76.8569883 C66.5742766,76.8047883 66.4851277,76.7583176 66.3847021,76.7182127 C66.2842766,76.67832 66.1840638,76.6382151 66.0836383,76.5981102 C65.953,76.5531249 65.8225745,76.5017737 65.6921489,76.444481 C65.5615106,76.3867639 65.4447021,76.3165273 65.3419362,76.2339834 C65.2391702,76.1512273 65.1551277,76.0553151 65.0898085,75.9447615 C65.0244894,75.8350566 64.9919362,75.7024346 64.9919362,75.5471078 C64.9919362,75.4017541 65.0208723,75.2653127 65.0785319,75.1377834 C65.1361915,75.0098298 65.2191702,74.8999127 65.3268298,74.8073956 C65.4349149,74.7146663 65.5668298,74.6423078 65.7223617,74.5896834 C65.8781064,74.537059 66.0536383,74.5107468 66.2491702,74.5107468 C66.480234,74.5107468 66.6921489,74.5508517 66.8855532,74.6308493 C67.0787447,74.7108468 67.2455532,74.8086688 67.3859787,74.9236785 L67.0925745,75.3141176 C66.9670426,75.218842 66.836617,75.1416029 66.7010851,75.0815517 C66.565766,75.0212883 66.4176809,74.9911566 66.2568298,74.9911566 C66.0261915,74.9911566 65.856617,75.043781 65.7485319,75.1490298 C65.6406596,75.2538541 65.586617,75.3769273 65.586617,75.5171883 C65.586617,75.6020663 65.609383,75.6759102 65.6544894,75.7382956 C65.6998085,75.8011054 65.7600213,75.8560639 65.8353404,75.9035956 C65.9104468,75.9513395 65.9972553,75.9937785 66.0949149,76.0315493 C66.1927872,76.0688956 66.2944894,76.1075151 66.4000213,76.14762 C66.530234,76.197698 66.6619362,76.2503224 66.7951277,76.305281 C66.9281064,76.3602395 67.0474681,76.4294151 67.1527872,76.5117468 C67.2583191,76.5945029 67.3449149,76.6955078 67.4125745,76.8160346 C67.4804468,76.9361371 67.5142766,77.0812785 67.5142766,77.2516712 C67.5142766,77.401481 67.4853404,77.541742 67.4276809,77.6720298 C67.3695957,77.8021054 67.2844894,77.9171151 67.1715106,78.0174834 C67.0587447,78.1174273 66.9181064,78.1965761 66.7500213,78.2536566 C66.5817234,78.3113737 66.3898085,78.3402322 66.1740638,78.3402322 C65.9132128,78.3402322 65.6647021,78.2927005 65.4287447,78.1976371 C65.1925745,78.1023615 64.9868298,77.9824712 64.8110851,77.8369054 L65.1200213,77.4239737 Z" id="Fill-40" fill="#FEFEFE" mask="url(#mask-4)"></path>
                        <path d="M68.4629787,77.4239737 C68.623617,77.5542615 68.7876596,77.6595102 68.9561702,77.7392956 C69.1242553,77.8197176 69.3185106,77.8596102 69.5397872,77.8596102 C69.7804255,77.8596102 69.9610638,77.8046517 70.0814894,77.6945224 C70.2023404,77.5846054 70.2625532,77.4492249 70.2625532,77.2890176 C70.2625532,77.1939541 70.237234,77.111198 70.187234,77.0409615 C70.1365957,76.9711493 70.072766,76.9096127 69.9951064,76.8569883 C69.917234,76.8047883 69.8280851,76.7583176 69.7276596,76.7182127 C69.627234,76.67832 69.5270213,76.6382151 69.4265957,76.5981102 C69.2959574,76.5531249 69.1655319,76.5017737 69.0351064,76.444481 C68.9044681,76.3867639 68.7876596,76.3165273 68.6848936,76.2339834 C68.5821277,76.1512273 68.4980851,76.0553151 68.432766,75.9447615 C68.3674468,75.8350566 68.3348936,75.7024346 68.3348936,75.5471078 C68.3348936,75.4017541 68.3638298,75.2653127 68.4214894,75.1377834 C68.4791489,75.0098298 68.5621277,74.8999127 68.6697872,74.8073956 C68.7778723,74.7146663 68.9097872,74.6423078 69.0653191,74.5896834 C69.2210638,74.537059 69.3965957,74.5107468 69.5921277,74.5107468 C69.8231915,74.5107468 70.0351064,74.5508517 70.2285106,74.6308493 C70.4217021,74.7108468 70.5885106,74.8086688 70.7289362,74.9236785 L70.4355319,75.3141176 C70.31,75.218842 70.1795745,75.1416029 70.0440426,75.0815517 C69.9087234,75.0212883 69.7606383,74.9911566 69.5997872,74.9911566 C69.3691489,74.9911566 69.1995745,75.043781 69.0914894,75.1490298 C68.983617,75.2538541 68.9295745,75.3769273 68.9295745,75.5171883 C68.9295745,75.6020663 68.9523404,75.6759102 68.9974468,75.7382956 C69.042766,75.8011054 69.1029787,75.8560639 69.1782979,75.9035956 C69.2534043,75.9513395 69.3402128,75.9937785 69.4378723,76.0315493 C69.5357447,76.0688956 69.6374468,76.1075151 69.7429787,76.14762 C69.8731915,76.197698 70.0048936,76.2503224 70.1378723,76.305281 C70.2710638,76.3602395 70.3904255,76.4294151 70.4957447,76.5117468 C70.6012766,76.5945029 70.6878723,76.6955078 70.7555319,76.8160346 C70.8234043,76.9361371 70.857234,77.0812785 70.857234,77.2516712 C70.857234,77.401481 70.8282979,77.541742 70.7706383,77.6720298 C70.7125532,77.8021054 70.6274468,77.9171151 70.5144681,78.0174834 C70.4017021,78.1174273 70.2610638,78.1965761 70.0929787,78.2536566 C69.9246809,78.3113737 69.732766,78.3402322 69.5170213,78.3402322 C69.2561702,78.3402322 69.0076596,78.2927005 68.7717021,78.1976371 C68.5355319,78.1023615 68.3297872,77.9824712 68.1540426,77.8369054 L68.4629787,77.4239737 Z" id="Fill-41" fill="#FEFEFE" mask="url(#mask-4)"></path>
                        <path d="M18.4411702,84.6928873 L18.207766,83.9419288 C18.1175532,83.6664995 18.032234,83.3927678 17.9520213,83.1194605 C17.871383,82.847002 17.7909574,82.567541 17.7107447,82.2823507 L17.6807447,82.2823507 C17.6056383,82.567541 17.527766,82.847002 17.4473404,83.1194605 C17.3671277,83.3927678 17.2820213,83.6664995 17.191383,83.9419288 L16.957766,84.6928873 L18.4411702,84.6928873 Z M18.5994681,85.1957898 L16.7998936,85.1957898 L16.3256383,86.6974946 L15.6856383,86.6974946 L17.3569149,81.7718093 L18.0645745,81.7718093 L19.7362766,86.6974946 L19.0662766,86.6974946 L18.5994681,85.1957898 Z" id="Fill-42" fill="#FEFEFE" mask="url(#mask-4)"></path>
                        <path d="M20.940766,84.8729561 C20.940766,85.3134732 21.0286383,85.6563805 21.2045957,85.901678 C21.3801277,86.1469756 21.6284255,86.2696244 21.9494894,86.2696244 C22.1201277,86.2696244 22.2811915,86.2284585 22.4314043,86.1457024 C22.5822553,86.0629463 22.7326809,85.9369024 22.8833191,85.766722 L22.8833191,83.8593 C22.7275745,83.7192512 22.5782128,83.6201561 22.4354468,83.5626512 C22.2922553,83.5051463 22.1454468,83.4762878 21.9948085,83.4762878 C21.8492766,83.4762878 21.7126809,83.5100268 21.5845957,83.5777171 C21.4565106,83.6454073 21.3445957,83.7402585 21.2494894,83.8629073 C21.1539574,83.9857683 21.0786383,84.1321829 21.0237447,84.3025756 C20.9682128,84.4725439 20.940766,84.6628829 20.940766,84.8729561 M20.300766,84.8803829 C20.300766,84.5852195 20.3448085,84.3189146 20.4324681,84.0810439 C20.5203404,83.842961 20.6369362,83.6413756 20.7828936,83.4762878 C20.9282128,83.3109878 21.0962979,83.1834585 21.2869362,83.0932756 C21.4777872,83.0030927 21.6786383,82.9581073 21.8894894,82.9581073 C22.1003404,82.9581073 22.2835319,82.9956659 22.4390638,83.0707829 C22.5945957,83.1459 22.7526809,83.2486024 22.9135319,83.378678 L22.8833191,82.755461 L22.8833191,81.3513659 L23.5082128,81.3513659 L23.5082128,86.697622 L22.9962979,86.697622 L22.9437447,86.2696244 L22.9209787,86.2696244 C22.775234,86.4096732 22.6084255,86.531261 22.4203404,86.6339634 C22.2320426,86.7360293 22.0299149,86.7878049 21.8141702,86.7878049 C21.3522553,86.7878049 20.9845957,86.6225049 20.7109787,86.2919049 C20.4375745,85.9617293 20.300766,85.4910805 20.300766,84.8803829" id="Fill-43" fill="#FEFEFE" mask="url(#mask-4)"></path>
                        <path d="M24.7804043,83.0483751 L25.2925319,83.0483751 L25.3452979,83.5741946 L25.3678511,83.5741946 C25.5284894,83.3989215 25.7027447,83.2525068 25.8910426,83.1345263 C26.0791277,83.0173946 26.2835957,82.95798 26.5046596,82.95798 C26.7855106,82.95798 27.0055106,83.0195166 27.163383,83.1419532 C27.3214681,83.2650263 27.4382766,83.43648 27.5135957,83.6563141 C27.704234,83.446241 27.8963617,83.2773337 28.0895532,83.1495922 C28.2825319,83.0220629 28.4923191,82.95798 28.7180638,82.95798 C29.0944468,82.95798 29.374234,83.0785068 29.5578511,83.3184995 C29.7408298,83.5589166 29.8323191,83.9145556 29.8323191,84.38478 L29.8323191,86.6974946 L29.2150851,86.6974946 L29.2150851,84.4673239 C29.2150851,84.1220824 29.159766,83.8731776 29.0491277,83.7203971 C28.9387021,83.5678288 28.7680638,83.4914385 28.5374255,83.4914385 C28.2612553,83.4914385 27.9552979,83.679019 27.6187021,84.0543922 L27.6187021,86.6974946 L27.0014681,86.6974946 L27.0014681,84.4673239 C27.0014681,84.1220824 26.9461489,83.8731776 26.8361489,83.7203971 C26.7252979,83.5678288 26.5523191,83.4914385 26.3163617,83.4914385 C26.0401915,83.4914385 25.7340213,83.679019 25.3980638,84.0543922 L25.3980638,86.6974946 L24.7804043,86.6974946 L24.7804043,83.0483751 Z" id="Fill-44" fill="#FEFEFE" mask="url(#mask-4)"></path>
                        <path d="M31.21,86.6974098 L31.8276596,86.6974098 L31.8276596,83.0482902 L31.21,83.0482902 L31.21,86.6974098 Z M31.526383,82.2973317 C31.4059574,82.2973317 31.3044681,82.2599854 31.2214894,82.1850805 C31.1387234,82.1099634 31.0974468,82.0146878 31.0974468,81.8992537 C31.0974468,81.7795756 31.1387234,81.6830268 31.2214894,81.6104561 C31.3044681,81.5378854 31.4059574,81.5013878 31.526383,81.5013878 C31.6468085,81.5013878 31.7482979,81.5378854 31.8312766,81.6104561 C31.9142553,81.6830268 31.9555319,81.7795756 31.9555319,81.8992537 C31.9555319,82.0146878 31.9142553,82.1099634 31.8312766,82.1850805 C31.7482979,82.2599854 31.6468085,82.2973317 31.526383,82.2973317 Z" id="Fill-45" fill="#FEFEFE" mask="url(#mask-4)"></path>
                        <path d="M33.2503191,83.0483751 L33.7624468,83.0483751 L33.8152128,83.5741946 L33.837766,83.5741946 C34.0132979,83.3989215 34.1979787,83.2525068 34.3911702,83.1345263 C34.5841489,83.0173946 34.8088298,82.95798 35.0647872,82.95798 C35.451383,82.95798 35.7335106,83.0785068 35.9118085,83.3184995 C36.0901064,83.5589166 36.1792553,83.9145556 36.1792553,84.38478 L36.1792553,86.6974946 L35.5618085,86.6974946 L35.5618085,84.4673239 C35.5618085,84.1220824 35.5064894,83.8731776 35.3960638,83.7203971 C35.2856383,83.5678288 35.1101064,83.4914385 34.8692553,83.4914385 C34.6781915,83.4914385 34.5101064,83.5391824 34.3645745,83.6338215 C34.2192553,83.7293093 34.0532979,83.869358 33.8679787,84.0543922 L33.8679787,86.6974946 L33.2503191,86.6974946 L33.2503191,83.0483751 Z" id="Fill-46" fill="#FEFEFE" mask="url(#mask-4)"></path>
                        <path d="M37.5568085,86.6974098 L38.1744681,86.6974098 L38.1744681,83.0482902 L37.5568085,83.0482902 L37.5568085,86.6974098 Z M37.8731915,82.2973317 C37.752766,82.2973317 37.6512766,82.2599854 37.5682979,82.1850805 C37.4855319,82.1099634 37.4440426,82.0146878 37.4440426,81.8992537 C37.4440426,81.7795756 37.4855319,81.6830268 37.5682979,81.6104561 C37.6512766,81.5378854 37.752766,81.5013878 37.8731915,81.5013878 C37.993617,81.5013878 38.0953191,81.5378854 38.1780851,81.6104561 C38.2610638,81.6830268 38.3023404,81.7795756 38.3023404,81.8992537 C38.3023404,82.0146878 38.2610638,82.1099634 38.1780851,82.1850805 C38.0953191,82.2599854 37.993617,82.2973317 37.8731915,82.2973317 Z" id="Fill-47" fill="#FEFEFE" mask="url(#mask-4)"></path>
                        <path d="M39.4994894,85.8715676 C39.6599149,86.0018554 39.8241702,86.1071041 39.9924681,86.1868895 C40.160766,86.2673115 40.3550213,86.3072041 40.5760851,86.3072041 C40.8169362,86.3072041 40.9975745,86.2522456 41.118,86.1421163 C41.2386383,86.0319871 41.2990638,85.8966066 41.2990638,85.7366115 C41.2990638,85.641548 41.2735319,85.558792 41.2235319,85.4885554 C41.1731064,85.418531 41.1092766,85.3572066 41.031617,85.3045822 C40.9535319,85.2523822 40.8645957,85.2059115 40.7641702,85.1658066 C40.6635319,85.1257017 40.5633191,85.085809 40.4631064,85.0457041 C40.3324681,85.0007188 40.2018298,84.9493676 40.0714043,84.8918627 C39.940766,84.8343578 39.8241702,84.7641212 39.7211915,84.6815773 C39.6184255,84.5988212 39.5345957,84.5026968 39.4692766,84.3921432 C39.4037447,84.2826505 39.3714043,84.1498163 39.3714043,83.9944895 C39.3714043,83.849348 39.4001277,83.7129066 39.4577872,83.5851651 C39.5154468,83.4574237 39.5984255,83.3475066 39.7062979,83.2547773 C39.814383,83.1622602 39.9460851,83.0899017 40.1018298,83.0372773 C40.2573617,82.9846529 40.4328936,82.9581285 40.6284255,82.9581285 C40.8594894,82.9581285 41.0714043,82.9982334 41.2648085,83.0784432 C41.4582128,83.1584407 41.6250213,83.2562627 41.7654468,83.3712724 L41.4718298,83.7617115 C41.3462979,83.6664359 41.2160851,83.5889846 41.0803404,83.5289334 C40.9450213,83.4688822 40.7969362,83.4387505 40.6360851,83.4387505 C40.4054468,83.4387505 40.2358723,83.4913749 40.128,83.5966237 C40.0201277,83.701448 39.9660851,83.8245212 39.9660851,83.96457 C39.9660851,84.049448 39.9886383,84.1235041 40.0339574,84.1858895 C40.0790638,84.2486993 40.1392766,84.3036578 40.2148085,84.3511895 C40.2897021,84.3989334 40.3767234,84.4413724 40.474383,84.478931 C40.5722553,84.5164895 40.6737447,84.555109 40.7792766,84.5952139 C40.9094894,84.645292 41.0414043,84.6979163 41.174383,84.7528749 C41.3075745,84.8078334 41.4267234,84.877009 41.5320426,84.9591285 C41.6375745,85.0418846 41.724383,85.1431017 41.7920426,85.2634163 C41.8597021,85.383731 41.8935319,85.5288724 41.8935319,85.6990529 C41.8935319,85.8490749 41.8648085,85.9893359 41.8069362,86.1196237 C41.7490638,86.2494871 41.6637447,86.3644968 41.550766,86.4650773 C41.4382128,86.5650212 41.2975745,86.64417 41.1294894,86.7012505 C40.9611915,86.7587554 40.7690638,86.7878261 40.5535319,86.7878261 C40.2924681,86.7878261 40.0439574,86.7400822 39.8082128,86.6450188 C39.5718298,86.5499554 39.3660851,86.4300651 39.1905532,86.2844993 L39.4994894,85.8715676 Z" id="Fill-48" fill="#FEFEFE" mask="url(#mask-4)"></path>
                        <path d="M43.0455532,83.551511 L42.5036383,83.551511 L42.5036383,83.0859549 L43.075766,83.0483963 L43.1510851,82.0271012 L43.6704468,82.0271012 L43.6704468,83.0483963 L44.6568298,83.0483963 L44.6568298,83.551511 L43.6704468,83.551511 L43.6704468,85.5788232 C43.6704468,85.8039622 43.7119362,85.9781744 43.7947021,86.100611 C43.8774681,86.223472 44.0242766,86.2845841 44.2353404,86.2845841 C44.3004468,86.2845841 44.3706596,86.2748232 44.4459787,86.2544524 C44.5212979,86.2347183 44.5891702,86.2120134 44.649383,86.1869744 L44.7698085,86.6525305 C44.669383,86.6873305 44.5598085,86.7189476 44.4421489,86.7463207 C44.3244894,86.7739061 44.2074681,86.787911 44.0921489,86.787911 C43.8964043,86.787911 43.7321489,86.7575671 43.5989574,86.6975159 C43.4659787,86.6374646 43.3581064,86.5547085 43.2751277,86.4498841 C43.1923617,86.3446354 43.1334255,86.2171061 43.0983191,86.066872 C43.063,85.9166378 43.0455532,85.75155 43.0455532,85.5713963 L43.0455532,83.551511 Z" id="Fill-49" fill="#FEFEFE" mask="url(#mask-4)"></path>
                        <path d="M45.6729362,83.0483751 L46.1850638,83.0483751 L46.2378298,83.7089385 L46.2605957,83.7089385 C46.3857021,83.478919 46.537617,83.2960068 46.7157021,83.1610507 C46.894,83.0258824 47.0882553,82.95798 47.2995319,82.95798 C47.4448511,82.95798 47.5752766,82.9832312 47.6908085,83.0333093 L47.570383,83.5741946 C47.5101702,83.5542483 47.4546383,83.5391824 47.4050638,83.5289971 C47.3544255,83.5188117 47.2918723,83.5139312 47.2165532,83.5139312 C47.0608085,83.5139312 46.8991064,83.5765288 46.7310213,83.7015117 C46.5625106,83.8267068 46.4157021,84.0446312 46.2905957,84.3546483 L46.2905957,86.6974946 L45.6729362,86.6974946 L45.6729362,83.0483751 Z" id="Fill-50" fill="#FEFEFE" mask="url(#mask-4)"></path>
                        <path d="M48.7148085,85.7066283 C48.7148085,85.9167015 48.7762979,86.0669356 48.8992766,86.1571185 C49.0220426,86.2470893 49.1741702,86.2920746 49.3548085,86.2920746 C49.5303404,86.2920746 49.6973617,86.2509088 49.855234,86.1683649 C50.0135319,86.0856088 50.1803404,85.9644454 50.3562979,85.8040259 L50.3562979,84.7903698 C50.0499149,84.8304746 49.791617,84.8782185 49.580766,84.9329649 C49.3697021,84.9883478 49.2003404,85.0532795 49.0726809,85.1281844 C48.944383,85.2033015 48.8526809,85.2896649 48.7977872,85.3872746 C48.7422553,85.4848844 48.7148085,85.5916185 48.7148085,85.7066283 M48.1050213,85.7516137 C48.1050213,85.3509893 48.284383,85.0445795 48.6433191,84.8317478 C49.0022553,84.6191283 49.5731064,84.4701673 50.3562979,84.3848649 C50.3562979,84.2698551 50.3448085,84.1573917 50.3222553,84.0470502 C50.2994894,83.9371332 50.2592766,83.8393112 50.201617,83.754221 C50.1439574,83.6691307 50.0671489,83.6001673 49.9722553,83.5475429 C49.8767234,83.4949185 49.7537447,83.4688185 49.6033191,83.4688185 C49.3873617,83.4688185 49.188,83.5091356 49.0048085,83.5891332 C48.8211915,83.6691307 48.6571489,83.7593137 48.511617,83.8592576 L48.2628936,83.43126 C48.4337447,83.3211307 48.6420426,83.2150332 48.888,83.1119063 C49.1339574,83.0098405 49.4048085,82.9580649 49.7009787,82.9580649 C50.1477872,82.9580649 50.471617,83.0947185 50.6724681,83.3676015 C50.8731064,83.6404844 50.9735319,84.0046112 50.9735319,84.459982 L50.9735319,86.6975795 L50.4614043,86.6975795 L50.4086383,86.2619429 L50.3937447,86.2619429 C50.218,86.4075088 50.0286383,86.5314307 49.8256596,86.633921 C49.6220426,86.736199 49.4075745,86.7879746 49.181617,86.7879746 C48.8703404,86.7879746 48.6131064,86.6975795 48.4097021,86.5172137 C48.2065106,86.3372722 48.1050213,86.0820015 48.1050213,85.7516137" id="Fill-51" fill="#FEFEFE" mask="url(#mask-4)"></path>
                        <path d="M52.4338511,83.551511 L51.8919362,83.551511 L51.8919362,83.0859549 L52.4640638,83.0483963 L52.539383,82.0271012 L53.0587447,82.0271012 L53.0587447,83.0483963 L54.0451277,83.0483963 L54.0451277,83.551511 L53.0587447,83.551511 L53.0587447,85.5788232 C53.0587447,85.8039622 53.1004468,85.9781744 53.183,86.100611 C53.265766,86.223472 53.4125745,86.2845841 53.6236383,86.2845841 C53.6887447,86.2845841 53.7589574,86.2748232 53.8342766,86.2544524 C53.9098085,86.2347183 53.9774681,86.2120134 54.0376809,86.1869744 L54.1581064,86.6525305 C54.0576809,86.6873305 53.9483191,86.7189476 53.8304468,86.7463207 C53.7127872,86.7739061 53.595766,86.787911 53.4804468,86.787911 C53.2847021,86.787911 53.1204468,86.7575671 52.9874681,86.6975159 C52.8542766,86.6374646 52.746617,86.5547085 52.6636383,86.4498841 C52.5806596,86.3446354 52.5217234,86.2171061 52.486617,86.066872 C52.4512979,85.9166378 52.4338511,85.75155 52.4338511,85.5713963 L52.4338511,83.551511 Z" id="Fill-52" fill="#FEFEFE" mask="url(#mask-4)"></path>
                        <path d="M55.0617021,86.6974098 L55.6791489,86.6974098 L55.6791489,83.0482902 L55.0617021,83.0482902 L55.0617021,86.6974098 Z M55.3778723,82.2973317 C55.2576596,82.2973317 55.1559574,82.2599854 55.0729787,82.1850805 C54.9902128,82.1099634 54.9487234,82.0146878 54.9487234,81.8992537 C54.9487234,81.7795756 54.9902128,81.6830268 55.0729787,81.6104561 C55.1559574,81.5378854 55.2576596,81.5013878 55.3778723,81.5013878 C55.4982979,81.5013878 55.6,81.5378854 55.6829787,81.6104561 C55.7657447,81.6830268 55.8070213,81.7795756 55.8070213,81.8992537 C55.8070213,82.0146878 55.7657447,82.1099634 55.6829787,82.1850805 C55.6,82.2599854 55.4982979,82.2973317 55.3778723,82.2973317 Z" id="Fill-53" fill="#FEFEFE" mask="url(#mask-4)"></path>
                        <path d="M57.4708298,84.8804254 C57.4708298,85.0904985 57.4959362,85.281262 57.5461489,85.4508059 C57.5963617,85.6211985 57.6676383,85.7680376 57.760617,85.8904741 C57.853383,86.0131229 57.9650851,86.1081863 58.0959362,86.1756644 C58.2263617,86.2433546 58.3693404,86.2770937 58.5248723,86.2770937 C58.680617,86.2770937 58.8235957,86.2433546 58.9540213,86.1756644 C59.0844468,86.1081863 59.1961489,86.0131229 59.2891277,85.8904741 C59.3818936,85.7680376 59.4531702,85.6211985 59.5038085,85.4508059 C59.5540213,85.281262 59.5787021,85.0904985 59.5787021,84.8804254 C59.5787021,84.6703522 59.5540213,84.47874 59.5038085,84.3060132 C59.4531702,84.1332863 59.3818936,83.9843254 59.2891277,83.8593424 C59.1961489,83.7343595 59.0844468,83.6378107 58.9540213,83.5701205 C58.8235957,83.5026424 58.680617,83.4689034 58.5248723,83.4689034 C58.3693404,83.4689034 58.2263617,83.5026424 58.0959362,83.5701205 C57.9650851,83.6378107 57.853383,83.7343595 57.760617,83.8593424 C57.6676383,83.9843254 57.5963617,84.1332863 57.5461489,84.3060132 C57.4959362,84.47874 57.4708298,84.6703522 57.4708298,84.8804254 M56.8308298,84.8804254 C56.8308298,84.5752888 56.8774255,84.303679 56.9699787,84.0658083 C57.0627447,83.8279376 57.1874255,83.6267766 57.3429574,83.4614766 C57.4982766,83.2959644 57.6778511,83.1711937 57.8814681,83.0858912 C58.0844468,83.0010132 58.2991277,82.9579376 58.5248723,82.9579376 C58.7510426,82.9579376 58.9652979,83.0010132 59.1684894,83.0858912 C59.3721064,83.1711937 59.5512553,83.2959644 59.707,83.4614766 C59.8625319,83.6267766 59.9867872,83.8279376 60.079766,84.0658083 C60.1725319,84.303679 60.2191277,84.5752888 60.2191277,84.8804254 C60.2191277,85.1806815 60.1725319,85.4501693 60.079766,85.6876156 C59.9867872,85.9254863 59.8625319,86.1257985 59.707,86.2885522 C59.5512553,86.4510937 59.3721064,86.5750156 59.1684894,86.6601059 C58.9652979,86.7449839 58.7510426,86.7878473 58.5248723,86.7878473 C58.2991277,86.7878473 58.0844468,86.7449839 57.8814681,86.6601059 C57.6778511,86.5750156 57.4982766,86.4510937 57.3429574,86.2885522 C57.1874255,86.1257985 57.0627447,85.9254863 56.9699787,85.6876156 C56.8774255,85.4501693 56.8308298,85.1806815 56.8308298,84.8804254" id="Fill-54" fill="#FEFEFE" mask="url(#mask-4)"></path>
                        <path d="M61.22,83.0483751 L61.7321277,83.0483751 L61.7848936,83.5741946 L61.8074468,83.5741946 C61.9831915,83.3989215 62.1674468,83.2525068 62.3608511,83.1345263 C62.5540426,83.0173946 62.7785106,82.95798 63.0344681,82.95798 C63.4212766,82.95798 63.7031915,83.0785068 63.8814894,83.3184995 C64.0597872,83.5589166 64.1489362,83.9145556 64.1489362,84.38478 L64.1489362,86.6974946 L63.5314894,86.6974946 L63.5314894,84.4673239 C63.5314894,84.1220824 63.4761702,83.8731776 63.3657447,83.7203971 C63.2553191,83.5678288 63.0795745,83.4914385 62.8387234,83.4914385 C62.6478723,83.4914385 62.4797872,83.5391824 62.3342553,83.6338215 C62.1889362,83.7293093 62.0229787,83.869358 61.8374468,84.0543922 L61.8374468,86.6974946 L61.22,86.6974946 L61.22,83.0483751 Z" id="Fill-55" fill="#FEFEFE" mask="url(#mask-4)"></path>
                    </g>
                </g>
            </g>
        </g>
    </g>
</svg>