<?xml version="1.0" encoding="UTF-8"?>
<svg width="80px" height="88px" viewBox="0 0 80 88" version="1.1" xmlns="http://www.w3.org/2000/svg" xmlns:xlink="http://www.w3.org/1999/xlink">
    <!-- Generator: Sketch 49 (51002) - http://www.bohemiancoding.com/sketch -->
    <title>Page 1</title>
    <desc>Created with Sketch.</desc>
    <defs>
        <polygon id="path-1" points="0.0917446809 0.205067971 22.4112766 0.205067971 22.4112766 28.6684421 0.0917446809 28.6684421"></polygon>
        <polygon id="path-3" points="0 88 79.8580851 88 79.8580851 0.212146699 0 0.212146699"></polygon>
    </defs>
    <g id="Page-1" stroke="none" stroke-width="1" fill="none" fill-rule="evenodd">
        <g id="Tablet" transform="translate(-637.000000, -1343.000000)">
            <g id="Page-1" transform="translate(637.000000, 1343.000000)">
                <polygon id="Fill-1" fill="#213369" points="65 57.6361537 14.1588951 57.6361537 13.6654388 57.6361537 13.6654388 57.1553168 13.6654388 50.2857143 9.16666667 50.2857143 9.16666667 62.0190476 65 62.0190476"></polygon>
                <polygon id="Fill-2" fill="#213369" points="9.16666667 0 9.16666667 11.7333333 13.645829 11.7333333 13.645829 4.86381678 13.645829 4.382764 14.136969 4.382764 65.8626073 4.382764 66.3539591 4.382764 66.3539591 4.86381678 66.3539591 11.7333333 70.8333333 11.7333333 70.8333333 0"></polygon>
                <g id="Group-56">
                    <path d="M5.432,37.1175394 C5.46923404,38.7015394 6.22434043,41.7126885 11.164766,41.7126885 C13.8430638,41.7126885 16.8232766,41.0392411 16.8232766,38.0270161 C16.8232766,35.8085125 14.7862553,35.2151042 11.9202979,34.5022826 L9.01561702,33.787955 C4.63944681,32.7179697 0.415404255,31.68951 0.415404255,25.4281702 C0.415404255,22.2595247 2.03710638,16.6750748 10.8251915,16.6750748 C19.1232766,16.6750748 21.3488085,22.3780773 21.3877447,25.8645125 L15.955617,25.8645125 C15.8039149,24.5974416 15.3517872,21.5862924 10.4102979,21.5862924 C8.26029787,21.5862924 5.69646809,22.4191726 5.69646809,24.993334 C5.69646809,27.2118377 7.43093617,27.6884147 8.562,27.9644636 L15.1632766,29.669598 C18.8598723,30.6203853 22.2545532,32.2035247 22.2545532,37.3126885 C22.2545532,45.8719257 13.9551915,46.6241213 11.5800851,46.6241213 C1.69838298,46.6241213 8.5106383e-05,40.6427032 8.5106383e-05,37.1175394 L5.432,37.1175394 Z" id="Fill-3" fill="#213369"></path>
                    <path d="M35.0514681,40.9596108 L42.2599787,40.9596108 C45.120617,40.9596108 46.7665745,39.6921095 46.7665745,36.7988675 C46.7665745,34.3051756 44.649766,33.351376 42.5338085,33.351376 L35.0514681,33.351376 L35.0514681,40.9596108 Z M35.0514681,28.5593565 L41.947,28.5593565 C44.2580638,28.5593565 46.1004043,27.6488039 46.1004043,25.3896352 C46.1004043,23.051288 44.4538085,22.3382513 41.789766,22.3382513 L35.0514681,22.3382513 L35.0514681,28.5593565 Z M29.410617,17.4268186 L43.0825319,17.4268186 C49.9780638,17.4268186 51.7404043,21.7852929 51.7404043,24.7168333 C51.7404043,28.7964616 49.4684894,29.9471315 48.2929574,30.5401095 C51.7404043,31.8474152 52.6423191,34.6197379 52.6423191,37.4344469 C52.6423191,39.6921095 51.7016809,41.8312196 50.2140213,43.2975276 C48.6074255,44.8808822 47.0787021,45.8721193 41.3204043,45.8721193 L29.410617,45.8721193 L29.410617,17.4268186 Z" id="Fill-5" fill="#213369"></path>
                    <g id="Group-9" transform="translate(57.446809, 17.212714)">
                        <mask id="mask-2" fill="white">
                            <use xlink:href="#path-1"></use>
                        </mask>
                        <g id="Clip-8"></g>
                        <polygon id="Fill-7" fill="#213369" mask="url(#mask-2)" points="13.4883404 0.205067971 9.026 0.205067971 0.0917446809 28.6684421 5.73259574 28.6684421 11.2068511 9.98124401 16.7706809 28.6684421 22.4113191 28.6684421"></polygon>
                    </g>
                    <polygon id="Fill-10" fill="#213369" points="70.9016809 58.2228655 66.429766 62.7980049 66.429766 45.9514914 70.9016809 45.9514914"></polygon>
                    <path d="M8.97723404,74.3486396 L9.60212766,74.3486396 L9.60212766,77.2950259 C9.60212766,77.5945271 9.63234043,77.8458328 9.69255319,78.0487276 C9.75276596,78.2516225 9.83446809,78.4142826 9.93723404,78.5358474 C10.0402128,78.6578425 10.1617021,78.7454122 10.3025532,78.7987716 C10.442766,78.8521311 10.593617,78.8785956 10.7540426,78.8785956 C10.9197872,78.8785956 11.0729787,78.8521311 11.2134043,78.7987716 C11.3540426,78.7454122 11.4770213,78.6578425 11.5823404,78.5358474 C11.6878723,78.4142826 11.7704255,78.2516225 11.8308511,78.0487276 C11.8910638,77.8458328 11.9210638,77.5945271 11.9210638,77.2950259 L11.9210638,74.3486396 L12.5234043,74.3486396 L12.5234043,77.2797496 C12.5234043,77.6805907 12.4780851,78.0183902 12.3880851,78.2922875 C12.2976596,78.5664 12.1734043,78.788444 12.0151064,78.9586347 C11.857234,79.1286103 11.6702128,79.2506054 11.4542553,79.3241897 C11.2382979,79.3973438 11.0051064,79.4345663 10.7540426,79.4345663 C10.5031915,79.4345663 10.2685106,79.3973438 10.0502128,79.3241897 C9.83170213,79.2506054 9.64361702,79.1286103 9.48553191,78.9586347 C9.32744681,78.788444 9.20340426,78.5664 9.11297872,78.2922875 C9.02255319,78.0183902 8.97723404,77.6805907 8.97723404,77.2797496 L8.97723404,74.3486396 Z" id="Fill-12" fill="#213369"></path>
                    <path d="M12.9827021,78.9623785 C12.9827021,78.8152098 13.0267447,78.6973027 13.1144043,78.6084421 C13.2022766,78.5195814 13.3086596,78.4748284 13.4341915,78.4748284 C13.5548298,78.4748284 13.6590851,78.5195814 13.7467447,78.6084421 C13.834617,78.6973027 13.8784468,78.8152098 13.8784468,78.9623785 C13.8784468,79.0996499 13.834617,79.2123932 13.7467447,79.3012538 C13.6590851,79.3896841 13.5548298,79.4344372 13.4341915,79.4344372 C13.3086596,79.4344372 13.2022766,79.3896841 13.1144043,79.3012538 C13.0267447,79.2123932 12.9827021,79.0996499 12.9827021,78.9623785" id="Fill-14" fill="#213369"></path>
                    <path d="M14.9475745,78.2542905 C15.1233191,78.4421242 15.3303404,78.5931658 15.5688511,78.7072 C15.8071489,78.8216645 16.054383,78.8784665 16.3103404,78.8784665 C16.6365106,78.8784665 16.8901277,78.8035912 17.070766,78.6538406 C17.251617,78.5045203 17.341617,78.3076499 17.341617,78.06409 C17.341617,77.9371462 17.3203404,77.8291364 17.2777872,77.7402758 C17.235234,77.6516303 17.1775745,77.5754641 17.1048085,77.5122073 C17.0318298,77.4485203 16.945234,77.3915032 16.8450213,77.3405105 C16.744383,77.2901633 16.6365106,77.2368039 16.5211915,77.1808626 L15.8135319,76.868667 C15.698,76.8178895 15.5799149,76.7569995 15.4597021,76.6857819 C15.3390638,76.6149946 15.2309787,76.5287159 15.1360851,76.4269457 C15.0403404,76.3256059 14.9626809,76.2051169 14.9024681,76.0650484 C14.8420426,75.9258406 14.8120426,75.7646866 14.8120426,75.5818015 C14.8120426,75.3941829 14.8509787,75.2190435 14.9290638,75.0565985 C15.0065106,74.8943687 15.114383,74.7534396 15.2526809,74.6338112 C15.3905532,74.5148284 15.5537447,74.4220949 15.7418298,74.3562562 C15.9303404,74.2902024 16.1373617,74.257068 16.3631064,74.257068 C16.6592766,74.257068 16.9328936,74.3143002 17.1837447,74.4285496 C17.4348085,74.542799 17.648,74.6910435 17.8237447,74.8737134 L17.4848085,75.2848822 C17.3341702,75.1379286 17.1673617,75.0221731 16.9841702,74.9386914 C16.8009787,74.8547795 16.5939574,74.8128235 16.3631064,74.8128235 C16.0867234,74.8128235 15.8650213,74.8778015 15.6969362,75.0068968 C15.5284255,75.1364225 15.4445957,75.3154347 15.4445957,75.5435032 C15.4445957,75.6657134 15.4682128,75.7683443 15.5160851,75.8522562 C15.5637447,75.9361682 15.6277872,76.0095374 15.708,76.0727941 C15.7884255,76.1364812 15.8760851,76.1924225 15.9714043,76.2406181 C16.0669362,76.2888137 16.1648085,76.3331364 16.2650213,76.3738015 L16.965234,76.6782513 C17.1058723,76.7391413 17.2388511,76.809068 17.364383,76.8873858 C17.4899149,76.9665643 17.598,77.0577917 17.688,77.1614983 C17.7784255,77.2658504 17.8503404,77.3876303 17.9026809,77.5270533 C17.9554468,77.6669066 17.9820426,77.8280606 17.9820426,78.0107306 C17.9820426,78.2084616 17.9428936,78.3939286 17.865234,78.5662709 C17.7873617,78.7390435 17.6756596,78.8900851 17.5301277,79.0193956 C17.384383,79.1489213 17.2086383,79.2506914 17.0028936,79.3242758 C16.7971489,79.3972147 16.5639574,79.4344372 16.3026809,79.4344372 C15.9565106,79.4344372 15.635234,79.3681682 15.3390638,79.2362758 C15.0428936,79.1043834 14.7871489,78.9240802 14.5711915,78.6960117 L14.9475745,78.2542905 Z" id="Fill-16" fill="#213369"></path>
                    <path d="M18.6519574,78.9623785 C18.6519574,78.8152098 18.696,78.6973027 18.7836596,78.6084421 C18.8715319,78.5195814 18.9779149,78.4748284 19.1034468,78.4748284 C19.2240851,78.4748284 19.3281277,78.5195814 19.416,78.6084421 C19.5038723,78.6973027 19.5477021,78.8152098 19.5477021,78.9623785 C19.5477021,79.0996499 19.5038723,79.2123932 19.416,79.3012538 C19.3281277,79.3896841 19.2240851,79.4344372 19.1034468,79.4344372 C18.9779149,79.4344372 18.8715319,79.3896841 18.7836596,79.3012538 C18.696,79.2123932 18.6519574,79.0996499 18.6519574,78.9623785" id="Fill-18" fill="#213369"></path>
                    <path d="M22.4765532,78.2542905 C22.6520851,78.4421242 22.8593191,78.5931658 23.0978298,78.7072 C23.3359149,78.8216645 23.5833617,78.8784665 23.8393191,78.8784665 C24.1654894,78.8784665 24.4191064,78.8035912 24.5997447,78.6538406 C24.7805957,78.5045203 24.8705957,78.3076499 24.8705957,78.06409 C24.8705957,77.9371462 24.8493191,77.8291364 24.806766,77.7402758 C24.7642128,77.6516303 24.7065532,77.5754641 24.6337872,77.5122073 C24.5605957,77.4485203 24.4742128,77.3915032 24.374,77.3405105 C24.2733617,77.2901633 24.1654894,77.2368039 24.0501702,77.1808626 L23.3425106,76.868667 C23.226766,76.8178895 23.1088936,76.7569995 22.9886809,76.6857819 C22.8680426,76.6149946 22.7599574,76.5287159 22.6648511,76.4269457 C22.5693191,76.3256059 22.4916596,76.2051169 22.4314468,76.0650484 C22.3710213,75.9258406 22.3408085,75.7646866 22.3408085,75.5818015 C22.3408085,75.3941829 22.3799574,75.2190435 22.4578298,75.0565985 C22.5354894,74.8943687 22.6433617,74.7534396 22.7816596,74.6338112 C22.9195319,74.5148284 23.0827234,74.4220949 23.2708085,74.3562562 C23.4591064,74.2902024 23.6661277,74.257068 23.8918723,74.257068 C24.1880426,74.257068 24.4618723,74.3143002 24.7127234,74.4285496 C24.9635745,74.542799 25.1769787,74.6910435 25.3527234,74.8737134 L25.0137872,75.2848822 C24.8631489,75.1379286 24.6963404,75.0221731 24.5131489,74.9386914 C24.3299574,74.8547795 24.1229362,74.8128235 23.8918723,74.8128235 C23.6157021,74.8128235 23.394,74.8778015 23.2259149,75.0068968 C23.0574043,75.1364225 22.9735745,75.3154347 22.9735745,75.5435032 C22.9735745,75.6657134 22.9971915,75.7683443 23.0450638,75.8522562 C23.0925106,75.9361682 23.156766,76.0095374 23.2369787,76.0727941 C23.3174043,76.1364812 23.4050638,76.1924225 23.500383,76.2406181 C23.5957021,76.2888137 23.6937872,76.3331364 23.794,76.3738015 L24.4942128,76.6782513 C24.6348511,76.7391413 24.7678298,76.809068 24.8931489,76.8873858 C25.0186809,76.9665643 25.1269787,77.0577917 25.2169787,77.1614983 C25.3074043,77.2658504 25.3791064,77.3876303 25.4316596,77.5270533 C25.4844255,77.6669066 25.5108085,77.8280606 25.5108085,78.0107306 C25.5108085,78.2084616 25.4718723,78.3939286 25.3942128,78.5662709 C25.3163404,78.7390435 25.2044255,78.8900851 25.0591064,79.0193956 C24.9133617,79.1489213 24.737617,79.2506914 24.5318723,79.3242758 C24.3261277,79.3972147 24.0929362,79.4344372 23.8316596,79.4344372 C23.4852766,79.4344372 23.1642128,79.3681682 22.8680426,79.2362758 C22.5718723,79.1043834 22.3161277,78.9240802 22.0999574,78.6960117 L22.4765532,78.2542905 Z" id="Fill-20" fill="#213369"></path>
                    <path d="M26.6098085,75.642756 L27.1219362,75.642756 L27.1747021,76.1759198 L27.1972553,76.1759198 C27.3578936,75.9981985 27.5321489,75.849954 27.7204468,75.7301105 C27.9085319,75.6113428 28.113,75.5513134 28.3340638,75.5513134 C28.6149149,75.5513134 28.8349149,75.6134944 28.9927872,75.7378562 C29.1510851,75.8624333 29.2676809,76.0362817 29.343,76.2594015 C29.5336383,76.0463941 29.725766,75.8749125 29.9189574,75.745602 C30.1119362,75.6162914 30.3217234,75.5513134 30.5474681,75.5513134 C30.9238511,75.5513134 31.2036383,75.6733086 31.3872553,75.9166533 C31.570234,76.1606435 31.6617234,76.5210347 31.6617234,76.9978269 L31.6617234,79.3430592 L31.0444894,79.3430592 L31.0444894,77.0815237 C31.0444894,76.7316753 30.9891702,76.4790787 30.8785319,76.3243795 C30.7683191,76.169465 30.5974681,76.0920078 30.3668298,76.0920078 C30.0906596,76.0920078 29.7847021,76.2822083 29.4481064,76.6628244 L29.4481064,79.3430592 L28.8308723,79.3430592 L28.8308723,77.0815237 C28.8308723,76.7316753 28.7755532,76.4790787 28.6655532,76.3243795 C28.5547021,76.169465 28.3817234,76.0920078 28.145766,76.0920078 C27.8695957,76.0920078 27.5636383,76.2822083 27.2274681,76.6628244 L27.2274681,79.3430592 L26.6098085,79.3430592 L26.6098085,75.642756 Z" id="Fill-22" fill="#213369"></path>
                    <path d="M33.3182766,78.3381164 C33.3182766,78.5511237 33.3799787,78.7034562 33.5027447,78.7948988 C33.6257234,78.8861262 33.7776383,78.931955 33.9582766,78.931955 C34.1338085,78.931955 34.3010426,78.889999 34.4589149,78.8063022 C34.617,78.7223902 34.7838085,78.5995345 34.959766,78.4368743 L34.959766,77.4090601 C34.653383,77.4497252 34.3950851,77.4983511 34.184234,77.5536469 C33.973383,77.6098034 33.8038085,77.6758572 33.6761489,77.7515932 C33.5480638,77.8279746 33.4561489,77.9153291 33.4012553,78.0143022 C33.3457234,78.1134905 33.3182766,78.2215002 33.3182766,78.3381164 M32.7084894,78.3839452 C32.7084894,77.97751 32.8878511,77.6668205 33.247,77.4512313 C33.6057234,77.2354269 34.1767872,77.0843853 34.959766,76.9978914 C34.959766,76.8812753 34.9482766,76.7672411 34.9257234,76.6553584 C34.9031702,76.5439061 34.8627447,76.444933 34.8050851,76.3584391 C34.7474255,76.2721604 34.6708298,76.2022337 34.5759362,76.1488743 C34.4801915,76.0957301 34.3572128,76.0690504 34.2067872,76.0690504 C33.9910426,76.0690504 33.7914681,76.1099306 33.6082766,76.1910455 C33.4246596,76.2721604 33.260617,76.3636029 33.1150851,76.4651579 L32.8663617,76.0309672 C33.0372128,75.9195149 33.2455106,75.8117203 33.4916809,75.7071531 C33.7374255,75.6036616 34.0082766,75.551378 34.3044468,75.551378 C34.7514681,75.551378 35.0750851,75.6897252 35.2759362,75.9666347 C35.4765745,76.2431139 35.5772128,76.6123267 35.5772128,77.0740577 L35.5772128,79.3431237 L35.0648723,79.3431237 L35.0121064,78.9014024 L34.9972128,78.9014024 C34.8214681,79.0487863 34.6321064,79.1744391 34.4291277,79.2783609 C34.2255106,79.3822826 34.0108298,79.4345663 33.7852979,79.4345663 C33.4738085,79.4345663 33.2167872,79.3431237 33.0131702,79.1600235 C32.8101915,78.9775687 32.7084894,78.7189477 32.7084894,78.3839452" id="Fill-24" fill="#213369"></path>
                    <path d="M36.9318723,73.9221086 L37.5495319,73.9221086 L37.5495319,78.6424802 C37.5495319,78.7442504 37.566766,78.8152528 37.6018723,78.8557027 C37.6369787,78.8963677 37.6771915,78.9165927 37.7225106,78.9165927 L37.7788936,78.9165927 C37.7965532,78.9165927 37.8227234,78.911644 37.8582553,78.9015315 L37.9410213,79.3735902 C37.9008085,79.3938152 37.8529362,79.4088763 37.7978298,79.4192039 C37.7425106,79.4293164 37.6722979,79.4344802 37.5869787,79.4344802 C37.3510213,79.4344802 37.1829362,79.3632626 37.0825106,79.2210425 C36.9820851,79.0792528 36.9318723,78.870979 36.9318723,78.5968665 L36.9318723,73.9221086 Z" id="Fill-26" fill="#213369"></path>
                    <path d="M39.04,73.9221086 L39.6576596,73.9221086 L39.6576596,78.6424802 C39.6576596,78.7442504 39.6748936,78.8152528 39.71,78.8557027 C39.7451064,78.8963677 39.7853191,78.9165927 39.8306383,78.9165927 L39.8868085,78.9165927 C39.9046809,78.9165927 39.9308511,78.911644 39.9661702,78.9015315 L40.0491489,79.3735902 C40.0087234,79.3938152 39.9610638,79.4088763 39.9059574,79.4192039 C39.8506383,79.4293164 39.7804255,79.4344802 39.6948936,79.4344802 C39.4589362,79.4344802 39.2910638,79.3632626 39.1906383,79.2210425 C39.09,79.0792528 39.04,78.870979 39.04,78.5968665 L39.04,73.9221086 Z" id="Fill-28" fill="#213369"></path>
                    <path d="M44.4004894,78.8402973 C44.8270851,78.8402973 45.1585745,78.7604733 45.3943191,78.6008254 C45.6300638,78.4409623 45.7481489,78.1909477 45.7481489,77.8505663 C45.7481489,77.5413829 45.6328298,77.3139599 45.401766,77.1691579 C45.1709149,77.0247863 44.8372979,76.9524929 44.4004894,76.9524929 L43.5421915,76.9524929 L43.5421915,78.8402973 L44.4004894,78.8402973 Z M44.2724043,76.4802191 C44.699,76.4802191 45.0041064,76.4066347 45.1870851,76.259466 C45.3704894,76.1120822 45.4619787,75.8990748 45.4619787,75.6197985 C45.4619787,75.3459012 45.365383,75.1490308 45.1721915,75.0298328 C44.979,74.9108499 44.6892128,74.8508205 44.302617,74.8508205 L43.5421915,74.8508205 L43.5421915,76.4802191 L44.2724043,76.4802191 Z M42.9172979,74.3486396 L44.3855957,74.3486396 C44.6364468,74.3486396 44.8660213,74.3712313 45.0745319,74.4166298 C45.282617,74.4624587 45.4607021,74.5336763 45.609,74.6302826 C45.7570851,74.7266738 45.8724043,74.8523267 45.955383,75.0070259 C46.0381489,75.1619403 46.0794255,75.3484831 46.0794255,75.5664391 C46.0794255,75.815378 46.0094255,76.0400039 45.8685745,76.240532 C45.7281489,76.4410601 45.5124043,76.5794073 45.2211277,76.6553584 L45.2211277,76.6856958 C45.5828298,76.7416372 45.8638936,76.8685809 46.0643191,77.0665271 C46.2651702,77.2646885 46.3655957,77.5360039 46.3655957,77.8811188 C46.3655957,78.1246787 46.3204894,78.3381164 46.2302766,78.5207863 C46.1396383,78.7034562 46.011766,78.8555736 45.846234,78.9775687 C45.6804894,79.0995638 45.4821915,79.190576 45.2513404,79.251466 C45.0204894,79.3125711 44.7668723,79.3431237 44.4911277,79.3431237 L42.9172979,79.3431237 L42.9172979,74.3486396 Z" id="Fill-30" fill="#213369"></path>
                    <path d="M47.2690851,75.642756 L47.8941915,75.642756 L47.8941915,77.9040763 C47.8941915,78.254355 47.9478085,78.5069516 48.0561064,78.6614357 C48.163766,78.8165653 48.3380213,78.8935922 48.5792979,78.8935922 C48.7701489,78.8935922 48.938234,78.8443208 49.0835532,78.7453477 C49.2292979,78.6461594 49.3899362,78.4880176 49.5654681,78.2696313 L49.5654681,75.642756 L50.1827021,75.642756 L50.1827021,79.3430592 L49.671,79.3430592 L49.618234,78.7644968 L49.5956809,78.7644968 C49.4250426,78.9671765 49.2454681,79.1300518 49.057383,79.2514015 C48.8692979,79.3736117 48.6471702,79.4345017 48.3907872,79.4345017 C47.9995106,79.4345017 47.7148298,79.3127218 47.5365319,79.0691619 C47.358234,78.8251716 47.2690851,78.4649956 47.2690851,77.9877731 L47.2690851,75.642756 Z" id="Fill-32" fill="#213369"></path>
                    <path d="M51.5081915,78.5053809 C51.668617,78.6374885 51.8326596,78.7442073 52.0011702,78.8251071 C52.1692553,78.9066523 52.3637234,78.9471022 52.5847872,78.9471022 C52.8254255,78.9471022 53.0060638,78.891376 53.1267021,78.7797086 C53.2473404,78.6682562 53.3075532,78.5309848 53.3075532,78.3685399 C53.3075532,78.2721487 53.2824468,78.1882367 53.232234,78.1170191 C53.1815957,78.0462318 53.117766,77.9838357 53.0401064,77.9304763 C52.962234,77.8775472 52.8730851,77.8304274 52.7726596,77.7897623 C52.672234,77.7493125 52.5720213,77.7086474 52.4715957,77.6679824 C52.3409574,77.6223687 52.2107447,77.5703002 52.0801064,77.5122073 C51.9494681,77.4536841 51.8326596,77.3824665 51.7298936,77.2987697 C51.6271277,77.2148577 51.5430851,77.1176059 51.4779787,77.0055081 C51.4124468,76.8942709 51.3798936,76.7597966 51.3798936,76.6023002 C51.3798936,76.4549164 51.4088298,76.3165692 51.4664894,76.1872587 C51.5241489,76.0575178 51.6071277,75.9460655 51.715,75.8522562 C51.8228723,75.7582318 51.9547872,75.6848626 52.1103191,75.6315032 C52.2660638,75.5781438 52.4415957,75.5514641 52.6373404,75.5514641 C52.8681915,75.5514641 53.0803191,75.5921291 53.2735106,75.673244 C53.4667021,75.7543589 53.6335106,75.8535472 53.7739362,75.9701633 L53.4807447,76.3660557 C53.3552128,76.2694494 53.2245745,76.1911315 53.0890426,76.1302416 C52.9537234,76.0691364 52.8056383,76.0385839 52.6447872,76.0385839 C52.4141489,76.0385839 52.2447872,76.0919433 52.1364894,76.1986621 C52.028617,76.3049506 51.9745745,76.4297428 51.9745745,76.5719628 C51.9745745,76.6580264 51.9973404,76.7329017 52.0426596,76.7961584 C52.087766,76.8598455 52.1479787,76.9155716 52.2232979,76.9637672 C52.2984043,77.012178 52.3852128,77.0552098 52.4828723,77.0935081 C52.5807447,77.131376 52.6824468,77.170535 52.7879787,77.2112 C52.9184043,77.2619775 53.0501064,77.3153369 53.1830851,77.3710631 C53.3160638,77.4267892 53.4354255,77.4969311 53.5409574,77.5804127 C53.6462766,77.6643247 53.7328723,77.7667403 53.8005319,77.8889506 C53.868617,78.0107306 53.902234,78.1578993 53.902234,78.3306719 C53.902234,78.4825741 53.8732979,78.6247941 53.8158511,78.7569017 C53.757766,78.8887941 53.6726596,79.0054103 53.5596809,79.1071804 C53.4467021,79.2085203 53.3062766,79.2887746 53.1381915,79.3466523 C52.9696809,79.4051756 52.777766,79.4344372 52.562234,79.4344372 C52.3011702,79.4344372 52.0526596,79.3862416 51.8167021,79.2898504 C51.5805319,79.193244 51.3747872,79.0716792 51.1992553,78.9240802 L51.5081915,78.5053809 Z" id="Fill-34" fill="#213369"></path>
                    <mask id="mask-4" fill="white">
                        <use xlink:href="#path-3"></use>
                    </mask>
                    <g id="Clip-37"></g>
                    <path d="M54.9482979,79.3430807 L55.5657447,79.3430807 L55.5657447,75.6427775 L54.9482979,75.6427775 L54.9482979,79.3430807 Z M55.2646809,74.8813301 C55.1442553,74.8813301 55.042766,74.8432469 54.9597872,74.767511 C54.8770213,74.6911296 54.8357447,74.5947384 54.8357447,74.4779071 C54.8357447,74.3561271 54.8770213,74.258445 54.9597872,74.1848606 C55.042766,74.1114914 55.1442553,74.0742689 55.2646809,74.0742689 C55.3851064,74.0742689 55.4868085,74.1114914 55.5695745,74.1848606 C55.6525532,74.258445 55.693617,74.3561271 55.693617,74.4779071 C55.693617,74.5947384 55.6525532,74.6911296 55.5695745,74.767511 C55.4868085,74.8432469 55.3851064,74.8813301 55.2646809,74.8813301 Z" id="Fill-36" fill="#213369" mask="url(#mask-4)"></path>
                    <path d="M56.989,75.642756 L57.5011277,75.642756 L57.5536809,76.1759198 L57.5764468,76.1759198 C57.7519787,75.9981985 57.9364468,75.849954 58.1298511,75.7301105 C58.3228298,75.6113428 58.5475106,75.5513134 58.8034681,75.5513134 C59.1900638,75.5513134 59.4721915,75.6733086 59.6504894,75.9166533 C59.8287872,76.1606435 59.9179362,76.5210347 59.9179362,76.9978269 L59.9179362,79.3430592 L59.3004894,79.3430592 L59.3004894,77.0815237 C59.3004894,76.7316753 59.2451702,76.4790787 59.1347447,76.3243795 C59.0241064,76.169465 58.8485745,76.0920078 58.6077234,76.0920078 C58.4168723,76.0920078 58.2487872,76.1404186 58.1032553,76.2365946 C57.9579362,76.333201 57.7919787,76.475421 57.6064468,76.6628244 L57.6064468,79.3430592 L56.989,79.3430592 L56.989,75.642756 Z" id="Fill-38" fill="#213369" mask="url(#mask-4)"></path>
                    <path d="M63.5845319,77.2188381 C63.5845319,76.8380068 63.5055957,76.5475423 63.3472979,76.3470142 C63.1894255,76.1467012 62.9672979,76.0464372 62.6809149,76.0464372 C62.5504894,76.0464372 62.426234,76.0729017 62.3083617,76.1262611 C62.1902766,76.1796205 62.0834681,76.2555716 61.9881489,76.3547599 C61.8928298,76.4535178 61.8138936,76.575513 61.7513404,76.7203149 C61.6883617,76.8646866 61.6468723,77.0310044 61.6268723,77.2188381 L63.5845319,77.2188381 Z M61.0245319,77.5006963 C61.0245319,77.1960313 61.0711277,76.9234249 61.1638936,76.6822318 C61.2566596,76.4410386 61.3798511,76.2366377 61.532617,76.0690289 C61.6858085,75.9016352 61.8602766,75.7736156 62.0558085,75.684755 C62.251766,75.5961095 62.4549574,75.5513565 62.6658085,75.5513565 C62.8968723,75.5513565 63.1036809,75.5920215 63.2870851,75.6731364 C63.4700638,75.7542513 63.6232553,75.8712978 63.7464468,76.0234152 C63.8692128,76.1757477 63.9630426,76.3584176 64.0287872,76.5718553 C64.0941064,76.7846474 64.1264468,77.0234738 64.1264468,77.2874738 C64.1264468,77.4243149 64.119,77.5385643 64.1041064,77.6300068 L61.6343191,77.6300068 C61.6594255,78.0308479 61.7809149,78.3484225 61.9996383,78.5816548 C62.2177234,78.8153174 62.502617,78.9319335 62.8541064,78.9319335 C63.0298511,78.9319335 63.1915532,78.9054689 63.3398511,78.8521095 C63.4877234,78.7987501 63.6296383,78.7292538 63.7649574,78.6425447 L63.9834681,79.0537134 C63.822617,79.1552685 63.6447447,79.2439139 63.4487872,79.3202954 C63.2530426,79.3964616 63.0298511,79.4345447 62.7787872,79.4345447 C62.5328298,79.4345447 62.3034681,79.3897917 62.0900638,79.3013614 C61.8764468,79.2125007 61.6911277,79.085557 61.532617,78.9205301 C61.3747447,78.7557183 61.2502766,78.5536841 61.1600638,78.315288 C61.0698511,78.0766768 61.0245319,77.8051462 61.0245319,77.5006963 Z" id="Fill-39" fill="#213369" mask="url(#mask-4)"></path>
                    <path d="M65.1200213,78.5053809 C65.2806596,78.6374885 65.4447021,78.7442073 65.6132128,78.8251071 C65.7812979,78.9066523 65.9755532,78.9471022 66.1968298,78.9471022 C66.4374681,78.9471022 66.6181064,78.891376 66.7385319,78.7797086 C66.859383,78.6682562 66.9195957,78.5309848 66.9195957,78.3685399 C66.9195957,78.2721487 66.8942766,78.1882367 66.8442766,78.1170191 C66.7936383,78.0462318 66.7298085,77.9838357 66.6521489,77.9304763 C66.5742766,77.8775472 66.4851277,77.8304274 66.3847021,77.7897623 C66.2842766,77.7493125 66.1840638,77.7086474 66.0836383,77.6679824 C65.953,77.6223687 65.8225745,77.5703002 65.6921489,77.5122073 C65.5615106,77.4536841 65.4447021,77.3824665 65.3419362,77.2987697 C65.2391702,77.2148577 65.1551277,77.1176059 65.0898085,77.0055081 C65.0244894,76.8942709 64.9919362,76.7597966 64.9919362,76.6023002 C64.9919362,76.4549164 65.0208723,76.3165692 65.0785319,76.1872587 C65.1361915,76.0575178 65.2191702,75.9460655 65.3268298,75.8522562 C65.4349149,75.7582318 65.5668298,75.6848626 65.7223617,75.6315032 C65.8781064,75.5781438 66.0536383,75.5514641 66.2491702,75.5514641 C66.480234,75.5514641 66.6921489,75.5921291 66.8855532,75.673244 C67.0787447,75.7543589 67.2455532,75.8535472 67.3859787,75.9701633 L67.0925745,76.3660557 C66.9670426,76.2694494 66.836617,76.1911315 66.7010851,76.1302416 C66.565766,76.0691364 66.4176809,76.0385839 66.2568298,76.0385839 C66.0261915,76.0385839 65.856617,76.0919433 65.7485319,76.1986621 C65.6406596,76.3049506 65.586617,76.4297428 65.586617,76.5719628 C65.586617,76.6580264 65.609383,76.7329017 65.6544894,76.7961584 C65.6998085,76.8598455 65.7600213,76.9155716 65.8353404,76.9637672 C65.9104468,77.012178 65.9972553,77.0552098 66.0949149,77.0935081 C66.1927872,77.131376 66.2944894,77.170535 66.4000213,77.2112 C66.530234,77.2619775 66.6619362,77.3153369 66.7951277,77.3710631 C66.9281064,77.4267892 67.0474681,77.4969311 67.1527872,77.5804127 C67.2583191,77.6643247 67.3449149,77.7667403 67.4125745,77.8889506 C67.4804468,78.0107306 67.5142766,78.1578993 67.5142766,78.3306719 C67.5142766,78.4825741 67.4853404,78.6247941 67.4276809,78.7569017 C67.3695957,78.8887941 67.2844894,79.0054103 67.1715106,79.1071804 C67.0587447,79.2085203 66.9181064,79.2887746 66.7500213,79.3466523 C66.5817234,79.4051756 66.3898085,79.4344372 66.1740638,79.4344372 C65.9132128,79.4344372 65.6647021,79.3862416 65.4287447,79.2898504 C65.1925745,79.193244 64.9868298,79.0716792 64.8110851,78.9240802 L65.1200213,78.5053809 Z" id="Fill-40" fill="#213369" mask="url(#mask-4)"></path>
                    <path d="M68.4629787,78.5053809 C68.623617,78.6374885 68.7876596,78.7442073 68.9561702,78.8251071 C69.1242553,78.9066523 69.3185106,78.9471022 69.5397872,78.9471022 C69.7804255,78.9471022 69.9610638,78.891376 70.0814894,78.7797086 C70.2023404,78.6682562 70.2625532,78.5309848 70.2625532,78.3685399 C70.2625532,78.2721487 70.237234,78.1882367 70.187234,78.1170191 C70.1365957,78.0462318 70.072766,77.9838357 69.9951064,77.9304763 C69.917234,77.8775472 69.8280851,77.8304274 69.7276596,77.7897623 C69.627234,77.7493125 69.5270213,77.7086474 69.4265957,77.6679824 C69.2959574,77.6223687 69.1655319,77.5703002 69.0351064,77.5122073 C68.9044681,77.4536841 68.7876596,77.3824665 68.6848936,77.2987697 C68.5821277,77.2148577 68.4980851,77.1176059 68.432766,77.0055081 C68.3674468,76.8942709 68.3348936,76.7597966 68.3348936,76.6023002 C68.3348936,76.4549164 68.3638298,76.3165692 68.4214894,76.1872587 C68.4791489,76.0575178 68.5621277,75.9460655 68.6697872,75.8522562 C68.7778723,75.7582318 68.9097872,75.6848626 69.0653191,75.6315032 C69.2210638,75.5781438 69.3965957,75.5514641 69.5921277,75.5514641 C69.8231915,75.5514641 70.0351064,75.5921291 70.2285106,75.673244 C70.4217021,75.7543589 70.5885106,75.8535472 70.7289362,75.9701633 L70.4355319,76.3660557 C70.31,76.2694494 70.1795745,76.1911315 70.0440426,76.1302416 C69.9087234,76.0691364 69.7606383,76.0385839 69.5997872,76.0385839 C69.3691489,76.0385839 69.1995745,76.0919433 69.0914894,76.1986621 C68.983617,76.3049506 68.9295745,76.4297428 68.9295745,76.5719628 C68.9295745,76.6580264 68.9523404,76.7329017 68.9974468,76.7961584 C69.042766,76.8598455 69.1029787,76.9155716 69.1782979,76.9637672 C69.2534043,77.012178 69.3402128,77.0552098 69.4378723,77.0935081 C69.5357447,77.131376 69.6374468,77.170535 69.7429787,77.2112 C69.8731915,77.2619775 70.0048936,77.3153369 70.1378723,77.3710631 C70.2710638,77.4267892 70.3904255,77.4969311 70.4957447,77.5804127 C70.6012766,77.6643247 70.6878723,77.7667403 70.7555319,77.8889506 C70.8234043,78.0107306 70.857234,78.1578993 70.857234,78.3306719 C70.857234,78.4825741 70.8282979,78.6247941 70.7706383,78.7569017 C70.7125532,78.8887941 70.6274468,79.0054103 70.5144681,79.1071804 C70.4017021,79.2085203 70.2610638,79.2887746 70.0929787,79.3466523 C69.9246809,79.4051756 69.732766,79.4344372 69.5170213,79.4344372 C69.2561702,79.4344372 69.0076596,79.3862416 68.7717021,79.2898504 C68.5355319,79.193244 68.3297872,79.0716792 68.1540426,78.9240802 L68.4629787,78.5053809 Z" id="Fill-41" fill="#213369" mask="url(#mask-4)"></path>
                    <path d="M18.4411702,85.875822 L18.207766,85.1143746 C18.1175532,84.8350983 18.032234,84.5575433 17.9520213,84.2804186 C17.871383,84.0041545 17.7909574,83.7207902 17.7107447,83.4316166 L17.6807447,83.4316166 C17.6056383,83.7207902 17.527766,84.0041545 17.4473404,84.2804186 C17.3671277,84.5575433 17.2820213,84.8350983 17.191383,85.1143746 L16.957766,85.875822 L18.4411702,85.875822 Z M18.5994681,86.3857487 L16.7998936,86.3857487 L16.3256383,87.9084284 L15.6856383,87.9084284 L17.3569149,82.9139443 L18.0645745,82.9139443 L19.7362766,87.9084284 L19.0662766,87.9084284 L18.5994681,86.3857487 Z" id="Fill-42" fill="#213369" mask="url(#mask-4)"></path>
                    <path d="M20.940766,86.0584059 C20.940766,86.5050758 21.0286383,86.8527726 21.2045957,87.1014963 C21.3801277,87.35022 21.6284255,87.4745819 21.9494894,87.4745819 C22.1201277,87.4745819 22.2811915,87.4328411 22.4314043,87.3489291 C22.5822553,87.2650171 22.7326809,87.1372127 22.8833191,86.9646553 L22.8833191,85.0305917 C22.7275745,84.8885868 22.5782128,84.7881076 22.4354468,84.7297995 C22.2922553,84.6714914 22.1454468,84.6422298 21.9948085,84.6422298 C21.8492766,84.6422298 21.7126809,84.6764401 21.5845957,84.7450758 C21.4565106,84.8137115 21.3445957,84.9098875 21.2494894,85.0342494 C21.1539574,85.1588264 21.0786383,85.3072861 21.0237447,85.4800587 C20.9682128,85.652401 20.940766,85.8453985 20.940766,86.0584059 M20.300766,86.0659364 C20.300766,85.7666504 20.3448085,85.4966259 20.4324681,85.2554328 C20.5203404,85.0140244 20.6369362,84.8096235 20.7828936,84.6422298 C20.9282128,84.474621 21.0962979,84.3453105 21.2869362,84.253868 C21.4777872,84.1624254 21.6786383,84.1168117 21.8894894,84.1168117 C22.1003404,84.1168117 22.2835319,84.1548949 22.4390638,84.2310611 C22.5945957,84.3072274 22.7526809,84.4113643 22.9135319,84.5432567 L22.8833191,83.911335 L22.8833191,82.4876284 L23.5082128,82.4876284 L23.5082128,87.9085575 L22.9962979,87.9085575 L22.9437447,87.4745819 L22.9209787,87.4745819 C22.775234,87.6165868 22.6084255,87.7398729 22.4203404,87.8440098 C22.2320426,87.9475012 22.0299149,88 21.8141702,88 C21.3522553,88 20.9845957,87.8323912 20.7109787,87.4971736 C20.4375745,87.1623863 20.300766,86.6851638 20.300766,86.0659364" id="Fill-43" fill="#213369" mask="url(#mask-4)"></path>
                    <path d="M24.7804043,84.2083403 L25.2925319,84.2083403 L25.3452979,84.7415042 L25.3678511,84.7415042 C25.5284894,84.5637829 25.7027447,84.4153232 25.8910426,84.2956949 C26.0791277,84.1769271 26.2835957,84.1166826 26.5046596,84.1166826 C26.7855106,84.1166826 27.0055106,84.1790787 27.163383,84.3032254 C27.3214681,84.4280176 27.4382766,84.601866 27.5135957,84.8247707 C27.704234,84.6117633 27.8963617,84.4404968 28.0895532,84.3109711 C28.2825319,84.1816606 28.4923191,84.1166826 28.7180638,84.1166826 C29.0944468,84.1166826 29.374234,84.2388929 29.5578511,84.4822377 C29.7408298,84.7260127 29.8323191,85.0866191 29.8323191,85.5634112 L29.8323191,87.9084284 L29.2150851,87.9084284 L29.2150851,85.6471081 C29.2150851,85.2970445 29.159766,85.0446631 29.0491277,84.8897487 C28.9387021,84.7350494 28.7680638,84.6575922 28.5374255,84.6575922 C28.2612553,84.6575922 27.9552979,84.8477927 27.6187021,85.2284088 L27.6187021,87.9084284 L27.0014681,87.9084284 L27.0014681,85.6471081 C27.0014681,85.2970445 26.9461489,85.0446631 26.8361489,84.8897487 C26.7252979,84.7350494 26.5523191,84.6575922 26.3163617,84.6575922 C26.0401915,84.6575922 25.7340213,84.8477927 25.3980638,85.2284088 L25.3980638,87.9084284 L24.7804043,87.9084284 L24.7804043,84.2083403 Z" id="Fill-44" fill="#213369" mask="url(#mask-4)"></path>
                    <path d="M31.21,87.9083423 L31.8276596,87.9083423 L31.8276596,84.2082543 L31.21,84.2082543 L31.21,87.9083423 Z M31.526383,83.4468068 C31.4059574,83.4468068 31.3044681,83.4089389 31.2214894,83.3329878 C31.1387234,83.2568215 31.0974468,83.1602152 31.0974468,83.0431687 C31.0974468,82.9218191 31.1387234,82.8239218 31.2214894,82.7503374 C31.3044681,82.6767531 31.4059574,82.6397457 31.526383,82.6397457 C31.6468085,82.6397457 31.7482979,82.6767531 31.8312766,82.7503374 C31.9142553,82.8239218 31.9555319,82.9218191 31.9555319,83.0431687 C31.9555319,83.1602152 31.9142553,83.2568215 31.8312766,83.3329878 C31.7482979,83.4089389 31.6468085,83.4468068 31.526383,83.4468068 Z" id="Fill-45" fill="#213369" mask="url(#mask-4)"></path>
                    <path d="M33.2503191,84.2083403 L33.7624468,84.2083403 L33.8152128,84.7415042 L33.837766,84.7415042 C34.0132979,84.5637829 34.1979787,84.4153232 34.3911702,84.2956949 C34.5841489,84.1769271 34.8088298,84.1166826 35.0647872,84.1166826 C35.451383,84.1166826 35.7335106,84.2388929 35.9118085,84.4822377 C36.0901064,84.7260127 36.1792553,85.0866191 36.1792553,85.5634112 L36.1792553,87.9084284 L35.5618085,87.9084284 L35.5618085,85.6471081 C35.5618085,85.2970445 35.5064894,85.0446631 35.3960638,84.8897487 C35.2856383,84.7350494 35.1101064,84.6575922 34.8692553,84.6575922 C34.6781915,84.6575922 34.5101064,84.7060029 34.3645745,84.8019638 C34.2192553,84.8987853 34.0532979,85.0407902 33.8679787,85.2284088 L33.8679787,87.9084284 L33.2503191,87.9084284 L33.2503191,84.2083403 Z" id="Fill-46" fill="#213369" mask="url(#mask-4)"></path>
                    <path d="M37.5568085,87.9083423 L38.1744681,87.9083423 L38.1744681,84.2082543 L37.5568085,84.2082543 L37.5568085,87.9083423 Z M37.8731915,83.4468068 C37.752766,83.4468068 37.6512766,83.4089389 37.5682979,83.3329878 C37.4855319,83.2568215 37.4440426,83.1602152 37.4440426,83.0431687 C37.4440426,82.9218191 37.4855319,82.8239218 37.5682979,82.7503374 C37.6512766,82.6767531 37.752766,82.6397457 37.8731915,82.6397457 C37.993617,82.6397457 38.0953191,82.6767531 38.1780851,82.7503374 C38.2610638,82.8239218 38.3023404,82.9218191 38.3023404,83.0431687 C38.3023404,83.1602152 38.2610638,83.2568215 38.1780851,83.3329878 C38.0953191,83.4089389 37.993617,83.4468068 37.8731915,83.4468068 Z" id="Fill-47" fill="#213369" mask="url(#mask-4)"></path>
                    <path d="M39.4994894,87.0709653 C39.6599149,87.2030729 39.8241702,87.3097917 39.9924681,87.3906914 C40.160766,87.4722367 40.3550213,87.5126866 40.5760851,87.5126866 C40.8169362,87.5126866 40.9975745,87.4569604 41.118,87.3452929 C41.2386383,87.2336254 41.2990638,87.096354 41.2990638,86.9341242 C41.2990638,86.837733 41.2735319,86.753821 41.2235319,86.6826034 C41.1731064,86.611601 41.1092766,86.54942 41.031617,86.4960606 C40.9535319,86.4431315 40.8645957,86.3960117 40.7641702,86.3553467 C40.6635319,86.3146817 40.5633191,86.2742318 40.4631064,86.2335667 C40.3324681,86.1879531 40.2018298,86.1358846 40.0714043,86.0775765 C39.940766,86.0192685 39.8241702,85.9480509 39.7211915,85.864354 C39.6184255,85.7804421 39.5345957,85.6829751 39.4692766,85.5708773 C39.4037447,85.4598553 39.3714043,85.3251658 39.3714043,85.1676694 C39.3714043,85.0205007 39.4001277,84.8821535 39.4577872,84.7526279 C39.5154468,84.6231022 39.5984255,84.5116499 39.7062979,84.4176254 C39.814383,84.3238161 39.9460851,84.2504469 40.1018298,84.1970875 C40.2573617,84.1437281 40.4328936,84.1168333 40.6284255,84.1168333 C40.8594894,84.1168333 41.0714043,84.1574983 41.2648085,84.2388284 C41.4582128,84.3199433 41.6250213,84.4191315 41.7654468,84.5357477 L41.4718298,84.9316401 C41.3462979,84.8350337 41.2160851,84.7565007 41.0803404,84.6956108 C40.9450213,84.6347208 40.7969362,84.6041682 40.6360851,84.6041682 C40.4054468,84.6041682 40.2358723,84.6575276 40.128,84.7642465 C40.0201277,84.870535 39.9660851,84.9953271 39.9660851,85.137332 C39.9660851,85.2233956 39.9886383,85.2984861 40.0339574,85.3617428 C40.0790638,85.4254298 40.1392766,85.481156 40.2148085,85.5293516 C40.2897021,85.5777623 40.3767234,85.6207941 40.474383,85.6588773 C40.5722553,85.6969604 40.6737447,85.7361193 40.7792766,85.7767844 C40.9094894,85.8275619 41.0414043,85.8809213 41.174383,85.9366474 C41.3075745,85.9923736 41.4267234,86.0625154 41.5320426,86.1457819 C41.6375745,86.2296939 41.724383,86.3323247 41.7920426,86.4543198 C41.8597021,86.5763149 41.8935319,86.7234836 41.8935319,86.8960411 C41.8935319,87.0481584 41.8648085,87.1903785 41.8069362,87.3224861 C41.7490638,87.4541633 41.6637447,87.5707795 41.550766,87.6727648 C41.4382128,87.7741046 41.2975745,87.8543589 41.1294894,87.9122367 C40.9611915,87.9705447 40.7690638,88.0000215 40.5535319,88.0000215 C40.2924681,88.0000215 40.0439574,87.9516108 39.8082128,87.8552196 C39.5718298,87.7588284 39.3660851,87.6372636 39.1905532,87.4896645 L39.4994894,87.0709653 Z" id="Fill-48" fill="#213369" mask="url(#mask-4)"></path>
                    <path d="M43.0455532,84.7185037 L42.5036383,84.7185037 L42.5036383,84.246445 L43.075766,84.2083619 L43.1510851,83.172802 L43.6704468,83.172802 L43.6704468,84.2083619 L44.6568298,84.2083619 L44.6568298,84.7185037 L43.6704468,84.7185037 L43.6704468,86.774132 C43.6704468,87.0024156 43.7119362,87.1790611 43.7947021,87.3032078 C43.8774681,87.4277848 44.0242766,87.4897506 44.2353404,87.4897506 C44.3004468,87.4897506 44.3706596,87.4798533 44.4459787,87.459198 C44.5212979,87.4391883 44.5891702,87.4161663 44.649383,87.3907775 L44.7698085,87.8628362 C44.669383,87.8981222 44.5598085,87.9301809 44.4421489,87.9579364 C44.3244894,87.9859071 44.2074681,88.0001076 44.0921489,88.0001076 C43.8964043,88.0001076 43.7321489,87.9693399 43.5989574,87.9084499 C43.4659787,87.8475599 43.3581064,87.7636479 43.2751277,87.6573594 C43.1923617,87.5506406 43.1334255,87.4213301 43.0983191,87.2689976 C43.063,87.116665 43.0455532,86.9492714 43.0455532,86.7666015 L43.0455532,84.7185037 Z" id="Fill-49" fill="#213369" mask="url(#mask-4)"></path>
                    <path d="M45.6729362,84.2083403 L46.1850638,84.2083403 L46.2378298,84.8781301 L46.2605957,84.8781301 C46.3857021,84.6448978 46.537617,84.4594308 46.7157021,84.3225897 C46.894,84.1855335 47.0882553,84.1166826 47.2995319,84.1166826 C47.4448511,84.1166826 47.5752766,84.1422866 47.6908085,84.1930641 L47.570383,84.7415042 C47.5101702,84.7212792 47.4546383,84.7060029 47.4050638,84.6956753 C47.3544255,84.6853477 47.2918723,84.680399 47.2165532,84.680399 C47.0608085,84.680399 46.8991064,84.7438709 46.7310213,84.8705995 C46.5625106,84.9975433 46.4157021,85.2185115 46.2905957,85.5328587 L46.2905957,87.9084284 L45.6729362,87.9084284 L45.6729362,84.2083403 Z" id="Fill-50" fill="#213369" mask="url(#mask-4)"></path>
                    <path d="M48.7148085,86.9037222 C48.7148085,87.1167296 48.7762979,87.2690621 48.8992766,87.3605046 C49.0220426,87.451732 49.1741702,87.4973457 49.3548085,87.4973457 C49.5303404,87.4973457 49.6973617,87.4556049 49.855234,87.3719081 C50.0135319,87.2879961 50.1803404,87.1651403 50.3562979,87.0024802 L50.3562979,85.974666 C50.0499149,86.0153311 49.791617,86.0637418 49.580766,86.1192528 C49.3697021,86.1754093 49.2003404,86.2412479 49.0726809,86.317199 C48.944383,86.3933653 48.8526809,86.480935 48.7977872,86.5799081 C48.7422553,86.6788812 48.7148085,86.7871061 48.7148085,86.9037222 M48.1050213,86.9493359 C48.1050213,86.5431159 48.284383,86.2324264 48.6433191,86.016622 C49.0022553,85.8010328 49.5731064,85.6499912 50.3562979,85.5634973 C50.3562979,85.4468812 50.3448085,85.3328469 50.3222553,85.2209643 C50.2994894,85.109512 50.2592766,85.0103237 50.201617,84.924045 C50.1439574,84.8377663 50.0671489,84.7678396 49.9722553,84.7144802 C49.8767234,84.6611208 49.7537447,84.6346562 49.6033191,84.6346562 C49.3873617,84.6346562 49.188,84.6755364 49.0048085,84.7566513 C48.8211915,84.8377663 48.6571489,84.9292088 48.511617,85.0305487 L48.2628936,84.5965731 C48.4337447,84.4849056 48.6420426,84.3773262 48.888,84.2727589 C49.1339574,84.1692675 49.4048085,84.1167687 49.7009787,84.1167687 C50.1477872,84.1167687 50.471617,84.2553311 50.6724681,84.5320254 C50.8731064,84.8087198 50.9735319,85.1779325 50.9735319,85.6396636 L50.9735319,87.9085144 L50.4614043,87.9085144 L50.4086383,87.4667932 L50.3937447,87.4667932 C50.218,87.6143922 50.0286383,87.740045 49.8256596,87.8439667 C49.6220426,87.9476733 49.4075745,88.0001721 49.181617,88.0001721 C48.8703404,88.0001721 48.6131064,87.9085144 48.4097021,87.7256293 C48.2065106,87.5431746 48.1050213,87.2843384 48.1050213,86.9493359" id="Fill-51" fill="#213369" mask="url(#mask-4)"></path>
                    <path d="M52.4338511,84.7185037 L51.8919362,84.7185037 L51.8919362,84.246445 L52.4640638,84.2083619 L52.539383,83.172802 L53.0587447,83.172802 L53.0587447,84.2083619 L54.0451277,84.2083619 L54.0451277,84.7185037 L53.0587447,84.7185037 L53.0587447,86.774132 C53.0587447,87.0024156 53.1004468,87.1790611 53.183,87.3032078 C53.265766,87.4277848 53.4125745,87.4897506 53.6236383,87.4897506 C53.6887447,87.4897506 53.7589574,87.4798533 53.8342766,87.459198 C53.9098085,87.4391883 53.9774681,87.4161663 54.0376809,87.3907775 L54.1581064,87.8628362 C54.0576809,87.8981222 53.9483191,87.9301809 53.8304468,87.9579364 C53.7127872,87.9859071 53.595766,88.0001076 53.4804468,88.0001076 C53.2847021,88.0001076 53.1204468,87.9693399 52.9874681,87.9084499 C52.8542766,87.8475599 52.746617,87.7636479 52.6636383,87.6573594 C52.5806596,87.5506406 52.5217234,87.4213301 52.486617,87.2689976 C52.4512979,87.116665 52.4338511,86.9492714 52.4338511,86.7666015 L52.4338511,84.7185037 Z" id="Fill-52" fill="#213369" mask="url(#mask-4)"></path>
                    <path d="M55.0617021,87.9083423 L55.6791489,87.9083423 L55.6791489,84.2082543 L55.0617021,84.2082543 L55.0617021,87.9083423 Z M55.3778723,83.4468068 C55.2576596,83.4468068 55.1559574,83.4089389 55.0729787,83.3329878 C54.9902128,83.2568215 54.9487234,83.1602152 54.9487234,83.0431687 C54.9487234,82.9218191 54.9902128,82.8239218 55.0729787,82.7503374 C55.1559574,82.6767531 55.2576596,82.6397457 55.3778723,82.6397457 C55.4982979,82.6397457 55.6,82.6767531 55.6829787,82.7503374 C55.7657447,82.8239218 55.8070213,82.9218191 55.8070213,83.0431687 C55.8070213,83.1602152 55.7657447,83.2568215 55.6829787,83.3329878 C55.6,83.4089389 55.4982979,83.4468068 55.3778723,83.4468068 Z" id="Fill-53" fill="#213369" mask="url(#mask-4)"></path>
                    <path d="M57.4708298,86.0659795 C57.4708298,86.2789868 57.4959362,86.4724147 57.5461489,86.6443267 C57.5963617,86.8170993 57.6676383,86.9659892 57.760617,87.0901359 C57.853383,87.2144978 57.9650851,87.310889 58.0959362,87.3793095 C58.2263617,87.4479452 58.3693404,87.4821555 58.5248723,87.4821555 C58.680617,87.4821555 58.8235957,87.4479452 58.9540213,87.3793095 C59.0844468,87.310889 59.1961489,87.2144978 59.2891277,87.0901359 C59.3818936,86.9659892 59.4531702,86.8170993 59.5038085,86.6443267 C59.5540213,86.4724147 59.5787021,86.2789868 59.5787021,86.0659795 C59.5787021,85.8529721 59.5540213,85.6586836 59.5038085,85.4835443 C59.4531702,85.3084049 59.3818936,85.1573633 59.2891277,85.0306347 C59.1961489,84.9039061 59.0844468,84.8060088 58.9540213,84.7373731 C58.8235957,84.6689526 58.680617,84.6347423 58.5248723,84.6347423 C58.3693404,84.6347423 58.2263617,84.6689526 58.0959362,84.7373731 C57.9650851,84.8060088 57.853383,84.9039061 57.760617,85.0306347 C57.6676383,85.1573633 57.5963617,85.3084049 57.5461489,85.4835443 C57.4959362,85.6586836 57.4708298,85.8529721 57.4708298,86.0659795 M56.8308298,86.0659795 C56.8308298,85.7565809 56.8774255,85.4811775 56.9699787,85.2399844 C57.0627447,84.9987912 57.1874255,84.7948205 57.3429574,84.6272117 C57.4982766,84.4593878 57.6778511,84.3328743 57.8814681,84.2463804 C58.0844468,84.1603169 58.2991277,84.1166396 58.5248723,84.1166396 C58.7510426,84.1166396 58.9652979,84.1603169 59.1684894,84.2463804 C59.3721064,84.3328743 59.5512553,84.4593878 59.707,84.6272117 C59.8625319,84.7948205 59.9867872,84.9987912 60.079766,85.2399844 C60.1725319,85.4811775 60.2191277,85.7565809 60.2191277,86.0659795 C60.2191277,86.3704293 60.1725319,86.6436812 60.079766,86.884444 C59.9867872,87.1256372 59.8625319,87.3287472 59.707,87.4937741 C59.5512553,87.6585858 59.3721064,87.7842386 59.1684894,87.8705174 C58.9652979,87.9565809 58.7510426,88.000043 58.5248723,88.000043 C58.2991277,88.000043 58.0844468,87.9565809 57.8814681,87.8705174 C57.6778511,87.7842386 57.4982766,87.6585858 57.3429574,87.4937741 C57.1874255,87.3287472 57.0627447,87.1256372 56.9699787,86.884444 C56.8774255,86.6436812 56.8308298,86.3704293 56.8308298,86.0659795" id="Fill-54" fill="#213369" mask="url(#mask-4)"></path>
                    <path d="M61.22,84.2083403 L61.7321277,84.2083403 L61.7848936,84.7415042 L61.8074468,84.7415042 C61.9831915,84.5637829 62.1674468,84.4153232 62.3608511,84.2956949 C62.5540426,84.1769271 62.7785106,84.1166826 63.0344681,84.1166826 C63.4212766,84.1166826 63.7031915,84.2388929 63.8814894,84.4822377 C64.0597872,84.7260127 64.1489362,85.0866191 64.1489362,85.5634112 L64.1489362,87.9084284 L63.5314894,87.9084284 L63.5314894,85.6471081 C63.5314894,85.2970445 63.4761702,85.0446631 63.3657447,84.8897487 C63.2553191,84.7350494 63.0795745,84.6575922 62.8387234,84.6575922 C62.6478723,84.6575922 62.4797872,84.7060029 62.3342553,84.8019638 C62.1889362,84.8987853 62.0229787,85.0407902 61.8374468,85.2284088 L61.8374468,87.9084284 L61.22,87.9084284 L61.22,84.2083403 Z" id="Fill-55" fill="#213369" mask="url(#mask-4)"></path>
                </g>
            </g>
        </g>
    </g>
</svg>