<?xml version="1.0" encoding="UTF-8"?>
<svg width="119px" height="132px" viewBox="0 0 119 132" version="1.1" xmlns="http://www.w3.org/2000/svg" xmlns:xlink="http://www.w3.org/1999/xlink">
    <!-- Generator: Sketch 49 (51002) - http://www.bohemiancoding.com/sketch -->
    <title>Group</title>
    <desc>Created with Sketch.</desc>
    <defs>
        <polygon id="path-1" points="0.0916595745 0.202737653 22.4112766 0.202737653 22.4112766 28.3426643 0.0916595745 28.3426643"></polygon>
        <polygon id="path-3" points="0 87 79.8580851 87 79.8580851 0.209735941 0 0.209735941"></polygon>
    </defs>
    <g id="Page-1" stroke="none" stroke-width="1" fill="none" fill-rule="evenodd">
        <g id="Tablet" transform="translate(-600.000000, -1016.000000)">
            <g id="Group" transform="translate(600.000000, 1016.000000)">
                <rect id="Rectangle" fill="#002E6D" x="0" y="0" width="119" height="132"></rect>
                <g id="Page-1" transform="translate(20.000000, 23.000000)">
                    <polygon id="Fill-1" fill="#CA2026" points="66.5168539 57.5311741 13.9870291 57.5311741 13.4929761 57.5311741 13.4929761 57.0533509 13.4929761 50.2268041 8.98876404 50.2268041 8.98876404 61.8865979 66.5168539 61.8865979"></polygon>
                    <polygon id="Fill-2" fill="#FEFEFE" points="8.98876404 0 8.98876404 11.6597938 13.4939525 11.6597938 13.4939525 4.83333245 13.4939525 4.35529471 13.9879228 4.35529471 66.0114379 4.35529471 66.5058344 4.35529471 66.5058344 4.83333245 66.5058344 11.6597938 71.011236 11.6597938 71.011236 0"></polygon>
                    <g id="Group-56">
                        <path d="M5.43202128,36.6957491 C5.46925532,38.2617491 6.2243617,41.2386807 11.1647872,41.2386807 C13.8430851,41.2386807 16.8232979,40.5728861 16.8232979,37.594891 C16.8232979,35.4015976 14.7862766,34.8149325 11.9203191,34.1102112 L9.0156383,33.404001 C4.63946809,32.3461746 0.415425532,31.329402 0.415425532,25.1392137 C0.415425532,22.0065756 2.03712766,16.4855853 10.8252128,16.4855853 C19.1232979,16.4855853 21.3488298,22.1237809 21.3875532,25.5705976 L15.9556383,25.5705976 C15.8039362,24.3179252 15.3518085,21.3409936 10.4103191,21.3409936 C8.26010638,21.3409936 5.69648936,22.1644093 5.69648936,24.7093188 C5.69648936,26.9026122 7.43074468,27.3737736 8.56180851,27.6466856 L15.1632979,29.3324435 C18.8598936,30.2724264 22.2545745,31.8375756 22.2545745,36.8886807 C22.2545745,45.3506538 13.9552128,46.0943017 11.5801064,46.0943017 C1.69840426,46.0943017 0.000106382979,40.1808543 0.000106382979,36.6957491 L5.43202128,36.6957491 Z" id="Fill-3" fill="#FEFEFE"></path>
                        <path d="M35.0514681,40.4941606 L42.2599787,40.4941606 C45.120617,40.4941606 46.7663617,39.2410628 46.7663617,36.3806985 C46.7663617,33.915344 44.649766,32.9723831 42.5338085,32.9723831 L35.0514681,32.9723831 L35.0514681,40.4941606 Z M35.0514681,28.2348183 L41.947,28.2348183 C44.2580638,28.2348183 46.1004043,27.334613 46.1004043,25.1011166 C46.1004043,22.7893416 44.4540213,22.0844076 41.789766,22.0844076 L35.0514681,22.0844076 L35.0514681,28.2348183 Z M29.410617,17.2287866 L43.0827447,17.2287866 C49.9780638,17.2287866 51.7404043,21.5377328 51.7404043,24.4359601 C51.7404043,28.4692291 49.4684894,29.6068232 48.2929574,30.1930628 C51.7404043,31.4855127 52.6421064,34.2263318 52.6421064,37.0090555 C52.6421064,39.2410628 51.7016809,41.3558648 50.2138085,42.8055103 C48.6072128,44.3708721 47.0789149,45.3508452 41.3201915,45.3508452 L29.410617,45.3508452 L29.410617,17.2287866 Z" id="Fill-5" fill="#FEFEFE"></path>
                        <g id="Group-9" transform="translate(57.446809, 17.017115)">
                            <mask id="mask-2" fill="white">
                                <use xlink:href="#path-1"></use>
                            </mask>
                            <g id="Clip-8"></g>
                            <polygon id="Fill-7" fill="#FEFEFE" mask="url(#mask-2)" points="13.4884681 0.202737653 9.02612766 0.202737653 0.0916595745 28.3426643 5.73251064 28.3426643 11.206766 9.86782078 16.7705957 28.3426643 22.4114468 28.3426643"></polygon>
                        </g>
                        <polygon id="Fill-10" fill="#FEFEFE" points="70.9018085 57.5612421 66.4296809 62.0843912 66.4296809 45.4293154 70.9018085 45.4293154"></polygon>
                        <path d="M9.0777234,73.5037687 L9.70261702,73.5037687 L9.70261702,76.4166733 C9.70261702,76.7127711 9.73261702,76.961221 9.79282979,77.1618103 C9.85325532,77.3623995 9.93474468,77.5232112 10.0377234,77.6433946 C10.1407021,77.7640034 10.2621915,77.850578 10.4030426,77.9033311 C10.5432553,77.9560841 10.6938936,77.9822479 10.8545319,77.9822479 C11.0202766,77.9822479 11.1732553,77.9560841 11.3138936,77.9033311 C11.4543191,77.850578 11.5772979,77.7640034 11.6828298,77.6433946 C11.7883617,77.5232112 11.8709149,77.3623995 11.9311277,77.1618103 C11.9913404,76.961221 12.0215532,76.7127711 12.0215532,76.4166733 L12.0215532,73.5037687 L12.6238936,73.5037687 L12.6238936,76.4015707 C12.6238936,76.7978567 12.5785745,77.1318176 12.4885745,77.4026024 C12.3979362,77.6736 12.2738936,77.8931208 12.1155957,78.0613775 C11.9577234,78.2294215 11.7707021,78.3500303 11.5547447,78.4227785 C11.3387872,78.4951012 11.105383,78.5319007 10.8545319,78.5319007 C10.6034681,78.5319007 10.369,78.4951012 10.1507021,78.4227785 C9.93219149,78.3500303 9.74410638,78.2294215 9.58580851,78.0613775 C9.42793617,77.8931208 9.30368085,77.6736 9.21325532,77.4026024 C9.12282979,77.1318176 9.0777234,76.7978567 9.0777234,76.4015707 L9.0777234,73.5037687 Z" id="Fill-12" fill="#FEFEFE"></path>
                        <path d="M13.0831915,78.0650787 C13.0831915,77.9195824 13.1270213,77.8030152 13.2148936,77.7151643 C13.302766,77.6273134 13.4091489,77.5830689 13.5346809,77.5830689 C13.6551064,77.5830689 13.7593617,77.6273134 13.847234,77.7151643 C13.9348936,77.8030152 13.9789362,77.9195824 13.9789362,78.0650787 C13.9789362,78.2007902 13.9348936,78.3122523 13.847234,78.4001032 C13.7593617,78.4875286 13.6551064,78.5317731 13.5346809,78.5317731 C13.4091489,78.5317731 13.302766,78.4875286 13.2148936,78.4001032 C13.1270213,78.3122523 13.0831915,78.2007902 13.0831915,78.0650787" id="Fill-14" fill="#FEFEFE"></path>
                        <path d="M15.0480426,77.3650372 C15.2235745,77.5507364 15.4305957,77.7000616 15.6691064,77.8128 C15.9074043,77.9259638 16.1548511,77.9821203 16.4105957,77.9821203 C16.7369787,77.9821203 16.9905957,77.9080958 17.171234,77.7600469 C17.3520851,77.6124235 17.4420851,77.4177902 17.4420851,77.176998 C17.4420851,77.0514968 17.4208085,76.9447144 17.3782553,76.8568636 C17.3354894,76.7692254 17.2778298,76.6939247 17.2052766,76.6313868 C17.1320851,76.5684235 17.0457021,76.5120543 16.9452766,76.4616411 C16.8448511,76.411866 16.7369787,76.359113 16.6216596,76.3038073 L15.914,75.9951594 C15.7982553,75.9449589 15.680383,75.8847609 15.5601702,75.8143526 C15.4395319,75.7443697 15.3314468,75.6590714 15.2363404,75.5584577 C15.1408085,75.4582694 15.0631489,75.3391496 15.0029362,75.2006729 C14.9425106,75.0630469 14.9122979,74.9037242 14.9122979,74.7229174 C14.9122979,74.5374308 14.951234,74.3642817 15.0293191,74.2036826 C15.1069787,74.0432963 15.2148511,73.9039687 15.3531489,73.7856998 C15.4910213,73.6680689 15.6542128,73.5763892 15.8422979,73.5112988 C16.0305957,73.4459956 16.237617,73.4132377 16.4633617,73.4132377 C16.7595319,73.4132377 17.0333617,73.4698196 17.2842128,73.5827707 C17.5350638,73.6957218 17.7484681,73.8422817 17.9242128,74.0228758 L17.5852766,74.4293721 C17.4346383,74.2840885 17.2678298,74.1696484 17.0846383,74.0871154 C16.9014468,74.004157 16.6944255,73.9626778 16.4633617,73.9626778 C16.1871915,73.9626778 15.9654894,74.0269174 15.7974043,74.1545457 C15.6288936,74.2825995 15.5450638,74.4595775 15.5450638,74.6850543 C15.5450638,74.8058758 15.5686809,74.9073403 15.6165532,74.9902988 C15.664,75.0732572 15.7282553,75.1457927 15.8084681,75.2083306 C15.8886809,75.2712939 15.9765532,75.3265995 16.0718723,75.3742474 C16.1671915,75.4218954 16.2652766,75.4657144 16.3654894,75.5059174 L17.0657021,75.8069076 C17.2063404,75.8671056 17.3393191,75.9362377 17.4646383,76.0136655 C17.5901702,76.0919443 17.6984681,76.182135 17.7884681,76.2846631 C17.8788936,76.3878293 17.9505957,76.5082254 18.0031489,76.6460641 C18.0557021,76.7843281 18.0822979,76.9436509 18.0822979,77.124245 C18.0822979,77.3197291 18.0433617,77.5030885 17.9657021,77.6734724 C17.8878298,77.8442817 17.7759149,77.9936068 17.6305957,78.1214479 C17.4846383,78.2495017 17.3091064,78.3501154 17.1033617,78.4228636 C16.897617,78.4949736 16.6642128,78.5317731 16.4031489,78.5317731 C16.056766,78.5317731 15.7357021,78.4662572 15.4395319,78.3358636 C15.1433617,78.2054699 14.8874043,78.0272156 14.6714468,77.8017389 L15.0480426,77.3650372 Z" id="Fill-16" fill="#FEFEFE"></path>
                        <path d="M18.7523404,78.0650787 C18.7523404,77.9195824 18.796383,77.8030152 18.8840426,77.7151643 C18.9719149,77.6273134 19.0782979,77.5830689 19.2038298,77.5830689 C19.3244681,77.5830689 19.4287234,77.6273134 19.516383,77.7151643 C19.6042553,77.8030152 19.6480851,77.9195824 19.6480851,78.0650787 C19.6480851,78.2007902 19.6042553,78.3122523 19.516383,78.4001032 C19.4287234,78.4875286 19.3244681,78.5317731 19.2038298,78.5317731 C19.0782979,78.5317731 18.9719149,78.4875286 18.8840426,78.4001032 C18.796383,78.3122523 18.7523404,78.2007902 18.7523404,78.0650787" id="Fill-18" fill="#FEFEFE"></path>
                        <path d="M22.5769362,77.3650372 C22.7526809,77.5507364 22.9597021,77.7000616 23.1982128,77.8128 C23.4365106,77.9259638 23.6837447,77.9821203 23.9397021,77.9821203 C24.2658723,77.9821203 24.5194894,77.9080958 24.7001277,77.7600469 C24.8809787,77.6124235 24.9709787,77.4177902 24.9709787,77.176998 C24.9709787,77.0514968 24.9497021,76.9447144 24.9071489,76.8568636 C24.8645957,76.7692254 24.8069362,76.6939247 24.7341702,76.6313868 C24.6611915,76.5684235 24.5745957,76.5120543 24.474383,76.4616411 C24.3737447,76.411866 24.2658723,76.359113 24.1505532,76.3038073 L23.4428936,75.9951594 C23.3273617,75.9449589 23.2092766,75.8847609 23.0890638,75.8143526 C22.9684255,75.7443697 22.8603404,75.6590714 22.7654468,75.5584577 C22.6697021,75.4582694 22.5920426,75.3391496 22.5318298,75.2006729 C22.4714043,75.0630469 22.4414043,74.9037242 22.4414043,74.7229174 C22.4414043,74.5374308 22.4803404,74.3642817 22.5584255,74.2036826 C22.6358723,74.0432963 22.7437447,73.9039687 22.8820426,73.7856998 C23.0199149,73.6680689 23.1831064,73.5763892 23.3711915,73.5112988 C23.5597021,73.4459956 23.7667234,73.4132377 23.9924681,73.4132377 C24.2886383,73.4132377 24.5622553,73.4698196 24.8131064,73.5827707 C25.0641702,73.6957218 25.2773617,73.8422817 25.4531064,74.0228758 L25.1141702,74.4293721 C24.9635319,74.2840885 24.7967234,74.1696484 24.6135319,74.0871154 C24.4303404,74.004157 24.2233191,73.9626778 23.9924681,73.9626778 C23.7160851,73.9626778 23.494383,74.0269174 23.3262979,74.1545457 C23.1577872,74.2825995 23.0739574,74.4595775 23.0739574,74.6850543 C23.0739574,74.8058758 23.0975745,74.9073403 23.1454468,74.9902988 C23.1928936,75.0732572 23.2571489,75.1457927 23.3373617,75.2083306 C23.4177872,75.2712939 23.5054468,75.3265995 23.600766,75.3742474 C23.6962979,75.4218954 23.7941702,75.4657144 23.894383,75.5059174 L24.5945957,75.8069076 C24.735234,75.8671056 24.8682128,75.9362377 24.9937447,76.0136655 C25.1192766,76.0919443 25.2273617,76.182135 25.3173617,76.2846631 C25.4077872,76.3878293 25.4797021,76.5082254 25.5320426,76.6460641 C25.5848085,76.7843281 25.6111915,76.9436509 25.6111915,77.124245 C25.6111915,77.3197291 25.5722553,77.5030885 25.4945957,77.6734724 C25.4167234,77.8442817 25.3050213,77.9936068 25.1594894,78.1214479 C25.0137447,78.2495017 24.838,78.3501154 24.6322553,78.4228636 C24.4265106,78.4949736 24.1933191,78.5317731 23.9320426,78.5317731 C23.5858723,78.5317731 23.2645957,78.4662572 22.9684255,78.3358636 C22.6722553,78.2054699 22.4165106,78.0272156 22.2005532,77.8017389 L22.5769362,77.3650372 Z" id="Fill-20" fill="#FEFEFE"></path>
                        <path d="M26.7101702,74.7831792 L27.2222979,74.7831792 L27.2750638,75.3102844 L27.297617,75.3102844 C27.4582553,75.1345826 27.6325106,74.9880227 27.8210213,74.8695411 C28.0088936,74.752123 28.2133617,74.6927758 28.4346383,74.6927758 C28.7152766,74.6927758 28.9352766,74.7542501 29.0931489,74.8771988 C29.2514468,75.0003601 29.3680426,75.172233 29.4433617,75.3928174 C29.6342128,75.1822306 29.8261277,75.0126976 30.0193191,74.8848565 C30.2122979,74.7570154 30.4220851,74.6927758 30.6478298,74.6927758 C31.0242128,74.6927758 31.304,74.8133846 31.487617,75.0539641 C31.6705957,75.2951817 31.7620851,75.6514775 31.7620851,76.1228516 L31.7620851,78.4414335 L31.1448511,78.4414335 L31.1448511,76.2055973 C31.1448511,75.8597244 31.0895319,75.6099983 30.9791064,75.457057 C30.8686809,75.3039029 30.6980426,75.2273259 30.4674043,75.2273259 C30.1910213,75.2273259 29.8850638,75.415365 29.5484681,75.791656 L29.5484681,78.4414335 L28.931234,78.4414335 L28.931234,76.2055973 C28.931234,75.8597244 28.8759149,75.6099983 28.7659149,75.457057 C28.6550638,75.3039029 28.4820851,75.2273259 28.2461277,75.2273259 C27.9699574,75.2273259 27.664,75.415365 27.3278298,75.791656 L27.3278298,78.4414335 L26.7101702,78.4414335 L26.7101702,74.7831792 Z" id="Fill-22" fill="#FEFEFE"></path>
                        <path d="M33.4187447,77.4479105 C33.4187447,77.6584973 33.4804468,77.8090988 33.6032128,77.8995022 C33.7259787,77.9896929 33.8781064,78.035001 34.0585319,78.035001 C34.2342766,78.035001 34.4012979,77.9935218 34.5591702,77.910776 C34.7174681,77.8278176 34.8842766,77.7063579 35.060234,77.5455462 L35.060234,76.5294117 C34.7538511,76.5696147 34.4953404,76.617688 34.2847021,76.6723555 C34.0736383,76.7278738 33.9042766,76.793177 33.776617,76.8680523 C33.6485319,76.9435658 33.556617,77.0299276 33.5017234,77.127776 C33.4461915,77.2258372 33.4187447,77.3326196 33.4187447,77.4479105 M32.8089574,77.4932186 C32.8089574,77.091402 32.9883191,76.784243 33.3472553,76.5711037 C33.7061915,76.3577516 34.2772553,76.2084264 35.060234,76.1229154 C35.060234,76.0076244 35.0487447,75.8948861 35.0261915,75.7842748 C35.0036383,75.674089 34.9632128,75.5762406 34.9055532,75.4907296 C34.8478936,75.4054313 34.7712979,75.3362993 34.6761915,75.2835462 C34.5804468,75.2310059 34.4576809,75.2046293 34.3072553,75.2046293 C34.0912979,75.2046293 33.8919362,75.245045 33.7087447,75.3252381 C33.5251277,75.4054313 33.3610851,75.4958347 33.2155532,75.5962357 L32.9668298,75.166979 C33.1376809,75.0567932 33.3459787,74.9502235 33.5919362,74.8468445 C33.8376809,74.7445291 34.1087447,74.6928396 34.4049149,74.6928396 C34.8517234,74.6928396 35.1755532,74.8296147 35.3764043,75.1033775 C35.5770426,75.3767149 35.6774681,75.741732 35.6774681,76.1982161 L35.6774681,78.4414973 L35.1653404,78.4414973 L35.1125745,78.0047956 L35.0976809,78.0047956 C34.9219362,78.1505046 34.7325745,78.2747296 34.529383,78.3774704 C34.3259787,78.4802112 34.1112979,78.5319007 33.8855532,78.5319007 C33.5742766,78.5319007 33.3170426,78.4414973 33.1136383,78.2604778 C32.9104468,78.0800963 32.8089574,77.8244142 32.8089574,77.4932186" id="Fill-24" fill="#FEFEFE"></path>
                        <path d="M37.0323404,73.0820846 L37.65,73.0820846 L37.65,77.7488156 C37.65,77.8494293 37.667234,77.9196249 37.7023404,77.9596152 C37.7374468,77.9998181 37.7776596,78.0198132 37.8229787,78.0198132 L37.8791489,78.0198132 C37.8970213,78.0198132 37.9231915,78.0149208 37.9585106,78.0049232 L38.0414894,78.4716176 C38.0010638,78.4916127 37.9534043,78.5065027 37.8982979,78.516713 C37.8429787,78.5267105 37.772766,78.5318156 37.687234,78.5318156 C37.4512766,78.5318156 37.2834043,78.4614073 37.1829787,78.3208034 C37.0823404,78.1806249 37.0323404,77.9747178 37.0323404,77.7037203 L37.0323404,73.0820846 Z" id="Fill-26" fill="#FEFEFE"></path>
                        <path d="M39.1403617,73.0820846 L39.7580213,73.0820846 L39.7580213,77.7488156 C39.7580213,77.8494293 39.7752553,77.9196249 39.8103617,77.9596152 C39.8454681,77.9998181 39.8856809,78.0198132 39.931,78.0198132 L39.987383,78.0198132 C40.0050426,78.0198132 40.0312128,78.0149208 40.0667447,78.0049232 L40.1495106,78.4716176 C40.1092979,78.4916127 40.0614255,78.5065027 40.0063191,78.516713 C39.951,78.5267105 39.8807872,78.5318156 39.7952553,78.5318156 C39.5595106,78.5318156 39.3914255,78.4614073 39.291,78.3208034 C39.1905745,78.1806249 39.1403617,77.9747178 39.1403617,77.7037203 L39.1403617,73.0820846 Z" id="Fill-28" fill="#FEFEFE"></path>
                        <path d="M44.5009574,77.9443848 C44.9275532,77.9443848 45.2588298,77.865468 45.4947872,77.7076342 C45.7305319,77.5495878 45.848617,77.3024142 45.848617,76.9659007 C45.848617,76.6602308 45.7332979,76.4353922 45.502234,76.2922357 C45.2711702,76.1495046 44.937766,76.0780328 44.5009574,76.0780328 L43.6426596,76.0780328 L43.6426596,77.9443848 L44.5009574,77.9443848 Z M44.3726596,75.6111257 C44.7994681,75.6111257 45.1045745,75.5383775 45.2875532,75.3928812 C45.4709574,75.2471721 45.5624468,75.0365853 45.5624468,74.7604826 C45.5624468,74.4896978 45.4658511,74.2950645 45.2726596,74.177221 C45.0792553,74.0595902 44.7894681,74.000243 44.4030851,74.000243 L43.6426596,74.000243 L43.6426596,75.6111257 L44.3726596,75.6111257 Z M43.0175532,73.5037687 L44.4858511,73.5037687 C44.7367021,73.5037687 44.9664894,73.5261037 45.175,73.5709863 C45.3830851,73.6162944 45.5611702,73.6867027 45.7094681,73.7822112 C45.8573404,73.8775071 45.9726596,74.001732 46.0556383,74.1546733 C46.1384043,74.3078274 46.1798936,74.4922504 46.1798936,74.7077296 C46.1798936,74.9538396 46.1098936,75.175913 45.9690426,75.3741623 C45.828617,75.5724117 45.6126596,75.7091868 45.3215957,75.7842748 L45.3215957,75.8142675 C45.6830851,75.8695731 45.9641489,75.9950743 46.1645745,76.1907711 C46.3656383,76.3866807 46.4660638,76.654913 46.4660638,76.9961061 C46.4660638,77.2368983 46.4209574,77.4479105 46.3305319,77.6285046 C46.2401064,77.8090988 46.112234,77.9594875 45.9464894,78.0800963 C45.7807447,78.2007051 45.5824468,78.2906831 45.3518085,78.3508812 C45.1207447,78.4112919 44.8673404,78.4414973 44.591383,78.4414973 L43.0175532,78.4414973 L43.0175532,73.5037687 Z" id="Fill-30" fill="#FEFEFE"></path>
                        <path d="M47.3695745,74.7831792 L47.9946809,74.7831792 L47.9946809,77.0188027 C47.9946809,77.365101 48.0482979,77.6148271 48.156383,77.7675557 C48.2642553,77.9209225 48.4385106,77.9970741 48.6797872,77.9970741 C48.8704255,77.9970741 49.0385106,77.9483626 49.1838298,77.8505142 C49.3297872,77.7524531 49.4904255,77.5961083 49.6659574,77.3802037 L49.6659574,74.7831792 L50.2831915,74.7831792 L50.2831915,78.4414335 L49.7714894,78.4414335 L49.7187234,77.8694457 L49.6961702,77.8694457 C49.5255319,78.0698222 49.3457447,78.2308467 49.1576596,78.3508174 C48.9697872,78.4716389 48.7476596,78.5318369 48.4912766,78.5318369 C48.1,78.5318369 47.8151064,78.4114408 47.6368085,78.1706487 C47.4587234,77.9294311 47.3695745,77.5733479 47.3695745,77.1015484 L47.3695745,74.7831792 Z" id="Fill-32" fill="#FEFEFE"></path>
                        <path d="M51.6084681,77.6132743 C51.7691064,77.7438807 51.9331489,77.8493868 52.1016596,77.9293672 C52.2697447,78.0099858 52.464,78.049976 52.6852766,78.049976 C52.9259149,78.049976 53.1065532,77.9948831 53.2269787,77.8844846 C53.3478298,77.7742988 53.4080426,77.6385873 53.4080426,77.4779883 C53.4080426,77.3826924 53.3827234,77.299734 53.3327234,77.2293257 C53.2820851,77.1593428 53.2182553,77.0976557 53.1405957,77.0449027 C53.0627234,76.9925751 52.9735745,76.9459907 52.8731489,76.9057878 C52.7727234,76.8657976 52.6725106,76.8255946 52.5720851,76.7853917 C52.4414468,76.7402963 52.3110213,76.6888196 52.1805957,76.6313868 C52.0497447,76.5735286 51.9331489,76.5031203 51.830383,76.4203746 C51.727617,76.3374161 51.6435745,76.2412694 51.5782553,76.1304455 C51.5129362,76.0204724 51.480383,75.8875262 51.480383,75.7318196 C51.480383,75.5861105 51.5093191,75.4493355 51.5669787,75.3214944 C51.6246383,75.1932279 51.707617,75.0830421 51.8152766,74.9902988 C51.9233617,74.8973428 52.0552766,74.8248073 52.2108085,74.7720543 C52.3665532,74.7193012 52.5420851,74.6929247 52.737617,74.6929247 C52.9686809,74.6929247 53.1805957,74.7331276 53.374,74.8133208 C53.5671915,74.8935139 53.734,74.9915751 53.8744255,75.106866 L53.5810213,75.4982597 C53.4554894,75.4027511 53.3250638,75.3253232 53.1895319,75.2651252 C53.0542128,75.2047144 52.9061277,75.174509 52.7452766,75.174509 C52.5144255,75.174509 52.3450638,75.2272621 52.2369787,75.3327682 C52.1291064,75.4378489 52.0750638,75.561223 52.0750638,75.7018269 C52.0750638,75.7869125 52.0978298,75.8609369 52.1429362,75.9234748 C52.1882553,75.9864381 52.2484681,76.0415311 52.3237872,76.089179 C52.3988936,76.1370396 52.4857021,76.1795824 52.5833617,76.2174455 C52.681234,76.2548831 52.7829362,76.2935971 52.8884681,76.3338 C53.0186809,76.3840005 53.150383,76.4367535 53.2833617,76.4918465 C53.4165532,76.5469394 53.5359149,76.6162841 53.641234,76.6988171 C53.746766,76.7817756 53.8331489,76.8830274 53.9010213,77.0038489 C53.9688936,77.124245 54.0027234,77.2697413 54.0027234,77.4405506 C54.0027234,77.5907267 53.9737872,77.7313306 53.9161277,77.8619369 C53.8580426,77.9923306 53.7729362,78.1076215 53.6599574,78.2082352 C53.5471915,78.3084235 53.4065532,78.3877658 53.2384681,78.4449858 C53.0701702,78.502844 52.8782553,78.5317731 52.6625106,78.5317731 C52.4014468,78.5317731 52.1531489,78.4841252 51.9171915,78.3888293 C51.6810213,78.2933208 51.4752766,78.1731374 51.2995319,78.0272156 L51.6084681,77.6132743 Z" id="Fill-34" fill="#FEFEFE"></path>
                        <mask id="mask-4" fill="white">
                            <use xlink:href="#path-3"></use>
                        </mask>
                        <g id="Clip-37"></g>
                        <path d="M55.0489362,78.4414548 L55.666383,78.4414548 L55.666383,74.7832005 L55.0489362,74.7832005 L55.0489362,78.4414548 Z M55.3648936,74.0304059 C55.2448936,74.0304059 55.1431915,73.9927555 55.0602128,73.9178802 C54.9774468,73.8423667 54.9359574,73.7470709 54.9359574,73.6315672 C54.9359574,73.5111711 54.9774468,73.414599 55.0602128,73.3418509 C55.1431915,73.2693154 55.2448936,73.2325159 55.3648936,73.2325159 C55.4855319,73.2325159 55.587234,73.2693154 55.67,73.3418509 C55.752766,73.414599 55.7942553,73.5111711 55.7942553,73.6315672 C55.7942553,73.7470709 55.752766,73.8423667 55.67,73.9178802 C55.587234,73.9927555 55.4855319,74.0304059 55.3648936,74.0304059 Z" id="Fill-36" fill="#FEFEFE" mask="url(#mask-4)"></path>
                        <path d="M57.0894894,74.7831792 L57.6014043,74.7831792 L57.6541702,75.3102844 L57.6769362,75.3102844 C57.8524681,75.1345826 58.0369362,74.9880227 58.2301277,74.8695411 C58.4233191,74.752123 58.648,74.6927758 58.9037447,74.6927758 C59.2905532,74.6927758 59.5726809,74.8133846 59.7509787,75.0539641 C59.9290638,75.2951817 60.0182128,75.6514775 60.0182128,76.1228516 L60.0182128,78.4414335 L59.400766,78.4414335 L59.400766,76.2055973 C59.400766,75.8597244 59.3456596,75.6099983 59.235234,75.457057 C59.1245957,75.3039029 58.9490638,75.2273259 58.7082128,75.2273259 C58.5173617,75.2273259 58.3492766,75.2751866 58.2037447,75.3702697 C58.0582128,75.4657782 57.8924681,75.6063822 57.7069362,75.791656 L57.7069362,78.4414335 L57.0894894,78.4414335 L57.0894894,74.7831792 Z" id="Fill-38" fill="#FEFEFE" mask="url(#mask-4)"></path>
                        <path d="M63.6848085,76.3413513 C63.6848085,75.9648477 63.6058723,75.6776839 63.4477872,75.4794345 C63.2899149,75.2813978 63.0675745,75.1822731 62.7811915,75.1822731 C62.6509787,75.1822731 62.5267234,75.2084369 62.4086383,75.26119 C62.290766,75.313943 62.1839574,75.3890311 62.0886383,75.4870922 C61.9933191,75.5847279 61.914383,75.7053367 61.8518298,75.8484932 C61.7888511,75.9912242 61.7473617,76.1556521 61.7271489,76.3413513 L63.6848085,76.3413513 Z M61.1250213,76.6200066 C61.1250213,76.3188037 61.1714043,76.0492951 61.2641702,75.8108428 C61.3571489,75.5723905 61.4801277,75.3703122 61.6331064,75.2046081 C61.7860851,75.0391166 61.960766,74.9125518 62.1562979,74.824701 C62.3522553,74.7370628 62.5554468,74.6928183 62.7662979,74.6928183 C62.9971489,74.6928183 63.2041702,74.7330213 63.3873617,74.8132144 C63.5705532,74.8934076 63.7235319,75.009124 63.8467234,75.1595127 C63.9697021,75.3101142 64.0635319,75.4907083 64.1292766,75.7017205 C64.194383,75.9120946 64.2267234,76.1482071 64.2267234,76.4092071 C64.2267234,76.5444932 64.2192766,76.6574443 64.204383,76.7478477 L61.7348085,76.7478477 C61.7599149,77.1441337 61.8814043,77.4580995 62.1001277,77.6886814 C62.3182128,77.9196888 62.6028936,78.0349797 62.954383,78.0349797 C63.1303404,78.0349797 63.2920426,78.0088159 63.4401277,77.9560628 C63.5882128,77.9033098 63.7301277,77.8346032 63.8654468,77.7488795 L64.0839574,78.1553758 C63.9231064,78.2557768 63.7450213,78.3434149 63.5490638,78.4189284 C63.3535319,78.4942291 63.1303404,78.5318795 62.8792766,78.5318795 C62.6331064,78.5318795 62.4037447,78.487635 62.1905532,78.4002095 C61.9769362,78.3123587 61.7914043,78.1868575 61.6331064,78.0237059 C61.475234,77.860767 61.350766,77.6610286 61.2605532,77.4253416 C61.1703404,77.1894418 61.1250213,76.9209968 61.1250213,76.6200066 Z" id="Fill-39" fill="#FEFEFE" mask="url(#mask-4)"></path>
                        <path d="M65.2205106,77.6132743 C65.3811489,77.7438807 65.5451915,77.8493868 65.7134894,77.9293672 C65.8815745,78.0099858 66.0760426,78.049976 66.2973191,78.049976 C66.5379574,78.049976 66.7185957,77.9948831 66.8390213,77.8844846 C66.9596596,77.7742988 67.0198723,77.6385873 67.0198723,77.4779883 C67.0198723,77.3826924 66.994766,77.299734 66.944766,77.2293257 C66.8941277,77.1593428 66.8300851,77.0976557 66.7526383,77.0449027 C66.6745532,76.9925751 66.5854043,76.9459907 66.4851915,76.9057878 C66.384766,76.8657976 66.2843404,76.8255946 66.1841277,76.7853917 C66.0534894,76.7402963 65.9230638,76.6888196 65.7924255,76.6313868 C65.6617872,76.5735286 65.5451915,76.5031203 65.4424255,76.4203746 C65.3396596,76.3374161 65.255617,76.2412694 65.1902979,76.1304455 C65.1249787,76.0204724 65.0924255,75.8875262 65.0924255,75.7318196 C65.0924255,75.5861105 65.1211489,75.4493355 65.1790213,75.3214944 C65.2364681,75.1932279 65.3194468,75.0830421 65.4273191,74.9902988 C65.5354043,74.8973428 65.6671064,74.8248073 65.8226383,74.7720543 C65.978383,74.7193012 66.1541277,74.6929247 66.3496596,74.6929247 C66.5807234,74.6929247 66.7926383,74.7331276 66.9858298,74.8133208 C67.179234,74.8935139 67.3458298,74.9915751 67.4864681,75.106866 L67.1930638,75.4982597 C67.0675319,75.4027511 66.9368936,75.3253232 66.8015745,75.2651252 C66.6660426,75.2047144 66.5181702,75.174509 66.3571064,75.174509 C66.1264681,75.174509 65.9571064,75.2272621 65.8490213,75.3327682 C65.7411489,75.4378489 65.6871064,75.561223 65.6871064,75.7018269 C65.6871064,75.7869125 65.7096596,75.8609369 65.7549787,75.9234748 C65.8002979,75.9864381 65.8605106,76.0415311 65.935617,76.089179 C66.0109362,76.1370396 66.0975319,76.1795824 66.1951915,76.2174455 C66.2932766,76.2548831 66.3949787,76.2935971 66.5002979,76.3338 C66.6307234,76.3840005 66.7624255,76.4367535 66.8954043,76.4918465 C67.028383,76.5469394 67.1477447,76.6162841 67.2532766,76.6988171 C67.3588085,76.7817756 67.4451915,76.8830274 67.5130638,77.0038489 C67.5809362,77.124245 67.6145532,77.2697413 67.6145532,77.4405506 C67.6145532,77.5907267 67.5858298,77.7313306 67.5281702,77.8619369 C67.4700851,77.9923306 67.3849787,78.1076215 67.272,78.2082352 C67.159234,78.3084235 67.0185957,78.3877658 66.8505106,78.4449858 C66.6822128,78.502844 66.4902979,78.5317731 66.2745532,78.5317731 C66.0134894,78.5317731 65.7651915,78.4841252 65.529234,78.3888293 C65.2930638,78.2933208 65.0871064,78.1731374 64.9115745,78.0272156 L65.2205106,77.6132743 Z" id="Fill-40" fill="#FEFEFE" mask="url(#mask-4)"></path>
                        <path d="M68.5634681,77.6132743 C68.7241064,77.7438807 68.8881489,77.8493868 69.0564468,77.9293672 C69.2245319,78.0099858 69.419,78.049976 69.6402766,78.049976 C69.8809149,78.049976 70.0615532,77.9948831 70.1819787,77.8844846 C70.302617,77.7742988 70.3628298,77.6385873 70.3628298,77.4779883 C70.3628298,77.3826924 70.3377234,77.299734 70.2877234,77.2293257 C70.2370851,77.1593428 70.1730426,77.0976557 70.0955957,77.0449027 C70.0175106,76.9925751 69.9283617,76.9459907 69.8281489,76.9057878 C69.7277234,76.8657976 69.6272979,76.8255946 69.5270851,76.7853917 C69.3964468,76.7402963 69.2660213,76.6888196 69.135383,76.6313868 C69.0047447,76.5735286 68.8881489,76.5031203 68.785383,76.4203746 C68.682617,76.3374161 68.5985745,76.2412694 68.5332553,76.1304455 C68.4679362,76.0204724 68.435383,75.8875262 68.435383,75.7318196 C68.435383,75.5861105 68.4641064,75.4493355 68.5219787,75.3214944 C68.5794255,75.1932279 68.6624043,75.0830421 68.7702766,74.9902988 C68.8783617,74.8973428 69.0100638,74.8248073 69.1655957,74.7720543 C69.3213404,74.7193012 69.4970851,74.6929247 69.692617,74.6929247 C69.9236809,74.6929247 70.1355957,74.7331276 70.3287872,74.8133208 C70.5221915,74.8935139 70.6887872,74.9915751 70.8294255,75.106866 L70.5360213,75.4982597 C70.4104894,75.4027511 70.2798511,75.3253232 70.1445319,75.2651252 C70.009,75.2047144 69.8611277,75.174509 69.7000638,75.174509 C69.4694255,75.174509 69.3000638,75.2272621 69.1919787,75.3327682 C69.0841064,75.4378489 69.0300638,75.561223 69.0300638,75.7018269 C69.0300638,75.7869125 69.052617,75.8609369 69.0979362,75.9234748 C69.1432553,75.9864381 69.2034681,76.0415311 69.2785745,76.089179 C69.3538936,76.1370396 69.4404894,76.1795824 69.5381489,76.2174455 C69.636234,76.2548831 69.7379362,76.2935971 69.8432553,76.3338 C69.9736809,76.3840005 70.105383,76.4367535 70.2383617,76.4918465 C70.3713404,76.5469394 70.4907021,76.6162841 70.596234,76.6988171 C70.701766,76.7817756 70.7881489,76.8830274 70.8560213,77.0038489 C70.9238936,77.124245 70.9575106,77.2697413 70.9575106,77.4405506 C70.9575106,77.5907267 70.9287872,77.7313306 70.8711277,77.8619369 C70.8130426,77.9923306 70.7279362,78.1076215 70.6149574,78.2082352 C70.5021915,78.3084235 70.3615532,78.3877658 70.1934681,78.4449858 C70.0251702,78.502844 69.8332553,78.5317731 69.6175106,78.5317731 C69.3564468,78.5317731 69.1081489,78.4841252 68.8721915,78.3888293 C68.6360213,78.2933208 68.4300638,78.1731374 68.2545319,78.0272156 L68.5634681,77.6132743 Z" id="Fill-41" fill="#FEFEFE" mask="url(#mask-4)"></path>
                        <path d="M18.5415532,84.8999604 L18.3081489,84.1471658 C18.2179362,83.8710631 18.132617,83.5966621 18.0524043,83.3226866 C17.971766,83.0495619 17.8915532,82.7694176 17.8111277,82.4835301 L17.7811277,82.4835301 C17.7060213,82.7694176 17.6281489,83.0495619 17.5479362,83.3226866 C17.4675106,83.5966621 17.3824043,83.8710631 17.291766,84.1471658 L17.0583617,84.8999604 L18.5415532,84.8999604 Z M18.6998511,85.4040924 L16.9004894,85.4040924 L16.4260213,86.9094689 L15.7860213,86.9094689 L17.4572979,81.9717403 L18.1649574,81.9717403 L19.8366596,86.9094689 L19.1666596,86.9094689 L18.6998511,85.4040924 Z" id="Fill-42" fill="#FEFEFE" mask="url(#mask-4)"></path>
                        <path d="M21.0411277,85.0804694 C21.0411277,85.5220636 21.129,85.8658093 21.3049574,86.1117066 C21.4804894,86.3576039 21.7287872,86.4805526 22.0500638,86.4805526 C22.2207021,86.4805526 22.3815532,86.4392861 22.5319787,86.3563276 C22.682617,86.2733692 22.8330426,86.1470171 22.9836809,85.9764205 L22.9836809,84.064335 C22.8281489,83.9239438 22.6787872,83.8246064 22.5358085,83.7669609 C22.392617,83.7093154 22.2460213,83.6803863 22.0951702,83.6803863 C21.9498511,83.6803863 21.8130426,83.7142078 21.6849574,83.7820636 C21.5568723,83.8499193 21.4451702,83.9450024 21.3498511,84.0679511 C21.2543191,84.1911125 21.179,84.3378851 21.1241064,84.5086944 C21.0685745,84.6790782 21.0411277,84.8698826 21.0411277,85.0804694 M20.4013404,85.0879144 C20.4013404,84.7920293 20.4451702,84.5250733 20.5330426,84.286621 C20.6207021,84.047956 20.7375106,83.8458778 20.8832553,83.6803863 C21.0285745,83.5146822 21.1966596,83.3868411 21.3875106,83.2964377 C21.5781489,83.2060342 21.779,83.1609389 21.9898511,83.1609389 C22.2007021,83.1609389 22.3838936,83.1985892 22.5394255,83.27389 C22.6949574,83.3491907 22.8530426,83.4521443 23.0138936,83.5825379 L22.9836809,82.9577971 L22.9836809,81.5502689 L23.6085745,81.5502689 L23.6085745,86.9095966 L23.0968723,86.9095966 L23.0441064,86.4805526 L23.0213404,86.4805526 C22.8755957,86.6209438 22.7087872,86.7428289 22.5209149,86.8457824 C22.3324043,86.9480978 22.1302766,87 21.9145319,87 C21.452617,87 21.0851702,86.8342958 20.8113404,86.5028875 C20.5379362,86.1719046 20.4013404,85.7001051 20.4013404,85.0879144" id="Fill-43" fill="#FEFEFE" mask="url(#mask-4)"></path>
                        <path d="M24.8807872,83.2514274 L25.3929149,83.2514274 L25.4456809,83.7785325 L25.468234,83.7785325 C25.6288723,83.6028308 25.8031277,83.4560582 25.9914255,83.3377892 C26.1795106,83.2203711 26.3839787,83.1608112 26.6050426,83.1608112 C26.8858936,83.1608112 27.1058936,83.2224983 27.263766,83.3452342 C27.4220638,83.4686083 27.5386596,83.6404812 27.6139787,83.8608528 C27.804617,83.650266 27.9967447,83.4809457 28.1899362,83.3528919 C28.3829149,83.2250509 28.5927021,83.1608112 28.8184468,83.1608112 C29.1948298,83.1608112 29.474617,83.2816328 29.658234,83.5222122 C29.8412128,83.7632171 29.9327021,84.1197257 29.9327021,84.5910998 L29.9327021,86.9094689 L29.3154681,86.9094689 L29.3154681,84.6738455 C29.3154681,84.3277599 29.2601489,84.0782465 29.1497234,83.9250924 C29.0392979,83.7721511 28.8686596,83.6955741 28.6378085,83.6955741 C28.3616383,83.6955741 28.0556809,83.8836132 27.7190851,84.2599042 L27.7190851,86.9094689 L27.1018511,86.9094689 L27.1018511,84.6738455 C27.1018511,84.3277599 27.0465319,84.0782465 26.9365319,83.9250924 C26.8256809,83.7721511 26.6527021,83.6955741 26.4167447,83.6955741 C26.1405745,83.6955741 25.834617,83.8836132 25.4984468,84.2599042 L25.4984468,86.9094689 L24.8807872,86.9094689 L24.8807872,83.2514274 Z" id="Fill-44" fill="#FEFEFE" mask="url(#mask-4)"></path>
                        <path d="M31.3104255,86.9093839 L31.9280851,86.9093839 L31.9280851,83.2513423 L31.3104255,83.2513423 L31.3104255,86.9093839 Z M31.6265957,82.4985477 C31.506383,82.4985477 31.4048936,82.46111 31.3219149,82.386022 C31.2389362,82.3107213 31.1978723,82.2152127 31.1978723,82.0994963 C31.1978723,81.9795257 31.2389362,81.8827408 31.3219149,81.8099927 C31.4048936,81.7372445 31.506383,81.7006577 31.6265957,81.7006577 C31.747234,81.7006577 31.8487234,81.7372445 31.9317021,81.8099927 C32.0146809,81.8827408 32.0559574,81.9795257 32.0559574,82.0994963 C32.0559574,82.2152127 32.0146809,82.3107213 31.9317021,82.386022 C31.8487234,82.46111 31.747234,82.4985477 31.6265957,82.4985477 Z" id="Fill-45" fill="#FEFEFE" mask="url(#mask-4)"></path>
                        <path d="M33.3507021,83.2514274 L33.8628298,83.2514274 L33.9155957,83.7785325 L33.9381489,83.7785325 C34.1136809,83.6028308 34.2983617,83.4560582 34.4915532,83.3377892 C34.6845319,83.2203711 34.9094255,83.1608112 35.1651702,83.1608112 C35.551766,83.1608112 35.8338936,83.2816328 36.0121915,83.5222122 C36.1904894,83.7632171 36.2796383,84.1197257 36.2796383,84.5910998 L36.2796383,86.9094689 L35.6621915,86.9094689 L35.6621915,84.6738455 C35.6621915,84.3277599 35.6068723,84.0782465 35.4964468,83.9250924 C35.3860213,83.7721511 35.2104894,83.6955741 34.9696383,83.6955741 C34.7785745,83.6955741 34.6104894,83.7434347 34.4649574,83.8383051 C34.3196383,83.9340264 34.1536809,84.0744176 33.9683617,84.2599042 L33.9683617,86.9094689 L33.3507021,86.9094689 L33.3507021,83.2514274 Z" id="Fill-46" fill="#FEFEFE" mask="url(#mask-4)"></path>
                        <path d="M37.6574468,86.9093839 L38.2748936,86.9093839 L38.2748936,83.2513423 L37.6574468,83.2513423 L37.6574468,86.9093839 Z M37.9734043,82.4985477 C37.8531915,82.4985477 37.7517021,82.46111 37.6687234,82.386022 C37.5859574,82.3107213 37.5446809,82.2152127 37.5446809,82.0994963 C37.5446809,81.9795257 37.5859574,81.8827408 37.6687234,81.8099927 C37.7517021,81.7372445 37.8531915,81.7006577 37.9734043,81.7006577 C38.0940426,81.7006577 38.1955319,81.7372445 38.2785106,81.8099927 C38.3614894,81.8827408 38.4025532,81.9795257 38.4025532,82.0994963 C38.4025532,82.2152127 38.3614894,82.3107213 38.2785106,82.386022 C38.1955319,82.46111 38.0940426,82.4985477 37.9734043,82.4985477 Z" id="Fill-47" fill="#FEFEFE" mask="url(#mask-4)"></path>
                        <path d="M39.5998723,86.0815225 C39.7605106,86.2121289 39.9245532,86.317635 40.0930638,86.3976154 C40.2609362,86.478234 40.4554043,86.5182242 40.6766809,86.5182242 C40.9173191,86.5182242 41.0979574,86.4631313 41.218383,86.3527328 C41.3390213,86.2423342 41.399234,86.1066227 41.399234,85.9462364 C41.399234,85.8509406 41.3741277,85.7679822 41.3241277,85.6975738 C41.2734894,85.6273782 41.2094468,85.5659039 41.132,85.5131509 C41.0539149,85.4608232 40.964766,85.4142389 40.8645532,85.3740359 C40.7641277,85.333833 40.6637021,85.2938428 40.5634894,85.2536399 C40.4328511,85.2085445 40.3024255,85.1570677 40.172,85.0994222 C40.0411489,85.0417768 39.9245532,84.9713685 39.8215745,84.8886227 C39.7188085,84.8056643 39.6349787,84.7093049 39.5696596,84.5984809 C39.5041277,84.4887205 39.4717872,84.3555616 39.4717872,84.199855 C39.4717872,84.0543587 39.5007234,83.9175836 39.558383,83.7895298 C39.6160426,83.661476 39.6988085,83.5512902 39.8066809,83.4583342 C39.914766,83.365591 40.0464681,83.2930555 40.202,83.2403024 C40.3577447,83.1875494 40.5334894,83.1609601 40.7290213,83.1609601 C40.9600851,83.1609601 41.172,83.2011631 41.3651915,83.2815689 C41.5585957,83.3617621 41.7251915,83.4598232 41.8658298,83.5751142 L41.5724255,83.9665078 C41.4468936,83.8709993 41.3162553,83.7933587 41.1809362,83.7331606 C41.0454043,83.6729626 40.8975319,83.6427572 40.7364681,83.6427572 C40.5058298,83.6427572 40.3364681,83.6955103 40.228383,83.8010164 C40.1205106,83.9060971 40.0664681,84.0294711 40.0664681,84.1698623 C40.0664681,84.2549479 40.0890213,84.3291851 40.1343404,84.391723 C40.1796596,84.4546863 40.2398723,84.5097792 40.3149787,84.5574271 C40.3902979,84.6052878 40.4768936,84.6478306 40.5745532,84.6854809 C40.6726383,84.7231313 40.7743404,84.7618452 40.8796596,84.8020482 C41.0100851,84.8522487 41.1417872,84.9050017 41.274766,84.9600946 C41.4077447,85.0151875 41.5271064,85.0845323 41.6326383,85.1668526 C41.7381702,85.249811 41.8245532,85.3512756 41.8924255,85.4718844 C41.9602979,85.5924932 41.9939149,85.7379895 41.9939149,85.9085861 C41.9939149,86.0589748 41.9651915,86.1995787 41.9075319,86.3301851 C41.8494468,86.460366 41.7643404,86.575657 41.6513617,86.6764834 C41.5385957,86.7766716 41.3979574,86.8560139 41.2298723,86.913234 C41.0615745,86.9708795 40.8696596,87.0000213 40.6539149,87.0000213 C40.3928511,87.0000213 40.1445532,86.9521606 39.9085957,86.8568648 C39.6722128,86.7615689 39.4666809,86.6413856 39.2909362,86.4954638 L39.5998723,86.0815225 Z" id="Fill-48" fill="#FEFEFE" mask="url(#mask-4)"></path>
                        <path d="M43.1460426,83.7557934 L42.6041277,83.7557934 L42.6041277,83.289099 L43.1762553,83.2514487 L43.2515745,82.2276565 L43.7709362,82.2276565 L43.7709362,83.2514487 L44.7573191,83.2514487 L44.7573191,83.7557934 L43.7709362,83.7557934 L43.7709362,85.7880623 C43.7709362,86.0137518 43.8124255,86.18839 43.8951915,86.3111259 C43.9777447,86.4342873 44.124766,86.4955489 44.335617,86.4955489 C44.4007234,86.4955489 44.4711489,86.4857641 44.5462553,86.4653435 C44.6217872,86.4455611 44.6894468,86.4228007 44.7498723,86.3977005 L44.8700851,86.8643949 C44.7698723,86.89928 44.6602979,86.9309743 44.5426383,86.9584144 C44.424766,86.9860672 44.3077447,87.0001064 44.1924255,87.0001064 C43.9968936,87.0001064 43.8324255,86.9696883 43.6994468,86.9094902 C43.5664681,86.8492922 43.4585957,86.7663337 43.375617,86.6612531 C43.2926383,86.5557469 43.2337021,86.4279059 43.1988085,86.2773044 C43.1632766,86.1267029 43.1460426,85.9612115 43.1460426,85.7806174 L43.1460426,83.7557934 Z" id="Fill-49" fill="#FEFEFE" mask="url(#mask-4)"></path>
                        <path d="M45.7734043,83.2514274 L46.2855319,83.2514274 L46.3380851,83.9136059 L46.3608511,83.9136059 C46.4861702,83.683024 46.6378723,83.4996645 46.8161702,83.3643785 C46.9944681,83.2288797 47.1887234,83.1608112 47.4,83.1608112 C47.5453191,83.1608112 47.6755319,83.1861242 47.7912766,83.2363247 L47.6708511,83.7785325 C47.6104255,83.7585374 47.5551064,83.7434347 47.5053191,83.7332244 C47.4546809,83.7230142 47.3921277,83.7181218 47.3170213,83.7181218 C47.1612766,83.7181218 46.9995745,83.7808724 46.8314894,83.9061609 C46.6629787,84.0316621 46.5161702,84.2501193 46.3908511,84.5608944 L46.3908511,86.9094689 L45.7734043,86.9094689 L45.7734043,83.2514274 Z" id="Fill-50" fill="#FEFEFE" mask="url(#mask-4)"></path>
                        <path d="M48.8152979,85.91618 C48.8152979,86.1267667 48.8767872,86.2773682 48.9995532,86.3677716 C49.1225319,86.4579623 49.2744468,86.5030577 49.4550851,86.5030577 C49.6308298,86.5030577 49.7978511,86.4617912 49.9557234,86.3790455 C50.1140213,86.296087 50.2808298,86.1746274 50.4567872,86.0138156 L50.4567872,84.9976812 C50.1501915,85.0378841 49.8918936,85.0857447 49.6810426,85.1406249 C49.4701915,85.1961433 49.3008298,85.2612337 49.1731702,85.3363218 C49.0448723,85.4116225 48.9531702,85.4981971 48.8982766,85.5960455 C48.8427447,85.6938939 48.8152979,85.800889 48.8152979,85.91618 M48.2055106,85.9612753 C48.2055106,85.5596714 48.3848723,85.2525125 48.7438085,85.0391604 C49.1027447,84.826021 49.6735957,84.6766958 50.4567872,84.5911848 C50.4567872,84.4758939 50.4452979,84.3631555 50.4227447,84.2525443 C50.3999787,84.1423584 50.359766,84.0442973 50.3021064,83.958999 C50.2444468,83.8737007 50.1676383,83.8045687 50.0727447,83.7518156 C49.977,83.6990626 49.854234,83.6728988 49.7038085,83.6728988 C49.4878511,83.6728988 49.2884894,83.7133144 49.1050851,83.7935076 C48.9216809,83.8737007 48.7576383,83.9641042 48.6121064,84.0642924 L48.363383,83.6352484 C48.534234,83.5248499 48.7425319,83.4184929 48.9884894,83.3151139 C49.234234,83.2127985 49.5052979,83.1608963 49.8014681,83.1608963 C50.2482766,83.1608963 50.5721064,83.2978841 50.7729574,83.5714342 C50.9735957,83.8449844 51.0740213,84.2100015 51.0740213,84.6664856 L51.0740213,86.909554 L50.5618936,86.909554 L50.5091277,86.4728523 L50.494234,86.4728523 C50.3182766,86.6187741 50.1291277,86.742999 49.9259362,86.8457399 C49.7225319,86.948268 49.5078511,87.0001702 49.2821064,87.0001702 C48.9708298,87.0001702 48.7135957,86.909554 48.5101915,86.7287472 C48.307,86.5483658 48.2055106,86.2924709 48.2055106,85.9612753" id="Fill-51" fill="#FEFEFE" mask="url(#mask-4)"></path>
                        <path d="M52.5343404,83.7557934 L51.9924255,83.7557934 L51.9924255,83.289099 L52.5645532,83.2514487 L52.6398723,82.2276565 L53.159234,82.2276565 L53.159234,83.2514487 L54.145617,83.2514487 L54.145617,83.7557934 L53.159234,83.7557934 L53.159234,85.7880623 C53.159234,86.0137518 53.2007234,86.18839 53.2834894,86.3111259 C53.3662553,86.4342873 53.5130638,86.4955489 53.7241277,86.4955489 C53.7890213,86.4955489 53.8594468,86.4857641 53.934766,86.4653435 C54.0100851,86.4455611 54.0779574,86.4228007 54.1381702,86.3977005 L54.258383,86.8643949 C54.1581702,86.89928 54.0485957,86.9309743 53.9309362,86.9584144 C53.8130638,86.9860672 53.6962553,87.0001064 53.5807234,87.0001064 C53.3851915,87.0001064 53.2207234,86.9696883 53.0877447,86.9094902 C52.954766,86.8492922 52.8468936,86.7663337 52.7639149,86.6612531 C52.6809362,86.5557469 52.622,86.4279059 52.5871064,86.2773044 C52.5515745,86.1267029 52.5343404,85.9612115 52.5343404,85.7806174 L52.5343404,83.7557934 Z" id="Fill-52" fill="#FEFEFE" mask="url(#mask-4)"></path>
                        <path d="M55.1621277,86.9093839 L55.7795745,86.9093839 L55.7795745,83.2513423 L55.1621277,83.2513423 L55.1621277,86.9093839 Z M55.4780851,82.4985477 C55.3578723,82.4985477 55.256383,82.46111 55.173617,82.386022 C55.0906383,82.3107213 55.0493617,82.2152127 55.0493617,82.0994963 C55.0493617,81.9795257 55.0906383,81.8827408 55.173617,81.8099927 C55.256383,81.7372445 55.3578723,81.7006577 55.4780851,81.7006577 C55.5989362,81.7006577 55.7002128,81.7372445 55.7831915,81.8099927 C55.8661702,81.8827408 55.9074468,81.9795257 55.9074468,82.0994963 C55.9074468,82.2152127 55.8661702,82.3107213 55.7831915,82.386022 C55.7002128,82.46111 55.5989362,82.4985477 55.4780851,82.4985477 Z" id="Fill-53" fill="#FEFEFE" mask="url(#mask-4)"></path>
                        <path d="M57.5711064,85.087957 C57.5711064,85.2985438 57.5964255,85.4897736 57.6464255,85.659732 C57.6966383,85.8305413 57.7681277,85.9777394 57.8611064,86.1004753 C57.9538723,86.223424 58.0655745,86.3187198 58.1962128,86.3863628 C58.3268511,86.4542186 58.469617,86.4880401 58.6251489,86.4880401 C58.7808936,86.4880401 58.9238723,86.4542186 59.0545106,86.3863628 C59.1849362,86.3187198 59.2964255,86.223424 59.389617,86.1004753 C59.4821702,85.9777394 59.5536596,85.8305413 59.6042979,85.659732 C59.6542979,85.4897736 59.6791915,85.2985438 59.6791915,85.087957 C59.6791915,84.8773702 59.6542979,84.6852895 59.6042979,84.5121403 C59.5536596,84.3389912 59.4821702,84.189666 59.389617,84.0643775 C59.2964255,83.939089 59.1849362,83.8423042 59.0545106,83.7744484 C58.9238723,83.7068054 58.7808936,83.6729839 58.6251489,83.6729839 C58.469617,83.6729839 58.3268511,83.7068054 58.1962128,83.7744484 C58.0655745,83.8423042 57.9538723,83.939089 57.8611064,84.0643775 C57.7681277,84.189666 57.6966383,84.3389912 57.6464255,84.5121403 C57.5964255,84.6852895 57.5711064,84.8773702 57.5711064,85.087957 M56.9313191,85.087957 C56.9313191,84.7820743 56.9779149,84.5098005 57.0704681,84.2713482 C57.163234,84.0328958 57.2877021,83.831243 57.443234,83.6655389 C57.598766,83.499622 57.7783404,83.3745462 57.9817447,83.2890352 C58.1849362,83.2039496 58.399617,83.1607687 58.6251489,83.1607687 C58.8513191,83.1607687 59.0657872,83.2039496 59.2689787,83.2890352 C59.4725957,83.3745462 59.6517447,83.499622 59.8074894,83.6655389 C59.9630213,83.831243 60.0870638,84.0328958 60.1802553,84.2713482 C60.2728085,84.5098005 60.3194043,84.7820743 60.3194043,85.087957 C60.3194043,85.3889472 60.2728085,85.6590939 60.1802553,85.8971208 C60.0870638,86.1355731 59.9630213,86.3363751 59.8074894,86.4995267 C59.6517447,86.6624655 59.4725957,86.7866905 59.2689787,86.8719888 C59.0657872,86.9570743 58.8513191,87.0000425 58.6251489,87.0000425 C58.399617,87.0000425 58.1849362,86.9570743 57.9817447,86.8719888 C57.7783404,86.7866905 57.598766,86.6624655 57.443234,86.4995267 C57.2877021,86.3363751 57.163234,86.1355731 57.0704681,85.8971208 C56.9779149,85.6590939 56.9313191,85.3889472 56.9313191,85.087957" id="Fill-54" fill="#FEFEFE" mask="url(#mask-4)"></path>
                        <path d="M61.3204894,83.2514274 L61.8324043,83.2514274 L61.8851702,83.7785325 L61.9079362,83.7785325 C62.0834681,83.6028308 62.2679362,83.4560582 62.4611277,83.3377892 C62.6543191,83.2203711 62.879,83.1608112 63.1347447,83.1608112 C63.5215532,83.1608112 63.8036809,83.2816328 63.9819787,83.5222122 C64.1602766,83.7632171 64.2492128,84.1197257 64.2492128,84.5910998 L64.2492128,86.9094689 L63.6319787,86.9094689 L63.6319787,84.6738455 C63.6319787,84.3277599 63.5766596,84.0782465 63.466234,83.9250924 C63.3555957,83.7721511 63.1800638,83.6955741 62.9392128,83.6955741 C62.7483617,83.6955741 62.5802766,83.7434347 62.4347447,83.8383051 C62.2894255,83.9340264 62.1234681,84.0744176 61.9379362,84.2599042 L61.9379362,86.9094689 L61.3204894,86.9094689 L61.3204894,83.2514274 Z" id="Fill-55" fill="#FEFEFE" mask="url(#mask-4)"></path>
                    </g>
                </g>
            </g>
        </g>
    </g>
</svg>