<?xml version="1.0" encoding="UTF-8"?>
<svg width="236px" height="242px" viewBox="0 0 236 242" version="1.1" xmlns="http://www.w3.org/2000/svg" xmlns:xlink="http://www.w3.org/1999/xlink">
    <!-- Generator: Sketch 49.2 (51160) - http://www.bohemiancoding.com/sketch -->
    <title>Aa ABCDEFGHIJKLMNOPQ</title>
    <desc>Created with Sketch.</desc>
    <defs></defs>
    <g id="Page-1" stroke="none" stroke-width="1" fill="none" fill-rule="evenodd">
        <g id="Tablet" transform="translate(-498.000000, -1155.000000)" fill="#000000">
            <path d="M529.15,1218.75 L565.45,1218.75 L547.6,1168.8 L547.3,1168.8 L529.15,1218.75 Z M539.8,1155.9 L555.55,1155.9 L597.4,1263 L581.65,1263 L569.95,1230.75 L524.65,1230.75 L512.65,1263 L498.1,1263 L539.8,1155.9 Z M670.5,1262.7 C668.299989,1264.00001 665.25002,1264.65 661.35,1264.65 C658.049984,1264.65 655.42501,1263.72501 653.475,1261.875 C651.52499,1260.02499 650.55,1257.00002 650.55,1252.8 C647.049982,1257.00002 642.975023,1260.02499 638.325,1261.875 C633.674977,1263.72501 628.650027,1264.65 623.25,1264.65 C619.749982,1264.65 616.425016,1264.25 613.275,1263.45 C610.124984,1262.65 607.400012,1261.40001 605.1,1259.7 C602.799989,1257.99999 600.975007,1255.77501 599.625,1253.025 C598.274993,1250.27499 597.6,1246.95002 597.6,1243.05 C597.6,1238.64998 598.349992,1235.05001 599.85,1232.25 C601.350007,1229.44999 603.324988,1227.17501 605.775,1225.425 C608.225012,1223.67499 611.024984,1222.35 614.175,1221.45 C617.325016,1220.55 620.549984,1219.8 623.85,1219.2 C627.350018,1218.5 630.674984,1217.975 633.825,1217.625 C636.975016,1217.275 639.749988,1216.775 642.15,1216.125 C644.550012,1215.475 646.449993,1214.52501 647.85,1213.275 C649.250007,1212.02499 649.95,1210.20001 649.95,1207.8 C649.95,1204.99999 649.425005,1202.75001 648.375,1201.05 C647.324995,1199.34999 645.975008,1198.05 644.325,1197.15 C642.674992,1196.25 640.82501,1195.65 638.775,1195.35 C636.72499,1195.05 634.70001,1194.9 632.7,1194.9 C627.299973,1194.9 622.800018,1195.92499 619.2,1197.975 C615.599982,1200.02501 613.650002,1203.89997 613.35,1209.6 L600.6,1209.6 C600.800001,1204.79998 601.799991,1200.75002 603.6,1197.45 C605.400009,1194.14998 607.799985,1191.47501 610.8,1189.425 C613.800015,1187.37499 617.224981,1185.9 621.075,1185 C624.925019,1184.1 629.049978,1183.65 633.45,1183.65 C636.950018,1183.65 640.424983,1183.9 643.875,1184.4 C647.325017,1184.9 650.449986,1185.92499 653.25,1187.475 C656.050014,1189.02501 658.299992,1191.19999 660,1194 C661.700008,1196.80001 662.55,1200.44998 662.55,1204.95 L662.55,1244.85 C662.55,1247.85001 662.724998,1250.04999 663.075,1251.45 C663.425002,1252.85001 664.59999,1253.55 666.6,1253.55 C667.700005,1253.55 668.999992,1253.3 670.5,1252.8 L670.5,1262.7 Z M649.8,1222.95 C648.199992,1224.15001 646.100013,1225.025 643.5,1225.575 C640.899987,1226.125 638.175014,1226.575 635.325,1226.925 C632.474986,1227.275 629.600015,1227.675 626.7,1228.125 C623.799986,1228.575 621.200011,1229.3 618.9,1230.3 C616.599988,1231.30001 614.725007,1232.72499 613.275,1234.575 C611.824993,1236.42501 611.1,1238.94998 611.1,1242.15 C611.1,1244.25001 611.524996,1246.02499 612.375,1247.475 C613.225004,1248.92501 614.324993,1250.1 615.675,1251 C617.025007,1251.9 618.599991,1252.55 620.4,1252.95 C622.200009,1253.35 624.09999,1253.55 626.1,1253.55 C630.300021,1253.55 633.899985,1252.97501 636.9,1251.825 C639.900015,1250.67499 642.34999,1249.22501 644.25,1247.475 C646.15001,1245.72499 647.549996,1243.82501 648.45,1241.775 C649.350005,1239.72499 649.8,1237.80001 649.8,1236 L649.8,1222.95 Z M501.01,1299.05 L503.43,1299.05 L502.24,1295.72 L502.22,1295.72 L501.01,1299.05 Z M501.72,1294.86 L502.77,1294.86 L505.56,1302 L504.51,1302 L503.73,1299.85 L500.71,1299.85 L499.91,1302 L498.94,1302 L501.72,1294.86 Z M509.71,1297.93 L511.61,1297.93 C512.150003,1297.93 512.538332,1297.835 512.775,1297.645 C513.011668,1297.455 513.13,1297.17 513.13,1296.79 C513.13,1296.53667 513.09,1296.33667 513.01,1296.19 C512.93,1296.04333 512.820001,1295.93 512.68,1295.85 C512.539999,1295.77 512.378334,1295.71833 512.195,1295.695 C512.011666,1295.67167 511.816668,1295.66 511.61,1295.66 L509.71,1295.66 L509.71,1297.93 Z M508.76,1294.86 L511.35,1294.86 C511.503334,1294.86 511.668332,1294.86167 511.845,1294.865 C512.021668,1294.86833 512.196666,1294.87833 512.37,1294.895 C512.543334,1294.91167 512.704999,1294.93667 512.855,1294.97 C513.005001,1295.00333 513.133333,1295.05333 513.24,1295.12 C513.473334,1295.26 513.671666,1295.45333 513.835,1295.7 C513.998334,1295.94667 514.08,1296.25 514.08,1296.61 C514.08,1296.99 513.988334,1297.31833 513.805,1297.595 C513.621666,1297.87167 513.360002,1298.07667 513.02,1298.21 L513.02,1298.23 C513.460002,1298.32333 513.796666,1298.52333 514.03,1298.83 C514.263335,1299.13667 514.38,1299.51 514.38,1299.95 C514.38,1300.21 514.333334,1300.46333 514.24,1300.71 C514.146666,1300.95667 514.008334,1301.175 513.825,1301.365 C513.641666,1301.555 513.415001,1301.70833 513.145,1301.825 C512.874999,1301.94167 512.563335,1302 512.21,1302 L508.76,1302 L508.76,1294.86 Z M509.71,1301.2 L512.09,1301.2 C512.510002,1301.2 512.838332,1301.08667 513.075,1300.86 C513.311668,1300.63333 513.43,1300.32 513.43,1299.92 C513.43,1299.68667 513.386667,1299.49333 513.3,1299.34 C513.213333,1299.18667 513.098334,1299.065 512.955,1298.975 C512.811666,1298.885 512.646668,1298.82167 512.46,1298.785 C512.273332,1298.74833 512.080001,1298.73 511.88,1298.73 L509.71,1298.73 L509.71,1301.2 Z M523.13,1297.01 C523.023333,1296.50333 522.788335,1296.12333 522.425,1295.87 C522.061665,1295.61667 521.630003,1295.49 521.13,1295.49 C520.703331,1295.49 520.338335,1295.57 520.035,1295.73 C519.731665,1295.89 519.481668,1296.105 519.285,1296.375 C519.088332,1296.645 518.943334,1296.95333 518.85,1297.3 C518.756666,1297.64667 518.71,1298.00666 518.71,1298.38 C518.71,1298.78667 518.756666,1299.17166 518.85,1299.535 C518.943334,1299.89834 519.088332,1300.215 519.285,1300.485 C519.481668,1300.755 519.733332,1300.97 520.04,1301.13 C520.346668,1301.29 520.713331,1301.37 521.14,1301.37 C521.453335,1301.37 521.731665,1301.31833 521.975,1301.215 C522.218335,1301.11167 522.428332,1300.96833 522.605,1300.785 C522.781668,1300.60167 522.92,1300.38333 523.02,1300.13 C523.120001,1299.87667 523.18,1299.60333 523.2,1299.31 L524.15,1299.31 C524.056666,1300.21 523.746669,1300.91 523.22,1301.41 C522.693331,1301.91 521.973338,1302.16 521.06,1302.16 C520.506664,1302.16 520.023335,1302.065 519.61,1301.875 C519.196665,1301.685 518.853335,1301.42333 518.58,1301.09 C518.306665,1300.75666 518.101667,1300.36334 517.965,1299.91 C517.828333,1299.45666 517.76,1298.97 517.76,1298.45 C517.76,1297.93 517.833333,1297.44167 517.98,1296.985 C518.126667,1296.52833 518.341665,1296.13 518.625,1295.79 C518.908335,1295.45 519.261665,1295.18167 519.685,1294.985 C520.108335,1294.78833 520.593331,1294.69 521.14,1294.69 C521.513335,1294.69 521.866665,1294.74 522.2,1294.84 C522.533335,1294.94 522.829999,1295.08667 523.09,1295.28 C523.350001,1295.47333 523.566666,1295.715 523.74,1296.005 C523.913334,1296.295 524.026666,1296.63 524.08,1297.01 L523.13,1297.01 Z M528.78,1301.2 L530.36,1301.2 C530.466667,1301.2 530.599999,1301.19167 530.76,1301.175 C530.920001,1301.15833 531.089999,1301.11833 531.27,1301.055 C531.450001,1300.99167 531.628332,1300.9 531.805,1300.78 C531.981668,1300.66 532.139999,1300.49667 532.28,1300.29 C532.420001,1300.08333 532.535,1299.825 532.625,1299.515 C532.715,1299.205 532.76,1298.83 532.76,1298.39 C532.76,1297.96333 532.718334,1297.58167 532.635,1297.245 C532.551666,1296.90833 532.415001,1296.62167 532.225,1296.385 C532.034999,1296.14833 531.790002,1295.96833 531.49,1295.845 C531.189999,1295.72167 530.820002,1295.66 530.38,1295.66 L528.78,1295.66 L528.78,1301.2 Z M527.83,1294.86 L530.28,1294.86 C531.380006,1294.86 532.226664,1295.14 532.82,1295.7 C533.413336,1296.26 533.71,1297.11333 533.71,1298.26 C533.71,1298.86 533.643334,1299.39166 533.51,1299.855 C533.376666,1300.31834 533.170001,1300.70833 532.89,1301.025 C532.609999,1301.34167 532.253336,1301.58333 531.82,1301.75 C531.386665,1301.91667 530.873336,1302 530.28,1302 L527.83,1302 L527.83,1294.86 Z M537.37,1294.86 L542.3,1294.86 L542.3,1295.66 L538.32,1295.66 L538.32,1297.93 L542.03,1297.93 L542.03,1298.73 L538.32,1298.73 L538.32,1301.2 L542.33,1301.2 L542.33,1302 L537.37,1302 L537.37,1294.86 Z M545.98,1294.86 L550.67,1294.86 L550.67,1295.66 L546.93,1295.66 L546.93,1297.93 L550.21,1297.93 L550.21,1298.73 L546.93,1298.73 L546.93,1302 L545.98,1302 L545.98,1294.86 Z M559.56,1301.11 C559.279999,1301.48334 558.933335,1301.75167 558.52,1301.915 C558.106665,1302.07833 557.690002,1302.16 557.27,1302.16 C556.736664,1302.16 556.260002,1302.06167 555.84,1301.865 C555.419998,1301.66833 555.063335,1301.40333 554.77,1301.07 C554.476665,1300.73666 554.253334,1300.35334 554.1,1299.92 C553.946666,1299.48666 553.87,1299.03667 553.87,1298.57 C553.87,1298.05 553.941666,1297.555 554.085,1297.085 C554.228334,1296.615 554.441665,1296.20334 554.725,1295.85 C555.008335,1295.49666 555.361665,1295.215 555.785,1295.005 C556.208335,1294.795 556.70333,1294.69 557.27,1294.69 C557.656669,1294.69 558.021665,1294.735 558.365,1294.825 C558.708335,1294.915 559.014999,1295.05667 559.285,1295.25 C559.555001,1295.44333 559.781666,1295.68833 559.965,1295.985 C560.148334,1296.28167 560.273333,1296.64 560.34,1297.06 L559.39,1297.06 C559.343333,1296.78667 559.256667,1296.55167 559.13,1296.355 C559.003333,1296.15833 558.846668,1295.99667 558.66,1295.87 C558.473332,1295.74333 558.261668,1295.64833 558.025,1295.585 C557.788332,1295.52167 557.536668,1295.49 557.27,1295.49 C556.836664,1295.49 556.465002,1295.57667 556.155,1295.75 C555.844998,1295.92333 555.591668,1296.15167 555.395,1296.435 C555.198332,1296.71833 555.053334,1297.04166 554.96,1297.405 C554.866666,1297.76834 554.82,1298.14 554.82,1298.52 C554.82,1298.89334 554.873333,1299.25166 554.98,1299.595 C555.086667,1299.93834 555.243332,1300.24167 555.45,1300.505 C555.656668,1300.76833 555.911665,1300.97833 556.215,1301.135 C556.518335,1301.29167 556.869998,1301.37 557.27,1301.37 C557.643335,1301.37 557.973332,1301.31 558.26,1301.19 C558.546668,1301.07 558.788332,1300.905 558.985,1300.695 C559.181668,1300.485 559.329999,1300.23833 559.43,1299.955 C559.530001,1299.67167 559.573333,1299.36667 559.56,1299.04 L557.28,1299.04 L557.28,1298.24 L560.41,1298.24 L560.41,1302 L559.81,1302 L559.56,1301.11 Z M564.31,1294.86 L565.26,1294.86 L565.26,1297.93 L569.02,1297.93 L569.02,1294.86 L569.97,1294.86 L569.97,1302 L569.02,1302 L569.02,1298.73 L565.26,1298.73 L565.26,1302 L564.31,1302 L564.31,1294.86 Z M574.07,1294.86 L575.02,1294.86 L575.02,1302 L574.07,1302 L574.07,1294.86 Z M582.75,1300.22 C582.75,1300.46 582.715,1300.69667 582.645,1300.93 C582.575,1301.16333 582.458334,1301.37167 582.295,1301.555 C582.131666,1301.73833 581.915001,1301.885 581.645,1301.995 C581.374999,1302.105 581.040002,1302.16 580.64,1302.16 C579.97333,1302.16 579.460002,1301.985 579.1,1301.635 C578.739998,1301.285 578.56,1300.77 578.56,1300.09 L578.56,1299.65 L579.51,1299.65 L579.51,1299.95 C579.51,1300.15667 579.526667,1300.34667 579.56,1300.52 C579.593333,1300.69333 579.651666,1300.84333 579.735,1300.97 C579.818334,1301.09667 579.934999,1301.195 580.085,1301.265 C580.235001,1301.335 580.426666,1301.37 580.66,1301.37 C581.093335,1301.37 581.391666,1301.25333 581.555,1301.02 C581.718334,1300.78667 581.8,1300.47334 581.8,1300.08 L581.8,1294.86 L582.75,1294.86 L582.75,1300.22 Z M586.81,1294.86 L587.76,1294.86 L587.76,1298.42 L591.38,1294.86 L592.61,1294.86 L589.6,1297.74 L592.73,1302 L591.53,1302 L588.95,1298.39 L587.76,1299.5 L587.76,1302 L586.81,1302 L586.81,1294.86 Z M595.98,1294.86 L596.93,1294.86 L596.93,1301.2 L600.71,1301.2 L600.71,1302 L595.98,1302 L595.98,1294.86 Z M604.06,1294.86 L605.36,1294.86 L607.61,1300.86 L609.87,1294.86 L611.17,1294.86 L611.17,1302 L610.27,1302 L610.27,1296.06 L610.25,1296.06 L608.02,1302 L607.21,1302 L604.98,1296.06 L604.96,1296.06 L604.96,1302 L604.06,1302 L604.06,1294.86 Z M615.24,1294.86 L616.25,1294.86 L620.01,1300.65 L620.03,1300.65 L620.03,1294.86 L620.93,1294.86 L620.93,1302 L619.89,1302 L616.16,1296.27 L616.14,1296.27 L616.14,1302 L615.24,1302 L615.24,1294.86 Z M625.52,1298.43 C625.52,1298.79 625.566666,1299.145 625.66,1299.495 C625.753334,1299.845 625.899999,1300.16 626.1,1300.44 C626.300001,1300.72 626.556665,1300.945 626.87,1301.115 C627.183335,1301.285 627.556665,1301.37 627.99,1301.37 C628.423336,1301.37 628.796665,1301.285 629.11,1301.115 C629.423335,1300.945 629.679999,1300.72 629.88,1300.44 C630.080001,1300.16 630.226666,1299.845 630.32,1299.495 C630.413334,1299.145 630.46,1298.79 630.46,1298.43 C630.46,1298.07 630.413334,1297.715 630.32,1297.365 C630.226666,1297.015 630.080001,1296.7 629.88,1296.42 C629.679999,1296.14 629.423335,1295.915 629.11,1295.745 C628.796665,1295.575 628.423336,1295.49 627.99,1295.49 C627.556665,1295.49 627.183335,1295.575 626.87,1295.745 C626.556665,1295.915 626.300001,1296.14 626.1,1296.42 C625.899999,1296.7 625.753334,1297.015 625.66,1297.365 C625.566666,1297.715 625.52,1298.07 625.52,1298.43 Z M624.57,1298.43 C624.57,1297.94333 624.641666,1297.475 624.785,1297.025 C624.928334,1296.575 625.143332,1296.17667 625.43,1295.83 C625.716668,1295.48333 626.073331,1295.20667 626.5,1295 C626.926669,1294.79333 627.423331,1294.69 627.99,1294.69 C628.556669,1294.69 629.053331,1294.79333 629.48,1295 C629.906669,1295.20667 630.263332,1295.48333 630.55,1295.83 C630.836668,1296.17667 631.051666,1296.575 631.195,1297.025 C631.338334,1297.475 631.41,1297.94333 631.41,1298.43 C631.41,1298.91667 631.338334,1299.385 631.195,1299.835 C631.051666,1300.285 630.836668,1300.68333 630.55,1301.03 C630.263332,1301.37667 629.906669,1301.65167 629.48,1301.855 C629.053331,1302.05833 628.556669,1302.16 627.99,1302.16 C627.423331,1302.16 626.926669,1302.05833 626.5,1301.855 C626.073331,1301.65167 625.716668,1301.37667 625.43,1301.03 C625.143332,1300.68333 624.928334,1300.285 624.785,1299.835 C624.641666,1299.385 624.57,1298.91667 624.57,1298.43 Z M636.02,1298.28 L637.88,1298.28 C638.420003,1298.28667 638.814999,1298.17667 639.065,1297.95 C639.315001,1297.72333 639.44,1297.39667 639.44,1296.97 C639.44,1296.54333 639.315001,1296.21833 639.065,1295.995 C638.814999,1295.77167 638.420003,1295.66 637.88,1295.66 L636.02,1295.66 L636.02,1298.28 Z M635.07,1294.86 L638.2,1294.86 C638.920004,1294.86 639.464998,1295.045 639.835,1295.415 C640.205002,1295.785 640.39,1296.30333 640.39,1296.97 C640.39,1297.63667 640.205002,1298.15666 639.835,1298.53 C639.464998,1298.90334 638.920004,1299.08667 638.2,1299.08 L636.02,1299.08 L636.02,1302 L635.07,1302 L635.07,1294.86 Z M647.77,1299.96 L648.72,1300.72 C649.000001,1300.44 649.206666,1300.09834 649.34,1299.695 C649.473334,1299.29166 649.54,1298.87 649.54,1298.43 C649.54,1298.07 649.493334,1297.715 649.4,1297.365 C649.306666,1297.015 649.160001,1296.7 648.96,1296.42 C648.759999,1296.14 648.503335,1295.915 648.19,1295.745 C647.876665,1295.575 647.503336,1295.49 647.07,1295.49 C646.636665,1295.49 646.263335,1295.575 645.95,1295.745 C645.636665,1295.915 645.380001,1296.14 645.18,1296.42 C644.979999,1296.7 644.833334,1297.015 644.74,1297.365 C644.646666,1297.715 644.6,1298.07 644.6,1298.43 C644.6,1298.79 644.646666,1299.145 644.74,1299.495 C644.833334,1299.845 644.979999,1300.16 645.18,1300.44 C645.380001,1300.72 645.636665,1300.945 645.95,1301.115 C646.263335,1301.285 646.636665,1301.37 647.07,1301.37 C647.410002,1301.37 647.739998,1301.30333 648.06,1301.17 L647.27,1300.54 L647.77,1299.96 Z M649.87,1302.61 L648.78,1301.74 C648.299998,1302.02 647.730003,1302.16 647.07,1302.16 C646.50333,1302.16 646.006669,1302.05833 645.58,1301.855 C645.153331,1301.65167 644.796668,1301.37667 644.51,1301.03 C644.223332,1300.68333 644.008334,1300.285 643.865,1299.835 C643.721666,1299.385 643.65,1298.91667 643.65,1298.43 C643.65,1297.94333 643.721666,1297.475 643.865,1297.025 C644.008334,1296.575 644.223332,1296.17667 644.51,1295.83 C644.796668,1295.48333 645.153331,1295.20667 645.58,1295 C646.006669,1294.79333 646.50333,1294.69 647.07,1294.69 C647.636669,1294.69 648.133331,1294.79333 648.56,1295 C648.986669,1295.20667 649.343332,1295.48333 649.63,1295.83 C649.916668,1296.17667 650.131666,1296.575 650.275,1297.025 C650.418334,1297.475 650.49,1297.94333 650.49,1298.43 C650.49,1298.97667 650.400001,1299.49666 650.22,1299.99 C650.039999,1300.48334 649.770002,1300.91 649.41,1301.27 L650.35,1302.01 L649.87,1302.61 Z M654.15,1294.86 L657.51,1294.86 C658.190003,1294.86 658.721665,1295.02667 659.105,1295.36 C659.488335,1295.69333 659.68,1296.15 659.68,1296.73 C659.68,1297.16334 659.581668,1297.54333 659.385,1297.87 C659.188332,1298.19667 658.873335,1298.42 658.44,1298.54 L658.44,1298.56 C658.646668,1298.6 658.814999,1298.66667 658.945,1298.76 C659.075001,1298.85333 659.178333,1298.965 659.255,1299.095 C659.331667,1299.225 659.388333,1299.37 659.425,1299.53 C659.461667,1299.69 659.49,1299.85667 659.51,1300.03 C659.523333,1300.20333 659.533333,1300.38 659.54,1300.56 C659.546667,1300.74 659.563333,1300.91667 659.59,1301.09 C659.616667,1301.26333 659.655,1301.42833 659.705,1301.585 C659.755,1301.74167 659.829999,1301.88 659.93,1302 L658.87,1302 C658.803333,1301.92667 658.758333,1301.82667 658.735,1301.7 C658.711667,1301.57333 658.696667,1301.43167 658.69,1301.275 C658.683333,1301.11833 658.676667,1300.95 658.67,1300.77 C658.663333,1300.59 658.643333,1300.41333 658.61,1300.24 C658.583333,1300.06667 658.55,1299.90167 658.51,1299.745 C658.47,1299.58833 658.406667,1299.45167 658.32,1299.335 C658.233333,1299.21833 658.120001,1299.125 657.98,1299.055 C657.839999,1298.985 657.653335,1298.95 657.42,1298.95 L655.1,1298.95 L655.1,1302 L654.15,1302 L654.15,1294.86 Z M657.08,1298.15 C657.300001,1298.15 657.509999,1298.13333 657.71,1298.1 C657.910001,1298.06667 658.084999,1298.00167 658.235,1297.905 C658.385001,1297.80833 658.505,1297.67833 658.595,1297.515 C658.685,1297.35167 658.73,1297.14 658.73,1296.88 C658.73,1296.52 658.630001,1296.22667 658.43,1296 C658.229999,1295.77333 657.906669,1295.66 657.46,1295.66 L655.1,1295.66 L655.1,1298.15 L657.08,1298.15 Z M667.63,1296.95 C667.576666,1296.43666 667.391668,1296.065 667.075,1295.835 C666.758332,1295.605 666.353336,1295.49 665.86,1295.49 C665.659999,1295.49 665.463334,1295.51 665.27,1295.55 C665.076666,1295.59 664.905001,1295.65667 664.755,1295.75 C664.604999,1295.84333 664.485,1295.96833 664.395,1296.125 C664.305,1296.28167 664.26,1296.47667 664.26,1296.71 C664.26,1296.93 664.324999,1297.10833 664.455,1297.245 C664.585001,1297.38167 664.758332,1297.49333 664.975,1297.58 C665.191668,1297.66667 665.436665,1297.73833 665.71,1297.795 C665.983335,1297.85167 666.261665,1297.91333 666.545,1297.98 C666.828335,1298.04667 667.106665,1298.125 667.38,1298.215 C667.653335,1298.305 667.898332,1298.42667 668.115,1298.58 C668.331668,1298.73333 668.504999,1298.92667 668.635,1299.16 C668.765001,1299.39333 668.83,1299.68666 668.83,1300.04 C668.83,1300.42 668.745001,1300.745 668.575,1301.015 C668.404999,1301.285 668.186668,1301.505 667.92,1301.675 C667.653332,1301.845 667.355002,1301.96833 667.025,1302.045 C666.694998,1302.12167 666.366668,1302.16 666.04,1302.16 C665.639998,1302.16 665.261668,1302.11 664.905,1302.01 C664.548332,1301.91 664.235001,1301.75833 663.965,1301.555 C663.694999,1301.35167 663.481667,1301.09167 663.325,1300.775 C663.168333,1300.45833 663.09,1300.08334 663.09,1299.65 L663.99,1299.65 C663.99,1299.95 664.048333,1300.20833 664.165,1300.425 C664.281667,1300.64167 664.434999,1300.82 664.625,1300.96 C664.815001,1301.1 665.036665,1301.20333 665.29,1301.27 C665.543335,1301.33667 665.803332,1301.37 666.07,1301.37 C666.283334,1301.37 666.498332,1301.35 666.715,1301.31 C666.931668,1301.27 667.126666,1301.20167 667.3,1301.105 C667.473334,1301.00833 667.613333,1300.87667 667.72,1300.71 C667.826667,1300.54333 667.88,1300.33 667.88,1300.07 C667.88,1299.82333 667.815001,1299.62333 667.685,1299.47 C667.554999,1299.31667 667.381668,1299.19167 667.165,1299.095 C666.948332,1298.99833 666.703335,1298.92 666.43,1298.86 C666.156665,1298.8 665.878335,1298.73833 665.595,1298.675 C665.311665,1298.61167 665.033335,1298.53833 664.76,1298.455 C664.486665,1298.37167 664.241668,1298.26167 664.025,1298.125 C663.808332,1297.98833 663.635001,1297.81167 663.505,1297.595 C663.374999,1297.37833 663.31,1297.10667 663.31,1296.78 C663.31,1296.42 663.383333,1296.10833 663.53,1295.845 C663.676667,1295.58167 663.871665,1295.365 664.115,1295.195 C664.358335,1295.025 664.634998,1294.89833 664.945,1294.815 C665.255002,1294.73167 665.573332,1294.69 665.9,1294.69 C666.266668,1294.69 666.606665,1294.73333 666.92,1294.82 C667.233335,1294.90667 667.508332,1295.04333 667.745,1295.23 C667.981668,1295.41667 668.168333,1295.65167 668.305,1295.935 C668.441667,1296.21833 668.516667,1296.55666 668.53,1296.95 L667.63,1296.95 Z M674.1,1295.66 L671.72,1295.66 L671.72,1294.86 L677.43,1294.86 L677.43,1295.66 L675.05,1295.66 L675.05,1302 L674.1,1302 L674.1,1295.66 Z M686.42,1299.42 C686.42,1300.33334 686.176669,1301.01833 685.69,1301.475 C685.203331,1301.93167 684.510004,1302.16 683.61,1302.16 C682.689995,1302.16 681.971669,1301.94167 681.455,1301.505 C680.938331,1301.06833 680.68,1300.37334 680.68,1299.42 L680.68,1294.86 L681.63,1294.86 L681.63,1299.42 C681.63,1300.06 681.799998,1300.545 682.14,1300.875 C682.480002,1301.205 682.969997,1301.37 683.61,1301.37 C684.21667,1301.37 684.678332,1301.205 684.995,1300.875 C685.311668,1300.545 685.47,1300.06 685.47,1299.42 L685.47,1294.86 L686.42,1294.86 L686.42,1299.42 Z M693.25,1302 L692.17,1302 L689.66,1294.86 L690.68,1294.86 L692.72,1301.05 L692.74,1301.05 L694.8,1294.86 L695.79,1294.86 L693.25,1302 Z M705.5,1302 L704.51,1302 L702.88,1296 L702.86,1296 L701.21,1302 L700.22,1302 L698.39,1294.86 L699.36,1294.86 L700.76,1300.8 L700.78,1300.8 L702.38,1294.86 L703.41,1294.86 L704.99,1300.8 L705.01,1300.8 L706.46,1294.86 L707.41,1294.86 L705.5,1302 Z M712.51,1298.33 L710.16,1294.86 L711.3,1294.86 L713.08,1297.65 L714.94,1294.86 L716,1294.86 L713.64,1298.33 L716.15,1302 L714.99,1302 L713.07,1299.05 L711.09,1302 L710.03,1302 L712.51,1298.33 Z M722.37,1299.08 L722.37,1302 L721.42,1302 L721.42,1299.08 L718.66,1294.86 L719.79,1294.86 L721.93,1298.26 L724.02,1294.86 L725.1,1294.86 L722.37,1299.08 Z M727.84,1301.2 L732.28,1295.66 L728.18,1295.66 L728.18,1294.86 L733.4,1294.86 L733.4,1295.66 L728.97,1301.2 L733.52,1301.2 L733.52,1302 L727.84,1302 L727.84,1301.2 Z M504.22,1324.98 C504.073333,1325.06667 503.870001,1325.11 503.61,1325.11 C503.389999,1325.11 503.215001,1325.04833 503.085,1324.925 C502.954999,1324.80167 502.89,1324.6 502.89,1324.32 C502.656665,1324.6 502.385002,1324.80167 502.075,1324.925 C501.764998,1325.04833 501.430002,1325.11 501.07,1325.11 C500.836665,1325.11 500.615001,1325.08333 500.405,1325.03 C500.194999,1324.97667 500.013334,1324.89333 499.86,1324.78 C499.706666,1324.66667 499.585,1324.51833 499.495,1324.335 C499.405,1324.15167 499.36,1323.93 499.36,1323.67 C499.36,1323.37667 499.41,1323.13667 499.51,1322.95 C499.610001,1322.76333 499.741666,1322.61167 499.905,1322.495 C500.068334,1322.37833 500.254999,1322.29 500.465,1322.23 C500.675001,1322.17 500.889999,1322.12 501.11,1322.08 C501.343335,1322.03333 501.564999,1321.99833 501.775,1321.975 C501.985001,1321.95167 502.169999,1321.91833 502.33,1321.875 C502.490001,1321.83167 502.616666,1321.76833 502.71,1321.685 C502.803334,1321.60167 502.85,1321.48 502.85,1321.32 C502.85,1321.13333 502.815,1320.98333 502.745,1320.87 C502.675,1320.75667 502.585001,1320.67 502.475,1320.61 C502.364999,1320.55 502.241667,1320.51 502.105,1320.49 C501.968333,1320.47 501.833334,1320.46 501.7,1320.46 C501.339998,1320.46 501.040001,1320.52833 500.8,1320.665 C500.559999,1320.80167 500.43,1321.06 500.41,1321.44 L499.56,1321.44 C499.573333,1321.12 499.639999,1320.85 499.76,1320.63 C499.880001,1320.41 500.039999,1320.23167 500.24,1320.095 C500.440001,1319.95833 500.668332,1319.86 500.925,1319.8 C501.181668,1319.74 501.456665,1319.71 501.75,1319.71 C501.983335,1319.71 502.214999,1319.72667 502.445,1319.76 C502.675001,1319.79333 502.883332,1319.86167 503.07,1319.965 C503.256668,1320.06833 503.406666,1320.21333 503.52,1320.4 C503.633334,1320.58667 503.69,1320.83 503.69,1321.13 L503.69,1323.79 C503.69,1323.99 503.701667,1324.13667 503.725,1324.23 C503.748333,1324.32333 503.826666,1324.37 503.96,1324.37 C504.033334,1324.37 504.12,1324.35333 504.22,1324.32 L504.22,1324.98 Z M502.84,1322.33 C502.733333,1322.41 502.593334,1322.46833 502.42,1322.505 C502.246666,1322.54167 502.065001,1322.57167 501.875,1322.595 C501.684999,1322.61833 501.493334,1322.645 501.3,1322.675 C501.106666,1322.705 500.933334,1322.75333 500.78,1322.82 C500.626666,1322.88667 500.501667,1322.98167 500.405,1323.105 C500.308333,1323.22833 500.26,1323.39667 500.26,1323.61 C500.26,1323.75 500.288333,1323.86833 500.345,1323.965 C500.401667,1324.06167 500.475,1324.14 500.565,1324.2 C500.655,1324.26 500.759999,1324.30333 500.88,1324.33 C501.000001,1324.35667 501.126666,1324.37 501.26,1324.37 C501.540001,1324.37 501.779999,1324.33167 501.98,1324.255 C502.180001,1324.17833 502.343333,1324.08167 502.47,1323.965 C502.596667,1323.84833 502.69,1323.72167 502.75,1323.585 C502.81,1323.44833 502.84,1323.32 502.84,1323.2 L502.84,1322.33 Z M507.54,1317.86 L508.39,1317.86 L508.39,1320.53 L508.41,1320.53 C508.550001,1320.24333 508.769998,1320.035 509.07,1319.905 C509.370002,1319.775 509.699998,1319.71 510.06,1319.71 C510.460002,1319.71 510.808332,1319.78333 511.105,1319.93 C511.401668,1320.07667 511.648332,1320.275 511.845,1320.525 C512.041668,1320.775 512.189999,1321.06333 512.29,1321.39 C512.390001,1321.71667 512.44,1322.06333 512.44,1322.43 C512.44,1322.79667 512.391667,1323.14333 512.295,1323.47 C512.198333,1323.79667 512.051668,1324.08167 511.855,1324.325 C511.658332,1324.56833 511.411668,1324.76 511.115,1324.9 C510.818332,1325.04 510.473335,1325.11 510.08,1325.11 C509.953333,1325.11 509.811667,1325.09667 509.655,1325.07 C509.498333,1325.04333 509.343334,1325 509.19,1324.94 C509.036666,1324.88 508.891667,1324.79833 508.755,1324.695 C508.618333,1324.59167 508.503334,1324.46333 508.41,1324.31 L508.39,1324.31 L508.39,1325 L507.54,1325 L507.54,1317.86 Z M511.54,1322.37 C511.54,1322.13 511.508334,1321.895 511.445,1321.665 C511.381666,1321.435 511.285001,1321.23 511.155,1321.05 C511.024999,1320.87 510.858334,1320.72667 510.655,1320.62 C510.451666,1320.51333 510.213335,1320.46 509.94,1320.46 C509.653332,1320.46 509.410001,1320.51667 509.21,1320.63 C509.009999,1320.74333 508.846667,1320.89167 508.72,1321.075 C508.593333,1321.25833 508.501667,1321.46667 508.445,1321.7 C508.388333,1321.93333 508.36,1322.17 508.36,1322.41 C508.36,1322.66333 508.39,1322.90833 508.45,1323.145 C508.51,1323.38167 508.604999,1323.59 508.735,1323.77 C508.865001,1323.95 509.033332,1324.095 509.24,1324.205 C509.446668,1324.315 509.696665,1324.37 509.99,1324.37 C510.283335,1324.37 510.528332,1324.31333 510.725,1324.2 C510.921668,1324.08667 511.079999,1323.93667 511.2,1323.75 C511.320001,1323.56333 511.406666,1323.35 511.46,1323.11 C511.513334,1322.87 511.54,1322.62333 511.54,1322.37 Z M519.45,1321.49 C519.383333,1321.16333 519.243334,1320.91 519.03,1320.73 C518.816666,1320.55 518.530002,1320.46 518.17,1320.46 C517.863332,1320.46 517.606668,1320.51667 517.4,1320.63 C517.193332,1320.74333 517.028334,1320.89333 516.905,1321.08 C516.781666,1321.26667 516.693334,1321.48167 516.64,1321.725 C516.586666,1321.96833 516.56,1322.22 516.56,1322.48 C516.56,1322.72 516.588333,1322.95333 516.645,1323.18 C516.701667,1323.40667 516.789999,1323.60833 516.91,1323.785 C517.030001,1323.96167 517.186666,1324.10333 517.38,1324.21 C517.573334,1324.31667 517.803332,1324.37 518.07,1324.37 C518.490002,1324.37 518.818332,1324.26 519.055,1324.04 C519.291668,1323.82 519.436666,1323.51 519.49,1323.11 L520.36,1323.11 C520.266666,1323.75 520.028335,1324.24333 519.645,1324.59 C519.261665,1324.93667 518.740003,1325.11 518.08,1325.11 C517.686665,1325.11 517.338335,1325.04667 517.035,1324.92 C516.731665,1324.79333 516.478334,1324.61333 516.275,1324.38 C516.071666,1324.14667 515.918334,1323.86833 515.815,1323.545 C515.711666,1323.22167 515.66,1322.86667 515.66,1322.48 C515.66,1322.09333 515.709999,1321.73167 515.81,1321.395 C515.910001,1321.05833 516.061666,1320.765 516.265,1320.515 C516.468334,1320.265 516.723332,1320.06833 517.03,1319.925 C517.336668,1319.78167 517.693331,1319.71 518.1,1319.71 C518.393335,1319.71 518.668332,1319.745 518.925,1319.815 C519.181668,1319.885 519.408332,1319.99333 519.605,1320.14 C519.801668,1320.28667 519.963333,1320.47167 520.09,1320.695 C520.216667,1320.91833 520.296667,1321.18333 520.33,1321.49 L519.45,1321.49 Z M524.43,1322.46 C524.43,1322.7 524.461666,1322.935 524.525,1323.165 C524.588334,1323.395 524.684999,1323.6 524.815,1323.78 C524.945001,1323.96 525.111666,1324.10333 525.315,1324.21 C525.518334,1324.31667 525.756665,1324.37 526.03,1324.37 C526.316668,1324.37 526.559999,1324.31333 526.76,1324.2 C526.960001,1324.08667 527.123333,1323.93833 527.25,1323.755 C527.376667,1323.57167 527.468333,1323.36333 527.525,1323.13 C527.581667,1322.89667 527.61,1322.66 527.61,1322.42 C527.61,1322.16667 527.58,1321.92167 527.52,1321.685 C527.46,1321.44833 527.365001,1321.24 527.235,1321.06 C527.104999,1320.88 526.936668,1320.735 526.73,1320.625 C526.523332,1320.515 526.273335,1320.46 525.98,1320.46 C525.693332,1320.46 525.450001,1320.51667 525.25,1320.63 C525.049999,1320.74333 524.890001,1320.89333 524.77,1321.08 C524.649999,1321.26667 524.563334,1321.48 524.51,1321.72 C524.456666,1321.96 524.43,1322.20667 524.43,1322.46 Z M528.43,1325 L527.58,1325 L527.58,1324.3 L527.56,1324.3 C527.419999,1324.58667 527.200001,1324.79333 526.9,1324.92 C526.599998,1325.04667 526.270002,1325.11 525.91,1325.11 C525.509998,1325.11 525.161668,1325.03667 524.865,1324.89 C524.568332,1324.74333 524.321668,1324.54667 524.125,1324.3 C523.928332,1324.05333 523.780001,1323.76667 523.68,1323.44 C523.579999,1323.11333 523.53,1322.76667 523.53,1322.4 C523.53,1322.03333 523.578333,1321.68667 523.675,1321.36 C523.771667,1321.03333 523.918332,1320.74833 524.115,1320.505 C524.311668,1320.26167 524.558332,1320.06833 524.855,1319.925 C525.151668,1319.78167 525.496665,1319.71 525.89,1319.71 C526.023334,1319.71 526.166666,1319.72333 526.32,1319.75 C526.473334,1319.77667 526.626666,1319.82167 526.78,1319.885 C526.933334,1319.94833 527.078333,1320.03167 527.215,1320.135 C527.351667,1320.23833 527.466666,1320.36667 527.56,1320.52 L527.58,1320.52 L527.58,1317.86 L528.43,1317.86 L528.43,1325 Z M535.83,1321.92 C535.816667,1321.72 535.771667,1321.53 535.695,1321.35 C535.618333,1321.17 535.515001,1321.015 535.385,1320.885 C535.254999,1320.755 535.101668,1320.65167 534.925,1320.575 C534.748332,1320.49833 534.553334,1320.46 534.34,1320.46 C534.119999,1320.46 533.921668,1320.49833 533.745,1320.575 C533.568332,1320.65167 533.416667,1320.75667 533.29,1320.89 C533.163333,1321.02333 533.063334,1321.17833 532.99,1321.355 C532.916666,1321.53167 532.873333,1321.72 532.86,1321.92 L535.83,1321.92 Z M536.65,1323.36 C536.536666,1323.94 536.286669,1324.37667 535.9,1324.67 C535.513331,1324.96333 535.02667,1325.11 534.44,1325.11 C534.026665,1325.11 533.668335,1325.04333 533.365,1324.91 C533.061665,1324.77667 532.806668,1324.59 532.6,1324.35 C532.393332,1324.11 532.238334,1323.82334 532.135,1323.49 C532.031666,1323.15666 531.973333,1322.79334 531.96,1322.4 C531.96,1322.00666 532.019999,1321.64667 532.14,1321.32 C532.260001,1320.99333 532.428332,1320.71 532.645,1320.47 C532.861668,1320.23 533.118332,1320.04333 533.415,1319.91 C533.711668,1319.77667 534.036665,1319.71 534.39,1319.71 C534.850002,1319.71 535.231665,1319.805 535.535,1319.995 C535.838335,1320.185 536.081666,1320.42667 536.265,1320.72 C536.448334,1321.01333 536.575,1321.33333 536.645,1321.68 C536.715,1322.02667 536.743333,1322.35667 536.73,1322.67 L532.86,1322.67 C532.853333,1322.89667 532.88,1323.11167 532.94,1323.315 C533,1323.51833 533.096666,1323.69833 533.23,1323.855 C533.363334,1324.01167 533.533332,1324.13667 533.74,1324.23 C533.946668,1324.32333 534.189999,1324.37 534.47,1324.37 C534.830002,1324.37 535.124999,1324.28667 535.355,1324.12 C535.585001,1323.95333 535.736666,1323.7 535.81,1323.36 L536.65,1323.36 Z M540.46,1320.58 L539.59,1320.58 L539.59,1319.83 L540.46,1319.83 L540.46,1319.06 C540.46,1318.64 540.581665,1318.32167 540.825,1318.105 C541.068335,1317.88833 541.423331,1317.78 541.89,1317.78 C541.97,1317.78 542.061666,1317.78667 542.165,1317.8 C542.268334,1317.81333 542.36,1317.83333 542.44,1317.86 L542.44,1318.6 C542.366666,1318.57333 542.286667,1318.555 542.2,1318.545 C542.113333,1318.535 542.033334,1318.53 541.96,1318.53 C541.753332,1318.53 541.593334,1318.57 541.48,1318.65 C541.366666,1318.73 541.31,1318.88333 541.31,1319.11 L541.31,1319.83 L542.31,1319.83 L542.31,1320.58 L541.31,1320.58 L541.31,1325 L540.46,1325 L540.46,1320.58 Z M550.03,1324.56 C550.03,1325.40667 549.836669,1326.04 549.45,1326.46 C549.063331,1326.88 548.456671,1327.09 547.63,1327.09 C547.389999,1327.09 547.145001,1327.06333 546.895,1327.01 C546.644999,1326.95667 546.418334,1326.87 546.215,1326.75 C546.011666,1326.63 545.843334,1326.47333 545.71,1326.28 C545.576666,1326.08667 545.503333,1325.85 545.49,1325.57 L546.34,1325.57 C546.346667,1325.72333 546.395,1325.85333 546.485,1325.96 C546.575,1326.06667 546.684999,1326.15333 546.815,1326.22 C546.945001,1326.28667 547.086666,1326.335 547.24,1326.365 C547.393334,1326.395 547.539999,1326.41 547.68,1326.41 C547.960001,1326.41 548.196666,1326.36167 548.39,1326.265 C548.583334,1326.16833 548.743333,1326.035 548.87,1325.865 C548.996667,1325.695 549.088333,1325.49 549.145,1325.25 C549.201667,1325.01 549.23,1324.74667 549.23,1324.46 L549.23,1324.12 L549.21,1324.12 C549.063333,1324.44 548.841668,1324.675 548.545,1324.825 C548.248332,1324.975 547.933335,1325.05 547.6,1325.05 C547.213331,1325.05 546.876668,1324.98 546.59,1324.84 C546.303332,1324.7 546.063334,1324.51167 545.87,1324.275 C545.676666,1324.03833 545.531667,1323.76167 545.435,1323.445 C545.338333,1323.12833 545.29,1322.79334 545.29,1322.44 C545.29,1322.13333 545.33,1321.81833 545.41,1321.495 C545.49,1321.17167 545.623332,1320.87833 545.81,1320.615 C545.996668,1320.35167 546.243332,1320.135 546.55,1319.965 C546.856668,1319.795 547.233331,1319.71 547.68,1319.71 C548.006668,1319.71 548.306665,1319.78167 548.58,1319.925 C548.853335,1320.06833 549.066666,1320.28333 549.22,1320.57 L549.23,1320.57 L549.23,1319.83 L550.03,1319.83 L550.03,1324.56 Z M547.65,1324.31 C547.930001,1324.31 548.168332,1324.25167 548.365,1324.135 C548.561668,1324.01833 548.719999,1323.865 548.84,1323.675 C548.960001,1323.485 549.048333,1323.27 549.105,1323.03 C549.161667,1322.79 549.19,1322.55 549.19,1322.31 C549.19,1322.08333 549.163334,1321.86 549.11,1321.64 C549.056666,1321.42 548.971667,1321.22167 548.855,1321.045 C548.738333,1320.86833 548.586668,1320.72667 548.4,1320.62 C548.213332,1320.51333 547.986668,1320.46 547.72,1320.46 C547.446665,1320.46 547.213334,1320.51167 547.02,1320.615 C546.826666,1320.71833 546.668334,1320.85667 546.545,1321.03 C546.421666,1321.20333 546.331667,1321.40333 546.275,1321.63 C546.218333,1321.85667 546.19,1322.09333 546.19,1322.34 C546.19,1322.57333 546.213333,1322.80667 546.26,1323.04 C546.306667,1323.27333 546.386666,1323.485 546.5,1323.675 C546.613334,1323.865 546.763332,1324.01833 546.95,1324.135 C547.136668,1324.25167 547.369999,1324.31 547.65,1324.31 Z M553.81,1317.86 L554.66,1317.86 L554.66,1320.59 L554.68,1320.59 C554.746667,1320.43 554.839999,1320.295 554.96,1320.185 C555.080001,1320.075 555.214999,1319.985 555.365,1319.915 C555.515001,1319.845 555.671666,1319.79333 555.835,1319.76 C555.998334,1319.72667 556.156666,1319.71 556.31,1319.71 C556.650002,1319.71 556.933332,1319.75667 557.16,1319.85 C557.386668,1319.94333 557.569999,1320.07333 557.71,1320.24 C557.850001,1320.40667 557.948333,1320.605 558.005,1320.835 C558.061667,1321.065 558.09,1321.32 558.09,1321.6 L558.09,1325 L557.24,1325 L557.24,1321.5 C557.24,1321.18 557.146668,1320.92667 556.96,1320.74 C556.773332,1320.55333 556.516668,1320.46 556.19,1320.46 C555.929999,1320.46 555.705001,1320.5 555.515,1320.58 C555.324999,1320.66 555.166667,1320.77333 555.04,1320.92 C554.913333,1321.06667 554.818334,1321.23833 554.755,1321.435 C554.691666,1321.63167 554.66,1321.84667 554.66,1322.08 L554.66,1325 L553.81,1325 L553.81,1317.86 Z M562.77,1318.9 L561.92,1318.9 L561.92,1317.86 L562.77,1317.86 L562.77,1318.9 Z M561.92,1319.83 L562.77,1319.83 L562.77,1325 L561.92,1325 L561.92,1319.83 Z M567.49,1318.9 L566.64,1318.9 L566.64,1317.86 L567.49,1317.86 L567.49,1318.9 Z M567.49,1325.65 C567.49,1326.11 567.378334,1326.445 567.155,1326.655 C566.931666,1326.865 566.630002,1326.97 566.25,1326.97 C566.096666,1326.97 565.953334,1326.95667 565.82,1326.93 L565.82,1326.2 C565.853333,1326.20667 565.881667,1326.21167 565.905,1326.215 C565.928333,1326.21833 565.953333,1326.22 565.98,1326.22 L566.16,1326.22 C566.346668,1326.22 566.473333,1326.16833 566.54,1326.065 C566.606667,1325.96167 566.64,1325.77667 566.64,1325.51 L566.64,1319.83 L567.49,1319.83 L567.49,1325.65 Z M571.36,1317.86 L572.21,1317.86 L572.21,1322.09 L574.57,1319.83 L575.71,1319.83 L573.66,1321.71 L575.86,1325 L574.78,1325 L573.01,1322.3 L572.21,1323.04 L572.21,1325 L571.36,1325 L571.36,1317.86 Z M579.05,1317.86 L579.9,1317.86 L579.9,1325 L579.05,1325 L579.05,1317.86 Z M583.72,1319.83 L584.52,1319.83 L584.52,1320.59 L584.54,1320.59 C584.926669,1320.00333 585.48333,1319.71 586.21,1319.71 C586.530002,1319.71 586.819999,1319.77667 587.08,1319.91 C587.340001,1320.04333 587.523333,1320.27 587.63,1320.59 C587.803334,1320.31 588.031665,1320.09333 588.315,1319.94 C588.598335,1319.78667 588.909998,1319.71 589.25,1319.71 C589.510001,1319.71 589.744999,1319.73833 589.955,1319.795 C590.165001,1319.85167 590.344999,1319.94 590.495,1320.06 C590.645001,1320.18 590.761666,1320.335 590.845,1320.525 C590.928334,1320.715 590.97,1320.94333 590.97,1321.21 L590.97,1325 L590.12,1325 L590.12,1321.61 C590.12,1321.45 590.106667,1321.3 590.08,1321.16 C590.053333,1321.02 590.003334,1320.89833 589.93,1320.795 C589.856666,1320.69167 589.755001,1320.61 589.625,1320.55 C589.494999,1320.49 589.326668,1320.46 589.12,1320.46 C588.699998,1320.46 588.370001,1320.58 588.13,1320.82 C587.889999,1321.06 587.77,1321.38 587.77,1321.78 L587.77,1325 L586.92,1325 L586.92,1321.61 C586.92,1321.44333 586.905,1321.29 586.875,1321.15 C586.845,1321.01 586.793334,1320.88833 586.72,1320.785 C586.646666,1320.68167 586.548334,1320.60167 586.425,1320.545 C586.301666,1320.48833 586.143334,1320.46 585.95,1320.46 C585.703332,1320.46 585.491668,1320.51 585.315,1320.61 C585.138332,1320.71 584.995001,1320.83 584.885,1320.97 C584.774999,1321.11 584.695,1321.255 584.645,1321.405 C584.595,1321.555 584.57,1321.68 584.57,1321.78 L584.57,1325 L583.72,1325 L583.72,1319.83 Z M594.75,1319.83 L595.55,1319.83 L595.55,1320.65 L595.57,1320.65 C595.923335,1320.02333 596.483329,1319.71 597.25,1319.71 C597.590002,1319.71 597.873332,1319.75667 598.1,1319.85 C598.326668,1319.94333 598.509999,1320.07333 598.65,1320.24 C598.790001,1320.40667 598.888333,1320.605 598.945,1320.835 C599.001667,1321.065 599.03,1321.32 599.03,1321.6 L599.03,1325 L598.18,1325 L598.18,1321.5 C598.18,1321.18 598.086668,1320.92667 597.9,1320.74 C597.713332,1320.55333 597.456668,1320.46 597.13,1320.46 C596.869999,1320.46 596.645001,1320.5 596.455,1320.58 C596.264999,1320.66 596.106667,1320.77333 595.98,1320.92 C595.853333,1321.06667 595.758334,1321.23833 595.695,1321.435 C595.631666,1321.63167 595.6,1321.84667 595.6,1322.08 L595.6,1325 L594.75,1325 L594.75,1319.83 Z M603.43,1322.42 C603.43,1322.73333 603.471666,1323.01167 603.555,1323.255 C603.638334,1323.49833 603.753333,1323.70167 603.9,1323.865 C604.046667,1324.02833 604.218332,1324.15333 604.415,1324.24 C604.611668,1324.32667 604.819999,1324.37 605.04,1324.37 C605.260001,1324.37 605.468332,1324.32667 605.665,1324.24 C605.861668,1324.15333 606.033333,1324.02833 606.18,1323.865 C606.326667,1323.70167 606.441666,1323.49833 606.525,1323.255 C606.608334,1323.01167 606.65,1322.73333 606.65,1322.42 C606.65,1322.10667 606.608334,1321.82833 606.525,1321.585 C606.441666,1321.34167 606.326667,1321.13667 606.18,1320.97 C606.033333,1320.80333 605.861668,1320.67667 605.665,1320.59 C605.468332,1320.50333 605.260001,1320.46 605.04,1320.46 C604.819999,1320.46 604.611668,1320.50333 604.415,1320.59 C604.218332,1320.67667 604.046667,1320.80333 603.9,1320.97 C603.753333,1321.13667 603.638334,1321.34167 603.555,1321.585 C603.471666,1321.82833 603.43,1322.10667 603.43,1322.42 Z M602.53,1322.42 C602.53,1322.04 602.583333,1321.685 602.69,1321.355 C602.796667,1321.025 602.956666,1320.73833 603.17,1320.495 C603.383334,1320.25167 603.646665,1320.06 603.96,1319.92 C604.273335,1319.78 604.633331,1319.71 605.04,1319.71 C605.453335,1319.71 605.814998,1319.78 606.125,1319.92 C606.435002,1320.06 606.696666,1320.25167 606.91,1320.495 C607.123334,1320.73833 607.283333,1321.025 607.39,1321.355 C607.496667,1321.685 607.55,1322.04 607.55,1322.42 C607.55,1322.8 607.496667,1323.15333 607.39,1323.48 C607.283333,1323.80667 607.123334,1324.09167 606.91,1324.335 C606.696666,1324.57833 606.435002,1324.76833 606.125,1324.905 C605.814998,1325.04167 605.453335,1325.11 605.04,1325.11 C604.633331,1325.11 604.273335,1325.04167 603.96,1324.905 C603.646665,1324.76833 603.383334,1324.57833 603.17,1324.335 C602.956666,1324.09167 602.796667,1323.80667 602.69,1323.48 C602.583333,1323.15333 602.53,1322.8 602.53,1322.42 Z M611.08,1319.83 L611.93,1319.83 L611.93,1320.53 L611.95,1320.53 C612.090001,1320.24333 612.309999,1320.035 612.61,1319.905 C612.910002,1319.775 613.239998,1319.71 613.6,1319.71 C614.000002,1319.71 614.348332,1319.78333 614.645,1319.93 C614.941668,1320.07667 615.188332,1320.275 615.385,1320.525 C615.581668,1320.775 615.729999,1321.06333 615.83,1321.39 C615.930001,1321.71667 615.98,1322.06333 615.98,1322.43 C615.98,1322.79667 615.931667,1323.14333 615.835,1323.47 C615.738333,1323.79667 615.591668,1324.08167 615.395,1324.325 C615.198332,1324.56833 614.951668,1324.76 614.655,1324.9 C614.358332,1325.04 614.013335,1325.11 613.62,1325.11 C613.493333,1325.11 613.351667,1325.09667 613.195,1325.07 C613.038333,1325.04333 612.883334,1325 612.73,1324.94 C612.576666,1324.88 612.431667,1324.79833 612.295,1324.695 C612.158333,1324.59167 612.043334,1324.46333 611.95,1324.31 L611.93,1324.31 L611.93,1326.97 L611.08,1326.97 L611.08,1319.83 Z M615.08,1322.37 C615.08,1322.13 615.048334,1321.895 614.985,1321.665 C614.921666,1321.435 614.825001,1321.23 614.695,1321.05 C614.564999,1320.87 614.398334,1320.72667 614.195,1320.62 C613.991666,1320.51333 613.753335,1320.46 613.48,1320.46 C613.193332,1320.46 612.950001,1320.51667 612.75,1320.63 C612.549999,1320.74333 612.386667,1320.89167 612.26,1321.075 C612.133333,1321.25833 612.041667,1321.46667 611.985,1321.7 C611.928333,1321.93333 611.9,1322.17 611.9,1322.41 C611.9,1322.66333 611.93,1322.90833 611.99,1323.145 C612.05,1323.38167 612.144999,1323.59 612.275,1323.77 C612.405001,1323.95 612.573332,1324.095 612.78,1324.205 C612.986668,1324.315 613.236665,1324.37 613.53,1324.37 C613.823335,1324.37 614.068332,1324.31333 614.265,1324.2 C614.461668,1324.08667 614.619999,1323.93667 614.74,1323.75 C614.860001,1323.56333 614.946666,1323.35 615,1323.11 C615.053334,1322.87 615.08,1322.62333 615.08,1322.37 Z M620.1,1322.46 C620.1,1322.7 620.131666,1322.935 620.195,1323.165 C620.258334,1323.395 620.354999,1323.6 620.485,1323.78 C620.615001,1323.96 620.781666,1324.10333 620.985,1324.21 C621.188334,1324.31667 621.426665,1324.37 621.7,1324.37 C621.986668,1324.37 622.229999,1324.31333 622.43,1324.2 C622.630001,1324.08667 622.793333,1323.93833 622.92,1323.755 C623.046667,1323.57167 623.138333,1323.36333 623.195,1323.13 C623.251667,1322.89667 623.28,1322.66 623.28,1322.42 C623.28,1322.16667 623.25,1321.92167 623.19,1321.685 C623.13,1321.44833 623.035001,1321.24 622.905,1321.06 C622.774999,1320.88 622.606668,1320.735 622.4,1320.625 C622.193332,1320.515 621.943335,1320.46 621.65,1320.46 C621.363332,1320.46 621.120001,1320.51667 620.92,1320.63 C620.719999,1320.74333 620.560001,1320.89333 620.44,1321.08 C620.319999,1321.26667 620.233334,1321.48 620.18,1321.72 C620.126666,1321.96 620.1,1322.20667 620.1,1322.46 Z M624.1,1326.97 L623.25,1326.97 L623.25,1324.3 L623.23,1324.3 C623.089999,1324.58667 622.870001,1324.79333 622.57,1324.92 C622.269999,1325.04667 621.940002,1325.11 621.58,1325.11 C621.179998,1325.11 620.831668,1325.03667 620.535,1324.89 C620.238332,1324.74333 619.991668,1324.54667 619.795,1324.3 C619.598332,1324.05333 619.45,1323.76667 619.35,1323.44 C619.25,1323.11333 619.2,1322.76667 619.2,1322.4 C619.2,1322.03333 619.248333,1321.68667 619.345,1321.36 C619.441667,1321.03333 619.588332,1320.74833 619.785,1320.505 C619.981668,1320.26167 620.228332,1320.06833 620.525,1319.925 C620.821668,1319.78167 621.166665,1319.71 621.56,1319.71 C621.693334,1319.71 621.836666,1319.72333 621.99,1319.75 C622.143334,1319.77667 622.296666,1319.82167 622.45,1319.885 C622.603334,1319.94833 622.748333,1320.03167 622.885,1320.135 C623.021667,1320.23833 623.136666,1320.36667 623.23,1320.52 L623.25,1320.52 L623.25,1319.83 L624.1,1319.83 L624.1,1326.97 Z M627.88,1319.83 L628.68,1319.83 L628.68,1320.92 L628.7,1320.92 C628.906668,1320.5 629.159999,1320.19 629.46,1319.99 C629.760002,1319.79 630.139998,1319.69667 630.6,1319.71 L630.6,1320.61 C630.259998,1320.61 629.970001,1320.65667 629.73,1320.75 C629.489999,1320.84333 629.296667,1320.98 629.15,1321.16 C629.003333,1321.34 628.896667,1321.55833 628.83,1321.815 C628.763333,1322.07167 628.73,1322.36667 628.73,1322.7 L628.73,1325 L627.88,1325 L627.88,1319.83 Z M634.26,1323.37 C634.266667,1323.55667 634.31,1323.715 634.39,1323.845 C634.47,1323.975 634.574999,1324.07833 634.705,1324.155 C634.835001,1324.23167 634.981666,1324.28667 635.145,1324.32 C635.308334,1324.35333 635.476666,1324.37 635.65,1324.37 C635.783334,1324.37 635.923333,1324.36 636.07,1324.34 C636.216667,1324.32 636.351666,1324.28333 636.475,1324.23 C636.598334,1324.17667 636.7,1324.09833 636.78,1323.995 C636.86,1323.89167 636.9,1323.76 636.9,1323.6 C636.9,1323.38 636.816667,1323.21333 636.65,1323.1 C636.483332,1322.98667 636.275001,1322.895 636.025,1322.825 C635.774999,1322.755 635.503335,1322.69167 635.21,1322.635 C634.916665,1322.57833 634.645001,1322.49833 634.395,1322.395 C634.144999,1322.29167 633.936667,1322.14667 633.77,1321.96 C633.603333,1321.77333 633.52,1321.51334 633.52,1321.18 C633.52,1320.92 633.578333,1320.69667 633.695,1320.51 C633.811667,1320.32333 633.961666,1320.17167 634.145,1320.055 C634.328334,1319.93833 634.534999,1319.85167 634.765,1319.795 C634.995001,1319.73833 635.223332,1319.71 635.45,1319.71 C635.743335,1319.71 636.013332,1319.735 636.26,1319.785 C636.506668,1319.835 636.724999,1319.92167 636.915,1320.045 C637.105001,1320.16833 637.256666,1320.335 637.37,1320.545 C637.483334,1320.755 637.55,1321.01667 637.57,1321.33 L636.72,1321.33 C636.706667,1321.16333 636.663334,1321.025 636.59,1320.915 C636.516666,1320.805 636.423334,1320.71667 636.31,1320.65 C636.196666,1320.58333 636.071667,1320.535 635.935,1320.505 C635.798333,1320.475 635.660001,1320.46 635.52,1320.46 C635.393333,1320.46 635.265001,1320.47 635.135,1320.49 C635.004999,1320.51 634.886667,1320.545 634.78,1320.595 C634.673333,1320.645 634.586667,1320.71167 634.52,1320.795 C634.453333,1320.87833 634.42,1320.98667 634.42,1321.12 C634.42,1321.26667 634.471666,1321.38833 634.575,1321.485 C634.678334,1321.58167 634.809999,1321.66167 634.97,1321.725 C635.130001,1321.78833 635.309999,1321.84167 635.51,1321.885 C635.710001,1321.92833 635.909999,1321.97333 636.11,1322.02 C636.323334,1322.06667 636.531666,1322.12333 636.735,1322.19 C636.938334,1322.25667 637.118333,1322.345 637.275,1322.455 C637.431667,1322.565 637.558333,1322.70333 637.655,1322.87 C637.751667,1323.03667 637.8,1323.24333 637.8,1323.49 C637.8,1323.80333 637.735001,1324.06333 637.605,1324.27 C637.474999,1324.47667 637.305001,1324.64333 637.095,1324.77 C636.884999,1324.89667 636.648335,1324.985 636.385,1325.035 C636.121665,1325.085 635.860001,1325.11 635.6,1325.11 C635.313332,1325.11 635.040001,1325.08 634.78,1325.02 C634.519999,1324.96 634.290001,1324.86167 634.09,1324.725 C633.889999,1324.58833 633.730001,1324.40833 633.61,1324.185 C633.489999,1323.96167 633.423333,1323.69 633.41,1323.37 L634.26,1323.37 Z M642.42,1319.83 L643.45,1319.83 L643.45,1320.58 L642.42,1320.58 L642.42,1323.79 C642.42,1323.89 642.428333,1323.97 642.445,1324.03 C642.461667,1324.09 642.493333,1324.13667 642.54,1324.17 C642.586667,1324.20333 642.651666,1324.225 642.735,1324.235 C642.818334,1324.245 642.926666,1324.25 643.06,1324.25 L643.45,1324.25 L643.45,1325 L642.8,1325 C642.579999,1325 642.391667,1324.985 642.235,1324.955 C642.078333,1324.925 641.951667,1324.87 641.855,1324.79 C641.758333,1324.71 641.686667,1324.59667 641.64,1324.45 C641.593333,1324.30333 641.57,1324.11 641.57,1323.87 L641.57,1320.58 L640.69,1320.58 L640.69,1319.83 L641.57,1319.83 L641.57,1318.28 L642.42,1318.28 L642.42,1319.83 Z M651.17,1325 L650.37,1325 L650.37,1324.18 L650.35,1324.18 C650.169999,1324.5 649.940001,1324.735 649.66,1324.885 C649.379999,1325.035 649.050002,1325.11 648.67,1325.11 C648.329998,1325.11 648.046668,1325.065 647.82,1324.975 C647.593332,1324.885 647.410001,1324.75667 647.27,1324.59 C647.129999,1324.42333 647.031667,1324.225 646.975,1323.995 C646.918333,1323.765 646.89,1323.51 646.89,1323.23 L646.89,1319.83 L647.74,1319.83 L647.74,1323.33 C647.74,1323.65 647.833332,1323.90333 648.02,1324.09 C648.206668,1324.27667 648.463332,1324.37 648.79,1324.37 C649.050001,1324.37 649.274999,1324.33 649.465,1324.25 C649.655001,1324.17 649.813333,1324.05667 649.94,1323.91 C650.066667,1323.76333 650.161666,1323.59167 650.225,1323.395 C650.288334,1323.19833 650.32,1322.98333 650.32,1322.75 L650.32,1319.83 L651.17,1319.83 L651.17,1325 Z M657.28,1325 L656.37,1325 L654.45,1319.83 L655.4,1319.83 L656.85,1324.14 L656.87,1324.14 L658.28,1319.83 L659.17,1319.83 L657.28,1325 Z M667.57,1325 L666.67,1325 L665.62,1320.89 L665.6,1320.89 L664.56,1325 L663.64,1325 L661.98,1319.83 L662.92,1319.83 L664.09,1324.06 L664.11,1324.06 L665.15,1319.83 L666.08,1319.83 L667.16,1324.06 L667.18,1324.06 L668.34,1319.83 L669.22,1319.83 L667.57,1325 Z M673.92,1322.28 L672.12,1319.83 L673.21,1319.83 L674.45,1321.64 L675.74,1319.83 L676.76,1319.83 L674.98,1322.21 L676.98,1325 L675.89,1325 L674.45,1322.86 L673.01,1325 L671.98,1325 L673.92,1322.28 Z M682.24,1325.69 C682.14,1325.94333 682.041667,1326.15667 681.945,1326.33 C681.848333,1326.50333 681.741667,1326.645 681.625,1326.755 C681.508333,1326.865 681.378334,1326.945 681.235,1326.995 C681.091666,1327.045 680.926668,1327.07 680.74,1327.07 C680.64,1327.07 680.540001,1327.06333 680.44,1327.05 C680.34,1327.03667 680.243334,1327.01333 680.15,1326.98 L680.15,1326.2 C680.223334,1326.23333 680.308333,1326.26167 680.405,1326.285 C680.501667,1326.30833 680.583333,1326.32 680.65,1326.32 C680.823334,1326.32 680.968333,1326.27833 681.085,1326.195 C681.201667,1326.11167 681.29,1325.99333 681.35,1325.84 L681.7,1324.97 L679.65,1319.83 L680.61,1319.83 L682.12,1324.06 L682.14,1324.06 L683.59,1319.83 L684.49,1319.83 L682.24,1325.69 Z M687.29,1324.35 L690.41,1320.58 L687.49,1320.58 L687.49,1319.83 L691.51,1319.83 L691.51,1320.41 L688.35,1324.25 L691.65,1324.25 L691.65,1325 L687.29,1325 L687.29,1324.35 Z M500.32,1344.51 C500.32,1344.77667 500.328333,1345.075 500.345,1345.405 C500.361667,1345.735 500.415,1346.045 500.505,1346.335 C500.595,1346.625 500.739999,1346.87 500.94,1347.07 C501.140001,1347.27 501.419998,1347.37 501.78,1347.37 C502.140002,1347.37 502.419999,1347.27 502.62,1347.07 C502.820001,1346.87 502.965,1346.625 503.055,1346.335 C503.145,1346.045 503.198333,1345.735 503.215,1345.405 C503.231667,1345.075 503.24,1344.77667 503.24,1344.51 C503.24,1344.33667 503.238333,1344.145 503.235,1343.935 C503.231667,1343.725 503.215,1343.515 503.185,1343.305 C503.155,1343.095 503.111667,1342.89 503.055,1342.69 C502.998333,1342.49 502.915001,1342.315 502.805,1342.165 C502.694999,1342.015 502.556668,1341.89333 502.39,1341.8 C502.223333,1341.70667 502.020001,1341.66 501.78,1341.66 C501.539999,1341.66 501.336667,1341.70667 501.17,1341.8 C501.003332,1341.89333 500.865001,1342.015 500.755,1342.165 C500.644999,1342.315 500.561667,1342.49 500.505,1342.69 C500.448333,1342.89 500.405,1343.095 500.375,1343.305 C500.345,1343.515 500.328333,1343.725 500.325,1343.935 C500.321667,1344.145 500.32,1344.33667 500.32,1344.51 Z M499.42,1344.52 C499.42,1344.26 499.426667,1343.99 499.44,1343.71 C499.453333,1343.43 499.486666,1343.15667 499.54,1342.89 C499.593334,1342.62333 499.67,1342.37 499.77,1342.13 C499.870001,1341.89 500.006666,1341.68 500.18,1341.5 C500.353334,1341.32 500.571665,1341.17667 500.835,1341.07 C501.098335,1340.96333 501.413332,1340.91 501.78,1340.91 C502.146668,1340.91 502.461665,1340.96333 502.725,1341.07 C502.988335,1341.17667 503.206666,1341.32 503.38,1341.5 C503.553334,1341.68 503.689999,1341.89 503.79,1342.13 C503.89,1342.37 503.966666,1342.62333 504.02,1342.89 C504.073334,1343.15667 504.106667,1343.43 504.12,1343.71 C504.133333,1343.99 504.14,1344.26 504.14,1344.52 C504.14,1344.78 504.133333,1345.05 504.12,1345.33 C504.106667,1345.61 504.073334,1345.88333 504.02,1346.15 C503.966666,1346.41667 503.89,1346.66833 503.79,1346.905 C503.689999,1347.14167 503.553334,1347.35 503.38,1347.53 C503.206666,1347.71 502.990001,1347.85167 502.73,1347.955 C502.469999,1348.05833 502.153335,1348.11 501.78,1348.11 C501.413332,1348.11 501.098335,1348.05833 500.835,1347.955 C500.571665,1347.85167 500.353334,1347.71 500.18,1347.53 C500.006666,1347.35 499.870001,1347.14167 499.77,1346.905 C499.67,1346.66833 499.593334,1346.41667 499.54,1346.15 C499.486666,1345.88333 499.453333,1345.61 499.44,1345.33 C499.426667,1345.05 499.42,1344.78 499.42,1344.52 Z M510.62,1348 L509.77,1348 L509.77,1342.92 L507.93,1342.92 L507.93,1342.24 C508.170001,1342.24 508.403332,1342.22167 508.63,1342.185 C508.856668,1342.14833 509.061666,1342.08 509.245,1341.98 C509.428334,1341.88 509.583333,1341.74333 509.71,1341.57 C509.836667,1341.39667 509.923333,1341.17667 509.97,1340.91 L510.62,1340.91 L510.62,1348 Z M515.56,1343.42 C515.54,1343.06 515.576666,1342.72667 515.67,1342.42 C515.763334,1342.11333 515.908332,1341.84833 516.105,1341.625 C516.301668,1341.40167 516.546665,1341.22667 516.84,1341.1 C517.133335,1340.97333 517.466665,1340.91 517.84,1340.91 C518.146668,1340.91 518.434999,1340.955 518.705,1341.045 C518.975001,1341.135 519.209999,1341.265 519.41,1341.435 C519.610001,1341.605 519.768333,1341.81667 519.885,1342.07 C520.001667,1342.32333 520.06,1342.61667 520.06,1342.95 C520.06,1343.26333 520.011667,1343.54 519.915,1343.78 C519.818333,1344.02 519.690001,1344.235 519.53,1344.425 C519.369999,1344.615 519.186668,1344.78667 518.98,1344.94 C518.773332,1345.09333 518.560001,1345.24 518.34,1345.38 C518.119999,1345.51333 517.900001,1345.645 517.68,1345.775 C517.459999,1345.905 517.258334,1346.04333 517.075,1346.19 C516.891666,1346.33667 516.735001,1346.495 516.605,1346.665 C516.474999,1346.835 516.39,1347.03 516.35,1347.25 L519.99,1347.25 L519.99,1348 L515.36,1348 C515.393334,1347.58 515.468333,1347.22167 515.585,1346.925 C515.701667,1346.62833 515.849999,1346.37 516.03,1346.15 C516.210001,1345.93 516.413332,1345.73667 516.64,1345.57 C516.866668,1345.40333 517.103332,1345.24667 517.35,1345.1 C517.650002,1344.91333 517.913332,1344.74167 518.14,1344.585 C518.366668,1344.42833 518.554999,1344.27 518.705,1344.11 C518.855001,1343.95 518.968333,1343.77667 519.045,1343.59 C519.121667,1343.40333 519.16,1343.18667 519.16,1342.94 C519.16,1342.74667 519.123334,1342.57167 519.05,1342.415 C518.976666,1342.25833 518.878334,1342.12333 518.755,1342.01 C518.631666,1341.89667 518.486667,1341.81 518.32,1341.75 C518.153333,1341.69 517.976668,1341.66 517.79,1341.66 C517.543332,1341.66 517.331668,1341.71167 517.155,1341.815 C516.978332,1341.91833 516.833334,1342.05333 516.72,1342.22 C516.606666,1342.38667 516.525,1342.575 516.475,1342.785 C516.425,1342.995 516.403333,1343.20667 516.41,1343.42 L515.56,1343.42 Z M525.36,1343.95 C525.393334,1343.95667 525.423333,1343.96 525.45,1343.96 L525.73,1343.96 C525.910001,1343.96 526.081666,1343.935 526.245,1343.885 C526.408334,1343.835 526.551666,1343.76167 526.675,1343.665 C526.798334,1343.56833 526.896666,1343.44667 526.97,1343.3 C527.043334,1343.15333 527.08,1342.98667 527.08,1342.8 C527.08,1342.42 526.960001,1342.135 526.72,1341.945 C526.479999,1341.755 526.180002,1341.66 525.82,1341.66 C525.593332,1341.66 525.395001,1341.70167 525.225,1341.785 C525.054999,1341.86833 524.915001,1341.98 524.805,1342.12 C524.694999,1342.26 524.613334,1342.42333 524.56,1342.61 C524.506666,1342.79667 524.48,1342.99333 524.48,1343.2 L523.63,1343.2 C523.643333,1342.86 523.698333,1342.55 523.795,1342.27 C523.891667,1341.99 524.029999,1341.75 524.21,1341.55 C524.390001,1341.35 524.614999,1341.19333 524.885,1341.08 C525.155001,1340.96667 525.466665,1340.91 525.82,1340.91 C526.126668,1340.91 526.411665,1340.94833 526.675,1341.025 C526.938335,1341.10167 527.166666,1341.21667 527.36,1341.37 C527.553334,1341.52333 527.704999,1341.72 527.815,1341.96 C527.925001,1342.2 527.98,1342.48333 527.98,1342.81 C527.98,1343.13 527.886668,1343.41333 527.7,1343.66 C527.513332,1343.90667 527.280001,1344.09333 527,1344.22 L527,1344.24 C527.433335,1344.33333 527.754999,1344.53667 527.965,1344.85 C528.175001,1345.16333 528.28,1345.53333 528.28,1345.96 C528.28,1346.31334 528.215001,1346.625 528.085,1346.895 C527.954999,1347.165 527.780001,1347.39 527.56,1347.57 C527.339999,1347.75 527.081668,1347.885 526.785,1347.975 C526.488332,1348.065 526.173335,1348.11 525.84,1348.11 C525.479998,1348.11 525.153335,1348.06 524.86,1347.96 C524.566665,1347.86 524.316668,1347.71167 524.11,1347.515 C523.903332,1347.31833 523.745001,1347.07667 523.635,1346.79 C523.524999,1346.50333 523.473333,1346.17667 523.48,1345.81 L524.33,1345.81 C524.343333,1346.27 524.476665,1346.645 524.73,1346.935 C524.983335,1347.225 525.353331,1347.37 525.84,1347.37 C526.046668,1347.37 526.243332,1347.33833 526.43,1347.275 C526.616668,1347.21167 526.779999,1347.12167 526.92,1347.005 C527.060001,1346.88833 527.171666,1346.745 527.255,1346.575 C527.338334,1346.405 527.38,1346.21333 527.38,1346 C527.38,1345.78 527.34,1345.585 527.26,1345.415 C527.18,1345.245 527.073334,1345.10167 526.94,1344.985 C526.806666,1344.86833 526.648334,1344.78167 526.465,1344.725 C526.281666,1344.66833 526.083334,1344.64 525.87,1344.64 C525.689999,1344.64 525.520001,1344.65 525.36,1344.67 L525.36,1343.95 Z M534.63,1345.59 L534.63,1342.12 L534.61,1342.12 L532.25,1345.59 L534.63,1345.59 Z M535.43,1345.59 L536.39,1345.59 L536.39,1346.34 L535.43,1346.34 L535.43,1348 L534.63,1348 L534.63,1346.34 L531.52,1346.34 L531.52,1345.52 L534.75,1340.91 L535.43,1340.91 L535.43,1345.59 Z M544,1341.78 L541.14,1341.78 L540.76,1343.82 L540.78,1343.84 C540.933334,1343.66667 541.131665,1343.53833 541.375,1343.455 C541.618335,1343.37167 541.859999,1343.33 542.1,1343.33 C542.413335,1343.33 542.709999,1343.38 542.99,1343.48 C543.270001,1343.58 543.513332,1343.73167 543.72,1343.935 C543.926668,1344.13833 544.089999,1344.39167 544.21,1344.695 C544.330001,1344.99833 544.39,1345.35333 544.39,1345.76 C544.39,1346.06 544.338334,1346.35167 544.235,1346.635 C544.131666,1346.91833 543.976668,1347.17 543.77,1347.39 C543.563332,1347.61 543.305002,1347.785 542.995,1347.915 C542.684998,1348.045 542.323335,1348.11 541.91,1348.11 C541.603332,1348.11 541.315001,1348.065 541.045,1347.975 C540.774999,1347.885 540.536668,1347.755 540.33,1347.585 C540.123332,1347.415 539.960001,1347.20333 539.84,1346.95 C539.719999,1346.69667 539.656667,1346.41 539.65,1346.09 L540.5,1346.09 C540.513333,1346.27 540.558333,1346.43833 540.635,1346.595 C540.711667,1346.75167 540.814999,1346.88833 540.945,1347.005 C541.075001,1347.12167 541.228332,1347.21167 541.405,1347.275 C541.581668,1347.33833 541.776666,1347.37 541.99,1347.37 C542.190001,1347.37 542.381666,1347.335 542.565,1347.265 C542.748334,1347.195 542.908333,1347.09 543.045,1346.95 C543.181667,1346.81 543.29,1346.635 543.37,1346.425 C543.45,1346.215 543.49,1345.97 543.49,1345.69 C543.49,1345.45667 543.451667,1345.24167 543.375,1345.045 C543.298333,1344.84833 543.190001,1344.67833 543.05,1344.535 C542.909999,1344.39167 542.741668,1344.28 542.545,1344.2 C542.348332,1344.12 542.130001,1344.08 541.89,1344.08 C541.609999,1344.08 541.361668,1344.14167 541.145,1344.265 C540.928332,1344.38833 540.736668,1344.55 540.57,1344.75 L539.84,1344.71 L540.5,1341.03 L544,1341.03 L544,1341.78 Z M551.5,1342.72 C551.46,1342.4 551.336668,1342.14333 551.13,1341.95 C550.923332,1341.75667 550.650002,1341.66 550.31,1341.66 C549.949998,1341.66 549.660001,1341.74833 549.44,1341.925 C549.219999,1342.10167 549.048334,1342.325 548.925,1342.595 C548.801666,1342.865 548.716667,1343.15667 548.67,1343.47 C548.623333,1343.78333 548.596667,1344.07667 548.59,1344.35 L548.61,1344.37 C548.810001,1344.04333 549.058332,1343.80667 549.355,1343.66 C549.651668,1343.51333 549.993331,1343.44 550.38,1343.44 C550.720002,1343.44 551.024999,1343.49833 551.295,1343.615 C551.565001,1343.73167 551.791666,1343.89333 551.975,1344.1 C552.158334,1344.30667 552.3,1344.55 552.4,1344.83 C552.5,1345.11 552.55,1345.41333 552.55,1345.74 C552.55,1346 552.51,1346.27 552.43,1346.55 C552.35,1346.83 552.218334,1347.085 552.035,1347.315 C551.851666,1347.545 551.608335,1347.735 551.305,1347.885 C551.001665,1348.035 550.626669,1348.11 550.18,1348.11 C549.653331,1348.11 549.230002,1348.00333 548.91,1347.79 C548.589998,1347.57667 548.343334,1347.30334 548.17,1346.97 C547.996666,1346.63666 547.881667,1346.27 547.825,1345.87 C547.768333,1345.47 547.74,1345.08334 547.74,1344.71 C547.74,1344.22333 547.781666,1343.75167 547.865,1343.295 C547.948334,1342.83833 548.089999,1342.43334 548.29,1342.08 C548.490001,1341.72666 548.756665,1341.44333 549.09,1341.23 C549.423335,1341.01667 549.843331,1340.91 550.35,1340.91 C550.93667,1340.91 551.403332,1341.065 551.75,1341.375 C552.096668,1341.685 552.296666,1342.13333 552.35,1342.72 L551.5,1342.72 Z M550.22,1344.19 C549.979999,1344.19 549.770001,1344.23167 549.59,1344.315 C549.409999,1344.39833 549.256667,1344.51167 549.13,1344.655 C549.003333,1344.79833 548.908334,1344.96833 548.845,1345.165 C548.781666,1345.36167 548.75,1345.57 548.75,1345.79 C548.75,1346.01 548.783333,1346.21667 548.85,1346.41 C548.916667,1346.60333 549.011666,1346.77 549.135,1346.91 C549.258334,1347.05 549.411666,1347.16167 549.595,1347.245 C549.778334,1347.32833 549.986665,1347.37 550.22,1347.37 C550.453334,1347.37 550.658332,1347.32833 550.835,1347.245 C551.011668,1347.16167 551.159999,1347.04667 551.28,1346.9 C551.400001,1346.75333 551.491666,1346.585 551.555,1346.395 C551.618334,1346.205 551.65,1346.00667 551.65,1345.8 C551.65,1345.58 551.621667,1345.37167 551.565,1345.175 C551.508333,1344.97833 551.420001,1344.80833 551.3,1344.665 C551.179999,1344.52167 551.030001,1344.40667 550.85,1344.32 C550.669999,1344.23333 550.460001,1344.19 550.22,1344.19 Z M560.51,1341.76 C560.149998,1342.11334 559.813335,1342.53333 559.5,1343.02 C559.186665,1343.50667 558.908335,1344.02666 558.665,1344.58 C558.421665,1345.13334 558.223334,1345.70333 558.07,1346.29 C557.916666,1346.87667 557.823333,1347.44666 557.79,1348 L556.84,1348 C556.88,1347.4 556.978333,1346.815 557.135,1346.245 C557.291667,1345.675 557.493332,1345.12834 557.74,1344.605 C557.986668,1344.08166 558.271665,1343.58667 558.595,1343.12 C558.918335,1342.65333 559.266665,1342.22334 559.64,1341.83 L555.92,1341.83 L555.92,1341.03 L560.51,1341.03 L560.51,1341.76 Z M565.03,1342.75 C565.03,1342.94333 565.063333,1343.11167 565.13,1343.255 C565.196667,1343.39833 565.286666,1343.51667 565.4,1343.61 C565.513334,1343.70333 565.646666,1343.77333 565.8,1343.82 C565.953334,1343.86667 566.116666,1343.89 566.29,1343.89 C566.630002,1343.89 566.909999,1343.79 567.13,1343.59 C567.350001,1343.39 567.46,1343.11 567.46,1342.75 C567.46,1342.39 567.348334,1342.11833 567.125,1341.935 C566.901666,1341.75167 566.616668,1341.66 566.27,1341.66 C566.103332,1341.66 565.943334,1341.68333 565.79,1341.73 C565.636666,1341.77667 565.505001,1341.84667 565.395,1341.94 C565.284999,1342.03333 565.196667,1342.14667 565.13,1342.28 C565.063333,1342.41333 565.03,1342.57 565.03,1342.75 Z M564.13,1342.72 C564.13,1342.42667 564.186666,1342.16833 564.3,1341.945 C564.413334,1341.72167 564.566666,1341.53333 564.76,1341.38 C564.953334,1341.22667 565.174999,1341.11 565.425,1341.03 C565.675001,1340.95 565.936665,1340.91 566.21,1340.91 C566.596669,1340.91 566.926665,1340.96167 567.2,1341.065 C567.473335,1341.16833 567.694999,1341.305 567.865,1341.475 C568.035001,1341.645 568.16,1341.83833 568.24,1342.055 C568.32,1342.27167 568.36,1342.49333 568.36,1342.72 C568.36,1343.04 568.271668,1343.33167 568.095,1343.595 C567.918332,1343.85833 567.680002,1344.05667 567.38,1344.19 C567.806669,1344.32333 568.123332,1344.54167 568.33,1344.845 C568.536668,1345.14833 568.64,1345.52 568.64,1345.96 C568.64,1346.30667 568.578334,1346.61333 568.455,1346.88 C568.331666,1347.14667 568.165001,1347.37167 567.955,1347.555 C567.744999,1347.73833 567.496668,1347.87667 567.21,1347.97 C566.923332,1348.06333 566.616668,1348.11 566.29,1348.11 C565.949998,1348.11 565.633335,1348.06667 565.34,1347.98 C565.046665,1347.89333 564.791668,1347.76 564.575,1347.58 C564.358332,1347.4 564.188334,1347.175 564.065,1346.905 C563.941666,1346.635 563.88,1346.32 563.88,1345.96 C563.88,1345.54 563.986666,1345.175 564.2,1344.865 C564.413334,1344.555 564.719998,1344.33 565.12,1344.19 C564.819998,1344.07 564.580001,1343.875 564.4,1343.605 C564.219999,1343.335 564.13,1343.04 564.13,1342.72 Z M564.78,1346 C564.78,1346.42667 564.921665,1346.76167 565.205,1347.005 C565.488335,1347.24833 565.849998,1347.37 566.29,1347.37 C566.503334,1347.37 566.698332,1347.335 566.875,1347.265 C567.051668,1347.195 567.204999,1347.09833 567.335,1346.975 C567.465001,1346.85167 567.565,1346.70667 567.635,1346.54 C567.705,1346.37333 567.74,1346.19 567.74,1345.99 C567.74,1345.79667 567.701667,1345.61833 567.625,1345.455 C567.548333,1345.29167 567.443334,1345.15 567.31,1345.03 C567.176666,1344.91 567.021668,1344.815 566.845,1344.745 C566.668332,1344.675 566.480001,1344.64 566.28,1344.64 C566.073332,1344.64 565.878334,1344.67167 565.695,1344.735 C565.511666,1344.79833 565.351667,1344.89 565.215,1345.01 C565.078333,1345.13 564.971667,1345.27333 564.895,1345.44 C564.818333,1345.60667 564.78,1345.79333 564.78,1346 Z M572.88,1346.29 C572.913334,1346.63667 573.053332,1346.90333 573.3,1347.09 C573.546668,1347.27667 573.839998,1347.37 574.18,1347.37 C574.700003,1347.37 575.089999,1347.145 575.35,1346.695 C575.610001,1346.245 575.753333,1345.55667 575.78,1344.63 L575.76,1344.61 C575.599999,1344.91 575.373335,1345.14833 575.08,1345.325 C574.786665,1345.50167 574.466668,1345.59 574.12,1345.59 C573.759998,1345.59 573.440001,1345.53167 573.16,1345.415 C572.879999,1345.29833 572.645001,1345.13667 572.455,1344.93 C572.264999,1344.72333 572.121667,1344.47333 572.025,1344.18 C571.928333,1343.88667 571.88,1343.56667 571.88,1343.22 C571.88,1342.88 571.936666,1342.56833 572.05,1342.285 C572.163334,1342.00167 572.323332,1341.75833 572.53,1341.555 C572.736668,1341.35167 572.983332,1341.19333 573.27,1341.08 C573.556668,1340.96667 573.869998,1340.91 574.21,1340.91 C574.543335,1340.91 574.856665,1340.96167 575.15,1341.065 C575.443335,1341.16833 575.699999,1341.34667 575.92,1341.6 C576.140001,1341.85333 576.314999,1342.19833 576.445,1342.635 C576.575001,1343.07167 576.64,1343.62666 576.64,1344.3 C576.64,1345.52667 576.445002,1346.46833 576.055,1347.125 C575.664998,1347.78167 575.040004,1348.11 574.18,1348.11 C573.586664,1348.11 573.093335,1347.96 572.7,1347.66 C572.306665,1347.36 572.083334,1346.90334 572.03,1346.29 L572.88,1346.29 Z M575.63,1343.28 C575.63,1343.06 575.598334,1342.85333 575.535,1342.66 C575.471666,1342.46667 575.378334,1342.295 575.255,1342.145 C575.131666,1341.995 574.980001,1341.87667 574.8,1341.79 C574.619999,1341.70333 574.410001,1341.66 574.17,1341.66 C573.916665,1341.66 573.701668,1341.70667 573.525,1341.8 C573.348332,1341.89333 573.205001,1342.01833 573.095,1342.175 C572.984999,1342.33167 572.905,1342.51 572.855,1342.71 C572.805,1342.91 572.78,1343.12 572.78,1343.34 C572.78,1343.53333 572.815,1343.72 572.885,1343.9 C572.955,1344.08 573.051666,1344.24 573.175,1344.38 C573.298334,1344.52 573.444999,1344.63167 573.615,1344.715 C573.785001,1344.79833 573.973332,1344.84 574.18,1344.84 C574.400001,1344.84 574.599999,1344.79833 574.78,1344.715 C574.960001,1344.63167 575.113333,1344.51833 575.24,1344.375 C575.366667,1344.23167 575.463333,1344.065 575.53,1343.875 C575.596667,1343.685 575.63,1343.48667 575.63,1343.28 Z M500.008,1384.004 L500.96,1384.004 L500.96,1393.188 L506.56,1393.188 L506.56,1394 L500.008,1394 L500.008,1384.004 Z M507.372,1384.004 L508.254,1384.004 L508.254,1385.418 L507.372,1385.418 L507.372,1384.004 Z M507.372,1386.776 L508.254,1386.776 L508.254,1394 L507.372,1394 L507.372,1386.776 Z M516.052,1393.412 C516.052,1393.944 515.993667,1394.42466 515.877,1394.854 C515.760333,1395.28334 515.576001,1395.64733 515.324,1395.946 C515.071999,1396.24467 514.743002,1396.47333 514.337,1396.632 C513.930998,1396.79067 513.434003,1396.87 512.846,1396.87 C512.481998,1396.87 512.127335,1396.828 511.782,1396.744 C511.436665,1396.66 511.126335,1396.52933 510.851,1396.352 C510.575665,1396.17467 510.347001,1395.94833 510.165,1395.673 C509.982999,1395.39767 509.878,1395.06867 509.85,1394.686 L510.732,1394.686 C510.778667,1394.95667 510.869666,1395.183 511.005,1395.365 C511.140334,1395.547 511.303666,1395.694 511.495,1395.806 C511.686334,1395.918 511.898665,1395.99967 512.132,1396.051 C512.365335,1396.10233 512.603332,1396.128 512.846,1396.128 C513.667337,1396.128 514.259998,1395.89467 514.624,1395.428 C514.988002,1394.96133 515.17,1394.28934 515.17,1393.412 L515.17,1392.432 L515.142,1392.432 C514.936666,1392.88 514.635669,1393.23933 514.239,1393.51 C513.842331,1393.78067 513.378003,1393.916 512.846,1393.916 C512.26733,1393.916 511.772669,1393.82033 511.362,1393.629 C510.951331,1393.43767 510.613001,1393.174 510.347,1392.838 C510.080999,1392.502 509.887334,1392.10767 509.766,1391.655 C509.644666,1391.20233 509.584,1390.71934 509.584,1390.206 C509.584,1389.71133 509.656333,1389.24234 509.801,1388.799 C509.945667,1388.35566 510.155665,1387.96833 510.431,1387.637 C510.706335,1387.30567 511.046998,1387.04433 511.453,1386.853 C511.859002,1386.66167 512.323331,1386.566 512.846,1386.566 C513.116668,1386.566 513.370999,1386.60333 513.609,1386.678 C513.847001,1386.75267 514.063999,1386.85767 514.26,1386.993 C514.456001,1387.12833 514.630999,1387.28467 514.785,1387.462 C514.939001,1387.63933 515.058,1387.826 515.142,1388.022 L515.17,1388.022 L515.17,1386.776 L516.052,1386.776 L516.052,1393.412 Z M512.846,1393.174 C513.228669,1393.174 513.564665,1393.09233 513.854,1392.929 C514.143335,1392.76567 514.385999,1392.551 514.582,1392.285 C514.778001,1392.019 514.925,1391.71334 515.023,1391.368 C515.121,1391.02266 515.17,1390.668 515.17,1390.304 C515.17,1389.94933 515.128,1389.59467 515.044,1389.24 C514.96,1388.88533 514.824668,1388.56333 514.638,1388.274 C514.451332,1387.98467 514.211001,1387.75133 513.917,1387.574 C513.622999,1387.39667 513.266002,1387.308 512.846,1387.308 C512.425998,1387.308 512.066668,1387.39433 511.768,1387.567 C511.469332,1387.73967 511.222001,1387.966 511.026,1388.246 C510.829999,1388.526 510.687667,1388.84566 510.599,1389.205 C510.510333,1389.56434 510.466,1389.93066 510.466,1390.304 C510.466,1390.668 510.512666,1391.02266 510.606,1391.368 C510.699334,1391.71334 510.843999,1392.019 511.04,1392.285 C511.236001,1392.551 511.483332,1392.76567 511.782,1392.929 C512.080668,1393.09233 512.435331,1393.174 512.846,1393.174 Z M517.718,1384.004 L518.6,1384.004 L518.6,1388.022 L518.628,1388.022 C518.796001,1387.58333 519.094665,1387.231 519.524,1386.965 C519.953335,1386.699 520.424664,1386.566 520.938,1386.566 C521.442003,1386.566 521.864332,1386.63133 522.205,1386.762 C522.545668,1386.89267 522.818666,1387.077 523.024,1387.315 C523.229334,1387.553 523.374,1387.84466 523.458,1388.19 C523.542,1388.53534 523.584,1388.92266 523.584,1389.352 L523.584,1394 L522.702,1394 L522.702,1389.492 C522.702,1389.184 522.674,1388.897 522.618,1388.631 C522.562,1388.365 522.464001,1388.134 522.324,1387.938 C522.183999,1387.742 521.995001,1387.588 521.757,1387.476 C521.518999,1387.364 521.222668,1387.308 520.868,1387.308 C520.513332,1387.308 520.198335,1387.371 519.923,1387.497 C519.647665,1387.623 519.414334,1387.79567 519.223,1388.015 C519.031666,1388.23433 518.882334,1388.49567 518.775,1388.799 C518.667666,1389.10233 518.609333,1389.43133 518.6,1389.786 L518.6,1394 L517.718,1394 L517.718,1384.004 Z M526.65,1386.776 L528.12,1386.776 L528.12,1387.518 L526.65,1387.518 L526.65,1392.39 C526.65,1392.67933 526.689666,1392.90567 526.769,1393.069 C526.848334,1393.23233 527.046665,1393.32333 527.364,1393.342 C527.616001,1393.342 527.867999,1393.328 528.12,1393.3 L528.12,1394.042 C527.989333,1394.042 527.858667,1394.04667 527.728,1394.056 C527.597333,1394.06533 527.466667,1394.07 527.336,1394.07 C526.747997,1394.07 526.337334,1393.95567 526.104,1393.727 C525.870665,1393.49833 525.758667,1393.076 525.768,1392.46 L525.768,1387.518 L524.508,1387.518 L524.508,1386.776 L525.768,1386.776 L525.768,1384.606 L526.65,1384.606 L526.65,1386.776 Z M529.716,1392.446 L531.27,1392.446 L531.27,1393.86 C531.27,1394.392 531.148668,1394.84933 530.906,1395.232 C530.663332,1395.61467 530.271336,1395.88533 529.73,1396.044 L529.73,1395.344 C529.888667,1395.288 530.021666,1395.20633 530.129,1395.099 C530.236334,1394.99167 530.322666,1394.875 530.388,1394.749 C530.453334,1394.623 530.497667,1394.49467 530.521,1394.364 C530.544333,1394.23333 530.551333,1394.112 530.542,1394 L529.716,1394 L529.716,1392.446 Z M537.43,1384.004 L542.134,1384.004 C543.086005,1384.004 543.830331,1384.23733 544.367,1384.704 C544.903669,1385.17067 545.172,1385.81 545.172,1386.622 C545.172,1387.22867 545.034335,1387.76066 544.759,1388.218 C544.483665,1388.67534 544.04267,1388.988 543.436,1389.156 L543.436,1389.184 C543.725335,1389.24 543.960999,1389.33333 544.143,1389.464 C544.325001,1389.59467 544.469666,1389.751 544.577,1389.933 C544.684334,1390.115 544.763666,1390.318 544.815,1390.542 C544.866334,1390.766 544.906,1390.99933 544.934,1391.242 C544.952667,1391.48467 544.966667,1391.732 544.976,1391.984 C544.985333,1392.236 545.008666,1392.48333 545.046,1392.726 C545.083334,1392.96867 545.137,1393.19967 545.207,1393.419 C545.277,1393.63833 545.381999,1393.832 545.522,1394 L544.038,1394 C543.944666,1393.89733 543.881667,1393.75733 543.849,1393.58 C543.816333,1393.40267 543.795333,1393.20433 543.786,1392.985 C543.776667,1392.76567 543.767333,1392.53 543.758,1392.278 C543.748667,1392.026 543.720667,1391.77867 543.674,1391.536 C543.636666,1391.29333 543.59,1391.06233 543.534,1390.843 C543.478,1390.62367 543.389334,1390.43233 543.268,1390.269 C543.146666,1390.10567 542.988001,1389.975 542.792,1389.877 C542.595999,1389.779 542.334668,1389.73 542.008,1389.73 L538.76,1389.73 L538.76,1394 L537.43,1394 L537.43,1384.004 Z M541.532,1388.61 C541.840002,1388.61 542.133999,1388.58667 542.414,1388.54 C542.694001,1388.49333 542.938999,1388.40233 543.149,1388.267 C543.359001,1388.13167 543.526999,1387.94967 543.653,1387.721 C543.779001,1387.49233 543.842,1387.196 543.842,1386.832 C543.842,1386.328 543.702001,1385.91733 543.422,1385.6 C543.141999,1385.28267 542.689336,1385.124 542.064,1385.124 L538.76,1385.124 L538.76,1388.61 L541.532,1388.61 Z M551.85,1389.688 C551.831333,1389.408 551.768334,1389.142 551.661,1388.89 C551.553666,1388.638 551.409001,1388.421 551.227,1388.239 C551.044999,1388.057 550.830335,1387.91233 550.583,1387.805 C550.335665,1387.69767 550.062668,1387.644 549.764,1387.644 C549.455998,1387.644 549.178335,1387.69767 548.931,1387.805 C548.683665,1387.91233 548.471334,1388.05933 548.294,1388.246 C548.116666,1388.43267 547.976667,1388.64967 547.874,1388.897 C547.771333,1389.14433 547.710667,1389.408 547.692,1389.688 L551.85,1389.688 Z M552.998,1391.704 C552.839333,1392.516 552.489336,1393.12733 551.948,1393.538 C551.406664,1393.94867 550.725337,1394.154 549.904,1394.154 C549.32533,1394.154 548.823669,1394.06067 548.399,1393.874 C547.974331,1393.68733 547.617335,1393.426 547.328,1393.09 C547.038665,1392.754 546.821667,1392.35267 546.677,1391.886 C546.532333,1391.41933 546.450667,1390.91067 546.432,1390.36 C546.432,1389.80933 546.515999,1389.30534 546.684,1388.848 C546.852001,1388.39066 547.087665,1387.994 547.391,1387.658 C547.694335,1387.322 548.053665,1387.06067 548.469,1386.874 C548.884335,1386.68733 549.339331,1386.594 549.834,1386.594 C550.478003,1386.594 551.012331,1386.727 551.437,1386.993 C551.861669,1387.259 552.202332,1387.59733 552.459,1388.008 C552.715668,1388.41867 552.893,1388.86666 552.991,1389.352 C553.089,1389.83734 553.128667,1390.29933 553.11,1390.738 L547.692,1390.738 C547.682667,1391.05533 547.72,1391.35633 547.804,1391.641 C547.888,1391.92567 548.023332,1392.17767 548.21,1392.397 C548.396668,1392.61633 548.634665,1392.79133 548.924,1392.922 C549.213335,1393.05267 549.553998,1393.118 549.946,1393.118 C550.450003,1393.118 550.862998,1393.00133 551.185,1392.768 C551.507002,1392.53467 551.719333,1392.18 551.822,1391.704 L552.998,1391.704 Z M560.586,1393.384 C560.586,1394.56934 560.315336,1395.456 559.774,1396.044 C559.232664,1396.632 558.383339,1396.926 557.226,1396.926 C556.889998,1396.926 556.547002,1396.88867 556.197,1396.814 C555.846998,1396.73933 555.529668,1396.618 555.245,1396.45 C554.960332,1396.282 554.724668,1396.06267 554.538,1395.792 C554.351332,1395.52133 554.248667,1395.19 554.23,1394.798 L555.42,1394.798 C555.429333,1395.01267 555.496999,1395.19467 555.623,1395.344 C555.749001,1395.49333 555.902999,1395.61467 556.085,1395.708 C556.267001,1395.80133 556.465332,1395.869 556.68,1395.911 C556.894668,1395.953 557.099999,1395.974 557.296,1395.974 C557.688002,1395.974 558.019332,1395.90633 558.29,1395.771 C558.560668,1395.63567 558.784666,1395.449 558.962,1395.211 C559.139334,1394.973 559.267666,1394.686 559.347,1394.35 C559.426334,1394.014 559.466,1393.64534 559.466,1393.244 L559.466,1392.768 L559.438,1392.768 C559.232666,1393.216 558.922335,1393.545 558.507,1393.755 C558.091665,1393.965 557.650669,1394.07 557.184,1394.07 C556.642664,1394.07 556.171335,1393.972 555.77,1393.776 C555.368665,1393.58 555.032668,1393.31633 554.762,1392.985 C554.491332,1392.65367 554.288334,1392.26634 554.153,1391.823 C554.017666,1391.37966 553.95,1390.91067 553.95,1390.416 C553.95,1389.98666 554.005999,1389.54567 554.118,1389.093 C554.230001,1388.64033 554.416665,1388.22967 554.678,1387.861 C554.939335,1387.49233 555.284665,1387.189 555.714,1386.951 C556.143335,1386.713 556.670664,1386.594 557.296,1386.594 C557.753336,1386.594 558.173331,1386.69433 558.556,1386.895 C558.938669,1387.09567 559.237332,1387.39666 559.452,1387.798 L559.466,1387.798 L559.466,1386.762 L560.586,1386.762 L560.586,1393.384 Z M557.254,1393.034 C557.646002,1393.034 557.979665,1392.95233 558.255,1392.789 C558.530335,1392.62567 558.751999,1392.411 558.92,1392.145 C559.088001,1391.879 559.211666,1391.578 559.291,1391.242 C559.370334,1390.906 559.41,1390.57 559.41,1390.234 C559.41,1389.91667 559.372667,1389.604 559.298,1389.296 C559.223333,1388.988 559.104334,1388.71033 558.941,1388.463 C558.777666,1388.21567 558.565335,1388.01733 558.304,1387.868 C558.042665,1387.71867 557.725335,1387.644 557.352,1387.644 C556.969331,1387.644 556.642668,1387.71633 556.372,1387.861 C556.101332,1388.00567 555.879668,1388.19933 555.707,1388.442 C555.534332,1388.68467 555.408334,1388.96467 555.329,1389.282 C555.249666,1389.59933 555.21,1389.93066 555.21,1390.276 C555.21,1390.60267 555.242666,1390.92933 555.308,1391.256 C555.373334,1391.58267 555.485333,1391.879 555.644,1392.145 C555.802667,1392.411 556.012665,1392.62567 556.274,1392.789 C556.535335,1392.95233 556.861998,1393.034 557.254,1393.034 Z M568.37,1394 L567.25,1394 L567.25,1392.852 L567.222,1392.852 C566.969999,1393.3 566.648002,1393.629 566.256,1393.839 C565.863998,1394.049 565.402003,1394.154 564.87,1394.154 C564.393998,1394.154 563.997335,1394.091 563.68,1393.965 C563.362665,1393.839 563.106001,1393.65933 562.91,1393.426 C562.713999,1393.19267 562.576334,1392.915 562.497,1392.593 C562.417666,1392.271 562.378,1391.914 562.378,1391.522 L562.378,1386.762 L563.568,1386.762 L563.568,1391.662 C563.568,1392.11 563.698665,1392.46467 563.96,1392.726 C564.221335,1392.98733 564.580664,1393.118 565.038,1393.118 C565.402002,1393.118 565.716999,1393.062 565.983,1392.95 C566.249001,1392.838 566.470666,1392.67933 566.648,1392.474 C566.825334,1392.26867 566.958333,1392.02833 567.047,1391.753 C567.135667,1391.47767 567.18,1391.17667 567.18,1390.85 L567.18,1386.762 L568.37,1386.762 L568.37,1394 Z M570.232,1384.004 L571.422,1384.004 L571.422,1394 L570.232,1394 L570.232,1384.004 Z M579.682,1393.972 C579.476666,1394.09333 579.192002,1394.154 578.828,1394.154 C578.519998,1394.154 578.275001,1394.06767 578.093,1393.895 C577.910999,1393.72233 577.82,1393.44 577.82,1393.048 C577.493332,1393.44 577.113002,1393.72233 576.679,1393.895 C576.244998,1394.06767 575.776003,1394.154 575.272,1394.154 C574.945332,1394.154 574.635001,1394.11667 574.341,1394.042 C574.046999,1393.96733 573.792668,1393.85067 573.578,1393.692 C573.363332,1393.53333 573.193001,1393.32567 573.067,1393.069 C572.940999,1392.81233 572.878,1392.502 572.878,1392.138 C572.878,1391.72733 572.947999,1391.39133 573.088,1391.13 C573.228001,1390.86867 573.412332,1390.65633 573.641,1390.493 C573.869668,1390.32967 574.130999,1390.206 574.425,1390.122 C574.719001,1390.038 575.019998,1389.968 575.328,1389.912 C575.654668,1389.84667 575.964999,1389.79767 576.259,1389.765 C576.553001,1389.73233 576.811999,1389.68567 577.036,1389.625 C577.260001,1389.56433 577.437333,1389.47567 577.568,1389.359 C577.698667,1389.24233 577.764,1389.072 577.764,1388.848 C577.764,1388.58667 577.715,1388.37667 577.617,1388.218 C577.519,1388.05933 577.393001,1387.938 577.239,1387.854 C577.084999,1387.77 576.912334,1387.714 576.721,1387.686 C576.529666,1387.658 576.340668,1387.644 576.154,1387.644 C575.649997,1387.644 575.230002,1387.73967 574.894,1387.931 C574.557998,1388.12233 574.376,1388.484 574.348,1389.016 L573.158,1389.016 C573.176667,1388.568 573.269999,1388.19 573.438,1387.882 C573.606001,1387.574 573.829999,1387.32433 574.11,1387.133 C574.390001,1386.94167 574.709665,1386.804 575.069,1386.72 C575.428335,1386.636 575.813331,1386.594 576.224,1386.594 C576.550668,1386.594 576.874998,1386.61733 577.197,1386.664 C577.519002,1386.71067 577.810665,1386.80633 578.072,1386.951 C578.333335,1387.09567 578.543333,1387.29867 578.702,1387.56 C578.860667,1387.82133 578.94,1388.162 578.94,1388.582 L578.94,1392.306 C578.94,1392.586 578.956333,1392.79133 578.989,1392.922 C579.021667,1393.05267 579.131332,1393.118 579.318,1393.118 C579.420667,1393.118 579.541999,1393.09467 579.682,1393.048 L579.682,1393.972 Z M577.75,1390.262 C577.600666,1390.374 577.404668,1390.45567 577.162,1390.507 C576.919332,1390.55833 576.665001,1390.60033 576.399,1390.633 C576.132999,1390.66567 575.864668,1390.703 575.594,1390.745 C575.323332,1390.787 575.080668,1390.85467 574.866,1390.948 C574.651332,1391.04133 574.476334,1391.17433 574.341,1391.347 C574.205666,1391.51967 574.138,1391.75533 574.138,1392.054 C574.138,1392.25 574.177666,1392.41567 574.257,1392.551 C574.336334,1392.68633 574.438999,1392.796 574.565,1392.88 C574.691001,1392.964 574.837999,1393.02467 575.006,1393.062 C575.174001,1393.09933 575.351332,1393.118 575.538,1393.118 C575.930002,1393.118 576.265999,1393.06433 576.546,1392.957 C576.826001,1392.84967 577.054666,1392.71433 577.232,1392.551 C577.409334,1392.38767 577.54,1392.21033 577.624,1392.019 C577.708,1391.82767 577.75,1391.648 577.75,1391.48 L577.75,1390.262 Z M580.746,1386.762 L581.866,1386.762 L581.866,1388.288 L581.894,1388.288 C582.183335,1387.7 582.537998,1387.266 582.958,1386.986 C583.378002,1386.706 583.909997,1386.57533 584.554,1386.594 L584.554,1387.854 C584.077998,1387.854 583.672002,1387.91933 583.336,1388.05 C582.999998,1388.18067 582.729334,1388.372 582.524,1388.624 C582.318666,1388.876 582.169334,1389.18166 582.076,1389.541 C581.982666,1389.90034 581.936,1390.31333 581.936,1390.78 L581.936,1394 L580.746,1394 L580.746,1386.762 Z M585.716,1392.446 L587.27,1392.446 L587.27,1393.86 C587.27,1394.392 587.148668,1394.84933 586.906,1395.232 C586.663332,1395.61467 586.271336,1395.88533 585.73,1396.044 L585.73,1395.344 C585.888667,1395.288 586.021666,1395.20633 586.129,1395.099 C586.236334,1394.99167 586.322666,1394.875 586.388,1394.749 C586.453334,1394.623 586.497667,1394.49467 586.521,1394.364 C586.544333,1394.23333 586.551333,1394.112 586.542,1394 L585.716,1394 L585.716,1392.446 Z M595.502,1388.05 L597.728,1388.05 C598.120002,1388.05 598.441999,1387.95667 598.694,1387.77 C598.946001,1387.58333 599.072,1387.28 599.072,1386.86 C599.072,1386.62667 599.03,1386.43533 598.946,1386.286 C598.862,1386.13667 598.750001,1386.02 598.61,1385.936 C598.469999,1385.852 598.309001,1385.79367 598.127,1385.761 C597.944999,1385.72833 597.756001,1385.712 597.56,1385.712 L595.502,1385.712 L595.502,1388.05 Z M593.304,1384.004 L598.008,1384.004 C598.484002,1384.004 598.917998,1384.046 599.31,1384.13 C599.702002,1384.214 600.037999,1384.35167 600.318,1384.543 C600.598001,1384.73433 600.814999,1384.98867 600.969,1385.306 C601.123001,1385.62333 601.2,1386.01533 601.2,1386.482 C601.2,1386.986 601.085668,1387.406 600.857,1387.742 C600.628332,1388.078 600.290002,1388.35333 599.842,1388.568 C600.458003,1388.74533 600.917665,1389.05566 601.221,1389.499 C601.524335,1389.94234 601.676,1390.47666 601.676,1391.102 C601.676,1391.606 601.578001,1392.04233 601.382,1392.411 C601.185999,1392.77967 600.922335,1393.08067 600.591,1393.314 C600.259665,1393.54733 599.881669,1393.72 599.457,1393.832 C599.032331,1393.944 598.596002,1394 598.148,1394 L593.304,1394 L593.304,1384.004 Z M595.502,1392.292 L597.854,1392.292 C598.068668,1392.292 598.273999,1392.271 598.47,1392.229 C598.666001,1392.187 598.838666,1392.117 598.988,1392.019 C599.137334,1391.921 599.256333,1391.788 599.345,1391.62 C599.433667,1391.452 599.478,1391.23733 599.478,1390.976 C599.478,1390.46266 599.333335,1390.09633 599.044,1389.877 C598.754665,1389.65767 598.372002,1389.548 597.896,1389.548 L595.502,1389.548 L595.502,1392.292 Z M604.714,1390.388 C604.714,1390.67733 604.742,1390.95967 604.798,1391.235 C604.854,1391.51033 604.949666,1391.75767 605.085,1391.977 C605.220334,1392.19633 605.399999,1392.37133 605.624,1392.502 C605.848001,1392.63267 606.127998,1392.698 606.464,1392.698 C606.800002,1392.698 607.082332,1392.63267 607.311,1392.502 C607.539668,1392.37133 607.721666,1392.19633 607.857,1391.977 C607.992334,1391.75767 608.088,1391.51033 608.144,1391.235 C608.2,1390.95967 608.228,1390.67733 608.228,1390.388 C608.228,1390.09867 608.2,1389.814 608.144,1389.534 C608.088,1389.254 607.992334,1389.00667 607.857,1388.792 C607.721666,1388.57733 607.539668,1388.40233 607.311,1388.267 C607.082332,1388.13167 606.800002,1388.064 606.464,1388.064 C606.127998,1388.064 605.848001,1388.13167 605.624,1388.267 C605.399999,1388.40233 605.220334,1388.57733 605.085,1388.792 C604.949666,1389.00667 604.854,1389.254 604.798,1389.534 C604.742,1389.814 604.714,1390.09867 604.714,1390.388 Z M602.726,1390.388 C602.726,1389.80933 602.814666,1389.28434 602.992,1388.813 C603.169334,1388.34166 603.421332,1387.94033 603.748,1387.609 C604.074668,1387.27767 604.466664,1387.021 604.924,1386.839 C605.381336,1386.657 605.894664,1386.566 606.464,1386.566 C607.033336,1386.566 607.548998,1386.657 608.011,1386.839 C608.473002,1387.021 608.867332,1387.27767 609.194,1387.609 C609.520668,1387.94033 609.772666,1388.34166 609.95,1388.813 C610.127334,1389.28434 610.216,1389.80933 610.216,1390.388 C610.216,1390.96667 610.127334,1391.48933 609.95,1391.956 C609.772666,1392.42267 609.520668,1392.82167 609.194,1393.153 C608.867332,1393.48433 608.473002,1393.73867 608.011,1393.916 C607.548998,1394.09333 607.033336,1394.182 606.464,1394.182 C605.894664,1394.182 605.381336,1394.09333 604.924,1393.916 C604.466664,1393.73867 604.074668,1393.48433 603.748,1393.153 C603.421332,1392.82167 603.169334,1392.42267 602.992,1391.956 C602.814666,1391.48933 602.726,1390.96667 602.726,1390.388 Z M611.56,1384.004 L613.548,1384.004 L613.548,1394 L611.56,1394 L611.56,1384.004 Z M620.254,1390.36 C620.254,1390.06133 620.226,1389.77433 620.17,1389.499 C620.114,1389.22367 620.018334,1388.981 619.883,1388.771 C619.747666,1388.561 619.572668,1388.39067 619.358,1388.26 C619.143332,1388.12933 618.872668,1388.064 618.546,1388.064 C618.219332,1388.064 617.944001,1388.12933 617.72,1388.26 C617.495999,1388.39067 617.316334,1388.56333 617.181,1388.778 C617.045666,1388.99267 616.947667,1389.23767 616.887,1389.513 C616.826333,1389.78833 616.796,1390.07533 616.796,1390.374 C616.796,1390.654 616.828666,1390.934 616.894,1391.214 C616.959334,1391.494 617.064333,1391.74367 617.209,1391.963 C617.353667,1392.18233 617.535666,1392.35967 617.755,1392.495 C617.974334,1392.63033 618.237998,1392.698 618.546,1392.698 C618.872668,1392.698 619.145666,1392.63267 619.365,1392.502 C619.584334,1392.37133 619.759333,1392.19633 619.89,1391.977 C620.020667,1391.75767 620.114,1391.508 620.17,1391.228 C620.226,1390.948 620.254,1390.65867 620.254,1390.36 Z M620.282,1393.076 L620.254,1393.076 C620.020665,1393.468 619.715002,1393.75033 619.337,1393.923 C618.958998,1394.09567 618.532002,1394.182 618.056,1394.182 C617.514664,1394.182 617.038669,1394.077 616.628,1393.867 C616.217331,1393.657 615.879001,1393.37234 615.613,1393.013 C615.346999,1392.65366 615.146334,1392.24067 615.011,1391.774 C614.875666,1391.30733 614.808,1390.822 614.808,1390.318 C614.808,1389.83266 614.875666,1389.36367 615.011,1388.911 C615.146334,1388.45833 615.346999,1388.05934 615.613,1387.714 C615.879001,1387.36866 616.212665,1387.091 616.614,1386.881 C617.015335,1386.671 617.481997,1386.566 618.014,1386.566 C618.443335,1386.566 618.851665,1386.657 619.239,1386.839 C619.626335,1387.021 619.931999,1387.28933 620.156,1387.644 L620.184,1387.644 L620.184,1384.004 L622.172,1384.004 L622.172,1394 L620.282,1394 L620.282,1393.076 Z" id="Aa-ABCDEFGHIJKLMNOPQ"></path>
        </g>
    </g>
</svg>