<?xml version="1.0" encoding="UTF-8"?>
<svg width="210px" height="234px" viewBox="0 0 210 234" version="1.1" xmlns="http://www.w3.org/2000/svg" xmlns:xlink="http://www.w3.org/1999/xlink">
    <!-- Generator: Sketch 49.2 (51160) - http://www.bohemiancoding.com/sketch -->
    <title>Aa ABCDEFGHIJKLMNOPQ</title>
    <desc>Created with Sketch.</desc>
    <defs></defs>
    <g id="Page-1" stroke="none" stroke-width="1" fill="none" fill-rule="evenodd">
        <g id="Tablet" transform="translate(-499.000000, -399.000000)" fill="#000000">
            <path d="M554.35,457.95 L549.7,442.95 C547.899991,437.449973 546.200008,431.975027 544.6,426.525 C542.999992,421.074973 541.400008,415.500028 539.8,409.8 L539.2,409.8 C537.699993,415.500028 536.150008,421.074973 534.55,426.525 C532.949992,431.975027 531.250009,437.449973 529.45,442.95 L524.8,457.95 L554.35,457.95 Z M557.5,468 L521.65,468 L512.2,498 L499.45,498 L532.75,399.6 L546.85,399.6 L580.15,498 L566.8,498 L557.5,468 Z M585.3,479.1 C585.3,471.09996 588.874964,464.975021 596.025,460.725 C603.175036,456.474979 614.549922,453.500009 630.15,451.8 C630.15,449.499989 629.925002,447.250011 629.475,445.05 C629.024998,442.849989 628.225006,440.900009 627.075,439.2 C625.924994,437.499991 624.40001,436.125005 622.5,435.075 C620.59999,434.024995 618.150015,433.5 615.15,433.5 C610.849979,433.5 606.875018,434.299992 603.225,435.9 C599.574982,437.500008 596.300014,439.29999 593.4,441.3 L588.45,432.75 C591.850017,430.549989 595.999976,428.42501 600.9,426.375 C605.800025,424.32499 611.199971,423.3 617.1,423.3 C626.000045,423.3 632.44998,426.024973 636.45,431.475 C640.45002,436.925027 642.45,444.199954 642.45,453.3 L642.45,498 L632.25,498 L631.2,489.3 L630.9,489.3 C627.399982,492.200015 623.62502,494.67499 619.575,496.725 C615.52498,498.77501 611.250023,499.8 606.75,499.8 C600.549969,499.8 595.42502,498.000018 591.375,494.4 C587.32498,490.799982 585.3,485.700033 585.3,479.1 Z M597.45,478.2 C597.45,482.400021 598.674988,485.399991 601.125,487.2 C603.575012,489.000009 606.599982,489.9 610.2,489.9 C613.700018,489.9 617.024984,489.075008 620.175,487.425 C623.325016,485.774992 626.649982,483.350016 630.15,480.15 L630.15,459.9 C624.049969,460.700004 618.900021,461.649994 614.7,462.75 C610.499979,463.850006 607.125013,465.149993 604.575,466.65 C602.024987,468.150008 600.200005,469.87499 599.1,471.825 C597.999994,473.77501 597.45,475.899989 597.45,478.2 Z M502.69,534.33 L502.38,533.33 C502.259999,532.963331 502.146667,532.598335 502.04,532.235 C501.933333,531.871665 501.826667,531.500002 501.72,531.12 L501.68,531.12 C501.579999,531.500002 501.476667,531.871665 501.37,532.235 C501.263333,532.598335 501.150001,532.963331 501.03,533.33 L500.72,534.33 L502.69,534.33 Z M502.9,535 L500.51,535 L499.88,537 L499.03,537 L501.25,530.44 L502.19,530.44 L504.41,537 L503.52,537 L502.9,535 Z M507.84,530.44 L509.79,530.44 C510.123335,530.44 510.428332,530.47 510.705,530.53 C510.981668,530.59 511.218332,530.683333 511.415,530.81 C511.611668,530.936667 511.764999,531.101666 511.875,531.305 C511.985001,531.508334 512.04,531.753332 512.04,532.04 C512.04,532.366668 511.946668,532.661665 511.76,532.925 C511.573332,533.188335 511.286669,533.369999 510.9,533.47 L510.9,533.51 C511.380002,533.583334 511.753332,533.749999 512.02,534.01 C512.286668,534.270001 512.42,534.626664 512.42,535.08 C512.42,535.400002 512.360001,535.679999 512.24,535.92 C512.119999,536.160001 511.950001,536.359999 511.73,536.52 C511.509999,536.680001 511.246668,536.8 510.94,536.88 C510.633332,536.96 510.296669,537 509.93,537 L507.84,537 L507.84,530.44 Z M509.64,533.24 C510.206669,533.24 510.611665,533.143334 510.855,532.95 C511.098335,532.756666 511.22,532.476668 511.22,532.11 C511.22,531.749998 511.091668,531.491667 510.835,531.335 C510.578332,531.178333 510.193336,531.1 509.68,531.1 L508.67,531.1 L508.67,533.24 L509.64,533.24 Z M509.81,536.34 C510.376669,536.34 510.816665,536.235001 511.13,536.025 C511.443335,535.814999 511.6,535.486669 511.6,535.04 C511.6,534.633331 511.446668,534.335001 511.14,534.145 C510.833332,533.954999 510.390003,533.86 509.81,533.86 L508.67,533.86 L508.67,536.34 L509.81,536.34 Z M515.84,533.72 C515.84,533.193331 515.913333,532.720002 516.06,532.3 C516.206667,531.879998 516.409999,531.523335 516.67,531.23 C516.930001,530.936665 517.238332,530.711667 517.595,530.555 C517.951668,530.398333 518.339998,530.32 518.76,530.32 C519.160002,530.32 519.509999,530.401666 519.81,530.565 C520.110001,530.728334 520.356666,530.916666 520.55,531.13 L520.08,531.66 C519.906666,531.473332 519.715001,531.325001 519.505,531.215 C519.294999,531.104999 519.050001,531.05 518.77,531.05 C518.456665,531.05 518.173335,531.111666 517.92,531.235 C517.666665,531.358334 517.450001,531.534999 517.27,531.765 C517.089999,531.995001 516.95,532.273332 516.85,532.6 C516.75,532.926668 516.7,533.293331 516.7,533.7 C516.7,534.113335 516.748333,534.484998 516.845,534.815 C516.941667,535.145002 517.076666,535.426666 517.25,535.66 C517.423334,535.893335 517.634999,536.073333 517.885,536.2 C518.135001,536.326667 518.416665,536.39 518.73,536.39 C519.050002,536.39 519.328332,536.326667 519.565,536.2 C519.801668,536.073333 520.026666,535.893335 520.24,535.66 L520.71,536.17 C520.449999,536.470001 520.156668,536.703332 519.83,536.87 C519.503332,537.036668 519.130002,537.12 518.71,537.12 C518.296665,537.12 517.915002,537.043334 517.565,536.89 C517.214998,536.736666 516.911668,536.515001 516.655,536.225 C516.398332,535.934999 516.198334,535.578335 516.055,535.155 C515.911666,534.731665 515.84,534.253336 515.84,533.72 Z M524.43,530.44 L526.07,530.44 C527.083338,530.44 527.853331,530.719997 528.38,531.28 C528.906669,531.840003 529.17,532.643328 529.17,533.69 C529.17,534.210003 529.103334,534.674998 528.97,535.085 C528.836666,535.495002 528.640001,535.841665 528.38,536.125 C528.119999,536.408335 527.800002,536.624999 527.42,536.775 C527.039998,536.925001 526.603336,537 526.11,537 L524.43,537 L524.43,530.44 Z M526.01,536.32 C526.776671,536.32 527.351665,536.090002 527.735,535.63 C528.118335,535.169998 528.31,534.523338 528.31,533.69 C528.31,532.856662 528.118335,532.220002 527.735,531.78 C527.351665,531.339998 526.776671,531.12 526.01,531.12 L525.26,531.12 L525.26,536.32 L526.01,536.32 Z M533.08,530.44 L536.86,530.44 L536.86,531.14 L533.91,531.14 L533.91,533.2 L536.4,533.2 L536.4,533.91 L533.91,533.91 L533.91,536.29 L536.96,536.29 L536.96,537 L533.08,537 L533.08,530.44 Z M540.85,530.44 L544.63,530.44 L544.63,531.14 L541.68,531.14 L541.68,533.36 L544.18,533.36 L544.18,534.06 L541.68,534.06 L541.68,537 L540.85,537 L540.85,530.44 Z M547.81,533.72 C547.81,533.193331 547.884999,532.720002 548.035,532.3 C548.185001,531.879998 548.394999,531.523335 548.665,531.23 C548.935001,530.936665 549.253332,530.711667 549.62,530.555 C549.986668,530.398333 550.389998,530.32 550.83,530.32 C551.283336,530.32 551.661665,530.404999 551.965,530.575 C552.268335,530.745001 552.516666,530.929999 552.71,531.13 L552.24,531.66 C552.073332,531.486666 551.881668,531.341667 551.665,531.225 C551.448332,531.108333 551.173335,531.05 550.84,531.05 C550.506665,531.05 550.206668,531.111666 549.94,531.235 C549.673332,531.358334 549.446668,531.534999 549.26,531.765 C549.073332,531.995001 548.928334,532.273332 548.825,532.6 C548.721666,532.926668 548.67,533.293331 548.67,533.7 C548.67,534.113335 548.718333,534.484998 548.815,534.815 C548.911667,535.145002 549.051666,535.426666 549.235,535.66 C549.418334,535.893335 549.644999,536.073333 549.915,536.2 C550.185001,536.326667 550.496665,536.39 550.85,536.39 C551.083334,536.39 551.304999,536.355 551.515,536.285 C551.725001,536.215 551.896666,536.120001 552.03,536 L552.03,534.29 L550.64,534.29 L550.64,533.6 L552.79,533.6 L552.79,536.36 C552.576666,536.580001 552.295002,536.761666 551.945,536.905 C551.594998,537.048334 551.200002,537.12 550.76,537.12 C550.326664,537.12 549.930002,537.043334 549.57,536.89 C549.209998,536.736666 548.900001,536.515001 548.64,536.225 C548.379999,535.934999 548.176667,535.578335 548.03,535.155 C547.883333,534.731665 547.81,534.253336 547.81,533.72 Z M556.86,530.44 L557.69,530.44 L557.69,533.19 L560.74,533.19 L560.74,530.44 L561.58,530.44 L561.58,537 L560.74,537 L560.74,533.91 L557.69,533.91 L557.69,537 L556.86,537 L556.86,530.44 Z M565.88,530.44 L566.71,530.44 L566.71,537 L565.88,537 L565.88,530.44 Z M571.02,535.65 C571.166667,535.910001 571.333332,536.098333 571.52,536.215 C571.706668,536.331667 571.916666,536.39 572.15,536.39 C572.503335,536.39 572.766666,536.281668 572.94,536.065 C573.113334,535.848332 573.2,535.490002 573.2,534.99 L573.2,530.44 L574.04,530.44 L574.04,535.07 C574.04,535.350001 574.005,535.614999 573.935,535.865 C573.865,536.115001 573.758334,536.333332 573.615,536.52 C573.471666,536.706668 573.285001,536.853333 573.055,536.96 C572.824999,537.066667 572.550002,537.12 572.23,537.12 C571.409996,537.12 570.806669,536.770004 570.42,536.07 L571.02,535.65 Z M578.31,530.44 L579.14,530.44 L579.14,533.73 L579.17,533.73 L581.9,530.44 L582.84,530.44 L580.79,532.94 L583.16,537 L582.23,537 L580.27,533.59 L579.14,534.92 L579.14,537 L578.31,537 L578.31,530.44 Z M586.6,530.44 L587.43,530.44 L587.43,536.29 L590.3,536.29 L590.3,537 L586.6,537 L586.6,530.44 Z M593.96,530.44 L594.94,530.44 L596.21,533.96 L596.69,535.3 L596.73,535.3 L597.19,533.96 L598.45,530.44 L599.43,530.44 L599.43,537 L598.64,537 L598.64,533.39 C598.64,533.096665 598.651667,532.773335 598.675,532.42 C598.698333,532.066665 598.723333,531.743335 598.75,531.45 L598.71,531.45 L598.18,532.91 L596.92,536.34 L596.45,536.34 L595.18,532.91 L594.66,531.45 L594.62,531.45 C594.64,531.743335 594.663333,532.066665 594.69,532.42 C594.716667,532.773335 594.73,533.096665 594.73,533.39 L594.73,537 L593.96,537 L593.96,530.44 Z M603.73,530.44 L604.59,530.44 L606.96,534.56 L607.67,535.92 L607.71,535.92 C607.69,535.586665 607.668333,535.241668 607.645,534.885 C607.621667,534.528332 607.61,534.176668 607.61,533.83 L607.61,530.44 L608.4,530.44 L608.4,537 L607.54,537 L605.16,532.87 L604.45,531.52 L604.41,531.52 C604.436667,531.853335 604.461667,532.191665 604.485,532.535 C604.508333,532.878335 604.52,533.223332 604.52,533.57 L604.52,537 L603.73,537 L603.73,530.44 Z M615.12,537.12 C614.706665,537.12 614.328335,537.040001 613.985,536.88 C613.641665,536.719999 613.346668,536.491668 613.1,536.195 C612.853332,535.898332 612.661667,535.538335 612.525,535.115 C612.388333,534.691665 612.32,534.216669 612.32,533.69 C612.32,533.163331 612.388333,532.691669 612.525,532.275 C612.661667,531.858331 612.853332,531.505001 613.1,531.215 C613.346668,530.924999 613.641665,530.703334 613.985,530.55 C614.328335,530.396666 614.706665,530.32 615.12,530.32 C615.533335,530.32 615.911665,530.398333 616.255,530.555 C616.598335,530.711667 616.894999,530.934999 617.145,531.225 C617.395001,531.515001 617.588333,531.868331 617.725,532.285 C617.861667,532.701669 617.93,533.169997 617.93,533.69 C617.93,534.216669 617.861667,534.691665 617.725,535.115 C617.588333,535.538335 617.395001,535.898332 617.145,536.195 C616.894999,536.491668 616.598335,536.719999 616.255,536.88 C615.911665,537.040001 615.533335,537.12 615.12,537.12 Z M615.12,536.39 C615.413335,536.39 615.678332,536.326667 615.915,536.2 C616.151668,536.073333 616.354999,535.891668 616.525,535.655 C616.695001,535.418332 616.826666,535.135002 616.92,534.805 C617.013334,534.474998 617.06,534.103335 617.06,533.69 C617.06,533.283331 617.013334,532.916668 616.92,532.59 C616.826666,532.263332 616.695001,531.986668 616.525,531.76 C616.354999,531.533332 616.151668,531.358334 615.915,531.235 C615.678332,531.111666 615.413335,531.05 615.12,531.05 C614.826665,531.05 614.561668,531.111666 614.325,531.235 C614.088332,531.358334 613.885001,531.533332 613.715,531.76 C613.544999,531.986668 613.413334,532.263332 613.32,532.59 C613.226666,532.916668 613.18,533.283331 613.18,533.69 C613.18,534.103335 613.226666,534.474998 613.32,534.805 C613.413334,535.135002 613.544999,535.418332 613.715,535.655 C613.885001,535.891668 614.088332,536.073333 614.325,536.2 C614.561668,536.326667 614.826665,536.39 615.12,536.39 Z M621.84,530.44 L623.85,530.44 C624.210002,530.44 624.539999,530.473333 624.84,530.54 C625.140001,530.606667 625.394999,530.714999 625.605,530.865 C625.815001,531.015001 625.978333,531.213332 626.095,531.46 C626.211667,531.706668 626.27,532.009998 626.27,532.37 C626.27,532.716668 626.211667,533.016665 626.095,533.27 C625.978333,533.523335 625.813334,533.733332 625.6,533.9 C625.386666,534.066667 625.131668,534.191666 624.835,534.275 C624.538332,534.358334 624.210002,534.4 623.85,534.4 L622.67,534.4 L622.67,537 L621.84,537 L621.84,530.44 Z M623.75,533.72 C624.323336,533.72 624.748332,533.611668 625.025,533.395 C625.301668,533.178332 625.44,532.836669 625.44,532.37 C625.44,531.896664 625.300001,531.568334 625.02,531.385 C624.739999,531.201666 624.316669,531.11 623.75,531.11 L622.67,531.11 L622.67,533.72 L623.75,533.72 Z M630.58,533.69 C630.58,534.110002 630.626666,534.488332 630.72,534.825 C630.813334,535.161668 630.944999,535.449999 631.115,535.69 C631.285001,535.930001 631.488332,536.113333 631.725,536.24 C631.961668,536.366667 632.226665,536.43 632.52,536.43 C632.813335,536.43 633.078332,536.366667 633.315,536.24 C633.551668,536.113333 633.754999,535.930001 633.925,535.69 C634.095001,535.449999 634.226666,535.161668 634.32,534.825 C634.413334,534.488332 634.46,534.110002 634.46,533.69 C634.46,533.283331 634.413334,532.916668 634.32,532.59 C634.226666,532.263332 634.095001,531.986668 633.925,531.76 C633.754999,531.533332 633.551668,531.358334 633.315,531.235 C633.078332,531.111666 632.813335,531.05 632.52,531.05 C632.226665,531.05 631.961668,531.111666 631.725,531.235 C631.488332,531.358334 631.285001,531.533332 631.115,531.76 C630.944999,531.986668 630.813334,532.263332 630.72,532.59 C630.626666,532.916668 630.58,533.283331 630.58,533.69 Z M635.47,538.49 C635.369999,538.523334 635.236668,538.556667 635.07,538.59 C634.903333,538.623333 634.723334,538.64 634.53,538.64 C633.92333,538.64 633.416669,538.495001 633.01,538.205 C632.603331,537.914999 632.303334,537.543336 632.11,537.09 C631.749998,537.043333 631.423335,536.930001 631.13,536.75 C630.836665,536.569999 630.585001,536.333335 630.375,536.04 C630.164999,535.746665 630.003334,535.401669 629.89,535.005 C629.776666,534.608331 629.72,534.170002 629.72,533.69 C629.72,533.163331 629.788333,532.691669 629.925,532.275 C630.061667,531.858331 630.253332,531.505001 630.5,531.215 C630.746668,530.924999 631.041665,530.703334 631.385,530.55 C631.728335,530.396666 632.106665,530.32 632.52,530.32 C632.933335,530.32 633.311665,530.398333 633.655,530.555 C633.998335,530.711667 634.294999,530.934999 634.545,531.225 C634.795001,531.515001 634.988333,531.868331 635.125,532.285 C635.261667,532.701669 635.33,533.169997 635.33,533.69 C635.33,534.163336 635.275001,534.594998 635.165,534.985 C635.054999,535.375002 634.898334,535.714999 634.695,536.005 C634.491666,536.295001 634.246668,536.531666 633.96,536.715 C633.673332,536.898334 633.356668,537.02 633.01,537.08 C633.163334,537.373335 633.379999,537.589999 633.66,537.73 C633.940001,537.870001 634.259998,537.94 634.62,537.94 C634.766667,537.94 634.894999,537.93 635.005,537.91 C635.115001,537.89 635.216666,537.866667 635.31,537.84 L635.47,538.49 Z M640.07,533.55 L641.17,533.55 C641.683336,533.55 642.076665,533.445001 642.35,533.235 C642.623335,533.024999 642.76,532.706669 642.76,532.28 C642.76,531.846664 642.623335,531.543334 642.35,531.37 C642.076665,531.196666 641.683336,531.11 641.17,531.11 L640.07,531.11 L640.07,533.55 Z M642.84,537 L641.26,534.23 L640.07,534.23 L640.07,537 L639.24,537 L639.24,530.44 L641.29,530.44 C641.623335,530.44 641.931665,530.471666 642.215,530.535 C642.498335,530.598334 642.741666,530.703333 642.945,530.85 C643.148334,530.996667 643.306666,531.186666 643.42,531.42 C643.533334,531.653335 643.59,531.939998 643.59,532.28 C643.59,532.793336 643.456668,533.203332 643.19,533.51 C642.923332,533.816668 642.566669,534.026666 642.12,534.14 L643.78,537 L642.84,537 Z M647.43,535.57 C647.663335,535.816668 647.938332,536.014999 648.255,536.165 C648.571668,536.315001 648.899998,536.39 649.24,536.39 C649.673336,536.39 650.009999,536.291668 650.25,536.095 C650.490001,535.898332 650.61,535.640002 650.61,535.32 C650.61,535.153333 650.581667,535.011667 650.525,534.895 C650.468333,534.778333 650.391667,534.678334 650.295,534.595 C650.198333,534.511666 650.083334,534.436667 649.95,534.37 C649.816666,534.303333 649.673334,534.233334 649.52,534.16 L648.58,533.75 C648.426666,533.683333 648.270001,533.603334 648.11,533.51 C647.949999,533.416666 647.806667,533.303334 647.68,533.17 C647.553333,533.036666 647.45,532.878334 647.37,532.695 C647.29,532.511666 647.25,532.300001 647.25,532.06 C647.25,531.813332 647.301666,531.583334 647.405,531.37 C647.508334,531.156666 647.651666,530.971667 647.835,530.815 C648.018334,530.658333 648.234999,530.536667 648.485,530.45 C648.735001,530.363333 649.009998,530.32 649.31,530.32 C649.703335,530.32 650.066665,530.394999 650.4,530.545 C650.733335,530.695001 651.016666,530.889999 651.25,531.13 L650.8,531.67 C650.599999,531.476666 650.378335,531.325001 650.135,531.215 C649.891665,531.104999 649.616668,531.05 649.31,531.05 C648.943331,531.05 648.648334,531.134999 648.425,531.305 C648.201666,531.475001 648.09,531.709998 648.09,532.01 C648.09,532.170001 648.121666,532.304999 648.185,532.415 C648.248334,532.525001 648.333333,532.621666 648.44,532.705 C648.546667,532.788334 648.663333,532.861666 648.79,532.925 C648.916667,532.988334 649.046666,533.046666 649.18,533.1 L650.11,533.5 C650.296668,533.58 650.473332,533.671666 650.64,533.775 C650.806668,533.878334 650.949999,533.998333 651.07,534.135 C651.190001,534.271667 651.285,534.431666 651.355,534.615 C651.425,534.798334 651.46,535.009999 651.46,535.25 C651.46,535.510001 651.408334,535.753332 651.305,535.98 C651.201666,536.206668 651.053334,536.404999 650.86,536.575 C650.666666,536.745001 650.433335,536.878333 650.16,536.975 C649.886665,537.071667 649.576668,537.12 649.23,537.12 C648.769998,537.12 648.343335,537.033334 647.95,536.86 C647.556665,536.686666 647.216668,536.450001 646.93,536.15 L647.43,535.57 Z M656.41,531.14 L654.43,531.14 L654.43,530.44 L659.23,530.44 L659.23,531.14 L657.25,531.14 L657.25,537 L656.41,537 L656.41,531.14 Z M662.88,530.44 L663.71,530.44 L663.71,534.31 C663.71,534.703335 663.75,535.033332 663.83,535.3 C663.91,535.566668 664.018333,535.779999 664.155,535.94 C664.291667,536.100001 664.453332,536.215 664.64,536.285 C664.826668,536.355 665.026666,536.39 665.24,536.39 C665.460001,536.39 665.663332,536.355 665.85,536.285 C666.036668,536.215 666.199999,536.100001 666.34,535.94 C666.480001,535.779999 666.59,535.566668 666.67,535.3 C666.75,535.033332 666.79,534.703335 666.79,534.31 L666.79,530.44 L667.59,530.44 L667.59,534.29 C667.59,534.816669 667.530001,535.259998 667.41,535.62 C667.289999,535.980002 667.125001,536.271666 666.915,536.495 C666.704999,536.718334 666.456668,536.878333 666.17,536.975 C665.883332,537.071667 665.573335,537.12 665.24,537.12 C664.906665,537.12 664.595001,537.071667 664.305,536.975 C664.014999,536.878333 663.765001,536.718334 663.555,536.495 C663.344999,536.271666 663.180001,535.980002 663.06,535.62 C662.939999,535.259998 662.88,534.816669 662.88,534.29 L662.88,530.44 Z M670.86,530.44 L671.75,530.44 L672.8,533.98 C672.920001,534.373335 673.025,534.736665 673.115,535.07 C673.205,535.403335 673.313333,535.763331 673.44,536.15 L673.48,536.15 C673.600001,535.763331 673.706666,535.403335 673.8,535.07 C673.893334,534.736665 673.996666,534.373335 674.11,533.98 L675.16,530.44 L676.01,530.44 L673.93,537 L672.96,537 L670.86,530.44 Z M678.74,530.44 L679.6,530.44 L680.29,534.01 C680.35,534.370002 680.413333,534.723332 680.48,535.07 C680.546667,535.416668 680.61,535.769998 680.67,536.13 L680.71,536.13 C680.783334,535.769998 680.86,535.415002 680.94,535.065 C681.02,534.714998 681.096666,534.363335 681.17,534.01 L682.08,530.44 L682.84,530.44 L683.75,534.01 C683.83,534.356668 683.91,534.706665 683.99,535.06 C684.07,535.413335 684.15,535.769998 684.23,536.13 L684.27,536.13 C684.33,535.769998 684.39,535.415002 684.45,535.065 C684.51,534.714998 684.573333,534.363335 684.64,534.01 L685.33,530.44 L686.13,530.44 L684.77,537 L683.77,537 L682.78,533.05 C682.72,532.796665 682.665,532.548335 682.615,532.305 C682.565,532.061665 682.513334,531.813335 682.46,531.56 L682.42,531.56 C682.366666,531.813335 682.311667,532.061665 682.255,532.305 C682.198333,532.548335 682.143334,532.796665 682.09,533.05 L681.12,537 L680.13,537 L678.74,530.44 Z M690.93,533.61 L689.15,530.44 L690.07,530.44 L690.96,532.12 C691.046667,532.273334 691.128333,532.421666 691.205,532.565 C691.281667,532.708334 691.369999,532.876666 691.47,533.07 L691.51,533.07 C691.603334,532.876666 691.685,532.708334 691.755,532.565 C691.825,532.421666 691.9,532.273334 691.98,532.12 L692.85,530.44 L693.73,530.44 L691.94,533.65 L693.85,537 L692.93,537 L691.97,535.23 C691.883333,535.069999 691.795,534.905001 691.705,534.735 C691.615,534.564999 691.516667,534.380001 691.41,534.18 L691.37,534.18 C691.276666,534.380001 691.186667,534.564999 691.1,534.735 C691.013333,534.905001 690.93,535.069999 690.85,535.23 L689.9,537 L689.02,537 L690.93,533.61 Z M698.46,534.46 L696.49,530.44 L697.38,530.44 L698.23,532.29 C698.336667,532.530001 698.439999,532.766666 698.54,533 C698.640001,533.233334 698.746666,533.473332 698.86,533.72 L698.9,533.72 C699.013334,533.473332 699.126666,533.233334 699.24,533 C699.353334,532.766666 699.459999,532.530001 699.56,532.29 L700.4,530.44 L701.27,530.44 L699.3,534.46 L699.3,537 L698.46,537 L698.46,534.46 Z M703.95,536.5 L707.4,531.14 L704.26,531.14 L704.26,530.44 L708.44,530.44 L708.44,530.93 L704.98,536.29 L708.47,536.29 L708.47,537 L703.95,537 L703.95,536.5 Z M499.58,558.74 C499.58,558.206664 499.818331,557.798335 500.295,557.515 C500.771669,557.231665 501.529995,557.033334 502.57,556.92 C502.57,556.766666 502.555,556.616667 502.525,556.47 C502.495,556.323333 502.441667,556.193334 502.365,556.08 C502.288333,555.966666 502.186667,555.875 502.06,555.805 C501.933333,555.735 501.770001,555.7 501.57,555.7 C501.283332,555.7 501.018335,555.753333 500.775,555.86 C500.531665,555.966667 500.313334,556.086666 500.12,556.22 L499.79,555.65 C500.016668,555.503333 500.293332,555.361667 500.62,555.225 C500.946668,555.088333 501.306665,555.02 501.7,555.02 C502.293336,555.02 502.723332,555.201665 502.99,555.565 C503.256668,555.928335 503.39,556.41333 503.39,557.02 L503.39,560 L502.71,560 L502.64,559.42 L502.62,559.42 C502.386665,559.613334 502.135001,559.778333 501.865,559.915 C501.594999,560.051667 501.310001,560.12 501.01,560.12 C500.596665,560.12 500.255001,560.000001 499.985,559.76 C499.714999,559.519999 499.58,559.180002 499.58,558.74 Z M500.39,558.68 C500.39,558.960001 500.471666,559.159999 500.635,559.28 C500.798334,559.400001 500.999999,559.46 501.24,559.46 C501.473335,559.46 501.694999,559.405001 501.905,559.295 C502.115001,559.184999 502.336665,559.023334 502.57,558.81 L502.57,557.46 C502.163331,557.513334 501.820001,557.576666 501.54,557.65 C501.259999,557.723334 501.035001,557.81 500.865,557.91 C500.694999,558.01 500.573334,558.124999 500.5,558.255 C500.426666,558.385001 500.39,558.526666 500.39,558.68 Z M507.44,552.88 L508.26,552.88 L508.26,554.82 L508.24,555.7 C508.460001,555.506666 508.699999,555.345001 508.96,555.215 C509.220001,555.084999 509.486665,555.02 509.76,555.02 C510.073335,555.02 510.349999,555.078333 510.59,555.195 C510.830001,555.311667 511.031666,555.478332 511.195,555.695 C511.358334,555.911668 511.481666,556.171665 511.565,556.475 C511.648334,556.778335 511.69,557.116665 511.69,557.49 C511.69,557.903335 511.633334,558.273332 511.52,558.6 C511.406666,558.926668 511.253334,559.203332 511.06,559.43 C510.866666,559.656668 510.643335,559.828333 510.39,559.945 C510.136665,560.061667 509.870001,560.12 509.59,560.12 C509.363332,560.12 509.128335,560.068334 508.885,559.965 C508.641665,559.861666 508.413334,559.713334 508.2,559.52 L508.17,559.52 L508.1,560 L507.44,560 L507.44,552.88 Z M508.26,558.92 C508.473334,559.106668 508.684999,559.238333 508.895,559.315 C509.105001,559.391667 509.289999,559.43 509.45,559.43 C509.650001,559.43 509.834999,559.385 510.005,559.295 C510.175001,559.205 510.321666,559.078334 510.445,558.915 C510.568334,558.751666 510.665,558.550001 510.735,558.31 C510.805,558.069999 510.84,557.800002 510.84,557.5 C510.84,557.233332 510.816667,556.990001 510.77,556.77 C510.723333,556.549999 510.648334,556.361667 510.545,556.205 C510.441666,556.048333 510.308334,555.926667 510.145,555.84 C509.981666,555.753333 509.786668,555.71 509.56,555.71 C509.166665,555.71 508.733336,555.929998 508.26,556.37 L508.26,558.92 Z M515.13,557.58 C515.13,557.173331 515.193333,556.811668 515.32,556.495 C515.446667,556.178332 515.616666,555.910001 515.83,555.69 C516.043334,555.469999 516.291665,555.303334 516.575,555.19 C516.858335,555.076666 517.156665,555.02 517.47,555.02 C517.790002,555.02 518.064999,555.078333 518.295,555.195 C518.525001,555.311667 518.723332,555.446666 518.89,555.6 L518.48,556.13 C518.333333,556.003333 518.181667,555.9 518.025,555.82 C517.868333,555.74 517.693334,555.7 517.5,555.7 C517.279999,555.7 517.076668,555.745 516.89,555.835 C516.703332,555.925 516.543334,556.053333 516.41,556.22 C516.276666,556.386667 516.171667,556.584999 516.095,556.815 C516.018333,557.045001 515.98,557.299999 515.98,557.58 C515.98,557.860001 516.016666,558.113332 516.09,558.34 C516.163334,558.566668 516.264999,558.761666 516.395,558.925 C516.525001,559.088334 516.683332,559.215 516.87,559.305 C517.056668,559.395 517.259999,559.44 517.48,559.44 C517.713334,559.44 517.924999,559.391667 518.115,559.295 C518.305001,559.198333 518.473333,559.083334 518.62,558.95 L518.99,559.49 C518.769999,559.683334 518.525001,559.836666 518.255,559.95 C517.984999,560.063334 517.703335,560.12 517.41,560.12 C517.089998,560.12 516.790001,560.063334 516.51,559.95 C516.229999,559.836666 515.988334,559.671668 515.785,559.455 C515.581666,559.238332 515.421667,558.971668 515.305,558.655 C515.188333,558.338332 515.13,557.980002 515.13,557.58 Z M521.99,557.58 C521.99,557.186665 522.048333,556.831668 522.165,556.515 C522.281667,556.198332 522.436666,555.930001 522.63,555.71 C522.823334,555.489999 523.046665,555.320001 523.3,555.2 C523.553335,555.079999 523.819999,555.02 524.1,555.02 C524.380001,555.02 524.623332,555.069999 524.83,555.17 C525.036668,555.27 525.246666,555.406666 525.46,555.58 L525.42,554.75 L525.42,552.88 L526.25,552.88 L526.25,560 L525.57,560 L525.5,559.43 L525.47,559.43 C525.276666,559.616668 525.055001,559.778333 524.805,559.915 C524.554999,560.051667 524.286668,560.12 524,560.12 C523.386664,560.12 522.898335,559.900002 522.535,559.46 C522.171665,559.019998 521.99,558.393337 521.99,557.58 Z M522.84,557.57 C522.84,558.15667 522.956665,558.613332 523.19,558.94 C523.423335,559.266668 523.753331,559.43 524.18,559.43 C524.406668,559.43 524.619999,559.375001 524.82,559.265 C525.020001,559.154999 525.219999,558.986668 525.42,558.76 L525.42,556.22 C525.213332,556.033332 525.015001,555.901667 524.825,555.825 C524.634999,555.748333 524.440001,555.71 524.24,555.71 C524.046666,555.71 523.865001,555.755 523.695,555.845 C523.524999,555.935 523.376667,556.061666 523.25,556.225 C523.123333,556.388334 523.023334,556.583332 522.95,556.81 C522.876666,557.036668 522.84,557.289999 522.84,557.57 Z M530.03,557.58 C530.03,557.179998 530.091666,556.821668 530.215,556.505 C530.338334,556.188332 530.501666,555.920001 530.705,555.7 C530.908334,555.479999 531.139999,555.311667 531.4,555.195 C531.660001,555.078333 531.929999,555.02 532.21,555.02 C532.516668,555.02 532.791665,555.073333 533.035,555.18 C533.278335,555.286667 533.481666,555.439999 533.645,555.64 C533.808334,555.840001 533.933333,556.079999 534.02,556.36 C534.106667,556.640001 534.15,556.953332 534.15,557.3 C534.15,557.480001 534.14,557.629999 534.12,557.75 L530.84,557.75 C530.873334,558.276669 531.034999,558.693332 531.325,559 C531.615001,559.306668 531.993331,559.46 532.46,559.46 C532.693334,559.46 532.908332,559.425 533.105,559.355 C533.301668,559.285 533.489999,559.193334 533.67,559.08 L533.96,559.62 C533.746666,559.753334 533.510001,559.869999 533.25,559.97 C532.989999,560.07 532.693335,560.12 532.36,560.12 C532.033332,560.12 531.728335,560.061667 531.445,559.945 C531.161665,559.828333 530.915001,559.661668 530.705,559.445 C530.494999,559.228332 530.330001,558.963335 530.21,558.65 C530.089999,558.336665 530.03,557.980002 530.03,557.58 Z M533.43,557.21 C533.43,556.709997 533.325001,556.328335 533.115,556.065 C532.904999,555.801665 532.610002,555.67 532.23,555.67 C532.056666,555.67 531.891667,555.705 531.735,555.775 C531.578333,555.845 531.436667,555.944999 531.31,556.075 C531.183333,556.205001 531.078334,556.364999 530.995,556.555 C530.911666,556.745001 530.856667,556.963332 530.83,557.21 L533.43,557.21 Z M540.04,553.55 C539.859999,553.47 539.676668,553.43 539.49,553.43 C539.036664,553.43 538.81,553.74333 538.81,554.37 L538.81,555.14 L539.84,555.14 L539.84,555.81 L538.81,555.81 L538.81,560 L537.99,560 L537.99,555.81 L537.33,555.81 L537.33,555.19 L537.99,555.14 L537.99,554.37 C537.99,553.869997 538.104999,553.476668 538.335,553.19 C538.565001,552.903332 538.923331,552.76 539.41,552.76 C539.563334,552.76 539.708333,552.775 539.845,552.805 C539.981667,552.835 540.106666,552.873333 540.22,552.92 L540.04,553.55 Z M543.48,560.82 C543.48,561.080001 543.604999,561.286666 543.855,561.44 C544.105001,561.593334 544.449998,561.67 544.89,561.67 C545.123335,561.67 545.334999,561.641667 545.525,561.585 C545.715001,561.528333 545.876666,561.455 546.01,561.365 C546.143334,561.275 546.246666,561.170001 546.32,561.05 C546.393334,560.929999 546.43,560.806667 546.43,560.68 C546.43,560.453332 546.346667,560.296667 546.18,560.21 C546.013333,560.123333 545.770002,560.08 545.45,560.08 L544.61,560.08 C544.516666,560.08 544.415001,560.075 544.305,560.065 C544.194999,560.055 544.086667,560.033334 543.98,560 C543.806666,560.126667 543.68,560.259999 543.6,560.4 C543.52,560.540001 543.48,560.679999 543.48,560.82 Z M542.76,560.93 C542.76,560.723332 542.823333,560.526668 542.95,560.34 C543.076667,560.153332 543.249999,559.983334 543.47,559.83 L543.47,559.79 C543.349999,559.716666 543.248334,559.615001 543.165,559.485 C543.081666,559.354999 543.04,559.193334 543.04,559 C543.04,558.793332 543.096666,558.613334 543.21,558.46 C543.323334,558.306666 543.443333,558.186667 543.57,558.1 L543.57,558.06 C543.409999,557.926666 543.265001,557.748334 543.135,557.525 C543.004999,557.301666 542.94,557.043335 542.94,556.75 C542.94,556.483332 542.988333,556.243334 543.085,556.03 C543.181667,555.816666 543.313333,555.635001 543.48,555.485 C543.646668,555.334999 543.841666,555.22 544.065,555.14 C544.288334,555.06 544.523332,555.02 544.77,555.02 C544.903334,555.02 545.028333,555.031667 545.145,555.055 C545.261667,555.078333 545.366666,555.106666 545.46,555.14 L547.15,555.14 L547.15,555.77 L546.15,555.77 C546.263334,555.883334 546.358333,556.026666 546.435,556.2 C546.511667,556.373334 546.55,556.563332 546.55,556.77 C546.55,557.030001 546.503334,557.264999 546.41,557.475 C546.316666,557.685001 546.190001,557.861666 546.03,558.005 C545.869999,558.148334 545.681668,558.26 545.465,558.34 C545.248332,558.42 545.016668,558.46 544.77,558.46 C544.649999,558.46 544.526667,558.445 544.4,558.415 C544.273333,558.385 544.153334,558.343334 544.04,558.29 C543.953333,558.363334 543.88,558.445 543.82,558.535 C543.76,558.625 543.73,558.736666 543.73,558.87 C543.73,559.023334 543.789999,559.149999 543.91,559.25 C544.030001,559.350001 544.256665,559.4 544.59,559.4 L545.53,559.4 C546.096669,559.4 546.521665,559.491666 546.805,559.675 C547.088335,559.858334 547.23,560.153331 547.23,560.56 C547.23,560.786668 547.173334,561.001666 547.06,561.205 C546.946666,561.408334 546.783334,561.586666 546.57,561.74 C546.356666,561.893334 546.098335,562.015 545.795,562.105 C545.491665,562.195 545.150002,562.24 544.77,562.24 C544.469998,562.24 544.196668,562.211667 543.95,562.155 C543.703332,562.098333 543.491668,562.013334 543.315,561.9 C543.138332,561.786666 543.001667,561.650001 542.905,561.49 C542.808333,561.329999 542.76,561.143334 542.76,560.93 Z M544.77,557.91 C544.910001,557.91 545.041666,557.883334 545.165,557.83 C545.288334,557.776666 545.398333,557.7 545.495,557.6 C545.591667,557.5 545.666666,557.378334 545.72,557.235 C545.773334,557.091666 545.8,556.930001 545.8,556.75 C545.8,556.389998 545.700001,556.111668 545.5,555.915 C545.299999,555.718332 545.056668,555.62 544.77,555.62 C544.483332,555.62 544.240001,555.718332 544.04,555.915 C543.839999,556.111668 543.74,556.389998 543.74,556.75 C543.74,556.930001 543.766666,557.091666 543.82,557.235 C543.873334,557.378334 543.948333,557.5 544.045,557.6 C544.141667,557.7 544.251666,557.776666 544.375,557.83 C544.498334,557.883334 544.629999,557.91 544.77,557.91 Z M550.67,552.88 L551.49,552.88 L551.49,554.82 L551.46,555.82 C551.693334,555.599999 551.936665,555.411667 552.19,555.255 C552.443335,555.098333 552.739998,555.02 553.08,555.02 C553.593336,555.02 553.968332,555.179998 554.205,555.5 C554.441668,555.820002 554.56,556.29333 554.56,556.92 L554.56,560 L553.74,560 L553.74,557.03 C553.74,556.569998 553.666667,556.238334 553.52,556.035 C553.373333,555.831666 553.140002,555.73 552.82,555.73 C552.566665,555.73 552.343334,555.793333 552.15,555.92 C551.956666,556.046667 551.736668,556.233332 551.49,556.48 L551.49,560 L550.67,560 L550.67,552.88 Z M559.03,554.14 C558.869999,554.14 558.735001,554.09 558.625,553.99 C558.514999,553.889999 558.46,553.763334 558.46,553.61 C558.46,553.449999 558.514999,553.321667 558.625,553.225 C558.735001,553.128333 558.869999,553.08 559.03,553.08 C559.190001,553.08 559.324999,553.128333 559.435,553.225 C559.545001,553.321667 559.6,553.449999 559.6,553.61 C559.6,553.763334 559.545001,553.889999 559.435,553.99 C559.324999,554.09 559.190001,554.14 559.03,554.14 Z M558.61,555.14 L559.43,555.14 L559.43,560 L558.61,560 L558.61,555.14 Z M563.58,555.14 L564.4,555.14 L564.4,560.55 C564.4,561.043336 564.300001,561.436665 564.1,561.73 C563.899999,562.023335 563.556669,562.17 563.07,562.17 C562.916666,562.17 562.780001,562.156667 562.66,562.13 C562.539999,562.103333 562.436667,562.073333 562.35,562.04 L562.52,561.42 C562.58,561.44 562.65,561.458333 562.73,561.475 C562.81,561.491667 562.893333,561.5 562.98,561.5 C563.220001,561.5 563.38,561.416668 563.46,561.25 C563.54,561.083332 563.58,560.850001 563.58,560.55 L563.58,555.14 Z M564,554.14 C563.839999,554.14 563.705001,554.09 563.595,553.99 C563.484999,553.889999 563.43,553.763334 563.43,553.61 C563.43,553.449999 563.484999,553.321667 563.595,553.225 C563.705001,553.128333 563.839999,553.08 564,553.08 C564.153334,553.08 564.284999,553.128333 564.395,553.225 C564.505001,553.321667 564.56,553.449999 564.56,553.61 C564.56,553.763334 564.505001,553.889999 564.395,553.99 C564.284999,554.09 564.153334,554.14 564,554.14 Z M568.54,552.88 L569.35,552.88 L569.35,557.7 L569.38,557.7 L571.45,555.14 L572.36,555.14 L570.73,557.09 L572.58,560 L571.68,560 L570.26,557.66 L569.35,558.72 L569.35,560 L568.54,560 L568.54,552.88 Z M575.99,552.88 L576.81,552.88 L576.81,559.08 C576.81,559.213334 576.833333,559.306666 576.88,559.36 C576.926667,559.413334 576.98,559.44 577.04,559.44 L577.115,559.44 C577.138333,559.44 577.173333,559.433333 577.22,559.42 L577.33,560.04 C577.276666,560.066667 577.213334,560.086667 577.14,560.1 C577.066666,560.113333 576.973334,560.12 576.86,560.12 C576.546665,560.12 576.323334,560.026668 576.19,559.84 C576.056666,559.653332 575.99,559.380002 575.99,559.02 L575.99,552.88 Z M581.04,555.14 L581.72,555.14 L581.79,555.84 L581.82,555.84 C582.033334,555.606665 582.264999,555.411667 582.515,555.255 C582.765001,555.098333 583.036665,555.02 583.33,555.02 C583.703335,555.02 583.994999,555.101666 584.205,555.265 C584.415001,555.428334 584.569999,555.656665 584.67,555.95 C584.923335,555.669999 585.178332,555.445001 585.435,555.275 C585.691668,555.104999 585.969998,555.02 586.27,555.02 C586.770003,555.02 587.141665,555.179998 587.385,555.5 C587.628335,555.820002 587.75,556.29333 587.75,556.92 L587.75,560 L586.93,560 L586.93,557.03 C586.93,556.569998 586.856667,556.238334 586.71,556.035 C586.563333,555.831666 586.336668,555.73 586.03,555.73 C585.663332,555.73 585.256669,555.979997 584.81,556.48 L584.81,560 L583.99,560 L583.99,557.03 C583.99,556.569998 583.916667,556.238334 583.77,556.035 C583.623333,555.831666 583.393335,555.73 583.08,555.73 C582.713331,555.73 582.306669,555.979997 581.86,556.48 L581.86,560 L581.04,560 L581.04,555.14 Z M591.83,555.14 L592.51,555.14 L592.58,555.84 L592.61,555.84 C592.843334,555.606665 593.088332,555.411667 593.345,555.255 C593.601668,555.098333 593.899998,555.02 594.24,555.02 C594.753336,555.02 595.128332,555.179998 595.365,555.5 C595.601668,555.820002 595.72,556.29333 595.72,556.92 L595.72,560 L594.9,560 L594.9,557.03 C594.9,556.569998 594.826667,556.238334 594.68,556.035 C594.533333,555.831666 594.300002,555.73 593.98,555.73 C593.726665,555.73 593.503334,555.793333 593.31,555.92 C593.116666,556.046667 592.896668,556.233332 592.65,556.48 L592.65,560 L591.83,560 L591.83,555.14 Z M599.44,557.58 C599.44,557.173331 599.501666,556.811668 599.625,556.495 C599.748334,556.178332 599.913332,555.910001 600.12,555.69 C600.326668,555.469999 600.564999,555.303334 600.835,555.19 C601.105001,555.076666 601.389999,555.02 601.69,555.02 C601.990002,555.02 602.274999,555.076666 602.545,555.19 C602.815001,555.303334 603.053332,555.469999 603.26,555.69 C603.466668,555.910001 603.631666,556.178332 603.755,556.495 C603.878334,556.811668 603.94,557.173331 603.94,557.58 C603.94,557.980002 603.878334,558.338332 603.755,558.655 C603.631666,558.971668 603.466668,559.238332 603.26,559.455 C603.053332,559.671668 602.815001,559.836666 602.545,559.95 C602.274999,560.063334 601.990002,560.12 601.69,560.12 C601.389999,560.12 601.105001,560.063334 600.835,559.95 C600.564999,559.836666 600.326668,559.671668 600.12,559.455 C599.913332,559.238332 599.748334,558.971668 599.625,558.655 C599.501666,558.338332 599.44,557.980002 599.44,557.58 Z M600.29,557.58 C600.29,557.860001 600.323333,558.113332 600.39,558.34 C600.456667,558.566668 600.551666,558.761666 600.675,558.925 C600.798334,559.088334 600.946666,559.215 601.12,559.305 C601.293334,559.395 601.483332,559.44 601.69,559.44 C601.896668,559.44 602.086666,559.395 602.26,559.305 C602.433334,559.215 602.581666,559.088334 602.705,558.925 C602.828334,558.761666 602.923333,558.566668 602.99,558.34 C603.056667,558.113332 603.09,557.860001 603.09,557.58 C603.09,557.299999 603.056667,557.045001 602.99,556.815 C602.923333,556.584999 602.828334,556.386667 602.705,556.22 C602.581666,556.053333 602.433334,555.925 602.26,555.835 C602.086666,555.745 601.896668,555.7 601.69,555.7 C601.483332,555.7 601.293334,555.745 601.12,555.835 C600.946666,555.925 600.798334,556.053333 600.675,556.22 C600.551666,556.386667 600.456667,556.584999 600.39,556.815 C600.323333,557.045001 600.29,557.299999 600.29,557.58 Z M608.54,560.41 L608.54,562.05 L607.72,562.05 L607.72,555.14 L608.4,555.14 L608.47,555.7 L608.5,555.7 C608.720001,555.513332 608.961665,555.353334 609.225,555.22 C609.488335,555.086666 609.763332,555.02 610.05,555.02 C610.363335,555.02 610.639999,555.078333 610.88,555.195 C611.120001,555.311667 611.319999,555.478332 611.48,555.695 C611.640001,555.911668 611.761666,556.171665 611.845,556.475 C611.928334,556.778335 611.97,557.119998 611.97,557.5 C611.97,557.913335 611.913334,558.281665 611.8,558.605 C611.686666,558.928335 611.533334,559.203332 611.34,559.43 C611.146666,559.656668 610.923335,559.828333 610.67,559.945 C610.416665,560.061667 610.150001,560.12 609.87,560.12 C609.643332,560.12 609.418334,560.07 609.195,559.97 C608.971666,559.869999 608.746668,559.733334 608.52,559.56 L608.54,560.41 Z M608.54,558.92 C608.760001,559.106668 608.973332,559.238333 609.18,559.315 C609.386668,559.391667 609.569999,559.43 609.73,559.43 C609.930001,559.43 610.114999,559.385 610.285,559.295 C610.455001,559.205 610.601666,559.078334 610.725,558.915 C610.848334,558.751666 610.945,558.550001 611.015,558.31 C611.085,558.069999 611.12,557.800002 611.12,557.5 C611.12,557.233332 611.096667,556.990001 611.05,556.77 C611.003333,556.549999 610.928334,556.361667 610.825,556.205 C610.721666,556.048333 610.588334,555.926667 610.425,555.84 C610.261666,555.753333 610.066668,555.71 609.84,555.71 C609.633332,555.71 609.425001,555.766666 609.215,555.88 C609.004999,555.993334 608.780001,556.156666 608.54,556.37 L608.54,558.92 Z M615.42,557.58 C615.42,557.186665 615.478333,556.831668 615.595,556.515 C615.711667,556.198332 615.866666,555.930001 616.06,555.71 C616.253334,555.489999 616.476665,555.320001 616.73,555.2 C616.983335,555.079999 617.249999,555.02 617.53,555.02 C617.810001,555.02 618.056666,555.068333 618.27,555.165 C618.483334,555.261667 618.699999,555.406666 618.92,555.6 L618.94,555.6 L619.02,555.14 L619.68,555.14 L619.68,562.05 L618.85,562.05 L618.85,560.32 L618.89,559.46 C618.696666,559.640001 618.475001,559.794999 618.225,559.925 C617.974999,560.055001 617.710001,560.12 617.43,560.12 C616.816664,560.12 616.328335,559.900002 615.965,559.46 C615.601665,559.019998 615.42,558.393337 615.42,557.58 Z M616.27,557.57 C616.27,558.15667 616.386665,558.613332 616.62,558.94 C616.853334,559.266668 617.183331,559.43 617.61,559.43 C617.836668,559.43 618.049999,559.375001 618.25,559.265 C618.450001,559.154999 618.649999,558.986668 618.85,558.76 L618.85,556.22 C618.643332,556.033332 618.445001,555.901667 618.255,555.825 C618.064999,555.748333 617.870001,555.71 617.67,555.71 C617.476666,555.71 617.295001,555.755 617.125,555.845 C616.954999,555.935 616.806667,556.061666 616.68,556.225 C616.553333,556.388334 616.453334,556.583332 616.38,556.81 C616.306666,557.036668 616.27,557.289999 616.27,557.57 Z M623.77,555.14 L624.45,555.14 L624.52,556.02 L624.55,556.02 C624.716667,555.713332 624.918332,555.470001 625.155,555.29 C625.391668,555.109999 625.649999,555.02 625.93,555.02 C626.123334,555.02 626.296666,555.053333 626.45,555.12 L626.29,555.84 C626.21,555.813333 626.136667,555.793333 626.07,555.78 C626.003333,555.766667 625.920001,555.76 625.82,555.76 C625.613332,555.76 625.398334,555.843332 625.175,556.01 C624.951666,556.176668 624.756668,556.466665 624.59,556.88 L624.59,560 L623.77,560 L623.77,555.14 Z M629.51,558.9 C629.723334,559.073334 629.941666,559.213333 630.165,559.32 C630.388334,559.426667 630.646665,559.48 630.94,559.48 C631.260002,559.48 631.499999,559.406667 631.66,559.26 C631.820001,559.113333 631.9,558.933334 631.9,558.72 C631.9,558.593333 631.866667,558.483334 631.8,558.39 C631.733333,558.296666 631.648334,558.215 631.545,558.145 C631.441666,558.075 631.323334,558.013334 631.19,557.96 L630.79,557.8 C630.616666,557.74 630.443334,557.671667 630.27,557.595 C630.096666,557.518333 629.941667,557.425001 629.805,557.315 C629.668333,557.204999 629.556667,557.076667 629.47,556.93 C629.383333,556.783333 629.34,556.606668 629.34,556.4 C629.34,556.206666 629.378333,556.025001 629.455,555.855 C629.531667,555.684999 629.641666,555.538334 629.785,555.415 C629.928334,555.291666 630.103332,555.195 630.31,555.125 C630.516668,555.055 630.749999,555.02 631.01,555.02 C631.316668,555.02 631.598332,555.073333 631.855,555.18 C632.111668,555.286667 632.333332,555.416666 632.52,555.57 L632.13,556.09 C631.963332,555.963333 631.790001,555.86 631.61,555.78 C631.429999,555.7 631.233334,555.66 631.02,555.66 C630.713332,555.66 630.488334,555.729999 630.345,555.87 C630.201666,556.010001 630.13,556.173332 630.13,556.36 C630.13,556.473334 630.16,556.571666 630.22,556.655 C630.28,556.738334 630.359999,556.811666 630.46,556.875 C630.560001,556.938334 630.674999,556.995 630.805,557.045 C630.935001,557.095 631.069999,557.146666 631.21,557.2 C631.383334,557.266667 631.558332,557.336666 631.735,557.41 C631.911668,557.483334 632.069999,557.574999 632.21,557.685 C632.350001,557.795001 632.465,557.929999 632.555,558.09 C632.645,558.250001 632.69,558.443332 632.69,558.67 C632.69,558.870001 632.651667,559.056666 632.575,559.23 C632.498333,559.403334 632.385001,559.556666 632.235,559.69 C632.084999,559.823334 631.898334,559.928333 631.675,560.005 C631.451666,560.081667 631.196668,560.12 630.91,560.12 C630.563332,560.12 630.233335,560.056667 629.92,559.93 C629.606665,559.803333 629.333335,559.643334 629.1,559.45 L629.51,558.9 Z M636.47,555.81 L635.75,555.81 L635.75,555.19 L636.51,555.14 L636.61,553.78 L637.3,553.78 L637.3,555.14 L638.61,555.14 L638.61,555.81 L637.3,555.81 L637.3,558.51 C637.3,558.810001 637.354999,559.041666 637.465,559.205 C637.575001,559.368334 637.769999,559.45 638.05,559.45 C638.136667,559.45 638.229999,559.436667 638.33,559.41 C638.430001,559.383333 638.52,559.353333 638.6,559.32 L638.76,559.94 C638.626666,559.986667 638.481667,560.028333 638.325,560.065 C638.168333,560.101667 638.013334,560.12 637.86,560.12 C637.599999,560.12 637.381668,560.08 637.205,560 C637.028332,559.92 636.885001,559.810001 636.775,559.67 C636.664999,559.529999 636.586667,559.360001 636.54,559.16 C636.493333,558.959999 636.47,558.740001 636.47,558.5 L636.47,555.81 Z M642.08,555.14 L642.91,555.14 L642.91,558.11 C642.91,558.570002 642.981666,558.901666 643.125,559.105 C643.268334,559.308334 643.499998,559.41 643.82,559.41 C644.073335,559.41 644.296666,559.345001 644.49,559.215 C644.683334,559.084999 644.896665,558.876668 645.13,558.59 L645.13,555.14 L645.95,555.14 L645.95,560 L645.27,560 L645.2,559.24 L645.17,559.24 C644.943332,559.506668 644.705001,559.719999 644.455,559.88 C644.204999,560.040001 643.910002,560.12 643.57,560.12 C643.049997,560.12 642.671668,559.960002 642.435,559.64 C642.198332,559.319998 642.08,558.84667 642.08,558.22 L642.08,555.14 Z M649.39,555.14 L650.24,555.14 L651.16,557.9 C651.233334,558.140001 651.308333,558.379999 651.385,558.62 C651.461667,558.860001 651.536666,559.096665 651.61,559.33 L651.65,559.33 C651.723334,559.096665 651.796666,558.860001 651.87,558.62 L652.09,557.9 L653.01,555.14 L653.82,555.14 L652.1,560 L651.14,560 L649.39,555.14 Z M656.68,555.14 L657.52,555.14 L658.24,557.95 C658.293334,558.183335 658.343333,558.409999 658.39,558.63 C658.436667,558.850001 658.483333,559.073332 658.53,559.3 L658.57,559.3 C658.623334,559.073332 658.676666,558.848334 658.73,558.625 C658.783334,558.401666 658.84,558.176668 658.9,557.95 L659.65,555.14 L660.45,555.14 L661.21,557.95 C661.27,558.183335 661.328333,558.409999 661.385,558.63 C661.441667,558.850001 661.496666,559.073332 661.55,559.3 L661.59,559.3 C661.643334,559.073332 661.693333,558.850001 661.74,558.63 C661.786667,558.409999 661.836666,558.183335 661.89,557.95 L662.6,555.14 L663.38,555.14 L662.08,560 L661.08,560 L660.38,557.39 C660.32,557.156665 660.265,556.926668 660.215,556.7 C660.165,556.473332 660.11,556.236668 660.05,555.99 L660.01,555.99 C659.956666,556.236668 659.903334,556.474999 659.85,556.705 C659.796666,556.935001 659.736667,557.166666 659.67,557.4 L658.99,560 L658.03,560 L656.68,555.14 Z M667.85,557.46 L666.38,555.14 L667.27,555.14 L667.92,556.21 C667.993334,556.343334 668.07,556.478333 668.15,556.615 C668.23,556.751667 668.313333,556.886666 668.4,557.02 L668.44,557.02 C668.513334,556.886666 668.586666,556.751667 668.66,556.615 C668.733334,556.478333 668.806666,556.343334 668.88,556.21 L669.47,555.14 L670.33,555.14 L668.86,557.55 L670.44,560 L669.55,560 L668.84,558.87 L668.58,558.43 C668.493333,558.283333 668.403334,558.140001 668.31,558 L668.27,558 C668.183333,558.140001 668.1,558.281666 668.02,558.425 C667.94,558.568334 667.86,558.716666 667.78,558.87 L667.12,560 L666.26,560 L667.85,557.46 Z M673.43,561.34 L673.61,561.385 C673.676667,561.401667 673.74,561.41 673.8,561.41 C674.080001,561.41 674.308332,561.311668 674.485,561.115 C674.661668,560.918332 674.8,560.670002 674.9,560.37 L675.01,560.01 L673.06,555.14 L673.91,555.14 L674.9,557.83 C674.973334,558.043334 675.051666,558.268332 675.135,558.505 C675.218334,558.741668 675.296666,558.973332 675.37,559.2 L675.41,559.2 C675.483334,558.979999 675.553333,558.750001 675.62,558.51 C675.686667,558.269999 675.753333,558.043334 675.82,557.83 L676.69,555.14 L677.49,555.14 L675.66,560.4 C675.573333,560.640001 675.476667,560.863332 675.37,561.07 C675.263333,561.276668 675.136667,561.454999 674.99,561.605 C674.843333,561.755001 674.676668,561.873333 674.49,561.96 C674.303332,562.046667 674.086668,562.09 673.84,562.09 C673.726666,562.09 673.623334,562.081667 673.53,562.065 C673.436666,562.048333 673.35,562.023334 673.27,561.99 L673.43,561.34 Z M680.18,559.56 L682.74,555.81 L680.46,555.81 L680.46,555.14 L683.78,555.14 L683.78,555.58 L681.22,559.33 L683.86,559.33 L683.86,560 L680.18,560 L680.18,559.56 Z M501.49,583.12 C500.84333,583.12 500.340002,582.833336 499.98,582.26 C499.619998,581.686664 499.44,580.863339 499.44,579.79 C499.44,578.716661 499.619998,577.900003 499.98,577.34 C500.340002,576.779997 500.84333,576.5 501.49,576.5 C502.130003,576.5 502.629998,576.779997 502.99,577.34 C503.350002,577.900003 503.53,578.716661 503.53,579.79 C503.53,580.863339 503.350002,581.686664 502.99,582.26 C502.629998,582.833336 502.130003,583.12 501.49,583.12 Z M501.49,582.46 C501.676668,582.46 501.844999,582.408334 501.995,582.305 C502.145001,582.201666 502.274999,582.041668 502.385,581.825 C502.495001,581.608332 502.58,581.331668 502.64,580.995 C502.7,580.658332 502.73,580.256669 502.73,579.79 C502.73,579.323331 502.7,578.923335 502.64,578.59 C502.58,578.256665 502.495001,577.985001 502.385,577.775 C502.274999,577.564999 502.145001,577.410001 501.995,577.31 C501.844999,577.209999 501.676668,577.16 501.49,577.16 C501.303332,577.16 501.133334,577.209999 500.98,577.31 C500.826666,577.410001 500.695001,577.564999 500.585,577.775 C500.474999,577.985001 500.39,578.256665 500.33,578.59 C500.27,578.923335 500.24,579.323331 500.24,579.79 C500.24,580.723338 500.354999,581.401665 500.585,581.825 C500.815001,582.248335 501.116665,582.46 501.49,582.46 Z M507.26,582.32 L508.72,582.32 L508.72,577.62 L507.56,577.62 L507.56,577.09 C507.853335,577.036666 508.108332,576.971667 508.325,576.895 C508.541668,576.818333 508.736666,576.726667 508.91,576.62 L509.54,576.62 L509.54,582.32 L510.86,582.32 L510.86,583 L507.26,583 L507.26,582.32 Z M514.34,582.51 C514.820002,582.029998 515.246665,581.596669 515.62,581.21 C515.993335,580.823331 516.306665,580.465002 516.56,580.135 C516.813335,579.804998 517.006666,579.501668 517.14,579.225 C517.273334,578.948332 517.34,578.680001 517.34,578.42 C517.34,578.053332 517.240001,577.753334 517.04,577.52 C516.839999,577.286666 516.536669,577.17 516.13,577.17 C515.863332,577.17 515.616668,577.244999 515.39,577.395 C515.163332,577.545001 514.956668,577.726666 514.77,577.94 L514.3,577.47 C514.566668,577.176665 514.849998,576.941668 515.15,576.765 C515.450001,576.588332 515.809998,576.5 516.23,576.5 C516.823336,576.5 517.289998,576.671665 517.63,577.015 C517.970002,577.358335 518.14,577.813331 518.14,578.38 C518.14,578.680002 518.075001,578.981665 517.945,579.285 C517.814999,579.588335 517.635001,579.901665 517.405,580.225 C517.174999,580.548335 516.901668,580.884998 516.585,581.235 C516.268332,581.585002 515.920002,581.956665 515.54,582.35 C515.713334,582.336667 515.893332,582.323333 516.08,582.31 C516.266668,582.296667 516.443332,582.29 516.61,582.29 L518.46,582.29 L518.46,583 L514.34,583 L514.34,582.51 Z M522.09,581.68 C522.283334,581.880001 522.508332,582.056666 522.765,582.21 C523.021668,582.363334 523.339998,582.44 523.72,582.44 C524.106669,582.44 524.423332,582.335001 524.67,582.125 C524.916668,581.914999 525.04,581.630002 525.04,581.27 C525.04,581.083332 525.005,580.911667 524.935,580.755 C524.865,580.598333 524.750001,580.463334 524.59,580.35 C524.429999,580.236666 524.220001,580.15 523.96,580.09 C523.699999,580.03 523.380002,580 523,580 L523,579.37 C523.340002,579.37 523.624999,579.34 523.855,579.28 C524.085001,579.22 524.271666,579.136667 524.415,579.03 C524.558334,578.923333 524.66,578.796667 524.72,578.65 C524.78,578.503333 524.81,578.346667 524.81,578.18 C524.81,577.866665 524.711668,577.620001 524.515,577.44 C524.318332,577.259999 524.050002,577.17 523.71,577.17 C523.443332,577.17 523.198334,577.229999 522.975,577.35 C522.751666,577.470001 522.543334,577.626666 522.35,577.82 L521.91,577.3 C522.156668,577.066665 522.428332,576.875001 522.725,576.725 C523.021668,576.574999 523.359998,576.5 523.74,576.5 C524.020001,576.5 524.276666,576.536666 524.51,576.61 C524.743334,576.683334 524.944999,576.788333 525.115,576.925 C525.285001,577.061667 525.416666,577.229999 525.51,577.43 C525.603334,577.630001 525.65,577.859999 525.65,578.12 C525.65,578.506669 525.543334,578.823332 525.33,579.07 C525.116666,579.316668 524.836668,579.506666 524.49,579.64 L524.49,579.68 C524.683334,579.726667 524.863332,579.795 525.03,579.885 C525.196667,579.975 525.343333,580.088333 525.47,580.225 C525.596667,580.361667 525.695,580.519999 525.765,580.7 C525.835,580.880001 525.87,581.079999 525.87,581.3 C525.87,581.580001 525.815001,581.833332 525.705,582.06 C525.594999,582.286668 525.445001,582.478333 525.255,582.635 C525.064999,582.791667 524.843335,582.911666 524.59,582.995 C524.336665,583.078334 524.063335,583.12 523.77,583.12 C523.516665,583.12 523.285001,583.095 523.075,583.045 C522.864999,582.995 522.673334,582.928334 522.5,582.845 C522.326666,582.761666 522.171667,582.666667 522.035,582.56 C521.898333,582.453333 521.776667,582.340001 521.67,582.22 L522.09,581.68 Z M531.92,580.58 L531.92,578.73 C531.92,578.556666 531.925,578.351668 531.935,578.115 C531.945,577.878332 531.956667,577.673334 531.97,577.5 L531.93,577.5 C531.85,577.653334 531.766667,577.803333 531.68,577.95 C531.593333,578.096667 531.503334,578.246666 531.41,578.4 L529.92,580.58 L531.92,580.58 Z M533.57,581.24 L532.7,581.24 L532.7,583 L531.92,583 L531.92,581.24 L529.05,581.24 L529.05,580.7 L531.78,576.62 L532.7,576.62 L532.7,580.58 L533.57,580.58 L533.57,581.24 Z M537,581.71 C537.186668,581.903334 537.408332,582.073333 537.665,582.22 C537.921668,582.366667 538.236665,582.44 538.61,582.44 C538.803334,582.44 538.984999,582.405 539.155,582.335 C539.325001,582.265 539.473333,582.166667 539.6,582.04 C539.726667,581.913333 539.826666,581.760001 539.9,581.58 C539.973334,581.399999 540.01,581.200001 540.01,580.98 C540.01,580.539998 539.886668,580.196668 539.64,579.95 C539.393332,579.703332 539.063335,579.58 538.65,579.58 C538.429999,579.58 538.241667,579.613333 538.085,579.68 C537.928333,579.746667 537.753334,579.843333 537.56,579.97 L537.12,579.69 L537.33,576.62 L540.52,576.62 L540.52,577.33 L538.05,577.33 L537.88,579.22 C538.033334,579.14 538.186666,579.076667 538.34,579.03 C538.493334,578.983333 538.666666,578.96 538.86,578.96 C539.133335,578.96 539.389999,579 539.63,579.08 C539.870001,579.16 540.079999,579.281666 540.26,579.445 C540.440001,579.608334 540.581666,579.814999 540.685,580.065 C540.788334,580.315001 540.84,580.613332 540.84,580.96 C540.84,581.306668 540.780001,581.613332 540.66,581.88 C540.539999,582.146668 540.380001,582.371666 540.18,582.555 C539.979999,582.738334 539.751668,582.878333 539.495,582.975 C539.238332,583.071667 538.970001,583.12 538.69,583.12 C538.436665,583.12 538.205001,583.095 537.995,583.045 C537.784999,582.995 537.595001,582.93 537.425,582.85 C537.254999,582.77 537.101667,582.678334 536.965,582.575 C536.828333,582.471666 536.706667,582.363334 536.6,582.25 L537,581.71 Z M546.5,582.47 C546.660001,582.47 546.806666,582.436667 546.94,582.37 C547.073334,582.303333 547.189999,582.208334 547.29,582.085 C547.390001,581.961666 547.468333,581.815001 547.525,581.645 C547.581667,581.474999 547.61,581.283334 547.61,581.07 C547.61,580.649998 547.513334,580.320001 547.32,580.08 C547.126666,579.839999 546.830002,579.72 546.43,579.72 C546.229999,579.72 546.011668,579.784999 545.775,579.915 C545.538332,580.045001 545.313334,580.259999 545.1,580.56 C545.153334,581.18667 545.298332,581.661665 545.535,581.985 C545.771668,582.308335 546.093331,582.47 546.5,582.47 Z M547.81,577.69 C547.676666,577.536666 547.518334,577.415 547.335,577.325 C547.151666,577.235 546.960001,577.19 546.76,577.19 C546.539999,577.19 546.330001,577.236666 546.13,577.33 C545.929999,577.423334 545.753334,577.576666 545.6,577.79 C545.446666,578.003334 545.323334,578.281665 545.23,578.625 C545.136666,578.968335 545.086667,579.393331 545.08,579.9 C545.280001,579.653332 545.513332,579.458334 545.78,579.315 C546.046668,579.171666 546.309999,579.1 546.57,579.1 C547.123336,579.1 547.564998,579.263332 547.895,579.59 C548.225002,579.916668 548.39,580.409997 548.39,581.07 C548.39,581.376668 548.34,581.654999 548.24,581.905 C548.14,582.155001 548.003334,582.369999 547.83,582.55 C547.656666,582.730001 547.456668,582.869999 547.23,582.97 C547.003332,583.07 546.760001,583.12 546.5,583.12 C546.186665,583.12 545.896668,583.056667 545.63,582.93 C545.363332,582.803333 545.131668,582.611668 544.935,582.355 C544.738332,582.098332 544.583334,581.778335 544.47,581.395 C544.356666,581.011665 544.3,580.563336 544.3,580.05 C544.3,579.409997 544.366666,578.865002 544.5,578.415 C544.633334,577.964998 544.813332,577.598335 545.04,577.315 C545.266668,577.031665 545.524999,576.825001 545.815,576.695 C546.105001,576.564999 546.409998,576.5 546.73,576.5 C547.076668,576.5 547.374999,576.564999 547.625,576.695 C547.875001,576.825001 548.089999,576.986666 548.27,577.18 L547.81,577.69 Z M553.06,583 C553.086667,582.399997 553.14,581.850002 553.22,581.35 C553.3,580.849997 553.411666,580.375002 553.555,579.925 C553.698334,579.474998 553.881666,579.040002 554.105,578.62 C554.328334,578.199998 554.596665,577.770002 554.91,577.33 L551.73,577.33 L551.73,576.62 L555.84,576.62 L555.84,577.13 C555.459998,577.610002 555.151668,578.069998 554.915,578.51 C554.678332,578.950002 554.490001,579.398331 554.35,579.855 C554.209999,580.311669 554.108334,580.794997 554.045,581.305 C553.981666,581.815003 553.936667,582.379997 553.91,583 L553.06,583 Z M559.91,581.29 C559.91,581.470001 559.945,581.633333 560.015,581.78 C560.085,581.926667 560.181666,582.054999 560.305,582.165 C560.428334,582.275001 560.573332,582.36 560.74,582.42 C560.906668,582.48 561.086666,582.51 561.28,582.51 C561.653335,582.51 561.954999,582.406668 562.185,582.2 C562.415001,581.993332 562.53,581.723335 562.53,581.39 C562.53,581.183332 562.483334,581.006667 562.39,580.86 C562.296666,580.713333 562.170001,580.585001 562.01,580.475 C561.849999,580.364999 561.665001,580.265 561.455,580.175 C561.244999,580.085 561.026668,579.993334 560.8,579.9 C560.546665,580.073334 560.335001,580.274999 560.165,580.505 C559.994999,580.735001 559.91,580.996665 559.91,581.29 Z M561.71,579.52 C561.923334,579.326666 562.088333,579.123334 562.205,578.91 C562.321667,578.696666 562.38,578.473334 562.38,578.24 C562.38,577.919998 562.283334,577.651668 562.09,577.435 C561.896666,577.218332 561.623335,577.11 561.27,577.11 C560.969998,577.11 560.723334,577.203332 560.53,577.39 C560.336666,577.576668 560.24,577.826665 560.24,578.14 C560.24,578.333334 560.28,578.498333 560.36,578.635 C560.44,578.771667 560.548333,578.893333 560.685,579 C560.821667,579.106667 560.978332,579.201666 561.155,579.285 C561.331668,579.368334 561.516666,579.446666 561.71,579.52 Z M559.17,581.37 C559.17,581.163332 559.205,580.971668 559.275,580.795 C559.345,580.618332 559.434999,580.458334 559.545,580.315 C559.655001,580.171666 559.781666,580.045001 559.925,579.935 C560.068334,579.824999 560.216666,579.73 560.37,579.65 L560.37,579.61 C560.136665,579.443332 559.930001,579.241668 559.75,579.005 C559.569999,578.768332 559.48,578.480002 559.48,578.14 C559.48,577.893332 559.526666,577.670001 559.62,577.47 C559.713334,577.269999 559.839999,577.098334 560,576.955 C560.160001,576.811666 560.349999,576.7 560.57,576.62 C560.790001,576.54 561.029999,576.5 561.29,576.5 C561.570001,576.5 561.819999,576.541666 562.04,576.625 C562.260001,576.708334 562.448333,576.824999 562.605,576.975 C562.761667,577.125001 562.881666,577.304999 562.965,577.515 C563.048334,577.725001 563.09,577.953332 563.09,578.2 C563.09,578.366667 563.061667,578.526666 563.005,578.68 C562.948333,578.833334 562.878334,578.976666 562.795,579.11 C562.711666,579.243334 562.618334,579.363333 562.515,579.47 C562.411666,579.576667 562.310001,579.666666 562.21,579.74 L562.21,579.78 C562.350001,579.86 562.486666,579.951666 562.62,580.055 C562.753334,580.158334 562.871666,580.274999 562.975,580.405 C563.078334,580.535001 563.161666,580.683333 563.225,580.85 C563.288334,581.016668 563.32,581.206666 563.32,581.42 C563.32,581.660001 563.270001,581.883332 563.17,582.09 C563.069999,582.296668 562.930001,582.476666 562.75,582.63 C562.569999,582.783334 562.353335,582.903333 562.1,582.99 C561.846665,583.076667 561.566668,583.12 561.26,583.12 C560.959998,583.12 560.681668,583.076667 560.425,582.99 C560.168332,582.903333 559.948334,582.781667 559.765,582.625 C559.581666,582.468333 559.436667,582.283334 559.33,582.07 C559.223333,581.856666 559.17,581.623335 559.17,581.37 Z M568.58,579.9 C568.786668,579.9 569.008332,579.835001 569.245,579.705 C569.481668,579.574999 569.706666,579.356668 569.92,579.05 C569.866666,578.42333 569.720001,577.950002 569.48,577.63 C569.239999,577.309998 568.916669,577.15 568.51,577.15 C568.356666,577.15 568.211667,577.183333 568.075,577.25 C567.938333,577.316667 567.82,577.411666 567.72,577.535 C567.619999,577.658334 567.541667,577.806666 567.485,577.98 C567.428333,578.153334 567.4,578.343332 567.4,578.55 C567.4,578.970002 567.496666,579.299999 567.69,579.54 C567.883334,579.780001 568.179998,579.9 568.58,579.9 Z M567.2,581.93 C567.333334,582.083334 567.491666,582.206666 567.675,582.3 C567.858334,582.393334 568.049999,582.44 568.25,582.44 C568.476668,582.44 568.689999,582.393334 568.89,582.3 C569.090001,582.206666 569.266666,582.051668 569.42,581.835 C569.573334,581.618332 569.696666,581.336668 569.79,580.99 C569.883334,580.643332 569.933333,580.213336 569.94,579.7 C569.739999,579.953335 569.506668,580.153333 569.24,580.3 C568.973332,580.446667 568.706668,580.52 568.44,580.52 C567.886664,580.52 567.446668,580.356668 567.12,580.03 C566.793332,579.703332 566.63,579.210003 566.63,578.55 C566.63,578.243332 566.68,577.965001 566.78,577.715 C566.880001,577.464999 567.014999,577.250001 567.185,577.07 C567.355001,576.889999 567.554999,576.75 567.785,576.65 C568.015001,576.55 568.256665,576.5 568.51,576.5 C568.823335,576.5 569.114999,576.563333 569.385,576.69 C569.655001,576.816667 569.888332,577.008332 570.085,577.265 C570.281668,577.521668 570.434999,577.841665 570.545,578.225 C570.655001,578.608335 570.71,579.056664 570.71,579.57 C570.71,580.210003 570.643334,580.754998 570.51,581.205 C570.376666,581.655002 570.196668,582.021665 569.97,582.305 C569.743332,582.588335 569.485001,582.794999 569.195,582.925 C568.904999,583.055001 568.600002,583.12 568.28,583.12 C567.939998,583.12 567.641668,583.056667 567.385,582.93 C567.128332,582.803333 566.913334,582.643334 566.74,582.45 L567.2,581.93 Z M500.358,619.774 L501.002,619.774 L501.002,628.44 L505.258,628.44 L505.258,629 L500.358,629 L500.358,619.774 Z M507.398,620.656 C507.239333,620.656 507.106334,620.604667 506.999,620.502 C506.891666,620.399333 506.838,620.268667 506.838,620.11 C506.838,619.932666 506.891666,619.795 506.999,619.697 C507.106334,619.599 507.239333,619.55 507.398,619.55 C507.556667,619.55 507.689666,619.599 507.797,619.697 C507.904334,619.795 507.958,619.932666 507.958,620.11 C507.958,620.268667 507.904334,620.399333 507.797,620.502 C507.689666,620.604667 507.556667,620.656 507.398,620.656 Z M507.076,622.28 L507.692,622.28 L507.692,629 L507.076,629 L507.076,622.28 Z M510.56,630.316 C510.56,630.736002 510.753665,631.076665 511.141,631.338 C511.528335,631.599335 512.08133,631.73 512.8,631.73 C513.173335,631.73 513.513998,631.681 513.822,631.583 C514.130002,631.485 514.391332,631.356667 514.606,631.198 C514.820668,631.039333 514.986333,630.859668 515.103,630.659 C515.219667,630.458332 515.278,630.250668 515.278,630.036 C515.278,629.662665 515.145001,629.399001 514.879,629.245 C514.612999,629.090999 514.228003,629.014 513.724,629.014 L512.282,629.014 C512.207333,629.014 512.093001,629.007 511.939,628.993 C511.784999,628.979 511.619334,628.948667 511.442,628.902 C511.133998,629.116668 510.910001,629.345332 510.77,629.588 C510.629999,629.830668 510.56,630.073332 510.56,630.316 Z M509.972,630.372 C509.972,630.073332 510.060666,629.784001 510.238,629.504 C510.415334,629.223999 510.657998,628.972001 510.966,628.748 L510.966,628.692 C510.797999,628.589333 510.658001,628.449334 510.546,628.272 C510.433999,628.094666 510.378,627.875335 510.378,627.614 C510.378,627.315332 510.461999,627.061001 510.63,626.851 C510.798001,626.640999 510.956666,626.484667 511.106,626.382 L511.106,626.326 C510.891332,626.139332 510.697668,625.887335 510.525,625.57 C510.352332,625.252665 510.266,624.888669 510.266,624.478 C510.266,624.132665 510.326666,623.815335 510.448,623.526 C510.569334,623.236665 510.737332,622.987001 510.952,622.777 C511.166668,622.566999 511.418665,622.403667 511.708,622.287 C511.997335,622.170333 512.305332,622.112 512.632,622.112 C512.818668,622.112 512.986666,622.128333 513.136,622.161 C513.285334,622.193667 513.411333,622.233333 513.514,622.28 L515.796,622.28 L515.796,622.798 L514.228,622.798 C514.442668,622.984668 514.619999,623.224999 514.76,623.519 C514.900001,623.813001 514.97,624.137332 514.97,624.492 C514.97,624.837335 514.909334,625.154665 514.788,625.444 C514.666666,625.733335 514.501001,625.982999 514.291,626.193 C514.080999,626.403001 513.833668,626.566333 513.549,626.683 C513.264332,626.799667 512.958668,626.858 512.632,626.858 C512.445332,626.858 512.251668,626.834667 512.051,626.788 C511.850332,626.741333 511.670667,626.671334 511.512,626.578 C511.362666,626.699334 511.234334,626.834666 511.127,626.984 C511.019666,627.133334 510.966,627.319999 510.966,627.544 C510.966,627.786668 511.054666,627.994332 511.232,628.167 C511.409334,628.339668 511.749997,628.426 512.254,628.426 L513.696,628.426 C514.452004,628.426 515.009665,628.549665 515.369,628.797 C515.728335,629.044335 515.908,629.433997 515.908,629.966 C515.908,630.255335 515.833334,630.537665 515.684,630.813 C515.534666,631.088335 515.322335,631.330999 515.047,631.541 C514.771665,631.751001 514.438002,631.918999 514.046,632.045 C513.653998,632.171001 513.215336,632.234 512.73,632.234 C511.880662,632.234 511.208669,632.066002 510.714,631.73 C510.219331,631.393998 509.972,630.941336 509.972,630.372 Z M512.632,626.368 C512.865335,626.368 513.086999,626.323667 513.297,626.235 C513.507001,626.146333 513.691333,626.018001 513.85,625.85 C514.008667,625.681999 514.134666,625.481335 514.228,625.248 C514.321334,625.014665 514.368,624.758001 514.368,624.478 C514.368,624.197999 514.321334,623.941335 514.228,623.708 C514.134666,623.474666 514.011001,623.278667 513.857,623.12 C513.702999,622.961333 513.518668,622.837667 513.304,622.749 C513.089332,622.660333 512.865335,622.616 512.632,622.616 C512.389332,622.616 512.163001,622.660333 511.953,622.749 C511.742999,622.837667 511.558667,622.961333 511.4,623.12 C511.241333,623.278667 511.115334,623.472332 511.022,623.701 C510.928666,623.929668 510.882,624.188665 510.882,624.478 C510.882,624.758001 510.928666,625.014665 511.022,625.248 C511.115334,625.481335 511.243666,625.681999 511.407,625.85 C511.570334,626.018001 511.756999,626.146333 511.967,626.235 C512.177001,626.323667 512.398665,626.368 512.632,626.368 Z M517.6,618.934 L518.216,618.934 L518.216,623.33 C518.570668,622.975332 518.929998,622.683668 519.294,622.455 C519.658002,622.226332 520.073331,622.112 520.54,622.112 C521.240004,622.112 521.753332,622.321998 522.08,622.742 C522.406668,623.162002 522.57,623.810662 522.57,624.688 L522.57,629 L521.954,629 L521.954,624.772 C521.954,624.05333 521.835001,623.523668 521.597,623.183 C521.358999,622.842332 520.964669,622.672 520.414,622.672 C520.012665,622.672 519.648668,622.776999 519.322,622.987 C518.995332,623.197001 518.626669,623.511998 518.216,623.932 L518.216,629 L517.6,629 L517.6,618.934 Z M525.396,622.812 L524.346,622.812 L524.346,622.336 L525.41,622.28 L525.494,620.334 L526.026,620.334 L526.026,622.28 L527.972,622.28 L527.972,622.812 L526.026,622.812 L526.026,627.194 C526.026,627.408668 526.042333,627.602332 526.075,627.775 C526.107667,627.947668 526.166,628.096999 526.25,628.223 C526.334,628.349001 526.448333,628.447 526.593,628.517 C526.737667,628.587 526.926666,628.622 527.16,628.622 C527.290667,628.622 527.432999,628.601 527.587,628.559 C527.741001,628.517 527.878666,628.468 528,628.412 L528.168,628.916 C527.971999,628.990667 527.776001,629.051333 527.58,629.098 C527.383999,629.144667 527.216001,629.168 527.076,629.168 C526.749332,629.168 526.478668,629.119 526.264,629.021 C526.049332,628.923 525.876667,628.785334 525.746,628.608 C525.615333,628.430666 525.524334,628.216001 525.473,627.964 C525.421666,627.711999 525.396,627.436668 525.396,627.138 L525.396,622.812 Z M529.23,630.708 C529.622002,630.530666 529.929999,630.297335 530.154,630.008 C530.378001,629.718665 530.49,629.382669 530.49,629 C530.462,629.009333 530.415334,629.014 530.35,629.014 C530.125999,629.014 529.932334,628.946334 529.769,628.811 C529.605666,628.675666 529.524,628.477335 529.524,628.216 C529.524,627.963999 529.607999,627.765667 529.776,627.621 C529.944001,627.476333 530.144665,627.404 530.378,627.404 C530.676668,627.404 530.912332,627.525332 531.085,627.768 C531.257668,628.010668 531.344,628.341998 531.344,628.762 C531.344,629.36867 531.180668,629.895998 530.854,630.344 C530.527332,630.792002 530.079336,631.137332 529.51,631.38 L529.23,630.708 Z M537.808,624.17 L539.348,624.17 C540.06667,624.17 540.617331,624.023001 541,623.729 C541.382669,623.434999 541.574,622.989336 541.574,622.392 C541.574,621.78533 541.382669,621.360668 541,621.118 C540.617331,620.875332 540.06667,620.754 539.348,620.754 L537.808,620.754 L537.808,624.17 Z M541.686,629 L539.474,625.122 L537.808,625.122 L537.808,629 L536.646,629 L536.646,619.816 L539.516,619.816 C539.982669,619.816 540.414331,619.860333 540.811,619.949 C541.207669,620.037667 541.548332,620.184666 541.833,620.39 C542.117668,620.595334 542.339333,620.861332 542.498,621.188 C542.656667,621.514668 542.736,621.915998 542.736,622.392 C542.736,623.11067 542.549335,623.684665 542.176,624.114 C541.802665,624.543335 541.303336,624.837333 540.678,624.996 L543.002,629 L541.686,629 Z M544.274,625.612 C544.274,625.051997 544.360332,624.550336 544.533,624.107 C544.705668,623.663664 544.934332,623.288002 545.219,622.98 C545.503668,622.671998 545.827998,622.436334 546.192,622.273 C546.556002,622.109666 546.933998,622.028 547.326,622.028 C547.755335,622.028 548.140332,622.102666 548.481,622.252 C548.821668,622.401334 549.106332,622.615999 549.335,622.896 C549.563668,623.176001 549.738666,623.511998 549.86,623.904 C549.981334,624.296002 550.042,624.734664 550.042,625.22 C550.042,625.472001 550.028,625.681999 550,625.85 L545.408,625.85 C545.454667,626.587337 545.680998,627.170665 546.087,627.6 C546.493002,628.029335 547.022663,628.244 547.676,628.244 C548.002668,628.244 548.303665,628.195 548.579,628.097 C548.854335,627.999 549.117999,627.870667 549.37,627.712 L549.776,628.468 C549.477332,628.654668 549.146002,628.817999 548.782,628.958 C548.417998,629.098001 548.002669,629.168 547.536,629.168 C547.078664,629.168 546.651669,629.086334 546.255,628.923 C545.858331,628.759666 545.513001,628.526335 545.219,628.223 C544.924999,627.919665 544.694001,627.548669 544.526,627.11 C544.357999,626.671331 544.274,626.172003 544.274,625.612 Z M549.034,625.094 C549.034,624.393996 548.887001,623.859669 548.593,623.491 C548.298999,623.122331 547.886003,622.938 547.354,622.938 C547.111332,622.938 546.880334,622.987 546.661,623.085 C546.441666,623.183 546.243334,623.322999 546.066,623.505 C545.888666,623.687001 545.741667,623.910999 545.625,624.177 C545.508333,624.443001 545.431334,624.748665 545.394,625.094 L549.034,625.094 Z M552.322,630.148 C552.322,630.512002 552.496998,630.801332 552.847,631.016 C553.197002,631.230668 553.679997,631.338 554.296,631.338 C554.622668,631.338 554.918999,631.298334 555.185,631.219 C555.451001,631.139666 555.677332,631.037001 555.864,630.911 C556.050668,630.784999 556.195333,630.638001 556.298,630.47 C556.400667,630.301999 556.452,630.129334 556.452,629.952 C556.452,629.634665 556.335335,629.415334 556.102,629.294 C555.868666,629.172666 555.528002,629.112 555.08,629.112 L553.904,629.112 C553.773333,629.112 553.631001,629.105 553.477,629.091 C553.322999,629.077 553.171334,629.046667 553.022,629 C552.779332,629.177334 552.602001,629.363999 552.49,629.56 C552.377999,629.756001 552.322,629.951999 552.322,630.148 Z M551.314,630.302 C551.314,630.012665 551.402666,629.737335 551.58,629.476 C551.757334,629.214665 551.999998,628.976668 552.308,628.762 L552.308,628.706 C552.139999,628.603333 551.997667,628.461001 551.881,628.279 C551.764333,628.096999 551.706,627.870668 551.706,627.6 C551.706,627.310665 551.785333,627.058668 551.944,626.844 C552.102667,626.629332 552.270666,626.461334 552.448,626.34 L552.448,626.284 C552.223999,626.097332 552.021001,625.847668 551.839,625.535 C551.656999,625.222332 551.566,624.860669 551.566,624.45 C551.566,624.076665 551.633666,623.740668 551.769,623.442 C551.904334,623.143332 552.088666,622.889001 552.322,622.679 C552.555334,622.468999 552.828332,622.308001 553.141,622.196 C553.453668,622.083999 553.782665,622.028 554.128,622.028 C554.314668,622.028 554.489666,622.044333 554.653,622.077 C554.816334,622.109667 554.963333,622.149333 555.094,622.196 L557.46,622.196 L557.46,623.078 L556.06,623.078 C556.218667,623.236667 556.351666,623.437332 556.459,623.68 C556.566334,623.922668 556.62,624.188665 556.62,624.478 C556.62,624.842002 556.554667,625.170999 556.424,625.465 C556.293333,625.759001 556.116001,626.006332 555.892,626.207 C555.667999,626.407668 555.404335,626.563999 555.101,626.676 C554.797665,626.788001 554.473335,626.844 554.128,626.844 C553.959999,626.844 553.787334,626.823 553.61,626.781 C553.432666,626.739 553.264667,626.680667 553.106,626.606 C552.984666,626.708667 552.882,626.822999 552.798,626.949 C552.714,627.075001 552.672,627.231332 552.672,627.418 C552.672,627.632668 552.755999,627.809999 552.924,627.95 C553.092001,628.090001 553.409331,628.16 553.876,628.16 L555.192,628.16 C555.985337,628.16 556.580331,628.288332 556.977,628.545 C557.373669,628.801668 557.572,629.214664 557.572,629.784 C557.572,630.101335 557.492667,630.402332 557.334,630.687 C557.175333,630.971668 556.946668,631.221332 556.648,631.436 C556.349332,631.650668 555.987669,631.820999 555.563,631.947 C555.138331,632.073001 554.660003,632.136 554.128,632.136 C553.707998,632.136 553.325335,632.096334 552.98,632.017 C552.634665,631.937666 552.338335,631.818667 552.091,631.66 C551.843665,631.501333 551.652334,631.310001 551.517,631.086 C551.381666,630.861999 551.314,630.600668 551.314,630.302 Z M554.128,626.074 C554.324001,626.074 554.508332,626.036667 554.681,625.962 C554.853668,625.887333 555.007666,625.780001 555.143,625.64 C555.278334,625.499999 555.383333,625.329668 555.458,625.129 C555.532667,624.928332 555.57,624.702001 555.57,624.45 C555.57,623.945997 555.430001,623.556335 555.15,623.281 C554.869999,623.005665 554.529335,622.868 554.128,622.868 C553.726665,622.868 553.386001,623.005665 553.106,623.281 C552.825999,623.556335 552.686,623.945997 552.686,624.45 C552.686,624.702001 552.723333,624.928332 552.798,625.129 C552.872667,625.329668 552.977666,625.499999 553.113,625.64 C553.248334,625.780001 553.402332,625.887333 553.575,625.962 C553.747668,626.036667 553.931999,626.074 554.128,626.074 Z M559.04,622.196 L560.202,622.196 L560.202,626.354 C560.202,626.998003 560.302332,627.462332 560.503,627.747 C560.703668,628.031668 561.027998,628.174 561.476,628.174 C561.830668,628.174 562.143332,628.083001 562.414,627.901 C562.684668,627.718999 562.983332,627.427335 563.31,627.026 L563.31,622.196 L564.458,622.196 L564.458,629 L563.506,629 L563.408,627.936 L563.366,627.936 C563.048665,628.309335 562.715002,628.607999 562.365,628.832 C562.014998,629.056001 561.602002,629.168 561.126,629.168 C560.397996,629.168 559.868335,628.944002 559.537,628.496 C559.205665,628.047998 559.04,627.385338 559.04,626.508 L559.04,622.196 Z M567.004,619.032 L568.152,619.032 L568.152,627.712 C568.152,627.898668 568.184666,628.029333 568.25,628.104 C568.315334,628.178667 568.39,628.216 568.474,628.216 L568.579,628.216 C568.611667,628.216 568.660666,628.206667 568.726,628.188 L568.88,629.056 C568.805333,629.093334 568.716667,629.121333 568.614,629.14 C568.511333,629.158667 568.380667,629.168 568.222,629.168 C567.783331,629.168 567.470668,629.037335 567.284,628.776 C567.097332,628.514665 567.004,628.132003 567.004,627.628 L567.004,619.032 Z M570.488,627.236 C570.488,626.48933 570.821663,625.917669 571.489,625.521 C572.156337,625.124331 573.217993,624.846667 574.674,624.688 C574.674,624.473332 574.653,624.263334 574.611,624.058 C574.569,623.852666 574.494334,623.670667 574.387,623.512 C574.279666,623.353333 574.137334,623.225 573.96,623.127 C573.782666,623.029 573.554001,622.98 573.274,622.98 C572.872665,622.98 572.501668,623.054666 572.161,623.204 C571.820332,623.353334 571.514668,623.521332 571.244,623.708 L570.782,622.91 C571.099335,622.704666 571.486664,622.506334 571.944,622.315 C572.401336,622.123666 572.905331,622.028 573.456,622.028 C574.286671,622.028 574.888665,622.282331 575.262,622.791 C575.635335,623.299669 575.822,623.978662 575.822,624.828 L575.822,629 L574.87,629 L574.772,628.188 L574.744,628.188 C574.417332,628.458668 574.065002,628.689666 573.687,628.881 C573.308998,629.072334 572.910002,629.168 572.49,629.168 C571.91133,629.168 571.433002,629.000002 571.055,628.664 C570.676998,628.327998 570.488,627.852003 570.488,627.236 Z M571.622,627.152 C571.622,627.544002 571.736332,627.823999 571.965,627.992 C572.193668,628.160001 572.475998,628.244 572.812,628.244 C573.138668,628.244 573.448999,628.167001 573.743,628.013 C574.037001,627.858999 574.347332,627.632668 574.674,627.334 L574.674,625.444 C574.104664,625.518667 573.624002,625.607333 573.232,625.71 C572.839998,625.812667 572.525001,625.933999 572.287,626.074 C572.048999,626.214001 571.878667,626.374999 571.776,626.557 C571.673333,626.739001 571.622,626.937332 571.622,627.152 Z M578.242,622.196 L579.194,622.196 L579.292,623.428 L579.334,623.428 C579.567335,622.998665 579.849665,622.658001 580.181,622.406 C580.512335,622.153999 580.873998,622.028 581.266,622.028 C581.536668,622.028 581.779332,622.074666 581.994,622.168 L581.77,623.176 C581.657999,623.138666 581.555334,623.110667 581.462,623.092 C581.368666,623.073333 581.252001,623.064 581.112,623.064 C580.822665,623.064 580.521668,623.180666 580.209,623.414 C579.896332,623.647334 579.623335,624.05333 579.39,624.632 L579.39,629 L578.242,629 L578.242,622.196 Z M582.062,630.708 C582.454002,630.530666 582.761999,630.297335 582.986,630.008 C583.210001,629.718665 583.322,629.382669 583.322,629 C583.294,629.009333 583.247334,629.014 583.182,629.014 C582.957999,629.014 582.764334,628.946334 582.601,628.811 C582.437666,628.675666 582.356,628.477335 582.356,628.216 C582.356,627.963999 582.439999,627.765667 582.608,627.621 C582.776001,627.476333 582.976666,627.404 583.21,627.404 C583.508668,627.404 583.744332,627.525332 583.917,627.768 C584.089668,628.010668 584.176,628.341998 584.176,628.762 C584.176,629.36867 584.012668,629.895998 583.686,630.344 C583.359332,630.792002 582.911336,631.137332 582.342,631.38 L582.062,630.708 Z M589.296,619.872 L592.418,619.872 C592.894002,619.872 593.334998,619.907 593.741,619.977 C594.147002,620.047 594.501665,620.170666 594.805,620.348 C595.108335,620.525334 595.346332,620.758665 595.519,621.048 C595.691668,621.337335 595.778,621.701331 595.778,622.14 C595.778,622.345334 595.747667,622.550666 595.687,622.756 C595.626333,622.961334 595.535334,623.152666 595.414,623.33 C595.292666,623.507334 595.134001,623.665999 594.938,623.806 C594.741999,623.946001 594.513335,624.048666 594.252,624.114 L594.252,624.17 C594.905337,624.291334 595.397665,624.524665 595.729,624.87 C596.060335,625.215335 596.226,625.695997 596.226,626.312 C596.226,626.778669 596.135001,627.179998 595.953,627.516 C595.770999,627.852002 595.519002,628.129666 595.197,628.349 C594.874998,628.568334 594.499335,628.731666 594.07,628.839 C593.640665,628.946334 593.178669,629 592.684,629 L589.296,629 L589.296,619.872 Z M592.32,623.554 C592.824003,623.554 593.190332,623.453668 593.419,623.253 C593.647668,623.052332 593.762,622.779335 593.762,622.434 C593.762,622.088665 593.645334,621.841334 593.412,621.692 C593.178666,621.542666 592.819336,621.468 592.334,621.468 L591.354,621.468 L591.354,623.554 L592.32,623.554 Z M592.516,627.404 C593.645339,627.404 594.21,626.988671 594.21,626.158 C594.21,625.756665 594.070001,625.465001 593.79,625.283 C593.509999,625.100999 593.085336,625.01 592.516,625.01 L591.354,625.01 L591.354,627.404 L592.516,627.404 Z M597.442,625.528 C597.442,624.94933 597.535332,624.433669 597.722,623.981 C597.908668,623.528331 598.158332,623.148002 598.471,622.84 C598.783668,622.531998 599.145331,622.296334 599.556,622.133 C599.966669,621.969666 600.391331,621.888 600.83,621.888 C601.268669,621.888 601.690998,621.969666 602.097,622.133 C602.503002,622.296334 602.862332,622.531998 603.175,622.84 C603.487668,623.148002 603.737332,623.528331 603.924,623.981 C604.110668,624.433669 604.204,624.94933 604.204,625.528 C604.204,626.10667 604.110668,626.622331 603.924,627.075 C603.737332,627.527669 603.487668,627.907998 603.175,628.216 C602.862332,628.524002 602.503002,628.759666 602.097,628.923 C601.690998,629.086334 601.268669,629.168 600.83,629.168 C600.391331,629.168 599.966669,629.086334 599.556,628.923 C599.145331,628.759666 598.783668,628.524002 598.471,628.216 C598.158332,627.907998 597.908668,627.527669 597.722,627.075 C597.535332,626.622331 597.442,626.10667 597.442,625.528 Z M599.556,625.528 C599.556,626.13467 599.660999,626.615332 599.871,626.97 C600.081001,627.324668 600.400665,627.502 600.83,627.502 C601.250002,627.502 601.567332,627.324668 601.782,626.97 C601.996668,626.615332 602.104,626.13467 602.104,625.528 C602.104,624.92133 601.996668,624.440668 601.782,624.086 C601.567332,623.731332 601.250002,623.554 600.83,623.554 C600.400665,623.554 600.081001,623.731332 599.871,624.086 C599.660999,624.440668 599.556,624.92133 599.556,625.528 Z M605.868,619.186 L607.926,619.186 L607.926,626.928 C607.926,627.142668 607.965666,627.292 608.045,627.376 C608.124334,627.46 608.206,627.502 608.29,627.502 L608.409,627.502 C608.441667,627.502 608.486,627.492667 608.542,627.474 L608.794,629 C608.681999,629.046667 608.539668,629.086333 608.367,629.119 C608.194332,629.151667 607.991334,629.168 607.758,629.168 C607.403332,629.168 607.104668,629.112001 606.862,629 C606.619332,628.887999 606.425667,628.731668 606.281,628.531 C606.136333,628.330332 606.031334,628.087668 605.966,627.803 C605.900666,627.518332 605.868,627.198668 605.868,626.844 L605.868,619.186 Z M609.758,625.528 C609.758,624.958664 609.839666,624.450002 610.003,624.002 C610.166334,623.553998 610.380999,623.173668 610.647,622.861 C610.913001,622.548332 611.220998,622.308001 611.571,622.14 C611.921002,621.971999 612.277998,621.888 612.642,621.888 C613.034002,621.888 613.355999,621.953333 613.608,622.084 C613.860001,622.214667 614.107332,622.391999 614.35,622.616 L614.266,621.552 L614.266,619.186 L616.324,619.186 L616.324,629 L614.644,629 L614.504,628.314 L614.448,628.314 C614.205332,628.556668 613.920668,628.759666 613.594,628.923 C613.267332,629.086334 612.936002,629.168 612.6,629.168 C612.170665,629.168 611.781002,629.084001 611.431,628.916 C611.080998,628.747999 610.782335,628.507668 610.535,628.195 C610.287665,627.882332 610.096334,627.502002 609.961,627.054 C609.825666,626.605998 609.758,626.097336 609.758,625.528 Z M611.872,625.5 C611.872,626.19067 611.981666,626.694665 612.201,627.012 C612.420334,627.329335 612.730665,627.488 613.132,627.488 C613.356001,627.488 613.558999,627.441334 613.741,627.348 C613.923001,627.254666 614.097999,627.091335 614.266,626.858 L614.266,624.016 C614.079332,623.847999 613.888001,623.731334 613.692,623.666 C613.495999,623.600666 613.304668,623.568 613.118,623.568 C612.791332,623.568 612.502001,623.724332 612.25,624.037 C611.997999,624.349668 611.872,624.83733 611.872,625.5 Z M618.142,630.708 C618.534002,630.530666 618.841999,630.297335 619.066,630.008 C619.290001,629.718665 619.402,629.382669 619.402,629 C619.374,629.009333 619.327334,629.014 619.262,629.014 C619.037999,629.014 618.844334,628.946334 618.681,628.811 C618.517666,628.675666 618.436,628.477335 618.436,628.216 C618.436,627.963999 618.519999,627.765667 618.688,627.621 C618.856001,627.476333 619.056666,627.404 619.29,627.404 C619.588668,627.404 619.824332,627.525332 619.997,627.768 C620.169668,628.010668 620.256,628.341998 620.256,628.762 C620.256,629.36867 620.092668,629.895998 619.766,630.344 C619.439332,630.792002 618.991336,631.137332 618.422,631.38 L618.142,630.708 Z M625.306,619.9 L628.582,619.9 C629.058002,619.9 629.505998,619.935 629.926,620.005 C630.346002,620.075 630.709998,620.193999 631.018,620.362 C631.326002,620.530001 631.570999,620.760999 631.753,621.055 C631.935001,621.349001 632.026,621.719998 632.026,622.168 C632.026,622.364001 631.998,622.562332 631.942,622.763 C631.886,622.963668 631.795001,623.154999 631.669,623.337 C631.542999,623.519001 631.384334,623.679999 631.193,623.82 C631.001666,623.960001 630.775335,624.062666 630.514,624.128 L630.514,624.184 C631.158003,624.314667 631.640998,624.550332 631.963,624.891 C632.285002,625.231668 632.446,625.70533 632.446,626.312 C632.446,626.778669 632.350334,627.182332 632.159,627.523 C631.967666,627.863668 631.711002,628.143666 631.389,628.363 C631.066998,628.582334 630.686669,628.743333 630.248,628.846 C629.809331,628.948667 629.347336,629 628.862,629 L625.306,629 L625.306,619.9 Z M628.526,623.484 C628.918002,623.484 629.207332,623.395334 629.394,623.218 C629.580668,623.040666 629.674,622.812001 629.674,622.532 C629.674,622.251999 629.580668,622.051334 629.394,621.93 C629.207332,621.808666 628.918002,621.748 628.526,621.748 L627.714,621.748 L627.714,623.484 L628.526,623.484 Z M628.694,627.152 C629.627338,627.152 630.094,626.80667 630.094,626.116 C630.094,625.779998 629.979668,625.537334 629.751,625.388 C629.522332,625.238666 629.170002,625.164 628.694,625.164 L627.714,625.164 L627.714,627.152 L628.694,627.152 Z M633.928,619.256 L636.336,619.256 L636.336,626.62 C636.336,626.862668 636.380333,627.026 636.469,627.11 C636.557667,627.194 636.644,627.236 636.728,627.236 L636.847,627.236 C636.879667,627.236 636.924,627.226667 636.98,627.208 L637.26,628.972 C637.129333,629.028 636.968334,629.074666 636.777,629.112 C636.585666,629.149334 636.354668,629.168 636.084,629.168 C635.673331,629.168 635.330335,629.105001 635.055,628.979 C634.779665,628.852999 634.558001,628.673335 634.39,628.44 C634.221999,628.206665 634.103,627.929002 634.033,627.607 C633.963,627.284998 633.928,626.928002 633.928,626.536 L633.928,619.256 Z M638.126,627.012 C638.126,626.283996 638.424664,625.712335 639.022,625.297 C639.619336,624.881665 640.589993,624.604001 641.934,624.464 C641.878,623.978664 641.551336,623.736 640.954,623.736 C640.701999,623.736 640.436001,623.785 640.156,623.883 C639.875999,623.981 639.554002,624.127999 639.19,624.324 L638.35,622.756 C638.844669,622.457332 639.343997,622.228667 639.848,622.07 C640.352003,621.911333 640.879331,621.832 641.43,621.832 C642.335338,621.832 643.046997,622.090997 643.565,622.609 C644.083003,623.127003 644.342,623.959994 644.342,625.108 L644.342,629 L642.382,629 L642.214,628.328 L642.158,628.328 C641.877999,628.580001 641.581668,628.782999 641.269,628.937 C640.956332,629.091001 640.608669,629.168 640.226,629.168 C639.899332,629.168 639.605335,629.109667 639.344,628.993 C639.082665,628.876333 638.861001,628.720001 638.679,628.524 C638.496999,628.327999 638.359334,628.099335 638.266,627.838 C638.172666,627.576665 638.126,627.301335 638.126,627.012 Z M640.422,626.816 C640.422,627.152002 640.636665,627.32 641.066,627.32 C641.262001,627.32 641.422999,627.275667 641.549,627.187 C641.675001,627.098333 641.803333,626.984001 641.934,626.844 L641.934,625.892 C641.35533,625.976 640.958668,626.101999 640.744,626.27 C640.529332,626.438001 640.422,626.619999 640.422,626.816 Z M645.824,625.5 C645.824,624.92133 645.926666,624.403336 646.132,623.946 C646.337334,623.488664 646.612665,623.103668 646.958,622.791 C647.303335,622.478332 647.702331,622.240334 648.155,622.077 C648.607669,621.913666 649.081331,621.832 649.576,621.832 C649.996002,621.832 650.380998,621.901999 650.731,622.042 C651.081002,622.182001 651.377332,622.373332 651.62,622.616 L650.528,624.1 C650.369333,623.969333 650.227001,623.880667 650.101,623.834 C649.974999,623.787333 649.846667,623.764 649.716,623.764 C649.267998,623.764 648.918001,623.920332 648.666,624.233 C648.413999,624.545668 648.288,624.967997 648.288,625.5 C648.288,626.032003 648.416332,626.454332 648.673,626.767 C648.929668,627.079668 649.249331,627.236 649.632,627.236 C649.856001,627.236 650.058999,627.189334 650.241,627.096 C650.423001,627.002666 650.593333,626.900001 650.752,626.788 L651.704,628.3 C651.349332,628.608002 650.959669,628.829666 650.535,628.965 C650.110331,629.100334 649.716002,629.168 649.352,629.168 C648.857331,629.168 648.395335,629.086334 647.966,628.923 C647.536665,628.759666 647.163335,628.521668 646.846,628.209 C646.528665,627.896332 646.279001,627.511336 646.097,627.054 C645.914999,626.596664 645.824,626.07867 645.824,625.5 Z M653.046,619.256 L655.398,619.256 L655.398,624.436 L655.454,624.436 L657.386,622 L659.99,622 L657.498,624.912 L660.13,629 L657.526,629 L656.126,626.508 L655.398,627.32 L655.398,629 L653.046,629 L653.046,619.256 Z" id="Aa-ABCDEFGHIJKLMNOPQ"></path>
        </g>
    </g>
</svg>