<?xml version="1.0" encoding="UTF-8"?>
<svg width="206px" height="163px" viewBox="0 0 206 163" version="1.1" xmlns="http://www.w3.org/2000/svg" xmlns:xlink="http://www.w3.org/1999/xlink">
    <!-- Generator: Sketch 49.2 (51160) - http://www.bohemiancoding.com/sketch -->
    <title>Page 1</title>
    <desc>Created with Sketch.</desc>
    <defs>
        <polygon id="path-1" points="0 163 206 163 206 0 0 0"></polygon>
    </defs>
    <g id="Page-1" stroke="none" stroke-width="1" fill="none" fill-rule="evenodd">
        <g id="Tablet" transform="translate(-499.000000, -94.000000)">
            <g id="Page-1" transform="translate(499.000000, 94.000000)">
                <path d="M51.0223953,53.9619571 L46.7005711,40.0901217 C45.0281586,35.0052877 43.4465381,29.942058 41.9609727,24.9004324 C40.4734335,19.8607708 38.9858944,14.7045777 37.499671,9.43316235 L36.9424195,9.43316235 C35.5483039,14.7045777 34.1061607,19.8607708 32.6205953,24.9004324 C31.1330561,29.942058 29.5540672,35.0052877 27.8809969,40.0901217 L23.5591726,53.9619571 L51.0223953,53.9619571 Z M53.950104,63.2563291 L20.6321219,63.2563291 L11.848996,91 L0,91 L30.9481828,0 L44.0518172,0 L75,91 L62.5930946,91 L53.950104,63.2563291 Z" id="Fill-1" fill="#231F20"></path>
                <path d="M91.2681869,72.235416 C91.2681869,76.0786016 92.4026211,78.8238266 94.6760848,80.4704434 C96.947579,82.117708 99.7534652,82.9410164 103.09243,82.9410164 C106.337516,82.9410164 109.421759,82.186371 112.343189,80.6764325 C115.263963,79.1671417 118.346236,76.9491968 121.593291,74.0200067 L121.593291,55.4900614 C115.935564,56.2239784 111.160174,57.0926303 107.265152,58.0979605 C103.370787,59.1058817 100.240589,60.2938814 97.8752152,61.6671417 C95.5104978,63.0391065 93.8173812,64.617708 92.7984913,66.4022986 C91.7763189,68.1862415 91.2681869,70.1314776 91.2681869,72.235416 M80,73.0587245 C80,65.7396358 83.3153312,60.1351792 89.94665,56.2447068 C96.5759993,52.3568256 107.125974,49.6355678 121.593291,48.0783425 C121.593291,45.9744041 121.38518,43.9158092 120.967646,41.90191 C120.550111,39.8899541 119.806951,38.1060113 118.74145,36.5487859 C117.674636,34.9941516 116.259219,33.7348978 114.499139,32.7742634 C112.736433,31.813629 110.464939,31.3329879 107.682687,31.3329879 C103.694442,31.3329879 100.008188,32.0669048 96.6239239,33.5295566 C93.2376906,34.9941516 90.200716,36.6414162 87.5123435,38.4707025 L82.9214304,30.6470055 C86.0732928,28.6350496 89.9223594,26.6898134 94.4679739,24.8138881 C99.0103058,22.9392582 104.018097,22 109.491348,22 C117.744225,22 123.725607,24.4938925 127.436152,29.480382 C131.144071,34.4688148 133,41.1258884 133,49.450955 L133,90.3533832 L123.54113,90.3533832 L122.566883,82.3923601 L122.288526,82.3923601 C119.041471,85.0475459 115.54232,87.3121298 111.786476,89.1861119 C108.030633,91.0607418 104.066022,92 99.8926435,92 C94.1410363,92 89.389937,90.3533832 85.6340935,87.058854 C81.87825,83.7649726 80,79.0984787 80,73.0587245" id="Fill-3" fill="#231F20"></path>
                <path d="M3.40148699,121.150915 L3.1133829,120.083841 C3.00185874,119.692359 2.89672398,119.302877 2.79739777,118.915396 C2.69865242,118.527915 2.59932621,118.131098 2.5,117.72561 L2.46282528,117.72561 C2.36988848,118.131098 2.2740474,118.527915 2.17472119,118.915396 C2.07539498,119.302877 1.97026022,119.692359 1.85873606,120.083841 L1.57063197,121.150915 L3.40148699,121.150915 Z M3.59665428,121.865854 L1.37546468,121.865854 L0.789962825,124 L0,124 L2.06319703,117 L2.93680297,117 L5,124 L4.17286245,124 L3.59665428,121.865854 Z" id="Fill-5" fill="#231F20"></path>
                <path d="M10.150655,123.295732 C10.7695142,123.295732 11.2498635,123.183689 11.5917031,122.959604 C11.9335426,122.735518 12.1048035,122.385385 12.1048035,121.908537 C12.1048035,121.475038 11.9376365,121.15625 11.6026201,120.953506 C11.268286,120.750762 10.7838428,120.64939 10.150655,120.64939 L8.90611354,120.64939 L8.90611354,123.295732 L10.150655,123.295732 Z M9.9650655,119.987805 C10.5839247,119.987805 11.0260644,119.885099 11.2914847,119.678354 C11.5575873,119.472275 11.6899563,119.173495 11.6899563,118.782012 C11.6899563,118.397866 11.5500819,118.122428 11.2696507,117.95503 C10.9892194,117.7883 10.5689138,117.704268 10.0087336,117.704268 L8.90611354,117.704268 L8.90611354,119.987805 L9.9650655,119.987805 Z M8,117 L10.128821,117 C10.4924945,117 10.825464,117.032012 11.1277293,117.096037 C11.4299945,117.160061 11.6879094,117.260099 11.9028384,117.394817 C12.1177675,117.530202 12.2849345,117.706269 12.4050218,117.923018 C12.5251092,118.140434 12.5851528,118.401867 12.5851528,118.707317 C12.5851528,119.056117 12.483488,119.370903 12.279476,119.651677 C12.075464,119.933117 11.762964,120.126524 11.3406114,120.233232 L11.3406114,120.275915 C11.8646288,120.354611 12.2719705,120.532012 12.5633188,120.809451 C12.854667,121.08689 13,121.467702 13,121.95122 C13,122.292683 12.9344978,122.591463 12.8034934,122.847561 C12.6724891,123.103659 12.4868996,123.317073 12.2467249,123.487805 C12.0065502,123.658537 11.7192959,123.786585 11.3842795,123.871951 C11.0492631,123.957317 10.6821779,124 10.2816594,124 L8,124 L8,117 Z" id="Fill-7" fill="#231F20"></path>
                <path d="M17,120.5 C17,119.958272 17.075077,119.470588 17.2258727,119.038235 C17.3760267,118.605882 17.5852156,118.238511 17.8521561,117.936765 C18.1190965,117.635018 18.4354466,117.403401 18.801848,117.241912 C19.1676078,117.081066 19.5667351,117 19.9979466,117 C20.4086242,117 20.7679671,117.084283 21.0759754,117.252206 C21.3839836,117.420129 21.6374487,117.61443 21.835729,117.833824 L21.3531828,118.379412 C21.1747947,118.187684 20.9784394,118.034559 20.7628337,117.921324 C20.5472279,117.808088 20.2956879,117.751471 20.0082136,117.751471 C19.68673,117.751471 19.3954055,117.815165 19.1355236,117.941912 C18.875,118.069301 18.6529774,118.250735 18.4681725,118.4875 C18.2833676,118.724265 18.1396304,119.011213 18.036961,119.347059 C17.9342916,119.683548 17.8829569,120.06057 17.8829569,120.479412 C17.8829569,120.904688 17.9323665,121.2875 18.0318275,121.627206 C18.1312885,121.966912 18.2698922,122.257077 18.4476386,122.497059 C18.625385,122.737684 18.8429158,122.922978 19.0995893,123.052941 C19.3562628,123.183548 19.6456622,123.248529 19.9671458,123.248529 C20.2956879,123.248529 20.5812372,123.183548 20.8244353,123.052941 C21.0669918,122.922978 21.2979979,122.737684 21.5174538,122.497059 L22,123.022059 C21.7330595,123.330882 21.4314682,123.570864 21.0965092,123.742647 C20.7609086,123.91443 20.3778234,124 19.9466119,124 C19.5224589,124 19.1303901,123.920864 18.7710472,123.763235 C18.4117043,123.605607 18.099846,123.377206 17.8367556,123.078676 C17.5730236,122.780147 17.3676848,122.413419 17.2207392,121.977206 C17.073152,121.541636 17,121.049449 17,120.5" id="Fill-9" fill="#231F20"></path>
                <path d="M26.6666667,123.27439 C27.4756065,123.27439 28.0814873,123.028963 28.4862869,122.53811 C28.8910865,122.047256 29.092827,121.356993 29.092827,120.467988 C29.092827,119.578316 28.8910865,118.89939 28.4862869,118.429878 C28.0814873,117.960366 27.4756065,117.72561 26.6666667,117.72561 L25.8755274,117.72561 L25.8755274,123.27439 L26.6666667,123.27439 Z M25,117 L26.7299578,117 C27.7986551,117 28.6115506,117.29878 29.1666667,117.896341 C29.722442,118.493902 30,119.350896 30,120.467988 C30,121.022866 29.930116,121.519055 29.7890295,121.956555 C29.6486023,122.394055 29.4409283,122.764196 29.1666667,123.066311 C28.8924051,123.369093 28.5548523,123.599848 28.1540084,123.759909 C27.7531646,123.91997 27.2929852,124 26.7721519,124 L25,124 L25,117 Z" id="Fill-11" fill="#231F20"></path>
                <polygon id="Fill-13" fill="#231F20" points="34 117 37.8969072 117 37.8969072 117.746951 34.8556701 117.746951 34.8556701 119.945122 37.4226804 119.945122 37.4226804 120.702744 34.8556701 120.702744 34.8556701 123.242378 38 123.242378 38 124 34 124"></polygon>
                <polygon id="Fill-15" fill="#231F20" points="41 117 45 117 45 117.746951 41.8783069 117.746951 41.8783069 120.115854 44.5238095 120.115854 44.5238095 120.862805 41.8783069 120.862805 41.8783069 124 41 124"></polygon>
                <path d="M48,120.5 C48,119.958272 48.0753012,119.470588 48.2259036,119.038235 C48.376506,118.605882 48.5873494,118.238511 48.8584337,117.936765 C49.1295181,117.635018 49.4489207,117.403401 49.8172691,117.241912 C50.18499,117.081066 50.5903614,117 51.0321285,117 C51.4870733,117 51.8673444,117.0875 52.1716867,117.2625 C52.4760291,117.4375 52.7251506,117.627941 52.9196787,117.833824 L52.4477912,118.379412 C52.280246,118.201195 52.0882279,118.05193 51.8704819,117.931618 C51.6527359,117.811949 51.3766315,117.751471 51.0421687,117.751471 C50.7070783,117.751471 50.4058735,117.815165 50.1385542,117.941912 C49.8706074,118.069301 49.6434488,118.250735 49.4558233,118.4875 C49.2681978,118.724265 49.1226155,119.011213 49.0190763,119.347059 C48.9149096,119.683548 48.8634538,120.06057 48.8634538,120.479412 C48.8634538,120.904688 48.9117721,121.2875 49.0090361,121.627206 C49.1063002,121.966912 49.2462349,122.257077 49.4307229,122.497059 C49.6145833,122.737684 49.8423695,122.922978 50.1134538,123.052941 C50.3845382,123.183548 50.6970382,123.248529 51.0522088,123.248529 C51.2862701,123.248529 51.5090361,123.2125 51.7198795,123.140441 C51.9307229,123.068382 52.1032882,122.970588 52.2369478,122.847059 L52.2369478,121.086765 L50.8413655,121.086765 L50.8413655,120.376471 L53,120.376471 L53,123.217647 C52.7853916,123.444118 52.503012,123.631342 52.1516064,123.778676 C51.8002008,123.926011 51.4036145,124 50.9618474,124 C50.5263554,124 50.1285141,123.920864 49.7670683,123.763235 C49.4056225,123.605607 49.0943775,123.377206 48.8333333,123.078676 C48.5722892,122.780147 48.3677209,122.413419 48.2208835,121.977206 C48.0734187,121.541636 48,121.049449 48,120.5" id="Fill-17" fill="#231F20"></path>
                <polygon id="Fill-19" fill="#231F20" points="57 117 57.8792373 117 57.8792373 119.934451 61.1101695 119.934451 61.1101695 117 62 117 62 124 61.1101695 124 61.1101695 120.702744 57.8792373 120.702744 57.8792373 124 57 124"></polygon>
                <mask id="mask-2" fill="white">
                    <use xlink:href="#path-1"></use>
                </mask>
                <g id="Clip-22"></g>
                <polygon id="Fill-21" fill="#231F20" mask="url(#mask-2)" points="66 124 67 124 67 117 66 117"></polygon>
                <path d="M70.6629834,122.459581 C70.8245856,122.732036 71.0089779,122.929828 71.2154696,123.051647 C71.4219613,123.174121 71.6540055,123.23503 71.9116022,123.23503 C72.3017956,123.23503 72.5925414,123.121725 72.7845304,122.894461 C72.9758287,122.667852 73.0718232,122.291916 73.0718232,121.767964 L73.0718232,117 L74,117 L74,121.851796 C74,122.14521 73.961326,122.422904 73.8839779,122.68488 C73.8066298,122.946856 73.6885359,123.176085 73.5303867,123.371257 C73.371547,123.567085 73.1657459,123.720996 72.9116022,123.832335 C72.6574586,123.94433 72.3535912,124 72,124 C71.0939227,124 70.4267956,123.633234 70,122.899701 L70.6629834,122.459581 Z" id="Fill-23" fill="#231F20" mask="url(#mask-2)"></path>
                <polygon id="Fill-24" fill="#231F20" mask="url(#mask-2)" points="78 117 78.8556701 117 78.8556701 120.510671 78.8865979 120.510671 81.7010309 117 82.6701031 117 80.556701 119.667683 83 124 82.0412371 124 80.0206186 120.36128 78.8556701 121.780488 78.8556701 124 78 124"></polygon>
                <polygon id="Fill-25" fill="#231F20" mask="url(#mask-2)" points="86 117 86.8972973 117 86.8972973 123.242378 90 123.242378 90 124 86 124"></polygon>
                <path d="M94,117 L94.8957952,117 L96.0566728,120.756098 L96.4954296,122.185976 L96.5319927,122.185976 L96.952468,120.756098 L98.1042048,117 L99,117 L99,124 L98.2778793,124 L98.2778793,120.147866 C98.2778793,119.83508 98.2881627,119.489615 98.309872,119.112805 C98.3315814,118.735995 98.353862,118.39053 98.3784278,118.077744 L98.3418647,118.077744 L97.857404,119.635671 L96.7056673,123.295732 L96.2760512,123.295732 L95.1151737,119.635671 L94.6398537,118.077744 L94.6032907,118.077744 C94.6215722,118.39053 94.6427102,118.735995 94.6672761,119.112805 C94.6912706,119.489615 94.7038391,119.83508 94.7038391,120.147866 L94.7038391,124 L94,124 L94,117 Z" id="Fill-26" fill="#231F20" mask="url(#mask-2)"></path>
                <path d="M103,117 L103.920771,117 L106.458244,121.396341 L107.218415,122.847561 L107.261242,122.847561 C107.239829,122.492092 107.216408,122.123952 107.191649,121.74314 C107.16689,121.362995 107.154176,120.987519 107.154176,120.617378 L107.154176,117 L108,117 L108,124 L107.079229,124 L104.531049,119.592988 L103.770878,118.152439 L103.728051,118.152439 C103.756156,118.508575 103.782923,118.869379 103.808351,119.235518 C103.83311,119.601658 103.845824,119.970465 103.845824,120.339939 L103.845824,124 L103,124 L103,117 Z" id="Fill-27" fill="#231F20" mask="url(#mask-2)"></path>
                <path d="M113.994652,123.248529 C114.308155,123.248529 114.591578,123.183548 114.84492,123.052941 C115.097594,122.922978 115.315508,122.735754 115.497326,122.491912 C115.679144,122.248713 115.819519,121.956618 115.919786,121.616912 C116.019385,121.277206 116.069519,120.895037 116.069519,120.469118 C116.069519,120.050919 116.019385,119.673254 115.919786,119.336765 C115.819519,119.000276 115.679144,118.715901 115.497326,118.482353 C115.315508,118.248805 115.097594,118.069301 114.84492,117.941912 C114.591578,117.815165 114.308155,117.751471 113.994652,117.751471 C113.680481,117.751471 113.397059,117.815165 113.144385,117.941912 C112.891043,118.069301 112.673797,118.248805 112.491979,118.482353 C112.31016,118.715901 112.169118,119.000276 112.069519,119.336765 C111.96992,119.673254 111.919786,120.050919 111.919786,120.469118 C111.919786,120.895037 111.96992,121.277206 112.069519,121.616912 C112.169118,121.956618 112.31016,122.248713 112.491979,122.491912 C112.673797,122.735754 112.891043,122.922978 113.144385,123.052941 C113.397059,123.183548 113.680481,123.248529 113.994652,123.248529 M113.994652,124 C113.552139,124 113.147727,123.917647 112.780749,123.752941 C112.413102,123.588235 112.098262,123.353401 111.834225,123.047794 C111.570187,122.742188 111.364973,122.372243 111.219251,121.936029 C111.072861,121.50046 111,121.011489 111,120.469118 C111,119.926746 111.072861,119.441636 111.219251,119.0125 C111.364973,118.584007 111.570187,118.219853 111.834225,117.921324 C112.098262,117.622794 112.413102,117.394393 112.780749,117.236765 C113.147727,117.079136 113.552139,117 113.994652,117 C114.436497,117 114.841578,117.081066 115.208556,117.241912 C115.575535,117.403401 115.893048,117.633088 116.160428,117.931618 C116.427807,118.230147 116.634358,118.594301 116.780749,119.022794 C116.927139,119.45193 117,119.933824 117,120.469118 C117,121.011489 116.927139,121.50046 116.780749,121.936029 C116.634358,122.372243 116.427807,122.742188 116.160428,123.047794 C115.893048,123.353401 115.575535,123.588235 115.208556,123.752941 C114.841578,123.917647 114.436497,124 113.994652,124" id="Fill-28" fill="#231F20" mask="url(#mask-2)"></path>
                <path d="M122.724605,120.5 C123.242099,120.5 123.625847,120.384623 123.875847,120.153201 C124.125282,119.922447 124.250564,119.557641 124.250564,119.059451 C124.250564,118.554592 124.124153,118.204459 123.871332,118.008384 C123.61851,117.812976 123.235892,117.714939 122.724605,117.714939 L121.749436,117.714939 L121.749436,120.5 L122.724605,120.5 Z M121,117 L122.814898,117 C123.139955,117 123.437923,117.036014 123.708804,117.106707 C123.979684,117.178068 124.209932,117.293445 124.399549,117.453506 C124.589165,117.613567 124.736456,117.825648 124.841986,118.088415 C124.946953,118.351848 125,118.675305 125,119.059451 C125,119.429592 124.946953,119.749714 124.841986,120.019817 C124.736456,120.290587 124.587472,120.514005 124.395034,120.692073 C124.202032,120.870141 123.971783,121.003525 123.704289,121.092226 C123.43623,121.180926 123.139955,121.22561 122.814898,121.22561 L121.749436,121.22561 L121.749436,124 L121,124 L121,117 Z" id="Fill-29" fill="#231F20" mask="url(#mask-2)"></path>
                <path d="M128.897391,120.240385 C128.897391,120.644231 128.946304,121.007812 129.043478,121.331731 C129.140652,121.655048 129.278261,121.932692 129.455652,122.163462 C129.633043,122.394231 129.845,122.570312 130.092174,122.692308 C130.338696,122.814303 130.615217,122.875 130.921739,122.875 C131.227609,122.875 131.50413,122.814303 131.751304,122.692308 C131.997826,122.570312 132.210435,122.394231 132.387826,122.163462 C132.565217,121.932692 132.702174,121.655048 132.8,121.331731 C132.897174,121.007812 132.946087,120.644231 132.946087,120.240385 C132.946087,119.84976 132.897174,119.496995 132.8,119.182692 C132.702174,118.868389 132.565217,118.602163 132.387826,118.384615 C132.210435,118.166466 131.997826,117.998798 131.751304,117.879808 C131.50413,117.761418 131.227609,117.701923 130.921739,117.701923 C130.615217,117.701923 130.338696,117.761418 130.092174,117.879808 C129.845,117.998798 129.633043,118.166466 129.455652,118.384615 C129.278261,118.602163 129.140652,118.868389 129.043478,119.182692 C128.946304,119.496995 128.897391,119.84976 128.897391,120.240385 Z M134,124.855769 C133.895652,124.88762 133.756739,124.920072 133.582609,124.951923 C133.408478,124.983774 133.220652,125 133.01913,125 C132.38587,125 131.857609,124.860577 131.433043,124.581731 C131.008478,124.302885 130.695435,123.945312 130.493913,123.509615 C130.118261,123.464543 129.777174,123.355769 129.471304,123.182692 C129.165435,123.009615 128.902609,122.781851 128.683478,122.5 C128.464348,122.218149 128.295435,121.886418 128.177391,121.504808 C128.058696,121.123197 128,120.701923 128,120.240385 C128,119.733774 128.071087,119.280649 128.213913,118.879808 C128.356087,118.478966 128.556304,118.139423 128.813913,117.860577 C129.071522,117.581731 129.378696,117.368389 129.737391,117.221154 C130.095435,117.073317 130.49,117 130.921739,117 C131.352826,117 131.748043,117.07512 132.106087,117.225962 C132.46413,117.376803 132.773913,117.591346 133.034783,117.870192 C133.295652,118.149038 133.497174,118.488582 133.64,118.889423 C133.782826,119.289663 133.853913,119.740385 133.853913,120.240385 C133.853913,120.695312 133.796522,121.110577 133.681739,121.485577 C133.566957,121.860577 133.403261,122.1875 133.191304,122.466346 C132.978696,122.745192 132.723696,122.972957 132.424348,123.149038 C132.125,123.32512 131.794348,123.442308 131.433043,123.5 C131.592826,123.781851 131.81913,123.990385 132.111304,124.125 C132.403478,124.259615 132.737391,124.326923 133.113043,124.326923 C133.266304,124.326923 133.4,124.317308 133.514783,124.298077 C133.629565,124.278846 133.735217,124.256611 133.833043,124.230769 L134,124.855769 Z" id="Fill-30" fill="#231F20" mask="url(#mask-2)"></path>
                <path d="M138.914097,120.318598 L140.125551,120.318598 C140.690666,120.318598 141.123623,120.206555 141.42511,119.98247 C141.725909,119.758384 141.876652,119.418921 141.876652,118.963415 C141.876652,118.501239 141.725909,118.177782 141.42511,117.992378 C141.123623,117.807641 140.690666,117.714939 140.125551,117.714939 L138.914097,117.714939 L138.914097,120.318598 Z M141.964758,124 L140.22467,121.044207 L138.914097,121.044207 L138.914097,124 L138,124 L138,117 L140.257709,117 C140.624587,117 140.96462,117.034013 141.276432,117.101372 C141.588243,117.168731 141.856002,117.280774 142.080396,117.4375 C142.304102,117.594226 142.478249,117.79697 142.603524,118.045732 C142.728111,118.294493 142.790749,118.60061 142.790749,118.963415 C142.790749,119.511623 142.643447,119.948457 142.35022,120.275915 C142.056305,120.603373 141.663959,120.827458 141.171806,120.948171 L143,124 L141.964758,124 Z" id="Fill-31" fill="#231F20" mask="url(#mask-2)"></path>
                <path d="M146.551876,122.404412 C146.809189,122.658548 147.112721,122.8625 147.462472,123.016912 C147.811534,123.171324 148.174393,123.248529 148.549669,123.248529 C149.027732,123.248529 149.399558,123.147518 149.664459,122.944853 C149.92936,122.742188 150.06181,122.476471 150.06181,122.147059 C150.06181,121.975276 150.030077,121.829871 149.967991,121.709559 C149.905215,121.589246 149.820364,121.486949 149.714128,121.400735 C149.607202,121.315165 149.48027,121.23796 149.333333,121.169118 C149.185706,121.100919 149.027732,121.02886 148.85872,120.952941 L147.821192,120.530882 C147.65149,120.46204 147.479029,120.380331 147.302428,120.283824 C147.125828,120.18796 146.967853,120.071507 146.827815,119.933824 C146.687776,119.796783 146.573951,119.633364 146.485651,119.444853 C146.397351,119.256342 146.353201,119.038235 146.353201,118.791176 C146.353201,118.537684 146.409768,118.300919 146.524283,118.080882 C146.638107,117.861489 146.796082,117.671048 146.998896,117.509559 C147.201021,117.348713 147.440397,117.223254 147.716336,117.133824 C147.992274,117.044393 148.295806,117 148.626932,117 C149.060844,117 149.461645,117.077206 149.830022,117.231618 C150.19771,117.386029 150.51021,117.586765 150.768212,117.833824 L150.271523,118.389706 C150.050773,118.190901 149.805877,118.034559 149.537528,117.921324 C149.268488,117.808088 148.965646,117.751471 148.626932,117.751471 C148.221992,117.751471 147.896385,117.838971 147.65011,118.013971 C147.403146,118.188971 147.280353,118.430882 147.280353,118.739706 C147.280353,118.904412 147.314845,119.043382 147.38521,119.156618 C147.454884,119.269853 147.548703,119.369577 147.666667,119.455147 C147.78394,119.54136 147.912942,119.616636 148.05298,119.681618 C148.192329,119.747243 148.335817,119.807077 148.483444,119.861765 L149.509934,120.273529 C149.715508,120.355882 149.910734,120.45046 150.094923,120.556618 C150.278422,120.662776 150.437086,120.786305 150.569536,120.927206 C150.701987,121.068107 150.806843,121.232813 150.884106,121.421324 C150.961369,121.610478 151,121.827941 151,122.075 C151,122.342647 150.942743,122.592923 150.828918,122.826471 C150.714404,123.060018 150.550911,123.263971 150.337748,123.438971 C150.123896,123.613971 149.866584,123.751654 149.565121,123.850735 C149.262969,123.949816 148.921496,124 148.538631,124 C148.030905,124 147.559741,123.91057 147.125828,123.732353 C146.691225,123.554136 146.315949,123.310294 146,123.001471 L146.551876,122.404412 Z" id="Fill-32" fill="#231F20" mask="url(#mask-2)"></path>
                <polygon id="Fill-33" fill="#231F20" mask="url(#mask-2)" points="155.0625 117.746951 153 117.746951 153 117 158 117 158 117.746951 155.9375 117.746951 155.9375 124 155.0625 124"></polygon>
                <path d="M161,117 L161.881104,117 L161.881104,121.055389 C161.881104,121.468001 161.923567,121.81381 162.008493,122.092814 C162.093418,122.372474 162.208201,122.595808 162.353503,122.763473 C162.498142,122.931138 162.669984,123.051647 162.868365,123.125 C163.066083,123.198353 163.279061,123.23503 163.505308,123.23503 C163.738854,123.23503 163.954485,123.198353 164.152866,123.125 C164.350584,123.051647 164.524416,122.931138 164.673036,122.763473 C164.821656,122.595808 164.938429,122.372474 165.023355,122.092814 C165.10828,121.81381 165.150743,121.468001 165.150743,121.055389 L165.150743,117 L166,117 L166,121.034431 C166,121.586546 165.936306,122.050898 165.808917,122.428144 C165.681529,122.805389 165.506369,123.111246 165.283439,123.34506 C165.06051,123.578874 164.796444,123.747193 164.492569,123.848054 C164.188031,123.948915 163.858944,124 163.505308,124 C163.151008,124 162.820594,123.948915 162.512739,123.848054 C162.204883,123.747193 161.93949,123.578874 161.716561,123.34506 C161.493631,123.111246 161.318471,122.805389 161.191083,122.428144 C161.063694,122.050898 161,121.586546 161,121.034431 L161,117 Z" id="Fill-34" fill="#231F20" mask="url(#mask-2)"></path>
                <path d="M169,117 L169.864078,117 L170.883495,120.777439 C171,121.196932 171.101942,121.58508 171.18932,121.940549 C171.276699,122.296018 171.381675,122.680831 171.504854,123.092988 L171.543689,123.092988 C171.660194,122.680831 171.763956,122.296018 171.854369,121.940549 C171.944782,121.58508 172.04551,121.196932 172.15534,120.777439 L173.174757,117 L174,117 L171.980583,124 L171.038835,124 L169,117 Z" id="Fill-35" fill="#231F20" mask="url(#mask-2)"></path>
                <path d="M177,117 L177.814614,117 L178.4682,120.809451 C178.525034,121.193598 178.584827,121.571075 178.648173,121.940549 C178.710927,122.31069 178.771313,122.6875 178.828146,123.071646 L178.866035,123.071646 C178.935301,122.6875 179.008119,122.308689 179.083897,121.935213 C179.159675,121.561738 179.232493,121.186928 179.301759,120.809451 L180.163735,117 L180.883627,117 L181.745602,120.809451 C181.82138,121.179592 181.897158,121.553068 181.972936,121.929878 C182.048714,122.307355 182.124493,122.6875 182.200271,123.071646 L182.23816,123.071646 C182.294993,122.6875 182.351827,122.308689 182.40866,121.935213 C182.465494,121.561738 182.525288,121.186928 182.588633,120.809451 L183.242219,117 L184,117 L182.711773,124 L181.764547,124 L180.826793,119.785061 C180.769959,119.514958 180.717862,119.250191 180.670501,118.990091 C180.623139,118.730659 180.574002,118.465892 180.523681,118.195122 L180.485792,118.195122 C180.434878,118.465892 180.382781,118.730659 180.329499,118.990091 C180.275626,119.250191 180.223528,119.514958 180.173207,119.785061 L179.254398,124 L178.316644,124 L177,117 Z" id="Fill-36" fill="#231F20" mask="url(#mask-2)"></path>
                <path d="M188.977226,120.382622 L187.134576,117 L188.086957,117 L189.008282,118.792683 C189.098214,118.956079 189.182324,119.114806 189.261905,119.26753 C189.340839,119.420255 189.432712,119.600324 189.536232,119.806402 L189.57764,119.806402 C189.674042,119.600324 189.758799,119.420255 189.831263,119.26753 C189.903727,119.114806 189.981366,118.956079 190.064182,118.792683 L190.964803,117 L191.875776,117 L190.022774,120.425305 L192,124 L191.047619,124 L190.05383,122.11128 C189.963898,121.940549 189.872671,121.764482 189.779503,121.583079 C189.686335,121.401677 189.58411,121.204268 189.47412,120.990854 L189.432712,120.990854 C189.33631,121.204268 189.243142,121.401677 189.153209,121.583079 C189.063276,121.764482 188.977226,121.940549 188.89441,122.11128 L187.910973,124 L187,124 L188.977226,120.382622 Z" id="Fill-37" fill="#231F20" mask="url(#mask-2)"></path>
                <path d="M196.060669,121.289634 L194,117 L194.930962,117 L195.820084,118.974085 C195.931224,119.230183 196.039749,119.482946 196.144351,119.731707 C196.248954,119.981136 196.360094,120.236566 196.479079,120.5 L196.520921,120.5 C196.639252,120.236566 196.757584,119.981136 196.876569,119.731707 C196.994901,119.482946 197.106695,119.230183 197.211297,118.974085 L198.089958,117 L199,117 L196.939331,121.289634 L196.939331,124 L196.060669,124 L196.060669,121.289634 Z" id="Fill-38" fill="#231F20" mask="url(#mask-2)"></path>
                <polygon id="Fill-39" fill="#231F20" mask="url(#mask-2)" points="202 123.466463 205.816372 117.746951 202.34292 117.746951 202.34292 117 206.966814 117 206.966814 117.522866 203.139381 123.242378 207 123.242378 207 124 202 124"></polygon>
                <path d="M1.8503937,141.588235 C1.8503937,141.862745 1.93569554,142.058824 2.10761155,142.176471 C2.27887139,142.294118 2.49081365,142.352941 2.74278215,142.352941 C2.98753281,142.352941 3.22047244,142.29902 3.44094488,142.191176 C3.66141732,142.083333 3.89370079,141.924632 4.13910761,141.715686 L4.13910761,140.392157 C3.71194226,140.44424 3.35170604,140.506127 3.05774278,140.578431 C2.76377953,140.650123 2.52755906,140.735294 2.34908136,140.833333 C2.17060367,140.931373 2.04265092,141.044118 1.96587927,141.171569 C1.88910761,141.29902 1.8503937,141.4375 1.8503937,141.588235 M1,141.647059 C1,141.124387 1.25,140.723652 1.75065617,140.446078 C2.25065617,140.168505 3.04724409,139.973652 4.13910761,139.862745 C4.13910761,139.71201 4.12335958,139.565564 4.09186352,139.421569 C4.06036745,139.277574 4.00393701,139.150123 3.92388451,139.039216 C3.84317585,138.928309 3.73687664,138.838235 3.60367454,138.769608 C3.47047244,138.70098 3.2992126,138.666667 3.08923885,138.666667 C2.78805774,138.666667 2.50984252,138.71875 2.25459318,138.823529 C1.99934383,138.928309 1.76968504,139.045956 1.56692913,139.176471 L1.22047244,138.617647 C1.45800525,138.473652 1.74868766,138.334559 2.09186352,138.20098 C2.4343832,138.066789 2.81233596,138 3.22572178,138 C3.8484252,138 4.29986877,138.178309 4.58005249,138.534314 C4.85958005,138.890319 5,139.366422 5,139.960784 L5,142.882353 L4.28608924,142.882353 L4.21259843,142.313725 L4.19160105,142.313725 C3.94619423,142.503064 3.6824147,142.664828 3.39895013,142.79902 C3.11548556,142.932598 2.81627297,143 2.50131234,143 C2.0675853,143 1.70866142,142.882353 1.42519685,142.647059 C1.14173228,142.411765 1,142.078431 1,141.647059" id="Fill-40" fill="#231F20" mask="url(#mask-2)"></path>
                <path d="M8.77176471,141.839779 C8.97235294,142.020459 9.17176471,142.147963 9.36941176,142.221685 C9.56705882,142.296012 9.74117647,142.332873 9.89176471,142.332873 C10.08,142.332873 10.2541176,142.289365 10.4141176,142.202348 C10.5741176,142.115331 10.7117647,141.992662 10.8282353,141.834945 C10.9441176,141.677227 11.0352941,141.482044 11.1011765,141.25 C11.1670588,141.017956 11.2,140.756906 11.2,140.466851 C11.2,140.209427 11.1776471,139.973757 11.1341176,139.76105 C11.09,139.548343 11.0194118,139.366454 10.9223529,139.214779 C10.8247059,139.063709 10.6994118,138.945874 10.5458824,138.861878 C10.3917647,138.778488 10.2082353,138.736188 9.99529412,138.736188 C9.62529412,138.736188 9.21705882,138.948895 8.77176471,139.374309 L8.77176471,141.839779 Z M8,136 L8.77176471,136 L8.77176471,137.875691 L8.75294118,138.726519 C8.96,138.539796 9.18588235,138.383287 9.43058824,138.257597 C9.67529412,138.131906 9.92588235,138.069061 10.1835294,138.069061 C10.4782353,138.069061 10.7388235,138.125863 10.9647059,138.23826 C11.1905882,138.35126 11.3805882,138.512604 11.5341176,138.721685 C11.6876471,138.931371 11.8035294,139.182752 11.8823529,139.475829 C11.9605882,139.76951 12,140.096426 12,140.457182 C12,140.857217 11.9464706,141.214347 11.84,141.530387 C11.7335294,141.846426 11.5888235,142.114123 11.4070588,142.332873 C11.2247059,142.552227 11.0147059,142.718405 10.7764706,142.830801 C10.5376471,142.943802 10.2870588,143 10.0235294,143 C9.81,143 9.58882353,142.949845 9.36,142.850138 C9.13058824,142.750432 8.91588235,142.607217 8.71529412,142.41989 L8.68705882,142.41989 L8.62117647,142.883978 L8,142.883978 L8,136 Z" id="Fill-41" fill="#231F20" mask="url(#mask-2)"></path>
                <path d="M16,140.509804 C16,140.11152 16.0660622,139.75674 16.1968912,139.446078 C16.3283679,139.136029 16.5045337,138.872549 16.7253886,138.656863 C16.9462435,138.441176 17.2040155,138.277574 17.4974093,138.166667 C17.7914508,138.05576 18.1003886,138 18.4248705,138 C18.7564767,138 19.0414508,138.057598 19.2797927,138.171569 C19.5181347,138.286152 19.7240933,138.418505 19.8963731,138.568627 L19.4715026,139.088235 C19.3193005,138.964461 19.1625648,138.862745 19,138.784314 C18.8374352,138.705882 18.6567358,138.666667 18.4559585,138.666667 C18.2279793,138.666667 18.017487,138.710784 17.8238342,138.79902 C17.630829,138.887255 17.4643782,139.01348 17.3264249,139.176471 C17.1878238,139.340074 17.0796632,139.534314 17,139.759804 C16.9203368,139.985294 16.880829,140.235294 16.880829,140.509804 C16.880829,140.784314 16.9183938,141.033088 16.9948187,141.254902 C17.0705959,141.477328 17.1761658,141.668505 17.3108808,141.828431 C17.4455959,141.988971 17.609456,142.112745 17.8031088,142.20098 C17.9967617,142.289216 18.2072539,142.333333 18.4352332,142.333333 C18.6768135,142.333333 18.8963731,142.286152 19.0932642,142.191176 C19.2901554,142.096201 19.4650259,141.984069 19.6165803,141.852941 L20,142.382353 C19.7720207,142.572304 19.5181347,142.722426 19.238342,142.833333 C18.9585492,142.94424 18.6664508,143 18.3626943,143 C18.0310881,143 17.7202073,142.94424 17.4300518,142.833333 C17.1398964,142.722426 16.8898964,142.560662 16.6787565,142.348039 C16.4682642,142.136029 16.3024611,141.874387 16.1813472,141.563725 C16.0602332,141.253064 16,140.901961 16,140.509804" id="Fill-42" fill="#231F20" mask="url(#mask-2)"></path>
                <path d="M22.7981221,140.53453 C22.7981221,141.101951 22.9078638,141.543681 23.1267606,141.859116 C23.3462441,142.175155 23.6555164,142.332873 24.056338,142.332873 C24.2693662,142.332873 24.4694836,142.279696 24.657277,142.173343 C24.8450704,142.066989 25.0328638,141.904437 25.2206573,141.685083 L25.2206573,139.229282 C25.0264085,139.049206 24.8403756,138.921702 24.6619718,138.847376 C24.4835681,138.773049 24.3004695,138.736188 24.1126761,138.736188 C23.931338,138.736188 23.7605634,138.779696 23.600939,138.866713 C23.4413146,138.953729 23.30223,139.076398 23.1830986,139.234116 C23.064554,139.392438 22.9700704,139.580974 22.9014085,139.799724 C22.8327465,140.019078 22.7981221,140.263812 22.7981221,140.53453 M22,140.544199 C22,140.164106 22.0545775,139.820874 22.1643192,139.514503 C22.2734742,139.208736 22.4190141,138.948895 22.600939,138.736188 C22.7828638,138.523481 22.9923709,138.359116 23.2300469,138.243094 C23.4683099,138.127072 23.7183099,138.069061 23.9812207,138.069061 C24.2441315,138.069061 24.4730047,138.117403 24.6666667,138.214088 C24.8609155,138.310773 25.0580986,138.443111 25.258216,138.610497 L25.2206573,137.808011 L25.2206573,136 L26,136 L26,142.883978 L25.3615023,142.883978 L25.2957746,142.332873 L25.2676056,142.332873 C25.0862676,142.513553 24.8779343,142.670062 24.6431925,142.801796 C24.4084507,142.934133 24.1561033,143 23.8873239,143 C23.3116197,143 22.8526995,142.787293 22.5117371,142.361878 C22.1707746,141.936464 22,141.330974 22,140.544199" id="Fill-43" fill="#231F20" mask="url(#mask-2)"></path>
                <path d="M33.3009709,140.147059 C33.3009709,139.656863 33.1990291,139.282475 32.9951456,139.02451 C32.7912621,138.766544 32.5048544,138.637255 32.1359223,138.637255 C31.9678398,138.637255 31.8076456,138.671569 31.6553398,138.740196 C31.5036408,138.808824 31.3658981,138.906863 31.2427184,139.034314 C31.1195388,139.161765 31.0175971,139.318627 30.9368932,139.504902 C30.8561893,139.691176 30.8027913,139.905025 30.776699,140.147059 L33.3009709,140.147059 Z M30,140.509804 C30,140.117647 30.0600728,139.765931 30.1796117,139.455882 C30.2997573,139.145221 30.4581311,138.882353 30.6553398,138.666667 C30.8525485,138.45098 31.0776699,138.285539 31.3300971,138.171569 C31.5825243,138.056985 31.8446602,138 32.1165049,138 C32.4144417,138 32.681432,138.052696 32.9174757,138.156863 C33.1535194,138.261642 33.351335,138.411765 33.5097087,138.607843 C33.6680825,138.803922 33.7900485,139.039216 33.8737864,139.313725 C33.9581311,139.588235 34,139.895221 34,140.235294 C34,140.411765 33.9902913,140.558824 33.9708738,140.676471 L30.7864078,140.676471 C30.8191748,141.193015 30.9757282,141.601716 31.2572816,141.901961 C31.538835,142.202206 31.9065534,142.352941 32.3592233,142.352941 C32.5855583,142.352941 32.7949029,142.318627 32.9854369,142.25 C33.1765777,142.181373 33.3592233,142.091299 33.5339806,141.980392 L33.815534,142.509804 C33.6086165,142.640319 33.3786408,142.754902 33.1262136,142.852941 C32.8737864,142.95098 32.5855583,143 32.2621359,143 C31.9453883,143 31.648665,142.942402 31.3737864,142.828431 C31.0989078,142.713848 30.8592233,142.550858 30.6553398,142.338235 C30.4514563,142.125613 30.2912621,141.865809 30.1747573,141.558824 C30.0582524,141.251838 30,140.901961 30,140.509804 Z" id="Fill-44" fill="#231F20" mask="url(#mask-2)"></path>
                <path d="M40.8131488,136.763812 C40.6262976,136.686464 40.4355536,136.64779 40.2422145,136.64779 C39.7718426,136.64779 39.5363322,136.950535 39.5363322,137.55663 L39.5363322,138.301105 L40.6055363,138.301105 L40.6055363,138.948895 L39.5363322,138.948895 L39.5363322,143 L38.6851211,143 L38.6851211,138.948895 L38,138.948895 L38,138.349448 L38.6851211,138.301105 L38.6851211,137.55663 C38.6851211,137.073204 38.8044983,136.693111 39.0432526,136.415746 C39.2820069,136.138381 39.653763,136 40.1591696,136 C40.3181228,136 40.4686419,136.014503 40.6107266,136.043508 C40.7528114,136.072514 40.8819204,136.109375 41,136.154696 L40.8131488,136.763812 Z" id="Fill-45" fill="#231F20" mask="url(#mask-2)"></path>
                <path d="M44.7986577,140.801939 C44.9239374,140.801939 45.0419463,140.776489 45.1521253,140.724377 C45.2623043,140.67287 45.3607383,140.598338 45.4474273,140.501385 C45.533557,140.404432 45.6012304,140.286877 45.6487696,140.147507 C45.6963087,140.008743 45.7203579,139.851801 45.7203579,139.677285 C45.7203579,139.328255 45.6308725,139.058605 45.4519016,138.867729 C45.2729306,138.677458 45.0548098,138.581717 44.7986577,138.581717 C44.5419463,138.581717 44.3243848,138.677458 44.1454139,138.867729 C43.966443,139.058605 43.8769575,139.328255 43.8769575,139.677285 C43.8769575,139.851801 43.9010067,140.008743 43.9485459,140.147507 C43.996085,140.286877 44.0631991,140.404432 44.1498881,140.501385 C44.2365772,140.598338 44.3344519,140.67287 44.4451902,140.724377 C44.5553691,140.776489 44.6733781,140.801939 44.7986577,140.801939 M43.6442953,143.623269 C43.6442953,143.875346 43.7561521,144.075918 43.9798658,144.224377 C44.2035794,144.373442 44.5123043,144.447368 44.9060403,144.447368 C45.1146532,144.447368 45.3042506,144.4201 45.4742729,144.364958 C45.6442953,144.310422 45.7891499,144.23892 45.9082774,144.151662 C46.0274049,144.064404 46.1196868,143.962604 46.1856823,143.84626 C46.2511186,143.729917 46.2841163,143.610544 46.2841163,143.487535 C46.2841163,143.267573 46.2091723,143.116084 46.0604027,143.031856 C45.9110738,142.948234 45.6935123,142.905817 45.4071588,142.905817 L44.655481,142.905817 C44.5715884,142.905817 44.4809843,142.90097 44.3825503,142.891274 C44.2841163,142.881579 44.1868009,142.86037 44.0917226,142.828255 C43.9362416,142.951264 43.8232662,143.080332 43.7516779,143.216066 C43.6800895,143.351801 43.6442953,143.487535 43.6442953,143.623269 M43,143.729917 C43,143.529346 43.0564877,143.339075 43.1700224,143.157895 C43.283557,142.976714 43.4384787,142.8125 43.6353468,142.663435 L43.6353468,142.624654 C43.5279642,142.553757 43.4368009,142.454986 43.3624161,142.328947 C43.287472,142.202909 43.2505593,142.046572 43.2505593,141.858726 C43.2505593,141.65876 43.3008949,141.484245 43.4026846,141.33518 C43.503915,141.186721 43.6112975,141.070377 43.7248322,140.98615 L43.7248322,140.947368 C43.5816555,140.8183 43.4519016,140.645602 43.3355705,140.42867 C43.2192394,140.212344 43.1610738,139.962084 43.1610738,139.677285 C43.1610738,139.419148 43.2041387,139.185855 43.2908277,138.979224 C43.3769575,138.772593 43.4949664,138.59626 43.6442953,138.450831 C43.7936242,138.305402 43.9681208,138.193906 44.1677852,138.116343 C44.3674497,138.038781 44.5777405,138 44.7986577,138 C44.9177852,138 45.0296421,138.011513 45.1342282,138.033934 C45.2388143,138.05696 45.332774,138.084228 45.4161074,138.116343 L46.9284116,138.116343 L46.9284116,138.727147 L46.033557,138.727147 C46.1347875,138.837431 46.2197987,138.976195 46.2885906,139.144044 C46.3573826,139.3125 46.3914989,139.496711 46.3914989,139.696676 C46.3914989,139.948753 46.3495526,140.176593 46.2662192,140.380194 C46.1828859,140.583795 46.0693512,140.75528 45.9261745,140.894044 C45.7829978,141.033414 45.614094,141.141274 45.4205817,141.218837 C45.2265101,141.296399 45.0195749,141.33518 44.7986577,141.33518 C44.6912752,141.33518 44.5805369,141.320637 44.4675615,141.291551 C44.3540268,141.262465 44.2466443,141.222472 44.1454139,141.17036 C44.0676734,141.241863 44.0022371,141.320637 43.9485459,141.407895 C43.8948546,141.495152 43.8680089,141.603618 43.8680089,141.732687 C43.8680089,141.881752 43.9217002,142.004155 44.0290828,142.101108 C44.1364653,142.198061 44.3389262,142.246537 44.6375839,142.246537 L45.4787472,142.246537 C45.9860179,142.246537 46.3657718,142.335613 46.6196868,142.513158 C46.8730425,142.691309 47,142.976714 47,143.371191 C47,143.591153 46.9491051,143.799602 46.8478747,143.996537 C46.746085,144.194079 46.6001119,144.366776 46.409396,144.515235 C46.2186801,144.664301 45.9871365,144.781856 45.7158837,144.869114 C45.4440716,144.956371 45.1387025,145 44.7986577,145 C44.5302013,145 44.2857942,144.972732 44.064877,144.91759 C43.8439597,144.863054 43.6549217,144.780038 43.4966443,144.67036 C43.3383669,144.560682 43.2158837,144.427978 43.1297539,144.272853 C43.0430649,144.117729 43,143.936548 43,143.729917" id="Fill-46" fill="#231F20" mask="url(#mask-2)"></path>
                <path d="M50,136 L50.8431877,136 L50.8431877,137.907303 L50.8123393,138.890449 C51.0520566,138.674157 51.3020566,138.489203 51.562982,138.334972 C51.8232648,138.181355 52.1285347,138.103933 52.4781491,138.103933 C53.0057841,138.103933 53.3913882,138.261236 53.6349614,138.575843 C53.8785347,138.890449 54,139.3556 54,139.97191 L54,143 L53.1568123,143 L53.1568123,140.080056 C53.1568123,139.627809 53.0809769,139.302142 52.9305913,139.101826 C52.779563,138.902124 52.5398458,138.801966 52.2107969,138.801966 C51.9505141,138.801966 51.720437,138.864642 51.5218509,138.988764 C51.3232648,139.113501 51.0970437,139.297226 50.8431877,139.539326 L50.8431877,143 L50,143 L50,136 Z" id="Fill-47" fill="#231F20" mask="url(#mask-2)"></path>
                <path d="M58.1315789,143 L58.8508772,143 L58.8508772,138.083815 L58.1315789,138.083815 L58.1315789,143 Z M58.5,137.072254 C58.3596491,137.072254 58.2412281,137.021676 58.1447368,136.919888 C58.0482456,136.819364 58,136.691022 58,136.535495 C58,136.374277 58.0482456,136.244671 58.1447368,136.146676 C58.2412281,136.048681 58.3596491,136 58.5,136 C58.6403509,136 58.7587719,136.048681 58.8552632,136.146676 C58.9517544,136.244671 59,136.374277 59,136.535495 C59,136.691022 58.9517544,136.819364 58.8552632,136.919888 C58.7587719,137.021676 58.6403509,137.072254 58.5,137.072254 Z" id="Fill-48" fill="#231F20" mask="url(#mask-2)"></path>
                <path d="M63.4932127,137.049505 C63.3484163,137.049505 63.2262443,137 63.1266968,136.90099 C63.0271493,136.80198 62.9773756,136.676361 62.9773756,136.524752 C62.9773756,136.366337 63.0271493,136.23948 63.1266968,136.143564 C63.2262443,136.047649 63.3484163,136 63.4932127,136 C63.6317873,136 63.7511312,136.047649 63.8506787,136.143564 C63.9502262,136.23948 64,136.366337 64,136.524752 C64,136.676361 63.9502262,136.80198 63.8506787,136.90099 C63.7511312,137 63.6317873,137.049505 63.4932127,137.049505 Z M63.1131222,138.039604 L63.8552036,138.039604 L63.8552036,143.39604 C63.8552036,143.884282 63.7647059,144.273515 63.5837104,144.564356 C63.4027149,144.854579 63.0921946,145 62.6515837,145 C62.513009,145 62.3891403,144.987005 62.280543,144.960396 C62.1719457,144.933787 62.0786199,144.904084 62,144.871287 L62.1538462,144.257426 C62.2081448,144.277228 62.2714932,144.295173 62.3438914,144.311881 C62.4162896,144.328589 62.4915158,144.336634 62.5701357,144.336634 C62.7873303,144.336634 62.9321267,144.254332 63.0045249,144.089109 C63.0769231,143.923886 63.1131222,143.693069 63.1131222,143.39604 L63.1131222,138.039604 Z" id="Fill-49" fill="#231F20" mask="url(#mask-2)"></path>
                <polygon id="Fill-50" fill="#231F20" mask="url(#mask-2)" points="67 136 67.8019802 136 67.8019802 140.738764 67.8316832 140.738764 69.8811881 138.22191 70.7821782 138.22191 69.1683168 140.139045 71 143 70.1089109 143 68.7029703 140.699438 67.8019802 141.741573 67.8019802 143 67 143"></polygon>
                <path d="M75,136 L75.6119403,136 L75.6119403,141.994475 C75.6119403,142.123791 75.6291978,142.213829 75.6641791,142.265193 C75.6991604,142.317162 75.738806,142.342541 75.7835821,142.342541 L75.8395522,142.342541 C75.8568097,142.342541 75.8829291,142.335894 75.9179104,142.323204 L76,142.922652 C75.9603545,142.948636 75.9127799,142.967973 75.858209,142.980663 C75.8036381,142.993353 75.7336754,143 75.6492537,143 C75.4155784,143 75.2486007,142.909962 75.1492537,142.729282 C75.0494403,142.548602 75,142.28453 75,141.936464 L75,136 Z" id="Fill-51" fill="#231F20" mask="url(#mask-2)"></path>
                <path d="M80,138.120482 L80.709389,138.120482 L80.7824143,138.823293 L80.8137109,138.823293 C81.0360469,138.589232 81.2779434,138.393449 81.5387481,138.235944 C81.7995529,138.079066 82.0825261,138 82.3889717,138 C82.7782228,138 83.0827124,138.081576 83.3017884,138.245984 C83.5208644,138.409764 83.6825633,138.639433 83.7868852,138.933735 C84.0509501,138.65261 84.3169709,138.426707 84.5849478,138.256024 C84.8522727,138.085341 85.14307,138 85.4560358,138 C85.9776453,138 86.3655924,138.160643 86.619225,138.481928 C86.8728577,138.803213 87,139.278238 87,139.907631 L87,143 L86.1445604,143 L86.1445604,140.018072 C86.1445604,139.556225 86.068275,139.223017 85.9150522,139.019076 C85.7618294,138.814508 85.525801,138.712851 85.2056632,138.712851 C84.8229322,138.712851 84.3991244,138.963855 83.9329359,139.465863 L83.9329359,143 L83.0774963,143 L83.0774963,140.018072 C83.0774963,139.556225 83.0012109,139.223017 82.8479881,139.019076 C82.6947653,138.814508 82.4548249,138.712851 82.1281669,138.712851 C81.7454359,138.712851 81.3209762,138.963855 80.8554396,139.465863 L80.8554396,143 L80,143 L80,138.120482 Z" id="Fill-52" fill="#231F20" mask="url(#mask-2)"></path>
                <path d="M90,138.120482 L90.6992288,138.120482 L90.7712082,138.823293 L90.8020566,138.823293 C91.0417738,138.589232 91.2937018,138.393449 91.5578406,138.235944 C91.8213368,138.079066 92.1285347,138 92.4781491,138 C93.0057841,138 93.3913882,138.160643 93.6349614,138.481928 C93.8785347,138.803213 94,139.278238 94,139.907631 L94,143 L93.1568123,143 L93.1568123,140.018072 C93.1568123,139.556225 93.0809769,139.223017 92.9305913,139.019076 C92.779563,138.814508 92.5398458,138.712851 92.2107969,138.712851 C91.9505141,138.712851 91.720437,138.77623 91.5218509,138.903614 C91.3232648,139.030999 91.0970437,139.218624 90.8431877,139.465863 L90.8431877,143 L90,143 L90,138.120482 Z" id="Fill-53" fill="#231F20" mask="url(#mask-2)"></path>
                <path d="M98.7555556,140.509804 C98.7555556,140.784314 98.785,141.033088 98.8444444,141.254902 C98.9033333,141.477328 98.9877778,141.668505 99.0977778,141.828431 C99.2072222,141.988971 99.3388889,142.112745 99.4933333,142.20098 C99.6472222,142.289216 99.8161111,142.333333 100,142.333333 C100.183333,142.333333 100.352778,142.289216 100.506667,142.20098 C100.660556,142.112745 100.792778,141.988971 100.902222,141.828431 C101.011667,141.668505 101.096111,141.477328 101.155556,141.254902 C101.214444,141.033088 101.244444,140.784314 101.244444,140.509804 C101.244444,140.235294 101.214444,139.985294 101.155556,139.759804 C101.096111,139.534314 101.011667,139.340074 100.902222,139.176471 C100.792778,139.01348 100.660556,138.887255 100.506667,138.79902 C100.352778,138.710784 100.183333,138.666667 100,138.666667 C99.8161111,138.666667 99.6472222,138.710784 99.4933333,138.79902 C99.3388889,138.887255 99.2072222,139.01348 99.0977778,139.176471 C98.9877778,139.340074 98.9033333,139.534314 98.8444444,139.759804 C98.785,139.985294 98.7555556,140.235294 98.7555556,140.509804 M98,140.509804 C98,140.11152 98.0544444,139.75674 98.1644444,139.446078 C98.2738889,139.136029 98.4205556,138.872549 98.6044444,138.656863 C98.7877778,138.441176 99,138.277574 99.24,138.166667 C99.48,138.05576 99.7333333,138 100,138 C100.266667,138 100.52,138.05576 100.76,138.166667 C101,138.277574 101.211667,138.441176 101.395556,138.656863 C101.579444,138.872549 101.725556,139.136029 101.835556,139.446078 C101.945,139.75674 102,140.11152 102,140.509804 C102,140.901961 101.945,141.253064 101.835556,141.563725 C101.725556,141.874387 101.579444,142.136029 101.395556,142.348039 C101.211667,142.560662 101,142.722426 100.76,142.833333 C100.52,142.94424 100.266667,143 100,143 C99.7333333,143 99.48,142.94424 99.24,142.833333 C99,142.722426 98.7877778,142.560662 98.6044444,142.348039 C98.4205556,142.136029 98.2738889,141.874387 98.1644444,141.563725 C98.0544444,141.253064 98,140.901961 98,140.509804" id="Fill-54" fill="#231F20" mask="url(#mask-2)"></path>
                <path d="M106.771765,141.883357 C106.978824,142.069435 107.179412,142.200747 107.374118,142.276671 C107.568235,142.353218 107.741176,142.391181 107.891765,142.391181 C108.08,142.391181 108.254118,142.346373 108.414118,142.256757 C108.574118,142.167141 108.711765,142.040807 108.828235,141.878378 C108.944118,141.71595 109.035294,141.514936 109.101176,141.27596 C109.167059,141.036984 109.2,140.768137 109.2,140.469417 C109.2,140.204303 109.177647,139.961593 109.134118,139.742532 C109.09,139.523471 109.019412,139.336149 108.922353,139.179943 C108.824706,139.02436 108.699412,138.903005 108.545882,138.816501 C108.391765,138.730619 108.208235,138.687055 107.995294,138.687055 C107.800588,138.687055 107.604706,138.743688 107.407059,138.85633 C107.209412,138.968972 106.997647,139.132023 106.771765,139.344239 L106.771765,141.883357 Z M106.771765,143.366999 L106.771765,145 L106,145 L106,138.119488 L106.64,138.119488 L106.705882,138.677098 L106.734118,138.677098 C106.941176,138.491021 107.168235,138.331703 107.416471,138.199147 C107.664118,138.06659 107.922941,138 108.192941,138 C108.487647,138 108.748235,138.058499 108.974118,138.174253 C109.2,138.290629 109.388235,138.456792 109.538824,138.672119 C109.689412,138.888069 109.803529,139.146959 109.882353,139.448791 C109.960588,139.751245 110,140.091038 110,140.469417 C110,140.881401 109.946471,141.247955 109.84,141.569701 C109.733529,141.89207 109.588824,142.165896 109.407059,142.391181 C109.224706,142.617087 109.014706,142.788229 108.776471,142.903983 C108.537647,143.020359 108.287059,143.078236 108.023529,143.078236 C107.81,143.078236 107.598235,143.02845 107.388235,142.928876 C107.177647,142.829303 106.966471,142.693634 106.752941,142.520626 L106.771765,143.366999 Z" id="Fill-55" fill="#231F20" mask="url(#mask-2)"></path>
                <path d="M114.798122,140.539118 C114.798122,141.123489 114.907864,141.578414 115.126761,141.903272 C115.346244,142.228752 115.655516,142.391181 116.056338,142.391181 C116.269366,142.391181 116.469484,142.336415 116.657277,142.226885 C116.84507,142.117354 117.032864,141.949947 117.220657,141.72404 L117.220657,139.194879 C117.026408,139.009424 116.840376,138.878112 116.661972,138.801565 C116.483568,138.725018 116.300469,138.687055 116.112676,138.687055 C115.931338,138.687055 115.760563,138.731863 115.600939,138.821479 C115.441315,138.911095 115.30223,139.037429 115.183099,139.199858 C115.064554,139.362909 114.97007,139.557077 114.901408,139.782361 C114.832746,140.008268 114.798122,140.260313 114.798122,140.539118 M114,140.549075 C114,140.157628 114.054577,139.804143 114.164319,139.48862 C114.273474,139.17372 114.419014,138.906117 114.600939,138.687055 C114.782864,138.467994 114.992371,138.29872 115.230047,138.179232 C115.46831,138.059744 115.71831,138 115.981221,138 C116.244131,138 116.475939,138.048542 116.676056,138.144381 C116.876761,138.240843 117.079812,138.385224 117.286385,138.577525 L117.305164,138.577525 L117.380282,138.119488 L118,138.119488 L118,145 L117.220657,145 L117.220657,143.277383 L117.258216,142.421053 C117.076878,142.600284 116.868545,142.754623 116.633803,142.884068 C116.399061,143.013514 116.150235,143.078236 115.887324,143.078236 C115.31162,143.078236 114.8527,142.859175 114.511737,142.421053 C114.170775,141.98293 114,141.359353 114,140.549075" id="Fill-56" fill="#231F20" mask="url(#mask-2)"></path>
                <path d="M122,138.120482 L122.761194,138.120482 L122.839552,139.004016 L122.873134,139.004016 C123.059935,138.695909 123.285215,138.451807 123.550373,138.271084 C123.815532,138.090361 124.104478,138 124.41791,138 C124.634095,138 124.827892,138.033258 125,138.100402 L124.820896,138.823293 C124.731343,138.79631 124.649487,138.77623 124.574627,138.763052 C124.499767,138.749247 124.406716,138.742972 124.294776,138.742972 C124.0632,138.742972 123.822528,138.826431 123.572761,138.993976 C123.322994,139.161521 123.104711,139.452686 122.91791,139.86747 L122.91791,143 L122,143 L122,138.120482 Z" id="Fill-57" fill="#231F20" mask="url(#mask-2)"></path>
                <path d="M127.456825,141.803922 C127.69429,141.973652 127.937326,142.110907 128.18663,142.215686 C128.435237,142.319853 128.722841,142.372549 129.050139,142.372549 C129.406685,142.372549 129.674095,142.300858 129.852368,142.156863 C130.030641,142.012868 130.119777,141.836397 130.119777,141.627451 C130.119777,141.503064 130.082869,141.395221 130.008357,141.303922 C129.933844,141.212623 129.839136,141.132353 129.724234,141.063725 C129.608635,140.995098 129.477019,140.934436 129.328691,140.882353 C129.180362,140.83027 129.031337,140.777574 128.883008,140.72549 C128.690111,140.666667 128.496518,140.599877 128.303621,140.52451 C128.110028,140.449142 127.937326,140.357843 127.785515,140.25 C127.633008,140.142157 127.509053,140.016544 127.412256,139.872549 C127.31546,139.728554 127.267409,139.55576 127.267409,139.352941 C127.267409,139.16299 127.309889,138.985294 127.395543,138.818627 C127.481198,138.651961 127.603064,138.507966 127.763231,138.387255 C127.922702,138.266544 128.117688,138.171569 128.348189,138.102941 C128.577994,138.034314 128.83844,138 129.128134,138 C129.470056,138 129.783426,138.052083 130.069638,138.156863 C130.35585,138.261642 130.602368,138.389093 130.810585,138.539216 L130.376045,139.04902 C130.190111,138.924632 129.997214,138.823529 129.796657,138.745098 C129.5961,138.666667 129.376741,138.627451 129.139276,138.627451 C128.797354,138.627451 128.546657,138.696078 128.387187,138.833333 C128.227019,138.970588 128.147632,139.130515 128.147632,139.313725 C128.147632,139.424632 128.181058,139.520833 128.247911,139.602941 C128.314763,139.685049 128.4039,139.75674 128.51532,139.818627 C128.626741,139.880515 128.754875,139.936275 128.899721,139.985294 C129.044568,140.034314 129.194986,140.084559 129.350975,140.137255 C129.543872,140.202819 129.738858,140.271446 129.935933,140.343137 C130.132312,140.414828 130.309192,140.504902 130.465181,140.612745 C130.62117,140.720588 130.749304,140.852941 130.849582,141.009804 C130.949861,141.166667 131,141.356005 131,141.578431 C131,141.77451 130.956825,141.957108 130.871866,142.127451 C130.786212,142.297181 130.660167,142.447304 130.493036,142.578431 C130.325905,142.708946 130.117688,142.8125 129.869081,142.887255 C129.619777,142.96201 129.336351,143 129.016713,143 C128.630223,143 128.262535,142.9375 127.913649,142.813725 C127.564067,142.689338 127.259749,142.532475 127,142.343137 L127.456825,141.803922 Z" id="Fill-58" fill="#231F20" mask="url(#mask-2)"></path>
                <path d="M133.717608,138.921136 L133,138.921136 L133,138.334385 L133.757475,138.287066 L133.857143,137 L134.54485,137 L134.54485,138.287066 L135.850498,138.287066 L135.850498,138.921136 L134.54485,138.921136 L134.54485,141.476341 C134.54485,141.760252 134.599668,141.979692 134.709302,142.134069 C134.818937,142.288446 135.013289,142.365931 135.292359,142.365931 C135.378945,142.365931 135.471761,142.353509 135.571429,142.328076 C135.671096,142.303233 135.760797,142.274251 135.840532,142.242902 L136,142.829653 C135.866694,142.874014 135.722176,142.913644 135.566445,142.94795 C135.410091,142.982847 135.255606,143 135.10299,143 C134.843854,143 134.625831,142.962145 134.450166,142.886435 C134.273879,142.810726 134.131229,142.706625 134.021595,142.574132 C133.91196,142.44164 133.834095,142.280757 133.787375,142.091483 C133.740656,141.902208 133.717608,141.694006 133.717608,141.466877 L133.717608,138.921136 Z" id="Fill-59" fill="#231F20" mask="url(#mask-2)"></path>
                <path d="M140,138 L140.857881,138 L140.857881,140.981928 C140.857881,141.443775 140.931525,141.776983 141.080103,141.980924 C141.228036,142.184864 141.4677,142.287149 141.79845,142.287149 C142.060078,142.287149 142.290698,142.221888 142.490956,142.091365 C142.690568,141.960843 142.910853,141.751883 143.152455,141.463855 L143.152455,138 L144,138 L144,142.879518 L143.297158,142.879518 L143.224806,142.116466 L143.193798,142.116466 C142.959302,142.384413 142.713178,142.598394 142.45478,142.759036 C142.196382,142.919679 141.891473,143 141.540052,143 C141.002584,143 140.611111,142.839357 140.366925,142.518072 C140.122093,142.196787 140,141.721762 140,141.092369 L140,138 Z" id="Fill-60" fill="#231F20" mask="url(#mask-2)"></path>
                <path d="M147,138 L147.767494,138 L148.598194,140.839506 C148.664221,141.08642 148.731941,141.333333 148.801354,141.580247 C148.870203,141.82716 148.938488,142.070859 149.004515,142.3107 L149.040632,142.3107 C149.106659,142.070859 149.173251,141.82716 149.239278,141.580247 C149.305305,141.333333 149.371896,141.08642 149.437923,140.839506 L150.268623,138 L151,138 L149.446953,143 L148.580135,143 L147,138 Z" id="Fill-61" fill="#231F20" mask="url(#mask-2)"></path>
                <path d="M153,138 L153.877612,138 L154.629851,140.890947 C154.686007,141.130787 154.738246,141.364198 154.786567,141.590535 C154.835541,141.816872 154.883862,142.046425 154.932836,142.279835 L154.974627,142.279835 C155.030131,142.046425 155.086287,141.815586 155.141791,141.585391 C155.197295,141.355838 155.256716,141.123714 155.319403,140.890947 L156.102985,138 L156.938806,138 L157.732836,140.890947 C157.795522,141.130787 157.85625,141.364198 157.915672,141.590535 C157.975093,141.816872 158.032556,142.046425 158.08806,142.279835 L158.129851,142.279835 C158.185354,142.046425 158.237593,141.816872 158.286567,141.590535 C158.335541,141.364198 158.387127,141.130787 158.443284,140.890947 L159.185075,138 L160,138 L158.641791,143 L157.597015,143 L156.865672,140.314815 C156.802985,140.074974 156.745522,139.837706 156.693284,139.604938 C156.641045,139.371528 156.583582,139.127829 156.520896,138.874486 L156.479104,138.874486 C156.423601,139.127829 156.367444,139.373457 156.31194,139.610082 C156.256437,139.846708 156.19375,140.085262 156.123881,140.325103 L155.413433,143 L154.410448,143 L153,138 Z" id="Fill-62" fill="#231F20" mask="url(#mask-2)"></path>
                <path d="M164.521531,140.386831 L163.114833,138 L163.966507,138 L164.588517,139.100823 C164.658493,139.237783 164.732057,139.377315 164.808612,139.51749 C164.885167,139.658308 164.964713,139.797197 165.047847,139.934156 L165.086124,139.934156 C165.1561,139.797197 165.226077,139.658308 165.296651,139.51749 C165.366627,139.377315 165.436603,139.237783 165.507177,139.100823 L166.07177,138 L166.894737,138 L165.488038,140.479424 L167,143 L166.148325,143 L165.4689,141.837449 C165.385766,141.686343 165.30323,141.53588 165.220096,141.384774 C165.136962,141.233668 165.050837,141.08642 164.961722,140.942387 L164.923445,140.942387 C164.840311,141.08642 164.760766,141.232382 164.684211,141.37963 C164.607656,141.526878 164.5311,141.679913 164.454545,141.837449 L163.822967,143 L163,143 L164.521531,140.386831 Z" id="Fill-63" fill="#231F20" mask="url(#mask-2)"></path>
                <path d="M170.496614,144.289928 C170.556998,144.306924 170.613995,144.315108 170.668172,144.315108 C170.920993,144.315108 171.12754,144.216277 171.286682,144.017986 C171.446388,143.819694 171.571106,143.569784 171.6614,143.267626 L171.760722,142.905036 L170,138 L170.767494,138 L171.6614,140.709353 C171.727991,140.92464 171.798533,141.151259 171.873589,141.389209 C171.948646,141.627788 172.019752,141.861331 172.085779,142.089209 L172.121896,142.089209 C172.188488,141.867626 172.251129,141.635971 172.311512,141.394245 C172.371896,141.152518 172.43228,140.92464 172.492099,140.709353 L173.277652,138 L174,138 L172.34763,143.297842 C172.269752,143.539568 172.18228,143.764928 172.085779,143.972662 C171.989842,144.181025 171.875282,144.360432 171.742664,144.511511 C171.610609,144.66259 171.459932,144.781565 171.291196,144.869065 C171.12246,144.956565 170.927201,145 170.704289,145 C170.602144,145 170.508465,144.991817 170.424379,144.97482 C170.340293,144.958453 170.261851,144.932644 170.189616,144.899281 L170.334086,144.244604 C170.382054,144.257824 170.436795,144.273561 170.496614,144.289928" id="Fill-64" fill="#231F20" mask="url(#mask-2)"></path>
                <polygon id="Fill-65" fill="#231F20" mask="url(#mask-2)" points="177 142.547325 179.782609 138.6893 177.304348 138.6893 177.304348 138 180.913043 138 180.913043 138.452675 178.130435 142.3107 181 142.3107 181 143 177 143"></polygon>
                <path d="M2.00488998,162.30152 C2.18765281,162.30152 2.35207824,162.247333 2.49877751,162.137638 C2.64547677,162.028604 2.77261614,161.859435 2.8801956,161.630133 C2.98777506,161.401492 3.07090465,161.108751 3.12958435,160.752572 C3.18826406,160.397055 3.21760391,159.972151 3.21760391,159.479184 C3.21760391,158.984896 3.18826406,158.562636 3.12958435,158.210422 C3.07090465,157.857547 2.98777506,157.570093 2.8801956,157.34806 C2.77261614,157.126027 2.64547677,156.962145 2.49877751,156.857075 C2.35207824,156.751345 2.18765281,156.69848 2.00488998,156.69848 C1.82212714,156.69848 1.65586797,156.751345 1.50611247,156.857075 C1.35574572,156.962145 1.22738386,157.126027 1.1198044,157.34806 C1.01222494,157.570093 0.929095355,157.857547 0.870415648,158.210422 C0.811735941,158.562636 0.782396088,158.984896 0.782396088,159.479184 C0.782396088,160.465779 0.894865526,161.182762 1.1198044,161.630133 C1.34474328,162.078165 1.63997555,162.30152 2.00488998,162.30152 M2.00488998,163 C1.37224939,163 0.880195599,162.696686 0.528117359,162.09072 C0.17603912,161.484093 0,160.613141 0,159.479184 C0,158.343906 0.17603912,157.480223 0.528117359,156.888794 C0.880195599,156.296045 1.37224939,156 2.00488998,156 C2.63080685,156 3.1198044,156.296045 3.47188264,156.888794 C3.82396088,157.480223 4,158.343906 4,159.479184 C4,160.613141 3.82396088,161.484093 3.47188264,162.09072 C3.1198044,162.696686 2.63080685,163 2.00488998,163" id="Fill-66" fill="#231F20" mask="url(#mask-2)"></path>
                <path d="M8,161.360502 L9.62222222,161.360502 L9.62222222,156.939851 L8.33333333,156.939851 L8.33333333,156.442006 C8.65902778,156.392045 8.94236111,156.330329 9.18333333,156.258621 C9.42361111,156.186324 9.64027778,156.100509 9.83333333,156 L10.5333333,156 L10.5333333,161.360502 L12,161.360502 L12,162 L8,162 L8,161.360502 Z" id="Fill-67" fill="#231F20" mask="url(#mask-2)"></path>
                <path d="M15.0384615,161.547692 C15.5,161.104615 15.9098558,160.704808 16.2692308,160.347692 C16.6280048,159.991154 16.9290865,159.660577 17.1730769,159.355385 C17.4164663,159.050769 17.6027644,158.770962 17.7307692,158.515385 C17.858774,158.260385 17.9230769,158.012308 17.9230769,157.772308 C17.9230769,157.434231 17.8269231,157.157308 17.6346154,156.942115 C17.4423077,156.726346 17.1502404,156.618462 16.7596154,156.618462 C16.5030048,156.618462 16.265625,156.687692 16.0480769,156.826154 C15.8299279,156.965192 15.6310096,157.1325 15.4519231,157.329231 L15,156.895962 C15.2560096,156.624808 15.5288462,156.407885 15.8173077,156.245192 C16.1057692,156.081346 16.4519231,156 16.8557692,156 C17.4260817,156 17.875,156.158654 18.2019231,156.475385 C18.5288462,156.792692 18.6923077,157.212115 18.6923077,157.735962 C18.6923077,158.012308 18.6298077,158.290385 18.5048077,158.570769 C18.3798077,158.850577 18.2067308,159.140192 17.9855769,159.438462 C17.7644231,159.736731 17.5012019,160.047692 17.1971154,160.370769 C16.8924279,160.694423 16.5576923,161.037115 16.1923077,161.4 C16.358774,161.387885 16.531851,161.375769 16.7115385,161.363654 C16.891226,161.350962 17.0606971,161.344615 17.2211538,161.344615 L19,161.344615 L19,162 L15.0384615,162 L15.0384615,161.547692 Z" id="Fill-68" fill="#231F20" mask="url(#mask-2)"></path>
                <path d="M22.4,161.476824 C22.5845238,161.688285 22.7982143,161.875956 23.0428571,162.037855 C23.2875,162.199755 23.5904762,162.280374 23.952381,162.280374 C24.3208333,162.280374 24.6220238,162.169357 24.8571429,161.947324 C25.0916667,161.72529 25.2095238,161.423959 25.2095238,161.043991 C25.2095238,160.846408 25.1761905,160.664684 25.1095238,160.499481 C25.0428571,160.333617 24.9333333,160.190881 24.7809524,160.070613 C24.6285714,159.951005 24.4285714,159.859813 24.1809524,159.795714 C23.9333333,159.732276 23.6285714,159.700557 23.2666667,159.700557 L23.2666667,159.035118 C23.5904762,159.035118 23.8619048,159.002738 24.0809524,158.9393 C24.3,158.875861 24.4779762,158.787973 24.6142857,158.675635 C24.7505952,158.562636 24.847619,158.428491 24.9047619,158.273199 C24.9619048,158.118569 24.9904762,157.952705 24.9904762,157.776267 C24.9904762,157.4452 24.8970238,157.184178 24.7095238,156.993864 C24.5220238,156.80421 24.2666667,156.708392 23.9428571,156.708392 C23.6892857,156.708392 23.4553571,156.77183 23.2428571,156.898707 C23.0303571,157.026244 22.8321429,157.191447 22.647619,157.395639 L22.2285714,156.845842 C22.4630952,156.599358 22.722619,156.397149 23.0047619,156.237893 C23.2875,156.079298 23.6095238,156 23.9714286,156 C24.2380952,156 24.4827381,156.038988 24.7047619,156.116964 C24.9267857,156.194279 25.1190476,156.305296 25.2809524,156.450014 C25.4428571,156.594072 25.5684524,156.77183 25.6571429,156.983291 C25.7464286,157.195412 25.7904762,157.438592 25.7904762,157.71349 C25.7904762,158.121873 25.6886905,158.456906 25.4857143,158.717266 C25.2827381,158.978288 25.0160714,159.179175 24.6857143,159.319928 L24.6857143,159.362881 C24.8696429,159.411781 25.0410714,159.48381 25.2,159.578967 C25.3589286,159.674124 25.4988095,159.794393 25.6190476,159.93845 C25.739881,160.083168 25.8333333,160.251015 25.9,160.441329 C25.9666667,160.631644 26,160.842443 26,161.07571 C26,161.371094 25.947619,161.639384 25.8428571,161.878599 C25.7380952,162.118474 25.5952381,162.320683 25.4142857,162.486548 C25.2333333,162.652412 25.0220238,162.779288 24.7809524,162.867176 C24.539881,162.955065 24.2791667,163 24,163 C23.7589286,163 23.5380952,162.973567 23.3380952,162.920702 C23.1380952,162.867176 22.9559524,162.79713 22.7904762,162.708581 C22.625,162.620693 22.477381,162.520249 22.347619,162.40725 C22.2172619,162.294912 22.1017857,162.175304 22,162.047767 L22.4,161.476824 Z" id="Fill-69" fill="#231F20" mask="url(#mask-2)"></path>
                <path d="M32.1747788,159.724138 L32.1747788,157.984326 C32.1747788,157.821513 32.1803097,157.628723 32.1913717,157.405956 C32.2024336,157.183777 32.2155697,156.990987 32.2300885,156.827586 L32.1858407,156.827586 C32.0973451,156.971591 32.0053927,157.113245 31.909292,157.250784 C31.8138827,157.388323 31.7136338,157.529976 31.6106195,157.673981 L29.9623894,159.724138 L32.1747788,159.724138 Z M34,160.344828 L33.0376106,160.344828 L33.0376106,162 L32.1747788,162 L32.1747788,160.344828 L29,160.344828 L29,159.836991 L32.0199115,156 L33.0376106,156 L33.0376106,159.724138 L34,159.724138 L34,160.344828 Z" id="Fill-70" fill="#231F20" mask="url(#mask-2)"></path>
                <path d="M37.3773585,160.69801 C37.553066,160.876839 37.7623821,161.033747 38.004717,161.168734 C38.2470519,161.304298 38.5442217,161.371791 38.8962264,161.371791 C39.0784198,161.371791 39.25,161.339487 39.4103774,161.274877 C39.5707547,161.210845 39.7104953,161.1197 39.8301887,161.002596 C39.9492925,160.886069 40.0436321,160.744159 40.1132075,160.578021 C40.1821934,160.41246 40.2169811,160.227863 40.2169811,160.024228 C40.2169811,159.618691 40.1008255,159.301413 39.8679245,159.074127 C39.6350236,158.846265 39.3237028,158.732622 38.9339623,158.732622 C38.7264151,158.732622 38.5483491,158.763196 38.4009434,158.824921 C38.2529481,158.886069 38.0878538,158.975483 37.9056604,159.092587 L37.490566,158.834151 L37.6886792,156 L40.6981132,156 L40.6981132,156.655322 L38.3679245,156.655322 L38.2075472,158.400346 C38.3520047,158.326507 38.4964623,158.267667 38.6415094,158.224978 C38.785967,158.181713 38.9498821,158.160369 39.1320755,158.160369 C39.3897406,158.160369 39.6320755,158.196712 39.8584906,158.270551 C40.0849057,158.344967 40.2830189,158.456879 40.4528302,158.607442 C40.6226415,158.758581 40.7558962,158.949524 40.8537736,159.179694 C40.9510613,159.411018 41,159.686184 41,160.006346 C41,160.32593 40.9433962,160.609172 40.8301887,160.854918 C40.7169811,161.10124 40.5660377,161.309489 40.3773585,161.478512 C40.1886792,161.647534 39.9728774,161.776752 39.7311321,161.86559 C39.4887972,161.955004 39.2358491,162 38.9716981,162 C38.7323113,162 38.5141509,161.976925 38.3160377,161.930776 C38.1179245,161.884626 37.9386792,161.824055 37.7783019,161.750216 C37.6179245,161.676377 37.473467,161.592155 37.3443396,161.496971 C37.2152123,161.401211 37.1002358,161.301413 37,161.196423 L37.3773585,160.69801 Z" id="Fill-71" fill="#231F20" mask="url(#mask-2)"></path>
                <path d="M46.1515892,162.312754 C46.3080685,162.312754 46.4511002,162.27707 46.5819071,162.207024 C46.7121027,162.136316 46.8264059,162.035873 46.9242054,161.905692 C47.0220049,161.775512 47.0984108,161.61956 47.1540342,161.44048 C47.2090465,161.260077 47.2371638,161.058529 47.2371638,160.832531 C47.2371638,160.388464 47.1424205,160.039554 46.9535452,159.785802 C46.7640587,159.532049 46.4743276,159.405173 46.0831296,159.405173 C45.8875306,159.405173 45.6735941,159.473898 45.4425428,159.611347 C45.2108802,159.748796 44.9908313,159.976116 44.7823961,160.292646 C44.8343521,160.955442 44.9761614,161.457661 45.207824,161.799962 C45.4388753,162.141603 45.7536675,162.312754 46.1515892,162.312754 Z M47.4327628,157.25885 C47.301956,157.09629 47.1473105,156.968092 46.9682152,156.872935 C46.7885086,156.777778 46.601467,156.730199 46.405868,156.730199 C46.190709,156.730199 45.9853301,156.779099 45.7897311,156.877561 C45.594132,156.976683 45.4211491,157.138582 45.2713936,157.36458 C45.1210269,157.590579 45.0006112,157.884641 44.9095355,158.247428 C44.8178484,158.610214 44.7689487,159.059568 44.7628362,159.595488 C44.9584352,159.334466 45.1864303,159.128953 45.4474328,158.976305 C45.707824,158.82564 45.9657702,158.748985 46.2200489,158.748985 C46.7610024,158.748985 47.193154,158.922118 47.5158924,159.267724 C47.8386308,159.612669 48,160.134712 48,160.832531 C48,161.15633 47.9511002,161.450392 47.8533007,161.715378 C47.7555012,161.979704 47.6216381,162.207024 47.4523227,162.397338 C47.2830073,162.587652 47.0867971,162.735675 46.8655257,162.841405 C46.643643,162.947135 46.405868,163 46.1515892,163 C45.8453545,163 45.5611247,162.932597 45.3007335,162.798452 C45.0397311,162.664967 44.8135697,162.462758 44.6210269,162.190503 C44.4284841,161.91957 44.2768949,161.581894 44.1662592,161.175493 C44.0550122,160.770414 44,160.296611 44,159.754083 C44,159.07741 44.0647922,158.500519 44.195599,158.025394 C44.3257946,157.549608 44.5018337,157.161711 44.7237164,156.862362 C44.9449878,156.563013 45.198044,156.344284 45.4816626,156.206835 C45.7652812,156.069385 46.0635697,156 46.3765281,156 C46.7151589,156 47.007335,156.069385 47.2518337,156.206835 C47.4963325,156.344284 47.7066015,156.515435 47.8826406,156.719626 L47.4327628,157.25885 Z" id="Fill-72" fill="#231F20" mask="url(#mask-2)"></path>
                <path d="M53.4501217,160.448276 C53.5279805,159.977469 53.6368613,159.53076 53.7761557,159.10815 C53.9154501,158.684953 54.0942822,158.275862 54.3114355,157.880878 C54.5285888,157.485893 54.790146,157.080917 55.0948905,156.667124 L52,156.667124 L52,156 L56,156 L56,156.479624 C55.6301703,156.931034 55.330292,157.363636 55.0997567,157.777429 C54.8692214,158.190635 54.6861314,158.612657 54.5498783,159.041732 C54.4136253,159.471983 54.3144769,159.925745 54.2530414,160.405956 C54.1916058,160.884992 54.1472019,161.41634 54.1216545,162 L53.2944039,162 C53.3205596,161.435737 53.3722628,160.918495 53.4501217,160.448276" id="Fill-73" fill="#231F20" mask="url(#mask-2)"></path>
                <path d="M61.4481928,159.193052 C61.6536145,158.988861 61.8126506,158.774096 61.9253012,158.548098 C62.0379518,158.323421 62.0939759,158.08685 62.0939759,157.839705 C62.0939759,157.501369 62.0006024,157.21788 61.8144578,156.988577 C61.6277108,156.759275 61.3644578,156.645615 61.0240964,156.645615 C60.7349398,156.645615 60.496988,156.744076 60.3108434,156.94166 C60.1240964,157.138582 60.0313253,157.402908 60.0313253,157.733975 C60.0313253,157.938828 60.0698795,158.113282 60.146988,158.25734 C60.2240964,158.402058 60.3283133,158.530917 60.460241,158.643255 C60.5915663,158.756254 60.7427711,158.856698 60.913253,158.944586 C61.0831325,159.033135 61.2614458,159.115737 61.4481928,159.193052 M59.713253,161.064477 C59.713253,161.254791 59.746988,161.427924 59.8144578,161.582555 C59.8819277,161.738507 59.9746988,161.873973 60.0939759,161.989616 C60.2126506,162.105919 60.3524096,162.19579 60.513253,162.259889 C60.673494,162.322666 60.846988,162.354385 61.0337349,162.354385 C61.3933735,162.354385 61.6843373,162.245351 61.9060241,162.026621 C62.1277108,161.808553 62.2385542,161.52242 62.2385542,161.170207 C62.2385542,160.952138 62.1933735,160.765128 62.1036145,160.610497 C62.013253,160.455206 61.8915663,160.319079 61.7373494,160.202775 C61.5831325,160.087133 61.4048193,159.980742 61.2024096,159.886246 C61,159.790428 60.7891566,159.693949 60.5710843,159.594827 C60.326506,159.778533 60.1228916,159.991315 59.9590361,160.234494 C59.7951807,160.477674 59.713253,160.754555 59.713253,161.064477 M59,161.149061 C59,160.930992 59.0337349,160.728122 59.1012048,160.541112 C59.1686747,160.354763 59.2554217,160.185594 59.3614458,160.033607 C59.4674699,159.882281 59.5891566,159.748796 59.7277108,159.631832 C59.8656627,159.515529 60.0084337,159.415085 60.1566265,159.330501 L60.1566265,159.28887 C59.9313253,159.112433 59.7325301,158.89899 59.5590361,158.649202 C59.3855422,158.398754 59.2987952,158.093458 59.2987952,157.733975 C59.2987952,157.472954 59.3433735,157.237043 59.4337349,157.026244 C59.523494,156.814123 59.6457831,156.63306 59.8,156.481072 C59.9542169,156.329746 60.1373494,156.21146 60.3493976,156.126876 C60.5614458,156.042292 60.7927711,156 61.0433735,156 C61.313253,156 61.5542169,156.044275 61.7662651,156.132163 C61.9783133,156.220712 62.1596386,156.343623 62.3108434,156.502879 C62.4614458,156.660814 62.5777108,156.851128 62.6578313,157.073162 C62.7379518,157.295195 62.7783133,157.537053 62.7783133,157.798074 C62.7783133,157.973851 62.7506024,158.143019 62.6963855,158.304918 C62.6415663,158.467479 62.5740964,158.618805 62.4939759,158.760219 C62.413253,158.900972 62.323494,159.027849 62.2240964,159.140187 C62.1240964,159.253186 62.026506,159.348343 61.9301205,159.426319 L61.9301205,159.467951 C62.0650602,159.552535 62.1963855,159.649674 62.3253012,159.758709 C62.4536145,159.867743 62.5674699,159.991315 62.6674699,160.128764 C62.7668675,160.266214 62.846988,160.423487 62.9084337,160.599264 C62.9692771,160.776362 63,160.976588 63,161.201926 C63,161.456339 62.9518072,161.69225 62.8554217,161.910318 C62.7590361,162.129047 62.6240964,162.319362 62.4506024,162.481922 C62.2771084,162.643821 62.0680723,162.770698 61.8240964,162.862551 C61.5795181,162.953082 61.310241,163 61.0144578,163 C60.7253012,163 60.4566265,162.953082 60.2096386,162.862551 C59.9620482,162.770698 59.75,162.641839 59.573494,162.476636 C59.3963855,162.310771 59.2566265,162.11517 59.1542169,161.889172 C59.0512048,161.663835 59,161.417351 59,161.149061" id="Fill-74" fill="#231F20" mask="url(#mask-2)"></path>
                <path d="M67.9117647,159.595166 C68.1145833,159.595166 68.3321078,159.526435 68.5637255,159.388973 C68.7959559,159.25085 69.0165441,159.020865 69.2254902,158.696375 C69.1734069,158.034177 69.0294118,157.533233 68.7941176,157.194864 C68.5588235,156.856495 68.2420343,156.687311 67.8431373,156.687311 C67.6930147,156.687311 67.5508578,156.722338 67.4166667,156.793051 C67.2830882,156.863765 67.1666667,156.964218 67.0686275,157.094411 C66.9705882,157.224603 66.8939951,157.381231 66.8382353,157.564955 C66.7830882,157.748017 66.754902,157.949585 66.754902,158.167674 C66.754902,158.611782 66.8498775,158.960725 67.0392157,159.214502 C67.2285539,159.468278 67.5196078,159.595166 67.9117647,159.595166 Z M66.5588235,161.741692 C66.6893382,161.903606 66.8449755,162.033799 67.0245098,162.132931 C67.2046569,162.231401 67.3921569,162.280306 67.5882353,162.280306 C67.8106618,162.280306 68.0196078,162.231401 68.2156863,162.132931 C68.4117647,162.033799 68.5851716,161.869902 68.7352941,161.641239 C68.8854167,161.411915 69.0067402,161.11452 69.0980392,160.747734 C69.1893382,160.380948 69.2389706,159.926265 69.245098,159.383686 C69.0490196,159.652002 68.8204657,159.862821 68.5588235,160.018127 C68.2971814,160.173433 68.036152,160.250755 67.7745098,160.250755 C67.2322304,160.250755 66.8008578,160.077606 66.4803922,159.732628 C66.1605392,159.387651 66,158.865559 66,158.167674 C66,157.843844 66.0490196,157.549094 66.1470588,157.284743 C66.245098,157.020393 66.377451,156.793051 66.5441176,156.602719 C66.7107843,156.412387 66.9068627,156.26435 67.1323529,156.15861 C67.3578431,156.05287 67.5949755,156 67.8431373,156 C68.1507353,156 68.4362745,156.066748 68.7009804,156.200906 C68.9656863,156.334403 69.1942402,156.537292 69.3872549,156.808912 C69.5802696,157.079872 69.7303922,157.418901 69.8382353,157.824018 C69.9460784,158.229796 70,158.702983 70,159.246224 C70,159.922961 69.9344363,160.499245 69.8039216,160.975076 C69.6734069,161.450906 69.4969363,161.838841 69.2745098,162.138218 C69.0520833,162.438255 68.7990196,162.656344 68.5147059,162.793807 C68.2303922,162.931269 67.9313725,163 67.6176471,163 C67.2843137,163 66.9920343,162.933252 66.7401961,162.799094 C66.4883578,162.665597 66.2775735,162.496412 66.1078431,162.291541 L66.5588235,161.741692 Z" id="Fill-75" fill="#231F20" mask="url(#mask-2)"></path>
            </g>
        </g>
    </g>
</svg>