<?xml version="1.0" encoding="utf-8"?>
<!-- Generator: Adobe Illustrator 21.0.0, SVG Export Plug-In . SVG Version: 6.00 Build 0)  -->
<svg version="1.1" id="Layer_1" xmlns="http://www.w3.org/2000/svg" xmlns:xlink="http://www.w3.org/1999/xlink" x="0px" y="0px"
	 viewBox="0 0 43.5 43.5" style="enable-background:new 0 0 43.5 43.5;" xml:space="preserve">
<style type="text/css">
	.st0{fill:#B8252B;}
	.st1{fill:#002E6D;}
</style>
<title>atoms/logo/icon</title>
<desc>Created with Sketch.</desc>
<g id="atoms_x2F_logo_x2F_icon">
	<g id="Group-5" transform="translate(0.000000, 9.000000)">
		<polyline id="Fill-1" class="st0" points="35.6,26.9 7.2,26.9 7.2,22.9 4.8,22.9 4.8,29.3 35.6,29.3 35.6,26.9 		"/>
		<polyline id="Fill-2" class="st1" points="4.8,2.7 7.3,2.7 7.3,-1.4 35.6,-1.4 35.6,2.7 38,2.7 38,-3.8 4.8,-3.8 4.8,2.7 		"/>
		<path id="Fill-4" class="st1" d="M2.9,15.7c0,0.8,0.4,2.4,3.1,2.4c1.4,0,3-0.4,3-2c0-1.2-1.1-1.5-2.6-1.9L4.8,14
			c-2.3-0.6-4.6-1.1-4.6-4.4c0-1.7,0.9-4.6,5.6-4.6c4.4,0,5.6,3,5.7,4.9H8.5c-0.1-0.7-0.3-2.3-3-2.3C4.4,7.5,3,8,3,9.3
			c0,1.2,0.9,1.4,1.5,1.6l3.5,0.9c2,0.5,3.8,1.3,3.8,4c0,4.5-4.4,4.9-5.7,4.9c-5.3,0-6.2-3.2-6.2-5H2.9"/>
		<polyline id="Fill-8" class="st1" points="37.9,26.9 35.6,29.3 35.6,20.4 37.9,20.4 37.9,26.9 		"/>
		<polyline id="Fill-1_1_" class="st0" points="35.6,26.9 7.2,26.9 7.2,22.9 4.8,22.9 4.8,29.3 35.6,29.3 35.6,26.9 		"/>
		<g>
			<polyline id="Fill-2_1_" class="st1" points="4.8,2.7 7.3,2.7 7.3,-1.4 35.6,-1.4 35.6,2.7 38,2.7 38,-3.8 4.8,-3.8 4.8,2.7 			
				"/>
			<path id="Fill-4_1_" class="st1" d="M2.9,15.7c0,0.8,0.4,2.4,3.1,2.4c1.4,0,3-0.4,3-2c0-1.2-1.1-1.5-2.6-1.9L4.8,14
				c-2.3-0.6-4.6-1.1-4.6-4.4c0-1.7,0.9-4.6,5.6-4.6c4.4,0,5.6,3,5.7,4.9H8.5c-0.1-0.7-0.3-2.3-3-2.3C4.4,7.5,3,8,3,9.3
				c0,1.2,0.9,1.4,1.5,1.6l3.5,0.9c2,0.5,3.8,1.3,3.8,4c0,4.5-4.4,4.9-5.7,4.9c-5.3,0-6.2-3.2-6.2-5H2.9"/>
		</g>
		<path id="Fill-6" class="st1" d="M18.8,17.8h3.9c1.5,0,2.4-0.7,2.4-2.2c0-1.3-1.1-1.8-2.3-1.8h-4V17.8z M18.8,11.2h3.7
			c1.2,0,2.2-0.5,2.2-1.7c0-1.2-0.9-1.6-2.3-1.6h-3.6V11.2z M15.7,5.3h7.3c3.7,0,4.6,2.3,4.6,3.9c0,2.2-1.2,2.8-1.8,3.1
			c1.8,0.7,2.3,2.2,2.3,3.6c0,1.2-0.5,2.3-1.3,3.1c-0.9,0.8-1.7,1.4-4.8,1.4h-6.4V5.3z"/>
		<polyline id="Fill-7" class="st1" points="38,5.3 35.6,5.3 30.8,20.4 33.8,20.4 36.7,10.5 39.7,20.4 42.7,20.4 38,5.3 		"/>
		<polyline id="Fill-8_1_" class="st1" points="37.9,26.9 35.6,29.3 35.6,20.4 37.9,20.4 37.9,26.9 		"/>
	</g>
</g>
</svg>
