<?xml version="1.0" encoding="UTF-8"?>
<svg width="206px" height="56px" viewBox="0 0 206 56" version="1.1" xmlns="http://www.w3.org/2000/svg" xmlns:xlink="http://www.w3.org/1999/xlink">
    <!-- Generator: Sketch 49.1 (51147) - http://www.bohemiancoding.com/sketch -->
    <title>atoms/logo/horizontal</title>
    <desc>Created with Sketch.</desc>
    <defs></defs>
    <g id="atoms/logo/horizontal" stroke="none" stroke-width="1" fill="none" fill-rule="evenodd">
        <g id="newlogo_horizontal" transform="translate(85.000000, 14.000000)" fill="#002E6D">
            <path d="M2.15707527,1.28077419 L3.34752688,1.28077419 L3.34752688,6.83260215 C3.34752688,7.3968172 3.40533333,7.86950538 3.52034409,8.25247312 C3.63535484,8.63483871 3.79070968,8.94133333 3.9864086,9.16954839 C4.18210753,9.39956989 4.41393548,9.56455914 4.68249462,9.66511828 C4.94984946,9.76567742 5.23647312,9.81565591 5.54236559,9.81565591 C5.85849462,9.81565591 6.14993548,9.76567742 6.41789247,9.66511828 C6.68524731,9.56455914 6.91948387,9.39956989 7.12060215,9.16954839 C7.32172043,8.94133333 7.47888172,8.63483871 7.59389247,8.25247312 C7.70890323,7.86950538 7.76610753,7.3968172 7.76610753,6.83260215 L7.76610753,1.28077419 L8.91380645,1.28077419 L8.91380645,6.80369892 C8.91380645,7.55939785 8.82709677,8.19466667 8.65548387,8.71131183 C8.48326882,9.22735484 8.24662366,9.64524731 7.94494624,9.9667957 C7.64447312,10.2871398 7.288,10.5165591 6.87673118,10.6550538 C6.46486022,10.7929462 6.02107527,10.8627957 5.54236559,10.8627957 C5.06425806,10.8627957 4.61746237,10.7929462 4.20137634,10.6550538 C3.78529032,10.5165591 3.42701075,10.2871398 3.12533333,9.9667957 C2.82486022,9.64524731 2.58821505,9.22735484 2.416,8.71131183 C2.2431828,8.19466667 2.15707527,7.55939785 2.15707527,6.80369892 L2.15707527,1.28077419" id="Fill-9"></path>
            <path d="M9.78873118,9.97341935 C9.78873118,9.69582796 9.87182796,9.47363441 10.039828,9.30683871 C10.2066237,9.13944086 10.4095484,9.05513978 10.6486022,9.05513978 C10.8786237,9.05513978 11.0767312,9.13944086 11.2447312,9.30683871 C11.4115269,9.47363441 11.495828,9.69582796 11.495828,9.97341935 C11.495828,10.2317419 11.4115269,10.4449032 11.2447312,10.6123011 C11.0767312,10.7784946 10.8786237,10.8627957 10.6486022,10.8627957 C10.4095484,10.8627957 10.2066237,10.7784946 10.039828,10.6123011 C9.87182796,10.4449032 9.78873118,10.2317419 9.78873118,9.97341935" id="Fill-10"></path>
            <path d="M13.5323011,8.63965591 C13.8664946,8.99311828 14.2609032,9.27793548 14.7155269,9.49290323 C15.1695484,9.70787097 15.6404301,9.81565591 16.128172,9.81565591 C16.7501935,9.81565591 17.2331183,9.67415054 17.5769462,9.39234409 C17.9219785,9.11113978 18.0935914,8.74021505 18.0935914,8.28137634 C18.0935914,8.04172043 18.0526452,7.83819355 17.971957,7.67139785 C17.8906667,7.504 17.7804731,7.36068817 17.6425806,7.24086022 C17.5028817,7.12103226 17.3384946,7.01384946 17.1470108,6.91750538 C16.9555269,6.82296774 16.7501935,6.7224086 16.5304086,6.61703226 L15.1821935,6.02933333 C14.9618065,5.93298925 14.7372043,5.81858065 14.5083871,5.68430108 C14.2783656,5.55062366 14.0724301,5.38804301 13.8911828,5.19716129 C13.7087312,5.00567742 13.5606022,4.77806452 13.4461935,4.51492473 C13.3317849,4.25178495 13.2739785,3.94830108 13.2739785,3.60447312 C13.2739785,3.25101075 13.348043,2.92043011 13.4967742,2.61513978 C13.6443011,2.30924731 13.8502366,2.04369892 14.1133763,1.81789247 C14.3765161,1.59389247 14.6872258,1.41926882 15.0455054,1.29522581 C15.4043871,1.1711828 15.7987957,1.10855914 16.2287312,1.10855914 C16.7935484,1.10855914 17.3144086,1.21574194 17.7931183,1.43131183 C18.2712258,1.64627957 18.6770753,1.92627957 19.011871,2.27010753 L18.3663656,3.04507527 C18.0791398,2.76808602 17.7618065,2.55010753 17.4125591,2.39234409 C17.063914,2.23458065 16.6695054,2.15569892 16.2287312,2.15569892 C15.7024516,2.15569892 15.2803441,2.27793548 14.96,2.5212043 C14.6390538,2.76567742 14.4794839,3.10227957 14.4794839,3.53221505 C14.4794839,3.76223656 14.524043,3.95552688 14.6149677,4.11389247 C14.7058925,4.27165591 14.828129,4.41015054 14.9810753,4.52937634 C15.1340215,4.64980645 15.3014194,4.75458065 15.4832688,4.84550538 C15.6651183,4.93643011 15.8511828,5.02012903 16.0420645,5.09660215 L17.3764301,5.66984946 C17.6443871,5.78486022 17.8978925,5.91673118 18.1369462,6.06425806 C18.3753978,6.21298925 18.5813333,6.3852043 18.7529462,6.58090323 C18.9257634,6.7772043 19.0624516,7.00662366 19.1624086,7.26916129 C19.2629677,7.53290323 19.3135484,7.8363871 19.3135484,8.1808172 C19.3135484,8.55354839 19.2388817,8.9027957 19.0913548,9.22735484 C18.9426237,9.55251613 18.7294624,9.83733333 18.4524731,10.0806022 C18.1748817,10.3244731 17.840086,10.5165591 17.448086,10.6550538 C17.056086,10.7929462 16.6116989,10.8627957 16.1143226,10.8627957 C15.4543656,10.8627957 14.8425806,10.7381505 14.2783656,10.4900645 C13.7135484,10.2413763 13.2264086,9.90176344 12.8151398,9.47122581 L13.5323011,8.63965591" id="Fill-11"></path>
            <path d="M20.5895054,9.97341935 C20.5895054,9.69582796 20.6738065,9.47363441 20.8406022,9.30683871 C21.0086022,9.13944086 21.2109247,9.05513978 21.4499785,9.05513978 C21.68,9.05513978 21.8787097,9.13944086 22.0455054,9.30683871 C22.2135054,9.47363441 22.2966022,9.69582796 22.2966022,9.97341935 C22.2966022,10.2317419 22.2135054,10.4449032 22.0455054,10.6123011 C21.8787097,10.7784946 21.68,10.8627957 21.4499785,10.8627957 C21.2109247,10.8627957 21.0086022,10.7784946 20.8406022,10.6123011 C20.6738065,10.4449032 20.5895054,10.2317419 20.5895054,9.97341935" id="Fill-12"></path>
            <path d="M27.8767312,8.63965591 C28.2109247,8.99311828 28.6059355,9.27793548 29.0605591,9.49290323 C29.5145806,9.70787097 29.9854624,9.81565591 30.4726022,9.81565591 C31.0946237,9.81565591 31.5775484,9.67415054 31.9219785,9.39234409 C32.2664086,9.11113978 32.4380215,8.74021505 32.4380215,8.28137634 C32.4380215,8.04172043 32.3976774,7.83819355 32.3163871,7.67139785 C32.2350968,7.504 32.1249032,7.36068817 31.9864086,7.24086022 C31.847914,7.12103226 31.6823226,7.01384946 31.492043,6.91750538 C31.299957,6.82296774 31.0946237,6.7224086 30.8748387,6.61703226 L29.5266237,6.02933333 C29.3062366,5.93298925 29.0816344,5.81858065 28.8522151,5.68430108 C28.6227957,5.55062366 28.4162581,5.38804301 28.2356129,5.19716129 C28.0537634,5.00567742 27.9056344,4.77806452 27.7906237,4.51492473 C27.6756129,4.25178495 27.6184086,3.94830108 27.6184086,3.60447312 C27.6184086,3.25101075 27.6924731,2.92043011 27.8412043,2.61513978 C27.9887312,2.30924731 28.1940645,2.04369892 28.4578065,1.81789247 C28.7203441,1.59389247 29.0316559,1.41926882 29.3899355,1.29522581 C29.7488172,1.1711828 30.1432258,1.10855914 30.5731613,1.10855914 C31.1379785,1.10855914 31.6588387,1.21574194 32.1369462,1.43131183 C32.6150538,1.64627957 33.0221075,1.92627957 33.3563011,2.27010753 L32.7107957,3.04507527 C32.424172,2.76808602 32.1056344,2.55010753 31.7569892,2.39234409 C31.4077419,2.23458065 31.0133333,2.15569892 30.5731613,2.15569892 C30.0468817,2.15569892 29.624172,2.27793548 29.3044301,2.5212043 C28.9834839,2.76567742 28.8233118,3.10227957 28.8233118,3.53221505 C28.8233118,3.76223656 28.8684731,3.95552688 28.96,4.11389247 C29.0503226,4.27165591 29.1725591,4.41015054 29.3255054,4.52937634 C29.4784516,4.64980645 29.6458495,4.75458065 29.8270968,4.84550538 C30.0089462,4.93643011 30.1956129,5.02012903 30.3870968,5.09660215 L31.7208602,5.66984946 C31.9888172,5.78486022 32.2423226,5.91673118 32.4807742,6.06425806 C32.7204301,6.21298925 32.9263656,6.3852043 33.0979785,6.58090323 C33.2701935,6.7772043 33.4062796,7.00662366 33.5062366,7.26916129 C33.6067957,7.53290323 33.6573763,7.8363871 33.6573763,8.1808172 C33.6573763,8.55354839 33.5833118,8.9027957 33.4351828,9.22735484 C33.2870538,9.55251613 33.0744946,9.83733333 32.7969032,10.0806022 C32.5193118,10.3244731 32.1845161,10.5165591 31.7925161,10.6550538 C31.4005161,10.7929462 30.956129,10.8627957 30.4587527,10.8627957 C29.7987957,10.8627957 29.1870108,10.7381505 28.6227957,10.4900645 C28.0585806,10.2413763 27.5708387,9.90176344 27.1589677,9.47122581 L27.8767312,8.63965591" id="Fill-13"></path>
            <path d="M35.7516559,3.71948387 L36.7271398,3.71948387 L36.8276989,4.72387097 L36.8704516,4.72387097 C37.1763441,4.38907527 37.5087312,4.10907527 37.8676129,3.88387097 C38.2258925,3.65987097 38.6154839,3.54666667 39.0369892,3.54666667 C39.5723011,3.54666667 39.9907957,3.66408602 40.2912688,3.89832258 C40.5929462,4.13316129 40.8151398,4.46073118 40.9584516,4.88043011 C41.3221505,4.47939785 41.6876559,4.15664516 42.0567742,3.91277419 C42.424086,3.66950538 42.8233118,3.54666667 43.2538495,3.54666667 C43.9704086,3.54666667 44.503914,3.77608602 44.8531613,4.23552688 C45.2024086,4.69496774 45.3764301,5.37419355 45.3764301,6.27260215 L45.3764301,10.6905806 L44.2004301,10.6905806 L44.2004301,6.43036559 C44.2004301,5.7704086 44.0950538,5.29470968 43.8849032,5.00266667 C43.6741505,4.71182796 43.3489892,4.56550538 42.9100215,4.56550538 C42.3837419,4.56550538 41.8002581,4.9243871 41.1589677,5.64094624 L41.1589677,10.6905806 L39.9829677,10.6905806 L39.9829677,6.43036559 C39.9829677,5.7704086 39.8775914,5.29470968 39.668043,5.00266667 C39.4566882,4.71182796 39.1273118,4.56550538 38.6775054,4.56550538 C38.1512258,4.56550538 37.5689462,4.9243871 36.9282581,5.64094624 L36.9282581,10.6905806 L35.7516559,10.6905806 L35.7516559,3.71948387" id="Fill-14"></path>
            <path d="M48.5329032,8.79741935 C48.5329032,9.19845161 48.6503226,9.48627957 48.8845591,9.65849462 C49.1181935,9.82950538 49.4084301,9.91621505 49.7516559,9.91621505 C50.0864516,9.91621505 50.4049892,9.83733333 50.7060645,9.67956989 C51.0071398,9.5212043 51.3250753,9.28997849 51.6604731,8.98348387 L51.6604731,7.04696774 C51.0763871,7.12404301 50.5844301,7.21496774 50.1827957,7.31974194 C49.7805591,7.42511828 49.4578065,7.54976344 49.2139355,7.69247312 C48.9700645,7.8363871 48.7954409,8.00077419 48.6906667,8.18804301 C48.5846882,8.37410753 48.5329032,8.57763441 48.5329032,8.79741935 Z M47.3713548,8.88352688 C47.3713548,8.11819355 47.712172,7.53290323 48.3968172,7.12645161 C49.0802581,6.72 50.1683441,6.4351828 51.6604731,6.27260215 C51.6604731,6.0528172 51.6387957,5.83784946 51.5948387,5.62709677 C51.552086,5.41694624 51.4750108,5.23027957 51.3660215,5.06769892 C51.255828,4.90511828 51.1095054,4.77384946 50.9288602,4.67329032 C50.7464086,4.57273118 50.512172,4.52275269 50.2255484,4.52275269 C49.8142796,4.52275269 49.4343226,4.59982796 49.0850753,4.75217204 C48.7352258,4.90511828 48.4227097,5.07733333 48.1457204,5.2688172 L47.671828,4.45049462 C47.9969892,4.24034409 48.3944086,4.03741935 48.8628817,3.84111828 C49.3313548,3.64602151 49.8473978,3.54666667 50.4122151,3.54666667 C51.2636559,3.54666667 51.8796559,3.808 52.2626237,4.32886022 C52.6449892,4.85032258 52.8364731,5.54580645 52.8364731,6.41591398 L52.8364731,10.6905806 L51.8603871,10.6905806 L51.7604301,9.8584086 L51.7315269,9.8584086 C51.3967312,10.1366022 51.036043,10.3726452 50.6488602,10.5689462 C50.2616774,10.7646452 49.8522151,10.8627957 49.4222796,10.8627957 C48.8291613,10.8627957 48.3390108,10.6905806 47.951828,10.3461505 C47.5646452,10.0017204 47.3713548,9.51458065 47.3713548,8.88352688 Z" id="Fill-15"></path>
            <path d="M55.4172903,0.477505376 L56.5938925,0.477505376 L56.5938925,9.37066667 C56.5938925,9.56275269 56.6276129,9.69582796 56.6938495,9.77230108 C56.7612903,9.84877419 56.8377634,9.88731183 56.923871,9.88731183 C56.9624086,9.88731183 56.9979355,9.88731183 57.0310538,9.88731183 C57.0647742,9.88731183 57.1147527,9.87767742 57.1821935,9.8584086 L57.339957,10.7477849 C57.2634839,10.7863226 57.171957,10.8152258 57.0671828,10.8344946 C56.9624086,10.8525591 56.828129,10.8627957 56.6649462,10.8627957 C56.2157419,10.8627957 55.8953978,10.7285161 55.7051183,10.4611613 C55.5130323,10.1938065 55.4172903,9.8012043 55.4172903,9.28516129 L55.4172903,0.477505376" id="Fill-16"></path>
            <path d="M59.4336344,0.477505376 L60.6102366,0.477505376 L60.6102366,9.37066667 C60.6102366,9.56275269 60.643957,9.69582796 60.7101935,9.77230108 C60.7770323,9.84877419 60.8535054,9.88731183 60.9402151,9.88731183 C60.9781505,9.88731183 61.0142796,9.88731183 61.0473978,9.88731183 C61.0811183,9.88731183 61.1310968,9.87767742 61.1985376,9.8584086 L61.3563011,10.7477849 C61.2792258,10.7863226 61.1883011,10.8152258 61.0835269,10.8344946 C60.9781505,10.8525591 60.8444731,10.8627957 60.6812903,10.8627957 C60.232086,10.8627957 59.9123441,10.7285161 59.7214624,10.4611613 C59.5293763,10.1938065 59.4336344,9.8012043 59.4336344,9.28516129 L59.4336344,0.477505376" id="Fill-17"></path>
            <path d="M69.6473118,9.744 C70.4602151,9.744 71.0906667,9.59346237 71.5404731,9.2923871 C71.9902796,8.99131183 72.2148817,8.51982796 72.2148817,7.87913978 C72.2148817,7.29625806 71.9944946,6.86752688 71.5549247,6.59475269 C71.1141505,6.3231828 70.4794839,6.18649462 69.6473118,6.18649462 L68.0112688,6.18649462 L68.0112688,9.744 L69.6473118,9.744 Z M69.4034409,5.29711828 C70.2157419,5.29711828 70.7968172,5.15862366 71.1454624,4.88043011 C71.4947097,4.60344086 71.6693333,4.20180645 71.6693333,3.67612903 C71.6693333,3.16008602 71.4856774,2.78916129 71.1171613,2.56455914 C70.7486452,2.34055914 70.1970753,2.22735484 69.460043,2.22735484 L68.0112688,2.22735484 L68.0112688,5.29711828 L69.4034409,5.29711828 Z M66.8214194,1.28077419 L69.6184086,1.28077419 C70.0965161,1.28077419 70.5342796,1.32412903 70.9310968,1.40963441 C71.3273118,1.49574194 71.6669247,1.63002151 71.9493333,1.81187097 C72.2311398,1.99311828 72.4509247,2.22976344 72.6092903,2.5212043 C72.7670538,2.81384946 72.8453333,3.16490323 72.8453333,3.57556989 C72.8453333,4.04464516 72.7122581,4.46795699 72.4436989,4.84550538 C72.1763441,5.22305376 71.7650753,5.48378495 71.2110968,5.62709677 L71.2110968,5.68430108 C71.8993548,5.78967742 72.4352688,6.02933333 72.8170323,6.40146237 C73.1993978,6.7747957 73.3914839,7.28602151 73.3914839,7.93694624 C73.3914839,8.3951828 73.3047742,8.79741935 73.1325591,9.14184946 C72.9603441,9.48627957 72.7170753,9.77230108 72.4009462,10.0017204 C72.0854194,10.2317419 71.707871,10.4033548 71.2676989,10.5183656 C70.828129,10.6333763 70.3446022,10.6905806 69.8195269,10.6905806 L66.8214194,10.6905806 L66.8214194,1.28077419 Z" id="Fill-18"></path>
            <path d="M75.1124301,3.71948387 L76.3034839,3.71948387 L76.3034839,7.97969892 C76.3034839,8.63965591 76.4058495,9.11535484 76.6111828,9.4067957 C76.8171183,9.69883871 77.1489032,9.84455914 77.6089462,9.84455914 C77.972043,9.84455914 78.2917849,9.75122581 78.5693763,9.56455914 C78.8469677,9.37789247 79.1528602,9.07922581 79.4876559,8.66795699 L79.4876559,3.71948387 L80.6636559,3.71948387 L80.6636559,10.6905806 L79.6887742,10.6905806 L79.5882151,9.60068817 L79.5448602,9.60068817 C79.2196989,9.98305376 78.8776774,10.2895484 78.5193978,10.5183656 C78.1611183,10.7477849 77.7378065,10.8627957 77.2494624,10.8627957 C76.504,10.8627957 75.9608602,10.6333763 75.6218495,10.1739355 C75.2816344,9.71509677 75.1124301,9.03647312 75.1124301,8.13806452 L75.1124301,3.71948387" id="Fill-19"></path>
            <path d="M83.1884731,9.11294624 C83.4943656,9.36163441 83.8074839,9.56275269 84.1284301,9.71509677 C84.448172,9.86864516 84.8184946,9.94451613 85.2393978,9.94451613 C85.6988387,9.94451613 86.0426667,9.83974194 86.272086,9.6295914 C86.5021075,9.41883871 86.6171183,9.16051613 86.6171183,8.85462366 C86.6171183,8.67277419 86.5689462,8.51501075 86.4732043,8.38133333 C86.3774624,8.24705376 86.255828,8.13023656 86.1076989,8.02967742 C85.9589677,7.92972043 85.7897634,7.84060215 85.5982796,7.76412903 C85.4067957,7.68765591 85.2153118,7.6111828 85.0244301,7.53531183 C84.7757419,7.4492043 84.5270538,7.35105376 84.2789677,7.24086022 C84.0296774,7.13126882 83.8074839,6.99698925 83.6111828,6.83922581 C83.4148817,6.68146237 83.255914,6.49780645 83.1312688,6.28645161 C83.0060215,6.07690323 82.9446022,5.82339785 82.9446022,5.52713978 C82.9446022,5.24954839 82.9993978,4.9888172 83.1089892,4.74494624 C83.2191828,4.50047312 83.3775484,4.29092473 83.5828817,4.11389247 C83.7882151,3.93686022 84.0393118,3.79836559 84.336172,3.69780645 C84.6330323,3.59724731 84.9672258,3.54666667 85.3393548,3.54666667 C85.780129,3.54666667 86.1835699,3.62313978 86.552086,3.77608602 C86.92,3.92963441 87.2379355,4.11630108 87.5058925,4.33608602 L86.9464946,5.08154839 C86.7074409,4.90030108 86.4593548,4.75217204 86.2004301,4.63716129 C85.9427097,4.52275269 85.6609032,4.46494624 85.3544086,4.46494624 C84.9142366,4.46494624 84.592086,4.56550538 84.3861505,4.76662366 C84.1808172,4.96713978 84.0778495,5.20197849 84.0778495,5.46933333 C84.0778495,5.63131183 84.1206022,5.7728172 84.2073118,5.89204301 C84.2928172,6.01187097 84.407828,6.11724731 84.5517419,6.20756989 C84.6944516,6.29909677 84.860043,6.3803871 85.0455054,6.45204301 C85.2327742,6.52369892 85.4260645,6.59776344 85.6271828,6.67423656 C85.8752688,6.76997849 86.1263656,6.87053763 86.379871,6.97531183 C86.6333763,7.08068817 86.8603871,7.21195699 87.0615054,7.36972043 C87.2626237,7.52748387 87.4270108,7.72137634 87.5564731,7.9507957 C87.6859355,8.1808172 87.7497634,8.45780645 87.7497634,8.78296774 C87.7497634,9.06898925 87.6955699,9.33754839 87.5853763,9.58623656 C87.4745806,9.83492473 87.3126022,10.0547097 87.0970323,10.2461935 C86.8820645,10.4370753 86.6147097,10.5882151 86.2937634,10.6972043 C85.9734194,10.8073978 85.607914,10.8627957 85.1966452,10.8627957 C84.6992688,10.8627957 84.2259785,10.771871 83.7767742,10.5900215 C83.3269677,10.4087742 82.9343656,10.1793548 82.600172,9.90176344 L83.1884731,9.11294624" id="Fill-20"></path>
            <path d="M89.7434839,10.6905806 L90.920086,10.6905806 L90.920086,3.71948387 L89.7434839,3.71948387 L89.7434839,10.6905806 Z M90.3456344,2.28455914 C90.1162151,2.28455914 89.9229247,2.21290323 89.7651613,2.0695914 C89.6067957,1.92627957 89.5285161,1.74443011 89.5285161,1.52404301 C89.5285161,1.29522581 89.6067957,1.11156989 89.7651613,0.972473118 C89.9229247,0.833978495 90.1162151,0.763526882 90.3456344,0.763526882 C90.5756559,0.763526882 90.7689462,0.833978495 90.9267097,0.972473118 C91.0850753,1.11156989 91.1633548,1.29522581 91.1633548,1.52404301 C91.1633548,1.74443011 91.0850753,1.92627957 90.9267097,2.0695914 C90.7689462,2.21290323 90.5756559,2.28455914 90.3456344,2.28455914 Z" id="Fill-21"></path>
            <path d="M93.6309677,3.71948387 L94.6064516,3.71948387 L94.7070108,4.72387097 L94.7497634,4.72387097 C95.0845591,4.38907527 95.4362151,4.10907527 95.804129,3.88387097 C96.1726452,3.65987097 96.6007742,3.54666667 97.087914,3.54666667 C97.8249462,3.54666667 98.3620645,3.77608602 98.7016774,4.23552688 C99.0412903,4.69496774 99.2110968,5.37419355 99.2110968,6.27260215 L99.2110968,10.6905806 L98.0350968,10.6905806 L98.0350968,6.43036559 C98.0350968,5.7704086 97.9297204,5.29470968 97.7189677,5.00266667 C97.5082151,4.71182796 97.1740215,4.56550538 96.7151828,4.56550538 C96.3514839,4.56550538 96.0311398,4.65643011 95.7535484,4.83767742 C95.4765591,5.02012903 95.1610323,5.28808602 94.8075699,5.64094624 L94.8075699,10.6905806 L93.6309677,10.6905806 L93.6309677,3.71948387" id="Fill-22"></path>
            <path d="M106.196645,6.68868817 C106.196645,5.97152688 106.046108,5.42417204 105.745032,5.04662366 C105.443957,4.66847312 105.020645,4.47939785 104.475097,4.47939785 C104.227011,4.47939785 103.990366,4.52937634 103.765161,4.62993548 C103.540559,4.73049462 103.337032,4.8744086 103.155183,5.06047312 C102.973935,5.24653763 102.824,5.47655914 102.704172,5.74933333 C102.584344,6.02150538 102.50486,6.33462366 102.466925,6.68868817 L106.196645,6.68868817 Z M101.319828,7.2191828 C101.319828,6.64533333 101.408344,6.13169892 101.584774,5.67767742 C101.761806,5.22305376 101.996645,4.83767742 102.288086,4.52275269 C102.578925,4.20662366 102.911914,3.96576344 103.284645,3.79836559 C103.657978,3.63096774 104.045161,3.54666667 104.446796,3.54666667 C104.886366,3.54666667 105.281376,3.62313978 105.630022,3.77608602 C105.979269,3.92963441 106.27071,4.14941935 106.505548,4.43664516 C106.739785,4.72387097 106.918022,5.06769892 107.043269,5.46933333 C107.167312,5.87096774 107.229333,6.32017204 107.229333,6.81754839 C107.229333,7.07587097 107.215484,7.29083871 107.187183,7.46305376 L102.481376,7.46305376 C102.529548,8.21875269 102.760774,8.81668817 103.177462,9.25625806 C103.592946,9.69582796 104.135484,9.91621505 104.805677,9.91621505 C105.139871,9.91621505 105.448172,9.86623656 105.730581,9.76567742 C106.012989,9.66511828 106.283355,9.53384946 106.540473,9.37066667 L106.957161,10.1456344 C106.650667,10.3365161 106.312258,10.503914 105.938323,10.6472258 C105.565591,10.7911398 105.139871,10.8627957 104.661763,10.8627957 C104.19329,10.8627957 103.756129,10.7784946 103.349677,10.6123011 C102.942624,10.4449032 102.589161,10.2058495 102.288086,9.89453763 C101.987011,9.58382796 101.749763,9.20387097 101.578151,8.75406452 C101.405935,8.30486022 101.319828,7.79303226 101.319828,7.2191828 Z" id="Fill-23"></path>
            <path d="M109.123097,9.11294624 C109.428387,9.36163441 109.741505,9.56275269 110.061849,9.71509677 C110.382194,9.86864516 110.753118,9.94451613 111.174022,9.94451613 C111.63286,9.94451613 111.976688,9.83974194 112.20671,9.6295914 C112.436129,9.41883871 112.55114,9.16051613 112.55114,8.85462366 C112.55114,8.67277419 112.502968,8.51501075 112.407828,8.38133333 C112.310882,8.24705376 112.189247,8.13023656 112.04172,8.02967742 C111.892989,7.92972043 111.723183,7.84060215 111.532301,7.76412903 C111.340817,7.68765591 111.149935,7.6111828 110.958452,7.53531183 C110.709161,7.4492043 110.461075,7.35105376 110.212387,7.24086022 C109.963699,7.13126882 109.741505,6.99698925 109.545204,6.83922581 C109.349505,6.68146237 109.189333,6.49780645 109.06529,6.28645161 C108.940645,6.07690323 108.878624,5.82339785 108.878624,5.52713978 C108.878624,5.24954839 108.933419,4.9888172 109.043613,4.74494624 C109.153204,4.50047312 109.310968,4.29092473 109.516903,4.11389247 C109.722839,3.93686022 109.973935,3.79836559 110.270194,3.69780645 C110.566452,3.59724731 110.901247,3.54666667 111.273978,3.54666667 C111.713548,3.54666667 112.117591,3.62313978 112.486108,3.77608602 C112.854624,3.92963441 113.171957,4.11630108 113.439914,4.33608602 L112.880516,5.08154839 C112.641462,4.90030108 112.392774,4.75217204 112.135054,4.63716129 C111.876731,4.52275269 111.594925,4.46494624 111.287828,4.46494624 C110.84886,4.46494624 110.526108,4.56550538 110.320172,4.76662366 C110.114839,4.96713978 110.011269,5.20197849 110.011269,5.46933333 C110.011269,5.63131183 110.054624,5.7728172 110.140731,5.89204301 C110.227441,6.01187097 110.341849,6.11724731 110.485161,6.20756989 C110.628473,6.29909677 110.794065,6.3803871 110.980129,6.45204301 C111.166194,6.52369892 111.359484,6.59776344 111.560602,6.67423656 C111.80929,6.76997849 112.060387,6.87053763 112.313892,6.97531183 C112.566796,7.08068817 112.794409,7.21195699 112.995527,7.36972043 C113.196645,7.52748387 113.361634,7.72137634 113.490495,7.9507957 C113.619355,8.1808172 113.684387,8.45780645 113.684387,8.78296774 C113.684387,9.06898925 113.628989,9.33754839 113.518796,9.58623656 C113.408602,9.83492473 113.246022,10.0547097 113.031054,10.2461935 C112.816086,10.4370753 112.548731,10.5882151 112.228387,10.6972043 C111.907441,10.8073978 111.541333,10.8627957 111.131269,10.8627957 C110.63329,10.8627957 110.16,10.771871 109.710796,10.5900215 C109.260387,10.4087742 108.868989,10.1793548 108.534194,9.90176344 L109.123097,9.11294624" id="Fill-24"></path>
            <path d="M115.492043,9.11294624 C115.797935,9.36163441 116.110452,9.56275269 116.431398,9.71509677 C116.751742,9.86864516 117.122065,9.94451613 117.542968,9.94451613 C118.001806,9.94451613 118.345634,9.83974194 118.575656,9.6295914 C118.805677,9.41883871 118.920086,9.16051613 118.920086,8.85462366 C118.920086,8.67277419 118.871914,8.51501075 118.776774,8.38133333 C118.68043,8.24705376 118.558194,8.13023656 118.410667,8.02967742 C118.261935,7.92972043 118.092129,7.84060215 117.901849,7.76412903 C117.709763,7.68765591 117.518882,7.6111828 117.328,7.53531183 C117.078108,7.4492043 116.830022,7.35105376 116.581333,7.24086022 C116.332645,7.13126882 116.110452,6.99698925 115.914753,6.83922581 C115.718452,6.68146237 115.558882,6.49780645 115.434237,6.28645161 C115.309591,6.07690323 115.24757,5.82339785 115.24757,5.52713978 C115.24757,5.24954839 115.302366,4.9888172 115.412559,4.74494624 C115.522151,4.50047312 115.680516,4.29092473 115.885849,4.11389247 C116.091785,3.93686022 116.342882,3.79836559 116.63914,3.69780645 C116.935398,3.59724731 117.270194,3.54666667 117.642925,3.54666667 C118.082495,3.54666667 118.486538,3.62313978 118.855656,3.77608602 C119.22357,3.92963441 119.540903,4.11630108 119.809462,4.33608602 L119.250065,5.08154839 C119.010409,4.90030108 118.76172,4.75217204 118.504,4.63716129 C118.24628,4.52275269 117.963871,4.46494624 117.656774,4.46494624 C117.217806,4.46494624 116.895054,4.56550538 116.689118,4.76662366 C116.483785,4.96713978 116.380817,5.20197849 116.380817,5.46933333 C116.380817,5.63131183 116.424172,5.7728172 116.509677,5.89204301 C116.596387,6.01187097 116.710796,6.11724731 116.854108,6.20756989 C116.997419,6.29909677 117.163011,6.3803871 117.349075,6.45204301 C117.53514,6.52369892 117.729634,6.59776344 117.930151,6.67423656 C118.178839,6.76997849 118.429935,6.87053763 118.683441,6.97531183 C118.936344,7.08068817 119.163355,7.21195699 119.364473,7.36972043 C119.565591,7.52748387 119.730581,7.72137634 119.860043,7.9507957 C119.988301,8.1808172 120.053333,8.45780645 120.053333,8.78296774 C120.053333,9.06898925 119.997935,9.33754839 119.888344,9.58623656 C119.778151,9.83492473 119.61557,10.0547097 119.4,10.2461935 C119.185634,10.4370753 118.917677,10.5882151 118.597333,10.6972043 C118.276989,10.8073978 117.91028,10.8627957 117.500215,10.8627957 C117.002839,10.8627957 116.528946,10.771871 116.079742,10.5900215 C115.629935,10.4087742 115.237935,10.1793548 114.90314,9.90176344 L115.492043,9.11294624" id="Fill-25"></path>
            <path d="M6.20292473,22.9985376 L5.75793548,21.5642151 C5.58572043,21.0379355 5.42374194,20.5146667 5.2707957,19.9932043 C5.11664516,19.4723441 4.96369892,18.9388387 4.81075269,18.3938925 L4.75354839,18.3938925 C4.61083871,18.9388387 4.46210753,19.4723441 4.30916129,19.9932043 C4.15621505,20.5146667 3.99423656,21.0379355 3.82202151,21.5642151 L3.37643011,22.9985376 L6.20292473,22.9985376 Z M6.504,23.9595699 L3.07535484,23.9595699 L2.17152688,26.8288172 L0.952774194,26.8288172 L4.13694624,17.4190108 L5.48516129,17.4190108 L8.66993548,26.8288172 L7.39337634,26.8288172 L6.504,23.9595699 Z" id="Fill-26"></path>
            <path d="M10.9647312,23.3423656 C10.9647312,24.184172 11.132129,24.839914 11.4675269,25.3077849 C11.8017204,25.7762581 12.2750108,26.0104946 12.8867957,26.0104946 C13.211957,26.0104946 13.5184516,25.9322151 13.8050753,25.7744516 C14.0923011,25.616086 14.3789247,25.3752258 14.6655484,25.0500645 L14.6655484,21.4064516 C14.3692903,21.1384946 14.0850753,20.9494194 13.8123011,20.8392258 C13.5395269,20.7296344 13.260129,20.6748387 12.9729032,20.6748387 C12.695914,20.6748387 12.4351828,20.7386667 12.1913118,20.868129 C11.9474409,20.9975914 11.7342796,21.1794409 11.5524301,21.4130753 C11.3711828,21.647914 11.2272688,21.927914 11.1230968,22.2530753 C11.0171183,22.5782366 10.9647312,22.9413333 10.9647312,23.3423656 Z M9.74537634,23.3574194 C9.74537634,22.7926022 9.82907527,22.2843871 9.99647312,21.8297634 C10.163871,21.3751398 10.3860645,20.9897634 10.6642581,20.6748387 C10.9412473,20.3587097 11.2609892,20.1154409 11.6246882,19.9432258 C11.9877849,19.7710108 12.3707527,19.6843011 12.7723871,19.6843011 C13.1740215,19.6843011 13.5226667,19.755957 13.8195269,19.9004731 C14.1157849,20.0437849 14.4168602,20.2394839 14.7233548,20.488172 L14.6655484,19.2977204 L14.6655484,16.6157419 L15.8566022,16.6157419 L15.8566022,26.8288172 L14.8811183,26.8288172 L14.7811613,26.0104946 L14.7372043,26.0104946 C14.4602151,26.2784516 14.1422796,26.5108817 13.784,26.7065806 C13.4251183,26.9022796 13.0397419,27.0010323 12.6290753,27.0010323 C11.7493333,27.0010323 11.0484301,26.6849032 10.5269677,26.0538495 C10.0061075,25.4227957 9.74537634,24.5237849 9.74537634,23.3574194 Z" id="Fill-27"></path>
            <path d="M18.2802581,19.8565161 L19.2557419,19.8565161 L19.3563011,20.8609032 L19.3996559,20.8609032 C19.7049462,20.5267097 20.0373333,20.2473118 20.3962151,20.0221075 C20.7550968,19.7981075 21.144086,19.6843011 21.5655914,19.6843011 C22.1003011,19.6843011 22.5193978,19.8023226 22.819871,20.035957 C23.1215484,20.2707957 23.3437419,20.5989677 23.4876559,21.0186667 C23.8507527,20.6170323 24.2168602,20.2948817 24.5847742,20.0504086 C24.9526882,19.8065376 25.351914,19.6843011 25.7824516,19.6843011 C26.4996129,19.6843011 27.0325161,19.9143226 27.3823656,20.3731613 C27.7316129,20.8332043 27.9056344,21.511828 27.9056344,22.4102366 L27.9056344,26.8288172 L26.7296344,26.8288172 L26.7296344,22.568 C26.7296344,21.9086452 26.6242581,21.4329462 26.4135054,21.1409032 C26.2033548,20.8494624 25.8775914,20.7037419 25.4386237,20.7037419 C24.9123441,20.7037419 24.3288602,21.0614194 23.688172,21.7791828 L23.688172,26.8288172 L22.512172,26.8288172 L22.512172,22.568 C22.512172,21.9086452 22.4067957,21.4329462 22.1966452,21.1409032 C21.9858925,20.8494624 21.6565161,20.7037419 21.2067097,20.7037419 C20.6804301,20.7037419 20.0975484,21.0614194 19.4568602,21.7791828 L19.4568602,26.8288172 L18.2802581,26.8288172 L18.2802581,19.8565161" id="Fill-28"></path>
            <path d="M30.5304086,26.8282151 L31.7070108,26.8282151 L31.7070108,19.8565161 L30.5304086,19.8565161 L30.5304086,26.8282151 Z M31.1325591,18.4227957 C30.9037419,18.4227957 30.7104516,18.3505376 30.552086,18.207828 C30.3937204,18.0645161 30.316043,17.8826667 30.316043,17.6622796 C30.316043,17.4328602 30.3937204,17.2486022 30.552086,17.1107097 C30.7104516,16.9716129 30.9037419,16.9017634 31.1325591,16.9017634 C31.3625806,16.9017634 31.555871,16.9716129 31.7142366,17.1107097 C31.872,17.2486022 31.9502796,17.4328602 31.9502796,17.6622796 C31.9502796,17.8826667 31.872,18.0645161 31.7142366,18.207828 C31.555871,18.3505376 31.3625806,18.4227957 31.1325591,18.4227957 Z" id="Fill-29"></path>
            <path d="M34.4172903,19.8565161 L35.3927742,19.8565161 L35.4933333,20.8609032 L35.5366882,20.8609032 C35.8714839,20.5267097 36.2225376,20.2473118 36.5910538,20.0221075 C36.9589677,19.7981075 37.3870968,19.6843011 37.8742366,19.6843011 C38.6112688,19.6843011 39.1489892,19.9143226 39.488,20.3731613 C39.8276129,20.8332043 39.9974194,21.511828 39.9974194,22.4102366 L39.9974194,26.8288172 L38.8220215,26.8288172 L38.8220215,22.568 C38.8220215,21.9086452 38.716043,21.4329462 38.5052903,21.1409032 C38.2957419,20.8494624 37.9609462,20.7037419 37.5015054,20.7037419 C37.1378065,20.7037419 36.8174624,20.7946667 36.5404731,20.975914 C36.2634839,21.1583656 35.9473548,21.4257204 35.5938925,21.7791828 L35.5938925,26.8288172 L34.4172903,26.8288172 L34.4172903,19.8565161" id="Fill-30"></path>
            <path d="M42.6221935,26.8282151 L43.7987957,26.8282151 L43.7987957,19.8565161 L42.6221935,19.8565161 L42.6221935,26.8282151 Z M43.2249462,18.4227957 C42.9955269,18.4227957 42.8022366,18.3505376 42.6444731,18.207828 C42.4867097,18.0645161 42.407828,17.8826667 42.407828,17.6622796 C42.407828,17.4328602 42.4867097,17.2486022 42.6444731,17.1107097 C42.8022366,16.9716129 42.9955269,16.9017634 43.2249462,16.9017634 C43.4543656,16.9017634 43.6482581,16.9716129 43.8060215,17.1107097 C43.9643871,17.2486022 44.0420645,17.4328602 44.0420645,17.6622796 C44.0420645,17.8826667 43.9643871,18.0645161 43.8060215,18.207828 C43.6482581,18.3505376 43.4543656,18.4227957 43.2249462,18.4227957 Z" id="Fill-31"></path>
            <path d="M46.3236129,25.2499785 C46.6295054,25.499871 46.9420215,25.7009892 47.2629677,25.8527312 C47.5833118,26.0062796 47.9536344,26.0821505 48.3751398,26.0821505 C48.8339785,26.0821505 49.1778065,25.9773763 49.407828,25.7672258 C49.6372473,25.5570753 49.7516559,25.2987527 49.7516559,24.9928602 C49.7516559,24.8110108 49.704086,24.6526452 49.6083441,24.5189677 C49.512,24.3852903 49.3903656,24.267871 49.2422366,24.1673118 C49.0941075,24.067957 48.9243011,23.9788387 48.7334194,23.9017634 C48.5413333,23.8258925 48.3504516,23.7488172 48.1589677,23.6729462 C47.9102796,23.5868387 47.6615914,23.4892903 47.4135054,23.3790968 C47.1642151,23.2689032 46.9420215,23.1352258 46.7463226,22.9768602 C46.5506237,22.8190968 46.3904516,22.6354409 46.2664086,22.4246882 C46.1411613,22.2145376 46.0791398,21.9616344 46.0791398,21.6647742 C46.0791398,21.3865806 46.1345376,21.1270538 46.2447312,20.8831828 C46.3537204,20.6381075 46.512086,20.4291613 46.7174194,20.2515269 C46.923957,20.0750968 47.1744516,19.936 47.4713118,19.8354409 C47.7675699,19.7348817 48.1023656,19.6843011 48.4750968,19.6843011 C48.9146667,19.6843011 49.3187097,19.7613763 49.6872258,19.9143226 C50.0551398,20.0672688 50.3730753,20.2545376 50.6404301,20.4737204 L50.0816344,21.2197849 C49.8419785,21.0379355 49.5938925,20.8898065 49.3355699,20.7753978 C49.0778495,20.6603871 48.7954409,20.6031828 48.4889462,20.6031828 C48.0499785,20.6031828 47.7272258,20.7037419 47.5206882,20.9048602 C47.3153548,21.1047742 47.2123871,21.3396129 47.2123871,21.6075699 C47.2123871,21.7695484 47.2551398,21.9110538 47.3418495,22.0302796 C47.427957,22.1501075 47.5429677,22.2554839 47.6862796,22.3458065 C47.8295914,22.4373333 47.9945806,22.5180215 48.1812473,22.5896774 C48.3673118,22.6619355 48.5606022,22.7353978 48.7617204,22.8124731 C49.0098065,22.9076129 49.2609032,23.008172 49.5144086,23.1135484 C49.767914,23.2183226 49.9949247,23.3501935 50.196043,23.5073548 C50.3971613,23.6657204 50.5621505,23.8590108 50.6910108,24.0890323 C50.8204731,24.3184516 50.8849032,24.596043 50.8849032,24.9212043 C50.8849032,25.2072258 50.8301075,25.4751828 50.719914,25.7244731 C50.6097204,25.9731613 50.4471398,26.1923441 50.232172,26.383828 C50.0172043,26.5753118 49.7492473,26.7264516 49.4295054,26.8354409 C49.1085591,26.9450323 48.7424516,27.0010323 48.3317849,27.0010323 C47.8338065,27.0010323 47.3611183,26.9095054 46.9113118,26.7282581 C46.4615054,26.5464086 46.0695054,26.3175914 45.7347097,26.0393978 L46.3236129,25.2499785" id="Fill-32"></path>
            <path d="M53.0797419,20.8181505 L52.0470538,20.8181505 L52.0470538,19.9287742 L53.1369462,19.8565161 L53.2808602,17.9061505 L54.2701935,17.9061505 L54.2701935,19.8565161 L56.1495054,19.8565161 L56.1495054,20.8181505 L54.2701935,20.8181505 L54.2701935,24.6911828 C54.2701935,25.1217204 54.3496774,25.4535054 54.5062366,25.6877419 C54.6646022,25.9231828 54.9446022,26.0393978 55.3462366,26.0393978 C55.4702796,26.0393978 55.6045591,26.0207312 55.747871,25.9815914 C55.8911828,25.9442581 56.0206452,25.9009032 56.1350538,25.8527312 L56.3644731,26.7421075 C56.1735914,26.8089462 55.9646452,26.8691613 55.7406452,26.9215484 C55.516043,26.9739355 55.2932473,27.0010323 55.0734624,27.0010323 C54.7013333,27.0010323 54.3876129,26.9432258 54.1341075,26.8288172 C53.8806022,26.7138065 53.6752688,26.5554409 53.5175054,26.3549247 C53.3591398,26.1538065 53.2471398,25.9099355 53.1803011,25.623914 C53.1128602,25.3366882 53.0797419,25.0217634 53.0797419,24.6767312 L53.0797419,20.8181505" id="Fill-33"></path>
            <path d="M58.0854194,19.8565161 L59.0615054,19.8565161 L59.1620645,21.1192258 L59.2048172,21.1192258 C59.4432688,20.6802581 59.7329032,20.3304086 60.0725161,20.0726882 C60.412129,19.8137634 60.7818495,19.6843011 61.184086,19.6843011 C61.4610753,19.6843011 61.7097634,19.7324731 61.9307527,19.8288172 L61.7007312,20.8609032 C61.5857204,20.8235699 61.4797419,20.7946667 61.3852043,20.7753978 C61.2888602,20.756129 61.1702366,20.7464946 61.0263226,20.7464946 C60.7294624,20.7464946 60.4217634,20.8663226 60.1008172,21.1047742 C59.7804731,21.343828 59.5004731,21.7605161 59.2620215,22.3530323 L59.2620215,26.8288172 L58.0854194,26.8288172 L58.0854194,19.8565161" id="Fill-34"></path>
            <path d="M63.8811183,24.9350538 C63.8811183,25.3366882 63.9985376,25.623914 64.2327742,25.796129 C64.4664086,25.9677419 64.756043,26.0538495 65.099871,26.0538495 C65.4346667,26.0538495 65.7532043,25.9755699 66.0536774,25.8172043 C66.3553548,25.6594409 66.6726882,25.4276129 67.008086,25.1217204 L67.008086,23.1852043 C66.4246022,23.2616774 65.932043,23.3526022 65.5310108,23.4573763 C65.1287742,23.5633548 64.8060215,23.6873978 64.5627527,23.8301075 C64.3182796,23.9734194 64.1436559,24.1390108 64.0388817,24.3250753 C63.9335054,24.5117419 63.8811183,24.715871 63.8811183,24.9350538 Z M62.7189677,25.0217634 C62.7189677,24.255828 63.0603871,23.6699355 63.7450323,23.264086 C64.4284731,22.8576344 65.5165591,22.5728172 67.008086,22.4102366 C67.008086,22.1904516 66.9864086,21.9754839 66.9436559,21.7647312 C66.9003011,21.5551828 66.8232258,21.367914 66.7136344,21.2053333 C66.6034409,21.0427527 66.4577204,20.9108817 66.2764731,20.8103226 C66.0946237,20.7103656 65.8603871,20.6603871 65.5737634,20.6603871 C65.1624946,20.6603871 64.7825376,20.7368602 64.4332903,20.8898065 C64.084043,21.0427527 63.7709247,21.2149677 63.4939355,21.4064516 L63.020043,20.5887312 C63.3452043,20.3785806 63.7420215,20.1756559 64.2110968,19.9787527 C64.6795699,19.7830538 65.1956129,19.6843011 65.759828,19.6843011 C66.6112688,19.6843011 67.227871,19.9456344 67.6108387,20.4670968 C67.9926022,20.987957 68.184086,21.684043 68.184086,22.5535484 L68.184086,26.8288172 L67.2086022,26.8288172 L67.108043,25.9966452 L67.0791398,25.9966452 C66.7449462,26.2742366 66.3842581,26.5108817 65.9970753,26.7065806 C65.6092903,26.9022796 65.2004301,27.0010323 64.7704946,27.0010323 C64.1773763,27.0010323 63.6872258,26.8288172 63.300043,26.4837849 C62.9122581,26.139957 62.7189677,25.6522151 62.7189677,25.0217634 Z" id="Fill-35"></path>
            <path d="M70.9666237,20.8181505 L69.9345376,20.8181505 L69.9345376,19.9287742 L71.023828,19.8565161 L71.1677419,17.9061505 L72.1570753,17.9061505 L72.1570753,19.8565161 L74.0369892,19.8565161 L74.0369892,20.8181505 L72.1570753,20.8181505 L72.1570753,24.6911828 C72.1570753,25.1217204 72.2365591,25.4535054 72.3931183,25.6877419 C72.5514839,25.9231828 72.8314839,26.0393978 73.2331183,26.0393978 C73.3577634,26.0393978 73.4914409,26.0207312 73.6347527,25.9815914 C73.7780645,25.9442581 73.9075269,25.9009032 74.0225376,25.8527312 L74.2513548,26.7421075 C74.0604731,26.8089462 73.8515269,26.8691613 73.6275269,26.9215484 C73.4029247,26.9739355 73.180129,27.0010323 72.9603441,27.0010323 C72.5882151,27.0010323 72.2744946,26.9432258 72.0209892,26.8288172 C71.7674839,26.7138065 71.5621505,26.5554409 71.4043871,26.3549247 C71.2460215,26.1538065 71.1340215,25.9099355 71.0671828,25.623914 C70.9997419,25.3366882 70.9666237,25.0217634 70.9666237,24.6767312 L70.9666237,20.8181505" id="Fill-36"></path>
            <path d="M75.9729032,26.8282151 L77.1501075,26.8282151 L77.1501075,19.8565161 L75.9729032,19.8565161 L75.9729032,26.8282151 Z M76.5756559,18.4227957 C76.3462366,18.4227957 76.1529462,18.3505376 75.9951828,18.207828 C75.8368172,18.0645161 75.7579355,17.8826667 75.7579355,17.6622796 C75.7579355,17.4328602 75.8368172,17.2486022 75.9951828,17.1107097 C76.1529462,16.9716129 76.3462366,16.9017634 76.5756559,16.9017634 C76.8056774,16.9017634 76.9989677,16.9716129 77.1567312,17.1107097 C77.3144946,17.2486022 77.3933763,17.4328602 77.3933763,17.6622796 C77.3933763,17.8826667 77.3144946,18.0645161 77.1567312,18.207828 C76.9989677,18.3505376 76.8056774,18.4227957 76.5756559,18.4227957 Z" id="Fill-37"></path>
            <path d="M80.5630968,23.3574194 C80.5630968,23.7584516 80.6112688,24.1221505 80.7064086,24.4467097 C80.8021505,24.7724731 80.9382366,25.0524731 81.115871,25.2867097 C81.2923011,25.5209462 81.5048602,25.7021935 81.7541505,25.8316559 C82.0028387,25.9605161 82.2750108,26.0255484 82.5712688,26.0255484 C82.8675269,26.0255484 83.1403011,25.9605161 83.3889892,25.8316559 C83.6370753,25.7021935 83.8502366,25.5209462 84.027871,25.2867097 C84.2043011,25.0524731 84.3403871,24.7724731 84.436129,24.4467097 C84.5324731,24.1221505 84.5794409,23.7584516 84.5794409,23.3574194 C84.5794409,22.9557849 84.5324731,22.5896774 84.436129,22.2596989 C84.3403871,21.9303226 84.2043011,21.6455054 84.027871,21.4064516 C83.8502366,21.1673978 83.6370753,20.9831398 83.3889892,20.8542796 C83.1403011,20.7248172 82.8675269,20.6603871 82.5712688,20.6603871 C82.2750108,20.6603871 82.0028387,20.7248172 81.7541505,20.8542796 C81.5048602,20.9831398 81.2923011,21.1673978 81.115871,21.4064516 C80.9382366,21.6455054 80.8021505,21.9303226 80.7064086,22.2596989 C80.6112688,22.5896774 80.5630968,22.9557849 80.5630968,23.3574194 Z M79.3437419,23.3574194 C79.3437419,22.7739355 79.4328602,22.2554839 79.6092903,21.8008602 C79.7863226,21.3462366 80.0229677,20.9614624 80.319828,20.6459355 C80.6154839,20.3304086 80.9575054,20.091957 81.3452903,19.9287742 C81.731871,19.7661935 82.1413333,19.6843011 82.5712688,19.6843011 C83.0024086,19.6843011 83.4106667,19.7661935 83.7978495,19.9287742 C84.1856344,20.091957 84.5270538,20.3304086 84.8233118,20.6459355 C85.120172,20.9614624 85.3568172,21.3462366 85.5338495,21.8008602 C85.7108817,22.2554839 85.7993978,22.7739355 85.7993978,23.3574194 C85.7993978,23.9306667 85.7108817,24.4455054 85.5338495,24.8989247 C85.3568172,25.3529462 85.120172,25.735914 84.8233118,26.0472258 C84.5270538,26.3579355 84.1856344,26.5945806 83.7978495,26.7565591 C83.4106667,26.9191398 83.0024086,27.0010323 82.5712688,27.0010323 C82.1413333,27.0010323 81.731871,26.9191398 81.3452903,26.7565591 C80.9575054,26.5945806 80.6154839,26.3579355 80.319828,26.0472258 C80.0229677,25.735914 79.7863226,25.3529462 79.6092903,24.8989247 C79.4328602,24.4455054 79.3437419,23.9306667 79.3437419,23.3574194 Z" id="Fill-38"></path>
            <path d="M87.7064086,19.8565161 L88.6818925,19.8565161 L88.7824516,20.8609032 L88.8258065,20.8609032 C89.16,20.5267097 89.5116559,20.2473118 89.880172,20.0221075 C90.2474839,19.7981075 90.6762151,19.6843011 91.1633548,19.6843011 C91.8997849,19.6843011 92.4375054,19.9143226 92.7771183,20.3731613 C93.1167312,20.8332043 93.2865376,21.511828 93.2865376,22.4102366 L93.2865376,26.8288172 L92.1105376,26.8288172 L92.1105376,22.568 C92.1105376,21.9086452 92.0051613,21.4329462 91.7944086,21.1409032 C91.5842581,20.8494624 91.2494624,20.7037419 90.7906237,20.7037419 C90.4269247,20.7037419 90.1065806,20.7946667 89.8295914,20.975914 C89.5526022,21.1583656 89.2364731,21.4257204 88.8830108,21.7791828 L88.8830108,26.8288172 L87.7064086,26.8288172 L87.7064086,19.8565161" id="Fill-39"></path>
        </g>
        <g id="Group-5">
            <polyline id="Fill-1" fill="#B8252B" points="60.107871 51.9306667 12.1929462 51.9306667 12.1929462 45.1058925 8.12301075 45.1058925 8.12301075 56 60.107871 56 60.107871 51.9306667"></polyline>
            <polyline id="Fill-2" fill="#002E6D" points="8.19346237 10.8947097 12.2633978 10.8947097 12.2633978 4.06993548 60.1548387 4.06993548 60.1548387 10.8947097 64.2247742 10.8947097 64.2247742 0.000602150538 8.19346237 0.000602150538 8.19346237 10.8947097"></polyline>
            <path d="M4.91475269,33.0225376 C4.94907527,34.4393978 5.63191398,37.1340215 10.1022796,37.1340215 C12.5253333,37.1340215 15.2217634,36.5312688 15.2217634,33.836043 C15.2217634,31.8507527 13.3791828,31.3202581 10.7857204,30.6819785 L8.15793548,30.0424946 C4.1975914,29.0856774 0.375741935,28.1649892 0.375741935,22.5631828 C0.375741935,19.7276559 1.8431828,14.7310108 9.7951828,14.7310108 C17.3033978,14.7310108 19.3169892,19.8336344 19.351914,22.9533763 L14.4371613,22.9533763 C14.299871,21.8195269 13.8910108,19.1255054 9.41944086,19.1255054 C7.47389247,19.1255054 5.1544086,19.8703656 5.1544086,22.1735914 C5.1544086,24.1588817 6.7236129,24.5852043 7.74726882,24.832086 L13.72,26.3579355 C17.0649462,27.208172 20.1365161,28.6250323 20.1365161,33.1971613 C20.1365161,40.8553118 12.6270968,41.5285161 10.4780215,41.5285161 C1.53668817,41.5285161 0,36.1766022 0,33.0225376 L4.91475269,33.0225376" id="Fill-4" fill="#002E6D"></path>
            <polyline id="Fill-8" fill="#002E6D" points="64.1537204 51.9065806 60.107871 56 60.107871 40.9263656 64.1537204 40.9263656 64.1537204 51.9065806"></polyline>
            <polyline id="Fill-1" fill="#B8252B" points="60.107871 51.9306667 12.1929462 51.9306667 12.1929462 45.1058925 8.12301075 45.1058925 8.12301075 56 60.107871 56 60.107871 51.9306667"></polyline>
            <g fill="#002E6D">
                <polyline id="Fill-2" points="8.19346237 10.8947097 12.2633978 10.8947097 12.2633978 4.06993548 60.1548387 4.06993548 60.1548387 10.8947097 64.2247742 10.8947097 64.2247742 0.000602150538 8.19346237 0.000602150538 8.19346237 10.8947097"></polyline>
                <path d="M4.91475269,33.0225376 C4.94907527,34.4393978 5.63191398,37.1340215 10.1022796,37.1340215 C12.5253333,37.1340215 15.2217634,36.5312688 15.2217634,33.836043 C15.2217634,31.8507527 13.3791828,31.3202581 10.7857204,30.6819785 L8.15793548,30.0424946 C4.1975914,29.0856774 0.375741935,28.1649892 0.375741935,22.5631828 C0.375741935,19.7276559 1.8431828,14.7310108 9.7951828,14.7310108 C17.3033978,14.7310108 19.3169892,19.8336344 19.351914,22.9533763 L14.4371613,22.9533763 C14.299871,21.8195269 13.8910108,19.1255054 9.41944086,19.1255054 C7.47389247,19.1255054 5.1544086,19.8703656 5.1544086,22.1735914 C5.1544086,24.1588817 6.7236129,24.5852043 7.74726882,24.832086 L13.72,26.3579355 C17.0649462,27.208172 20.1365161,28.6250323 20.1365161,33.1971613 C20.1365161,40.8553118 12.6270968,41.5285161 10.4780215,41.5285161 C1.53668817,41.5285161 0,36.1766022 0,33.0225376 L4.91475269,33.0225376" id="Fill-4"></path>
            </g>
            <path d="M31.715871,36.4602151 L38.2383656,36.4602151 C40.8264086,36.4602151 42.3155269,35.3257634 42.3155269,32.7371183 C42.3155269,30.5055484 40.400086,29.6523011 38.4858495,29.6523011 L31.715871,29.6523011 L31.715871,36.4602151 Z M31.715871,25.3643871 L37.9553548,25.3643871 C40.0460215,25.3643871 41.7133763,24.5496774 41.7133763,22.5282581 C41.7133763,20.4357849 40.2236559,19.7981075 37.8126452,19.7981075 L31.715871,19.7981075 L31.715871,25.3643871 Z M26.612043,15.4036129 L38.9820215,15.4036129 C45.2215054,15.4036129 46.816,19.3031398 46.816,21.9267097 C46.816,25.5763441 44.7608602,26.6060215 43.6968602,27.1365161 C46.816,28.3070968 47.6325161,30.7873548 47.6325161,33.3055484 C47.6325161,35.3257634 46.7810753,37.24 45.4346667,38.5514839 C43.9810753,39.9683441 42.5979355,40.8553118 37.388129,40.8553118 L26.612043,40.8553118 L26.612043,15.4036129 Z" id="Fill-6" fill="#002E6D"></path>
            <polyline id="Fill-7" fill="#002E6D" points="64.1844301 15.3951828 60.1464086 15.3951828 52.0625376 40.8631398 57.1663656 40.8631398 62.1196559 24.1432258 67.1542366 40.8631398 72.2580645 40.8631398 64.1844301 15.3951828"></polyline>
            <polyline id="Fill-8" fill="#002E6D" points="64.1537204 51.9065806 60.107871 56 60.107871 40.9263656 64.1537204 40.9263656 64.1537204 51.9065806"></polyline>
        </g>
    </g>
</svg>