<svg id="Layer_1" data-name="Layer 1" xmlns="http://www.w3.org/2000/svg" viewBox="0 0 100 100"><defs><style>.cls-1,.cls-4{fill:#fff;}.cls-2{fill:#007dbc;}.cls-3{fill:none;}.cls-3,.cls-4{stroke:#002e6d;stroke-linejoin:round;stroke-width:3px;}</style></defs><title>bag</title><path class="cls-1" d="M49.7,87.2H83.4c5.78,0,11.07-1.93,11.07-9.63V32.8c0-7.7-5.3-9.63-11.07-9.63H16c-5.78,0-11.07,1.93-11.07,9.63V77.57c0,7.7,5.3,9.63,11.07,9.63Z"/><path class="cls-2" d="M52.73,87.2H83.79C89.12,87.2,94,85.27,94,77.57V32.8c0-7.7-4.88-9.63-10.21-9.63H21.67c-5.33,0-10.21,1.93-10.21,9.63V77.57c0,7.7,4.88,9.63,10.21,9.63Z"/><path class="cls-3" d="M49.7,87.2H83.4c5.78,0,11.07-1.93,11.07-9.63V32.8c0-7.7-5.3-9.63-11.07-9.63H16c-5.78,0-11.07,1.93-11.07,9.63V77.57c0,7.7,5.3,9.63,11.07,9.63Z"/><path class="cls-3" d="M94.47,56.77S93.23,61,85.28,61H14.12c-8,0-9.19-4.27-9.19-4.27"/><path class="cls-4" d="M31,61V54.82c0-.64-.35-1.08-1.19-1.08H22.25c-.83,0-1.19.44-1.19,1.08V67.26c0,.64.35,1.08,1.19,1.08h7.53c.83,0,1.19-.44,1.19-1.08Z"/><path class="cls-4" d="M78.3,61V54.82c0-.64-.35-1.08-1.19-1.08H69.59c-.83,0-1.19.44-1.19,1.08V67.26c0,.64.35,1.08,1.19,1.08h7.53c.83,0,1.19-.44,1.19-1.08Z"/><path class="cls-3" d="M64.26,23.17a11.23,11.23,0,0,0-1.06-4.55,10,10,0,0,0-5.53-4.76,25.48,25.48,0,0,0-8.18-1.09,25.48,25.48,0,0,0-8.18,1.09,10,10,0,0,0-5.53,4.76,11.23,11.23,0,0,0-1.06,4.55"/></svg>