<svg id="Layer_1" data-name="Layer 1" xmlns="http://www.w3.org/2000/svg" viewBox="0 0 100 100"><defs><style>.cls-1,.cls-2,.cls-3,.cls-6{fill:none;}.cls-1{stroke:#c5c5c5;}.cls-1,.cls-2,.cls-6{stroke-linecap:round;}.cls-1,.cls-6{stroke-linejoin:round;stroke-width:2px;}.cls-2,.cls-3{stroke:#002e6d;stroke-miterlimit:10;stroke-width:3px;}.cls-4{fill:#007dbc;}.cls-5{fill:#fff;}.cls-6{stroke:#007dbc;}</style></defs><title>certified</title><line class="cls-1" x1="63.37" y1="54.47" x2="26.71" y2="45.48"/><line class="cls-1" x1="64.73" y1="83.24" x2="20.13" y2="72.31"/><line class="cls-1" x1="62.95" y1="25.93" x2="38.58" y2="19.96"/><line class="cls-1" x1="75.69" y1="38.54" x2="31.1" y2="27.6"/><line class="cls-1" x1="73.5" y1="47.48" x2="28.9" y2="36.54"/><polyline class="cls-2" points="84.95 34.45 63.42 29.13 67.12 14.16"/><polygon class="cls-3" points="70.34 94.84 9.18 79.98 27.51 4.54 67.12 14.17 85 34.47 70.34 94.84"/><circle class="cls-4" cx="55.47" cy="72.26" r="13.34" transform="translate(-28.28 36.42) rotate(-29.32)"/><circle class="cls-5" cx="55.47" cy="72.26" r="11.46" transform="translate(-28.28 36.42) rotate(-29.32)"/><circle class="cls-4" cx="55.47" cy="72.26" r="10.15" transform="translate(-28.28 36.42) rotate(-29.32)"/><circle class="cls-5" cx="55.47" cy="72.26" r="7.64" transform="translate(-28.28 36.42) rotate(-29.32)"/><circle class="cls-4" cx="55.47" cy="72.26" r="5.74" transform="translate(-28.28 36.42) rotate(-29.32)"/><circle class="cls-5" cx="55.47" cy="72.26" r="3.87" transform="translate(-28.28 36.42) rotate(-29.32)"/><rect class="cls-5" x="53.62" y="65.82" width="3.75" height="12.72" transform="translate(139.99 38.25) rotate(105.68)"/><line class="cls-6" x1="85.13" y1="72.28" x2="92" y2="70.73"/><line class="cls-6" x1="85.03" y1="80.53" x2="91.79" y2="82.55"/><line class="cls-6" x1="81.18" y1="88.39" x2="86.09" y2="93.43"/></svg>