<svg id="Layer_1" data-name="Layer 1" xmlns="http://www.w3.org/2000/svg" viewBox="0 0 100 100"><defs><style>.cls-1,.cls-2{fill:#fff;}.cls-1,.cls-2,.cls-4{stroke:#002e6d;}.cls-1,.cls-4{stroke-linejoin:round;stroke-width:3px;}.cls-2{stroke-miterlimit:10;stroke-width:0;}.cls-3{fill:#007dbc;}.cls-4{fill:none;}</style></defs><title>federal-building</title><path class="cls-1" d="M30.53,78.41H29.36V48.84h.76l1.11-6.23H20l1.11,6.23h.76V78.41H20.74L19.58,85H31.69Z"/><path class="cls-1" d="M46.56,78.41H45.4V48.84h.76l1.11-6.23H36.08l1.11,6.23h.76V78.41H36.78L35.61,85H47.73Z"/><path class="cls-1" d="M62.6,78.41H61.43V48.84h.76l1.11-6.23H52.12l1.11,6.23H54V78.41H52.81L51.65,85H63.76Z"/><path class="cls-1" d="M78.63,78.41H77.47V48.84h.76l1.11-6.23H68.15l1.11,6.23H70V78.41H68.85L67.69,85H79.8Z"/><polygon class="cls-2" points="90.25 36.64 50.2 2.96 10.15 36.64 90.25 36.64"/><polygon class="cls-3" points="87.96 36.64 53.83 5.83 16.64 36.64 87.96 36.64"/><rect class="cls-1" x="16" y="36.64" width="67.57" height="5.97"/><rect class="cls-1" x="16" y="85.02" width="67.57" height="5.97"/><rect class="cls-2" x="13.29" y="90.99" width="72.19" height="5.97"/><rect class="cls-3" x="18.49" y="90.99" width="68.47" height="5.97"/><rect class="cls-4" x="13.38" y="90.99" width="72.81" height="5.97"/><polygon class="cls-4" points="89.85 36.64 49.8 2.96 9.75 36.64 89.85 36.64"/><circle class="cls-2" cx="49.8" cy="22.56" r="8.45"/><circle class="cls-4" cx="49.8" cy="22.56" r="8.45"/></svg>