<svg id="Layer_1" data-name="Layer 1" xmlns="http://www.w3.org/2000/svg" xmlns:xlink="http://www.w3.org/1999/xlink" viewBox="0 0 283.24 264.85"><defs><style>.cls-1,.cls-11,.cls-13,.cls-14,.cls-17,.cls-4,.cls-8{fill:none;}.cls-2,.cls-3{fill:#fff;}.cls-11,.cls-14,.cls-2,.cls-4,.cls-8{stroke:#21346a;}.cls-13,.cls-14,.cls-17,.cls-18,.cls-2,.cls-8{stroke-linejoin:round;}.cls-14,.cls-17,.cls-18,.cls-2,.cls-4,.cls-8{stroke-width:3px;}.cls-11,.cls-13,.cls-14,.cls-17,.cls-18,.cls-4{stroke-linecap:round;}.cls-11,.cls-4{stroke-miterlimit:10;}.cls-5{clip-path:url(#clip-path);}.cls-18,.cls-6{fill:#1a7e4e;}.cls-7{clip-path:url(#clip-path-2);}.cls-9{clip-path:url(#clip-path-3);}.cls-10{fill:#a8c4b1;}.cls-11{stroke-width:2px;}.cls-12{clip-path:url(#clip-path-4);}.cls-13{stroke:#989897;}.cls-15{clip-path:url(#clip-path-5);}.cls-16{fill:#0c7dbb;}.cls-17,.cls-18{stroke:#213569;}</style><clipPath id="clip-path"><path class="cls-1" d="M210.2,239.61c4.89-6.12,4.18-14,1.69-21s-12.26-23.5-12.26-23.5-9.77,16.5-12.25,23.5-3.2,14.9,1.69,21c4.52,5.64,8.81,5.44,10.56,5.49C201.67,245.1,205.68,245.25,210.2,239.61Z"/></clipPath><clipPath id="clip-path-2"><path class="cls-1" d="M242.67,135.11H211.09a5.28,5.28,0,0,1,5.36-5s.56-9.89,11.75-8.31c0,0,8-15.32,21.71-3.36,0,0,12.79-5.54,16.08,9.89,0,0,7.52-1.19,7.8,6.82Z"/></clipPath><clipPath id="clip-path-3"><path class="cls-1" d="M256.4,141.05h-14s0-2.5,2.38-2.65c0,0,.25-5.2,5.21-4.37,0,0,3.54-8.06,9.63-1.77,0,0,5.68-2.91,7.14,5.2,0,0,3.33-.62,3.46,3.59Z"/></clipPath><clipPath id="clip-path-4"><path class="cls-1" d="M222.27,246.69c3.28-4.09,2.8-9.37,1.14-14.06s-8.2-15.71-8.2-15.71-6.53,11-8.19,15.71-2.14,10,1.13,14.06c3,3.77,5.89,3.63,7.06,3.67C216.57,250.36,219.25,250.46,222.27,246.69Z"/></clipPath><clipPath id="clip-path-5"><circle class="cls-1" cx="104.77" cy="134.82" r="71.41"/></clipPath></defs><title>Green-Usage</title><circle class="cls-2" cx="121.95" cy="135.35" r="120.42"/><circle class="cls-2" cx="204.73" cy="224.94" r="38.4"/><circle class="cls-2" cx="243.33" cy="131.07" r="38.4"/><circle class="cls-2" cx="190.31" cy="39.91" r="38.4"/><rect class="cls-3" x="197.38" y="245.1" width="4.1" height="6.63"/><rect class="cls-4" x="197.38" y="245.1" width="4.1" height="6.63"/><g class="cls-5"><path class="cls-3" d="M210.2,239.61c4.89-6.12,4.18-14,1.69-21s-12.26-23.5-12.26-23.5-9.77,16.5-12.25,23.5-3.2,14.9,1.69,21c4.52,5.64,8.81,5.44,10.56,5.49C201.67,245.1,205.68,245.25,210.2,239.61Z"/><path class="cls-6" d="M213.15,239.61c4.89-6.12,4.18-14,1.69-21s-12.26-23.5-12.26-23.5-9.77,16.5-12.25,23.5-3.2,14.9,1.69,21c4.52,5.64,8.81,5.44,10.56,5.49C204.62,245.1,208.63,245.25,213.15,239.61Z"/></g><path class="cls-4" d="M209.9,239.61c4.89-6.12,4.18-14,1.7-21s-12.26-23.5-12.26-23.5-9.77,16.5-12.26,23.5-3.2,14.9,1.69,21c4.52,5.64,8.82,5.44,10.57,5.49C201.37,245.1,205.38,245.25,209.9,239.61Z"/><path class="cls-3" d="M242.61,135.43H211a5.28,5.28,0,0,1,5.36-5s.56-9.89,11.75-8.31c0,0,8-15.33,21.71-3.36,0,0,12.79-5.54,16.08,9.89,0,0,7.52-1.19,7.8,6.82Z"/><g class="cls-7"><path class="cls-6" d="M245.27,138.16H213.69a5.27,5.27,0,0,1,5.35-5s.57-9.89,11.75-8.31c0,0,6.12-11.73,16.84-6.65,1.54.72,6.13-1.47,10.25-.26,3.21.95,10.45,4.3,11.89,11,0,0,6.33,1.2,6.61,9.21Z"/></g><path class="cls-8" d="M242.61,135.43H211a5.28,5.28,0,0,1,5.36-5s.56-9.89,11.75-8.31c0,0,8-15.33,21.71-3.36,0,0,12.79-5.54,16.08,9.89,0,0,7.52-1.19,7.8,6.82Z"/><ellipse class="cls-3" cx="225.51" cy="129.71" rx="2.07" ry="2.18"/><ellipse class="cls-3" cx="241.17" cy="122.54" rx="2.07" ry="2.18"/><ellipse class="cls-3" cx="235.56" cy="129.45" rx="2.07" ry="2.18"/><ellipse class="cls-3" cx="259.03" cy="129.45" rx="2.07" ry="2.18"/><ellipse class="cls-3" cx="253.54" cy="123.81" rx="2.07" ry="2.18"/><ellipse class="cls-3" cx="247.31" cy="129.54" rx="2.07" ry="2.18"/><path class="cls-3" d="M256.6,141.05h-14s0-2.5,2.38-2.65c0,0,.25-5.2,5.21-4.37,0,0,3.55-8.06,9.63-1.77,0,0,5.68-2.91,7.14,5.2,0,0,3.33-.62,3.46,3.59Z"/><g class="cls-9"><path class="cls-10" d="M259,143H246.22s0-2.49,2.16-2.65c0,0,.23-5.2,4.74-4.37,0,0,2.71-6.77,7.43-3.05.43.34,2.57-1.21,4.4-.08,1.1.67,2,1.78,2.5,4.82,0,0,3.84-.17,4.06,5.33Z"/></g><path class="cls-8" d="M256.6,141.05h-14s0-2.5,2.38-2.65c0,0,.25-5.2,5.21-4.37,0,0,3.55-8.06,9.63-1.77,0,0,5.68-2.91,7.14,5.2,0,0,3.33-.62,3.46,3.59Z"/><ellipse class="cls-3" cx="254.17" cy="136.88" rx="1.14" ry="1.43"/><ellipse class="cls-3" cx="263" cy="137.78" rx="1.14" ry="1.43"/><ellipse class="cls-3" cx="258.77" cy="135.76" rx="1.14" ry="1.43"/><rect class="cls-3" x="213.71" y="250.36" width="2.74" height="4.43"/><rect class="cls-11" x="213.71" y="250.36" width="2.74" height="4.43"/><g class="cls-12"><path class="cls-3" d="M222.27,246.69c3.28-4.09,2.8-9.37,1.14-14.06s-8.2-15.71-8.2-15.71-6.53,11-8.19,15.71-2.14,10,1.13,14.06c3,3.77,5.89,3.63,7.06,3.67C216.57,250.36,219.25,250.46,222.27,246.69Z"/><path class="cls-10" d="M224.25,246.69c3.27-4.09,2.79-9.37,1.13-14.06s-8.2-15.71-8.2-15.71-6.53,11-8.19,15.71-2.14,10,1.13,14.06c3,3.77,5.89,3.63,7.06,3.67C218.54,250.36,221.23,250.46,224.25,246.69Z"/></g><path class="cls-11" d="M222.08,246.69c3.27-4.09,2.79-9.37,1.13-14.06s-8.2-15.71-8.2-15.71-6.53,11-8.19,15.71-2.14,10,1.13,14.06c3,3.77,5.89,3.63,7.06,3.67C216.37,250.36,219.06,250.46,222.08,246.69Z"/><polygon class="cls-10" points="219.35 28.18 198.98 18.59 160.46 38.77 162.17 50.5 182.55 61.04 220.53 39.52 219.35 28.18"/><polyline class="cls-13" points="160.94 43.08 181.3 52.94 219.6 32.63"/><polyline class="cls-13" points="160.94 46.77 181.3 56.62 219.6 36.31"/><polyline class="cls-14" points="160.09 38.77 161.8 50.5 182.18 61.04 180.47 48.35"/><polyline class="cls-14" points="218.98 28.18 220.16 39.52 182.18 61.04"/><polygon class="cls-3" points="172.41 32.34 192.59 42.02 193.77 54.34 207.57 46.61 206.57 34.66 186.73 24.8 172.41 32.34"/><polygon class="cls-6" points="176.18 33.55 192.59 42.02 193.77 54.34 207.57 46.61 206.57 34.66 190.49 26.02 176.18 33.55"/><polygon class="cls-14" points="172.41 32.34 192.59 42.02 193.77 54.34 207.57 46.61 206.57 34.66 186.73 24.8 172.41 32.34"/><polygon class="cls-14" points="218.98 28.18 180.46 48.35 160.09 38.77 198.62 18.59 218.98 28.18"/><path class="cls-3" d="M189.24,31.29a2.19,2.19,0,0,0-1.4,1c-.36.58-.32,1,.23,1.37,1.14.7,3-2.55,5.3-1.14a2.61,2.61,0,0,1,1.17,3.29l1.25.77-.71,1.17L193.87,37a4.64,4.64,0,0,1-2.21,1.57l-.73-1.5a3.4,3.4,0,0,0,1.76-1.3c.41-.68.32-1.15-.24-1.49-1.24-.76-3.16,2.45-5.34,1.12a2.52,2.52,0,0,1-1.11-3.2l-1.25-.76.72-1.17,1.22.75a3.49,3.49,0,0,1,2.08-1.2Z"/><g class="cls-15"><circle class="cls-16" cx="108.61" cy="134.82" r="71.41"/></g><path class="cls-6" d="M62.32,77.06s2.07,3,4,2.4,6.61-2.4,6.61-2.4h4.4a32.27,32.27,0,0,0-4.4,4.73c-1.93,2.62-4.68,5.65-8.26,6.47s-6.61,9.09-6.61,9.09-5.23-5-2.75-7.43,1.26-6.68,1.2-8.13A34,34,0,0,1,62.32,77.06Z"/><path class="cls-3" d="M44,97.35s4.63,1.37,4.63,5.23-4,5.5-4.63,6l-.6.55s2.75,1.65-1.38,3.31a23.38,23.38,0,0,0-6.06,3.3,70.3,70.3,0,0,1,3.63-10.45A53.48,53.48,0,0,1,44,97.35Z"/><path class="cls-6" d="M34.64,149.47s6-3.35,7.4.2,2.48,5.76,4.68,6,3.58,2.48,3.58,4.68,4.68,2.2,6.6,2.48,5.51.27,6.89,2.75.27,5.51,0,7.43.43,2.91,2.42,4.62a3.42,3.42,0,0,1,0,5.29c-1.32.83,0,4.68,1.25,6.88s1.46,4.06,0,6a83.24,83.24,0,0,1-11-8.24A72.53,72.53,0,0,1,46,175.72a53.4,53.4,0,0,1-7.81-14.46A63,63,0,0,1,34.64,149.47Z"/><path class="cls-6" d="M119.22,64.92s-3.2,3.25,0,3.52,2.65,1.11,1.82,2.48,1.8,3.92-1.3,3.61-3.65,1-5.86,2.53-4.68,6-8,6.25-3-3-3-3-7.7-1.11-10.46,1.51-3.58,3.8-5.78,5.41-4.95,4.92-2.2,5.19l2.75.28s3.31,2.2,4.41,0,0-5.23,1.37-6.61a9.3,9.3,0,0,1,3.86-1.93S93.24,87,95.44,87.2a34.26,34.26,0,0,0,5.23,0s-3.58,5-5,6.45-4.13,4.52-6.89,3.7-3.41,2.2-5.55,3-5.73,2.47-5.73,2.47,3.58,3,2.2,3.72S74,107.81,74,107.81s-1.1,5.23,0,6.88,3.58-.83,5.78-3,5.51-5.09,5.51-5.09l2.75-2a28.54,28.54,0,0,1,5.5,3.49c2.21,1.93,2.21-.66,1.11-3.49l6.33,6,.55-4s-.8,4,3,3.16a49.88,49.88,0,0,0,8.79-3.16s2.2,5.92-.27,6.74-4.68,3.86-4.68,3.86-1.65-3-2.48-3h-5l-1.11,3L93,115.79H87.18s-2.2-1.66-5.5,0-9.79,3.58-8.2,6.06-.06,5.45-1.44,5.48-1.92,1.07-1.92,6.08v8.53s3.58,7.76,9.36,7.73,8.25-.76,9.35-1.63S95,147,95.9,148s2.29,2.07,1.19,4.45,3,4.86,5.23,6.79,1.65,5.51,1.1,8,1.38,5,3.31,6.61,1.65,4.4,4.13,6.61,6.88,3.3,9.35,1.37,3-4.13,4.13-7.43.55-5.78,2.76-8.53l2.2-2.76a35.6,35.6,0,0,1-.83-10.64c.55-5.05,3.86-9.45,5.23-12.75s0-8.81,0-8.81-3.85,4.48-5.5,3.89-3-5.47-6.33-7.43-7.44-11.6-7.44-11.6,8.81,5.18,10.74,8.09a32,32,0,0,1,3,6,13.8,13.8,0,0,0,6.11-4.68,13.56,13.56,0,0,0,2.7-7.43l-5.79-1.93L121,110.28l3.85-1.65,10.46,5,8.26-.83,2.75,4.41,3.31,1.1,6.88,12.66,2.48-3.54L156,121l-.83-8.26,3.86-2.48,3.3,5.51,2.48,4.95,5.23,11-1.65-11.56,3.3-.82-2.75-5.78-3.86-4.13,4.17-4.87A61.5,61.5,0,0,0,162.53,93a75.62,75.62,0,0,0-12.84-13.54,73.09,73.09,0,0,0-13.6-8.79A64.14,64.14,0,0,0,119.22,64.92Z"/><path class="cls-17" d="M119.23,64.92s-3.2,3.25,0,3.52,2.65,1.11,1.82,2.48,1.8,3.92-1.3,3.61-3.65,1-5.85,2.53-4.68,6-8,6.25-3-3-3-3-7.71-1.11-10.46,1.51-3.58,3.8-5.78,5.41-5,4.92-2.21,5.19l2.76.28s3.3,2.2,4.4,0,0-5.23,1.38-6.61a9.22,9.22,0,0,1,3.85-1.93S93.25,87,95.45,87.2a34.23,34.23,0,0,0,5.23,0s-3.57,5-5,6.45-4.13,4.52-6.88,3.7-3.41,2.2-5.56,3-5.73,2.47-5.73,2.47,3.58,3,2.2,3.72S74,107.81,74,107.81s-1.1,5.23,0,6.88,3.58-.83,5.78-3,5.51-5.09,5.51-5.09l2.75-2a28.47,28.47,0,0,1,5.51,3.49c2.2,1.93,2.2-.66,1.1-3.49l6.33,6,.55-4s-.79,4,3,3.16a50.12,50.12,0,0,0,8.8-3.16s2.2,5.92-.28,6.74-4.68,3.86-4.68,3.86-1.65-3-2.48-3h-5l-1.1,3L93,115.79H87.2s-2.21-1.66-5.51,0-9.79,3.58-8.2,6.06-.06,5.45-1.43,5.48-1.93,1.07-1.93,6.08v8.53s3.58,7.76,9.36,7.73,8.26-.76,9.36-1.63S95,147,95.91,148s2.3,2.07,1.2,4.45,3,4.86,5.23,6.79,1.65,5.51,1.1,8,1.37,5,3.3,6.61,1.65,4.4,4.13,6.61,6.88,3.3,9.36,1.37,3-4.13,4.13-7.43.55-5.78,2.75-8.53l2.2-2.76a35.4,35.4,0,0,1-.82-10.64c.55-5.05,3.85-9.45,5.23-12.75s0-8.81,0-8.81-3.86,4.48-5.51,3.89-3-5.47-6.33-7.43-7.43-11.6-7.43-11.6,8.81,5.18,10.73,8.09a32,32,0,0,1,3,6,13.8,13.8,0,0,0,6.12-4.68,13.6,13.6,0,0,0,2.69-7.43l-5.78-1.93-10.19-5.51,3.86-1.65,10.46,5,8.25-.83,2.76,4.41,3.3,1.1,6.88,12.66,2.48-3.54L156,121l-.82-8.26,3.85-2.48,3.3,5.51,2.48,4.95,5.23,11-1.65-11.56,3.3-.82L169,113.59l-3.85-4.13,4.16-4.87s-7.15-14.32-19.56-25.1S119.23,64.92,119.23,64.92Z"/><circle class="cls-17" cx="104.55" cy="134.82" r="71.41"/><path class="cls-17" d="M62.56,77.06s2.06,3,4,2.4,6.61-2.4,6.61-2.4h4.4a31.68,31.68,0,0,0-4.4,4.73c-1.93,2.62-4.68,5.65-8.26,6.47s-6.61,9.09-6.61,9.09-5.23-5-2.75-7.43,1.2-8.13,1.2-8.13Z"/><path class="cls-18" d="M43.76,97.35s4.62,1.37,4.62,5.23-4,5.5-4.62,6l-.61.55s2.76,1.65-1.37,3.31a23.59,23.59,0,0,0-6.07,3.3S39.23,103.85,43.76,97.35Z"/><path class="cls-17" d="M34.65,149.47s6-3.35,7.4.2,2.48,5.76,4.68,6,3.58,2.48,3.58,4.68,4.68,2.2,6.61,2.48,5.5.27,6.88,2.75.27,5.51,0,7.43.43,2.91,2.42,4.62a3.42,3.42,0,0,1,0,5.29c-1.32.83,0,4.68,1.25,6.88s1.47,4.06,0,6c0,0-14.2-9.46-21.45-20.13A84.17,84.17,0,0,1,34.65,149.47Z"/><path class="cls-3" d="M136.91,157.63,134,162.22v3.67l-1.29,3.67,2.94,2.39s2.57-7.71,2.75-8.45S136.91,157.63,136.91,157.63Z"/><path class="cls-16" d="M123.53,97.35c.28-.28-1.1-4.41-2.61-4.68s-4-.55-3.72,2.34,2.22,3.44,3.17,4.26.55,3,.55,3,5.09,4,7,2.29S123.53,97.35,123.53,97.35Z"/><path class="cls-16" d="M115.55,100.65l-3.3-3.3-2.76,3.3-3.58-3.3s-1.1,4.84,0,7.24,6.06-1.65,6.06-1.65Z"/><path class="cls-17" d="M123.53,97.35c.28-.28-1.1-4.41-2.61-4.68s-4-.55-3.72,2.34,2.22,3.44,3.17,4.26.55,3,.55,3,5.09,4,7,2.29S123.53,97.35,123.53,97.35Z"/><path class="cls-17" d="M115.55,100.65l-3.3-3.3-2.76,3.3-3.58-3.3s-1.1,4.84,0,7.24,6.06-1.65,6.06-1.65Z"/><path class="cls-18" d="M136.93,157.63,134,162.22v3.67l-1.28,3.67,2.93,2.39s2.57-7.71,2.75-8.45S136.93,157.63,136.93,157.63Z"/></svg>