<svg id="Layer_1" data-name="Layer 1" xmlns="http://www.w3.org/2000/svg" viewBox="0 0 100 99.67"><defs><style>.cls-1{fill:#ebebeb;}.cls-2,.cls-4{fill:#fff;}.cls-3,.cls-5,.cls-7{fill:none;}.cls-3,.cls-4,.cls-7{stroke:#002e6d;stroke-linecap:round;stroke-linejoin:round;}.cls-3,.cls-4{stroke-width:3px;}.cls-5{stroke:#007dbc;stroke-width:4px;}.cls-6{fill:#007dbc;}.cls-7{stroke-width:2px;}</style></defs><title>growth</title><g id="Page-Templates"><g id="Page-Templates-2" data-name="Page-Templates"><g id="grow-icon"><g id="Business_Guide_Icon_Grow_color" data-name="Business Guide Icon Grow color"><polygon id="Shape" class="cls-1" points="34.77 89 42.23 73.62 42.61 73.62 42.61 85.9 43.12 85.9 50.33 85.9 50.84 85.9 50.84 73.62 51.22 73.62 58.68 89 67.29 89 57.54 68.78 56.15 65.93 50.84 65.93 42.61 65.93 37.3 65.93 36.16 68.53 26.16 89 34.77 89"/><path id="Shape-2" data-name="Shape" class="cls-2" d="M34.73,88.88a.86.86,0,0,0,.76-.49l7.23-14.93h.38V85.67h8.25V73.45h.38L59,88.38a1,1,0,0,0,.76.49h6.72a.85.85,0,0,0,.76-1.23L57.95,68.77,56.8,66.42a1,1,0,0,0-.76-.49H38.28a.86.86,0,0,0-.76.49l-1,2L27.24,87.77A.85.85,0,0,0,28,89h6.72Z"/><polygon id="Shape-3" data-name="Shape" class="cls-3" points="34.77 89 42.23 73.62 42.61 73.62 42.61 85.9 43.12 85.9 50.33 85.9 50.84 85.9 50.84 73.62 51.22 73.62 58.68 89 67.29 89 57.54 68.78 56.15 65.93 50.84 65.93 42.61 65.93 37.3 65.93 36.16 68.53 26.16 89 34.77 89"/><polyline id="Shape-4" data-name="Shape" class="cls-1" points="12.12 64.93 81.33 64.93 81.33 19.79 12.12 19.79 12.12 64.93"/><rect id="Rectangle-path" class="cls-1" x="38.2" y="12.76" width="17.05" height="7.02"/><rect id="Rectangle-path-2" data-name="Rectangle-path" class="cls-4" x="38.2" y="12.76" width="17.05" height="7.02"/><path id="Shape-5" data-name="Shape" class="cls-2" d="M14.12,64.93H81.7a1.65,1.65,0,0,0,1.64-1.61V22.4a1.65,1.65,0,0,0-1.64-1.61H15.76a1.65,1.65,0,0,0-1.64,1.61V64.93"/><rect id="Rectangle-path-3" data-name="Rectangle-path" class="cls-2" x="7.1" y="64.93" width="80.25" height="7.02"/><rect id="Rectangle-path-4" data-name="Rectangle-path" class="cls-3" x="7.1" y="64.93" width="80.25" height="7.02"/><polyline id="Shape-6" data-name="Shape" class="cls-5" points="16.13 55.9 35.78 40.23 48.26 51.82 69.29 31.82"/><polygon id="Shape-7" data-name="Shape" class="cls-6" points="67.28 33.78 62.27 28.59 67.79 28.2 73.31 27.81 72.79 33.26 72.41 38.84 67.28 33.78"/><polyline id="Shape-8" data-name="Shape" class="cls-3" points="12.12 64.93 81.33 64.93 81.33 19.79 12.12 19.79 12.12 64.93"/><g id="Group"><path id="Shape-9" data-name="Shape" class="cls-7" d="M82.21,13.14,84.09,8"/><path id="Shape-10" data-name="Shape" class="cls-7" d="M87.47,16.53,91.61,13"/><path id="Shape-11" data-name="Shape" class="cls-7" d="M91,22.29l5.27-1"/></g></g></g></g></g></svg>