<svg id="Layer_1" data-name="Layer 1" xmlns="http://www.w3.org/2000/svg" viewBox="0 0 283.24 264.85"><defs><style>.cls-1,.cls-2,.cls-3,.cls-7{fill:#fff;}.cls-1,.cls-10,.cls-2,.cls-5,.cls-6,.cls-7,.cls-8,.cls-9{stroke:#21346a;}.cls-1,.cls-10,.cls-5,.cls-6,.cls-9{stroke-linejoin:round;}.cls-1,.cls-5,.cls-6{stroke-width:3px;}.cls-2,.cls-7,.cls-8{stroke-miterlimit:10;}.cls-2{stroke-width:0;}.cls-10,.cls-4,.cls-6{fill:#cb2026;}.cls-5,.cls-9{fill:none;}.cls-8{fill:#097dbc;}.cls-9{stroke-linecap:round;}.cls-10,.cls-9{stroke-width:2px;}</style></defs><title>Red-Usage</title><circle class="cls-1" cx="121.95" cy="135.35" r="120.42"/><path class="cls-2" d="M101.45,98.45s25.77-5.35,78.09-2V180s-39-1.67-78.09,2Z"/><path class="cls-3" d="M101.25,117.52s24.86-4.26,78.09-.9v7.23a678.87,678.87,0,0,0-78.09-.64Z"/><path class="cls-3" d="M101.25,130.66s24.86-4.26,78.09-.9V137a676.24,676.24,0,0,0-78.09-.64Z"/><path class="cls-3" d="M101.25,143.81s24.86-4.26,78.09-.9v7.23a678.87,678.87,0,0,0-78.09-.64Z"/><path class="cls-3" d="M101.25,156s24.86-4.26,78.09-.9v7.24a676.24,676.24,0,0,0-78.09-.64Z"/><path class="cls-3" d="M101.25,168.26s24.86-4.26,78.09-.9v7.23a678.87,678.87,0,0,0-78.09-.64Z"/><path class="cls-3" d="M103.1,104.92s24.86-4.26,78.08-.91v7.24a678.73,678.73,0,0,0-78.08-.64Z"/><path class="cls-4" d="M109.54,111.35s22.36-4.26,70.22-.9v7.24a547,547,0,0,0-70.22-.64Z"/><path class="cls-4" d="M109.54,124.5s22.36-4.26,70.22-.9v7.23a548,548,0,0,0-70.22-.63Z"/><path class="cls-4" d="M109.54,137.65s22.36-4.27,70.22-.91V144a549.09,549.09,0,0,0-70.22-.64Z"/><path class="cls-4" d="M109.54,149.87s22.36-4.26,70.22-.9v7.23a548,548,0,0,0-70.22-.63Z"/><path class="cls-4" d="M109.54,162.09s22.36-4.26,70.22-.9v7.24a547,547,0,0,0-70.22-.64Z"/><path class="cls-4" d="M108.62,174.32s22.36-4.26,70.22-.9v7.23a548,548,0,0,0-70.22-.63Z"/><path class="cls-4" d="M109.54,98.75s22.36-4.26,70.22-.9v7.24a547,547,0,0,0-70.22-.64Z"/><path class="cls-5" d="M101.45,98.45s25.77-5.35,78.09-2V180s-39-1.67-78.09,2Z"/><path class="cls-5" d="M101.45,98.45s25.77-5.35,78.09-2"/><path class="cls-5" d="M101.45,106.51s25.77-5.35,78.09-2"/><path class="cls-5" d="M101.45,112.59s25.77-5.35,78.09-2"/><path class="cls-5" d="M101.45,119.25s25.77-5.35,78.09-2"/><path class="cls-5" d="M101.45,125.67s25.77-5.35,78.09-2"/><path class="cls-5" d="M101.45,131.75s25.77-5.35,78.09-2"/><path class="cls-5" d="M101.45,138.4s25.77-5.35,78.09-2"/><path class="cls-5" d="M101.45,144.82s25.77-5.35,78.09-2"/><path class="cls-5" d="M101.45,150.91s25.77-5.35,78.09-2"/><path class="cls-5" d="M101.45,157.56s25.77-5.35,78.09-2"/><path class="cls-5" d="M101.45,164s25.77-5.35,78.09-2"/><path class="cls-5" d="M101.45,170.06s25.77-5.35,78.09-2"/><path class="cls-5" d="M101.45,176.72s25.77-5.35,78.09-2"/><line class="cls-5" x1="32.85" y1="192.37" x2="32.85" y2="83.14"/><polygon class="cls-6" points="101.45 182.03 131.17 166.72 97.61 155.1 101.45 182.03"/><path class="cls-3" d="M32.85,83.14s55.31,6.92,98.32,0v83.58s-63.2,9.13-98.32,0Z"/><path class="cls-4" d="M131.07,166.23s-36.43,6.29-97.37.89v-5.43s53.39,3.13,97.27-1.35Z"/><path class="cls-3" d="M131.17,159.46s-36.74,7.11-98.22.81v-6.19s53.87,3.67,98.12-1.35Z"/><path class="cls-4" d="M131.09,153.45s-36.44,6.29-97.37.89v-5.43S87.12,152,131,147.56Z"/><path class="cls-3" d="M131.17,147.68s-36.43,5.72-97.34.95v-4.88s53.38,2.72,97.25-1.37Z"/><path class="cls-4" d="M131.1,140.67s-36.43,6.29-97.37.89v-5.43s53.39,3.13,97.27-1.35Z"/><path class="cls-3" d="M131.16,134.48s-36.72,7.77-98.2.74l0-6.82s53.87,4.13,98.11-1.34Z"/><path class="cls-4" d="M131.12,126.94s-36.43,6.29-97.37.88V122.4s53.39,3.12,97.27-1.35Z"/><path class="cls-3" d="M131.17,121.9s-32.37,6-86.53.74v-5.25s47.45,3.09,86.45-1.19Z"/><path class="cls-4" d="M131.15,115.64s-33.92,6.06-90.66.81V111.2s49.72,3,90.58-1.25Z"/><path class="cls-7" d="M131.17,109.21s-32.37,6-86.53.74v-5.24s47.45,3.08,86.45-1.2Z"/><path class="cls-4" d="M131.16,103s-33.92,6.05-90.66.8V98.52s49.72,3,90.58-1.26Z"/><path class="cls-4" d="M131.17,89.59s-33.92,6.06-90.66.81V85.16s49.72,3,90.58-1.26Z"/><path class="cls-3" d="M131.17,96.52s-32.37,6-86.53.75V92s47.45,3.08,86.45-1.19Z"/><path class="cls-5" d="M32.85,83.14s55.31,6.92,98.32,0v83.58c-42.85,7.39-98.32,0-98.32,0Z"/><path class="cls-5" d="M32.85,89.89s55.31,5.89,98.32,0"/><path class="cls-5" d="M32.85,96.3s55.31,5.9,98.32,0"/><path class="cls-5" d="M32.85,83.47s55.31,5.89,98.32,0"/><path class="cls-5" d="M32.85,102.72s55.31,5.9,98.32,0"/><path class="cls-5" d="M32.85,109.14s55.31,5.9,98.32,0"/><path class="cls-5" d="M32.85,115.56s55.31,5.9,98.32,0"/><path class="cls-8" d="M32.85,120.79s17.32,3.94,55.16,3V86.13s-43.36-.6-55.16-3Z"/><path class="cls-5" d="M32.85,120.79s17.32,3.94,55.16,3V86.13s-43.36-.6-55.16-3Z"/><path class="cls-5" d="M32.85,122s55.31,5.9,98.32,0"/><path class="cls-5" d="M32.85,128.4s55.31,5.9,98.32,0"/><path class="cls-5" d="M32.85,134.82s55.31,5.9,98.32,0"/><path class="cls-5" d="M32.85,141.24s55.31,5.9,98.32,0"/><path class="cls-5" d="M32.85,147.66s55.31,5.9,98.32,0"/><path class="cls-5" d="M32.85,154.08s55.31,5.89,98.32,0"/><path class="cls-5" d="M32.85,160.5s55.31,5.89,98.32,0"/><path class="cls-9" d="M187.62,91.57s-2.78-4.21-9.41-3.21"/><path class="cls-9" d="M189,87.77s-2.78-4.21-9.41-3.21"/><path class="cls-9" d="M93.24,182.46s.57,5,6.94,7.12"/><path class="cls-9" d="M90.34,185.25s.57,5,6.94,7.12"/><path class="cls-9" d="M67.75,73.68s4,3.12,10,.08"/><path class="cls-9" d="M67.69,77.7s4,3.12,10,.08"/><path class="cls-9" d="M162.17,191.22s-3.89-3.2-9.94-.3"/><path class="cls-9" d="M162.32,187.2s-3.89-3.2-9.94-.3"/><circle class="cls-3" cx="39.6" cy="90.36" r="1.79"/><circle class="cls-3" cx="47.98" cy="90.98" r="1.79"/><circle class="cls-3" cx="56.37" cy="91.52" r="1.79"/><circle class="cls-3" cx="64.75" cy="91.52" r="1.79"/><circle class="cls-3" cx="73.13" cy="91.52" r="1.79"/><circle class="cls-3" cx="81.51" cy="91.71" r="1.79"/><circle class="cls-3" cx="39.6" cy="98.7" r="1.79"/><circle class="cls-3" cx="47.98" cy="99.31" r="1.79"/><circle class="cls-3" cx="56.37" cy="99.86" r="1.79"/><circle class="cls-3" cx="64.75" cy="99.86" r="1.79"/><circle class="cls-3" cx="73.13" cy="99.86" r="1.79"/><circle class="cls-3" cx="81.52" cy="99.86" r="1.79"/><circle class="cls-3" cx="39.61" cy="107.14" r="1.79"/><circle class="cls-3" cx="47.98" cy="107.87" r="1.79"/><circle class="cls-3" cx="56.36" cy="108.52" r="1.79"/><circle class="cls-3" cx="64.74" cy="108.63" r="1.79"/><circle class="cls-3" cx="73.12" cy="108.74" r="1.79"/><circle class="cls-3" cx="81.51" cy="108.85" r="1.79"/><circle class="cls-3" cx="39.63" cy="115.39" r="1.79"/><circle class="cls-3" cx="47.99" cy="116.23" r="1.79"/><circle class="cls-3" cx="56.35" cy="117.01" r="1.79"/><circle class="cls-3" cx="64.73" cy="117.24" r="1.79"/><circle class="cls-3" cx="73.11" cy="117.48" r="1.79"/><circle class="cls-3" cx="81.49" cy="117.71" r="1.79"/><circle class="cls-3" cx="44.11" cy="94.59" r="1.79"/><circle class="cls-3" cx="52.48" cy="95.29" r="1.79"/><circle class="cls-3" cx="60.86" cy="95.44" r="1.79"/><circle class="cls-3" cx="69.24" cy="95.59" r="1.79"/><circle class="cls-3" cx="77.63" cy="95.74" r="1.79"/><circle class="cls-3" cx="44.1" cy="103.24" r="1.79"/><circle class="cls-3" cx="52.48" cy="103.94" r="1.79"/><circle class="cls-3" cx="60.86" cy="104.09" r="1.79"/><circle class="cls-3" cx="69.24" cy="104.24" r="1.79"/><circle class="cls-3" cx="77.62" cy="104.39" r="1.79"/><circle class="cls-3" cx="43.68" cy="111.58" r="1.79"/><circle class="cls-3" cx="52.05" cy="112.36" r="1.79"/><circle class="cls-3" cx="60.42" cy="112.6" r="1.79"/><circle class="cls-3" cx="68.8" cy="112.83" r="1.79"/><circle class="cls-3" cx="77.18" cy="113.07" r="1.79"/><circle class="cls-1" cx="204.73" cy="224.94" r="38.4"/><circle class="cls-1" cx="243.33" cy="131.07" r="38.4"/><circle class="cls-1" cx="190.31" cy="39.91" r="38.4"/><path class="cls-6" d="M198.83,233.67h-.29l-.21-.15a53.76,53.76,0,0,1-5.73-3.87,28.93,28.93,0,0,1-6.22-6.42,14,14,0,0,1-2.23-5.09c-.08-.39-.14-.79-.21-1.19l0-1.3c.05-.34.08-.67.14-1a7.77,7.77,0,0,1,2.49-4.61,7.9,7.9,0,0,1,7.13-2,6.46,6.46,0,0,1,4.64,3.27.5.5,0,0,0,.1.11,6.13,6.13,0,0,1,1.55-2,7.33,7.33,0,0,1,4.15-1.67,7.81,7.81,0,0,1,5.71,1.65,8.17,8.17,0,0,1,3.11,7.62,12.69,12.69,0,0,1-1.68,5,25.81,25.81,0,0,1-5.5,6.55,48,48,0,0,1-6.19,4.6Z"/><path class="cls-10" d="M219.45,242.15h-.13l-.09-.06a24.08,24.08,0,0,1-2.46-1.66,12.48,12.48,0,0,1-2.67-2.76,5.89,5.89,0,0,1-1-2.19c0-.17-.06-.34-.09-.51v-.56c0-.15,0-.29.06-.43a3.32,3.32,0,0,1,1.07-2,3.38,3.38,0,0,1,3.06-.85,2.77,2.77,0,0,1,2,1.41l0,.05a2.6,2.6,0,0,1,.67-.87,3.12,3.12,0,0,1,1.78-.72,3.32,3.32,0,0,1,2.45.71,3.51,3.51,0,0,1,1.34,3.28,5.49,5.49,0,0,1-.72,2.14,11,11,0,0,1-2.37,2.81,21.49,21.49,0,0,1-2.65,2Z"/><circle class="cls-6" cx="243.33" cy="130.96" r="20.44"/><path class="cls-3" d="M239.68,139.45a3.66,3.66,0,1,1,3.65,3.8A3.65,3.65,0,0,1,239.68,139.45Zm.73-15.72-.22-5.4h6.29l-.22,5.4-.88,10.16h-4.09Z"/><rect class="cls-4" x="160.12" y="28.39" width="60.37" height="23.03"/><path class="cls-3" d="M177.84,40.29c0-3.46,2.29-5.47,4.92-5.47a4.4,4.4,0,0,1,3.14,1.36l-1.24,1.51a2.63,2.63,0,0,0-1.84-.83c-1.43,0-2.56,1.26-2.56,3.35s1,3.39,2.52,3.39a2.75,2.75,0,0,0,2-1l1.24,1.48a4.31,4.31,0,0,1-3.37,1.53C180.05,45.64,177.84,43.8,177.84,40.29Z"/><path class="cls-3" d="M189.49,37h-2.87V35h8.1v2h-2.87v8.46h-2.36Z"/><path class="cls-3" d="M197.65,35h2.82l3.28,10.44h-2.5l-1.36-5.29c-.29-1-.57-2.27-.85-3.36H199c-.26,1.1-.53,2.32-.82,3.36l-1.38,5.29h-2.41Zm-1.12,6.12h5V43h-5Z"/></svg>