<svg id="Layer_1" data-name="Layer 1" xmlns="http://www.w3.org/2000/svg" viewBox="0 0 180 208"><defs><style>.cls-1,.cls-5{fill:#fff;}.cls-2,.cls-4{fill:#c00;}.cls-3,.cls-7{fill:none;}.cls-3,.cls-4,.cls-5,.cls-6{stroke:#002e6d;}.cls-3,.cls-4,.cls-7{stroke-linejoin:round;}.cls-3,.cls-4{stroke-width:3px;}.cls-5,.cls-6{stroke-miterlimit:10;}.cls-6{fill:#007dbc;}.cls-7{stroke:#c5c5c5;stroke-linecap:round;stroke-width:2px;}</style></defs><title>us-flag</title><path class="cls-1" d="M80.94,32.77s28-5.81,84.82-2.2v90.79s-42.41-1.8-84.82,2.2Z"/><path class="cls-1" d="M89.72,53.48s27-4.63,84.82-1v7.86s-41.81-3.13-84.82-.69Z"/><path class="cls-1" d="M89.72,67.76s27-4.63,84.82-1v7.86s-41.81-3.13-84.82-.69Z"/><path class="cls-1" d="M89.72,82s27-4.63,84.82-1v7.86s-41.81-3.13-84.82-.69Z"/><path class="cls-1" d="M89.72,95.32s27-4.63,84.82-1v7.86s-41.81-3.13-84.82-.69Z"/><path class="cls-1" d="M89.72,108.6s27-4.63,84.82-1v7.86s-41.81-3.13-84.82-.69Z"/><path class="cls-1" d="M89.72,39.79s27-4.63,84.82-1v7.86S132.73,43.54,89.72,46Z"/><path class="cls-2" d="M89.72,46.79s24.28-4.63,76.28-1v7.86S128.4,50.53,89.72,53Z"/><path class="cls-2" d="M89.72,61.07s24.28-4.63,76.28-1v7.86s-37.6-3.13-76.28-.69Z"/><path class="cls-2" d="M89.72,75.34s24.28-4.63,76.28-1v7.86s-37.6-3.13-76.28-.69Z"/><path class="cls-2" d="M89.72,88.62S114,84,166,87.64V95.5s-37.6-3.13-76.28-.69Z"/><path class="cls-2" d="M89.72,101.9s24.28-4.63,76.28-1v7.86s-37.6-3.13-76.28-.69Z"/><path class="cls-2" d="M88.72,115.18s24.28-4.63,76.28-1v7.86s-37.6-3.13-76.28-.69Z"/><path class="cls-2" d="M89.72,33.1s24.28-4.63,76.28-1V40s-37.6-3.13-76.28-.69Z"/><path class="cls-3" d="M80.94,32.77s28-5.81,84.82-2.2v90.79s-42.41-1.8-84.82,2.2Z"/><path class="cls-3" d="M80.94,32.77s28-5.81,84.82-2.2"/><path class="cls-3" d="M80.94,41.52s28-5.81,84.82-2.2"/><path class="cls-3" d="M80.94,48.13s28-5.81,84.82-2.2"/><path class="cls-3" d="M80.94,55.36s28-5.81,84.82-2.2"/><path class="cls-3" d="M80.94,62.33s28-5.81,84.82-2.2"/><path class="cls-3" d="M80.94,68.94s28-5.81,84.82-2.2"/><path class="cls-3" d="M80.94,76.17s28-5.81,84.82-2.2"/><path class="cls-3" d="M80.94,83.14s28-5.81,84.82-2.2"/><path class="cls-3" d="M80.94,89.75s28-5.81,84.82-2.2"/><path class="cls-3" d="M80.94,97s28-5.81,84.82-2.2"/><path class="cls-3" d="M80.94,103.95s28-5.81,84.82-2.2"/><path class="cls-3" d="M80.94,110.56s28-5.81,84.82-2.2"/><path class="cls-3" d="M80.94,117.78s28-5.81,84.82-2.2"/><line class="cls-3" x1="6.42" y1="203.7" x2="6.42" y2="16.14"/><polygon class="cls-4" points="80.94 123.56 113.22 106.93 76.77 94.3 80.94 123.56"/><path class="cls-1" d="M6.42,16.14s60.07,7.52,106.8,0v90.79s-68.66,9.92-106.8,0Z"/><path class="cls-2" d="M113.11,106.39s-39.57,6.83-105.77,1v-5.89s58,3.39,105.66-1.47Z"/><path class="cls-1" d="M113.22,99.49s-35.16,6.55-94,.8V94.6s51.55,3.35,93.9-1.3Z"/><path class="cls-2" d="M113.13,92.51s-39.57,6.83-105.77,1V87.59S65.37,91,113,86.11Z"/><path class="cls-1" d="M113.22,86.07s-35.16,6.55-94,.8V81.19s51.55,3.35,93.9-1.3Z"/><path class="cls-2" d="M113.15,78.63s-39.57,6.83-105.77,1V73.7s58,3.39,105.66-1.47Z"/><path class="cls-1" d="M113.22,72.66s-35.16,6.55-94,.8V67.77s51.55,3.35,93.9-1.3Z"/><path class="cls-2" d="M113.17,63.71s-39.57,6.83-105.77,1V58.79s58,3.39,105.66-1.47Z"/><path class="cls-1" d="M113.22,58.24s-35.16,6.55-94,.8V53.35s51.55,3.35,93.9-1.3Z"/><path class="cls-2" d="M113.2,51.44S76.36,58,14.72,52.32V46.62s54,3.31,98.38-1.37Z"/><path class="cls-5" d="M113.22,44.46s-35.16,6.55-94,.8V39.57s51.55,3.35,93.9-1.3Z"/><path class="cls-2" d="M113.21,37.66s-36.84,6.58-98.48.87V32.84s54,3.31,98.38-1.37Z"/><path class="cls-2" d="M113.22,23.15S76.38,29.73,14.74,24V18.33s54,3.31,98.38-1.37Z"/><path class="cls-1" d="M113.22,30.68s-35.16,6.55-94,.8V25.79s51.55,3.35,93.9-1.3Z"/><path class="cls-3" d="M6.42,16.14s60.07,7.52,106.8,0v90.79c-46.55,8-106.8,0-106.8,0Z"/><path class="cls-3" d="M6.42,23.47s60.07,6.41,106.8,0"/><path class="cls-3" d="M6.42,30.44s60.07,6.41,106.8,0"/><path class="cls-3" d="M6.42,16.49s60.07,6.41,106.8,0"/><path class="cls-3" d="M6.42,37.41s60.07,6.41,106.8,0"/><path class="cls-3" d="M6.42,44.38s60.07,6.41,106.8,0"/><path class="cls-3" d="M6.42,51.36s60.07,6.41,106.8,0"/><path class="cls-6" d="M6.42,57s18.81,4.29,59.92,3.3V19.39s-47.1-.65-59.92-3.25Z"/><path class="cls-3" d="M6.42,57s18.81,4.29,59.92,3.3V19.39s-47.1-.65-59.92-3.25Z"/><path class="cls-3" d="M6.42,58.33s60.07,6.41,106.8,0"/><path class="cls-3" d="M6.42,65.3s60.07,6.41,106.8,0"/><path class="cls-3" d="M6.42,72.28s60.07,6.41,106.8,0"/><path class="cls-3" d="M6.42,79.25s60.07,6.41,106.8,0"/><path class="cls-3" d="M6.42,86.22s60.07,6.41,106.8,0"/><path class="cls-3" d="M6.42,93.19s60.07,6.41,106.8,0"/><path class="cls-3" d="M6.42,100.17s60.07,6.41,106.8,0"/><path class="cls-7" d="M174.54,25.29s-3-4.57-10.22-3.49"/><path class="cls-7" d="M176,21.17s-3-4.57-10.22-3.49"/><path class="cls-7" d="M72,124s.63,5.44,7.54,7.73"/><path class="cls-7" d="M68.86,127.05s.63,5.44,7.54,7.73"/><path class="cls-7" d="M44.33,5.86s4.31,3.39,10.8.09"/><path class="cls-7" d="M44.27,10.23s4.31,3.39,10.8.09"/><path class="cls-7" d="M146.89,133.54s-4.23-3.48-10.8-.33"/><path class="cls-7" d="M147.06,129.17s-4.23-3.48-10.8-.33"/><circle class="cls-1" cx="13.75" cy="23.98" r="1.94"/><circle class="cls-1" cx="22.86" cy="24.65" r="1.94"/><circle class="cls-1" cx="31.96" cy="25.24" r="1.94"/><circle class="cls-1" cx="41.07" cy="25.24" r="1.94"/><circle class="cls-1" cx="50.18" cy="25.24" r="1.94"/><circle class="cls-1" cx="59.27" cy="25.45" r="1.94"/><circle class="cls-1" cx="13.75" cy="33.04" r="1.94"/><circle class="cls-1" cx="22.86" cy="33.7" r="1.94"/><circle class="cls-1" cx="31.96" cy="34.3" r="1.94"/><circle class="cls-1" cx="41.07" cy="34.3" r="1.94"/><circle class="cls-1" cx="50.18" cy="34.3" r="1.94"/><circle class="cls-1" cx="59.28" cy="34.3" r="1.94"/><circle class="cls-1" cx="13.76" cy="42.21" r="1.94" transform="translate(-28.62 55.43) rotate(-89.26)"/><circle class="cls-1" cx="22.86" cy="43" r="1.94" transform="translate(-20.43 65.3) rotate(-89.26)"/><circle class="cls-1" cx="31.96" cy="43.71" r="1.94" transform="translate(-12.17 75.1) rotate(-89.26)"/><circle class="cls-1" cx="41.06" cy="43.83" r="1.94" transform="translate(-3.3 84.32) rotate(-89.26)"/><circle class="cls-1" cx="50.17" cy="43.95" r="1.94" transform="translate(5.57 93.54) rotate(-89.26)"/><circle class="cls-1" cx="59.27" cy="44.07" r="1.94" transform="translate(14.44 102.76) rotate(-89.26)"/><circle class="cls-1" cx="13.78" cy="51.17" r="1.94" transform="matrix(0.03, -1, 1, 0.03, -37.75, 63.53)"/><circle class="cls-1" cx="22.86" cy="52.09" r="1.94" transform="translate(-29.84 73.5) rotate(-88.42)"/><circle class="cls-1" cx="31.95" cy="52.93" r="1.94" transform="matrix(0.03, -1, 1, 0.03, -21.85, 83.41)"/><circle class="cls-1" cx="41.05" cy="53.18" r="1.94" transform="matrix(0.03, -1, 1, 0.03, -13.25, 92.75)"/><circle class="cls-1" cx="50.15" cy="53.44" r="1.94" transform="translate(-4.65 102.09) rotate(-88.42)"/><circle class="cls-1" cx="59.26" cy="53.69" r="1.94" transform="matrix(0.03, -1, 1, 0.03, 3.95, 111.44)"/><circle class="cls-1" cx="18.65" cy="28.58" r="1.94" transform="translate(-10.26 46.71) rotate(-88.97)"/><circle class="cls-1" cx="27.74" cy="29.33" r="1.94" transform="translate(-2.08 56.55) rotate(-88.97)"/><circle class="cls-1" cx="36.85" cy="29.5" r="1.94" transform="translate(6.69 65.81) rotate(-88.97)"/><circle class="cls-1" cx="45.95" cy="29.66" r="1.94" transform="translate(15.47 75.07) rotate(-88.97)"/><circle class="cls-1" cx="55.06" cy="29.82" r="1.94" transform="translate(24.25 84.34) rotate(-88.97)"/><circle class="cls-1" cx="18.64" cy="37.97" r="1.94" transform="translate(-19.66 55.93) rotate(-88.97)"/><circle class="cls-1" cx="27.74" cy="38.73" r="1.94" transform="translate(-11.48 65.77) rotate(-88.97)"/><circle class="cls-1" cx="36.84" cy="38.89" r="1.94" transform="translate(-2.71 75.03) rotate(-88.97)"/><circle class="cls-1" cx="45.95" cy="39.06" r="1.94" transform="translate(6.07 84.29) rotate(-88.97)"/><circle class="cls-1" cx="55.05" cy="39.22" r="1.94" transform="translate(14.85 93.56) rotate(-88.97)"/><circle class="cls-1" cx="18.19" cy="47.03" r="1.94" transform="translate(-29.34 63.88) rotate(-88.39)"/><circle class="cls-1" cx="27.27" cy="47.88" r="1.94" transform="translate(-21.36 73.79) rotate(-88.39)"/><circle class="cls-1" cx="36.37" cy="48.14" r="1.94" transform="translate(-12.77 83.14) rotate(-88.39)"/><circle class="cls-1" cx="45.47" cy="48.39" r="1.94" transform="translate(-4.18 92.49) rotate(-88.39)"/><circle class="cls-1" cx="54.58" cy="48.65" r="1.94" transform="translate(4.41 101.84) rotate(-88.39)"/></svg>